<svg width="auto" height="auto" viewBox="0 0 522 246" fill="none" xmlns="http://www.w3.org/2000/svg">
<path d="M9.47138 29C9.08738 29 8.75138 28.892 8.46338 28.676C8.19938 28.436 8.00738 28.124 7.88738 27.74L0.579375 3.08C0.387375 2.432 0.411375 1.904 0.651375 1.496C0.891375 1.088 1.28738 0.883999 1.83938 0.883999C2.15138 0.883999 2.45138 0.979999 2.73938 1.172C3.02738 1.34 3.23138 1.64 3.35138 2.072L9.90338 24.86H9.07538L15.2314 2.54C15.3034 2.252 15.4714 2.012 15.7354 1.82C16.0234 1.628 16.3474 1.532 16.7074 1.532C17.0194 1.532 17.3194 1.616 17.6074 1.784C17.9194 1.952 18.1114 2.216 18.1834 2.576L24.3754 24.86H23.5834L30.1354 1.928C30.3274 1.232 30.8434 0.883999 31.6834 0.883999C32.2354 0.883999 32.6074 1.1 32.7994 1.532C32.9914 1.964 33.0034 2.48 32.8354 3.08L25.5274 27.704C25.4074 28.112 25.2034 28.436 24.9154 28.676C24.6514 28.892 24.3274 29 23.9434 29C23.5834 29 23.2594 28.88 22.9714 28.64C22.7074 28.4 22.5154 28.1 22.3954 27.74L16.2754 5.024H17.1394L11.0554 27.704C10.9114 28.088 10.6954 28.4 10.4074 28.64C10.1434 28.88 9.83138 29 9.47138 29ZM41.9479 29.18C39.9799 29.18 38.2399 28.76 36.7279 27.92C35.2159 27.056 34.0279 25.868 33.1639 24.356C32.2999 22.844 31.8679 21.116 31.8679 19.172C31.8679 17.204 32.2759 15.476 33.0919 13.988C33.9079 12.476 35.0239 11.288 36.4399 10.424C37.8799 9.56 39.5359 9.128 41.4079 9.128C43.2559 9.128 44.8519 9.548 46.1959 10.388C47.5399 11.204 48.5719 12.344 49.2919 13.808C50.0359 15.272 50.4079 16.94 50.4079 18.812C50.4079 19.22 50.2759 19.556 50.0119 19.82C49.7479 20.06 49.4119 20.18 49.0039 20.18H33.9559V17.696H49.1479L47.6359 18.776C47.6359 17.456 47.3839 16.268 46.8799 15.212C46.3759 14.156 45.6559 13.328 44.7199 12.728C43.8079 12.128 42.7039 11.828 41.4079 11.828C40.0399 11.828 38.8519 12.152 37.8439 12.8C36.8359 13.424 36.0559 14.288 35.5039 15.392C34.9519 16.496 34.6759 17.756 34.6759 19.172C34.6759 20.588 34.9879 21.848 35.6119 22.952C36.2359 24.032 37.0879 24.896 38.1679 25.544C39.2719 26.168 40.5319 26.48 41.9479 26.48C42.7639 26.48 43.5919 26.336 44.4319 26.048C45.2959 25.76 45.9799 25.4 46.4839 24.968C46.7719 24.728 47.0959 24.608 47.4559 24.608C47.8399 24.584 48.1639 24.68 48.4279 24.896C48.7639 25.208 48.9319 25.556 48.9319 25.94C48.9559 26.3 48.8119 26.612 48.4999 26.876C47.6839 27.548 46.6639 28.1 45.4399 28.532C44.2399 28.964 43.0759 29.18 41.9479 29.18ZM74.1743 29.18C72.3503 29.18 70.7183 28.748 69.2783 27.884C67.8383 26.996 66.6983 25.796 65.8583 24.284C65.0183 22.772 64.5983 21.068 64.5983 19.172C64.5983 17.252 65.0303 15.536 65.8943 14.024C66.7823 12.512 67.9823 11.324 69.4943 10.46C71.0063 9.572 72.7103 9.128 74.6063 9.128C76.4783 9.128 78.1583 9.572 79.6463 10.46C81.1583 11.324 82.3463 12.512 83.2103 14.024C84.0983 15.536 84.5543 17.252 84.5783 19.172L83.3543 19.748C83.3543 21.524 82.9463 23.132 82.1303 24.572C81.3383 25.988 80.2463 27.116 78.8543 27.956C77.4863 28.772 75.9263 29.18 74.1743 29.18ZM74.6063 26.408C75.9263 26.408 77.1143 26.096 78.1703 25.472C79.2263 24.848 80.0543 23.984 80.6543 22.88C81.2543 21.776 81.5543 20.54 81.5543 19.172C81.5543 17.78 81.2543 16.544 80.6543 15.464C80.0543 14.36 79.2263 13.496 78.1703 12.872C77.1143 12.224 75.9263 11.9 74.6063 11.9C73.2863 11.9 72.0983 12.224 71.0423 12.872C69.9863 13.496 69.1463 14.36 68.5223 15.464C67.8983 16.544 67.5863 17.78 67.5863 19.172C67.5863 20.54 67.8983 21.776 68.5223 22.88C69.1463 23.984 69.9863 24.848 71.0423 25.472C72.0983 26.096 73.2863 26.408 74.6063 26.408ZM83.0303 29C82.5743 29 82.2023 28.868 81.9143 28.604C81.6263 28.316 81.4823 27.944 81.4823 27.488V21.548L82.1663 18.38L84.5783 19.172V27.488C84.5783 27.944 84.4223 28.316 84.1103 28.604C83.8223 28.868 83.4623 29 83.0303 29ZM98.9345 29.18C97.0385 29.18 95.3345 28.748 93.8225 27.884C92.3105 26.996 91.1105 25.796 90.2225 24.284C89.3585 22.772 88.9265 21.056 88.9265 19.136C88.9265 17.24 89.3465 15.536 90.1865 14.024C91.0265 12.512 92.1665 11.324 93.6065 10.46C95.0465 9.572 96.6785 9.128 98.5025 9.128C100.038 9.128 101.43 9.464 102.678 10.136C103.95 10.784 104.994 11.648 105.81 12.728V2.432C105.81 1.952 105.954 1.58 106.242 1.316C106.53 1.028 106.902 0.883999 107.358 0.883999C107.814 0.883999 108.186 1.028 108.474 1.316C108.762 1.58 108.906 1.952 108.906 2.432V19.244C108.858 21.116 108.39 22.808 107.502 24.32C106.638 25.808 105.462 26.996 103.974 27.884C102.486 28.748 100.806 29.18 98.9345 29.18ZM98.9345 26.408C100.254 26.408 101.442 26.096 102.498 25.472C103.554 24.824 104.382 23.96 104.982 22.88C105.582 21.776 105.882 20.528 105.882 19.136C105.882 17.768 105.582 16.532 104.982 15.428C104.382 14.324 103.554 13.46 102.498 12.836C101.442 12.212 100.254 11.9 98.9345 11.9C97.6145 11.9 96.4265 12.212 95.3705 12.836C94.3145 13.46 93.4745 14.324 92.8505 15.428C92.2265 16.532 91.9145 17.768 91.9145 19.136C91.9145 20.528 92.2265 21.776 92.8505 22.88C93.4745 23.96 94.3145 24.824 95.3705 25.472C96.4265 26.096 97.6145 26.408 98.9345 26.408ZM123.92 29.18C122.096 29.18 120.464 28.748 119.024 27.884C117.584 26.996 116.444 25.796 115.604 24.284C114.764 22.772 114.344 21.068 114.344 19.172C114.344 17.252 114.776 15.536 115.64 14.024C116.528 12.512 117.728 11.324 119.24 10.46C120.752 9.572 122.456 9.128 124.352 9.128C126.224 9.128 127.904 9.572 129.392 10.46C130.904 11.324 132.092 12.512 132.956 14.024C133.844 15.536 134.3 17.252 134.324 19.172L133.1 19.748C133.1 21.524 132.692 23.132 131.876 24.572C131.084 25.988 129.992 27.116 128.6 27.956C127.232 28.772 125.672 29.18 123.92 29.18ZM124.352 26.408C125.672 26.408 126.86 26.096 127.916 25.472C128.972 24.848 129.8 23.984 130.4 22.88C131 21.776 131.3 20.54 131.3 19.172C131.3 17.78 131 16.544 130.4 15.464C129.8 14.36 128.972 13.496 127.916 12.872C126.86 12.224 125.672 11.9 124.352 11.9C123.032 11.9 121.844 12.224 120.788 12.872C119.732 13.496 118.892 14.36 118.268 15.464C117.644 16.544 117.332 17.78 117.332 19.172C117.332 20.54 117.644 21.776 118.268 22.88C118.892 23.984 119.732 24.848 120.788 25.472C121.844 26.096 123.032 26.408 124.352 26.408ZM132.776 29C132.32 29 131.948 28.868 131.66 28.604C131.372 28.316 131.228 27.944 131.228 27.488V21.548L131.912 18.38L134.324 19.172V27.488C134.324 27.944 134.168 28.316 133.856 28.604C133.568 28.868 133.208 29 132.776 29ZM141.265 37.424C140.809 37.424 140.437 37.28 140.149 36.992C139.861 36.704 139.717 36.332 139.717 35.876V19.064C139.741 17.192 140.185 15.512 141.049 14.024C141.937 12.512 143.125 11.324 144.613 10.46C146.101 9.572 147.781 9.128 149.653 9.128C151.573 9.128 153.277 9.572 154.765 10.46C156.277 11.324 157.465 12.512 158.329 14.024C159.217 15.536 159.661 17.252 159.661 19.172C159.661 21.068 159.241 22.772 158.401 24.284C157.585 25.796 156.457 26.996 155.017 27.884C153.577 28.748 151.945 29.18 150.121 29.18C148.585 29.18 147.181 28.856 145.909 28.208C144.637 27.536 143.593 26.66 142.777 25.58V35.876C142.777 36.332 142.633 36.704 142.345 36.992C142.081 37.28 141.721 37.424 141.265 37.424ZM149.653 26.408C150.997 26.408 152.197 26.096 153.253 25.472C154.309 24.848 155.137 23.984 155.737 22.88C156.361 21.776 156.673 20.54 156.673 19.172C156.673 17.78 156.361 16.544 155.737 15.464C155.137 14.36 154.309 13.496 153.253 12.872C152.197 12.224 150.997 11.9 149.653 11.9C148.357 11.9 147.169 12.224 146.089 12.872C145.033 13.496 144.205 14.36 143.605 15.464C143.005 16.544 142.705 17.78 142.705 19.172C142.705 20.54 143.005 21.776 143.605 22.88C144.205 23.984 145.033 24.848 146.089 25.472C147.169 26.096 148.357 26.408 149.653 26.408ZM172.659 29C171.411 29 170.295 28.7 169.311 28.1C168.327 27.5 167.547 26.672 166.971 25.616C166.419 24.56 166.143 23.372 166.143 22.052V4.592C166.143 4.136 166.275 3.764 166.539 3.476C166.827 3.188 167.199 3.044 167.655 3.044C168.087 3.044 168.447 3.188 168.735 3.476C169.023 3.764 169.167 4.136 169.167 4.592V22.052C169.167 23.18 169.491 24.116 170.139 24.86C170.811 25.58 171.651 25.94 172.659 25.94H173.703C174.111 25.94 174.447 26.084 174.711 26.372C174.975 26.66 175.107 27.032 175.107 27.488C175.107 27.944 174.939 28.316 174.603 28.604C174.291 28.868 173.883 29 173.379 29H172.659ZM164.019 12.656C163.611 12.656 163.275 12.536 163.011 12.296C162.747 12.056 162.615 11.744 162.615 11.36C162.615 10.976 162.747 10.664 163.011 10.424C163.275 10.16 163.611 10.028 164.019 10.028H172.911C173.319 10.028 173.655 10.16 173.919 10.424C174.183 10.664 174.315 10.976 174.315 11.36C174.315 11.744 174.183 12.056 173.919 12.296C173.655 12.536 173.319 12.656 172.911 12.656H164.019ZM197.69 29C196.442 29 195.326 28.7 194.342 28.1C193.358 27.5 192.578 26.672 192.002 25.616C191.45 24.56 191.174 23.372 191.174 22.052V4.592C191.174 4.136 191.306 3.764 191.57 3.476C191.858 3.188 192.23 3.044 192.686 3.044C193.118 3.044 193.478 3.188 193.766 3.476C194.054 3.764 194.198 4.136 194.198 4.592V22.052C194.198 23.18 194.522 24.116 195.17 24.86C195.842 25.58 196.682 25.94 197.69 25.94H198.734C199.142 25.94 199.478 26.084 199.742 26.372C200.006 26.66 200.138 27.032 200.138 27.488C200.138 27.944 199.97 28.316 199.634 28.604C199.322 28.868 198.914 29 198.41 29H197.69ZM189.05 12.656C188.642 12.656 188.306 12.536 188.042 12.296C187.778 12.056 187.646 11.744 187.646 11.36C187.646 10.976 187.778 10.664 188.042 10.424C188.306 10.16 188.642 10.028 189.05 10.028H197.942C198.35 10.028 198.686 10.16 198.95 10.424C199.214 10.664 199.346 10.976 199.346 11.36C199.346 11.744 199.214 12.056 198.95 12.296C198.686 12.536 198.35 12.656 197.942 12.656H189.05ZM213.614 29.18C211.67 29.18 209.942 28.748 208.43 27.884C206.942 27.02 205.766 25.832 204.902 24.32C204.038 22.808 203.606 21.092 203.606 19.172C203.606 17.228 204.038 15.5 204.902 13.988C205.766 12.476 206.942 11.288 208.43 10.424C209.942 9.56 211.67 9.128 213.614 9.128C215.534 9.128 217.238 9.56 218.726 10.424C220.214 11.288 221.39 12.476 222.254 13.988C223.118 15.5 223.562 17.228 223.586 19.172C223.586 21.092 223.154 22.808 222.29 24.32C221.426 25.832 220.238 27.02 218.726 27.884C217.238 28.748 215.534 29.18 213.614 29.18ZM213.614 26.408C214.958 26.408 216.158 26.096 217.214 25.472C218.27 24.848 219.086 23.996 219.662 22.916C220.262 21.812 220.562 20.564 220.562 19.172C220.562 17.78 220.262 16.532 219.662 15.428C219.086 14.324 218.27 13.46 217.214 12.836C216.158 12.212 214.958 11.9 213.614 11.9C212.27 11.9 211.07 12.212 210.014 12.836C208.958 13.46 208.118 14.324 207.494 15.428C206.894 16.532 206.594 17.78 206.594 19.172C206.594 20.564 206.894 21.812 207.494 22.916C208.118 23.996 208.958 24.848 210.014 25.472C211.07 26.096 212.27 26.408 213.614 26.408ZM247.049 29C245.801 29 244.685 28.7 243.701 28.1C242.717 27.5 241.937 26.672 241.361 25.616C240.809 24.56 240.533 23.372 240.533 22.052V4.592C240.533 4.136 240.665 3.764 240.929 3.476C241.217 3.188 241.589 3.044 242.045 3.044C242.477 3.044 242.837 3.188 243.125 3.476C243.413 3.764 243.557 4.136 243.557 4.592V22.052C243.557 23.18 243.881 24.116 244.529 24.86C245.201 25.58 246.041 25.94 247.049 25.94H248.093C248.501 25.94 248.837 26.084 249.101 26.372C249.365 26.66 249.497 27.032 249.497 27.488C249.497 27.944 249.329 28.316 248.993 28.604C248.681 28.868 248.273 29 247.769 29H247.049ZM238.409 12.656C238.001 12.656 237.665 12.536 237.401 12.296C237.137 12.056 237.005 11.744 237.005 11.36C237.005 10.976 237.137 10.664 237.401 10.424C237.665 10.16 238.001 10.028 238.409 10.028H247.301C247.709 10.028 248.045 10.16 248.309 10.424C248.573 10.664 248.705 10.976 248.705 11.36C248.705 11.744 248.573 12.056 248.309 12.296C248.045 12.536 247.709 12.656 247.301 12.656H238.409ZM270.822 29C270.366 29 269.994 28.856 269.706 28.568C269.418 28.28 269.274 27.92 269.274 27.488V18.308C269.274 16.844 268.998 15.656 268.446 14.744C267.894 13.808 267.15 13.112 266.214 12.656C265.302 12.2 264.246 11.972 263.046 11.972C261.942 11.972 260.934 12.188 260.022 12.62C259.11 13.052 258.39 13.652 257.862 14.42C257.334 15.164 257.07 16.028 257.07 17.012H255.018C255.042 15.5 255.426 14.156 256.17 12.98C256.938 11.78 257.958 10.832 259.23 10.136C260.502 9.44 261.918 9.092 263.478 9.092C265.182 9.092 266.694 9.452 268.014 10.172C269.358 10.868 270.414 11.9 271.182 13.268C271.95 14.636 272.334 16.316 272.334 18.308V27.488C272.334 27.92 272.19 28.28 271.902 28.568C271.614 28.856 271.254 29 270.822 29ZM255.558 29C255.102 29 254.73 28.868 254.442 28.604C254.154 28.316 254.01 27.944 254.01 27.488V10.856C254.01 10.376 254.154 10.004 254.442 9.74C254.73 9.452 255.102 9.308 255.558 9.308C256.014 9.308 256.374 9.452 256.638 9.74C256.926 10.004 257.07 10.376 257.07 10.856V27.488C257.07 27.944 256.926 28.316 256.638 28.604C256.374 28.868 256.014 29 255.558 29ZM255.558 21.26C255.102 21.26 254.73 21.116 254.442 20.828C254.154 20.54 254.01 20.168 254.01 19.712V2.432C254.01 1.952 254.154 1.58 254.442 1.316C254.73 1.028 255.102 0.883999 255.558 0.883999C256.014 0.883999 256.374 1.028 256.638 1.316C256.926 1.58 257.07 1.952 257.07 2.432V19.712C257.07 20.168 256.926 20.54 256.638 20.828C256.374 21.116 256.014 21.26 255.558 21.26ZM287.479 29.18C285.511 29.18 283.771 28.76 282.259 27.92C280.747 27.056 279.559 25.868 278.695 24.356C277.831 22.844 277.399 21.116 277.399 19.172C277.399 17.204 277.807 15.476 278.623 13.988C279.439 12.476 280.555 11.288 281.971 10.424C283.411 9.56 285.067 9.128 286.939 9.128C288.787 9.128 290.383 9.548 291.727 10.388C293.071 11.204 294.103 12.344 294.823 13.808C295.567 15.272 295.939 16.94 295.939 18.812C295.939 19.22 295.807 19.556 295.543 19.82C295.279 20.06 294.943 20.18 294.535 20.18H279.487V17.696H294.679L293.167 18.776C293.167 17.456 292.915 16.268 292.411 15.212C291.907 14.156 291.187 13.328 290.251 12.728C289.339 12.128 288.235 11.828 286.939 11.828C285.571 11.828 284.383 12.152 283.375 12.8C282.367 13.424 281.587 14.288 281.035 15.392C280.483 16.496 280.207 17.756 280.207 19.172C280.207 20.588 280.519 21.848 281.143 22.952C281.767 24.032 282.619 24.896 283.699 25.544C284.803 26.168 286.063 26.48 287.479 26.48C288.295 26.48 289.123 26.336 289.963 26.048C290.827 25.76 291.511 25.4 292.015 24.968C292.303 24.728 292.627 24.608 292.987 24.608C293.371 24.584 293.695 24.68 293.959 24.896C294.295 25.208 294.463 25.556 294.463 25.94C294.487 26.3 294.343 26.612 294.031 26.876C293.215 27.548 292.195 28.1 290.971 28.532C289.771 28.964 288.607 29.18 287.479 29.18ZM318.158 29.18C316.646 29.18 315.182 28.94 313.766 28.46C312.374 27.956 311.258 27.248 310.418 26.336C310.13 26.024 310.01 25.664 310.058 25.256C310.106 24.848 310.298 24.5 310.634 24.212C311.018 23.924 311.402 23.816 311.786 23.888C312.194 23.936 312.542 24.104 312.83 24.392C313.334 24.992 314.054 25.484 314.99 25.868C315.926 26.228 316.958 26.408 318.086 26.408C319.742 26.408 320.954 26.132 321.722 25.58C322.49 25.004 322.886 24.308 322.91 23.492C322.934 22.676 322.55 21.992 321.758 21.44C320.99 20.888 319.67 20.456 317.798 20.144C315.374 19.736 313.598 19.052 312.47 18.092C311.366 17.132 310.814 15.98 310.814 14.636C310.814 13.412 311.15 12.392 311.822 11.576C312.494 10.76 313.37 10.148 314.45 9.74C315.554 9.332 316.742 9.128 318.014 9.128C319.622 9.128 321.014 9.404 322.19 9.956C323.366 10.484 324.314 11.204 325.034 12.116C325.322 12.452 325.442 12.812 325.394 13.196C325.346 13.556 325.154 13.856 324.818 14.096C324.482 14.288 324.098 14.348 323.666 14.276C323.258 14.204 322.91 14.012 322.622 13.7C322.022 13.052 321.338 12.584 320.57 12.296C319.802 12.008 318.926 11.864 317.942 11.864C316.718 11.864 315.71 12.104 314.918 12.584C314.15 13.064 313.766 13.688 313.766 14.456C313.766 14.984 313.898 15.44 314.162 15.824C314.45 16.208 314.954 16.556 315.674 16.868C316.394 17.156 317.402 17.42 318.698 17.66C320.498 17.972 321.914 18.404 322.946 18.956C324.002 19.508 324.758 20.168 325.214 20.936C325.67 21.68 325.898 22.508 325.898 23.42C325.898 24.524 325.574 25.508 324.926 26.372C324.302 27.236 323.402 27.92 322.226 28.424C321.074 28.928 319.718 29.18 318.158 29.18ZM332.667 29C332.211 29 331.839 28.856 331.551 28.568C331.263 28.28 331.119 27.908 331.119 27.452V10.856C331.119 10.376 331.263 10.004 331.551 9.74C331.839 9.452 332.211 9.308 332.667 9.308C333.123 9.308 333.483 9.452 333.747 9.74C334.035 10.004 334.179 10.376 334.179 10.856V27.452C334.179 27.908 334.035 28.28 333.747 28.568C333.483 28.856 333.123 29 332.667 29ZM332.631 5.744C332.055 5.744 331.563 5.54 331.155 5.132C330.747 4.724 330.543 4.22 330.543 3.62C330.543 3.02 330.747 2.528 331.155 2.144C331.587 1.736 332.091 1.532 332.667 1.532C333.219 1.532 333.699 1.736 334.107 2.144C334.539 2.528 334.755 3.02 334.755 3.62C334.755 4.22 334.539 4.724 334.107 5.132C333.699 5.54 333.207 5.744 332.631 5.744ZM342.854 28.136L340.55 26.624L353.546 9.884L355.598 11.648L342.854 28.136ZM341.666 29C340.73 29 340.262 28.532 340.262 27.596C340.262 26.66 340.73 26.192 341.666 26.192H354.662C355.598 26.192 356.066 26.66 356.066 27.596C356.066 28.532 355.598 29 354.662 29H341.666ZM341.45 12.116C340.514 12.116 340.046 11.648 340.046 10.712C340.046 9.776 340.514 9.308 341.45 9.308H354.446C355.382 9.308 355.85 9.776 355.85 10.712C355.85 11.648 355.382 12.116 354.446 12.116H341.45ZM369.147 29.18C367.179 29.18 365.439 28.76 363.927 27.92C362.415 27.056 361.227 25.868 360.363 24.356C359.499 22.844 359.067 21.116 359.067 19.172C359.067 17.204 359.475 15.476 360.291 13.988C361.107 12.476 362.223 11.288 363.639 10.424C365.079 9.56 366.735 9.128 368.607 9.128C370.455 9.128 372.051 9.548 373.395 10.388C374.739 11.204 375.771 12.344 376.491 13.808C377.235 15.272 377.607 16.94 377.607 18.812C377.607 19.22 377.475 19.556 377.211 19.82C376.947 20.06 376.611 20.18 376.203 20.18H361.155V17.696H376.347L374.835 18.776C374.835 17.456 374.583 16.268 374.079 15.212C373.575 14.156 372.855 13.328 371.919 12.728C371.007 12.128 369.903 11.828 368.607 11.828C367.239 11.828 366.051 12.152 365.043 12.8C364.035 13.424 363.255 14.288 362.703 15.392C362.151 16.496 361.875 17.756 361.875 19.172C361.875 20.588 362.187 21.848 362.811 22.952C363.435 24.032 364.287 24.896 365.367 25.544C366.471 26.168 367.731 26.48 369.147 26.48C369.963 26.48 370.791 26.336 371.631 26.048C372.495 25.76 373.179 25.4 373.683 24.968C373.971 24.728 374.295 24.608 374.655 24.608C375.039 24.584 375.363 24.68 375.627 24.896C375.963 25.208 376.131 25.556 376.131 25.94C376.155 26.3 376.011 26.612 375.699 26.876C374.883 27.548 373.863 28.1 372.639 28.532C371.439 28.964 370.275 29.18 369.147 29.18ZM401.806 29.18C399.862 29.18 398.134 28.748 396.622 27.884C395.134 27.02 393.958 25.832 393.094 24.32C392.23 22.808 391.798 21.092 391.798 19.172C391.798 17.228 392.23 15.5 393.094 13.988C393.958 12.476 395.134 11.288 396.622 10.424C398.134 9.56 399.862 9.128 401.806 9.128C403.726 9.128 405.43 9.56 406.918 10.424C408.406 11.288 409.582 12.476 410.446 13.988C411.31 15.5 411.754 17.228 411.778 19.172C411.778 21.092 411.346 22.808 410.482 24.32C409.618 25.832 408.43 27.02 406.918 27.884C405.43 28.748 403.726 29.18 401.806 29.18ZM401.806 26.408C403.15 26.408 404.35 26.096 405.406 25.472C406.462 24.848 407.278 23.996 407.854 22.916C408.454 21.812 408.754 20.564 408.754 19.172C408.754 17.78 408.454 16.532 407.854 15.428C407.278 14.324 406.462 13.46 405.406 12.836C404.35 12.212 403.15 11.9 401.806 11.9C400.462 11.9 399.262 12.212 398.206 12.836C397.15 13.46 396.31 14.324 395.686 15.428C395.086 16.532 394.786 17.78 394.786 19.172C394.786 20.564 395.086 21.812 395.686 22.916C396.31 23.996 397.15 24.848 398.206 25.472C399.262 26.096 400.462 26.408 401.806 26.408ZM419.51 29C419.126 29 418.778 28.868 418.466 28.604C418.178 28.316 418.034 27.932 418.034 27.452V9.38C418.034 7.676 418.334 6.188 418.934 4.916C419.558 3.644 420.446 2.66 421.598 1.964C422.774 1.244 424.166 0.883999 425.774 0.883999C426.23 0.883999 426.602 1.016 426.89 1.28C427.178 1.544 427.322 1.88 427.322 2.288C427.322 2.672 427.178 2.996 426.89 3.26C426.602 3.524 426.23 3.656 425.774 3.656C424.766 3.656 423.914 3.896 423.218 4.376C422.522 4.832 421.994 5.48 421.634 6.32C421.274 7.136 421.094 8.084 421.094 9.164V27.452C421.094 27.932 420.95 28.316 420.662 28.604C420.398 28.868 420.014 29 419.51 29ZM415.982 12.656C415.55 12.656 415.202 12.536 414.938 12.296C414.698 12.056 414.578 11.744 414.578 11.36C414.578 10.976 414.698 10.664 414.938 10.424C415.202 10.16 415.55 10.028 415.982 10.028H425.198C425.63 10.028 425.966 10.16 426.206 10.424C426.47 10.664 426.602 10.976 426.602 11.36C426.602 11.744 426.47 12.056 426.206 12.296C425.966 12.536 425.63 12.656 425.198 12.656H415.982ZM444.32 37.604C444.128 37.604 443.888 37.544 443.6 37.424C442.712 37.016 442.472 36.38 442.88 35.516L454.292 10.172C454.676 9.308 455.312 9.068 456.2 9.452C457.088 9.812 457.34 10.436 456.956 11.324L445.508 36.668C445.244 37.292 444.848 37.604 444.32 37.604ZM448.424 28.316C448.016 28.508 447.644 28.544 447.308 28.424C446.972 28.28 446.696 28.016 446.48 27.632L438.38 11.324C438.188 10.94 438.164 10.58 438.308 10.244C438.452 9.884 438.716 9.608 439.1 9.416C439.508 9.248 439.88 9.224 440.216 9.344C440.552 9.464 440.816 9.728 441.008 10.136L448.892 26.444C449.108 26.828 449.18 27.2 449.108 27.56C449.036 27.896 448.808 28.148 448.424 28.316ZM468.778 29.18C466.834 29.18 465.106 28.748 463.594 27.884C462.106 27.02 460.93 25.832 460.066 24.32C459.202 22.808 458.77 21.092 458.77 19.172C458.77 17.228 459.202 15.5 460.066 13.988C460.93 12.476 462.106 11.288 463.594 10.424C465.106 9.56 466.834 9.128 468.778 9.128C470.698 9.128 472.402 9.56 473.89 10.424C475.378 11.288 476.554 12.476 477.418 13.988C478.282 15.5 478.726 17.228 478.75 19.172C478.75 21.092 478.318 22.808 477.454 24.32C476.59 25.832 475.402 27.02 473.89 27.884C472.402 28.748 470.698 29.18 468.778 29.18ZM468.778 26.408C470.122 26.408 471.322 26.096 472.378 25.472C473.434 24.848 474.25 23.996 474.826 22.916C475.426 21.812 475.726 20.564 475.726 19.172C475.726 17.78 475.426 16.532 474.826 15.428C474.25 14.324 473.434 13.46 472.378 12.836C471.322 12.212 470.122 11.9 468.778 11.9C467.434 11.9 466.234 12.212 465.178 12.836C464.122 13.46 463.282 14.324 462.658 15.428C462.058 16.532 461.758 17.78 461.758 19.172C461.758 20.564 462.058 21.812 462.658 22.916C463.282 23.996 464.122 24.848 465.178 25.472C466.234 26.096 467.434 26.408 468.778 26.408ZM492.602 29.216C490.922 29.216 489.41 28.868 488.066 28.172C486.746 27.452 485.702 26.408 484.934 25.04C484.166 23.672 483.782 21.992 483.782 20V10.82C483.782 10.388 483.926 10.028 484.214 9.74C484.502 9.452 484.862 9.308 485.294 9.308C485.75 9.308 486.122 9.452 486.41 9.74C486.698 10.028 486.842 10.388 486.842 10.82V20C486.842 21.44 487.106 22.628 487.634 23.564C488.186 24.5 488.93 25.196 489.866 25.652C490.802 26.108 491.858 26.336 493.034 26.336C494.162 26.336 495.17 26.12 496.058 25.688C496.97 25.256 497.69 24.656 498.218 23.888C498.746 23.12 499.01 22.256 499.01 21.296H501.098C501.05 22.808 500.654 24.164 499.91 25.364C499.166 26.54 498.158 27.476 496.886 28.172C495.614 28.868 494.186 29.216 492.602 29.216ZM500.558 29C500.102 29 499.73 28.856 499.442 28.568C499.154 28.28 499.01 27.908 499.01 27.452V10.82C499.01 10.364 499.154 10.004 499.442 9.74C499.73 9.452 500.102 9.308 500.558 9.308C501.014 9.308 501.386 9.452 501.674 9.74C501.962 10.004 502.106 10.364 502.106 10.82V27.452C502.106 27.908 501.962 28.28 501.674 28.568C501.386 28.856 501.014 29 500.558 29ZM509.944 16.796C509.992 15.332 510.364 14.024 511.06 12.872C511.78 11.696 512.716 10.772 513.868 10.1C515.02 9.428 516.304 9.092 517.72 9.092C518.944 9.092 519.868 9.272 520.492 9.632C521.14 9.992 521.38 10.484 521.212 11.108C521.14 11.468 520.984 11.72 520.744 11.864C520.528 11.984 520.264 12.044 519.952 12.044C519.664 12.044 519.328 12.032 518.944 12.008C517.552 11.816 516.304 11.9 515.2 12.26C514.096 12.596 513.22 13.16 512.572 13.952C511.924 14.744 511.6 15.692 511.6 16.796H509.944ZM510.088 29C509.608 29 509.236 28.868 508.972 28.604C508.708 28.34 508.576 27.968 508.576 27.488V10.82C508.576 10.34 508.708 9.968 508.972 9.704C509.236 9.44 509.608 9.308 510.088 9.308C510.568 9.308 510.94 9.44 511.204 9.704C511.468 9.968 511.6 10.34 511.6 10.82V27.488C511.6 27.968 511.468 28.34 511.204 28.604C510.94 28.868 510.568 29 510.088 29ZM200.063 89.424C199.607 89.424 199.235 89.28 198.947 88.992C198.659 88.704 198.515 88.332 198.515 87.876V71.064C198.539 69.192 198.983 67.512 199.847 66.024C200.735 64.512 201.923 63.324 203.411 62.46C204.899 61.572 206.579 61.128 208.451 61.128C210.371 61.128 212.075 61.572 213.563 62.46C215.075 63.324 216.263 64.512 217.127 66.024C218.015 67.536 218.459 69.252 218.459 71.172C218.459 73.068 218.039 74.772 217.199 76.284C216.383 77.796 215.255 78.996 213.815 79.884C212.375 80.748 210.743 81.18 208.919 81.18C207.383 81.18 205.979 80.856 204.707 80.208C203.435 79.536 202.391 78.66 201.575 77.58V87.876C201.575 88.332 201.431 88.704 201.143 88.992C200.879 89.28 200.519 89.424 200.063 89.424ZM208.451 78.408C209.795 78.408 210.995 78.096 212.051 77.472C213.107 76.848 213.935 75.984 214.535 74.88C215.159 73.776 215.471 72.54 215.471 71.172C215.471 69.78 215.159 68.544 214.535 67.464C213.935 66.36 213.107 65.496 212.051 64.872C210.995 64.224 209.795 63.9 208.451 63.9C207.155 63.9 205.967 64.224 204.887 64.872C203.831 65.496 203.003 66.36 202.403 67.464C201.803 68.544 201.503 69.78 201.503 71.172C201.503 72.54 201.803 73.776 202.403 74.88C203.003 75.984 203.831 76.848 204.887 77.472C205.967 78.096 207.155 78.408 208.451 78.408ZM225.301 68.796C225.349 67.332 225.721 66.024 226.417 64.872C227.137 63.696 228.073 62.772 229.225 62.1C230.377 61.428 231.661 61.092 233.077 61.092C234.301 61.092 235.225 61.272 235.849 61.632C236.497 61.992 236.737 62.484 236.569 63.108C236.497 63.468 236.341 63.72 236.101 63.864C235.885 63.984 235.621 64.044 235.309 64.044C235.021 64.044 234.685 64.032 234.301 64.008C232.909 63.816 231.661 63.9 230.557 64.26C229.453 64.596 228.577 65.16 227.929 65.952C227.281 66.744 226.957 67.692 226.957 68.796H225.301ZM225.445 81C224.965 81 224.593 80.868 224.329 80.604C224.065 80.34 223.933 79.968 223.933 79.488V62.82C223.933 62.34 224.065 61.968 224.329 61.704C224.593 61.44 224.965 61.308 225.445 61.308C225.925 61.308 226.297 61.44 226.561 61.704C226.825 61.968 226.957 62.34 226.957 62.82V79.488C226.957 79.968 226.825 80.34 226.561 80.604C226.297 80.868 225.925 81 225.445 81ZM248.261 81.18C246.317 81.18 244.589 80.748 243.077 79.884C241.589 79.02 240.413 77.832 239.549 76.32C238.685 74.808 238.253 73.092 238.253 71.172C238.253 69.228 238.685 67.5 239.549 65.988C240.413 64.476 241.589 63.288 243.077 62.424C244.589 61.56 246.317 61.128 248.261 61.128C250.181 61.128 251.885 61.56 253.373 62.424C254.861 63.288 256.037 64.476 256.901 65.988C257.765 67.5 258.209 69.228 258.233 71.172C258.233 73.092 257.801 74.808 256.937 76.32C256.073 77.832 254.885 79.02 253.373 79.884C251.885 80.748 250.181 81.18 248.261 81.18ZM248.261 78.408C249.605 78.408 250.805 78.096 251.861 77.472C252.917 76.848 253.733 75.996 254.309 74.916C254.909 73.812 255.209 72.564 255.209 71.172C255.209 69.78 254.909 68.532 254.309 67.428C253.733 66.324 252.917 65.46 251.861 64.836C250.805 64.212 249.605 63.9 248.261 63.9C246.917 63.9 245.717 64.212 244.661 64.836C243.605 65.46 242.765 66.324 242.141 67.428C241.541 68.532 241.241 69.78 241.241 71.172C241.241 72.564 241.541 73.812 242.141 74.916C242.765 75.996 243.605 76.848 244.661 77.472C245.717 78.096 246.917 78.408 248.261 78.408ZM258.477 89.424C258.021 89.424 257.649 89.28 257.361 88.992C257.073 88.704 256.929 88.332 256.929 87.876C256.929 87.42 257.073 87.048 257.361 86.76C257.649 86.472 258.021 86.328 258.477 86.328C259.533 86.328 260.457 86.1 261.249 85.644C262.041 85.188 262.665 84.552 263.121 83.736C263.601 82.944 263.841 82.02 263.841 80.964V62.856C263.841 62.376 263.985 62.004 264.273 61.74C264.561 61.452 264.933 61.308 265.389 61.308C265.845 61.308 266.217 61.452 266.505 61.74C266.793 62.004 266.937 62.376 266.937 62.856V80.964C266.937 82.62 266.565 84.084 265.821 85.356C265.101 86.628 264.105 87.624 262.833 88.344C261.561 89.064 260.109 89.424 258.477 89.424ZM265.353 57.744C264.777 57.744 264.285 57.54 263.877 57.132C263.469 56.724 263.265 56.22 263.265 55.62C263.265 55.02 263.469 54.528 263.877 54.144C264.309 53.736 264.813 53.532 265.389 53.532C265.941 53.532 266.421 53.736 266.829 54.144C267.261 54.528 267.477 55.02 267.477 55.62C267.477 56.22 267.261 56.724 266.829 57.132C266.421 57.54 265.929 57.744 265.353 57.744ZM281.52 81.18C279.552 81.18 277.812 80.76 276.3 79.92C274.788 79.056 273.6 77.868 272.736 76.356C271.872 74.844 271.44 73.116 271.44 71.172C271.44 69.204 271.848 67.476 272.664 65.988C273.48 64.476 274.596 63.288 276.012 62.424C277.452 61.56 279.108 61.128 280.98 61.128C282.828 61.128 284.424 61.548 285.768 62.388C287.112 63.204 288.144 64.344 288.864 65.808C289.608 67.272 289.98 68.94 289.98 70.812C289.98 71.22 289.848 71.556 289.584 71.82C289.32 72.06 288.984 72.18 288.576 72.18H273.528V69.696H288.72L287.208 70.776C287.208 69.456 286.956 68.268 286.452 67.212C285.948 66.156 285.228 65.328 284.292 64.728C283.38 64.128 282.276 63.828 280.98 63.828C279.612 63.828 278.424 64.152 277.416 64.8C276.408 65.424 275.628 66.288 275.076 67.392C274.524 68.496 274.248 69.756 274.248 71.172C274.248 72.588 274.56 73.848 275.184 74.952C275.808 76.032 276.66 76.896 277.74 77.544C278.844 78.168 280.104 78.48 281.52 78.48C282.336 78.48 283.164 78.336 284.004 78.048C284.868 77.76 285.552 77.4 286.056 76.968C286.344 76.728 286.668 76.608 287.028 76.608C287.412 76.584 287.736 76.68 288 76.896C288.336 77.208 288.504 77.556 288.504 77.94C288.528 78.3 288.384 78.612 288.072 78.876C287.256 79.548 286.236 80.1 285.012 80.532C283.812 80.964 282.648 81.18 281.52 81.18ZM302.785 81.18C300.889 81.18 299.197 80.748 297.709 79.884C296.221 78.996 295.045 77.796 294.181 76.284C293.341 74.772 292.921 73.068 292.921 71.172C292.921 69.252 293.329 67.536 294.145 66.024C294.985 64.512 296.113 63.324 297.529 62.46C298.969 61.572 300.625 61.128 302.497 61.128C303.937 61.128 305.269 61.416 306.493 61.992C307.717 62.544 308.797 63.384 309.733 64.512C310.021 64.848 310.117 65.196 310.021 65.556C309.949 65.892 309.733 66.192 309.373 66.456C309.085 66.672 308.761 66.744 308.401 66.672C308.041 66.6 307.729 66.408 307.465 66.096C306.145 64.632 304.489 63.9 302.497 63.9C301.201 63.9 300.049 64.212 299.041 64.836C298.057 65.46 297.289 66.312 296.737 67.392C296.185 68.472 295.909 69.732 295.909 71.172C295.909 72.564 296.197 73.812 296.773 74.916C297.349 75.996 298.153 76.848 299.185 77.472C300.241 78.096 301.441 78.408 302.785 78.408C303.697 78.408 304.513 78.288 305.233 78.048C305.977 77.808 306.637 77.448 307.213 76.968C307.525 76.704 307.849 76.56 308.185 76.536C308.545 76.488 308.869 76.584 309.157 76.824C309.469 77.112 309.649 77.436 309.697 77.796C309.745 78.156 309.625 78.48 309.337 78.768C307.585 80.376 305.401 81.18 302.785 81.18ZM323.004 81C321.756 81 320.64 80.7 319.656 80.1C318.672 79.5 317.892 78.672 317.316 77.616C316.764 76.56 316.488 75.372 316.488 74.052V56.592C316.488 56.136 316.62 55.764 316.884 55.476C317.172 55.188 317.544 55.044 318 55.044C318.432 55.044 318.792 55.188 319.08 55.476C319.368 55.764 319.512 56.136 319.512 56.592V74.052C319.512 75.18 319.836 76.116 320.484 76.86C321.156 77.58 321.996 77.94 323.004 77.94H324.048C324.456 77.94 324.792 78.084 325.056 78.372C325.32 78.66 325.452 79.032 325.452 79.488C325.452 79.944 325.284 80.316 324.948 80.604C324.636 80.868 324.228 81 323.724 81H323.004ZM314.364 64.656C313.956 64.656 313.62 64.536 313.356 64.296C313.092 64.056 312.96 63.744 312.96 63.36C312.96 62.976 313.092 62.664 313.356 62.424C313.62 62.16 313.956 62.028 314.364 62.028H323.256C323.664 62.028 324 62.16 324.264 62.424C324.528 62.664 324.66 62.976 324.66 63.36C324.66 63.744 324.528 64.056 324.264 64.296C324 64.536 323.664 64.656 323.256 64.656H314.364ZM5.32378 185C4.89178 185 4.51978 184.856 4.20778 184.568C3.91978 184.256 3.77578 183.884 3.77578 183.452V158.432C3.77578 158 3.91978 157.64 4.20778 157.352C4.51978 157.04 4.89178 156.884 5.32378 156.884C5.75578 156.884 6.11578 157.04 6.40378 157.352C6.71578 157.64 6.87178 158 6.87178 158.432V181.976H20.6238C21.0558 181.976 21.4158 182.12 21.7038 182.408C22.0158 182.696 22.1718 183.056 22.1718 183.488C22.1718 183.92 22.0158 184.28 21.7038 184.568C21.4158 184.856 21.0558 185 20.6238 185H5.32378ZM35.3385 185.18C33.3705 185.18 31.6305 184.76 30.1185 183.92C28.6065 183.056 27.4185 181.868 26.5545 180.356C25.6905 178.844 25.2585 177.116 25.2585 175.172C25.2585 173.204 25.6665 171.476 26.4825 169.988C27.2985 168.476 28.4145 167.288 29.8305 166.424C31.2705 165.56 32.9265 165.128 34.7985 165.128C36.6465 165.128 38.2425 165.548 39.5865 166.388C40.9305 167.204 41.9625 168.344 42.6825 169.808C43.4265 171.272 43.7985 172.94 43.7985 174.812C43.7985 175.22 43.6665 175.556 43.4025 175.82C43.1385 176.06 42.8025 176.18 42.3945 176.18H27.3465V173.696H42.5385L41.0265 174.776C41.0265 173.456 40.7745 172.268 40.2705 171.212C39.7665 170.156 39.0465 169.328 38.1105 168.728C37.1985 168.128 36.0945 167.828 34.7985 167.828C33.4305 167.828 32.2425 168.152 31.2345 168.8C30.2265 169.424 29.4465 170.288 28.8945 171.392C28.3425 172.496 28.0665 173.756 28.0665 175.172C28.0665 176.588 28.3785 177.848 29.0025 178.952C29.6265 180.032 30.4785 180.896 31.5585 181.544C32.6625 182.168 33.9225 182.48 35.3385 182.48C36.1545 182.48 36.9825 182.336 37.8225 182.048C38.6865 181.76 39.3705 181.4 39.8745 180.968C40.1625 180.728 40.4865 180.608 40.8465 180.608C41.2305 180.584 41.5545 180.68 41.8185 180.896C42.1545 181.208 42.3225 181.556 42.3225 181.94C42.3465 182.3 42.2025 182.612 41.8905 182.876C41.0745 183.548 40.0545 184.1 38.8305 184.532C37.6305 184.964 36.4665 185.18 35.3385 185.18ZM56.0101 185C54.7621 185 53.6461 184.7 52.6621 184.1C51.6781 183.5 50.8981 182.672 50.3221 181.616C49.7701 180.56 49.4941 179.372 49.4941 178.052V160.592C49.4941 160.136 49.6261 159.764 49.8901 159.476C50.1781 159.188 50.5501 159.044 51.0061 159.044C51.4381 159.044 51.7981 159.188 52.0861 159.476C52.3741 159.764 52.5181 160.136 52.5181 160.592V178.052C52.5181 179.18 52.8421 180.116 53.4901 180.86C54.1621 181.58 55.0021 181.94 56.0101 181.94H57.0541C57.4621 181.94 57.7981 182.084 58.0621 182.372C58.3261 182.66 58.4581 183.032 58.4581 183.488C58.4581 183.944 58.2901 184.316 57.9541 184.604C57.6421 184.868 57.2341 185 56.7301 185H56.0101ZM47.3701 168.656C46.9621 168.656 46.6261 168.536 46.3621 168.296C46.0981 168.056 45.9661 167.744 45.9661 167.36C45.9661 166.976 46.0981 166.664 46.3621 166.424C46.6261 166.16 46.9621 166.028 47.3701 166.028H56.2621C56.6701 166.028 57.0061 166.16 57.2701 166.424C57.5341 166.664 57.6661 166.976 57.6661 167.36C57.6661 167.744 57.5341 168.056 57.2701 168.296C57.0061 168.536 56.6701 168.656 56.2621 168.656H47.3701ZM60.4659 164.804C60.1539 164.804 59.8779 164.696 59.6379 164.48C59.3979 164.24 59.2779 163.952 59.2779 163.616L58.9179 158.432C58.9179 158 59.0739 157.64 59.3859 157.352C59.6979 157.04 60.0579 156.884 60.4659 156.884C60.8979 156.884 61.2579 157.04 61.5459 157.352C61.8579 157.64 62.0139 158 62.0139 158.432L61.6539 163.616C61.6539 163.952 61.5339 164.24 61.2939 164.48C61.0779 164.696 60.8019 164.804 60.4659 164.804ZM71.2904 185.18C69.7784 185.18 68.3144 184.94 66.8984 184.46C65.5064 183.956 64.3904 183.248 63.5504 182.336C63.2624 182.024 63.1424 181.664 63.1904 181.256C63.2384 180.848 63.4304 180.5 63.7664 180.212C64.1504 179.924 64.5344 179.816 64.9184 179.888C65.3264 179.936 65.6744 180.104 65.9624 180.392C66.4664 180.992 67.1864 181.484 68.1224 181.868C69.0584 182.228 70.0904 182.408 71.2184 182.408C72.8744 182.408 74.0864 182.132 74.8544 181.58C75.6224 181.004 76.0184 180.308 76.0424 179.492C76.0664 178.676 75.6824 177.992 74.8904 177.44C74.1224 176.888 72.8024 176.456 70.9304 176.144C68.5064 175.736 66.7304 175.052 65.6024 174.092C64.4984 173.132 63.9464 171.98 63.9464 170.636C63.9464 169.412 64.2824 168.392 64.9544 167.576C65.6264 166.76 66.5024 166.148 67.5824 165.74C68.6864 165.332 69.8744 165.128 71.1464 165.128C72.7544 165.128 74.1464 165.404 75.3224 165.956C76.4984 166.484 77.4464 167.204 78.1664 168.116C78.4544 168.452 78.5744 168.812 78.5264 169.196C78.4784 169.556 78.2864 169.856 77.9504 170.096C77.6144 170.288 77.2304 170.348 76.7984 170.276C76.3904 170.204 76.0424 170.012 75.7544 169.7C75.1544 169.052 74.4704 168.584 73.7024 168.296C72.9344 168.008 72.0584 167.864 71.0744 167.864C69.8504 167.864 68.8424 168.104 68.0504 168.584C67.2824 169.064 66.8984 169.688 66.8984 170.456C66.8984 170.984 67.0304 171.44 67.2944 171.824C67.5824 172.208 68.0864 172.556 68.8064 172.868C69.5264 173.156 70.5344 173.42 71.8304 173.66C73.6304 173.972 75.0464 174.404 76.0784 174.956C77.1344 175.508 77.8904 176.168 78.3464 176.936C78.8024 177.68 79.0304 178.508 79.0304 179.42C79.0304 180.524 78.7064 181.508 78.0584 182.372C77.4344 183.236 76.5344 183.92 75.3584 184.424C74.2064 184.928 72.8504 185.18 71.2904 185.18ZM101.819 185C100.571 185 99.4547 184.7 98.4707 184.1C97.4867 183.5 96.7067 182.672 96.1307 181.616C95.5787 180.56 95.3027 179.372 95.3027 178.052V160.592C95.3027 160.136 95.4347 159.764 95.6987 159.476C95.9867 159.188 96.3587 159.044 96.8147 159.044C97.2467 159.044 97.6067 159.188 97.8947 159.476C98.1827 159.764 98.3267 160.136 98.3267 160.592V178.052C98.3267 179.18 98.6507 180.116 99.2987 180.86C99.9707 181.58 100.811 181.94 101.819 181.94H102.863C103.271 181.94 103.607 182.084 103.871 182.372C104.135 182.66 104.267 183.032 104.267 183.488C104.267 183.944 104.099 184.316 103.763 184.604C103.451 184.868 103.043 185 102.539 185H101.819ZM93.1787 168.656C92.7707 168.656 92.4347 168.536 92.1707 168.296C91.9067 168.056 91.7747 167.744 91.7747 167.36C91.7747 166.976 91.9067 166.664 92.1707 166.424C92.4347 166.16 92.7707 166.028 93.1787 166.028H102.071C102.479 166.028 102.815 166.16 103.079 166.424C103.343 166.664 103.475 166.976 103.475 167.36C103.475 167.744 103.343 168.056 103.079 168.296C102.815 168.536 102.479 168.656 102.071 168.656H93.1787ZM117.311 185.18C115.487 185.18 113.855 184.748 112.415 183.884C110.975 182.996 109.835 181.796 108.995 180.284C108.155 178.772 107.735 177.068 107.735 175.172C107.735 173.252 108.167 171.536 109.031 170.024C109.919 168.512 111.119 167.324 112.631 166.46C114.143 165.572 115.847 165.128 117.743 165.128C119.615 165.128 121.295 165.572 122.783 166.46C124.295 167.324 125.483 168.512 126.347 170.024C127.235 171.536 127.691 173.252 127.715 175.172L126.491 175.748C126.491 177.524 126.083 179.132 125.267 180.572C124.475 181.988 123.383 183.116 121.991 183.956C120.623 184.772 119.063 185.18 117.311 185.18ZM117.743 182.408C119.063 182.408 120.251 182.096 121.307 181.472C122.363 180.848 123.191 179.984 123.791 178.88C124.391 177.776 124.691 176.54 124.691 175.172C124.691 173.78 124.391 172.544 123.791 171.464C123.191 170.36 122.363 169.496 121.307 168.872C120.251 168.224 119.063 167.9 117.743 167.9C116.423 167.9 115.235 168.224 114.179 168.872C113.123 169.496 112.283 170.36 111.659 171.464C111.035 172.544 110.723 173.78 110.723 175.172C110.723 176.54 111.035 177.776 111.659 178.88C112.283 179.984 113.123 180.848 114.179 181.472C115.235 182.096 116.423 182.408 117.743 182.408ZM126.167 185C125.711 185 125.339 184.868 125.051 184.604C124.763 184.316 124.619 183.944 124.619 183.488V177.548L125.303 174.38L127.715 175.172V183.488C127.715 183.944 127.559 184.316 127.247 184.604C126.959 184.868 126.599 185 126.167 185ZM135.771 178.196L133.899 176.18L145.779 165.452C146.091 165.164 146.427 165.032 146.787 165.056C147.147 165.08 147.471 165.248 147.759 165.56C148.047 165.872 148.179 166.208 148.155 166.568C148.131 166.928 147.963 167.24 147.651 167.504L135.771 178.196ZM134.619 185C134.163 185 133.791 184.868 133.503 184.604C133.239 184.316 133.107 183.944 133.107 183.488V158.396C133.107 157.94 133.239 157.58 133.503 157.316C133.791 157.028 134.163 156.884 134.619 156.884C135.051 156.884 135.399 157.028 135.663 157.316C135.951 157.58 136.095 157.94 136.095 158.396V183.488C136.095 183.944 135.951 184.316 135.663 184.604C135.399 184.868 135.051 185 134.619 185ZM147.759 184.82C147.423 185.108 147.063 185.228 146.679 185.18C146.319 185.156 146.007 184.976 145.743 184.64L137.931 175.028L140.091 173.084L147.975 182.804C148.239 183.14 148.359 183.488 148.335 183.848C148.311 184.208 148.119 184.532 147.759 184.82ZM160.917 185.18C158.949 185.18 157.209 184.76 155.697 183.92C154.185 183.056 152.997 181.868 152.133 180.356C151.269 178.844 150.837 177.116 150.837 175.172C150.837 173.204 151.245 171.476 152.061 169.988C152.877 168.476 153.993 167.288 155.409 166.424C156.849 165.56 158.505 165.128 160.377 165.128C162.225 165.128 163.821 165.548 165.165 166.388C166.509 167.204 167.541 168.344 168.261 169.808C169.005 171.272 169.377 172.94 169.377 174.812C169.377 175.22 169.245 175.556 168.981 175.82C168.717 176.06 168.381 176.18 167.973 176.18H152.925V173.696H168.117L166.605 174.776C166.605 173.456 166.353 172.268 165.849 171.212C165.345 170.156 164.625 169.328 163.689 168.728C162.777 168.128 161.673 167.828 160.377 167.828C159.009 167.828 157.821 168.152 156.813 168.8C155.805 169.424 155.025 170.288 154.473 171.392C153.921 172.496 153.645 173.756 153.645 175.172C153.645 176.588 153.957 177.848 154.581 178.952C155.205 180.032 156.057 180.896 157.137 181.544C158.241 182.168 159.501 182.48 160.917 182.48C161.733 182.48 162.561 182.336 163.401 182.048C164.265 181.76 164.949 181.4 165.453 180.968C165.741 180.728 166.065 180.608 166.425 180.608C166.809 180.584 167.133 180.68 167.397 180.896C167.733 181.208 167.901 181.556 167.901 181.94C167.925 182.3 167.781 182.612 167.469 182.876C166.653 183.548 165.633 184.1 164.409 184.532C163.209 184.964 162.045 185.18 160.917 185.18ZM193.143 185.18C191.319 185.18 189.687 184.748 188.247 183.884C186.807 182.996 185.667 181.796 184.827 180.284C183.987 178.772 183.567 177.068 183.567 175.172C183.567 173.252 183.999 171.536 184.863 170.024C185.751 168.512 186.951 167.324 188.463 166.46C189.975 165.572 191.679 165.128 193.575 165.128C195.447 165.128 197.127 165.572 198.615 166.46C200.127 167.324 201.315 168.512 202.179 170.024C203.067 171.536 203.523 173.252 203.547 175.172L202.323 175.748C202.323 177.524 201.915 179.132 201.099 180.572C200.307 181.988 199.215 183.116 197.823 183.956C196.455 184.772 194.895 185.18 193.143 185.18ZM193.575 182.408C194.895 182.408 196.083 182.096 197.139 181.472C198.195 180.848 199.023 179.984 199.623 178.88C200.223 177.776 200.523 176.54 200.523 175.172C200.523 173.78 200.223 172.544 199.623 171.464C199.023 170.36 198.195 169.496 197.139 168.872C196.083 168.224 194.895 167.9 193.575 167.9C192.255 167.9 191.067 168.224 190.011 168.872C188.955 169.496 188.115 170.36 187.491 171.464C186.867 172.544 186.555 173.78 186.555 175.172C186.555 176.54 186.867 177.776 187.491 178.88C188.115 179.984 188.955 180.848 190.011 181.472C191.067 182.096 192.255 182.408 193.575 182.408ZM201.999 185C201.543 185 201.171 184.868 200.883 184.604C200.595 184.316 200.451 183.944 200.451 183.488V177.548L201.135 174.38L203.547 175.172V183.488C203.547 183.944 203.391 184.316 203.079 184.604C202.791 184.868 202.431 185 201.999 185ZM228.306 185.18C226.41 185.18 224.718 184.748 223.23 183.884C221.742 182.996 220.566 181.796 219.702 180.284C218.862 178.772 218.442 177.068 218.442 175.172C218.442 173.252 218.85 171.536 219.666 170.024C220.506 168.512 221.634 167.324 223.05 166.46C224.49 165.572 226.146 165.128 228.018 165.128C229.458 165.128 230.79 165.416 232.014 165.992C233.238 166.544 234.318 167.384 235.254 168.512C235.542 168.848 235.638 169.196 235.542 169.556C235.47 169.892 235.254 170.192 234.894 170.456C234.606 170.672 234.282 170.744 233.922 170.672C233.562 170.6 233.25 170.408 232.986 170.096C231.666 168.632 230.01 167.9 228.018 167.9C226.722 167.9 225.57 168.212 224.562 168.836C223.578 169.46 222.81 170.312 222.258 171.392C221.706 172.472 221.43 173.732 221.43 175.172C221.43 176.564 221.718 177.812 222.294 178.916C222.87 179.996 223.674 180.848 224.706 181.472C225.762 182.096 226.962 182.408 228.306 182.408C229.218 182.408 230.034 182.288 230.754 182.048C231.498 181.808 232.158 181.448 232.734 180.968C233.046 180.704 233.37 180.56 233.706 180.536C234.066 180.488 234.39 180.584 234.678 180.824C234.99 181.112 235.17 181.436 235.218 181.796C235.266 182.156 235.146 182.48 234.858 182.768C233.106 184.376 230.922 185.18 228.306 185.18ZM249.966 185.18C248.022 185.18 246.294 184.748 244.782 183.884C243.294 183.02 242.118 181.832 241.254 180.32C240.39 178.808 239.958 177.092 239.958 175.172C239.958 173.228 240.39 171.5 241.254 169.988C242.118 168.476 243.294 167.288 244.782 166.424C246.294 165.56 248.022 165.128 249.966 165.128C251.886 165.128 253.59 165.56 255.078 166.424C256.566 167.288 257.742 168.476 258.606 169.988C259.47 171.5 259.914 173.228 259.938 175.172C259.938 177.092 259.506 178.808 258.642 180.32C257.778 181.832 256.59 183.02 255.078 183.884C253.59 184.748 251.886 185.18 249.966 185.18ZM249.966 182.408C251.31 182.408 252.51 182.096 253.566 181.472C254.622 180.848 255.438 179.996 256.014 178.916C256.614 177.812 256.914 176.564 256.914 175.172C256.914 173.78 256.614 172.532 256.014 171.428C255.438 170.324 254.622 169.46 253.566 168.836C252.51 168.212 251.31 167.9 249.966 167.9C248.622 167.9 247.422 168.212 246.366 168.836C245.31 169.46 244.47 170.324 243.846 171.428C243.246 172.532 242.946 173.78 242.946 175.172C242.946 176.564 243.246 177.812 243.846 178.916C244.47 179.996 245.31 180.848 246.366 181.472C247.422 182.096 248.622 182.408 249.966 182.408ZM267.67 185C267.286 185 266.938 184.868 266.626 184.604C266.338 184.316 266.194 183.932 266.194 183.452V165.38C266.194 163.676 266.494 162.188 267.094 160.916C267.718 159.644 268.606 158.66 269.758 157.964C270.934 157.244 272.326 156.884 273.934 156.884C274.39 156.884 274.762 157.016 275.05 157.28C275.338 157.544 275.482 157.88 275.482 158.288C275.482 158.672 275.338 158.996 275.05 159.26C274.762 159.524 274.39 159.656 273.934 159.656C272.926 159.656 272.074 159.896 271.378 160.376C270.682 160.832 270.154 161.48 269.794 162.32C269.434 163.136 269.254 164.084 269.254 165.164V183.452C269.254 183.932 269.11 184.316 268.822 184.604C268.558 184.868 268.174 185 267.67 185ZM264.142 168.656C263.71 168.656 263.362 168.536 263.098 168.296C262.858 168.056 262.738 167.744 262.738 167.36C262.738 166.976 262.858 166.664 263.098 166.424C263.362 166.16 263.71 166.028 264.142 166.028H273.358C273.79 166.028 274.126 166.16 274.366 166.424C274.63 166.664 274.762 166.976 274.762 167.36C274.762 167.744 274.63 168.056 274.366 168.296C274.126 168.536 273.79 168.656 273.358 168.656H264.142ZM280.846 185C280.462 185 280.114 184.868 279.802 184.604C279.514 184.316 279.37 183.932 279.37 183.452V165.38C279.37 163.676 279.67 162.188 280.27 160.916C280.894 159.644 281.782 158.66 282.934 157.964C284.11 157.244 285.502 156.884 287.11 156.884C287.566 156.884 287.938 157.016 288.226 157.28C288.514 157.544 288.658 157.88 288.658 158.288C288.658 158.672 288.514 158.996 288.226 159.26C287.938 159.524 287.566 159.656 287.11 159.656C286.102 159.656 285.25 159.896 284.554 160.376C283.858 160.832 283.33 161.48 282.97 162.32C282.61 163.136 282.43 164.084 282.43 165.164V183.452C282.43 183.932 282.286 184.316 281.998 184.604C281.734 184.868 281.35 185 280.846 185ZM277.318 168.656C276.886 168.656 276.538 168.536 276.274 168.296C276.034 168.056 275.914 167.744 275.914 167.36C275.914 166.976 276.034 166.664 276.274 166.424C276.538 166.16 276.886 166.028 277.318 166.028H286.534C286.966 166.028 287.302 166.16 287.542 166.424C287.806 166.664 287.938 166.976 287.938 167.36C287.938 167.744 287.806 168.056 287.542 168.296C287.302 168.536 286.966 168.656 286.534 168.656H277.318ZM300.065 185.18C298.097 185.18 296.357 184.76 294.845 183.92C293.333 183.056 292.145 181.868 291.281 180.356C290.417 178.844 289.985 177.116 289.985 175.172C289.985 173.204 290.393 171.476 291.209 169.988C292.025 168.476 293.141 167.288 294.557 166.424C295.997 165.56 297.653 165.128 299.525 165.128C301.373 165.128 302.969 165.548 304.313 166.388C305.657 167.204 306.689 168.344 307.409 169.808C308.153 171.272 308.525 172.94 308.525 174.812C308.525 175.22 308.393 175.556 308.129 175.82C307.865 176.06 307.529 176.18 307.121 176.18H292.073V173.696H307.265L305.753 174.776C305.753 173.456 305.501 172.268 304.997 171.212C304.493 170.156 303.773 169.328 302.837 168.728C301.925 168.128 300.821 167.828 299.525 167.828C298.157 167.828 296.969 168.152 295.961 168.8C294.953 169.424 294.173 170.288 293.621 171.392C293.069 172.496 292.793 173.756 292.793 175.172C292.793 176.588 293.105 177.848 293.729 178.952C294.353 180.032 295.205 180.896 296.285 181.544C297.389 182.168 298.649 182.48 300.065 182.48C300.881 182.48 301.709 182.336 302.549 182.048C303.413 181.76 304.097 181.4 304.601 180.968C304.889 180.728 305.213 180.608 305.573 180.608C305.957 180.584 306.281 180.68 306.545 180.896C306.881 181.208 307.049 181.556 307.049 181.94C307.073 182.3 306.929 182.612 306.617 182.876C305.801 183.548 304.781 184.1 303.557 184.532C302.357 184.964 301.193 185.18 300.065 185.18ZM321.546 185.18C319.578 185.18 317.838 184.76 316.326 183.92C314.814 183.056 313.626 181.868 312.762 180.356C311.898 178.844 311.466 177.116 311.466 175.172C311.466 173.204 311.874 171.476 312.69 169.988C313.506 168.476 314.622 167.288 316.038 166.424C317.478 165.56 319.134 165.128 321.006 165.128C322.854 165.128 324.45 165.548 325.794 166.388C327.138 167.204 328.17 168.344 328.89 169.808C329.634 171.272 330.006 172.94 330.006 174.812C330.006 175.22 329.874 175.556 329.61 175.82C329.346 176.06 329.01 176.18 328.602 176.18H313.554V173.696H328.746L327.234 174.776C327.234 173.456 326.982 172.268 326.478 171.212C325.974 170.156 325.254 169.328 324.318 168.728C323.406 168.128 322.302 167.828 321.006 167.828C319.638 167.828 318.45 168.152 317.442 168.8C316.434 169.424 315.654 170.288 315.102 171.392C314.55 172.496 314.274 173.756 314.274 175.172C314.274 176.588 314.586 177.848 315.21 178.952C315.834 180.032 316.686 180.896 317.766 181.544C318.87 182.168 320.13 182.48 321.546 182.48C322.362 182.48 323.19 182.336 324.03 182.048C324.894 181.76 325.578 181.4 326.082 180.968C326.37 180.728 326.694 180.608 327.054 180.608C327.438 180.584 327.762 180.68 328.026 180.896C328.362 181.208 328.53 181.556 328.53 181.94C328.554 182.3 328.41 182.612 328.098 182.876C327.282 183.548 326.262 184.1 325.038 184.532C323.838 184.964 322.674 185.18 321.546 185.18ZM353.772 185.18C351.948 185.18 350.316 184.748 348.876 183.884C347.436 182.996 346.296 181.796 345.456 180.284C344.616 178.772 344.196 177.068 344.196 175.172C344.196 173.252 344.628 171.536 345.492 170.024C346.38 168.512 347.58 167.324 349.092 166.46C350.604 165.572 352.308 165.128 354.204 165.128C356.076 165.128 357.756 165.572 359.244 166.46C360.756 167.324 361.944 168.512 362.808 170.024C363.696 171.536 364.152 173.252 364.176 175.172L362.952 175.748C362.952 177.524 362.544 179.132 361.728 180.572C360.936 181.988 359.844 183.116 358.452 183.956C357.084 184.772 355.524 185.18 353.772 185.18ZM354.204 182.408C355.524 182.408 356.712 182.096 357.768 181.472C358.824 180.848 359.652 179.984 360.252 178.88C360.852 177.776 361.152 176.54 361.152 175.172C361.152 173.78 360.852 172.544 360.252 171.464C359.652 170.36 358.824 169.496 357.768 168.872C356.712 168.224 355.524 167.9 354.204 167.9C352.884 167.9 351.696 168.224 350.64 168.872C349.584 169.496 348.744 170.36 348.12 171.464C347.496 172.544 347.184 173.78 347.184 175.172C347.184 176.54 347.496 177.776 348.12 178.88C348.744 179.984 349.584 180.848 350.64 181.472C351.696 182.096 352.884 182.408 354.204 182.408ZM362.628 185C362.172 185 361.8 184.868 361.512 184.604C361.224 184.316 361.08 183.944 361.08 183.488V177.548L361.764 174.38L364.176 175.172V183.488C364.176 183.944 364.02 184.316 363.708 184.604C363.42 184.868 363.06 185 362.628 185ZM386.38 185C385.924 185 385.552 184.856 385.264 184.568C384.976 184.28 384.832 183.92 384.832 183.488V174.308C384.832 172.844 384.556 171.656 384.004 170.744C383.452 169.808 382.708 169.112 381.772 168.656C380.86 168.2 379.804 167.972 378.604 167.972C377.5 167.972 376.492 168.188 375.58 168.62C374.668 169.052 373.948 169.652 373.42 170.42C372.892 171.164 372.628 172.028 372.628 173.012H370.576C370.6 171.5 370.984 170.156 371.728 168.98C372.496 167.78 373.516 166.832 374.788 166.136C376.06 165.44 377.476 165.092 379.036 165.092C380.74 165.092 382.252 165.452 383.572 166.172C384.916 166.868 385.972 167.9 386.74 169.268C387.508 170.636 387.892 172.316 387.892 174.308V183.488C387.892 183.92 387.748 184.28 387.46 184.568C387.172 184.856 386.812 185 386.38 185ZM371.116 185C370.66 185 370.288 184.868 370 184.604C369.712 184.316 369.568 183.944 369.568 183.488V166.856C369.568 166.376 369.712 166.004 370 165.74C370.288 165.452 370.66 165.308 371.116 165.308C371.572 165.308 371.932 165.452 372.196 165.74C372.484 166.004 372.628 166.376 372.628 166.856V183.488C372.628 183.944 372.484 184.316 372.196 184.604C371.932 184.868 371.572 185 371.116 185ZM402.966 185.18C401.07 185.18 399.366 184.748 397.854 183.884C396.342 182.996 395.142 181.796 394.254 180.284C393.39 178.772 392.958 177.056 392.958 175.136C392.958 173.24 393.378 171.536 394.218 170.024C395.058 168.512 396.198 167.324 397.638 166.46C399.078 165.572 400.71 165.128 402.534 165.128C404.07 165.128 405.462 165.464 406.71 166.136C407.982 166.784 409.026 167.648 409.842 168.728V158.432C409.842 157.952 409.986 157.58 410.274 157.316C410.562 157.028 410.934 156.884 411.39 156.884C411.846 156.884 412.218 157.028 412.506 157.316C412.794 157.58 412.938 157.952 412.938 158.432V175.244C412.89 177.116 412.422 178.808 411.534 180.32C410.67 181.808 409.494 182.996 408.006 183.884C406.518 184.748 404.838 185.18 402.966 185.18ZM402.966 182.408C404.286 182.408 405.474 182.096 406.53 181.472C407.586 180.824 408.414 179.96 409.014 178.88C409.614 177.776 409.914 176.528 409.914 175.136C409.914 173.768 409.614 172.532 409.014 171.428C408.414 170.324 407.586 169.46 406.53 168.836C405.474 168.212 404.286 167.9 402.966 167.9C401.646 167.9 400.458 168.212 399.402 168.836C398.346 169.46 397.506 170.324 396.882 171.428C396.258 172.532 395.946 173.768 395.946 175.136C395.946 176.528 396.258 177.776 396.882 178.88C397.506 179.96 398.346 180.824 399.402 181.472C400.458 182.096 401.646 182.408 402.966 182.408ZM439.903 185.18C438.031 185.18 436.351 184.748 434.863 183.884C433.375 182.996 432.187 181.808 431.299 180.32C430.435 178.808 429.991 177.116 429.967 175.244V158.432C429.967 157.952 430.111 157.58 430.399 157.316C430.687 157.028 431.059 156.884 431.515 156.884C431.971 156.884 432.331 157.028 432.595 157.316C432.883 157.58 433.027 157.952 433.027 158.432V168.728C433.843 167.648 434.887 166.784 436.159 166.136C437.431 165.464 438.835 165.128 440.371 165.128C442.195 165.128 443.827 165.572 445.267 166.46C446.707 167.324 447.835 168.512 448.651 170.024C449.491 171.536 449.911 173.24 449.911 175.136C449.911 177.056 449.467 178.772 448.579 180.284C447.715 181.796 446.527 182.996 445.015 183.884C443.527 184.748 441.823 185.18 439.903 185.18ZM439.903 182.408C441.247 182.408 442.447 182.096 443.503 181.472C444.559 180.824 445.387 179.96 445.987 178.88C446.611 177.776 446.923 176.528 446.923 175.136C446.923 173.768 446.611 172.532 445.987 171.428C445.387 170.324 444.559 169.46 443.503 168.836C442.447 168.212 441.247 167.9 439.903 167.9C438.607 167.9 437.419 168.212 436.339 168.836C435.283 169.46 434.455 170.324 433.855 171.428C433.255 172.532 432.955 173.768 432.955 175.136C432.955 176.528 433.255 177.776 433.855 178.88C434.455 179.96 435.283 180.824 436.339 181.472C437.419 182.096 438.607 182.408 439.903 182.408ZM463.845 185.216C462.165 185.216 460.653 184.868 459.309 184.172C457.989 183.452 456.945 182.408 456.177 181.04C455.409 179.672 455.025 177.992 455.025 176V166.82C455.025 166.388 455.169 166.028 455.457 165.74C455.745 165.452 456.105 165.308 456.537 165.308C456.993 165.308 457.365 165.452 457.653 165.74C457.941 166.028 458.085 166.388 458.085 166.82V176C458.085 177.44 458.349 178.628 458.877 179.564C459.429 180.5 460.173 181.196 461.109 181.652C462.045 182.108 463.101 182.336 464.277 182.336C465.405 182.336 466.413 182.12 467.301 181.688C468.213 181.256 468.933 180.656 469.461 179.888C469.989 179.12 470.253 178.256 470.253 177.296H472.341C472.293 178.808 471.897 180.164 471.153 181.364C470.409 182.54 469.401 183.476 468.129 184.172C466.857 184.868 465.429 185.216 463.845 185.216ZM471.801 185C471.345 185 470.973 184.856 470.685 184.568C470.397 184.28 470.253 183.908 470.253 183.452V166.82C470.253 166.364 470.397 166.004 470.685 165.74C470.973 165.452 471.345 165.308 471.801 165.308C472.257 165.308 472.629 165.452 472.917 165.74C473.205 166.004 473.349 166.364 473.349 166.82V183.452C473.349 183.908 473.205 184.28 472.917 184.568C472.629 184.856 472.257 185 471.801 185ZM481.87 185C481.414 185 481.042 184.856 480.754 184.568C480.466 184.28 480.322 183.908 480.322 183.452V166.856C480.322 166.376 480.466 166.004 480.754 165.74C481.042 165.452 481.414 165.308 481.87 165.308C482.326 165.308 482.686 165.452 482.95 165.74C483.238 166.004 483.382 166.376 483.382 166.856V183.452C483.382 183.908 483.238 184.28 482.95 184.568C482.686 184.856 482.326 185 481.87 185ZM481.834 161.744C481.258 161.744 480.766 161.54 480.358 161.132C479.95 160.724 479.746 160.22 479.746 159.62C479.746 159.02 479.95 158.528 480.358 158.144C480.79 157.736 481.294 157.532 481.87 157.532C482.422 157.532 482.902 157.736 483.31 158.144C483.742 158.528 483.958 159.02 483.958 159.62C483.958 160.22 483.742 160.724 483.31 161.132C482.902 161.54 482.41 161.744 481.834 161.744ZM494.757 185C493.773 185 492.885 184.736 492.093 184.208C491.325 183.656 490.725 182.9 490.293 181.94C489.861 180.98 489.645 179.876 489.645 178.628V158.396C489.645 157.94 489.777 157.58 490.041 157.316C490.329 157.028 490.701 156.884 491.157 156.884C491.613 156.884 491.973 157.028 492.237 157.316C492.525 157.58 492.669 157.94 492.669 158.396V178.628C492.669 179.612 492.861 180.416 493.245 181.04C493.653 181.664 494.157 181.976 494.757 181.976H495.657C496.065 181.976 496.389 182.12 496.629 182.408C496.869 182.672 496.989 183.032 496.989 183.488C496.989 183.944 496.809 184.316 496.449 184.604C496.113 184.868 495.657 185 495.081 185H494.757ZM508.61 185.18C506.714 185.18 505.01 184.748 503.498 183.884C501.986 182.996 500.786 181.796 499.898 180.284C499.034 178.772 498.602 177.056 498.602 175.136C498.602 173.24 499.022 171.536 499.862 170.024C500.702 168.512 501.842 167.324 503.282 166.46C504.722 165.572 506.354 165.128 508.178 165.128C509.714 165.128 511.106 165.464 512.354 166.136C513.626 166.784 514.67 167.648 515.486 168.728V158.432C515.486 157.952 515.63 157.58 515.918 157.316C516.206 157.028 516.578 156.884 517.034 156.884C517.49 156.884 517.862 157.028 518.15 157.316C518.438 157.58 518.582 157.952 518.582 158.432V175.244C518.534 177.116 518.066 178.808 517.178 180.32C516.314 181.808 515.138 182.996 513.65 183.884C512.162 184.748 510.482 185.18 508.61 185.18ZM508.61 182.408C509.93 182.408 511.118 182.096 512.174 181.472C513.23 180.824 514.058 179.96 514.658 178.88C515.258 177.776 515.558 176.528 515.558 175.136C515.558 173.768 515.258 172.532 514.658 171.428C514.058 170.324 513.23 169.46 512.174 168.836C511.118 168.212 509.93 167.9 508.61 167.9C507.29 167.9 506.102 168.212 505.046 168.836C503.99 169.46 503.15 170.324 502.526 171.428C501.902 172.532 501.59 173.768 501.59 175.136C501.59 176.528 501.902 177.776 502.526 178.88C503.15 179.96 503.99 180.824 505.046 181.472C506.102 182.096 507.29 182.408 508.61 182.408ZM169.539 245.604C169.347 245.604 169.107 245.544 168.819 245.424C167.931 245.016 167.691 244.38 168.099 243.516L179.511 218.172C179.895 217.308 180.531 217.068 181.419 217.452C182.307 217.812 182.559 218.436 182.175 219.324L170.727 244.668C170.463 245.292 170.067 245.604 169.539 245.604ZM173.643 236.316C173.235 236.508 172.863 236.544 172.527 236.424C172.191 236.28 171.915 236.016 171.699 235.632L163.599 219.324C163.407 218.94 163.383 218.58 163.527 218.244C163.671 217.884 163.935 217.608 164.319 217.416C164.727 217.248 165.099 217.224 165.435 217.344C165.771 217.464 166.035 217.728 166.227 218.136L174.111 234.444C174.327 234.828 174.399 235.2 174.327 235.56C174.255 235.896 174.027 236.148 173.643 236.316ZM193.997 237.18C192.053 237.18 190.325 236.748 188.813 235.884C187.325 235.02 186.149 233.832 185.285 232.32C184.421 230.808 183.989 229.092 183.989 227.172C183.989 225.228 184.421 223.5 185.285 221.988C186.149 220.476 187.325 219.288 188.813 218.424C190.325 217.56 192.053 217.128 193.997 217.128C195.917 217.128 197.621 217.56 199.109 218.424C200.597 219.288 201.773 220.476 202.637 221.988C203.501 223.5 203.945 225.228 203.969 227.172C203.969 229.092 203.537 230.808 202.673 232.32C201.809 233.832 200.621 235.02 199.109 235.884C197.621 236.748 195.917 237.18 193.997 237.18ZM193.997 234.408C195.341 234.408 196.541 234.096 197.597 233.472C198.653 232.848 199.469 231.996 200.045 230.916C200.645 229.812 200.945 228.564 200.945 227.172C200.945 225.78 200.645 224.532 200.045 223.428C199.469 222.324 198.653 221.46 197.597 220.836C196.541 220.212 195.341 219.9 193.997 219.9C192.653 219.9 191.453 220.212 190.397 220.836C189.341 221.46 188.501 222.324 187.877 223.428C187.277 224.532 186.977 225.78 186.977 227.172C186.977 228.564 187.277 229.812 187.877 230.916C188.501 231.996 189.341 232.848 190.397 233.472C191.453 234.096 192.653 234.408 193.997 234.408ZM217.821 237.216C216.141 237.216 214.629 236.868 213.285 236.172C211.965 235.452 210.921 234.408 210.153 233.04C209.385 231.672 209.001 229.992 209.001 228V218.82C209.001 218.388 209.145 218.028 209.433 217.74C209.721 217.452 210.081 217.308 210.513 217.308C210.969 217.308 211.341 217.452 211.629 217.74C211.917 218.028 212.061 218.388 212.061 218.82V228C212.061 229.44 212.325 230.628 212.853 231.564C213.405 232.5 214.149 233.196 215.085 233.652C216.021 234.108 217.077 234.336 218.253 234.336C219.381 234.336 220.389 234.12 221.277 233.688C222.189 233.256 222.909 232.656 223.437 231.888C223.965 231.12 224.229 230.256 224.229 229.296H226.317C226.269 230.808 225.873 232.164 225.129 233.364C224.385 234.54 223.377 235.476 222.105 236.172C220.833 236.868 219.405 237.216 217.821 237.216ZM225.777 237C225.321 237 224.949 236.856 224.661 236.568C224.373 236.28 224.229 235.908 224.229 235.452V218.82C224.229 218.364 224.373 218.004 224.661 217.74C224.949 217.452 225.321 217.308 225.777 217.308C226.233 217.308 226.605 217.452 226.893 217.74C227.181 218.004 227.325 218.364 227.325 218.82V235.452C227.325 235.908 227.181 236.28 226.893 236.568C226.605 236.856 226.233 237 225.777 237ZM235.163 224.796C235.211 223.332 235.583 222.024 236.279 220.872C236.999 219.696 237.935 218.772 239.087 218.1C240.239 217.428 241.523 217.092 242.939 217.092C244.163 217.092 245.087 217.272 245.711 217.632C246.359 217.992 246.599 218.484 246.431 219.108C246.359 219.468 246.203 219.72 245.963 219.864C245.747 219.984 245.483 220.044 245.171 220.044C244.883 220.044 244.547 220.032 244.163 220.008C242.771 219.816 241.523 219.9 240.419 220.26C239.315 220.596 238.439 221.16 237.791 221.952C237.143 222.744 236.819 223.692 236.819 224.796H235.163ZM235.307 237C234.827 237 234.455 236.868 234.191 236.604C233.927 236.34 233.795 235.968 233.795 235.488V218.82C233.795 218.34 233.927 217.968 234.191 217.704C234.455 217.44 234.827 217.308 235.307 217.308C235.787 217.308 236.159 217.44 236.423 217.704C236.687 217.968 236.819 218.34 236.819 218.82V235.488C236.819 235.968 236.687 236.34 236.423 236.604C236.159 236.868 235.787 237 235.307 237ZM263.198 237C262.742 237 262.37 236.856 262.082 236.568C261.794 236.28 261.65 235.908 261.65 235.452V218.856C261.65 218.376 261.794 218.004 262.082 217.74C262.37 217.452 262.742 217.308 263.198 217.308C263.654 217.308 264.014 217.452 264.278 217.74C264.566 218.004 264.71 218.376 264.71 218.856V235.452C264.71 235.908 264.566 236.28 264.278 236.568C264.014 236.856 263.654 237 263.198 237ZM263.162 213.744C262.586 213.744 262.094 213.54 261.686 213.132C261.278 212.724 261.074 212.22 261.074 211.62C261.074 211.02 261.278 210.528 261.686 210.144C262.118 209.736 262.622 209.532 263.198 209.532C263.75 209.532 264.23 209.736 264.638 210.144C265.07 210.528 265.286 211.02 265.286 211.62C265.286 212.22 265.07 212.724 264.638 213.132C264.23 213.54 263.738 213.744 263.162 213.744ZM280.657 237.18C278.761 237.18 277.057 236.748 275.545 235.884C274.033 234.996 272.833 233.796 271.945 232.284C271.081 230.772 270.649 229.056 270.649 227.136C270.649 225.24 271.069 223.536 271.909 222.024C272.749 220.512 273.889 219.324 275.329 218.46C276.769 217.572 278.401 217.128 280.225 217.128C281.761 217.128 283.153 217.464 284.401 218.136C285.673 218.784 286.717 219.648 287.533 220.728V210.432C287.533 209.952 287.677 209.58 287.965 209.316C288.253 209.028 288.625 208.884 289.081 208.884C289.537 208.884 289.909 209.028 290.197 209.316C290.485 209.58 290.629 209.952 290.629 210.432V227.244C290.581 229.116 290.113 230.808 289.225 232.32C288.361 233.808 287.185 234.996 285.697 235.884C284.209 236.748 282.529 237.18 280.657 237.18ZM280.657 234.408C281.977 234.408 283.165 234.096 284.221 233.472C285.277 232.824 286.105 231.96 286.705 230.88C287.305 229.776 287.605 228.528 287.605 227.136C287.605 225.768 287.305 224.532 286.705 223.428C286.105 222.324 285.277 221.46 284.221 220.836C283.165 220.212 281.977 219.9 280.657 219.9C279.337 219.9 278.149 220.212 277.093 220.836C276.037 221.46 275.197 222.324 274.573 223.428C273.949 224.532 273.637 225.768 273.637 227.136C273.637 228.528 273.949 229.776 274.573 230.88C275.197 231.96 276.037 232.824 277.093 233.472C278.149 234.096 279.337 234.408 280.657 234.408ZM306.147 237.18C304.179 237.18 302.439 236.76 300.927 235.92C299.415 235.056 298.227 233.868 297.363 232.356C296.499 230.844 296.067 229.116 296.067 227.172C296.067 225.204 296.475 223.476 297.291 221.988C298.107 220.476 299.223 219.288 300.639 218.424C302.079 217.56 303.735 217.128 305.607 217.128C307.455 217.128 309.051 217.548 310.395 218.388C311.739 219.204 312.771 220.344 313.491 221.808C314.235 223.272 314.607 224.94 314.607 226.812C314.607 227.22 314.475 227.556 314.211 227.82C313.947 228.06 313.611 228.18 313.203 228.18H298.155V225.696H313.347L311.835 226.776C311.835 225.456 311.583 224.268 311.079 223.212C310.575 222.156 309.855 221.328 308.919 220.728C308.007 220.128 306.903 219.828 305.607 219.828C304.239 219.828 303.051 220.152 302.043 220.8C301.035 221.424 300.255 222.288 299.703 223.392C299.151 224.496 298.875 225.756 298.875 227.172C298.875 228.588 299.187 229.848 299.811 230.952C300.435 232.032 301.287 232.896 302.367 233.544C303.471 234.168 304.731 234.48 306.147 234.48C306.963 234.48 307.791 234.336 308.631 234.048C309.495 233.76 310.179 233.4 310.683 232.968C310.971 232.728 311.295 232.608 311.655 232.608C312.039 232.584 312.363 232.68 312.627 232.896C312.963 233.208 313.131 233.556 313.131 233.94C313.155 234.3 313.011 234.612 312.699 234.876C311.883 235.548 310.863 236.1 309.639 236.532C308.439 236.964 307.275 237.18 306.147 237.18ZM327.124 237.18C325.3 237.18 323.668 236.748 322.228 235.884C320.788 234.996 319.648 233.796 318.808 232.284C317.968 230.772 317.548 229.068 317.548 227.172C317.548 225.252 317.98 223.536 318.844 222.024C319.732 220.512 320.932 219.324 322.444 218.46C323.956 217.572 325.66 217.128 327.556 217.128C329.428 217.128 331.108 217.572 332.596 218.46C334.108 219.324 335.296 220.512 336.16 222.024C337.048 223.536 337.504 225.252 337.528 227.172L336.304 227.748C336.304 229.524 335.896 231.132 335.08 232.572C334.288 233.988 333.196 235.116 331.804 235.956C330.436 236.772 328.876 237.18 327.124 237.18ZM327.556 234.408C328.876 234.408 330.064 234.096 331.12 233.472C332.176 232.848 333.004 231.984 333.604 230.88C334.204 229.776 334.504 228.54 334.504 227.172C334.504 225.78 334.204 224.544 333.604 223.464C333.004 222.36 332.176 221.496 331.12 220.872C330.064 220.224 328.876 219.9 327.556 219.9C326.236 219.9 325.048 220.224 323.992 220.872C322.936 221.496 322.096 222.36 321.472 223.464C320.848 224.544 320.536 225.78 320.536 227.172C320.536 228.54 320.848 229.776 321.472 230.88C322.096 231.984 322.936 232.848 323.992 233.472C325.048 234.096 326.236 234.408 327.556 234.408ZM335.98 237C335.524 237 335.152 236.868 334.864 236.604C334.576 236.316 334.432 235.944 334.432 235.488V229.548L335.116 226.38L337.528 227.172V235.488C337.528 235.944 337.372 236.316 337.06 236.604C336.772 236.868 336.412 237 335.98 237ZM349.904 237.18C348.392 237.18 346.928 236.94 345.512 236.46C344.12 235.956 343.004 235.248 342.164 234.336C341.876 234.024 341.756 233.664 341.804 233.256C341.852 232.848 342.044 232.5 342.38 232.212C342.764 231.924 343.148 231.816 343.532 231.888C343.94 231.936 344.288 232.104 344.576 232.392C345.08 232.992 345.8 233.484 346.736 233.868C347.672 234.228 348.704 234.408 349.832 234.408C351.488 234.408 352.7 234.132 353.468 233.58C354.236 233.004 354.632 232.308 354.656 231.492C354.68 230.676 354.296 229.992 353.504 229.44C352.736 228.888 351.416 228.456 349.544 228.144C347.12 227.736 345.344 227.052 344.216 226.092C343.112 225.132 342.56 223.98 342.56 222.636C342.56 221.412 342.896 220.392 343.568 219.576C344.24 218.76 345.116 218.148 346.196 217.74C347.3 217.332 348.488 217.128 349.76 217.128C351.368 217.128 352.76 217.404 353.936 217.956C355.112 218.484 356.06 219.204 356.78 220.116C357.068 220.452 357.188 220.812 357.14 221.196C357.092 221.556 356.9 221.856 356.564 222.096C356.228 222.288 355.844 222.348 355.412 222.276C355.004 222.204 354.656 222.012 354.368 221.7C353.768 221.052 353.084 220.584 352.316 220.296C351.548 220.008 350.672 219.864 349.688 219.864C348.464 219.864 347.456 220.104 346.664 220.584C345.896 221.064 345.512 221.688 345.512 222.456C345.512 222.984 345.644 223.44 345.908 223.824C346.196 224.208 346.7 224.556 347.42 224.868C348.14 225.156 349.148 225.42 350.444 225.66C352.244 225.972 353.66 226.404 354.692 226.956C355.748 227.508 356.504 228.168 356.96 228.936C357.416 229.68 357.644 230.508 357.644 231.42C357.644 232.524 357.32 233.508 356.672 234.372C356.048 235.236 355.148 235.92 353.972 236.424C352.82 236.928 351.464 237.18 349.904 237.18Z" fill="#F2EEE3"/>
</svg>
