<svg width="auto" height="auto" viewBox="0 0 556 246" fill="none" xmlns="http://www.w3.org/2000/svg">
<path d="M2.14605 29C1.69005 29 1.31805 28.856 1.03005 28.568C0.742047 28.256 0.598047 27.884 0.598047 27.452V2.432C0.598047 1.976 0.742047 1.604 1.03005 1.316C1.31805 1.028 1.69005 0.883999 2.14605 0.883999C2.62605 0.883999 3.02205 1.076 3.33405 1.46L20.038 23.492V2.432C20.038 1.976 20.182 1.604 20.47 1.316C20.782 1.028 21.166 0.883999 21.622 0.883999C22.054 0.883999 22.414 1.028 22.702 1.316C23.014 1.604 23.17 1.976 23.17 2.432V27.452C23.17 27.884 23.014 28.256 22.702 28.568C22.414 28.856 22.054 29 21.622 29C21.406 29 21.19 28.964 20.974 28.892C20.758 28.796 20.578 28.652 20.434 28.46L3.69405 6.428V27.452C3.69405 27.884 3.53805 28.256 3.22605 28.568C2.93805 28.856 2.57805 29 2.14605 29ZM38.9794 29.18C37.0354 29.18 35.3074 28.748 33.7954 27.884C32.3074 27.02 31.1314 25.832 30.2674 24.32C29.4034 22.808 28.9714 21.092 28.9714 19.172C28.9714 17.228 29.4034 15.5 30.2674 13.988C31.1314 12.476 32.3074 11.288 33.7954 10.424C35.3074 9.56 37.0354 9.128 38.9794 9.128C40.8994 9.128 42.6034 9.56 44.0914 10.424C45.5794 11.288 46.7554 12.476 47.6194 13.988C48.4834 15.5 48.9274 17.228 48.9514 19.172C48.9514 21.092 48.5194 22.808 47.6554 24.32C46.7914 25.832 45.6034 27.02 44.0914 27.884C42.6034 28.748 40.8994 29.18 38.9794 29.18ZM38.9794 26.408C40.3234 26.408 41.5234 26.096 42.5794 25.472C43.6354 24.848 44.4514 23.996 45.0274 22.916C45.6274 21.812 45.9274 20.564 45.9274 19.172C45.9274 17.78 45.6274 16.532 45.0274 15.428C44.4514 14.324 43.6354 13.46 42.5794 12.836C41.5234 12.212 40.3234 11.9 38.9794 11.9C37.6354 11.9 36.4354 12.212 35.3794 12.836C34.3234 13.46 33.4834 14.324 32.8594 15.428C32.2594 16.532 31.9594 17.78 31.9594 19.172C31.9594 20.564 32.2594 21.812 32.8594 22.916C33.4834 23.996 34.3234 24.848 35.3794 25.472C36.4354 26.096 37.6354 26.408 38.9794 26.408ZM61.3275 29.18C59.8155 29.18 58.3515 28.94 56.9355 28.46C55.5435 27.956 54.4275 27.248 53.5875 26.336C53.2995 26.024 53.1795 25.664 53.2275 25.256C53.2755 24.848 53.4675 24.5 53.8035 24.212C54.1875 23.924 54.5715 23.816 54.9555 23.888C55.3635 23.936 55.7115 24.104 55.9995 24.392C56.5035 24.992 57.2235 25.484 58.1595 25.868C59.0955 26.228 60.1275 26.408 61.2555 26.408C62.9115 26.408 64.1235 26.132 64.8915 25.58C65.6595 25.004 66.0555 24.308 66.0795 23.492C66.1035 22.676 65.7195 21.992 64.9275 21.44C64.1595 20.888 62.8395 20.456 60.9675 20.144C58.5435 19.736 56.7675 19.052 55.6395 18.092C54.5355 17.132 53.9835 15.98 53.9835 14.636C53.9835 13.412 54.3195 12.392 54.9915 11.576C55.6635 10.76 56.5395 10.148 57.6195 9.74C58.7235 9.332 59.9115 9.128 61.1835 9.128C62.7915 9.128 64.1835 9.404 65.3595 9.956C66.5355 10.484 67.4835 11.204 68.2035 12.116C68.4915 12.452 68.6115 12.812 68.5635 13.196C68.5155 13.556 68.3235 13.856 67.9875 14.096C67.6515 14.288 67.2675 14.348 66.8355 14.276C66.4275 14.204 66.0795 14.012 65.7915 13.7C65.1915 13.052 64.5075 12.584 63.7395 12.296C62.9715 12.008 62.0955 11.864 61.1115 11.864C59.8875 11.864 58.8795 12.104 58.0875 12.584C57.3195 13.064 56.9355 13.688 56.9355 14.456C56.9355 14.984 57.0675 15.44 57.3315 15.824C57.6195 16.208 58.1235 16.556 58.8435 16.868C59.5635 17.156 60.5715 17.42 61.8675 17.66C63.6675 17.972 65.0835 18.404 66.1155 18.956C67.1715 19.508 67.9275 20.168 68.3835 20.936C68.8395 21.68 69.0675 22.508 69.0675 23.42C69.0675 24.524 68.7435 25.508 68.0955 26.372C67.4715 27.236 66.5715 27.92 65.3955 28.424C64.2435 28.928 62.8875 29.18 61.3275 29.18ZM92.8638 29.18C91.0398 29.18 89.4078 28.748 87.9678 27.884C86.5278 26.996 85.3878 25.796 84.5478 24.284C83.7078 22.772 83.2878 21.068 83.2878 19.172C83.2878 17.252 83.7198 15.536 84.5838 14.024C85.4718 12.512 86.6718 11.324 88.1838 10.46C89.6958 9.572 91.3998 9.128 93.2958 9.128C95.1678 9.128 96.8478 9.572 98.3358 10.46C99.8478 11.324 101.036 12.512 101.9 14.024C102.788 15.536 103.244 17.252 103.268 19.172L102.044 19.748C102.044 21.524 101.636 23.132 100.82 24.572C100.028 25.988 98.9358 27.116 97.5438 27.956C96.1758 28.772 94.6158 29.18 92.8638 29.18ZM93.2958 26.408C94.6158 26.408 95.8038 26.096 96.8598 25.472C97.9158 24.848 98.7438 23.984 99.3438 22.88C99.9438 21.776 100.244 20.54 100.244 19.172C100.244 17.78 99.9438 16.544 99.3438 15.464C98.7438 14.36 97.9158 13.496 96.8598 12.872C95.8038 12.224 94.6158 11.9 93.2958 11.9C91.9758 11.9 90.7878 12.224 89.7318 12.872C88.6758 13.496 87.8358 14.36 87.2118 15.464C86.5878 16.544 86.2758 17.78 86.2758 19.172C86.2758 20.54 86.5878 21.776 87.2118 22.88C87.8358 23.984 88.6758 24.848 89.7318 25.472C90.7878 26.096 91.9758 26.408 93.2958 26.408ZM101.72 29C101.264 29 100.892 28.868 100.604 28.604C100.316 28.316 100.172 27.944 100.172 27.488V21.548L100.856 18.38L103.268 19.172V27.488C103.268 27.944 103.112 28.316 102.8 28.604C102.512 28.868 102.152 29 101.72 29ZM117.624 29.18C115.728 29.18 114.024 28.748 112.512 27.884C111 26.996 109.8 25.796 108.912 24.284C108.048 22.772 107.616 21.056 107.616 19.136C107.616 17.24 108.036 15.536 108.876 14.024C109.716 12.512 110.856 11.324 112.296 10.46C113.736 9.572 115.368 9.128 117.192 9.128C118.728 9.128 120.12 9.464 121.368 10.136C122.64 10.784 123.684 11.648 124.5 12.728V2.432C124.5 1.952 124.644 1.58 124.932 1.316C125.22 1.028 125.592 0.883999 126.048 0.883999C126.504 0.883999 126.876 1.028 127.164 1.316C127.452 1.58 127.596 1.952 127.596 2.432V19.244C127.548 21.116 127.08 22.808 126.192 24.32C125.328 25.808 124.152 26.996 122.664 27.884C121.176 28.748 119.496 29.18 117.624 29.18ZM117.624 26.408C118.944 26.408 120.132 26.096 121.188 25.472C122.244 24.824 123.072 23.96 123.672 22.88C124.272 21.776 124.572 20.528 124.572 19.136C124.572 17.768 124.272 16.532 123.672 15.428C123.072 14.324 122.244 13.46 121.188 12.836C120.132 12.212 118.944 11.9 117.624 11.9C116.304 11.9 115.116 12.212 114.06 12.836C113.004 13.46 112.164 14.324 111.54 15.428C110.916 16.532 110.604 17.768 110.604 19.136C110.604 20.528 110.916 21.776 111.54 22.88C112.164 23.96 113.004 24.824 114.06 25.472C115.116 26.096 116.304 26.408 117.624 26.408ZM142.61 29.18C140.786 29.18 139.154 28.748 137.714 27.884C136.274 26.996 135.134 25.796 134.294 24.284C133.454 22.772 133.034 21.068 133.034 19.172C133.034 17.252 133.466 15.536 134.33 14.024C135.218 12.512 136.418 11.324 137.93 10.46C139.442 9.572 141.146 9.128 143.042 9.128C144.914 9.128 146.594 9.572 148.082 10.46C149.594 11.324 150.782 12.512 151.646 14.024C152.534 15.536 152.99 17.252 153.014 19.172L151.79 19.748C151.79 21.524 151.382 23.132 150.566 24.572C149.774 25.988 148.682 27.116 147.29 27.956C145.922 28.772 144.362 29.18 142.61 29.18ZM143.042 26.408C144.362 26.408 145.55 26.096 146.606 25.472C147.662 24.848 148.49 23.984 149.09 22.88C149.69 21.776 149.99 20.54 149.99 19.172C149.99 17.78 149.69 16.544 149.09 15.464C148.49 14.36 147.662 13.496 146.606 12.872C145.55 12.224 144.362 11.9 143.042 11.9C141.722 11.9 140.534 12.224 139.478 12.872C138.422 13.496 137.582 14.36 136.958 15.464C136.334 16.544 136.022 17.78 136.022 19.172C136.022 20.54 136.334 21.776 136.958 22.88C137.582 23.984 138.422 24.848 139.478 25.472C140.534 26.096 141.722 26.408 143.042 26.408ZM151.466 29C151.01 29 150.638 28.868 150.35 28.604C150.062 28.316 149.918 27.944 149.918 27.488V21.548L150.602 18.38L153.014 19.172V27.488C153.014 27.944 152.858 28.316 152.546 28.604C152.258 28.868 151.898 29 151.466 29ZM159.954 37.424C159.498 37.424 159.126 37.28 158.838 36.992C158.55 36.704 158.406 36.332 158.406 35.876V19.064C158.43 17.192 158.874 15.512 159.738 14.024C160.626 12.512 161.814 11.324 163.302 10.46C164.79 9.572 166.47 9.128 168.342 9.128C170.262 9.128 171.966 9.572 173.454 10.46C174.966 11.324 176.154 12.512 177.018 14.024C177.906 15.536 178.35 17.252 178.35 19.172C178.35 21.068 177.93 22.772 177.09 24.284C176.274 25.796 175.146 26.996 173.706 27.884C172.266 28.748 170.634 29.18 168.81 29.18C167.274 29.18 165.87 28.856 164.598 28.208C163.326 27.536 162.282 26.66 161.466 25.58V35.876C161.466 36.332 161.322 36.704 161.034 36.992C160.77 37.28 160.41 37.424 159.954 37.424ZM168.342 26.408C169.686 26.408 170.886 26.096 171.942 25.472C172.998 24.848 173.826 23.984 174.426 22.88C175.05 21.776 175.362 20.54 175.362 19.172C175.362 17.78 175.05 16.544 174.426 15.464C173.826 14.36 172.998 13.496 171.942 12.872C170.886 12.224 169.686 11.9 168.342 11.9C167.046 11.9 165.858 12.224 164.778 12.872C163.722 13.496 162.894 14.36 162.294 15.464C161.694 16.544 161.394 17.78 161.394 19.172C161.394 20.54 161.694 21.776 162.294 22.88C162.894 23.984 163.722 24.848 164.778 25.472C165.858 26.096 167.046 26.408 168.342 26.408ZM191.348 29C190.1 29 188.984 28.7 188 28.1C187.016 27.5 186.236 26.672 185.66 25.616C185.108 24.56 184.832 23.372 184.832 22.052V4.592C184.832 4.136 184.964 3.764 185.228 3.476C185.516 3.188 185.888 3.044 186.344 3.044C186.776 3.044 187.136 3.188 187.424 3.476C187.712 3.764 187.856 4.136 187.856 4.592V22.052C187.856 23.18 188.18 24.116 188.828 24.86C189.5 25.58 190.34 25.94 191.348 25.94H192.392C192.8 25.94 193.136 26.084 193.4 26.372C193.664 26.66 193.796 27.032 193.796 27.488C193.796 27.944 193.628 28.316 193.292 28.604C192.98 28.868 192.572 29 192.068 29H191.348ZM182.708 12.656C182.3 12.656 181.964 12.536 181.7 12.296C181.436 12.056 181.304 11.744 181.304 11.36C181.304 10.976 181.436 10.664 181.7 10.424C181.964 10.16 182.3 10.028 182.708 10.028H191.6C192.008 10.028 192.344 10.16 192.608 10.424C192.872 10.664 193.004 10.976 193.004 11.36C193.004 11.744 192.872 12.056 192.608 12.296C192.344 12.536 192.008 12.656 191.6 12.656H182.708ZM206.84 29.18C205.016 29.18 203.384 28.748 201.944 27.884C200.504 26.996 199.364 25.796 198.524 24.284C197.684 22.772 197.264 21.068 197.264 19.172C197.264 17.252 197.696 15.536 198.56 14.024C199.448 12.512 200.648 11.324 202.16 10.46C203.672 9.572 205.376 9.128 207.272 9.128C209.144 9.128 210.824 9.572 212.312 10.46C213.824 11.324 215.012 12.512 215.876 14.024C216.764 15.536 217.22 17.252 217.244 19.172L216.02 19.748C216.02 21.524 215.612 23.132 214.796 24.572C214.004 25.988 212.912 27.116 211.52 27.956C210.152 28.772 208.592 29.18 206.84 29.18ZM207.272 26.408C208.592 26.408 209.78 26.096 210.836 25.472C211.892 24.848 212.72 23.984 213.32 22.88C213.92 21.776 214.22 20.54 214.22 19.172C214.22 17.78 213.92 16.544 213.32 15.464C212.72 14.36 211.892 13.496 210.836 12.872C209.78 12.224 208.592 11.9 207.272 11.9C205.952 11.9 204.764 12.224 203.708 12.872C202.652 13.496 201.812 14.36 201.188 15.464C200.564 16.544 200.252 17.78 200.252 19.172C200.252 20.54 200.564 21.776 201.188 22.88C201.812 23.984 202.652 24.848 203.708 25.472C204.764 26.096 205.952 26.408 207.272 26.408ZM215.696 29C215.24 29 214.868 28.868 214.58 28.604C214.292 28.316 214.148 27.944 214.148 27.488V21.548L214.832 18.38L217.244 19.172V27.488C217.244 27.944 217.088 28.316 216.776 28.604C216.488 28.868 216.128 29 215.696 29ZM248.988 29C248.532 29 248.16 28.868 247.872 28.604C247.584 28.316 247.44 27.944 247.44 27.488V17.156C247.44 15.5 247.02 14.228 246.18 13.34C245.34 12.428 244.26 11.972 242.94 11.972C241.524 11.972 240.36 12.452 239.448 13.412C238.56 14.348 238.128 15.596 238.152 17.156H235.488C235.512 15.548 235.86 14.144 236.532 12.944C237.204 11.72 238.128 10.772 239.304 10.1C240.504 9.428 241.86 9.092 243.372 9.092C244.764 9.092 246 9.416 247.08 10.064C248.16 10.712 249 11.648 249.6 12.872C250.2 14.072 250.5 15.5 250.5 17.156V27.488C250.5 27.944 250.356 28.316 250.068 28.604C249.804 28.868 249.444 29 248.988 29ZM224.184 29C223.728 29 223.356 28.868 223.068 28.604C222.78 28.316 222.636 27.944 222.636 27.488V10.856C222.636 10.4 222.78 10.028 223.068 9.74C223.356 9.452 223.728 9.308 224.184 9.308C224.64 9.308 225 9.452 225.264 9.74C225.552 10.028 225.696 10.4 225.696 10.856V27.488C225.696 27.944 225.552 28.316 225.264 28.604C225 28.868 224.64 29 224.184 29ZM236.604 29C236.172 29 235.8 28.868 235.488 28.604C235.2 28.316 235.056 27.944 235.056 27.488V17.156C235.056 15.5 234.636 14.228 233.796 13.34C232.956 12.428 231.876 11.972 230.556 11.972C229.14 11.972 227.976 12.44 227.064 13.376C226.152 14.312 225.696 15.524 225.696 17.012H223.644C223.668 15.452 223.992 14.084 224.616 12.908C225.264 11.708 226.14 10.772 227.244 10.1C228.348 9.428 229.596 9.092 230.988 9.092C232.38 9.092 233.616 9.416 234.696 10.064C235.776 10.712 236.616 11.648 237.216 12.872C237.84 14.072 238.152 15.5 238.152 17.156V27.488C238.152 27.944 238.008 28.316 237.72 28.604C237.432 28.868 237.06 29 236.604 29ZM265.597 29.18C263.653 29.18 261.925 28.748 260.413 27.884C258.925 27.02 257.749 25.832 256.885 24.32C256.021 22.808 255.589 21.092 255.589 19.172C255.589 17.228 256.021 15.5 256.885 13.988C257.749 12.476 258.925 11.288 260.413 10.424C261.925 9.56 263.653 9.128 265.597 9.128C267.517 9.128 269.221 9.56 270.709 10.424C272.197 11.288 273.373 12.476 274.237 13.988C275.101 15.5 275.545 17.228 275.569 19.172C275.569 21.092 275.137 22.808 274.273 24.32C273.409 25.832 272.221 27.02 270.709 27.884C269.221 28.748 267.517 29.18 265.597 29.18ZM265.597 26.408C266.941 26.408 268.141 26.096 269.197 25.472C270.253 24.848 271.069 23.996 271.645 22.916C272.245 21.812 272.545 20.564 272.545 19.172C272.545 17.78 272.245 16.532 271.645 15.428C271.069 14.324 270.253 13.46 269.197 12.836C268.141 12.212 266.941 11.9 265.597 11.9C264.253 11.9 263.053 12.212 261.997 12.836C260.941 13.46 260.101 14.324 259.477 15.428C258.877 16.532 258.577 17.78 258.577 19.172C258.577 20.564 258.877 21.812 259.477 22.916C260.101 23.996 260.941 24.848 261.997 25.472C263.053 26.096 264.253 26.408 265.597 26.408ZM287.945 29.18C286.433 29.18 284.969 28.94 283.553 28.46C282.161 27.956 281.045 27.248 280.205 26.336C279.917 26.024 279.797 25.664 279.845 25.256C279.893 24.848 280.085 24.5 280.421 24.212C280.805 23.924 281.189 23.816 281.573 23.888C281.981 23.936 282.329 24.104 282.617 24.392C283.121 24.992 283.841 25.484 284.777 25.868C285.713 26.228 286.745 26.408 287.873 26.408C289.529 26.408 290.741 26.132 291.509 25.58C292.277 25.004 292.673 24.308 292.697 23.492C292.721 22.676 292.337 21.992 291.545 21.44C290.777 20.888 289.457 20.456 287.585 20.144C285.161 19.736 283.385 19.052 282.257 18.092C281.153 17.132 280.601 15.98 280.601 14.636C280.601 13.412 280.937 12.392 281.609 11.576C282.281 10.76 283.157 10.148 284.237 9.74C285.341 9.332 286.529 9.128 287.801 9.128C289.409 9.128 290.801 9.404 291.977 9.956C293.153 10.484 294.101 11.204 294.821 12.116C295.109 12.452 295.229 12.812 295.181 13.196C295.133 13.556 294.941 13.856 294.605 14.096C294.269 14.288 293.885 14.348 293.453 14.276C293.045 14.204 292.697 14.012 292.409 13.7C291.809 13.052 291.125 12.584 290.357 12.296C289.589 12.008 288.713 11.864 287.729 11.864C286.505 11.864 285.497 12.104 284.705 12.584C283.937 13.064 283.553 13.688 283.553 14.456C283.553 14.984 283.685 15.44 283.949 15.824C284.237 16.208 284.741 16.556 285.461 16.868C286.181 17.156 287.189 17.42 288.485 17.66C290.285 17.972 291.701 18.404 292.733 18.956C293.789 19.508 294.545 20.168 295.001 20.936C295.457 21.68 295.685 22.508 295.685 23.42C295.685 24.524 295.361 25.508 294.713 26.372C294.089 27.236 293.189 27.92 292.013 28.424C290.861 28.928 289.505 29.18 287.945 29.18ZM319.481 29.18C317.657 29.18 316.025 28.748 314.585 27.884C313.145 26.996 312.005 25.796 311.165 24.284C310.325 22.772 309.905 21.068 309.905 19.172C309.905 17.252 310.337 15.536 311.201 14.024C312.089 12.512 313.289 11.324 314.801 10.46C316.313 9.572 318.017 9.128 319.913 9.128C321.785 9.128 323.465 9.572 324.953 10.46C326.465 11.324 327.653 12.512 328.517 14.024C329.405 15.536 329.861 17.252 329.885 19.172L328.661 19.748C328.661 21.524 328.253 23.132 327.437 24.572C326.645 25.988 325.553 27.116 324.161 27.956C322.793 28.772 321.233 29.18 319.481 29.18ZM319.913 26.408C321.233 26.408 322.421 26.096 323.477 25.472C324.533 24.848 325.361 23.984 325.961 22.88C326.561 21.776 326.861 20.54 326.861 19.172C326.861 17.78 326.561 16.544 325.961 15.464C325.361 14.36 324.533 13.496 323.477 12.872C322.421 12.224 321.233 11.9 319.913 11.9C318.593 11.9 317.405 12.224 316.349 12.872C315.293 13.496 314.453 14.36 313.829 15.464C313.205 16.544 312.893 17.78 312.893 19.172C312.893 20.54 313.205 21.776 313.829 22.88C314.453 23.984 315.293 24.848 316.349 25.472C317.405 26.096 318.593 26.408 319.913 26.408ZM328.337 29C327.881 29 327.509 28.868 327.221 28.604C326.933 28.316 326.789 27.944 326.789 27.488V21.548L327.473 18.38L329.885 19.172V27.488C329.885 27.944 329.729 28.316 329.417 28.604C329.129 28.868 328.769 29 328.337 29ZM339.669 29C338.685 29 337.797 28.736 337.005 28.208C336.237 27.656 335.637 26.9 335.205 25.94C334.773 24.98 334.557 23.876 334.557 22.628V2.396C334.557 1.94 334.689 1.58 334.953 1.316C335.241 1.028 335.613 0.883999 336.069 0.883999C336.525 0.883999 336.885 1.028 337.149 1.316C337.437 1.58 337.581 1.94 337.581 2.396V22.628C337.581 23.612 337.773 24.416 338.157 25.04C338.565 25.664 339.069 25.976 339.669 25.976H340.569C340.977 25.976 341.301 26.12 341.541 26.408C341.781 26.672 341.901 27.032 341.901 27.488C341.901 27.944 341.721 28.316 341.361 28.604C341.025 28.868 340.569 29 339.993 29H339.669ZM363.719 29C362.471 29 361.355 28.7 360.371 28.1C359.387 27.5 358.607 26.672 358.031 25.616C357.479 24.56 357.203 23.372 357.203 22.052V4.592C357.203 4.136 357.335 3.764 357.599 3.476C357.887 3.188 358.259 3.044 358.715 3.044C359.147 3.044 359.507 3.188 359.795 3.476C360.083 3.764 360.227 4.136 360.227 4.592V22.052C360.227 23.18 360.551 24.116 361.199 24.86C361.871 25.58 362.711 25.94 363.719 25.94H364.763C365.171 25.94 365.507 26.084 365.771 26.372C366.035 26.66 366.167 27.032 366.167 27.488C366.167 27.944 365.999 28.316 365.663 28.604C365.351 28.868 364.943 29 364.439 29H363.719ZM355.079 12.656C354.671 12.656 354.335 12.536 354.071 12.296C353.807 12.056 353.675 11.744 353.675 11.36C353.675 10.976 353.807 10.664 354.071 10.424C354.335 10.16 354.671 10.028 355.079 10.028H363.971C364.379 10.028 364.715 10.16 364.979 10.424C365.243 10.664 365.375 10.976 365.375 11.36C365.375 11.744 365.243 12.056 364.979 12.296C364.715 12.536 364.379 12.656 363.971 12.656H355.079ZM379.211 29.18C377.387 29.18 375.755 28.748 374.315 27.884C372.875 26.996 371.735 25.796 370.895 24.284C370.055 22.772 369.635 21.068 369.635 19.172C369.635 17.252 370.067 15.536 370.931 14.024C371.819 12.512 373.019 11.324 374.531 10.46C376.043 9.572 377.747 9.128 379.643 9.128C381.515 9.128 383.195 9.572 384.683 10.46C386.195 11.324 387.383 12.512 388.247 14.024C389.135 15.536 389.591 17.252 389.615 19.172L388.391 19.748C388.391 21.524 387.983 23.132 387.167 24.572C386.375 25.988 385.283 27.116 383.891 27.956C382.523 28.772 380.963 29.18 379.211 29.18ZM379.643 26.408C380.963 26.408 382.151 26.096 383.207 25.472C384.263 24.848 385.091 23.984 385.691 22.88C386.291 21.776 386.591 20.54 386.591 19.172C386.591 17.78 386.291 16.544 385.691 15.464C385.091 14.36 384.263 13.496 383.207 12.872C382.151 12.224 380.963 11.9 379.643 11.9C378.323 11.9 377.135 12.224 376.079 12.872C375.023 13.496 374.183 14.36 373.559 15.464C372.935 16.544 372.623 17.78 372.623 19.172C372.623 20.54 372.935 21.776 373.559 22.88C374.183 23.984 375.023 24.848 376.079 25.472C377.135 26.096 378.323 26.408 379.643 26.408ZM388.067 29C387.611 29 387.239 28.868 386.951 28.604C386.663 28.316 386.519 27.944 386.519 27.488V21.548L387.203 18.38L389.615 19.172V27.488C389.615 27.944 389.459 28.316 389.147 28.604C388.859 28.868 388.499 29 388.067 29ZM421.36 29C420.904 29 420.532 28.868 420.244 28.604C419.956 28.316 419.812 27.944 419.812 27.488V17.156C419.812 15.5 419.392 14.228 418.552 13.34C417.712 12.428 416.632 11.972 415.312 11.972C413.896 11.972 412.732 12.452 411.82 13.412C410.932 14.348 410.5 15.596 410.524 17.156H407.86C407.884 15.548 408.232 14.144 408.904 12.944C409.576 11.72 410.5 10.772 411.676 10.1C412.876 9.428 414.232 9.092 415.744 9.092C417.136 9.092 418.372 9.416 419.452 10.064C420.532 10.712 421.372 11.648 421.972 12.872C422.572 14.072 422.872 15.5 422.872 17.156V27.488C422.872 27.944 422.728 28.316 422.44 28.604C422.176 28.868 421.816 29 421.36 29ZM396.556 29C396.1 29 395.728 28.868 395.44 28.604C395.152 28.316 395.008 27.944 395.008 27.488V10.856C395.008 10.4 395.152 10.028 395.44 9.74C395.728 9.452 396.1 9.308 396.556 9.308C397.012 9.308 397.372 9.452 397.636 9.74C397.924 10.028 398.068 10.4 398.068 10.856V27.488C398.068 27.944 397.924 28.316 397.636 28.604C397.372 28.868 397.012 29 396.556 29ZM408.976 29C408.544 29 408.172 28.868 407.86 28.604C407.572 28.316 407.428 27.944 407.428 27.488V17.156C407.428 15.5 407.008 14.228 406.168 13.34C405.328 12.428 404.248 11.972 402.928 11.972C401.512 11.972 400.348 12.44 399.436 13.376C398.524 14.312 398.068 15.524 398.068 17.012H396.016C396.04 15.452 396.364 14.084 396.988 12.908C397.636 11.708 398.512 10.772 399.616 10.1C400.72 9.428 401.968 9.092 403.36 9.092C404.752 9.092 405.988 9.416 407.068 10.064C408.148 10.712 408.988 11.648 409.588 12.872C410.212 14.072 410.524 15.5 410.524 17.156V27.488C410.524 27.944 410.38 28.316 410.092 28.604C409.804 28.868 409.432 29 408.976 29ZM437.536 29.18C435.712 29.18 434.08 28.748 432.64 27.884C431.2 26.996 430.06 25.796 429.22 24.284C428.38 22.772 427.96 21.068 427.96 19.172C427.96 17.252 428.392 15.536 429.256 14.024C430.144 12.512 431.344 11.324 432.856 10.46C434.368 9.572 436.072 9.128 437.968 9.128C439.84 9.128 441.52 9.572 443.008 10.46C444.52 11.324 445.708 12.512 446.572 14.024C447.46 15.536 447.916 17.252 447.94 19.172L446.716 19.748C446.716 21.524 446.308 23.132 445.492 24.572C444.7 25.988 443.608 27.116 442.216 27.956C440.848 28.772 439.288 29.18 437.536 29.18ZM437.968 26.408C439.288 26.408 440.476 26.096 441.532 25.472C442.588 24.848 443.416 23.984 444.016 22.88C444.616 21.776 444.916 20.54 444.916 19.172C444.916 17.78 444.616 16.544 444.016 15.464C443.416 14.36 442.588 13.496 441.532 12.872C440.476 12.224 439.288 11.9 437.968 11.9C436.648 11.9 435.46 12.224 434.404 12.872C433.348 13.496 432.508 14.36 431.884 15.464C431.26 16.544 430.948 17.78 430.948 19.172C430.948 20.54 431.26 21.776 431.884 22.88C432.508 23.984 433.348 24.848 434.404 25.472C435.46 26.096 436.648 26.408 437.968 26.408ZM446.392 29C445.936 29 445.564 28.868 445.276 28.604C444.988 28.316 444.844 27.944 444.844 27.488V21.548L445.528 18.38L447.94 19.172V27.488C447.94 27.944 447.784 28.316 447.472 28.604C447.184 28.868 446.824 29 446.392 29ZM470.144 29C469.688 29 469.316 28.856 469.028 28.568C468.74 28.28 468.596 27.92 468.596 27.488V18.308C468.596 16.844 468.32 15.656 467.768 14.744C467.216 13.808 466.472 13.112 465.536 12.656C464.624 12.2 463.568 11.972 462.368 11.972C461.264 11.972 460.256 12.188 459.344 12.62C458.432 13.052 457.712 13.652 457.184 14.42C456.656 15.164 456.392 16.028 456.392 17.012H454.34C454.364 15.5 454.748 14.156 455.492 12.98C456.26 11.78 457.28 10.832 458.552 10.136C459.824 9.44 461.24 9.092 462.8 9.092C464.504 9.092 466.016 9.452 467.336 10.172C468.68 10.868 469.736 11.9 470.504 13.268C471.272 14.636 471.656 16.316 471.656 18.308V27.488C471.656 27.92 471.512 28.28 471.224 28.568C470.936 28.856 470.576 29 470.144 29ZM454.88 29C454.424 29 454.052 28.868 453.764 28.604C453.476 28.316 453.332 27.944 453.332 27.488V10.856C453.332 10.376 453.476 10.004 453.764 9.74C454.052 9.452 454.424 9.308 454.88 9.308C455.336 9.308 455.696 9.452 455.96 9.74C456.248 10.004 456.392 10.376 456.392 10.856V27.488C456.392 27.944 456.248 28.316 455.96 28.604C455.696 28.868 455.336 29 454.88 29ZM466.112 6.5C465.344 6.5 464.66 6.368 464.06 6.104C463.484 5.816 462.992 5.552 462.584 5.312C462.056 5.024 461.624 4.82 461.288 4.7C460.952 4.556 460.64 4.484 460.352 4.484C459.944 4.484 459.56 4.58 459.2 4.772C458.864 4.94 458.528 5.24 458.192 5.672C457.952 6.008 457.652 6.236 457.292 6.356C456.932 6.476 456.572 6.44 456.212 6.248C455.876 6.08 455.672 5.804 455.6 5.42C455.552 5.036 455.648 4.676 455.888 4.34C456.464 3.572 457.148 2.984 457.94 2.576C458.732 2.144 459.572 1.928 460.46 1.928C461.228 1.928 461.888 2.06 462.44 2.324C463.016 2.588 463.496 2.828 463.88 3.044C464.384 3.356 464.78 3.584 465.068 3.728C465.38 3.848 465.716 3.908 466.076 3.908C466.436 3.908 466.748 3.848 467.012 3.728C467.276 3.608 467.516 3.44 467.732 3.224C468.02 2.936 468.308 2.732 468.596 2.612C468.884 2.492 469.208 2.54 469.568 2.756C469.904 2.948 470.096 3.248 470.144 3.656C470.216 4.04 470.12 4.4 469.856 4.736C468.92 5.912 467.672 6.5 466.112 6.5ZM486.729 29.18C484.785 29.18 483.057 28.748 481.545 27.884C480.057 27.02 478.881 25.832 478.017 24.32C477.153 22.808 476.721 21.092 476.721 19.172C476.721 17.228 477.153 15.5 478.017 13.988C478.881 12.476 480.057 11.288 481.545 10.424C483.057 9.56 484.785 9.128 486.729 9.128C488.649 9.128 490.353 9.56 491.841 10.424C493.329 11.288 494.505 12.476 495.369 13.988C496.233 15.5 496.677 17.228 496.701 19.172C496.701 21.092 496.269 22.808 495.405 24.32C494.541 25.832 493.353 27.02 491.841 27.884C490.353 28.748 488.649 29.18 486.729 29.18ZM486.729 26.408C488.073 26.408 489.273 26.096 490.329 25.472C491.385 24.848 492.201 23.996 492.777 22.916C493.377 21.812 493.677 20.564 493.677 19.172C493.677 17.78 493.377 16.532 492.777 15.428C492.201 14.324 491.385 13.46 490.329 12.836C489.273 12.212 488.073 11.9 486.729 11.9C485.385 11.9 484.185 12.212 483.129 12.836C482.073 13.46 481.233 14.324 480.609 15.428C480.009 16.532 479.709 17.78 479.709 19.172C479.709 20.564 480.009 21.812 480.609 22.916C481.233 23.996 482.073 24.848 483.129 25.472C484.185 26.096 485.385 26.408 486.729 26.408ZM521.604 29.18C519.708 29.18 518.004 28.748 516.492 27.884C514.98 26.996 513.78 25.796 512.892 24.284C512.028 22.772 511.596 21.056 511.596 19.136C511.596 17.24 512.016 15.536 512.856 14.024C513.696 12.512 514.836 11.324 516.276 10.46C517.716 9.572 519.348 9.128 521.172 9.128C522.708 9.128 524.1 9.464 525.348 10.136C526.62 10.784 527.664 11.648 528.48 12.728V2.432C528.48 1.952 528.624 1.58 528.912 1.316C529.2 1.028 529.572 0.883999 530.028 0.883999C530.484 0.883999 530.856 1.028 531.144 1.316C531.432 1.58 531.576 1.952 531.576 2.432V19.244C531.528 21.116 531.06 22.808 530.172 24.32C529.308 25.808 528.132 26.996 526.644 27.884C525.156 28.748 523.476 29.18 521.604 29.18ZM521.604 26.408C522.924 26.408 524.112 26.096 525.168 25.472C526.224 24.824 527.052 23.96 527.652 22.88C528.252 21.776 528.552 20.528 528.552 19.136C528.552 17.768 528.252 16.532 527.652 15.428C527.052 14.324 526.224 13.46 525.168 12.836C524.112 12.212 522.924 11.9 521.604 11.9C520.284 11.9 519.096 12.212 518.04 12.836C516.984 13.46 516.144 14.324 515.52 15.428C514.896 16.532 514.584 17.768 514.584 19.136C514.584 20.528 514.896 21.776 515.52 22.88C516.144 23.96 516.984 24.824 518.04 25.472C519.096 26.096 520.284 26.408 521.604 26.408ZM547.094 29.18C545.126 29.18 543.386 28.76 541.874 27.92C540.362 27.056 539.174 25.868 538.31 24.356C537.446 22.844 537.014 21.116 537.014 19.172C537.014 17.204 537.422 15.476 538.238 13.988C539.054 12.476 540.17 11.288 541.586 10.424C543.026 9.56 544.682 9.128 546.554 9.128C548.402 9.128 549.998 9.548 551.342 10.388C552.686 11.204 553.718 12.344 554.438 13.808C555.182 15.272 555.554 16.94 555.554 18.812C555.554 19.22 555.422 19.556 555.158 19.82C554.894 20.06 554.558 20.18 554.15 20.18H539.102V17.696H554.294L552.782 18.776C552.782 17.456 552.53 16.268 552.026 15.212C551.522 14.156 550.802 13.328 549.866 12.728C548.954 12.128 547.85 11.828 546.554 11.828C545.186 11.828 543.998 12.152 542.99 12.8C541.982 13.424 541.202 14.288 540.65 15.392C540.098 16.496 539.822 17.756 539.822 19.172C539.822 20.588 540.134 21.848 540.758 22.952C541.382 24.032 542.234 24.896 543.314 25.544C544.418 26.168 545.678 26.48 547.094 26.48C547.91 26.48 548.738 26.336 549.578 26.048C550.442 25.76 551.126 25.4 551.63 24.968C551.918 24.728 552.242 24.608 552.602 24.608C552.986 24.584 553.31 24.68 553.574 24.896C553.91 25.208 554.078 25.556 554.078 25.94C554.102 26.3 553.958 26.612 553.646 26.876C552.83 27.548 551.81 28.1 550.586 28.532C549.386 28.964 548.222 29.18 547.094 29.18ZM175.387 81C174.139 81 173.023 80.7 172.039 80.1C171.055 79.5 170.275 78.672 169.699 77.616C169.147 76.56 168.871 75.372 168.871 74.052V56.592C168.871 56.136 169.003 55.764 169.267 55.476C169.555 55.188 169.927 55.044 170.383 55.044C170.815 55.044 171.175 55.188 171.463 55.476C171.751 55.764 171.895 56.136 171.895 56.592V74.052C171.895 75.18 172.219 76.116 172.867 76.86C173.539 77.58 174.379 77.94 175.387 77.94H176.431C176.839 77.94 177.175 78.084 177.439 78.372C177.703 78.66 177.835 79.032 177.835 79.488C177.835 79.944 177.667 80.316 177.331 80.604C177.019 80.868 176.611 81 176.107 81H175.387ZM166.747 64.656C166.339 64.656 166.003 64.536 165.739 64.296C165.475 64.056 165.343 63.744 165.343 63.36C165.343 62.976 165.475 62.664 165.739 62.424C166.003 62.16 166.339 62.028 166.747 62.028H175.639C176.047 62.028 176.383 62.16 176.647 62.424C176.911 62.664 177.043 62.976 177.043 63.36C177.043 63.744 176.911 64.056 176.647 64.296C176.383 64.536 176.047 64.656 175.639 64.656H166.747ZM190.807 81.216C189.127 81.216 187.615 80.868 186.271 80.172C184.951 79.452 183.907 78.408 183.139 77.04C182.371 75.672 181.987 73.992 181.987 72V62.82C181.987 62.388 182.131 62.028 182.419 61.74C182.707 61.452 183.067 61.308 183.499 61.308C183.955 61.308 184.327 61.452 184.615 61.74C184.903 62.028 185.047 62.388 185.047 62.82V72C185.047 73.44 185.311 74.628 185.839 75.564C186.391 76.5 187.135 77.196 188.071 77.652C189.007 78.108 190.063 78.336 191.239 78.336C192.367 78.336 193.375 78.12 194.263 77.688C195.175 77.256 195.895 76.656 196.423 75.888C196.951 75.12 197.215 74.256 197.215 73.296H199.303C199.255 74.808 198.859 76.164 198.115 77.364C197.371 78.54 196.363 79.476 195.091 80.172C193.819 80.868 192.391 81.216 190.807 81.216ZM198.763 81C198.307 81 197.935 80.856 197.647 80.568C197.359 80.28 197.215 79.908 197.215 79.452V62.82C197.215 62.364 197.359 62.004 197.647 61.74C197.935 61.452 198.307 61.308 198.763 61.308C199.219 61.308 199.591 61.452 199.879 61.74C200.167 62.004 200.311 62.364 200.311 62.82V79.452C200.311 79.908 200.167 80.28 199.879 80.568C199.591 80.856 199.219 81 198.763 81ZM218.876 89.424C218.42 89.424 218.048 89.28 217.76 88.992C217.472 88.704 217.328 88.332 217.328 87.876V71.064C217.352 69.192 217.796 67.512 218.66 66.024C219.548 64.512 220.736 63.324 222.224 62.46C223.712 61.572 225.392 61.128 227.264 61.128C229.184 61.128 230.888 61.572 232.376 62.46C233.888 63.324 235.076 64.512 235.94 66.024C236.828 67.536 237.272 69.252 237.272 71.172C237.272 73.068 236.852 74.772 236.012 76.284C235.196 77.796 234.068 78.996 232.628 79.884C231.188 80.748 229.556 81.18 227.732 81.18C226.196 81.18 224.792 80.856 223.52 80.208C222.248 79.536 221.204 78.66 220.388 77.58V87.876C220.388 88.332 220.244 88.704 219.956 88.992C219.692 89.28 219.332 89.424 218.876 89.424ZM227.264 78.408C228.608 78.408 229.808 78.096 230.864 77.472C231.92 76.848 232.748 75.984 233.348 74.88C233.972 73.776 234.284 72.54 234.284 71.172C234.284 69.78 233.972 68.544 233.348 67.464C232.748 66.36 231.92 65.496 230.864 64.872C229.808 64.224 228.608 63.9 227.264 63.9C225.968 63.9 224.78 64.224 223.7 64.872C222.644 65.496 221.816 66.36 221.216 67.464C220.616 68.544 220.316 69.78 220.316 71.172C220.316 72.54 220.616 73.776 221.216 74.88C221.816 75.984 222.644 76.848 223.7 77.472C224.78 78.096 225.968 78.408 227.264 78.408ZM244.114 68.796C244.162 67.332 244.534 66.024 245.23 64.872C245.95 63.696 246.886 62.772 248.038 62.1C249.19 61.428 250.474 61.092 251.89 61.092C253.114 61.092 254.038 61.272 254.662 61.632C255.31 61.992 255.55 62.484 255.382 63.108C255.31 63.468 255.154 63.72 254.914 63.864C254.698 63.984 254.434 64.044 254.122 64.044C253.834 64.044 253.498 64.032 253.114 64.008C251.722 63.816 250.474 63.9 249.37 64.26C248.266 64.596 247.39 65.16 246.742 65.952C246.094 66.744 245.77 67.692 245.77 68.796H244.114ZM244.258 81C243.778 81 243.406 80.868 243.142 80.604C242.878 80.34 242.746 79.968 242.746 79.488V62.82C242.746 62.34 242.878 61.968 243.142 61.704C243.406 61.44 243.778 61.308 244.258 61.308C244.738 61.308 245.11 61.44 245.374 61.704C245.638 61.968 245.77 62.34 245.77 62.82V79.488C245.77 79.968 245.638 80.34 245.374 80.604C245.11 80.868 244.738 81 244.258 81ZM267.073 81.18C265.129 81.18 263.401 80.748 261.889 79.884C260.401 79.02 259.225 77.832 258.361 76.32C257.497 74.808 257.065 73.092 257.065 71.172C257.065 69.228 257.497 67.5 258.361 65.988C259.225 64.476 260.401 63.288 261.889 62.424C263.401 61.56 265.129 61.128 267.073 61.128C268.993 61.128 270.697 61.56 272.185 62.424C273.673 63.288 274.849 64.476 275.713 65.988C276.577 67.5 277.021 69.228 277.045 71.172C277.045 73.092 276.613 74.808 275.749 76.32C274.885 77.832 273.697 79.02 272.185 79.884C270.697 80.748 268.993 81.18 267.073 81.18ZM267.073 78.408C268.417 78.408 269.617 78.096 270.673 77.472C271.729 76.848 272.545 75.996 273.121 74.916C273.721 73.812 274.021 72.564 274.021 71.172C274.021 69.78 273.721 68.532 273.121 67.428C272.545 66.324 271.729 65.46 270.673 64.836C269.617 64.212 268.417 63.9 267.073 63.9C265.729 63.9 264.529 64.212 263.473 64.836C262.417 65.46 261.577 66.324 260.953 67.428C260.353 68.532 260.053 69.78 260.053 71.172C260.053 72.564 260.353 73.812 260.953 74.916C261.577 75.996 262.417 76.848 263.473 77.472C264.529 78.096 265.729 78.408 267.073 78.408ZM284.767 89.604C284.575 89.604 284.335 89.544 284.047 89.424C283.159 89.016 282.919 88.38 283.327 87.516L294.739 62.172C295.123 61.308 295.759 61.068 296.647 61.452C297.535 61.812 297.787 62.436 297.403 63.324L285.955 88.668C285.691 89.292 285.295 89.604 284.767 89.604ZM288.871 80.316C288.463 80.508 288.091 80.544 287.755 80.424C287.419 80.28 287.143 80.016 286.927 79.632L278.827 63.324C278.635 62.94 278.611 62.58 278.755 62.244C278.899 61.884 279.163 61.608 279.547 61.416C279.955 61.248 280.327 61.224 280.663 61.344C280.999 61.464 281.263 61.728 281.455 62.136L289.339 78.444C289.555 78.828 289.627 79.2 289.555 79.56C289.483 79.896 289.255 80.148 288.871 80.316ZM309.297 81.18C307.329 81.18 305.589 80.76 304.077 79.92C302.565 79.056 301.377 77.868 300.513 76.356C299.649 74.844 299.217 73.116 299.217 71.172C299.217 69.204 299.625 67.476 300.441 65.988C301.257 64.476 302.373 63.288 303.789 62.424C305.229 61.56 306.885 61.128 308.757 61.128C310.605 61.128 312.201 61.548 313.545 62.388C314.889 63.204 315.921 64.344 316.641 65.808C317.385 67.272 317.757 68.94 317.757 70.812C317.757 71.22 317.625 71.556 317.361 71.82C317.097 72.06 316.761 72.18 316.353 72.18H301.305V69.696H316.497L314.985 70.776C314.985 69.456 314.733 68.268 314.229 67.212C313.725 66.156 313.005 65.328 312.069 64.728C311.157 64.128 310.053 63.828 308.757 63.828C307.389 63.828 306.201 64.152 305.193 64.8C304.185 65.424 303.405 66.288 302.853 67.392C302.301 68.496 302.025 69.756 302.025 71.172C302.025 72.588 302.337 73.848 302.961 74.952C303.585 76.032 304.437 76.896 305.517 77.544C306.621 78.168 307.881 78.48 309.297 78.48C310.113 78.48 310.941 78.336 311.781 78.048C312.645 77.76 313.329 77.4 313.833 76.968C314.121 76.728 314.445 76.608 314.805 76.608C315.189 76.584 315.513 76.68 315.777 76.896C316.113 77.208 316.281 77.556 316.281 77.94C316.305 78.3 316.161 78.612 315.849 78.876C315.033 79.548 314.013 80.1 312.789 80.532C311.589 80.964 310.425 81.18 309.297 81.18ZM330.562 81.18C328.666 81.18 326.974 80.748 325.486 79.884C323.998 78.996 322.822 77.796 321.958 76.284C321.118 74.772 320.698 73.068 320.698 71.172C320.698 69.252 321.106 67.536 321.922 66.024C322.762 64.512 323.89 63.324 325.306 62.46C326.746 61.572 328.402 61.128 330.274 61.128C331.714 61.128 333.046 61.416 334.27 61.992C335.494 62.544 336.574 63.384 337.51 64.512C337.798 64.848 337.894 65.196 337.798 65.556C337.726 65.892 337.51 66.192 337.15 66.456C336.862 66.672 336.538 66.744 336.178 66.672C335.818 66.6 335.506 66.408 335.242 66.096C333.922 64.632 332.266 63.9 330.274 63.9C328.978 63.9 327.826 64.212 326.818 64.836C325.834 65.46 325.066 66.312 324.514 67.392C323.962 68.472 323.686 69.732 323.686 71.172C323.686 72.564 323.974 73.812 324.55 74.916C325.126 75.996 325.93 76.848 326.962 77.472C328.018 78.096 329.218 78.408 330.562 78.408C331.474 78.408 332.29 78.288 333.01 78.048C333.754 77.808 334.414 77.448 334.99 76.968C335.302 76.704 335.626 76.56 335.962 76.536C336.322 76.488 336.646 76.584 336.934 76.824C337.246 77.112 337.426 77.436 337.474 77.796C337.522 78.156 337.402 78.48 337.114 78.768C335.362 80.376 333.178 81.18 330.562 81.18ZM350.782 81C349.534 81 348.418 80.7 347.434 80.1C346.45 79.5 345.67 78.672 345.094 77.616C344.542 76.56 344.266 75.372 344.266 74.052V56.592C344.266 56.136 344.398 55.764 344.662 55.476C344.95 55.188 345.322 55.044 345.778 55.044C346.21 55.044 346.57 55.188 346.858 55.476C347.146 55.764 347.29 56.136 347.29 56.592V74.052C347.29 75.18 347.614 76.116 348.262 76.86C348.934 77.58 349.774 77.94 350.782 77.94H351.826C352.234 77.94 352.57 78.084 352.834 78.372C353.098 78.66 353.23 79.032 353.23 79.488C353.23 79.944 353.062 80.316 352.726 80.604C352.414 80.868 352.006 81 351.502 81H350.782ZM342.142 64.656C341.734 64.656 341.398 64.536 341.134 64.296C340.87 64.056 340.738 63.744 340.738 63.36C340.738 62.976 340.87 62.664 341.134 62.424C341.398 62.16 341.734 62.028 342.142 62.028H351.034C351.442 62.028 351.778 62.16 352.042 62.424C352.306 62.664 352.438 62.976 352.438 63.36C352.438 63.744 352.306 64.056 352.042 64.296C351.778 64.536 351.442 64.656 351.034 64.656H342.142ZM366.706 81.18C364.762 81.18 363.034 80.748 361.522 79.884C360.034 79.02 358.858 77.832 357.994 76.32C357.13 74.808 356.698 73.092 356.698 71.172C356.698 69.228 357.13 67.5 357.994 65.988C358.858 64.476 360.034 63.288 361.522 62.424C363.034 61.56 364.762 61.128 366.706 61.128C368.626 61.128 370.33 61.56 371.818 62.424C373.306 63.288 374.482 64.476 375.346 65.988C376.21 67.5 376.654 69.228 376.678 71.172C376.678 73.092 376.246 74.808 375.382 76.32C374.518 77.832 373.33 79.02 371.818 79.884C370.33 80.748 368.626 81.18 366.706 81.18ZM366.706 78.408C368.05 78.408 369.25 78.096 370.306 77.472C371.362 76.848 372.178 75.996 372.754 74.916C373.354 73.812 373.654 72.564 373.654 71.172C373.654 69.78 373.354 68.532 372.754 67.428C372.178 66.324 371.362 65.46 370.306 64.836C369.25 64.212 368.05 63.9 366.706 63.9C365.362 63.9 364.162 64.212 363.106 64.836C362.05 65.46 361.21 66.324 360.586 67.428C359.986 68.532 359.686 69.78 359.686 71.172C359.686 72.564 359.986 73.812 360.586 74.916C361.21 75.996 362.05 76.848 363.106 77.472C364.162 78.096 365.362 78.408 366.706 78.408ZM110.232 185C109.8 185 109.428 184.856 109.116 184.568C108.828 184.256 108.684 183.884 108.684 183.452V156.884H111.816V183.452C111.816 183.884 111.66 184.256 111.348 184.568C111.06 184.856 110.688 185 110.232 185ZM100.404 159.728C99.9718 159.728 99.6238 159.596 99.3598 159.332C99.0958 159.068 98.9638 158.732 98.9638 158.324C98.9638 157.892 99.0958 157.544 99.3598 157.28C99.6238 157.016 99.9718 156.884 100.404 156.884H120.096C120.528 156.884 120.876 157.016 121.14 157.28C121.404 157.544 121.536 157.892 121.536 158.324C121.536 158.732 121.404 159.068 121.14 159.332C120.876 159.596 120.528 159.728 120.096 159.728H100.404ZM128.874 185.18C126.93 185.18 125.202 184.748 123.69 183.884C122.202 183.02 121.026 181.832 120.162 180.32C119.298 178.808 118.866 177.092 118.866 175.172C118.866 173.228 119.298 171.5 120.162 169.988C121.026 168.476 122.202 167.288 123.69 166.424C125.202 165.56 126.93 165.128 128.874 165.128C130.794 165.128 132.498 165.56 133.986 166.424C135.474 167.288 136.65 168.476 137.514 169.988C138.378 171.5 138.822 173.228 138.846 175.172C138.846 177.092 138.414 178.808 137.55 180.32C136.686 181.832 135.498 183.02 133.986 183.884C132.498 184.748 130.794 185.18 128.874 185.18ZM128.874 182.408C130.218 182.408 131.418 182.096 132.474 181.472C133.53 180.848 134.346 179.996 134.922 178.916C135.522 177.812 135.822 176.564 135.822 175.172C135.822 173.78 135.522 172.532 134.922 171.428C134.346 170.324 133.53 169.46 132.474 168.836C131.418 168.212 130.218 167.9 128.874 167.9C127.53 167.9 126.33 168.212 125.274 168.836C124.218 169.46 123.378 170.324 122.754 171.428C122.154 172.532 121.854 173.78 121.854 175.172C121.854 176.564 122.154 177.812 122.754 178.916C123.378 179.996 124.218 180.848 125.274 181.472C126.33 182.096 127.53 182.408 128.874 182.408ZM170.59 185C170.134 185 169.762 184.868 169.474 184.604C169.186 184.316 169.042 183.944 169.042 183.488V173.156C169.042 171.5 168.622 170.228 167.782 169.34C166.942 168.428 165.862 167.972 164.542 167.972C163.126 167.972 161.962 168.452 161.05 169.412C160.162 170.348 159.73 171.596 159.754 173.156H157.09C157.114 171.548 157.462 170.144 158.134 168.944C158.806 167.72 159.73 166.772 160.906 166.1C162.106 165.428 163.462 165.092 164.974 165.092C166.366 165.092 167.602 165.416 168.682 166.064C169.762 166.712 170.602 167.648 171.202 168.872C171.802 170.072 172.102 171.5 172.102 173.156V183.488C172.102 183.944 171.958 184.316 171.67 184.604C171.406 184.868 171.046 185 170.59 185ZM145.786 185C145.33 185 144.958 184.868 144.67 184.604C144.382 184.316 144.238 183.944 144.238 183.488V166.856C144.238 166.4 144.382 166.028 144.67 165.74C144.958 165.452 145.33 165.308 145.786 165.308C146.242 165.308 146.602 165.452 146.866 165.74C147.154 166.028 147.298 166.4 147.298 166.856V183.488C147.298 183.944 147.154 184.316 146.866 184.604C146.602 184.868 146.242 185 145.786 185ZM158.206 185C157.774 185 157.402 184.868 157.09 184.604C156.802 184.316 156.658 183.944 156.658 183.488V173.156C156.658 171.5 156.238 170.228 155.398 169.34C154.558 168.428 153.478 167.972 152.158 167.972C150.742 167.972 149.578 168.44 148.666 169.376C147.754 170.312 147.298 171.524 147.298 173.012H145.246C145.27 171.452 145.594 170.084 146.218 168.908C146.866 167.708 147.742 166.772 148.846 166.1C149.95 165.428 151.198 165.092 152.59 165.092C153.982 165.092 155.218 165.416 156.298 166.064C157.378 166.712 158.218 167.648 158.818 168.872C159.442 170.072 159.754 171.5 159.754 173.156V183.488C159.754 183.944 159.61 184.316 159.322 184.604C159.034 184.868 158.662 185 158.206 185ZM187.27 185.18C185.302 185.18 183.562 184.76 182.05 183.92C180.538 183.056 179.35 181.868 178.486 180.356C177.622 178.844 177.19 177.116 177.19 175.172C177.19 173.204 177.598 171.476 178.414 169.988C179.23 168.476 180.346 167.288 181.762 166.424C183.202 165.56 184.858 165.128 186.73 165.128C188.578 165.128 190.174 165.548 191.518 166.388C192.862 167.204 193.894 168.344 194.614 169.808C195.358 171.272 195.73 172.94 195.73 174.812C195.73 175.22 195.598 175.556 195.334 175.82C195.07 176.06 194.734 176.18 194.326 176.18H179.278V173.696H194.47L192.958 174.776C192.958 173.456 192.706 172.268 192.202 171.212C191.698 170.156 190.978 169.328 190.042 168.728C189.13 168.128 188.026 167.828 186.73 167.828C185.362 167.828 184.174 168.152 183.166 168.8C182.158 169.424 181.378 170.288 180.826 171.392C180.274 172.496 179.998 173.756 179.998 175.172C179.998 176.588 180.31 177.848 180.934 178.952C181.558 180.032 182.41 180.896 183.49 181.544C184.594 182.168 185.854 182.48 187.27 182.48C188.086 182.48 188.914 182.336 189.754 182.048C190.618 181.76 191.302 181.4 191.806 180.968C192.094 180.728 192.418 180.608 192.778 180.608C193.162 180.584 193.486 180.68 193.75 180.896C194.086 181.208 194.254 181.556 194.254 181.94C194.278 182.3 194.134 182.612 193.822 182.876C193.006 183.548 191.986 184.1 190.762 184.532C189.562 184.964 188.398 185.18 187.27 185.18ZM226.77 185C226.314 185 225.942 184.868 225.654 184.604C225.366 184.316 225.222 183.944 225.222 183.488V173.156C225.222 171.5 224.802 170.228 223.962 169.34C223.122 168.428 222.042 167.972 220.722 167.972C219.306 167.972 218.142 168.452 217.23 169.412C216.342 170.348 215.91 171.596 215.934 173.156H213.27C213.294 171.548 213.642 170.144 214.314 168.944C214.986 167.72 215.91 166.772 217.086 166.1C218.286 165.428 219.642 165.092 221.154 165.092C222.546 165.092 223.782 165.416 224.862 166.064C225.942 166.712 226.782 167.648 227.382 168.872C227.982 170.072 228.282 171.5 228.282 173.156V183.488C228.282 183.944 228.138 184.316 227.85 184.604C227.586 184.868 227.226 185 226.77 185ZM201.966 185C201.51 185 201.138 184.868 200.85 184.604C200.562 184.316 200.418 183.944 200.418 183.488V166.856C200.418 166.4 200.562 166.028 200.85 165.74C201.138 165.452 201.51 165.308 201.966 165.308C202.422 165.308 202.782 165.452 203.046 165.74C203.334 166.028 203.478 166.4 203.478 166.856V183.488C203.478 183.944 203.334 184.316 203.046 184.604C202.782 184.868 202.422 185 201.966 185ZM214.386 185C213.954 185 213.582 184.868 213.27 184.604C212.982 184.316 212.838 183.944 212.838 183.488V173.156C212.838 171.5 212.418 170.228 211.578 169.34C210.738 168.428 209.658 167.972 208.338 167.972C206.922 167.972 205.758 168.44 204.846 169.376C203.934 170.312 203.478 171.524 203.478 173.012H201.426C201.45 171.452 201.774 170.084 202.398 168.908C203.046 167.708 203.922 166.772 205.026 166.1C206.13 165.428 207.378 165.092 208.77 165.092C210.162 165.092 211.398 165.416 212.478 166.064C213.558 166.712 214.398 167.648 214.998 168.872C215.622 170.072 215.934 171.5 215.934 173.156V183.488C215.934 183.944 215.79 184.316 215.502 184.604C215.214 184.868 214.842 185 214.386 185ZM243.378 185.18C241.434 185.18 239.706 184.748 238.194 183.884C236.706 183.02 235.53 181.832 234.666 180.32C233.802 178.808 233.37 177.092 233.37 175.172C233.37 173.228 233.802 171.5 234.666 169.988C235.53 168.476 236.706 167.288 238.194 166.424C239.706 165.56 241.434 165.128 243.378 165.128C245.298 165.128 247.002 165.56 248.49 166.424C249.978 167.288 251.154 168.476 252.018 169.988C252.882 171.5 253.326 173.228 253.35 175.172C253.35 177.092 252.918 178.808 252.054 180.32C251.19 181.832 250.002 183.02 248.49 183.884C247.002 184.748 245.298 185.18 243.378 185.18ZM243.378 182.408C244.722 182.408 245.922 182.096 246.978 181.472C248.034 180.848 248.85 179.996 249.426 178.916C250.026 177.812 250.326 176.564 250.326 175.172C250.326 173.78 250.026 172.532 249.426 171.428C248.85 170.324 248.034 169.46 246.978 168.836C245.922 168.212 244.722 167.9 243.378 167.9C242.034 167.9 240.834 168.212 239.778 168.836C238.722 169.46 237.882 170.324 237.258 171.428C236.658 172.532 236.358 173.78 236.358 175.172C236.358 176.564 236.658 177.812 237.258 178.916C237.882 179.996 238.722 180.848 239.778 181.472C240.834 182.096 242.034 182.408 243.378 182.408ZM265.726 185.18C264.214 185.18 262.75 184.94 261.334 184.46C259.942 183.956 258.826 183.248 257.986 182.336C257.698 182.024 257.578 181.664 257.626 181.256C257.674 180.848 257.866 180.5 258.202 180.212C258.586 179.924 258.97 179.816 259.354 179.888C259.762 179.936 260.11 180.104 260.398 180.392C260.902 180.992 261.622 181.484 262.558 181.868C263.494 182.228 264.526 182.408 265.654 182.408C267.31 182.408 268.522 182.132 269.29 181.58C270.058 181.004 270.454 180.308 270.478 179.492C270.502 178.676 270.118 177.992 269.326 177.44C268.558 176.888 267.238 176.456 265.366 176.144C262.942 175.736 261.166 175.052 260.038 174.092C258.934 173.132 258.382 171.98 258.382 170.636C258.382 169.412 258.718 168.392 259.39 167.576C260.062 166.76 260.938 166.148 262.018 165.74C263.122 165.332 264.31 165.128 265.582 165.128C267.19 165.128 268.582 165.404 269.758 165.956C270.934 166.484 271.882 167.204 272.602 168.116C272.89 168.452 273.01 168.812 272.962 169.196C272.914 169.556 272.722 169.856 272.386 170.096C272.05 170.288 271.666 170.348 271.234 170.276C270.826 170.204 270.478 170.012 270.19 169.7C269.59 169.052 268.906 168.584 268.138 168.296C267.37 168.008 266.494 167.864 265.51 167.864C264.286 167.864 263.278 168.104 262.486 168.584C261.718 169.064 261.334 169.688 261.334 170.456C261.334 170.984 261.466 171.44 261.73 171.824C262.018 172.208 262.522 172.556 263.242 172.868C263.962 173.156 264.97 173.42 266.266 173.66C268.066 173.972 269.482 174.404 270.514 174.956C271.57 175.508 272.326 176.168 272.782 176.936C273.238 177.68 273.466 178.508 273.466 179.42C273.466 180.524 273.142 181.508 272.494 182.372C271.87 183.236 270.97 183.92 269.794 184.424C268.642 184.928 267.286 185.18 265.726 185.18ZM297.19 185.216C295.51 185.216 293.998 184.868 292.654 184.172C291.334 183.452 290.29 182.408 289.522 181.04C288.754 179.672 288.37 177.992 288.37 176V166.82C288.37 166.388 288.514 166.028 288.802 165.74C289.09 165.452 289.45 165.308 289.882 165.308C290.338 165.308 290.71 165.452 290.998 165.74C291.286 166.028 291.43 166.388 291.43 166.82V176C291.43 177.44 291.694 178.628 292.222 179.564C292.774 180.5 293.518 181.196 294.454 181.652C295.39 182.108 296.446 182.336 297.622 182.336C298.75 182.336 299.758 182.12 300.646 181.688C301.558 181.256 302.278 180.656 302.806 179.888C303.334 179.12 303.598 178.256 303.598 177.296H305.686C305.638 178.808 305.242 180.164 304.498 181.364C303.754 182.54 302.746 183.476 301.474 184.172C300.202 184.868 298.774 185.216 297.19 185.216ZM305.146 185C304.69 185 304.318 184.856 304.03 184.568C303.742 184.28 303.598 183.908 303.598 183.452V166.82C303.598 166.364 303.742 166.004 304.03 165.74C304.318 165.452 304.69 165.308 305.146 165.308C305.602 165.308 305.974 165.452 306.262 165.74C306.55 166.004 306.694 166.364 306.694 166.82V183.452C306.694 183.908 306.55 184.28 306.262 184.568C305.974 184.856 305.602 185 305.146 185ZM329.976 185C329.52 185 329.148 184.856 328.86 184.568C328.572 184.28 328.428 183.92 328.428 183.488V174.308C328.428 172.844 328.152 171.656 327.6 170.744C327.048 169.808 326.304 169.112 325.368 168.656C324.456 168.2 323.4 167.972 322.2 167.972C321.096 167.972 320.088 168.188 319.176 168.62C318.264 169.052 317.544 169.652 317.016 170.42C316.488 171.164 316.224 172.028 316.224 173.012H314.172C314.196 171.5 314.58 170.156 315.324 168.98C316.092 167.78 317.112 166.832 318.384 166.136C319.656 165.44 321.072 165.092 322.632 165.092C324.336 165.092 325.848 165.452 327.168 166.172C328.512 166.868 329.568 167.9 330.336 169.268C331.104 170.636 331.488 172.316 331.488 174.308V183.488C331.488 183.92 331.344 184.28 331.056 184.568C330.768 184.856 330.408 185 329.976 185ZM314.712 185C314.256 185 313.884 184.868 313.596 184.604C313.308 184.316 313.164 183.944 313.164 183.488V166.856C313.164 166.376 313.308 166.004 313.596 165.74C313.884 165.452 314.256 165.308 314.712 165.308C315.168 165.308 315.528 165.452 315.792 165.74C316.08 166.004 316.224 166.376 316.224 166.856V183.488C316.224 183.944 316.08 184.316 315.792 184.604C315.528 184.868 315.168 185 314.712 185ZM356.964 185.18C355.068 185.18 353.376 184.748 351.888 183.884C350.4 182.996 349.224 181.796 348.36 180.284C347.52 178.772 347.1 177.068 347.1 175.172C347.1 173.252 347.508 171.536 348.324 170.024C349.164 168.512 350.292 167.324 351.708 166.46C353.148 165.572 354.804 165.128 356.676 165.128C358.116 165.128 359.448 165.416 360.672 165.992C361.896 166.544 362.976 167.384 363.912 168.512C364.2 168.848 364.296 169.196 364.2 169.556C364.128 169.892 363.912 170.192 363.552 170.456C363.264 170.672 362.94 170.744 362.58 170.672C362.22 170.6 361.908 170.408 361.644 170.096C360.324 168.632 358.668 167.9 356.676 167.9C355.38 167.9 354.228 168.212 353.22 168.836C352.236 169.46 351.468 170.312 350.916 171.392C350.364 172.472 350.088 173.732 350.088 175.172C350.088 176.564 350.376 177.812 350.952 178.916C351.528 179.996 352.332 180.848 353.364 181.472C354.42 182.096 355.62 182.408 356.964 182.408C357.876 182.408 358.692 182.288 359.412 182.048C360.156 181.808 360.816 181.448 361.392 180.968C361.704 180.704 362.028 180.56 362.364 180.536C362.724 180.488 363.048 180.584 363.336 180.824C363.648 181.112 363.828 181.436 363.876 181.796C363.924 182.156 363.804 182.48 363.516 182.768C361.764 184.376 359.58 185.18 356.964 185.18ZM378.192 185.18C376.368 185.18 374.736 184.748 373.296 183.884C371.856 182.996 370.716 181.796 369.876 180.284C369.036 178.772 368.616 177.068 368.616 175.172C368.616 173.252 369.048 171.536 369.912 170.024C370.8 168.512 372 167.324 373.512 166.46C375.024 165.572 376.728 165.128 378.624 165.128C380.496 165.128 382.176 165.572 383.664 166.46C385.176 167.324 386.364 168.512 387.228 170.024C388.116 171.536 388.572 173.252 388.596 175.172L387.372 175.748C387.372 177.524 386.964 179.132 386.148 180.572C385.356 181.988 384.264 183.116 382.872 183.956C381.504 184.772 379.944 185.18 378.192 185.18ZM378.624 182.408C379.944 182.408 381.132 182.096 382.188 181.472C383.244 180.848 384.072 179.984 384.672 178.88C385.272 177.776 385.572 176.54 385.572 175.172C385.572 173.78 385.272 172.544 384.672 171.464C384.072 170.36 383.244 169.496 382.188 168.872C381.132 168.224 379.944 167.9 378.624 167.9C377.304 167.9 376.116 168.224 375.06 168.872C374.004 169.496 373.164 170.36 372.54 171.464C371.916 172.544 371.604 173.78 371.604 175.172C371.604 176.54 371.916 177.776 372.54 178.88C373.164 179.984 374.004 180.848 375.06 181.472C376.116 182.096 377.304 182.408 378.624 182.408ZM387.048 185C386.592 185 386.22 184.868 385.932 184.604C385.644 184.316 385.5 183.944 385.5 183.488V177.548L386.184 174.38L388.596 175.172V183.488C388.596 183.944 388.44 184.316 388.128 184.604C387.84 184.868 387.48 185 387.048 185ZM396.328 185C395.944 185 395.596 184.868 395.284 184.604C394.996 184.316 394.852 183.932 394.852 183.452V165.38C394.852 163.676 395.152 162.188 395.752 160.916C396.376 159.644 397.264 158.66 398.416 157.964C399.592 157.244 400.984 156.884 402.592 156.884C403.048 156.884 403.42 157.016 403.708 157.28C403.996 157.544 404.14 157.88 404.14 158.288C404.14 158.672 403.996 158.996 403.708 159.26C403.42 159.524 403.048 159.656 402.592 159.656C401.584 159.656 400.732 159.896 400.036 160.376C399.34 160.832 398.812 161.48 398.452 162.32C398.092 163.136 397.912 164.084 397.912 165.164V183.452C397.912 183.932 397.768 184.316 397.48 184.604C397.216 184.868 396.832 185 396.328 185ZM392.8 168.656C392.368 168.656 392.02 168.536 391.756 168.296C391.516 168.056 391.396 167.744 391.396 167.36C391.396 166.976 391.516 166.664 391.756 166.424C392.02 166.16 392.368 166.028 392.8 166.028H402.016C402.448 166.028 402.784 166.16 403.024 166.424C403.288 166.664 403.42 166.976 403.42 167.36C403.42 167.744 403.288 168.056 403.024 168.296C402.784 168.536 402.448 168.656 402.016 168.656H392.8ZM415.505 185.18C413.537 185.18 411.797 184.76 410.285 183.92C408.773 183.056 407.585 181.868 406.721 180.356C405.857 178.844 405.425 177.116 405.425 175.172C405.425 173.204 405.833 171.476 406.649 169.988C407.465 168.476 408.581 167.288 409.997 166.424C411.437 165.56 413.093 165.128 414.965 165.128C416.813 165.128 418.409 165.548 419.753 166.388C421.097 167.204 422.129 168.344 422.849 169.808C423.593 171.272 423.965 172.94 423.965 174.812C423.965 175.22 423.833 175.556 423.569 175.82C423.305 176.06 422.969 176.18 422.561 176.18H407.513V173.696H422.705L421.193 174.776C421.193 173.456 420.941 172.268 420.437 171.212C419.933 170.156 419.213 169.328 418.277 168.728C417.365 168.128 416.261 167.828 414.965 167.828C413.597 167.828 412.409 168.152 411.401 168.8C410.393 169.424 409.613 170.288 409.061 171.392C408.509 172.496 408.233 173.756 408.233 175.172C408.233 176.588 408.545 177.848 409.169 178.952C409.793 180.032 410.645 180.896 411.725 181.544C412.829 182.168 414.089 182.48 415.505 182.48C416.321 182.48 417.149 182.336 417.989 182.048C418.853 181.76 419.537 181.4 420.041 180.968C420.329 180.728 420.653 180.608 421.013 180.608C421.397 180.584 421.721 180.68 421.985 180.896C422.321 181.208 422.489 181.556 422.489 181.94C422.513 182.3 422.369 182.612 422.057 182.876C421.241 183.548 420.221 184.1 418.997 184.532C417.797 184.964 416.633 185.18 415.505 185.18ZM414.605 162.284C414.173 162.284 413.801 162.14 413.489 161.852C413.201 161.54 413.057 161.168 413.057 160.736C413.057 160.304 413.177 159.956 413.417 159.692L417.305 155.804C417.593 155.516 417.953 155.372 418.385 155.372C418.841 155.372 419.213 155.528 419.501 155.84C419.789 156.128 419.933 156.5 419.933 156.956C419.933 157.148 419.897 157.34 419.825 157.532C419.753 157.7 419.645 157.856 419.501 158L415.649 161.888C415.361 162.152 415.013 162.284 414.605 162.284ZM442.619 193.604C442.427 193.604 442.187 193.544 441.899 193.424C441.011 193.016 440.771 192.38 441.179 191.516L452.591 166.172C452.975 165.308 453.611 165.068 454.499 165.452C455.387 165.812 455.639 166.436 455.255 167.324L443.807 192.668C443.543 193.292 443.147 193.604 442.619 193.604ZM446.723 184.316C446.315 184.508 445.943 184.544 445.607 184.424C445.271 184.28 444.995 184.016 444.779 183.632L436.679 167.324C436.487 166.94 436.463 166.58 436.607 166.244C436.751 165.884 437.015 165.608 437.399 165.416C437.807 165.248 438.179 165.224 438.515 165.344C438.851 165.464 439.115 165.728 439.307 166.136L447.191 182.444C447.407 182.828 447.479 183.2 447.407 183.56C447.335 183.896 447.107 184.148 446.723 184.316ZM65.5014 237.18C63.6054 237.18 61.9134 236.748 60.4254 235.884C58.9374 234.996 57.7614 233.796 56.8974 232.284C56.0574 230.772 55.6374 229.068 55.6374 227.172C55.6374 225.252 56.0454 223.536 56.8614 222.024C57.7014 220.512 58.8294 219.324 60.2454 218.46C61.6854 217.572 63.3414 217.128 65.2134 217.128C66.6534 217.128 67.9854 217.416 69.2094 217.992C70.4334 218.544 71.5134 219.384 72.4494 220.512C72.7374 220.848 72.8334 221.196 72.7374 221.556C72.6654 221.892 72.4494 222.192 72.0894 222.456C71.8014 222.672 71.4774 222.744 71.1174 222.672C70.7574 222.6 70.4454 222.408 70.1814 222.096C68.8614 220.632 67.2054 219.9 65.2134 219.9C63.9174 219.9 62.7654 220.212 61.7574 220.836C60.7734 221.46 60.0054 222.312 59.4534 223.392C58.9014 224.472 58.6254 225.732 58.6254 227.172C58.6254 228.564 58.9134 229.812 59.4894 230.916C60.0654 231.996 60.8694 232.848 61.9014 233.472C62.9574 234.096 64.1574 234.408 65.5014 234.408C66.4134 234.408 67.2294 234.288 67.9494 234.048C68.6934 233.808 69.3534 233.448 69.9294 232.968C70.2414 232.704 70.5654 232.56 70.9014 232.536C71.2614 232.488 71.5854 232.584 71.8734 232.824C72.1854 233.112 72.3654 233.436 72.4134 233.796C72.4614 234.156 72.3414 234.48 72.0534 234.768C70.3014 236.376 68.1174 237.18 65.5014 237.18ZM87.161 237.18C85.217 237.18 83.489 236.748 81.977 235.884C80.489 235.02 79.313 233.832 78.449 232.32C77.585 230.808 77.153 229.092 77.153 227.172C77.153 225.228 77.585 223.5 78.449 221.988C79.313 220.476 80.489 219.288 81.977 218.424C83.489 217.56 85.217 217.128 87.161 217.128C89.081 217.128 90.785 217.56 92.273 218.424C93.761 219.288 94.937 220.476 95.801 221.988C96.665 223.5 97.109 225.228 97.133 227.172C97.133 229.092 96.701 230.808 95.837 232.32C94.973 233.832 93.785 235.02 92.273 235.884C90.785 236.748 89.081 237.18 87.161 237.18ZM87.161 234.408C88.505 234.408 89.705 234.096 90.761 233.472C91.817 232.848 92.633 231.996 93.209 230.916C93.809 229.812 94.109 228.564 94.109 227.172C94.109 225.78 93.809 224.532 93.209 223.428C92.633 222.324 91.817 221.46 90.761 220.836C89.705 220.212 88.505 219.9 87.161 219.9C85.817 219.9 84.617 220.212 83.561 220.836C82.505 221.46 81.665 222.324 81.041 223.428C80.441 224.532 80.141 225.78 80.141 227.172C80.141 228.564 80.441 229.812 81.041 230.916C81.665 231.996 82.505 232.848 83.561 233.472C84.617 234.096 85.817 234.408 87.161 234.408ZM119.337 237C118.881 237 118.509 236.856 118.221 236.568C117.933 236.28 117.789 235.92 117.789 235.488V226.308C117.789 224.844 117.513 223.656 116.961 222.744C116.409 221.808 115.665 221.112 114.729 220.656C113.817 220.2 112.761 219.972 111.561 219.972C110.457 219.972 109.449 220.188 108.537 220.62C107.625 221.052 106.905 221.652 106.377 222.42C105.849 223.164 105.585 224.028 105.585 225.012H103.533C103.557 223.5 103.941 222.156 104.685 220.98C105.453 219.78 106.473 218.832 107.745 218.136C109.017 217.44 110.433 217.092 111.993 217.092C113.697 217.092 115.209 217.452 116.529 218.172C117.873 218.868 118.929 219.9 119.697 221.268C120.465 222.636 120.849 224.316 120.849 226.308V235.488C120.849 235.92 120.705 236.28 120.417 236.568C120.129 236.856 119.769 237 119.337 237ZM104.073 237C103.617 237 103.245 236.868 102.957 236.604C102.669 236.316 102.525 235.944 102.525 235.488V218.856C102.525 218.376 102.669 218.004 102.957 217.74C103.245 217.452 103.617 217.308 104.073 217.308C104.529 217.308 104.889 217.452 105.153 217.74C105.441 218.004 105.585 218.376 105.585 218.856V235.488C105.585 235.944 105.441 236.316 105.153 236.604C104.889 236.868 104.529 237 104.073 237ZM133.943 237.18C132.431 237.18 130.967 236.94 129.551 236.46C128.159 235.956 127.043 235.248 126.203 234.336C125.915 234.024 125.795 233.664 125.843 233.256C125.891 232.848 126.083 232.5 126.419 232.212C126.803 231.924 127.187 231.816 127.571 231.888C127.979 231.936 128.327 232.104 128.615 232.392C129.119 232.992 129.839 233.484 130.775 233.868C131.711 234.228 132.743 234.408 133.871 234.408C135.527 234.408 136.739 234.132 137.507 233.58C138.275 233.004 138.671 232.308 138.695 231.492C138.719 230.676 138.335 229.992 137.543 229.44C136.775 228.888 135.455 228.456 133.583 228.144C131.159 227.736 129.383 227.052 128.255 226.092C127.151 225.132 126.599 223.98 126.599 222.636C126.599 221.412 126.935 220.392 127.607 219.576C128.279 218.76 129.155 218.148 130.235 217.74C131.339 217.332 132.527 217.128 133.799 217.128C135.407 217.128 136.799 217.404 137.975 217.956C139.151 218.484 140.099 219.204 140.819 220.116C141.107 220.452 141.227 220.812 141.179 221.196C141.131 221.556 140.939 221.856 140.603 222.096C140.267 222.288 139.883 222.348 139.451 222.276C139.043 222.204 138.695 222.012 138.407 221.7C137.807 221.052 137.123 220.584 136.355 220.296C135.587 220.008 134.711 219.864 133.727 219.864C132.503 219.864 131.495 220.104 130.703 220.584C129.935 221.064 129.551 221.688 129.551 222.456C129.551 222.984 129.683 223.44 129.947 223.824C130.235 224.208 130.739 224.556 131.459 224.868C132.179 225.156 133.187 225.42 134.483 225.66C136.283 225.972 137.699 226.404 138.731 226.956C139.787 227.508 140.543 228.168 140.999 228.936C141.455 229.68 141.683 230.508 141.683 231.42C141.683 232.524 141.359 233.508 140.711 234.372C140.087 235.236 139.187 235.92 138.011 236.424C136.859 236.928 135.503 237.18 133.943 237.18ZM153.924 237C152.676 237 151.56 236.7 150.576 236.1C149.592 235.5 148.812 234.672 148.236 233.616C147.684 232.56 147.408 231.372 147.408 230.052V212.592C147.408 212.136 147.54 211.764 147.804 211.476C148.092 211.188 148.464 211.044 148.92 211.044C149.352 211.044 149.712 211.188 150 211.476C150.288 211.764 150.432 212.136 150.432 212.592V230.052C150.432 231.18 150.756 232.116 151.404 232.86C152.076 233.58 152.916 233.94 153.924 233.94H154.968C155.376 233.94 155.712 234.084 155.976 234.372C156.24 234.66 156.372 235.032 156.372 235.488C156.372 235.944 156.204 236.316 155.868 236.604C155.556 236.868 155.148 237 154.644 237H153.924ZM145.284 220.656C144.876 220.656 144.54 220.536 144.276 220.296C144.012 220.056 143.88 219.744 143.88 219.36C143.88 218.976 144.012 218.664 144.276 218.424C144.54 218.16 144.876 218.028 145.284 218.028H154.176C154.584 218.028 154.92 218.16 155.184 218.424C155.448 218.664 155.58 218.976 155.58 219.36C155.58 219.744 155.448 220.056 155.184 220.296C154.92 220.536 154.584 220.656 154.176 220.656H145.284ZM162.253 224.796C162.301 223.332 162.673 222.024 163.369 220.872C164.089 219.696 165.025 218.772 166.177 218.1C167.329 217.428 168.613 217.092 170.029 217.092C171.253 217.092 172.177 217.272 172.801 217.632C173.449 217.992 173.689 218.484 173.521 219.108C173.449 219.468 173.293 219.72 173.053 219.864C172.837 219.984 172.573 220.044 172.261 220.044C171.973 220.044 171.637 220.032 171.253 220.008C169.861 219.816 168.613 219.9 167.509 220.26C166.405 220.596 165.529 221.16 164.881 221.952C164.233 222.744 163.909 223.692 163.909 224.796H162.253ZM162.397 237C161.917 237 161.545 236.868 161.281 236.604C161.017 236.34 160.885 235.968 160.885 235.488V218.82C160.885 218.34 161.017 217.968 161.281 217.704C161.545 217.44 161.917 217.308 162.397 217.308C162.877 217.308 163.249 217.44 163.513 217.704C163.777 217.968 163.909 218.34 163.909 218.82V235.488C163.909 235.968 163.777 236.34 163.513 236.604C163.249 236.868 162.877 237 162.397 237ZM186.149 237.216C184.469 237.216 182.957 236.868 181.613 236.172C180.293 235.452 179.249 234.408 178.481 233.04C177.713 231.672 177.329 229.992 177.329 228V218.82C177.329 218.388 177.473 218.028 177.761 217.74C178.049 217.452 178.409 217.308 178.841 217.308C179.297 217.308 179.669 217.452 179.957 217.74C180.245 218.028 180.389 218.388 180.389 218.82V228C180.389 229.44 180.653 230.628 181.181 231.564C181.733 232.5 182.477 233.196 183.413 233.652C184.349 234.108 185.405 234.336 186.581 234.336C187.709 234.336 188.717 234.12 189.605 233.688C190.517 233.256 191.237 232.656 191.765 231.888C192.293 231.12 192.557 230.256 192.557 229.296H194.645C194.597 230.808 194.201 232.164 193.457 233.364C192.713 234.54 191.705 235.476 190.433 236.172C189.161 236.868 187.733 237.216 186.149 237.216ZM194.105 237C193.649 237 193.277 236.856 192.989 236.568C192.701 236.28 192.557 235.908 192.557 235.452V218.82C192.557 218.364 192.701 218.004 192.989 217.74C193.277 217.452 193.649 217.308 194.105 217.308C194.561 217.308 194.933 217.452 195.221 217.74C195.509 218.004 195.653 218.364 195.653 218.82V235.452C195.653 235.908 195.509 236.28 195.221 236.568C194.933 236.856 194.561 237 194.105 237ZM205.543 245.604C205.351 245.604 205.111 245.544 204.823 245.424C203.935 245.016 203.695 244.38 204.103 243.516L215.515 218.172C215.899 217.308 216.535 217.068 217.423 217.452C218.311 217.812 218.563 218.436 218.179 219.324L206.731 244.668C206.467 245.292 206.071 245.604 205.543 245.604ZM209.647 236.316C209.239 236.508 208.867 236.544 208.531 236.424C208.195 236.28 207.919 236.016 207.703 235.632L199.603 219.324C199.411 218.94 199.387 218.58 199.531 218.244C199.675 217.884 199.939 217.608 200.323 217.416C200.731 217.248 201.103 217.224 201.439 217.344C201.775 217.464 202.039 217.728 202.231 218.136L210.115 234.444C210.331 234.828 210.403 235.2 210.331 235.56C210.259 235.896 210.031 236.148 209.647 236.316ZM229.569 237.18C227.745 237.18 226.113 236.748 224.673 235.884C223.233 234.996 222.093 233.796 221.253 232.284C220.413 230.772 219.993 229.068 219.993 227.172C219.993 225.252 220.425 223.536 221.289 222.024C222.177 220.512 223.377 219.324 224.889 218.46C226.401 217.572 228.105 217.128 230.001 217.128C231.873 217.128 233.553 217.572 235.041 218.46C236.553 219.324 237.741 220.512 238.605 222.024C239.493 223.536 239.949 225.252 239.973 227.172L238.749 227.748C238.749 229.524 238.341 231.132 237.525 232.572C236.733 233.988 235.641 235.116 234.249 235.956C232.881 236.772 231.321 237.18 229.569 237.18ZM230.001 234.408C231.321 234.408 232.509 234.096 233.565 233.472C234.621 232.848 235.449 231.984 236.049 230.88C236.649 229.776 236.949 228.54 236.949 227.172C236.949 225.78 236.649 224.544 236.049 223.464C235.449 222.36 234.621 221.496 233.565 220.872C232.509 220.224 231.321 219.9 230.001 219.9C228.681 219.9 227.493 220.224 226.437 220.872C225.381 221.496 224.541 222.36 223.917 223.464C223.293 224.544 222.981 225.78 222.981 227.172C222.981 228.54 223.293 229.776 223.917 230.88C224.541 231.984 225.381 232.848 226.437 233.472C227.493 234.096 228.681 234.408 230.001 234.408ZM238.425 237C237.969 237 237.597 236.868 237.309 236.604C237.021 236.316 236.877 235.944 236.877 235.488V229.548L237.561 226.38L239.973 227.172V235.488C239.973 235.944 239.817 236.316 239.505 236.604C239.217 236.868 238.857 237 238.425 237ZM271.717 237C271.261 237 270.889 236.868 270.601 236.604C270.313 236.316 270.169 235.944 270.169 235.488V225.156C270.169 223.5 269.749 222.228 268.909 221.34C268.069 220.428 266.989 219.972 265.669 219.972C264.253 219.972 263.089 220.452 262.177 221.412C261.289 222.348 260.857 223.596 260.881 225.156H258.217C258.241 223.548 258.589 222.144 259.261 220.944C259.933 219.72 260.857 218.772 262.033 218.1C263.233 217.428 264.589 217.092 266.101 217.092C267.493 217.092 268.729 217.416 269.809 218.064C270.889 218.712 271.729 219.648 272.329 220.872C272.929 222.072 273.229 223.5 273.229 225.156V235.488C273.229 235.944 273.085 236.316 272.797 236.604C272.533 236.868 272.173 237 271.717 237ZM246.913 237C246.457 237 246.085 236.868 245.797 236.604C245.509 236.316 245.365 235.944 245.365 235.488V218.856C245.365 218.4 245.509 218.028 245.797 217.74C246.085 217.452 246.457 217.308 246.913 217.308C247.369 217.308 247.729 217.452 247.993 217.74C248.281 218.028 248.425 218.4 248.425 218.856V235.488C248.425 235.944 248.281 236.316 247.993 236.604C247.729 236.868 247.369 237 246.913 237ZM259.333 237C258.901 237 258.529 236.868 258.217 236.604C257.929 236.316 257.785 235.944 257.785 235.488V225.156C257.785 223.5 257.365 222.228 256.525 221.34C255.685 220.428 254.605 219.972 253.285 219.972C251.869 219.972 250.705 220.44 249.793 221.376C248.881 222.312 248.425 223.524 248.425 225.012H246.373C246.397 223.452 246.721 222.084 247.345 220.908C247.993 219.708 248.869 218.772 249.973 218.1C251.077 217.428 252.325 217.092 253.717 217.092C255.109 217.092 256.345 217.416 257.425 218.064C258.505 218.712 259.345 219.648 259.945 220.872C260.569 222.072 260.881 223.5 260.881 225.156V235.488C260.881 235.944 260.737 236.316 260.449 236.604C260.161 236.868 259.789 237 259.333 237ZM288.325 237.18C286.381 237.18 284.653 236.748 283.141 235.884C281.653 235.02 280.477 233.832 279.613 232.32C278.749 230.808 278.317 229.092 278.317 227.172C278.317 225.228 278.749 223.5 279.613 221.988C280.477 220.476 281.653 219.288 283.141 218.424C284.653 217.56 286.381 217.128 288.325 217.128C290.245 217.128 291.949 217.56 293.437 218.424C294.925 219.288 296.101 220.476 296.965 221.988C297.829 223.5 298.273 225.228 298.297 227.172C298.297 229.092 297.865 230.808 297.001 232.32C296.137 233.832 294.949 235.02 293.437 235.884C291.949 236.748 290.245 237.18 288.325 237.18ZM288.325 234.408C289.669 234.408 290.869 234.096 291.925 233.472C292.981 232.848 293.797 231.996 294.373 230.916C294.973 229.812 295.273 228.564 295.273 227.172C295.273 225.78 294.973 224.532 294.373 223.428C293.797 222.324 292.981 221.46 291.925 220.836C290.869 220.212 289.669 219.9 288.325 219.9C286.981 219.9 285.781 220.212 284.725 220.836C283.669 221.46 282.829 222.324 282.205 223.428C281.605 224.532 281.305 225.78 281.305 227.172C281.305 228.564 281.605 229.812 282.205 230.916C282.829 231.996 283.669 232.848 284.725 233.472C285.781 234.096 286.981 234.408 288.325 234.408ZM310.673 237.18C309.161 237.18 307.697 236.94 306.281 236.46C304.889 235.956 303.773 235.248 302.933 234.336C302.645 234.024 302.525 233.664 302.573 233.256C302.621 232.848 302.813 232.5 303.149 232.212C303.533 231.924 303.917 231.816 304.301 231.888C304.709 231.936 305.057 232.104 305.345 232.392C305.849 232.992 306.569 233.484 307.505 233.868C308.441 234.228 309.473 234.408 310.601 234.408C312.257 234.408 313.469 234.132 314.237 233.58C315.005 233.004 315.401 232.308 315.425 231.492C315.449 230.676 315.065 229.992 314.273 229.44C313.505 228.888 312.185 228.456 310.313 228.144C307.889 227.736 306.113 227.052 304.985 226.092C303.881 225.132 303.329 223.98 303.329 222.636C303.329 221.412 303.665 220.392 304.337 219.576C305.009 218.76 305.885 218.148 306.965 217.74C308.069 217.332 309.257 217.128 310.529 217.128C312.137 217.128 313.529 217.404 314.705 217.956C315.881 218.484 316.829 219.204 317.549 220.116C317.837 220.452 317.957 220.812 317.909 221.196C317.861 221.556 317.669 221.856 317.333 222.096C316.997 222.288 316.613 222.348 316.181 222.276C315.773 222.204 315.425 222.012 315.137 221.7C314.537 221.052 313.853 220.584 313.085 220.296C312.317 220.008 311.441 219.864 310.457 219.864C309.233 219.864 308.225 220.104 307.433 220.584C306.665 221.064 306.281 221.688 306.281 222.456C306.281 222.984 306.413 223.44 306.677 223.824C306.965 224.208 307.469 224.556 308.189 224.868C308.909 225.156 309.917 225.42 311.213 225.66C313.013 225.972 314.429 226.404 315.461 226.956C316.517 227.508 317.273 228.168 317.729 228.936C318.185 229.68 318.413 230.508 318.413 231.42C318.413 232.524 318.089 233.508 317.441 234.372C316.817 235.236 315.917 235.92 314.741 236.424C313.589 236.928 312.233 237.18 310.673 237.18ZM341.202 237C339.954 237 338.838 236.7 337.854 236.1C336.87 235.5 336.09 234.672 335.514 233.616C334.962 232.56 334.686 231.372 334.686 230.052V212.592C334.686 212.136 334.818 211.764 335.082 211.476C335.37 211.188 335.742 211.044 336.198 211.044C336.63 211.044 336.99 211.188 337.278 211.476C337.566 211.764 337.71 212.136 337.71 212.592V230.052C337.71 231.18 338.034 232.116 338.682 232.86C339.354 233.58 340.194 233.94 341.202 233.94H342.246C342.654 233.94 342.99 234.084 343.254 234.372C343.518 234.66 343.65 235.032 343.65 235.488C343.65 235.944 343.482 236.316 343.146 236.604C342.834 236.868 342.426 237 341.922 237H341.202ZM332.562 220.656C332.154 220.656 331.818 220.536 331.554 220.296C331.29 220.056 331.158 219.744 331.158 219.36C331.158 218.976 331.29 218.664 331.554 218.424C331.818 218.16 332.154 218.028 332.562 218.028H341.454C341.862 218.028 342.198 218.16 342.462 218.424C342.726 218.664 342.858 218.976 342.858 219.36C342.858 219.744 342.726 220.056 342.462 220.296C342.198 220.536 341.862 220.656 341.454 220.656H332.562ZM356.622 237.216C354.942 237.216 353.43 236.868 352.086 236.172C350.766 235.452 349.722 234.408 348.954 233.04C348.186 231.672 347.802 229.992 347.802 228V218.82C347.802 218.388 347.946 218.028 348.234 217.74C348.522 217.452 348.882 217.308 349.314 217.308C349.77 217.308 350.142 217.452 350.43 217.74C350.718 218.028 350.862 218.388 350.862 218.82V228C350.862 229.44 351.126 230.628 351.654 231.564C352.206 232.5 352.95 233.196 353.886 233.652C354.822 234.108 355.878 234.336 357.054 234.336C358.182 234.336 359.19 234.12 360.078 233.688C360.99 233.256 361.71 232.656 362.238 231.888C362.766 231.12 363.03 230.256 363.03 229.296H365.118C365.07 230.808 364.674 232.164 363.93 233.364C363.186 234.54 362.178 235.476 360.906 236.172C359.634 236.868 358.206 237.216 356.622 237.216ZM364.578 237C364.122 237 363.75 236.856 363.462 236.568C363.174 236.28 363.03 235.908 363.03 235.452V218.82C363.03 218.364 363.174 218.004 363.462 217.74C363.75 217.452 364.122 217.308 364.578 217.308C365.034 217.308 365.406 217.452 365.694 217.74C365.982 218.004 366.126 218.364 366.126 218.82V235.452C366.126 235.908 365.982 236.28 365.694 236.568C365.406 236.856 365.034 237 364.578 237ZM379.579 237.18C378.067 237.18 376.603 236.94 375.187 236.46C373.795 235.956 372.679 235.248 371.839 234.336C371.551 234.024 371.431 233.664 371.479 233.256C371.527 232.848 371.719 232.5 372.055 232.212C372.439 231.924 372.823 231.816 373.207 231.888C373.615 231.936 373.963 232.104 374.251 232.392C374.755 232.992 375.475 233.484 376.411 233.868C377.347 234.228 378.379 234.408 379.507 234.408C381.163 234.408 382.375 234.132 383.143 233.58C383.911 233.004 384.307 232.308 384.331 231.492C384.355 230.676 383.971 229.992 383.179 229.44C382.411 228.888 381.091 228.456 379.219 228.144C376.795 227.736 375.019 227.052 373.891 226.092C372.787 225.132 372.235 223.98 372.235 222.636C372.235 221.412 372.571 220.392 373.243 219.576C373.915 218.76 374.791 218.148 375.871 217.74C376.975 217.332 378.163 217.128 379.435 217.128C381.043 217.128 382.435 217.404 383.611 217.956C384.787 218.484 385.735 219.204 386.455 220.116C386.743 220.452 386.863 220.812 386.815 221.196C386.767 221.556 386.575 221.856 386.239 222.096C385.903 222.288 385.519 222.348 385.087 222.276C384.679 222.204 384.331 222.012 384.043 221.7C383.443 221.052 382.759 220.584 381.991 220.296C381.223 220.008 380.347 219.864 379.363 219.864C378.139 219.864 377.131 220.104 376.339 220.584C375.571 221.064 375.187 221.688 375.187 222.456C375.187 222.984 375.319 223.44 375.583 223.824C375.871 224.208 376.375 224.556 377.095 224.868C377.815 225.156 378.823 225.42 380.119 225.66C381.919 225.972 383.335 226.404 384.367 226.956C385.423 227.508 386.179 228.168 386.635 228.936C387.091 229.68 387.319 230.508 387.319 231.42C387.319 232.524 386.995 233.508 386.347 234.372C385.723 235.236 384.823 235.92 383.647 236.424C382.495 236.928 381.139 237.18 379.579 237.18ZM404.636 237C404.18 237 403.808 236.856 403.52 236.568C403.232 236.28 403.088 235.908 403.088 235.452V218.856C403.088 218.376 403.232 218.004 403.52 217.74C403.808 217.452 404.18 217.308 404.636 217.308C405.092 217.308 405.452 217.452 405.716 217.74C406.004 218.004 406.148 218.376 406.148 218.856V235.452C406.148 235.908 406.004 236.28 405.716 236.568C405.452 236.856 405.092 237 404.636 237ZM404.6 213.744C404.024 213.744 403.532 213.54 403.124 213.132C402.716 212.724 402.512 212.22 402.512 211.62C402.512 211.02 402.716 210.528 403.124 210.144C403.556 209.736 404.06 209.532 404.636 209.532C405.188 209.532 405.668 209.736 406.076 210.144C406.508 210.528 406.724 211.02 406.724 211.62C406.724 212.22 406.508 212.724 406.076 213.132C405.668 213.54 405.176 213.744 404.6 213.744ZM422.095 237.18C420.199 237.18 418.495 236.748 416.983 235.884C415.471 234.996 414.271 233.796 413.383 232.284C412.519 230.772 412.087 229.056 412.087 227.136C412.087 225.24 412.507 223.536 413.347 222.024C414.187 220.512 415.327 219.324 416.767 218.46C418.207 217.572 419.839 217.128 421.663 217.128C423.199 217.128 424.591 217.464 425.839 218.136C427.111 218.784 428.155 219.648 428.971 220.728V210.432C428.971 209.952 429.115 209.58 429.403 209.316C429.691 209.028 430.063 208.884 430.519 208.884C430.975 208.884 431.347 209.028 431.635 209.316C431.923 209.58 432.067 209.952 432.067 210.432V227.244C432.019 229.116 431.551 230.808 430.663 232.32C429.799 233.808 428.623 234.996 427.135 235.884C425.647 236.748 423.967 237.18 422.095 237.18ZM422.095 234.408C423.415 234.408 424.603 234.096 425.659 233.472C426.715 232.824 427.543 231.96 428.143 230.88C428.743 229.776 429.043 228.528 429.043 227.136C429.043 225.768 428.743 224.532 428.143 223.428C427.543 222.324 426.715 221.46 425.659 220.836C424.603 220.212 423.415 219.9 422.095 219.9C420.775 219.9 419.587 220.212 418.531 220.836C417.475 221.46 416.635 222.324 416.011 223.428C415.387 224.532 415.075 225.768 415.075 227.136C415.075 228.528 415.387 229.776 416.011 230.88C416.635 231.96 417.475 232.824 418.531 233.472C419.587 234.096 420.775 234.408 422.095 234.408ZM447.585 237.18C445.617 237.18 443.877 236.76 442.365 235.92C440.853 235.056 439.665 233.868 438.801 232.356C437.937 230.844 437.505 229.116 437.505 227.172C437.505 225.204 437.913 223.476 438.729 221.988C439.545 220.476 440.661 219.288 442.077 218.424C443.517 217.56 445.173 217.128 447.045 217.128C448.893 217.128 450.489 217.548 451.833 218.388C453.177 219.204 454.209 220.344 454.929 221.808C455.673 223.272 456.045 224.94 456.045 226.812C456.045 227.22 455.913 227.556 455.649 227.82C455.385 228.06 455.049 228.18 454.641 228.18H439.593V225.696H454.785L453.273 226.776C453.273 225.456 453.021 224.268 452.517 223.212C452.013 222.156 451.293 221.328 450.357 220.728C449.445 220.128 448.341 219.828 447.045 219.828C445.677 219.828 444.489 220.152 443.481 220.8C442.473 221.424 441.693 222.288 441.141 223.392C440.589 224.496 440.313 225.756 440.313 227.172C440.313 228.588 440.625 229.848 441.249 230.952C441.873 232.032 442.725 232.896 443.805 233.544C444.909 234.168 446.169 234.48 447.585 234.48C448.401 234.48 449.229 234.336 450.069 234.048C450.933 233.76 451.617 233.4 452.121 232.968C452.409 232.728 452.733 232.608 453.093 232.608C453.477 232.584 453.801 232.68 454.065 232.896C454.401 233.208 454.569 233.556 454.569 233.94C454.593 234.3 454.449 234.612 454.137 234.876C453.321 235.548 452.301 236.1 451.077 236.532C449.877 236.964 448.713 237.18 447.585 237.18ZM468.561 237.18C466.737 237.18 465.105 236.748 463.665 235.884C462.225 234.996 461.085 233.796 460.245 232.284C459.405 230.772 458.985 229.068 458.985 227.172C458.985 225.252 459.417 223.536 460.281 222.024C461.169 220.512 462.369 219.324 463.881 218.46C465.393 217.572 467.097 217.128 468.993 217.128C470.865 217.128 472.545 217.572 474.033 218.46C475.545 219.324 476.733 220.512 477.597 222.024C478.485 223.536 478.941 225.252 478.965 227.172L477.741 227.748C477.741 229.524 477.333 231.132 476.517 232.572C475.725 233.988 474.633 235.116 473.241 235.956C471.873 236.772 470.313 237.18 468.561 237.18ZM468.993 234.408C470.313 234.408 471.501 234.096 472.557 233.472C473.613 232.848 474.441 231.984 475.041 230.88C475.641 229.776 475.941 228.54 475.941 227.172C475.941 225.78 475.641 224.544 475.041 223.464C474.441 222.36 473.613 221.496 472.557 220.872C471.501 220.224 470.313 219.9 468.993 219.9C467.673 219.9 466.485 220.224 465.429 220.872C464.373 221.496 463.533 222.36 462.909 223.464C462.285 224.544 461.973 225.78 461.973 227.172C461.973 228.54 462.285 229.776 462.909 230.88C463.533 231.984 464.373 232.848 465.429 233.472C466.485 234.096 467.673 234.408 468.993 234.408ZM477.417 237C476.961 237 476.589 236.868 476.301 236.604C476.013 236.316 475.869 235.944 475.869 235.488V229.548L476.553 226.38L478.965 227.172V235.488C478.965 235.944 478.809 236.316 478.497 236.604C478.209 236.868 477.849 237 477.417 237ZM491.341 237.18C489.829 237.18 488.365 236.94 486.949 236.46C485.557 235.956 484.441 235.248 483.601 234.336C483.313 234.024 483.193 233.664 483.241 233.256C483.289 232.848 483.481 232.5 483.817 232.212C484.201 231.924 484.585 231.816 484.969 231.888C485.377 231.936 485.725 232.104 486.013 232.392C486.517 232.992 487.237 233.484 488.173 233.868C489.109 234.228 490.141 234.408 491.269 234.408C492.925 234.408 494.137 234.132 494.905 233.58C495.673 233.004 496.069 232.308 496.093 231.492C496.117 230.676 495.733 229.992 494.941 229.44C494.173 228.888 492.853 228.456 490.981 228.144C488.557 227.736 486.781 227.052 485.653 226.092C484.549 225.132 483.997 223.98 483.997 222.636C483.997 221.412 484.333 220.392 485.005 219.576C485.677 218.76 486.553 218.148 487.633 217.74C488.737 217.332 489.925 217.128 491.197 217.128C492.805 217.128 494.197 217.404 495.373 217.956C496.549 218.484 497.497 219.204 498.217 220.116C498.505 220.452 498.625 220.812 498.577 221.196C498.529 221.556 498.337 221.856 498.001 222.096C497.665 222.288 497.281 222.348 496.849 222.276C496.441 222.204 496.093 222.012 495.805 221.7C495.205 221.052 494.521 220.584 493.753 220.296C492.985 220.008 492.109 219.864 491.125 219.864C489.901 219.864 488.893 220.104 488.101 220.584C487.333 221.064 486.949 221.688 486.949 222.456C486.949 222.984 487.081 223.44 487.345 223.824C487.633 224.208 488.137 224.556 488.857 224.868C489.577 225.156 490.585 225.42 491.881 225.66C493.681 225.972 495.097 226.404 496.129 226.956C497.185 227.508 497.941 228.168 498.397 228.936C498.853 229.68 499.081 230.508 499.081 231.42C499.081 232.524 498.757 233.508 498.109 234.372C497.485 235.236 496.585 235.92 495.409 236.424C494.257 236.928 492.901 237.18 491.341 237.18Z" fill="#F2EEE3"/>
</svg>
