<svg width="auto" height="auto" viewBox="0 0 1280 520" fill="none" xmlns="http://www.w3.org/2000/svg">
<g clip-path="url(#clip0)">
<rect width="1280" height="520" fill="url(#paint0_linear)"/>
<path d="M445.464 414.98L445.46 414.979C285.302 377.07 137.007 399.809 -0.944336 461.322L-0.951172 461.325C-10.3591 465.436 -18.3853 473.696 -23.8809 483.062C-29.3815 492.436 -32.2633 502.774 -31.5444 510.943L-31.5435 510.953L-31.5427 510.964C-25.6427 598.944 45.1486 661.157 157.92 704.146L157.921 704.146C296.612 757.233 484.708 777.479 669.157 767.57C853.611 757.661 1034.27 717.603 1158.1 650.205L1158.11 650.202C1209.28 622.816 1250.35 592.108 1277.15 555.472C1303.72 519.137 1316.29 476.928 1310.69 426.219C1288.56 431.716 1267.57 436.807 1247.42 441.696C1203.1 452.449 1162.81 462.223 1123.21 473.182C959.646 521.328 797.565 517.946 635.508 468.96C621.74 464.863 607.975 460.685 594.182 456.499C545.453 441.708 496.364 426.808 445.464 414.98Z" fill="#F2EEE3" stroke="#F2EEE3" stroke-width="2"/>
<path d="M834.883 103.971L834.887 103.972C995.045 141.881 1143.34 119.142 1281.29 57.6286L1281.3 57.6256C1290.71 53.5145 1298.73 45.2546 1304.23 35.8888C1309.73 26.5145 1312.61 16.1762 1311.89 8.0079L1311.89 7.99752L1311.89 7.98715C1305.99 -79.9932 1235.2 -142.206 1122.43 -185.195L1122.43 -185.196C983.734 -238.282 795.638 -258.528 611.189 -248.619C426.735 -238.71 246.078 -198.653 122.244 -131.255L122.238 -131.251C71.0629 -103.866 29.9951 -73.157 3.20102 -36.5216C-23.3734 -0.1866 -35.9409 42.0223 -30.3428 92.7317C-8.20872 87.2347 12.7761 82.1436 32.9266 77.2548C77.2499 66.5016 117.536 56.7277 157.137 45.7683C320.701 -2.3774 482.781 1.00489 644.838 49.9904C658.607 54.0873 672.371 58.2652 686.164 62.4518C734.893 77.2422 783.982 92.1422 834.883 103.971Z" fill="#F2EEE3" stroke="#F2EEE3" stroke-width="2"/>
<path d="M195.197 239.814C198.506 239.814 201.105 240.638 202.996 242.285C204.901 243.918 205.854 246.16 205.854 249.01C205.854 252.261 204.815 254.811 202.738 256.658C200.676 258.506 197.826 259.43 194.188 259.43C190.65 259.43 187.95 258.864 186.088 257.732V254.295C187.09 254.939 188.337 255.448 189.826 255.82C191.316 256.178 192.784 256.357 194.23 256.357C196.751 256.357 198.706 255.763 200.096 254.574C201.499 253.385 202.201 251.667 202.201 249.418C202.201 245.035 199.516 242.844 194.145 242.844C192.784 242.844 190.965 243.051 188.688 243.467L186.84 242.285L188.021 227.59H203.641V230.877H191.072L190.277 240.309C191.924 239.979 193.564 239.814 195.197 239.814ZM231.377 243.252C231.377 248.68 230.518 252.734 228.799 255.412C227.094 258.09 224.48 259.43 220.957 259.43C217.577 259.43 215.006 258.062 213.244 255.326C211.482 252.576 210.602 248.551 210.602 243.252C210.602 237.781 211.454 233.72 213.158 231.07C214.863 228.421 217.462 227.096 220.957 227.096C224.366 227.096 226.951 228.478 228.713 231.242C230.489 234.007 231.377 238.01 231.377 243.252ZM214.211 243.252C214.211 247.821 214.748 251.151 215.822 253.242C216.896 255.319 218.608 256.357 220.957 256.357C223.335 256.357 225.053 255.305 226.113 253.199C227.188 251.079 227.725 247.764 227.725 243.252C227.725 238.74 227.188 235.439 226.113 233.348C225.053 231.242 223.335 230.189 220.957 230.189C218.608 230.189 216.896 231.228 215.822 233.305C214.748 235.367 214.211 238.683 214.211 243.252ZM247.619 242.006H256.471V244.971H247.619V254.123H244.633V244.971H235.824V242.006H244.633V232.811H247.619V242.006Z" fill="#F2EEE3"/>
<path d="M129.165 294C128.938 294 128.751 293.927 128.605 293.78C128.458 293.633 128.385 293.447 128.385 293.22V279.16C128.385 278.933 128.458 278.747 128.605 278.6C128.751 278.453 128.938 278.38 129.165 278.38H133.165C134.151 278.38 135.025 278.6 135.785 279.04C136.545 279.467 137.138 280.06 137.565 280.82C137.991 281.58 138.205 282.46 138.205 283.46C138.205 284.433 137.991 285.3 137.565 286.06C137.138 286.807 136.545 287.4 135.785 287.84C135.025 288.267 134.151 288.48 133.165 288.48H129.945V293.22C129.945 293.447 129.871 293.633 129.725 293.78C129.578 293.927 129.391 294 129.165 294ZM129.945 286.98H133.165C133.845 286.98 134.451 286.833 134.985 286.54C135.518 286.233 135.931 285.813 136.225 285.28C136.531 284.747 136.685 284.14 136.685 283.46C136.685 282.753 136.531 282.133 136.225 281.6C135.931 281.067 135.518 280.647 134.985 280.34C134.451 280.033 133.845 279.88 133.165 279.88H129.945V286.98ZM141.191 294C140.684 294 140.431 293.747 140.431 293.24V283.82C140.431 283.313 140.684 283.06 141.191 283.06C141.698 283.06 141.951 283.313 141.951 283.82V284.68C142.351 284.147 142.844 283.727 143.431 283.42C144.018 283.1 144.664 282.94 145.371 282.94C145.984 282.94 146.458 283.027 146.791 283.2C147.124 283.373 147.251 283.627 147.171 283.96C147.104 284.267 146.944 284.427 146.691 284.44C146.451 284.44 146.164 284.427 145.831 284.4C145.084 284.333 144.418 284.413 143.831 284.64C143.258 284.853 142.798 285.187 142.451 285.64C142.118 286.093 141.951 286.633 141.951 287.26V293.24C141.951 293.747 141.698 294 141.191 294ZM153.77 294.1C152.704 294.1 151.75 293.86 150.91 293.38C150.07 292.9 149.41 292.24 148.93 291.4C148.45 290.56 148.21 289.607 148.21 288.54C148.21 287.46 148.45 286.5 148.93 285.66C149.41 284.82 150.07 284.16 150.91 283.68C151.75 283.2 152.704 282.96 153.77 282.96C154.837 282.96 155.784 283.2 156.61 283.68C157.45 284.16 158.11 284.82 158.59 285.66C159.07 286.5 159.317 287.46 159.33 288.54C159.33 289.607 159.084 290.56 158.59 291.4C158.11 292.24 157.45 292.9 156.61 293.38C155.784 293.86 154.837 294.1 153.77 294.1ZM153.77 292.7C154.544 292.7 155.237 292.52 155.85 292.16C156.464 291.8 156.944 291.307 157.29 290.68C157.637 290.053 157.81 289.34 157.81 288.54C157.81 287.74 157.637 287.027 157.29 286.4C156.944 285.76 156.464 285.26 155.85 284.9C155.237 284.54 154.544 284.36 153.77 284.36C152.997 284.36 152.304 284.54 151.69 284.9C151.077 285.26 150.59 285.76 150.23 286.4C149.884 287.027 149.71 287.74 149.71 288.54C149.71 289.34 149.884 290.053 150.23 290.68C150.59 291.307 151.077 291.8 151.69 292.16C152.304 292.52 152.997 292.7 153.77 292.7ZM163.6 298.76C163.493 298.76 163.373 298.733 163.24 298.68C162.787 298.48 162.66 298.16 162.86 297.72L164.86 293.34L164.84 293.32L160.38 284.08C160.287 283.88 160.273 283.693 160.34 283.52C160.407 283.347 160.54 283.213 160.74 283.12C161.18 282.92 161.5 283.033 161.7 283.46L165.6 291.68L169.32 283.48C169.52 283.053 169.84 282.933 170.28 283.12C170.733 283.307 170.86 283.62 170.66 284.06L164.18 298.3C164.047 298.607 163.853 298.76 163.6 298.76ZM177.246 294.1C176.166 294.1 175.206 293.867 174.366 293.4C173.54 292.92 172.886 292.26 172.406 291.42C171.94 290.58 171.706 289.62 171.706 288.54C171.706 287.447 171.926 286.487 172.366 285.66C172.82 284.82 173.44 284.16 174.226 283.68C175.013 283.2 175.92 282.96 176.946 282.96C177.96 282.96 178.84 283.193 179.586 283.66C180.346 284.113 180.933 284.747 181.346 285.56C181.76 286.373 181.966 287.3 181.966 288.34C181.966 288.553 181.9 288.727 181.766 288.86C181.633 288.98 181.46 289.04 181.246 289.04H173.166C173.246 289.76 173.466 290.4 173.826 290.96C174.186 291.507 174.66 291.94 175.246 292.26C175.833 292.567 176.5 292.72 177.246 292.72C177.726 292.72 178.206 292.64 178.686 292.48C179.18 292.307 179.573 292.093 179.866 291.84C180.013 291.72 180.18 291.66 180.366 291.66C180.553 291.647 180.713 291.693 180.846 291.8C181.02 291.96 181.106 292.133 181.106 292.32C181.12 292.507 181.046 292.667 180.886 292.8C180.446 293.173 179.886 293.487 179.206 293.74C178.526 293.98 177.873 294.1 177.246 294.1ZM176.946 284.34C175.92 284.34 175.073 284.66 174.406 285.3C173.74 285.927 173.34 286.747 173.206 287.76H180.526C180.42 286.747 180.046 285.927 179.406 285.3C178.78 284.66 177.96 284.34 176.946 284.34ZM189.061 294.1C188.008 294.1 187.068 293.86 186.241 293.38C185.428 292.887 184.781 292.22 184.301 291.38C183.834 290.54 183.601 289.593 183.601 288.54C183.601 287.473 183.828 286.52 184.281 285.68C184.734 284.84 185.354 284.18 186.141 283.7C186.928 283.207 187.834 282.96 188.861 282.96C190.528 282.96 191.881 283.6 192.921 284.88C193.068 285.04 193.121 285.213 193.081 285.4C193.041 285.573 192.928 285.727 192.741 285.86C192.594 285.967 192.428 286.007 192.241 285.98C192.068 285.94 191.914 285.84 191.781 285.68C191.008 284.8 190.034 284.36 188.861 284.36C188.114 284.36 187.454 284.54 186.881 284.9C186.321 285.26 185.881 285.753 185.561 286.38C185.254 287.007 185.101 287.727 185.101 288.54C185.101 289.34 185.268 290.053 185.601 290.68C185.934 291.307 186.401 291.8 187.001 292.16C187.601 292.52 188.288 292.7 189.061 292.7C190.128 292.7 190.988 292.413 191.641 291.84C191.801 291.707 191.968 291.633 192.141 291.62C192.314 291.607 192.474 291.66 192.621 291.78C192.781 291.927 192.868 292.093 192.881 292.28C192.908 292.467 192.848 292.627 192.701 292.76C191.728 293.653 190.514 294.1 189.061 294.1ZM200.375 294C199.668 294 199.035 293.833 198.475 293.5C197.928 293.167 197.495 292.713 197.175 292.14C196.855 291.553 196.695 290.887 196.695 290.14V284.8H195.395C195.195 284.8 195.028 284.74 194.895 284.62C194.762 284.487 194.695 284.327 194.695 284.14C194.695 283.94 194.762 283.78 194.895 283.66C195.028 283.527 195.195 283.46 195.395 283.46H196.695V280.36C196.695 280.133 196.762 279.947 196.895 279.8C197.042 279.653 197.228 279.58 197.455 279.58C197.682 279.58 197.868 279.653 198.015 279.8C198.162 279.947 198.235 280.133 198.235 280.36V283.46H200.495C200.695 283.46 200.862 283.527 200.995 283.66C201.128 283.78 201.195 283.94 201.195 284.14C201.195 284.327 201.128 284.487 200.995 284.62C200.862 284.74 200.695 284.8 200.495 284.8H198.235V290.14C198.235 290.82 198.435 291.38 198.835 291.82C199.235 292.247 199.748 292.46 200.375 292.46H200.915C201.128 292.46 201.302 292.533 201.435 292.68C201.568 292.827 201.635 293.013 201.635 293.24C201.635 293.467 201.555 293.653 201.395 293.8C201.235 293.933 201.035 294 200.795 294H200.375ZM209.122 294.1C208.055 294.1 207.102 293.86 206.262 293.38C205.422 292.9 204.762 292.24 204.282 291.4C203.802 290.56 203.562 289.607 203.562 288.54C203.562 287.46 203.802 286.5 204.282 285.66C204.762 284.82 205.422 284.16 206.262 283.68C207.102 283.2 208.055 282.96 209.122 282.96C210.188 282.96 211.135 283.2 211.962 283.68C212.802 284.16 213.462 284.82 213.942 285.66C214.422 286.5 214.668 287.46 214.682 288.54C214.682 289.607 214.435 290.56 213.942 291.4C213.462 292.24 212.802 292.9 211.962 293.38C211.135 293.86 210.188 294.1 209.122 294.1ZM209.122 292.7C209.895 292.7 210.588 292.52 211.202 292.16C211.815 291.8 212.295 291.307 212.642 290.68C212.988 290.053 213.162 289.34 213.162 288.54C213.162 287.74 212.988 287.027 212.642 286.4C212.295 285.76 211.815 285.26 211.202 284.9C210.588 284.54 209.895 284.36 209.122 284.36C208.348 284.36 207.655 284.54 207.042 284.9C206.428 285.26 205.942 285.76 205.582 286.4C205.235 287.027 205.062 287.74 205.062 288.54C205.062 289.34 205.235 290.053 205.582 290.68C205.942 291.307 206.428 291.8 207.042 292.16C207.655 292.52 208.348 292.7 209.122 292.7ZM221.497 294.1C220.71 294.1 219.93 293.967 219.157 293.7C218.384 293.433 217.757 293.033 217.277 292.5C217.13 292.34 217.07 292.16 217.097 291.96C217.124 291.76 217.224 291.587 217.397 291.44C217.584 291.307 217.777 291.253 217.977 291.28C218.177 291.307 218.344 291.393 218.477 291.54C218.797 291.913 219.217 292.2 219.737 292.4C220.27 292.6 220.857 292.7 221.497 292.7C222.484 292.7 223.197 292.533 223.637 292.2C224.077 291.853 224.304 291.44 224.317 290.96C224.317 290.48 224.09 290.087 223.637 289.78C223.184 289.46 222.437 289.213 221.397 289.04C220.05 288.827 219.064 288.453 218.437 287.92C217.81 287.387 217.497 286.753 217.497 286.02C217.497 285.34 217.677 284.773 218.037 284.32C218.397 283.867 218.877 283.527 219.477 283.3C220.077 283.073 220.737 282.96 221.457 282.96C222.35 282.96 223.117 283.113 223.757 283.42C224.41 283.727 224.937 284.14 225.337 284.66C225.47 284.833 225.524 285.013 225.497 285.2C225.47 285.387 225.364 285.54 225.177 285.66C225.017 285.753 224.83 285.787 224.617 285.76C224.417 285.72 224.244 285.62 224.097 285.46C223.444 284.713 222.55 284.34 221.417 284.34C220.684 284.34 220.097 284.493 219.657 284.8C219.217 285.093 218.997 285.467 218.997 285.92C218.997 286.373 219.19 286.747 219.577 287.04C219.977 287.333 220.724 287.573 221.817 287.76C222.817 287.92 223.604 288.16 224.177 288.48C224.764 288.787 225.177 289.153 225.417 289.58C225.67 289.993 225.797 290.447 225.797 290.94C225.797 291.567 225.61 292.12 225.237 292.6C224.877 293.067 224.37 293.433 223.717 293.7C223.077 293.967 222.337 294.1 221.497 294.1ZM239.278 294.1C238.198 294.1 237.238 293.867 236.398 293.4C235.571 292.92 234.918 292.26 234.438 291.42C233.971 290.58 233.738 289.62 233.738 288.54C233.738 287.447 233.958 286.487 234.398 285.66C234.851 284.82 235.471 284.16 236.258 283.68C237.044 283.2 237.951 282.96 238.978 282.96C239.991 282.96 240.871 283.193 241.618 283.66C242.378 284.113 242.964 284.747 243.378 285.56C243.791 286.373 243.998 287.3 243.998 288.34C243.998 288.553 243.931 288.727 243.798 288.86C243.664 288.98 243.491 289.04 243.278 289.04H235.198C235.278 289.76 235.498 290.4 235.858 290.96C236.218 291.507 236.691 291.94 237.278 292.26C237.864 292.567 238.531 292.72 239.278 292.72C239.758 292.72 240.238 292.64 240.718 292.48C241.211 292.307 241.604 292.093 241.898 291.84C242.044 291.72 242.211 291.66 242.398 291.66C242.584 291.647 242.744 291.693 242.878 291.8C243.051 291.96 243.138 292.133 243.138 292.32C243.151 292.507 243.078 292.667 242.918 292.8C242.478 293.173 241.918 293.487 241.238 293.74C240.558 293.98 239.904 294.1 239.278 294.1ZM238.978 284.34C237.951 284.34 237.104 284.66 236.438 285.3C235.771 285.927 235.371 286.747 235.238 287.76H242.558C242.451 286.747 242.078 285.927 241.438 285.3C240.811 284.66 239.991 284.34 238.978 284.34ZM245.717 294C245.397 294 245.177 293.86 245.057 293.58C244.951 293.3 245.004 293.033 245.217 292.78L248.677 288.46L245.397 284.3C245.184 284.047 245.131 283.78 245.237 283.5C245.344 283.207 245.564 283.06 245.897 283.06C246.124 283.06 246.317 283.14 246.477 283.3L249.697 287.42L252.877 283.42C253.064 283.18 253.284 283.06 253.537 283.06C253.884 283.06 254.097 283.207 254.177 283.5C254.271 283.793 254.217 284.067 254.017 284.32L250.677 288.44L254.097 292.8C254.271 293.013 254.344 293.213 254.317 293.4C254.291 293.587 254.204 293.733 254.057 293.84C253.924 293.947 253.784 294 253.637 294C253.357 294 253.124 293.88 252.937 293.64L249.637 289.46L246.257 293.76C246.137 293.92 245.957 294 245.717 294ZM258.054 294C257.814 294 257.621 293.933 257.474 293.8C257.341 293.653 257.274 293.46 257.274 293.22V283.84C257.274 283.6 257.341 283.413 257.474 283.28C257.621 283.133 257.814 283.06 258.054 283.06C258.281 283.06 258.461 283.133 258.594 283.28C258.741 283.413 258.814 283.6 258.814 283.84V293.22C258.814 293.46 258.741 293.653 258.594 293.8C258.461 293.933 258.281 294 258.054 294ZM258.034 280.98C257.741 280.98 257.488 280.873 257.274 280.66C257.061 280.447 256.954 280.187 256.954 279.88C256.954 279.547 257.061 279.287 257.274 279.1C257.501 278.9 257.761 278.8 258.054 278.8C258.334 278.8 258.581 278.9 258.794 279.1C259.021 279.287 259.134 279.547 259.134 279.88C259.134 280.187 259.028 280.447 258.814 280.66C258.601 280.873 258.341 280.98 258.034 280.98ZM267.016 294C266.309 294 265.676 293.833 265.116 293.5C264.569 293.167 264.136 292.713 263.816 292.14C263.496 291.553 263.336 290.887 263.336 290.14V284.8H262.036C261.836 284.8 261.669 284.74 261.536 284.62C261.402 284.487 261.336 284.327 261.336 284.14C261.336 283.94 261.402 283.78 261.536 283.66C261.669 283.527 261.836 283.46 262.036 283.46H263.336V280.36C263.336 280.133 263.402 279.947 263.536 279.8C263.682 279.653 263.869 279.58 264.096 279.58C264.322 279.58 264.509 279.653 264.656 279.8C264.802 279.947 264.876 280.133 264.876 280.36V283.46H267.136C267.336 283.46 267.502 283.527 267.636 283.66C267.769 283.78 267.836 283.94 267.836 284.14C267.836 284.327 267.769 284.487 267.636 284.62C267.502 284.74 267.336 284.8 267.136 284.8H264.876V290.14C264.876 290.82 265.076 291.38 265.476 291.82C265.876 292.247 266.389 292.46 267.016 292.46H267.556C267.769 292.46 267.942 292.533 268.076 292.68C268.209 292.827 268.276 293.013 268.276 293.24C268.276 293.467 268.196 293.653 268.036 293.8C267.876 293.933 267.676 294 267.436 294H267.016ZM275.762 294.1C274.696 294.1 273.742 293.86 272.902 293.38C272.062 292.9 271.402 292.24 270.922 291.4C270.442 290.56 270.202 289.607 270.202 288.54C270.202 287.46 270.442 286.5 270.922 285.66C271.402 284.82 272.062 284.16 272.902 283.68C273.742 283.2 274.696 282.96 275.762 282.96C276.829 282.96 277.776 283.2 278.602 283.68C279.442 284.16 280.102 284.82 280.582 285.66C281.062 286.5 281.309 287.46 281.322 288.54C281.322 289.607 281.076 290.56 280.582 291.4C280.102 292.24 279.442 292.9 278.602 293.38C277.776 293.86 276.829 294.1 275.762 294.1ZM275.762 292.7C276.536 292.7 277.229 292.52 277.842 292.16C278.456 291.8 278.936 291.307 279.282 290.68C279.629 290.053 279.802 289.34 279.802 288.54C279.802 287.74 279.629 287.027 279.282 286.4C278.936 285.76 278.456 285.26 277.842 284.9C277.229 284.54 276.536 284.36 275.762 284.36C274.989 284.36 274.296 284.54 273.682 284.9C273.069 285.26 272.582 285.76 272.222 286.4C271.876 287.027 271.702 287.74 271.702 288.54C271.702 289.34 271.876 290.053 272.222 290.68C272.582 291.307 273.069 291.8 273.682 292.16C274.296 292.52 274.989 292.7 275.762 292.7ZM288.138 294.1C287.351 294.1 286.571 293.967 285.798 293.7C285.024 293.433 284.398 293.033 283.918 292.5C283.771 292.34 283.711 292.16 283.738 291.96C283.764 291.76 283.864 291.587 284.038 291.44C284.224 291.307 284.418 291.253 284.618 291.28C284.818 291.307 284.984 291.393 285.118 291.54C285.438 291.913 285.858 292.2 286.378 292.4C286.911 292.6 287.498 292.7 288.138 292.7C289.124 292.7 289.838 292.533 290.278 292.2C290.718 291.853 290.944 291.44 290.958 290.96C290.958 290.48 290.731 290.087 290.278 289.78C289.824 289.46 289.078 289.213 288.038 289.04C286.691 288.827 285.704 288.453 285.078 287.92C284.451 287.387 284.138 286.753 284.138 286.02C284.138 285.34 284.318 284.773 284.678 284.32C285.038 283.867 285.518 283.527 286.118 283.3C286.718 283.073 287.378 282.96 288.098 282.96C288.991 282.96 289.758 283.113 290.398 283.42C291.051 283.727 291.578 284.14 291.978 284.66C292.111 284.833 292.164 285.013 292.138 285.2C292.111 285.387 292.004 285.54 291.818 285.66C291.658 285.753 291.471 285.787 291.258 285.76C291.058 285.72 290.884 285.62 290.738 285.46C290.084 284.713 289.191 284.34 288.058 284.34C287.324 284.34 286.738 284.493 286.298 284.8C285.858 285.093 285.638 285.467 285.638 285.92C285.638 286.373 285.831 286.747 286.218 287.04C286.618 287.333 287.364 287.573 288.458 287.76C289.458 287.92 290.244 288.16 290.818 288.48C291.404 288.787 291.818 289.153 292.058 289.58C292.311 289.993 292.438 290.447 292.438 290.94C292.438 291.567 292.251 292.12 291.878 292.6C291.518 293.067 291.011 293.433 290.358 293.7C289.718 293.967 288.978 294.1 288.138 294.1ZM300.079 294.1C299.012 294.1 298.059 293.86 297.219 293.38C296.379 292.9 295.719 292.24 295.239 291.4C294.759 290.56 294.519 289.607 294.519 288.54C294.519 287.46 294.759 286.5 295.239 285.66C295.719 284.82 296.379 284.16 297.219 283.68C298.059 283.2 299.012 282.96 300.079 282.96C301.145 282.96 302.092 283.2 302.919 283.68C303.759 284.16 304.419 284.82 304.899 285.66C305.379 286.5 305.625 287.46 305.639 288.54C305.639 289.607 305.392 290.56 304.899 291.4C304.419 292.24 303.759 292.9 302.919 293.38C302.092 293.86 301.145 294.1 300.079 294.1ZM300.079 292.7C300.852 292.7 301.545 292.52 302.159 292.16C302.772 291.8 303.252 291.307 303.599 290.68C303.945 290.053 304.119 289.34 304.119 288.54C304.119 287.74 303.945 287.027 303.599 286.4C303.252 285.76 302.772 285.26 302.159 284.9C301.545 284.54 300.852 284.36 300.079 284.36C299.305 284.36 298.612 284.54 297.999 284.9C297.385 285.26 296.899 285.76 296.539 286.4C296.192 287.027 296.019 287.74 296.019 288.54C296.019 289.34 296.192 290.053 296.539 290.68C296.899 291.307 297.385 291.8 297.999 292.16C298.612 292.52 299.305 292.7 300.079 292.7ZM312.454 294.1C311.667 294.1 310.887 293.967 310.114 293.7C309.341 293.433 308.714 293.033 308.234 292.5C308.087 292.34 308.027 292.16 308.054 291.96C308.081 291.76 308.181 291.587 308.354 291.44C308.541 291.307 308.734 291.253 308.934 291.28C309.134 291.307 309.301 291.393 309.434 291.54C309.754 291.913 310.174 292.2 310.694 292.4C311.227 292.6 311.814 292.7 312.454 292.7C313.441 292.7 314.154 292.533 314.594 292.2C315.034 291.853 315.261 291.44 315.274 290.96C315.274 290.48 315.047 290.087 314.594 289.78C314.141 289.46 313.394 289.213 312.354 289.04C311.007 288.827 310.021 288.453 309.394 287.92C308.767 287.387 308.454 286.753 308.454 286.02C308.454 285.34 308.634 284.773 308.994 284.32C309.354 283.867 309.834 283.527 310.434 283.3C311.034 283.073 311.694 282.96 312.414 282.96C313.307 282.96 314.074 283.113 314.714 283.42C315.367 283.727 315.894 284.14 316.294 284.66C316.427 284.833 316.481 285.013 316.454 285.2C316.427 285.387 316.321 285.54 316.134 285.66C315.974 285.753 315.787 285.787 315.574 285.76C315.374 285.72 315.201 285.62 315.054 285.46C314.401 284.713 313.507 284.34 312.374 284.34C311.641 284.34 311.054 284.493 310.614 284.8C310.174 285.093 309.954 285.467 309.954 285.92C309.954 286.373 310.147 286.747 310.534 287.04C310.934 287.333 311.681 287.573 312.774 287.76C313.774 287.92 314.561 288.16 315.134 288.48C315.721 288.787 316.134 289.153 316.374 289.58C316.627 289.993 316.754 290.447 316.754 290.94C316.754 291.567 316.567 292.12 316.194 292.6C315.834 293.067 315.327 293.433 314.674 293.7C314.034 293.967 313.294 294.1 312.454 294.1Z" fill="#F2EEE3"/>
<path d="M613.936 259H593.289V255.928L601.561 247.613C604.081 245.064 605.743 243.245 606.545 242.156C607.347 241.068 607.949 240.008 608.35 238.977C608.751 237.945 608.951 236.835 608.951 235.646C608.951 233.971 608.443 232.646 607.426 231.672C606.409 230.684 604.998 230.189 603.193 230.189C601.89 230.189 600.651 230.404 599.477 230.834C598.316 231.264 597.02 232.044 595.588 233.176L593.697 230.748C596.59 228.342 599.742 227.139 603.15 227.139C606.101 227.139 608.414 227.898 610.09 229.416C611.766 230.92 612.604 232.947 612.604 235.496C612.604 237.487 612.045 239.456 610.928 241.404C609.811 243.352 607.719 245.816 604.654 248.795L597.779 255.52V255.691H613.936V259ZM640.598 251.781H635.936V259H632.52V251.781H617.244V248.666L632.154 227.418H635.936V248.537H640.598V251.781ZM632.52 248.537V238.096C632.52 236.048 632.591 233.734 632.734 231.156H632.562C631.875 232.531 631.23 233.67 630.629 234.572L620.811 248.537H632.52ZM654.047 227.139C656.911 227.139 659.182 227.805 660.857 229.137C662.533 230.469 663.371 232.309 663.371 234.658C663.371 236.205 662.891 237.616 661.932 238.891C660.972 240.165 659.439 241.326 657.334 242.371C659.883 243.589 661.695 244.87 662.77 246.217C663.844 247.549 664.381 249.096 664.381 250.857C664.381 253.464 663.471 255.548 661.652 257.109C659.833 258.656 657.341 259.43 654.176 259.43C650.824 259.43 648.246 258.699 646.441 257.238C644.637 255.763 643.734 253.679 643.734 250.986C643.734 247.391 645.926 244.591 650.309 242.586C648.332 241.469 646.914 240.266 646.055 238.977C645.195 237.673 644.766 236.219 644.766 234.615C644.766 232.338 645.604 230.526 647.279 229.18C648.969 227.819 651.225 227.139 654.047 227.139ZM647.258 251.072C647.258 252.791 647.852 254.13 649.041 255.09C650.244 256.049 651.927 256.529 654.09 256.529C656.224 256.529 657.885 256.028 659.074 255.025C660.263 254.023 660.857 252.648 660.857 250.9C660.857 249.511 660.299 248.279 659.182 247.205C658.064 246.117 656.117 245.064 653.338 244.047C651.204 244.964 649.657 245.98 648.697 247.098C647.738 248.201 647.258 249.525 647.258 251.072ZM654.004 230.039C652.214 230.039 650.81 230.469 649.793 231.328C648.776 232.188 648.268 233.333 648.268 234.766C648.268 236.083 648.69 237.215 649.535 238.16C650.38 239.105 651.941 240.051 654.219 240.996C656.267 240.137 657.714 239.213 658.559 238.225C659.418 237.236 659.848 236.083 659.848 234.766C659.848 233.319 659.325 232.173 658.279 231.328C657.248 230.469 655.823 230.039 654.004 230.039ZM680.709 242.006H689.561V244.971H680.709V254.123H677.723V244.971H668.914V242.006H677.723V232.811H680.709V242.006Z" fill="#F2EEE3"/>
<path d="M576.866 297C576.653 297 576.466 296.927 576.306 296.78C576.16 296.62 576.086 296.433 576.086 296.22V282.8H571.346C571.133 282.8 570.96 282.733 570.826 282.6C570.693 282.467 570.626 282.3 570.626 282.1C570.626 281.887 570.693 281.713 570.826 281.58C570.96 281.447 571.133 281.38 571.346 281.38H582.406C582.62 281.38 582.793 281.447 582.926 281.58C583.06 281.713 583.126 281.887 583.126 282.1C583.126 282.3 583.06 282.467 582.926 282.6C582.793 282.733 582.62 282.8 582.406 282.8H577.646V296.22C577.646 296.433 577.573 296.62 577.426 296.78C577.28 296.927 577.093 297 576.866 297ZM587.044 297.1C586.017 297.1 585.097 296.86 584.284 296.38C583.47 295.887 582.824 295.22 582.344 294.38C581.877 293.54 581.644 292.593 581.644 291.54C581.644 290.473 581.884 289.52 582.364 288.68C582.857 287.84 583.524 287.18 584.364 286.7C585.204 286.207 586.15 285.96 587.204 285.96C588.257 285.96 589.197 286.207 590.024 286.7C590.864 287.18 591.524 287.84 592.004 288.68C592.497 289.52 592.75 290.473 592.764 291.54V296.24C592.764 296.467 592.69 296.653 592.544 296.8C592.397 296.933 592.21 297 591.984 297C591.757 297 591.57 296.933 591.424 296.8C591.277 296.653 591.204 296.467 591.204 296.24V295.02C590.75 295.66 590.164 296.167 589.444 296.54C588.724 296.913 587.924 297.1 587.044 297.1ZM587.204 295.7C587.977 295.7 588.664 295.52 589.264 295.16C589.877 294.8 590.357 294.307 590.704 293.68C591.064 293.04 591.244 292.327 591.244 291.54C591.244 290.74 591.064 290.027 590.704 289.4C590.357 288.773 589.877 288.28 589.264 287.92C588.664 287.547 587.977 287.36 587.204 287.36C586.444 287.36 585.757 287.547 585.144 287.92C584.53 288.28 584.044 288.773 583.684 289.4C583.324 290.027 583.144 290.74 583.144 291.54C583.144 292.327 583.324 293.04 583.684 293.68C584.044 294.307 584.53 294.8 585.144 295.16C585.757 295.52 586.444 295.7 587.204 295.7ZM595.959 297C595.492 297 595.259 296.767 595.259 296.3C595.259 296.073 595.312 295.907 595.419 295.8L601.959 287.46H595.879C595.412 287.46 595.179 287.227 595.179 286.76C595.179 286.293 595.412 286.06 595.879 286.06H603.299C603.766 286.06 603.999 286.293 603.999 286.76C603.999 286.96 603.959 287.113 603.879 287.22L597.339 295.6H603.379C603.846 295.6 604.079 295.833 604.079 296.3C604.079 296.767 603.846 297 603.379 297H595.959ZM611.165 297.1C610.138 297.1 609.218 296.86 608.405 296.38C607.592 295.887 606.945 295.22 606.465 294.38C605.998 293.54 605.765 292.593 605.765 291.54C605.765 290.473 606.005 289.52 606.485 288.68C606.978 287.84 607.645 287.18 608.485 286.7C609.325 286.207 610.272 285.96 611.325 285.96C612.378 285.96 613.318 286.207 614.145 286.7C614.985 287.18 615.645 287.84 616.125 288.68C616.618 289.52 616.872 290.473 616.885 291.54V296.24C616.885 296.467 616.812 296.653 616.665 296.8C616.518 296.933 616.332 297 616.105 297C615.878 297 615.692 296.933 615.545 296.8C615.398 296.653 615.325 296.467 615.325 296.24V295.02C614.872 295.66 614.285 296.167 613.565 296.54C612.845 296.913 612.045 297.1 611.165 297.1ZM611.325 295.7C612.098 295.7 612.785 295.52 613.385 295.16C613.998 294.8 614.478 294.307 614.825 293.68C615.185 293.04 615.365 292.327 615.365 291.54C615.365 290.74 615.185 290.027 614.825 289.4C614.478 288.773 613.998 288.28 613.385 287.92C612.785 287.547 612.098 287.36 611.325 287.36C610.565 287.36 609.878 287.547 609.265 287.92C608.652 288.28 608.165 288.773 607.805 289.4C607.445 290.027 607.265 290.74 607.265 291.54C607.265 292.327 607.445 293.04 607.805 293.68C608.165 294.307 608.652 294.8 609.265 295.16C609.878 295.52 610.565 295.7 611.325 295.7ZM623.7 297.1C622.913 297.1 622.133 296.967 621.36 296.7C620.587 296.433 619.96 296.033 619.48 295.5C619.333 295.34 619.273 295.16 619.3 294.96C619.327 294.76 619.427 294.587 619.6 294.44C619.787 294.307 619.98 294.253 620.18 294.28C620.38 294.307 620.547 294.393 620.68 294.54C621 294.913 621.42 295.2 621.94 295.4C622.473 295.6 623.06 295.7 623.7 295.7C624.687 295.7 625.4 295.533 625.84 295.2C626.28 294.853 626.507 294.44 626.52 293.96C626.52 293.48 626.293 293.087 625.84 292.78C625.387 292.46 624.64 292.213 623.6 292.04C622.253 291.827 621.267 291.453 620.64 290.92C620.013 290.387 619.7 289.753 619.7 289.02C619.7 288.34 619.88 287.773 620.24 287.32C620.6 286.867 621.08 286.527 621.68 286.3C622.28 286.073 622.94 285.96 623.66 285.96C624.553 285.96 625.32 286.113 625.96 286.42C626.613 286.727 627.14 287.14 627.54 287.66C627.673 287.833 627.727 288.013 627.7 288.2C627.673 288.387 627.567 288.54 627.38 288.66C627.22 288.753 627.033 288.787 626.82 288.76C626.62 288.72 626.447 288.62 626.3 288.46C625.647 287.713 624.753 287.34 623.62 287.34C622.887 287.34 622.3 287.493 621.86 287.8C621.42 288.093 621.2 288.467 621.2 288.92C621.2 289.373 621.393 289.747 621.78 290.04C622.18 290.333 622.927 290.573 624.02 290.76C625.02 290.92 625.807 291.16 626.38 291.48C626.967 291.787 627.38 292.153 627.62 292.58C627.873 292.993 628 293.447 628 293.94C628 294.567 627.813 295.12 627.44 295.6C627.08 296.067 626.573 296.433 625.92 296.7C625.28 296.967 624.54 297.1 623.7 297.1ZM641.501 297.1C640.447 297.1 639.501 296.86 638.661 296.38C637.821 295.887 637.154 295.22 636.661 294.38C636.181 293.54 635.941 292.587 635.941 291.52C635.941 290.467 636.174 289.52 636.641 288.68C637.121 287.84 637.767 287.18 638.581 286.7C639.394 286.207 640.314 285.96 641.341 285.96C642.234 285.96 643.041 286.153 643.761 286.54C644.481 286.913 645.061 287.413 645.501 288.04V282.16C645.501 281.92 645.574 281.733 645.721 281.6C645.867 281.453 646.054 281.38 646.281 281.38C646.507 281.38 646.694 281.453 646.841 281.6C646.987 281.733 647.061 281.92 647.061 282.16V291.6C647.034 292.64 646.774 293.58 646.281 294.42C645.801 295.247 645.141 295.9 644.301 296.38C643.474 296.86 642.541 297.1 641.501 297.1ZM641.501 295.7C642.274 295.7 642.961 295.52 643.561 295.16C644.174 294.787 644.654 294.287 645.001 293.66C645.361 293.033 645.541 292.32 645.541 291.52C645.541 290.733 645.361 290.027 645.001 289.4C644.654 288.76 644.174 288.26 643.561 287.9C642.961 287.54 642.274 287.36 641.501 287.36C640.741 287.36 640.054 287.54 639.441 287.9C638.827 288.26 638.341 288.76 637.981 289.4C637.621 290.027 637.441 290.733 637.441 291.52C637.441 292.32 637.621 293.033 637.981 293.66C638.341 294.287 638.827 294.787 639.441 295.16C640.054 295.52 640.741 295.7 641.501 295.7ZM655.621 297.1C654.541 297.1 653.581 296.867 652.741 296.4C651.915 295.92 651.261 295.26 650.781 294.42C650.315 293.58 650.081 292.62 650.081 291.54C650.081 290.447 650.301 289.487 650.741 288.66C651.195 287.82 651.815 287.16 652.601 286.68C653.388 286.2 654.295 285.96 655.321 285.96C656.335 285.96 657.215 286.193 657.961 286.66C658.721 287.113 659.308 287.747 659.721 288.56C660.135 289.373 660.341 290.3 660.341 291.34C660.341 291.553 660.275 291.727 660.141 291.86C660.008 291.98 659.835 292.04 659.621 292.04H651.541C651.621 292.76 651.841 293.4 652.201 293.96C652.561 294.507 653.035 294.94 653.621 295.26C654.208 295.567 654.875 295.72 655.621 295.72C656.101 295.72 656.581 295.64 657.061 295.48C657.555 295.307 657.948 295.093 658.241 294.84C658.388 294.72 658.555 294.66 658.741 294.66C658.928 294.647 659.088 294.693 659.221 294.8C659.395 294.96 659.481 295.133 659.481 295.32C659.495 295.507 659.421 295.667 659.261 295.8C658.821 296.173 658.261 296.487 657.581 296.74C656.901 296.98 656.248 297.1 655.621 297.1ZM655.321 287.34C654.295 287.34 653.448 287.66 652.781 288.3C652.115 288.927 651.715 289.747 651.581 290.76H658.901C658.795 289.747 658.421 288.927 657.781 288.3C657.155 287.66 656.335 287.34 655.321 287.34ZM673.686 297.1C672.633 297.1 671.693 296.86 670.866 296.38C670.053 295.887 669.406 295.22 668.926 294.38C668.459 293.54 668.226 292.593 668.226 291.54C668.226 290.473 668.453 289.52 668.906 288.68C669.359 287.84 669.979 287.18 670.766 286.7C671.553 286.207 672.459 285.96 673.486 285.96C675.153 285.96 676.506 286.6 677.546 287.88C677.693 288.04 677.746 288.213 677.706 288.4C677.666 288.573 677.553 288.727 677.366 288.86C677.219 288.967 677.053 289.007 676.866 288.98C676.693 288.94 676.539 288.84 676.406 288.68C675.633 287.8 674.659 287.36 673.486 287.36C672.739 287.36 672.079 287.54 671.506 287.9C670.946 288.26 670.506 288.753 670.186 289.38C669.879 290.007 669.726 290.727 669.726 291.54C669.726 292.34 669.893 293.053 670.226 293.68C670.559 294.307 671.026 294.8 671.626 295.16C672.226 295.52 672.913 295.7 673.686 295.7C674.753 295.7 675.613 295.413 676.266 294.84C676.426 294.707 676.593 294.633 676.766 294.62C676.939 294.607 677.099 294.66 677.246 294.78C677.406 294.927 677.493 295.093 677.506 295.28C677.533 295.467 677.473 295.627 677.326 295.76C676.353 296.653 675.139 297.1 673.686 297.1ZM685.54 297.1C684.513 297.1 683.593 296.86 682.78 296.38C681.967 295.887 681.32 295.22 680.84 294.38C680.373 293.54 680.14 292.593 680.14 291.54C680.14 290.473 680.38 289.52 680.86 288.68C681.353 287.84 682.02 287.18 682.86 286.7C683.7 286.207 684.647 285.96 685.7 285.96C686.753 285.96 687.693 286.207 688.52 286.7C689.36 287.18 690.02 287.84 690.5 288.68C690.993 289.52 691.247 290.473 691.26 291.54V296.24C691.26 296.467 691.187 296.653 691.04 296.8C690.893 296.933 690.707 297 690.48 297C690.253 297 690.067 296.933 689.92 296.8C689.773 296.653 689.7 296.467 689.7 296.24V295.02C689.247 295.66 688.66 296.167 687.94 296.54C687.22 296.913 686.42 297.1 685.54 297.1ZM685.7 295.7C686.473 295.7 687.16 295.52 687.76 295.16C688.373 294.8 688.853 294.307 689.2 293.68C689.56 293.04 689.74 292.327 689.74 291.54C689.74 290.74 689.56 290.027 689.2 289.4C688.853 288.773 688.373 288.28 687.76 287.92C687.16 287.547 686.473 287.36 685.7 287.36C684.94 287.36 684.253 287.547 683.64 287.92C683.027 288.28 682.54 288.773 682.18 289.4C681.82 290.027 681.64 290.74 681.64 291.54C681.64 292.327 681.82 293.04 682.18 293.68C682.54 294.307 683.027 294.8 683.64 295.16C684.253 295.52 684.94 295.7 685.7 295.7ZM695.615 297C695.415 297 695.242 296.933 695.095 296.8C694.948 296.653 694.875 296.46 694.875 296.22V287.8H693.595C693.382 287.8 693.208 287.74 693.075 287.62C692.955 287.487 692.895 287.327 692.895 287.14C692.895 286.94 692.955 286.78 693.075 286.66C693.208 286.527 693.382 286.46 693.595 286.46H694.875V286.08C694.875 284.68 695.235 283.547 695.955 282.68C696.675 281.813 697.715 281.38 699.075 281.38C699.302 281.38 699.488 281.447 699.635 281.58C699.782 281.713 699.855 281.88 699.855 282.08C699.855 282.28 699.782 282.447 699.635 282.58C699.488 282.713 699.302 282.78 699.075 282.78C698.168 282.78 697.495 283.087 697.055 283.7C696.628 284.3 696.415 285.067 696.415 286V286.46H698.815C699.028 286.46 699.195 286.527 699.315 286.66C699.448 286.78 699.515 286.94 699.515 287.14C699.515 287.327 699.448 287.487 699.315 287.62C699.195 287.74 699.028 287.8 698.815 287.8H696.415V296.22C696.415 296.46 696.342 296.653 696.195 296.8C696.062 296.933 695.868 297 695.615 297ZM706.149 297.1C705.069 297.1 704.109 296.867 703.269 296.4C702.442 295.92 701.789 295.26 701.309 294.42C700.842 293.58 700.609 292.62 700.609 291.54C700.609 290.447 700.829 289.487 701.269 288.66C701.722 287.82 702.342 287.16 703.129 286.68C703.915 286.2 704.822 285.96 705.849 285.96C706.862 285.96 707.742 286.193 708.489 286.66C709.249 287.113 709.835 287.747 710.249 288.56C710.662 289.373 710.869 290.3 710.869 291.34C710.869 291.553 710.802 291.727 710.669 291.86C710.535 291.98 710.362 292.04 710.149 292.04H702.069C702.149 292.76 702.369 293.4 702.729 293.96C703.089 294.507 703.562 294.94 704.149 295.26C704.735 295.567 705.402 295.72 706.149 295.72C706.629 295.72 707.109 295.64 707.589 295.48C708.082 295.307 708.475 295.093 708.769 294.84C708.915 294.72 709.082 294.66 709.269 294.66C709.455 294.647 709.615 294.693 709.749 294.8C709.922 294.96 710.009 295.133 710.009 295.32C710.022 295.507 709.949 295.667 709.789 295.8C709.349 296.173 708.789 296.487 708.109 296.74C707.429 296.98 706.775 297.1 706.149 297.1ZM705.849 287.34C704.822 287.34 703.975 287.66 703.309 288.3C702.642 288.927 702.242 289.747 702.109 290.76H709.429C709.322 289.747 708.949 288.927 708.309 288.3C707.682 287.66 706.862 287.34 705.849 287.34ZM705.609 284.4C705.395 284.4 705.209 284.327 705.049 284.18C704.902 284.02 704.829 283.833 704.829 283.62C704.829 283.407 704.889 283.233 705.009 283.1L707.269 280.84C707.415 280.693 707.595 280.62 707.809 280.62C708.035 280.62 708.222 280.7 708.369 280.86C708.515 281.007 708.589 281.193 708.589 281.42C708.589 281.513 708.569 281.607 708.529 281.7C708.502 281.793 708.449 281.873 708.369 281.94L706.129 284.2C705.995 284.333 705.822 284.4 705.609 284.4Z" fill="#F2EEE3"/>
<path d="M1057.6 251.781H1052.94V259H1049.52V251.781H1034.24V248.666L1049.15 227.418H1052.94V248.537H1057.6V251.781ZM1049.52 248.537V238.096C1049.52 236.048 1049.59 233.734 1049.73 231.156H1049.56C1048.88 232.531 1048.23 233.67 1047.63 234.572L1037.81 248.537H1049.52ZM1072.53 242.006H1081.38V244.971H1072.53V254.123H1069.54V244.971H1060.73V242.006H1069.54V232.811H1072.53V242.006Z" fill="#F2EEE3"/>
<path d="M972.856 297C972.63 297 972.443 296.927 972.296 296.78C972.15 296.633 972.076 296.447 972.076 296.22V282.16C972.076 281.933 972.15 281.747 972.296 281.6C972.443 281.453 972.63 281.38 972.856 281.38H976.456C977.603 281.38 978.65 281.573 979.596 281.96C980.556 282.333 981.383 282.873 982.076 283.58C982.77 284.273 983.303 285.093 983.676 286.04C984.063 286.987 984.256 288.033 984.256 289.18C984.256 290.327 984.063 291.38 983.676 292.34C983.303 293.287 982.77 294.113 982.076 294.82C981.383 295.513 980.556 296.053 979.596 296.44C978.65 296.813 977.603 297 976.456 297H972.856ZM973.636 295.6H976.456C977.683 295.6 978.763 295.327 979.696 294.78C980.643 294.22 981.383 293.46 981.916 292.5C982.45 291.527 982.716 290.42 982.716 289.18C982.716 287.94 982.45 286.84 981.916 285.88C981.383 284.907 980.643 284.147 979.696 283.6C978.763 283.053 977.683 282.78 976.456 282.78H973.636V295.6ZM988.367 297C988.127 297 987.933 296.933 987.787 296.8C987.653 296.653 987.587 296.46 987.587 296.22V286.84C987.587 286.6 987.653 286.413 987.787 286.28C987.933 286.133 988.127 286.06 988.367 286.06C988.593 286.06 988.773 286.133 988.907 286.28C989.053 286.413 989.127 286.6 989.127 286.84V296.22C989.127 296.46 989.053 296.653 988.907 296.8C988.773 296.933 988.593 297 988.367 297ZM988.347 283.98C988.053 283.98 987.8 283.873 987.587 283.66C987.373 283.447 987.267 283.187 987.267 282.88C987.267 282.547 987.373 282.287 987.587 282.1C987.813 281.9 988.073 281.8 988.367 281.8C988.647 281.8 988.893 281.9 989.107 282.1C989.333 282.287 989.447 282.547 989.447 282.88C989.447 283.187 989.34 283.447 989.127 283.66C988.913 283.873 988.653 283.98 988.347 283.98ZM994.408 297C994.208 297 994.035 296.933 993.888 296.8C993.741 296.653 993.668 296.46 993.668 296.22V287.8H992.388C992.175 287.8 992.001 287.74 991.868 287.62C991.748 287.487 991.688 287.327 991.688 287.14C991.688 286.94 991.748 286.78 991.868 286.66C992.001 286.527 992.175 286.46 992.388 286.46H993.668V286.08C993.668 284.68 994.028 283.547 994.748 282.68C995.468 281.813 996.508 281.38 997.868 281.38C998.095 281.38 998.281 281.447 998.428 281.58C998.575 281.713 998.648 281.88 998.648 282.08C998.648 282.28 998.575 282.447 998.428 282.58C998.281 282.713 998.095 282.78 997.868 282.78C996.961 282.78 996.288 283.087 995.848 283.7C995.421 284.3 995.208 285.067 995.208 286V286.46H997.608C997.821 286.46 997.988 286.527 998.108 286.66C998.241 286.78 998.308 286.94 998.308 287.14C998.308 287.327 998.241 287.487 998.108 287.62C997.988 287.74 997.821 287.8 997.608 287.8H995.208V296.22C995.208 296.46 995.135 296.653 994.988 296.8C994.855 296.933 994.661 297 994.408 297ZM1004.94 297.1C1003.86 297.1 1002.9 296.867 1002.06 296.4C1001.23 295.92 1000.58 295.26 1000.1 294.42C999.635 293.58 999.402 292.62 999.402 291.54C999.402 290.447 999.622 289.487 1000.06 288.66C1000.51 287.82 1001.13 287.16 1001.92 286.68C1002.71 286.2 1003.61 285.96 1004.64 285.96C1005.65 285.96 1006.53 286.193 1007.28 286.66C1008.04 287.113 1008.63 287.747 1009.04 288.56C1009.45 289.373 1009.66 290.3 1009.66 291.34C1009.66 291.553 1009.59 291.727 1009.46 291.86C1009.33 291.98 1009.15 292.04 1008.94 292.04H1000.86C1000.94 292.76 1001.16 293.4 1001.52 293.96C1001.88 294.507 1002.35 294.94 1002.94 295.26C1003.53 295.567 1004.19 295.72 1004.94 295.72C1005.42 295.72 1005.9 295.64 1006.38 295.48C1006.87 295.307 1007.27 295.093 1007.56 294.84C1007.71 294.72 1007.87 294.66 1008.06 294.66C1008.25 294.647 1008.41 294.693 1008.54 294.8C1008.71 294.96 1008.8 295.133 1008.8 295.32C1008.81 295.507 1008.74 295.667 1008.58 295.8C1008.14 296.173 1007.58 296.487 1006.9 296.74C1006.22 296.98 1005.57 297.1 1004.94 297.1ZM1004.64 287.34C1003.61 287.34 1002.77 287.66 1002.1 288.3C1001.43 288.927 1001.03 289.747 1000.9 290.76H1008.22C1008.11 289.747 1007.74 288.927 1007.1 288.3C1006.47 287.66 1005.65 287.34 1004.64 287.34ZM1013.03 297C1012.52 297 1012.27 296.747 1012.27 296.24V286.82C1012.27 286.313 1012.52 286.06 1013.03 286.06C1013.53 286.06 1013.79 286.313 1013.79 286.82V287.68C1014.19 287.147 1014.68 286.727 1015.27 286.42C1015.85 286.1 1016.5 285.94 1017.21 285.94C1017.82 285.94 1018.29 286.027 1018.63 286.2C1018.96 286.373 1019.09 286.627 1019.01 286.96C1018.94 287.267 1018.78 287.427 1018.53 287.44C1018.29 287.44 1018 287.427 1017.67 287.4C1016.92 287.333 1016.25 287.413 1015.67 287.64C1015.09 287.853 1014.63 288.187 1014.29 288.64C1013.95 289.093 1013.79 289.633 1013.79 290.26V296.24C1013.79 296.747 1013.53 297 1013.03 297ZM1025.59 297.1C1024.51 297.1 1023.55 296.867 1022.71 296.4C1021.88 295.92 1021.23 295.26 1020.75 294.42C1020.28 293.58 1020.05 292.62 1020.05 291.54C1020.05 290.447 1020.27 289.487 1020.71 288.66C1021.16 287.82 1021.78 287.16 1022.57 286.68C1023.35 286.2 1024.26 285.96 1025.29 285.96C1026.3 285.96 1027.18 286.193 1027.93 286.66C1028.69 287.113 1029.27 287.747 1029.69 288.56C1030.1 289.373 1030.31 290.3 1030.31 291.34C1030.31 291.553 1030.24 291.727 1030.11 291.86C1029.97 291.98 1029.8 292.04 1029.59 292.04H1021.51C1021.59 292.76 1021.81 293.4 1022.17 293.96C1022.53 294.507 1023 294.94 1023.59 295.26C1024.17 295.567 1024.84 295.72 1025.59 295.72C1026.07 295.72 1026.55 295.64 1027.03 295.48C1027.52 295.307 1027.91 295.093 1028.21 294.84C1028.35 294.72 1028.52 294.66 1028.71 294.66C1028.89 294.647 1029.05 294.693 1029.19 294.8C1029.36 294.96 1029.45 295.133 1029.45 295.32C1029.46 295.507 1029.39 295.667 1029.23 295.8C1028.79 296.173 1028.23 296.487 1027.55 296.74C1026.87 296.98 1026.21 297.1 1025.59 297.1ZM1025.29 287.34C1024.26 287.34 1023.41 287.66 1022.75 288.3C1022.08 288.927 1021.68 289.747 1021.55 290.76H1028.87C1028.76 289.747 1028.39 288.927 1027.75 288.3C1027.12 287.66 1026.3 287.34 1025.29 287.34ZM1033.69 297C1033.45 297 1033.26 296.933 1033.11 296.8C1032.98 296.653 1032.91 296.467 1032.91 296.24V286.84C1032.91 286.6 1032.98 286.413 1033.11 286.28C1033.26 286.133 1033.45 286.06 1033.69 286.06C1033.92 286.06 1034.1 286.133 1034.23 286.28C1034.38 286.413 1034.45 286.6 1034.45 286.84V287.52C1034.88 287.027 1035.4 286.64 1036.03 286.36C1036.67 286.08 1037.36 285.94 1038.09 285.94C1039.04 285.94 1039.88 286.14 1040.63 286.54C1041.38 286.927 1041.96 287.5 1042.39 288.26C1042.83 289.02 1043.05 289.947 1043.05 291.04V296.24C1043.05 296.453 1042.98 296.633 1042.83 296.78C1042.68 296.927 1042.5 297 1042.29 297C1042.06 297 1041.88 296.927 1041.73 296.78C1041.58 296.633 1041.51 296.453 1041.51 296.24V291.04C1041.51 289.8 1041.16 288.887 1040.47 288.3C1039.79 287.7 1038.94 287.4 1037.93 287.4C1037.28 287.4 1036.68 287.527 1036.15 287.78C1035.63 288.033 1035.22 288.38 1034.91 288.82C1034.6 289.26 1034.45 289.76 1034.45 290.32V296.24C1034.45 296.467 1034.38 296.653 1034.23 296.8C1034.1 296.933 1033.92 297 1033.69 297ZM1050.73 297C1050.02 297 1049.39 296.833 1048.83 296.5C1048.28 296.167 1047.85 295.713 1047.53 295.14C1047.21 294.553 1047.05 293.887 1047.05 293.14V287.8H1045.75C1045.55 287.8 1045.38 287.74 1045.25 287.62C1045.11 287.487 1045.05 287.327 1045.05 287.14C1045.05 286.94 1045.11 286.78 1045.25 286.66C1045.38 286.527 1045.55 286.46 1045.75 286.46H1047.05V283.36C1047.05 283.133 1047.11 282.947 1047.25 282.8C1047.39 282.653 1047.58 282.58 1047.81 282.58C1048.03 282.58 1048.22 282.653 1048.37 282.8C1048.51 282.947 1048.59 283.133 1048.59 283.36V286.46H1050.85C1051.05 286.46 1051.21 286.527 1051.35 286.66C1051.48 286.78 1051.55 286.94 1051.55 287.14C1051.55 287.327 1051.48 287.487 1051.35 287.62C1051.21 287.74 1051.05 287.8 1050.85 287.8H1048.59V293.14C1048.59 293.82 1048.79 294.38 1049.19 294.82C1049.59 295.247 1050.1 295.46 1050.73 295.46H1051.27C1051.48 295.46 1051.65 295.533 1051.79 295.68C1051.92 295.827 1051.99 296.013 1051.99 296.24C1051.99 296.467 1051.91 296.653 1051.75 296.8C1051.59 296.933 1051.39 297 1051.15 297H1050.73ZM1059.45 297.1C1058.37 297.1 1057.41 296.867 1056.57 296.4C1055.75 295.92 1055.09 295.26 1054.61 294.42C1054.15 293.58 1053.91 292.62 1053.91 291.54C1053.91 290.447 1054.13 289.487 1054.57 288.66C1055.03 287.82 1055.65 287.16 1056.43 286.68C1057.22 286.2 1058.13 285.96 1059.15 285.96C1060.17 285.96 1061.05 286.193 1061.79 286.66C1062.55 287.113 1063.14 287.747 1063.55 288.56C1063.97 289.373 1064.17 290.3 1064.17 291.34C1064.17 291.553 1064.11 291.727 1063.97 291.86C1063.84 291.98 1063.67 292.04 1063.45 292.04H1055.37C1055.45 292.76 1055.67 293.4 1056.03 293.96C1056.39 294.507 1056.87 294.94 1057.45 295.26C1058.04 295.567 1058.71 295.72 1059.45 295.72C1059.93 295.72 1060.41 295.64 1060.89 295.48C1061.39 295.307 1061.78 295.093 1062.07 294.84C1062.22 294.72 1062.39 294.66 1062.57 294.66C1062.76 294.647 1062.92 294.693 1063.05 294.8C1063.23 294.96 1063.31 295.133 1063.31 295.32C1063.33 295.507 1063.25 295.667 1063.09 295.8C1062.65 296.173 1062.09 296.487 1061.41 296.74C1060.73 296.98 1060.08 297.1 1059.45 297.1ZM1059.15 287.34C1058.13 287.34 1057.28 287.66 1056.61 288.3C1055.95 288.927 1055.55 289.747 1055.41 290.76H1062.73C1062.63 289.747 1062.25 288.927 1061.61 288.3C1060.99 287.66 1060.17 287.34 1059.15 287.34ZM1070.6 297.1C1069.81 297.1 1069.03 296.967 1068.26 296.7C1067.49 296.433 1066.86 296.033 1066.38 295.5C1066.23 295.34 1066.17 295.16 1066.2 294.96C1066.23 294.76 1066.33 294.587 1066.5 294.44C1066.69 294.307 1066.88 294.253 1067.08 294.28C1067.28 294.307 1067.45 294.393 1067.58 294.54C1067.9 294.913 1068.32 295.2 1068.84 295.4C1069.37 295.6 1069.96 295.7 1070.6 295.7C1071.59 295.7 1072.3 295.533 1072.74 295.2C1073.18 294.853 1073.41 294.44 1073.42 293.96C1073.42 293.48 1073.19 293.087 1072.74 292.78C1072.29 292.46 1071.54 292.213 1070.5 292.04C1069.15 291.827 1068.17 291.453 1067.54 290.92C1066.91 290.387 1066.6 289.753 1066.6 289.02C1066.6 288.34 1066.78 287.773 1067.14 287.32C1067.5 286.867 1067.98 286.527 1068.58 286.3C1069.18 286.073 1069.84 285.96 1070.56 285.96C1071.45 285.96 1072.22 286.113 1072.86 286.42C1073.51 286.727 1074.04 287.14 1074.44 287.66C1074.57 287.833 1074.63 288.013 1074.6 288.2C1074.57 288.387 1074.47 288.54 1074.28 288.66C1074.12 288.753 1073.93 288.787 1073.72 288.76C1073.52 288.72 1073.35 288.62 1073.2 288.46C1072.55 287.713 1071.65 287.34 1070.52 287.34C1069.79 287.34 1069.2 287.493 1068.76 287.8C1068.32 288.093 1068.1 288.467 1068.1 288.92C1068.1 289.373 1068.29 289.747 1068.68 290.04C1069.08 290.333 1069.83 290.573 1070.92 290.76C1071.92 290.92 1072.71 291.16 1073.28 291.48C1073.87 291.787 1074.28 292.153 1074.52 292.58C1074.77 292.993 1074.9 293.447 1074.9 293.94C1074.9 294.567 1074.71 295.12 1074.34 295.6C1073.98 296.067 1073.47 296.433 1072.82 296.7C1072.18 296.967 1071.44 297.1 1070.6 297.1ZM1084.2 301.68C1083.96 301.68 1083.77 301.607 1083.62 301.46C1083.49 301.327 1083.42 301.14 1083.42 300.9V291.46C1083.43 290.42 1083.68 289.487 1084.16 288.66C1084.65 287.82 1085.31 287.16 1086.14 286.68C1086.98 286.2 1087.92 285.96 1088.96 285.96C1090.03 285.96 1090.98 286.207 1091.82 286.7C1092.66 287.18 1093.32 287.84 1093.8 288.68C1094.29 289.52 1094.54 290.473 1094.54 291.54C1094.54 292.593 1094.3 293.54 1093.82 294.38C1093.35 295.22 1092.71 295.887 1091.9 296.38C1091.09 296.86 1090.17 297.1 1089.14 297.1C1088.25 297.1 1087.43 296.913 1086.7 296.54C1085.98 296.153 1085.4 295.647 1084.96 295.02V300.9C1084.96 301.14 1084.89 301.327 1084.74 301.46C1084.61 301.607 1084.43 301.68 1084.2 301.68ZM1088.96 295.7C1089.73 295.7 1090.43 295.52 1091.04 295.16C1091.65 294.8 1092.13 294.307 1092.48 293.68C1092.84 293.04 1093.02 292.327 1093.02 291.54C1093.02 290.74 1092.84 290.027 1092.48 289.4C1092.13 288.773 1091.65 288.28 1091.04 287.92C1090.43 287.547 1089.73 287.36 1088.96 287.36C1088.2 287.36 1087.51 287.547 1086.9 287.92C1086.29 288.28 1085.81 288.773 1085.46 289.4C1085.11 290.027 1084.94 290.74 1084.94 291.54C1084.94 292.327 1085.11 293.04 1085.46 293.68C1085.81 294.307 1086.29 294.8 1086.9 295.16C1087.51 295.52 1088.2 295.7 1088.96 295.7ZM1102.38 297.1C1101.35 297.1 1100.43 296.86 1099.62 296.38C1098.81 295.887 1098.16 295.22 1097.68 294.38C1097.21 293.54 1096.98 292.593 1096.98 291.54C1096.98 290.473 1097.22 289.52 1097.7 288.68C1098.19 287.84 1098.86 287.18 1099.7 286.7C1100.54 286.207 1101.49 285.96 1102.54 285.96C1103.59 285.96 1104.53 286.207 1105.36 286.7C1106.2 287.18 1106.86 287.84 1107.34 288.68C1107.83 289.52 1108.09 290.473 1108.1 291.54V296.24C1108.1 296.467 1108.03 296.653 1107.88 296.8C1107.73 296.933 1107.55 297 1107.32 297C1107.09 297 1106.91 296.933 1106.76 296.8C1106.61 296.653 1106.54 296.467 1106.54 296.24V295.02C1106.09 295.66 1105.5 296.167 1104.78 296.54C1104.06 296.913 1103.26 297.1 1102.38 297.1ZM1102.54 295.7C1103.31 295.7 1104 295.52 1104.6 295.16C1105.21 294.8 1105.69 294.307 1106.04 293.68C1106.4 293.04 1106.58 292.327 1106.58 291.54C1106.58 290.74 1106.4 290.027 1106.04 289.4C1105.69 288.773 1105.21 288.28 1104.6 287.92C1104 287.547 1103.31 287.36 1102.54 287.36C1101.78 287.36 1101.09 287.547 1100.48 287.92C1099.87 288.28 1099.38 288.773 1099.02 289.4C1098.66 290.027 1098.48 290.74 1098.48 291.54C1098.48 292.327 1098.66 293.04 1099.02 293.68C1099.38 294.307 1099.87 294.8 1100.48 295.16C1101.09 295.52 1101.78 295.7 1102.54 295.7ZM1112.19 297C1111.95 297 1111.76 296.933 1111.61 296.8C1111.48 296.653 1111.41 296.46 1111.41 296.22V286.84C1111.41 286.6 1111.48 286.413 1111.61 286.28C1111.76 286.133 1111.95 286.06 1112.19 286.06C1112.42 286.06 1112.6 286.133 1112.73 286.28C1112.88 286.413 1112.95 286.6 1112.95 286.84V296.22C1112.95 296.46 1112.88 296.653 1112.73 296.8C1112.6 296.933 1112.42 297 1112.19 297ZM1112.03 284.4C1111.82 284.4 1111.63 284.327 1111.47 284.18C1111.33 284.02 1111.25 283.833 1111.25 283.62C1111.25 283.407 1111.31 283.233 1111.43 283.1L1113.69 280.84C1113.84 280.693 1114.02 280.62 1114.23 280.62C1114.46 280.62 1114.65 280.7 1114.79 280.86C1114.94 281.007 1115.01 281.193 1115.01 281.42C1115.01 281.513 1114.99 281.607 1114.95 281.7C1114.93 281.793 1114.87 281.873 1114.79 281.94L1112.55 284.2C1112.42 284.333 1112.25 284.4 1112.03 284.4ZM1120.7 297.1C1119.91 297.1 1119.13 296.967 1118.36 296.7C1117.58 296.433 1116.96 296.033 1116.48 295.5C1116.33 295.34 1116.27 295.16 1116.3 294.96C1116.32 294.76 1116.42 294.587 1116.6 294.44C1116.78 294.307 1116.98 294.253 1117.18 294.28C1117.38 294.307 1117.54 294.393 1117.68 294.54C1118 294.913 1118.42 295.2 1118.94 295.4C1119.47 295.6 1120.06 295.7 1120.7 295.7C1121.68 295.7 1122.4 295.533 1122.84 295.2C1123.28 294.853 1123.5 294.44 1123.52 293.96C1123.52 293.48 1123.29 293.087 1122.84 292.78C1122.38 292.46 1121.64 292.213 1120.6 292.04C1119.25 291.827 1118.26 291.453 1117.64 290.92C1117.01 290.387 1116.7 289.753 1116.7 289.02C1116.7 288.34 1116.88 287.773 1117.24 287.32C1117.6 286.867 1118.08 286.527 1118.68 286.3C1119.28 286.073 1119.94 285.96 1120.66 285.96C1121.55 285.96 1122.32 286.113 1122.96 286.42C1123.61 286.727 1124.14 287.14 1124.54 287.66C1124.67 287.833 1124.72 288.013 1124.7 288.2C1124.67 288.387 1124.56 288.54 1124.38 288.66C1124.22 288.753 1124.03 288.787 1123.82 288.76C1123.62 288.72 1123.44 288.62 1123.3 288.46C1122.64 287.713 1121.75 287.34 1120.62 287.34C1119.88 287.34 1119.3 287.493 1118.86 287.8C1118.42 288.093 1118.2 288.467 1118.2 288.92C1118.2 289.373 1118.39 289.747 1118.78 290.04C1119.18 290.333 1119.92 290.573 1121.02 290.76C1122.02 290.92 1122.8 291.16 1123.38 291.48C1123.96 291.787 1124.38 292.153 1124.62 292.58C1124.87 292.993 1125 293.447 1125 293.94C1125 294.567 1124.81 295.12 1124.44 295.6C1124.08 296.067 1123.57 296.433 1122.92 296.7C1122.28 296.967 1121.54 297.1 1120.7 297.1ZM1132.62 297.1C1131.54 297.1 1130.58 296.867 1129.74 296.4C1128.91 295.92 1128.26 295.26 1127.78 294.42C1127.31 293.58 1127.08 292.62 1127.08 291.54C1127.08 290.447 1127.3 289.487 1127.74 288.66C1128.19 287.82 1128.81 287.16 1129.6 286.68C1130.38 286.2 1131.29 285.96 1132.32 285.96C1133.33 285.96 1134.21 286.193 1134.96 286.66C1135.72 287.113 1136.3 287.747 1136.72 288.56C1137.13 289.373 1137.34 290.3 1137.34 291.34C1137.34 291.553 1137.27 291.727 1137.14 291.86C1137 291.98 1136.83 292.04 1136.62 292.04H1128.54C1128.62 292.76 1128.84 293.4 1129.2 293.96C1129.56 294.507 1130.03 294.94 1130.62 295.26C1131.2 295.567 1131.87 295.72 1132.62 295.72C1133.1 295.72 1133.58 295.64 1134.06 295.48C1134.55 295.307 1134.94 295.093 1135.24 294.84C1135.38 294.72 1135.55 294.66 1135.74 294.66C1135.92 294.647 1136.08 294.693 1136.22 294.8C1136.39 294.96 1136.48 295.133 1136.48 295.32C1136.49 295.507 1136.42 295.667 1136.26 295.8C1135.82 296.173 1135.26 296.487 1134.58 296.74C1133.9 296.98 1133.24 297.1 1132.62 297.1ZM1132.32 287.34C1131.29 287.34 1130.44 287.66 1129.78 288.3C1129.11 288.927 1128.71 289.747 1128.58 290.76H1135.9C1135.79 289.747 1135.42 288.927 1134.78 288.3C1134.15 287.66 1133.33 287.34 1132.32 287.34ZM1143.76 297.1C1142.98 297.1 1142.2 296.967 1141.42 296.7C1140.65 296.433 1140.02 296.033 1139.54 295.5C1139.4 295.34 1139.34 295.16 1139.36 294.96C1139.39 294.76 1139.49 294.587 1139.66 294.44C1139.85 294.307 1140.04 294.253 1140.24 294.28C1140.44 294.307 1140.61 294.393 1140.74 294.54C1141.06 294.913 1141.48 295.2 1142 295.4C1142.54 295.6 1143.12 295.7 1143.76 295.7C1144.75 295.7 1145.46 295.533 1145.9 295.2C1146.34 294.853 1146.57 294.44 1146.58 293.96C1146.58 293.48 1146.36 293.087 1145.9 292.78C1145.45 292.46 1144.7 292.213 1143.66 292.04C1142.32 291.827 1141.33 291.453 1140.7 290.92C1140.08 290.387 1139.76 289.753 1139.76 289.02C1139.76 288.34 1139.94 287.773 1140.3 287.32C1140.66 286.867 1141.14 286.527 1141.74 286.3C1142.34 286.073 1143 285.96 1143.72 285.96C1144.62 285.96 1145.38 286.113 1146.02 286.42C1146.68 286.727 1147.2 287.14 1147.6 287.66C1147.74 287.833 1147.79 288.013 1147.76 288.2C1147.74 288.387 1147.63 288.54 1147.44 288.66C1147.28 288.753 1147.1 288.787 1146.88 288.76C1146.68 288.72 1146.51 288.62 1146.36 288.46C1145.71 287.713 1144.82 287.34 1143.68 287.34C1142.95 287.34 1142.36 287.493 1141.92 287.8C1141.48 288.093 1141.26 288.467 1141.26 288.92C1141.26 289.373 1141.46 289.747 1141.84 290.04C1142.24 290.333 1142.99 290.573 1144.08 290.76C1145.08 290.92 1145.87 291.16 1146.44 291.48C1147.03 291.787 1147.44 292.153 1147.68 292.58C1147.94 292.993 1148.06 293.447 1148.06 293.94C1148.06 294.567 1147.88 295.12 1147.5 295.6C1147.14 296.067 1146.64 296.433 1145.98 296.7C1145.34 296.967 1144.6 297.1 1143.76 297.1Z" fill="#F2EEE3"/>
</g>
<defs>
<linearGradient id="paint0_linear" x1="640" y1="0" x2="640" y2="520" gradientUnits="userSpaceOnUse">
<stop stop-color="#E3632D"/>
<stop offset="1" stop-color="#F94E3F"/>
</linearGradient>
<clipPath id="clip0">
<rect width="1280" height="520" fill="white"/>
</clipPath>
</defs>
</svg>
