<svg width="auto" height="auto" viewBox="0 0 360 520" fill="none" xmlns="http://www.w3.org/2000/svg">
<g clip-path="url(#clip0)">
<rect width="360" height="520" fill="url(#paint0_linear)"/>
<path d="M-201.588 511.03C-202.431 494.157 -194.845 468.846 -183.888 460.409L-201.588 511.03ZM-201.588 511.03C-198.216 599.618 -157.76 662.052 -93.7047 705.08L-201.588 511.03ZM69.4267 414.931L69.4207 414.928C-21.1819 377.139 -105.086 399.762 -183.27 461.195L-183.278 461.201C-188.516 465.234 -193.072 473.436 -196.214 482.872C-199.344 492.272 -201.003 502.693 -200.589 510.981L-200.589 510.992C-197.23 599.238 -156.957 661.387 -93.1471 704.25L-93.1455 704.251C-14.5783 757.243 92.0042 777.47 196.558 767.573C301.111 757.675 403.497 717.668 473.675 650.362L473.682 650.356C531.372 595.954 566.576 528.275 560.273 426.462C547.949 431.851 536.257 436.849 525.026 441.651C499.884 452.399 477.046 462.163 454.59 473.114C361.571 521.36 269.358 517.961 177.224 468.887C169.4 464.785 161.583 460.604 153.751 456.415C126.102 441.627 98.2805 426.747 69.4267 414.931Z" fill="#F2EEE3" stroke="#F2EEE3" stroke-width="2"/>
<path d="M561.936 7.92022C562.779 24.7941 555.193 50.105 544.237 58.5419L561.936 7.92022ZM561.936 7.92022C558.565 -80.6677 518.109 -143.101 454.053 -186.13L561.936 7.92022ZM290.922 104.02L290.927 104.022C381.53 141.812 465.434 119.189 543.619 57.7556L543.626 57.7496C548.864 53.7168 553.42 45.515 556.562 36.079C559.693 26.6787 561.351 16.2579 560.937 7.97012L560.937 7.95825C557.578 -80.2872 517.305 -142.436 453.495 -185.3L453.494 -185.301C374.927 -238.293 268.344 -258.52 163.79 -248.622C59.2374 -238.725 -43.1484 -198.717 -113.327 -131.411L-113.333 -131.406C-171.024 -77.0038 -206.228 -9.32442 -199.924 92.4886C-187.601 87.0999 -175.909 82.1015 -164.677 77.2997C-139.535 66.5513 -116.698 56.7881 -94.2413 45.8371C-1.22241 -2.40888 90.9902 0.989598 183.124 50.0632C190.948 54.1654 198.765 58.3467 206.597 62.5354C234.246 77.3234 262.068 92.2039 290.922 104.02Z" fill="#F2EEE3" stroke="#F2EEE3" stroke-width="2"/>
<path d="M173.523 129.418C175.328 129.418 176.954 129.84 178.4 130.686C179.861 131.516 180.993 132.698 181.795 134.23C182.611 135.763 183.02 137.532 183.02 139.537C183.02 143.046 181.96 145.739 179.84 147.615C177.734 149.492 174.54 150.43 170.258 150.43C166.591 150.43 163.598 149.864 161.277 148.732V141.771C162.523 142.344 163.927 142.817 165.488 143.189C167.064 143.562 168.417 143.748 169.549 143.748C171.124 143.748 172.335 143.419 173.18 142.76C174.025 142.087 174.447 141.098 174.447 139.795C174.447 138.592 174.018 137.654 173.158 136.98C172.299 136.307 170.995 135.971 169.248 135.971C167.916 135.971 166.477 136.221 164.93 136.723L161.814 135.176L162.996 118.59H180.914V125.658H170.215L169.828 129.805C170.945 129.59 171.74 129.475 172.213 129.461C172.686 129.432 173.122 129.418 173.523 129.418ZM209.273 134.338C209.273 139.895 208.342 143.97 206.48 146.562C204.618 149.141 201.768 150.43 197.93 150.43C194.177 150.43 191.348 149.083 189.443 146.391C187.538 143.684 186.586 139.666 186.586 134.338C186.586 128.752 187.517 124.656 189.379 122.049C191.241 119.442 194.091 118.139 197.93 118.139C201.668 118.139 204.49 119.499 206.395 122.221C208.314 124.928 209.273 128.967 209.273 134.338ZM195.029 134.338C195.029 137.89 195.251 140.332 195.695 141.664C196.139 142.996 196.884 143.662 197.93 143.662C198.99 143.662 199.734 142.975 200.164 141.6C200.608 140.225 200.83 137.804 200.83 134.338C200.83 130.857 200.608 128.423 200.164 127.033C199.72 125.63 198.975 124.928 197.93 124.928C196.884 124.928 196.139 125.601 195.695 126.947C195.251 128.294 195.029 130.757 195.029 134.338ZM220.359 137.367H212.367V131.609H220.359V123.725H226.139V131.609H234.131V137.367H226.139V145.123H220.359V137.367Z" fill="#F2EEE3"/>
<path d="M105.03 185C104.79 185 104.583 184.92 104.41 184.76C104.25 184.587 104.17 184.38 104.17 184.14V170.24C104.17 169.987 104.25 169.78 104.41 169.62C104.583 169.46 104.79 169.38 105.03 169.38H109.03C110.03 169.38 110.91 169.6 111.67 170.04C112.43 170.467 113.023 171.067 113.45 171.84C113.89 172.6 114.11 173.487 114.11 174.5C114.11 175.473 113.89 176.34 113.45 177.1C113.023 177.847 112.43 178.44 111.67 178.88C110.91 179.307 110.03 179.52 109.03 179.52H105.91V184.14C105.91 184.38 105.823 184.587 105.65 184.76C105.49 184.92 105.283 185 105.03 185ZM105.91 177.88H109.03C109.697 177.88 110.283 177.733 110.79 177.44C111.297 177.147 111.697 176.747 111.99 176.24C112.283 175.733 112.43 175.153 112.43 174.5C112.43 173.807 112.283 173.207 111.99 172.7C111.697 172.18 111.297 171.773 110.79 171.48C110.283 171.173 109.697 171.02 109.03 171.02H105.91V177.88ZM117.054 178.22C117.081 177.407 117.287 176.68 117.674 176.04C118.074 175.387 118.594 174.873 119.234 174.5C119.874 174.127 120.587 173.94 121.374 173.94C122.054 173.94 122.567 174.04 122.914 174.24C123.274 174.44 123.407 174.713 123.314 175.06C123.274 175.26 123.187 175.4 123.054 175.48C122.934 175.547 122.787 175.58 122.614 175.58C122.454 175.58 122.267 175.573 122.054 175.56C121.281 175.453 120.587 175.5 119.974 175.7C119.361 175.887 118.874 176.2 118.514 176.64C118.154 177.08 117.974 177.607 117.974 178.22H117.054ZM117.134 185C116.867 185 116.661 184.927 116.514 184.78C116.367 184.633 116.294 184.427 116.294 184.16V174.9C116.294 174.633 116.367 174.427 116.514 174.28C116.661 174.133 116.867 174.06 117.134 174.06C117.401 174.06 117.607 174.133 117.754 174.28C117.901 174.427 117.974 174.633 117.974 174.9V184.16C117.974 184.427 117.901 184.633 117.754 184.78C117.607 184.927 117.401 185 117.134 185ZM129.809 185.1C128.729 185.1 127.769 184.86 126.929 184.38C126.103 183.9 125.449 183.24 124.969 182.4C124.489 181.56 124.249 180.607 124.249 179.54C124.249 178.46 124.489 177.5 124.969 176.66C125.449 175.82 126.103 175.16 126.929 174.68C127.769 174.2 128.729 173.96 129.809 173.96C130.876 173.96 131.823 174.2 132.649 174.68C133.476 175.16 134.129 175.82 134.609 176.66C135.089 177.5 135.336 178.46 135.349 179.54C135.349 180.607 135.109 181.56 134.629 182.4C134.149 183.24 133.489 183.9 132.649 184.38C131.823 184.86 130.876 185.1 129.809 185.1ZM129.809 183.56C130.556 183.56 131.223 183.387 131.809 183.04C132.396 182.693 132.849 182.22 133.169 181.62C133.503 181.007 133.669 180.313 133.669 179.54C133.669 178.767 133.503 178.073 133.169 177.46C132.849 176.847 132.396 176.367 131.809 176.02C131.223 175.673 130.556 175.5 129.809 175.5C129.063 175.5 128.396 175.673 127.809 176.02C127.223 176.367 126.756 176.847 126.409 177.46C126.076 178.073 125.909 178.767 125.909 179.54C125.909 180.313 126.076 181.007 126.409 181.62C126.756 182.22 127.223 182.693 127.809 183.04C128.396 183.387 129.063 183.56 129.809 183.56ZM139.639 189.78C139.533 189.78 139.399 189.747 139.239 189.68C138.746 189.453 138.613 189.1 138.839 188.62L145.179 174.54C145.393 174.06 145.746 173.927 146.239 174.14C146.733 174.34 146.873 174.687 146.659 175.18L140.299 189.26C140.153 189.607 139.933 189.78 139.639 189.78ZM141.919 184.62C141.693 184.727 141.486 184.747 141.299 184.68C141.113 184.6 140.959 184.453 140.839 184.24L136.339 175.18C136.233 174.967 136.219 174.767 136.299 174.58C136.379 174.38 136.526 174.227 136.739 174.12C136.966 174.027 137.173 174.013 137.359 174.08C137.546 174.147 137.693 174.293 137.799 174.52L142.179 183.58C142.299 183.793 142.339 184 142.299 184.2C142.259 184.387 142.133 184.527 141.919 184.62ZM153.267 185.1C152.174 185.1 151.207 184.867 150.367 184.4C149.527 183.92 148.867 183.26 148.387 182.42C147.907 181.58 147.667 180.62 147.667 179.54C147.667 178.447 147.894 177.487 148.347 176.66C148.801 175.82 149.421 175.16 150.207 174.68C151.007 174.2 151.927 173.96 152.967 173.96C153.994 173.96 154.881 174.193 155.627 174.66C156.374 175.113 156.947 175.747 157.347 176.56C157.761 177.373 157.967 178.3 157.967 179.34C157.967 179.567 157.894 179.753 157.747 179.9C157.601 180.033 157.414 180.1 157.187 180.1H148.827V178.72H157.267L156.427 179.32C156.427 178.587 156.287 177.927 156.007 177.34C155.727 176.753 155.327 176.293 154.807 175.96C154.301 175.627 153.687 175.46 152.967 175.46C152.207 175.46 151.547 175.64 150.987 176C150.427 176.347 149.994 176.827 149.687 177.44C149.381 178.053 149.227 178.753 149.227 179.54C149.227 180.327 149.401 181.027 149.747 181.64C150.094 182.24 150.567 182.72 151.167 183.08C151.781 183.427 152.481 183.6 153.267 183.6C153.721 183.6 154.181 183.52 154.647 183.36C155.127 183.2 155.507 183 155.787 182.76C155.947 182.627 156.127 182.56 156.327 182.56C156.541 182.547 156.721 182.6 156.867 182.72C157.054 182.893 157.147 183.087 157.147 183.3C157.161 183.5 157.081 183.673 156.907 183.82C156.454 184.193 155.887 184.5 155.207 184.74C154.541 184.98 153.894 185.1 153.267 185.1ZM165.081 185.1C164.028 185.1 163.088 184.86 162.261 184.38C161.434 183.887 160.781 183.22 160.301 182.38C159.834 181.54 159.601 180.593 159.601 179.54C159.601 178.473 159.828 177.52 160.281 176.68C160.748 175.84 161.374 175.18 162.161 174.7C162.961 174.207 163.881 173.96 164.921 173.96C165.721 173.96 166.461 174.12 167.141 174.44C167.821 174.747 168.421 175.213 168.941 175.84C169.101 176.027 169.154 176.22 169.101 176.42C169.061 176.607 168.941 176.773 168.741 176.92C168.581 177.04 168.401 177.08 168.201 177.04C168.001 177 167.828 176.893 167.681 176.72C166.948 175.907 166.028 175.5 164.921 175.5C164.201 175.5 163.561 175.673 163.001 176.02C162.454 176.367 162.028 176.84 161.721 177.44C161.414 178.04 161.261 178.74 161.261 179.54C161.261 180.313 161.421 181.007 161.741 181.62C162.061 182.22 162.508 182.693 163.081 183.04C163.668 183.387 164.334 183.56 165.081 183.56C165.588 183.56 166.041 183.493 166.441 183.36C166.854 183.227 167.221 183.027 167.541 182.76C167.714 182.613 167.894 182.533 168.081 182.52C168.281 182.493 168.461 182.547 168.621 182.68C168.794 182.84 168.894 183.02 168.921 183.22C168.948 183.42 168.881 183.6 168.721 183.76C167.748 184.653 166.534 185.1 165.081 185.1ZM176.314 185C175.621 185 175.001 184.833 174.454 184.5C173.907 184.167 173.474 183.707 173.154 183.12C172.847 182.533 172.694 181.873 172.694 181.14V171.44C172.694 171.187 172.767 170.98 172.914 170.82C173.074 170.66 173.281 170.58 173.534 170.58C173.774 170.58 173.974 170.66 174.134 170.82C174.294 170.98 174.374 171.187 174.374 171.44V181.14C174.374 181.767 174.554 182.287 174.914 182.7C175.287 183.1 175.754 183.3 176.314 183.3H176.894C177.121 183.3 177.307 183.38 177.454 183.54C177.601 183.7 177.674 183.907 177.674 184.16C177.674 184.413 177.581 184.62 177.394 184.78C177.221 184.927 176.994 185 176.714 185H176.314ZM171.514 175.92C171.287 175.92 171.101 175.853 170.954 175.72C170.807 175.587 170.734 175.413 170.734 175.2C170.734 174.987 170.807 174.813 170.954 174.68C171.101 174.533 171.287 174.46 171.514 174.46H176.454C176.681 174.46 176.867 174.533 177.014 174.68C177.161 174.813 177.234 174.987 177.234 175.2C177.234 175.413 177.161 175.587 177.014 175.72C176.867 175.853 176.681 175.92 176.454 175.92H171.514ZM185.161 185.1C184.081 185.1 183.121 184.86 182.281 184.38C181.454 183.9 180.801 183.24 180.321 182.4C179.841 181.56 179.601 180.607 179.601 179.54C179.601 178.46 179.841 177.5 180.321 176.66C180.801 175.82 181.454 175.16 182.281 174.68C183.121 174.2 184.081 173.96 185.161 173.96C186.228 173.96 187.174 174.2 188.001 174.68C188.828 175.16 189.481 175.82 189.961 176.66C190.441 177.5 190.688 178.46 190.701 179.54C190.701 180.607 190.461 181.56 189.981 182.4C189.501 183.24 188.841 183.9 188.001 184.38C187.174 184.86 186.228 185.1 185.161 185.1ZM185.161 183.56C185.908 183.56 186.574 183.387 187.161 183.04C187.748 182.693 188.201 182.22 188.521 181.62C188.854 181.007 189.021 180.313 189.021 179.54C189.021 178.767 188.854 178.073 188.521 177.46C188.201 176.847 187.748 176.367 187.161 176.02C186.574 175.673 185.908 175.5 185.161 175.5C184.414 175.5 183.748 175.673 183.161 176.02C182.574 176.367 182.108 176.847 181.761 177.46C181.428 178.073 181.261 178.767 181.261 179.54C181.261 180.313 181.428 181.007 181.761 181.62C182.108 182.22 182.574 182.693 183.161 183.04C183.748 183.387 184.414 183.56 185.161 183.56ZM197.576 185.1C196.736 185.1 195.923 184.967 195.136 184.7C194.363 184.42 193.743 184.027 193.276 183.52C193.116 183.347 193.05 183.147 193.076 182.92C193.103 182.693 193.21 182.5 193.396 182.34C193.61 182.18 193.823 182.12 194.036 182.16C194.263 182.187 194.456 182.28 194.616 182.44C194.896 182.773 195.296 183.047 195.816 183.26C196.336 183.46 196.91 183.56 197.536 183.56C198.456 183.56 199.13 183.407 199.556 183.1C199.983 182.78 200.203 182.393 200.216 181.94C200.23 181.487 200.016 181.107 199.576 180.8C199.15 180.493 198.416 180.253 197.376 180.08C196.03 179.853 195.043 179.473 194.416 178.94C193.803 178.407 193.496 177.767 193.496 177.02C193.496 176.34 193.683 175.773 194.056 175.32C194.43 174.867 194.916 174.527 195.516 174.3C196.13 174.073 196.79 173.96 197.496 173.96C198.39 173.96 199.163 174.113 199.816 174.42C200.47 174.713 200.996 175.113 201.396 175.62C201.556 175.807 201.623 176.007 201.596 176.22C201.57 176.42 201.463 176.587 201.276 176.72C201.09 176.827 200.876 176.86 200.636 176.82C200.41 176.78 200.216 176.673 200.056 176.5C199.723 176.14 199.343 175.88 198.916 175.72C198.49 175.56 198.003 175.48 197.456 175.48C196.776 175.48 196.216 175.613 195.776 175.88C195.35 176.147 195.136 176.493 195.136 176.92C195.136 177.213 195.21 177.467 195.356 177.68C195.516 177.893 195.796 178.087 196.196 178.26C196.596 178.42 197.156 178.567 197.876 178.7C198.876 178.873 199.663 179.113 200.236 179.42C200.823 179.727 201.243 180.093 201.496 180.52C201.75 180.933 201.876 181.393 201.876 181.9C201.876 182.513 201.696 183.06 201.336 183.54C200.99 184.02 200.49 184.4 199.836 184.68C199.196 184.96 198.443 185.1 197.576 185.1ZM215.377 185.1C214.283 185.1 213.317 184.867 212.477 184.4C211.637 183.92 210.977 183.26 210.497 182.42C210.017 181.58 209.777 180.62 209.777 179.54C209.777 178.447 210.003 177.487 210.457 176.66C210.91 175.82 211.53 175.16 212.317 174.68C213.117 174.2 214.037 173.96 215.077 173.96C216.103 173.96 216.99 174.193 217.737 174.66C218.483 175.113 219.057 175.747 219.457 176.56C219.87 177.373 220.077 178.3 220.077 179.34C220.077 179.567 220.003 179.753 219.857 179.9C219.71 180.033 219.523 180.1 219.297 180.1H210.937V178.72H219.377L218.537 179.32C218.537 178.587 218.397 177.927 218.117 177.34C217.837 176.753 217.437 176.293 216.917 175.96C216.41 175.627 215.797 175.46 215.077 175.46C214.317 175.46 213.657 175.64 213.097 176C212.537 176.347 212.103 176.827 211.797 177.44C211.49 178.053 211.337 178.753 211.337 179.54C211.337 180.327 211.51 181.027 211.857 181.64C212.203 182.24 212.677 182.72 213.277 183.08C213.89 183.427 214.59 183.6 215.377 183.6C215.83 183.6 216.29 183.52 216.757 183.36C217.237 183.2 217.617 183 217.897 182.76C218.057 182.627 218.237 182.56 218.437 182.56C218.65 182.547 218.83 182.6 218.977 182.72C219.163 182.893 219.257 183.087 219.257 183.3C219.27 183.5 219.19 183.673 219.017 183.82C218.563 184.193 217.997 184.5 217.317 184.74C216.65 184.98 216.003 185.1 215.377 185.1ZM229.735 185C229.575 185 229.442 184.98 229.335 184.94C229.229 184.887 229.122 184.793 229.015 184.66L225.555 180.32L224.915 179.74L221.435 175.42C221.275 175.233 221.195 175.04 221.195 174.84C221.195 174.627 221.255 174.447 221.375 174.3C221.509 174.14 221.702 174.06 221.955 174.06C222.209 174.06 222.422 174.153 222.595 174.34L225.975 178.56L226.515 179.02L230.235 183.68C230.422 183.907 230.502 184.12 230.475 184.32C230.462 184.52 230.382 184.687 230.235 184.82C230.089 184.94 229.922 185 229.735 185ZM221.895 185C221.669 185 221.489 184.927 221.355 184.78C221.222 184.633 221.149 184.46 221.135 184.26C221.135 184.06 221.215 183.86 221.375 183.66L224.955 179.18L225.895 180.44L222.495 184.74C222.349 184.913 222.149 185 221.895 185ZM226.675 179.82L225.555 178.76L228.935 174.42C229.029 174.287 229.135 174.193 229.255 174.14C229.375 174.087 229.495 174.06 229.615 174.06C229.869 174.06 230.055 174.14 230.175 174.3C230.309 174.447 230.369 174.627 230.355 174.84C230.355 175.053 230.282 175.26 230.135 175.46L226.675 179.82ZM234.231 185C233.978 185 233.771 184.92 233.611 184.76C233.451 184.6 233.371 184.393 233.371 184.14V174.92C233.371 174.653 233.451 174.447 233.611 174.3C233.771 174.14 233.978 174.06 234.231 174.06C234.484 174.06 234.684 174.14 234.831 174.3C234.991 174.447 235.071 174.653 235.071 174.92V184.14C235.071 184.393 234.991 184.6 234.831 184.76C234.684 184.92 234.484 185 234.231 185ZM234.211 172.08C233.891 172.08 233.618 171.967 233.391 171.74C233.164 171.513 233.051 171.233 233.051 170.9C233.051 170.567 233.164 170.293 233.391 170.08C233.631 169.853 233.911 169.74 234.231 169.74C234.538 169.74 234.804 169.853 235.031 170.08C235.271 170.293 235.391 170.567 235.391 170.9C235.391 171.233 235.271 171.513 235.031 171.74C234.804 171.967 234.531 172.08 234.211 172.08ZM243.13 185C242.437 185 241.817 184.833 241.27 184.5C240.724 184.167 240.29 183.707 239.97 183.12C239.664 182.533 239.51 181.873 239.51 181.14V171.44C239.51 171.187 239.584 170.98 239.73 170.82C239.89 170.66 240.097 170.58 240.35 170.58C240.59 170.58 240.79 170.66 240.95 170.82C241.11 170.98 241.19 171.187 241.19 171.44V181.14C241.19 181.767 241.37 182.287 241.73 182.7C242.104 183.1 242.57 183.3 243.13 183.3H243.71C243.937 183.3 244.124 183.38 244.27 183.54C244.417 183.7 244.49 183.907 244.49 184.16C244.49 184.413 244.397 184.62 244.21 184.78C244.037 184.927 243.81 185 243.53 185H243.13ZM238.33 175.92C238.104 175.92 237.917 175.853 237.77 175.72C237.624 175.587 237.55 175.413 237.55 175.2C237.55 174.987 237.624 174.813 237.77 174.68C237.917 174.533 238.104 174.46 238.33 174.46H243.27C243.497 174.46 243.684 174.533 243.83 174.68C243.977 174.813 244.05 174.987 244.05 175.2C244.05 175.413 243.977 175.587 243.83 175.72C243.684 175.853 243.497 175.92 243.27 175.92H238.33ZM251.977 185.1C250.897 185.1 249.937 184.86 249.097 184.38C248.271 183.9 247.617 183.24 247.137 182.4C246.657 181.56 246.417 180.607 246.417 179.54C246.417 178.46 246.657 177.5 247.137 176.66C247.617 175.82 248.271 175.16 249.097 174.68C249.937 174.2 250.897 173.96 251.977 173.96C253.044 173.96 253.991 174.2 254.817 174.68C255.644 175.16 256.297 175.82 256.777 176.66C257.257 177.5 257.504 178.46 257.517 179.54C257.517 180.607 257.277 181.56 256.797 182.4C256.317 183.24 255.657 183.9 254.817 184.38C253.991 184.86 253.044 185.1 251.977 185.1ZM251.977 183.56C252.724 183.56 253.391 183.387 253.977 183.04C254.564 182.693 255.017 182.22 255.337 181.62C255.671 181.007 255.837 180.313 255.837 179.54C255.837 178.767 255.671 178.073 255.337 177.46C255.017 176.847 254.564 176.367 253.977 176.02C253.391 175.673 252.724 175.5 251.977 175.5C251.231 175.5 250.564 175.673 249.977 176.02C249.391 176.367 248.924 176.847 248.577 177.46C248.244 178.073 248.077 178.767 248.077 179.54C248.077 180.313 248.244 181.007 248.577 181.62C248.924 182.22 249.391 182.693 249.977 183.04C250.564 183.387 251.231 183.56 251.977 183.56ZM264.393 185.1C263.553 185.1 262.74 184.967 261.953 184.7C261.18 184.42 260.56 184.027 260.093 183.52C259.933 183.347 259.866 183.147 259.893 182.92C259.92 182.693 260.026 182.5 260.213 182.34C260.426 182.18 260.64 182.12 260.853 182.16C261.08 182.187 261.273 182.28 261.433 182.44C261.713 182.773 262.113 183.047 262.633 183.26C263.153 183.46 263.726 183.56 264.353 183.56C265.273 183.56 265.946 183.407 266.373 183.1C266.8 182.78 267.02 182.393 267.033 181.94C267.046 181.487 266.833 181.107 266.393 180.8C265.966 180.493 265.233 180.253 264.193 180.08C262.846 179.853 261.86 179.473 261.233 178.94C260.62 178.407 260.313 177.767 260.313 177.02C260.313 176.34 260.5 175.773 260.873 175.32C261.246 174.867 261.733 174.527 262.333 174.3C262.946 174.073 263.606 173.96 264.313 173.96C265.206 173.96 265.98 174.113 266.633 174.42C267.286 174.713 267.813 175.113 268.213 175.62C268.373 175.807 268.44 176.007 268.413 176.22C268.386 176.42 268.28 176.587 268.093 176.72C267.906 176.827 267.693 176.86 267.453 176.82C267.226 176.78 267.033 176.673 266.873 176.5C266.54 176.14 266.16 175.88 265.733 175.72C265.306 175.56 264.82 175.48 264.273 175.48C263.593 175.48 263.033 175.613 262.593 175.88C262.166 176.147 261.953 176.493 261.953 176.92C261.953 177.213 262.026 177.467 262.173 177.68C262.333 177.893 262.613 178.087 263.013 178.26C263.413 178.42 263.973 178.567 264.693 178.7C265.693 178.873 266.48 179.113 267.053 179.42C267.64 179.727 268.06 180.093 268.313 180.52C268.566 180.933 268.693 181.393 268.693 181.9C268.693 182.513 268.513 183.06 268.153 183.54C267.806 184.02 267.306 184.4 266.653 184.68C266.013 184.96 265.26 185.1 264.393 185.1ZM276.294 185.1C275.214 185.1 274.254 184.86 273.414 184.38C272.587 183.9 271.934 183.24 271.454 182.4C270.974 181.56 270.734 180.607 270.734 179.54C270.734 178.46 270.974 177.5 271.454 176.66C271.934 175.82 272.587 175.16 273.414 174.68C274.254 174.2 275.214 173.96 276.294 173.96C277.36 173.96 278.307 174.2 279.134 174.68C279.96 175.16 280.614 175.82 281.094 176.66C281.574 177.5 281.82 178.46 281.834 179.54C281.834 180.607 281.594 181.56 281.114 182.4C280.634 183.24 279.974 183.9 279.134 184.38C278.307 184.86 277.36 185.1 276.294 185.1ZM276.294 183.56C277.04 183.56 277.707 183.387 278.294 183.04C278.88 182.693 279.334 182.22 279.654 181.62C279.987 181.007 280.154 180.313 280.154 179.54C280.154 178.767 279.987 178.073 279.654 177.46C279.334 176.847 278.88 176.367 278.294 176.02C277.707 175.673 277.04 175.5 276.294 175.5C275.547 175.5 274.88 175.673 274.294 176.02C273.707 176.367 273.24 176.847 272.894 177.46C272.56 178.073 272.394 178.767 272.394 179.54C272.394 180.313 272.56 181.007 272.894 181.62C273.24 182.22 273.707 182.693 274.294 183.04C274.88 183.387 275.547 183.56 276.294 183.56ZM288.709 185.1C287.869 185.1 287.056 184.967 286.269 184.7C285.496 184.42 284.876 184.027 284.409 183.52C284.249 183.347 284.183 183.147 284.209 182.92C284.236 182.693 284.343 182.5 284.529 182.34C284.743 182.18 284.956 182.12 285.169 182.16C285.396 182.187 285.589 182.28 285.749 182.44C286.029 182.773 286.429 183.047 286.949 183.26C287.469 183.46 288.043 183.56 288.669 183.56C289.589 183.56 290.263 183.407 290.689 183.1C291.116 182.78 291.336 182.393 291.349 181.94C291.363 181.487 291.149 181.107 290.709 180.8C290.283 180.493 289.549 180.253 288.509 180.08C287.163 179.853 286.176 179.473 285.549 178.94C284.936 178.407 284.629 177.767 284.629 177.02C284.629 176.34 284.816 175.773 285.189 175.32C285.563 174.867 286.049 174.527 286.649 174.3C287.263 174.073 287.923 173.96 288.629 173.96C289.523 173.96 290.296 174.113 290.949 174.42C291.603 174.713 292.129 175.113 292.529 175.62C292.689 175.807 292.756 176.007 292.729 176.22C292.703 176.42 292.596 176.587 292.409 176.72C292.223 176.827 292.009 176.86 291.769 176.82C291.543 176.78 291.349 176.673 291.189 176.5C290.856 176.14 290.476 175.88 290.049 175.72C289.623 175.56 289.136 175.48 288.589 175.48C287.909 175.48 287.349 175.613 286.909 175.88C286.483 176.147 286.269 176.493 286.269 176.92C286.269 177.213 286.343 177.467 286.489 177.68C286.649 177.893 286.929 178.087 287.329 178.26C287.729 178.42 288.289 178.567 289.009 178.7C290.009 178.873 290.796 179.113 291.369 179.42C291.956 179.727 292.376 180.093 292.629 180.52C292.883 180.933 293.009 181.393 293.009 181.9C293.009 182.513 292.829 183.06 292.469 183.54C292.123 184.02 291.623 184.4 290.969 184.68C290.329 184.96 289.576 185.1 288.709 185.1Z" fill="#F2EEE3"/>
<path d="M171.473 261H148.678V255.414L156.348 247.658C158.539 245.367 159.971 243.805 160.645 242.975C161.318 242.13 161.783 241.406 162.041 240.805C162.313 240.203 162.449 239.573 162.449 238.914C162.449 238.098 162.184 237.453 161.654 236.98C161.124 236.508 160.38 236.271 159.42 236.271C158.432 236.271 157.429 236.558 156.412 237.131C155.41 237.689 154.271 238.52 152.996 239.623L148.334 234.166C149.952 232.719 151.313 231.688 152.416 231.072C153.519 230.442 154.715 229.962 156.004 229.633C157.307 229.303 158.768 229.139 160.387 229.139C162.421 229.139 164.232 229.497 165.822 230.213C167.426 230.929 168.665 231.953 169.539 233.285C170.427 234.603 170.871 236.085 170.871 237.732C170.871 238.964 170.714 240.103 170.398 241.148C170.098 242.194 169.625 243.225 168.98 244.242C168.336 245.245 167.477 246.305 166.402 247.422C165.342 248.539 163.072 250.659 159.592 253.781V253.996H171.473V261ZM198.264 254.92H194.805V261H186.426V254.92H173.9V248.689L186.963 229.59H194.805V248.582H198.264V254.92ZM186.426 248.582V244.93C186.426 244.242 186.447 243.318 186.49 242.158C186.548 240.984 186.59 240.368 186.619 240.311H186.383C185.896 241.413 185.344 242.445 184.729 243.404L181.248 248.582H186.426ZM211.906 229.139C215.215 229.139 217.786 229.805 219.619 231.137C221.467 232.469 222.391 234.359 222.391 236.809C222.391 238.47 221.954 239.931 221.08 241.191C220.221 242.438 218.853 243.526 216.977 244.457C219.297 245.775 220.93 247.092 221.875 248.41C222.835 249.714 223.314 251.124 223.314 252.643C223.314 255.436 222.305 257.598 220.285 259.131C218.266 260.663 215.444 261.43 211.82 261.43C208.125 261.43 205.296 260.685 203.334 259.195C201.372 257.691 200.391 255.536 200.391 252.729C200.391 250.91 200.827 249.363 201.701 248.088C202.575 246.799 204.043 245.632 206.105 244.586C204.444 243.469 203.227 242.273 202.453 240.998C201.694 239.709 201.314 238.298 201.314 236.766C201.314 234.359 202.253 232.49 204.129 231.158C206.005 229.812 208.598 229.139 211.906 229.139ZM208.168 252.385C208.168 253.273 208.483 253.989 209.113 254.533C209.743 255.063 210.617 255.328 211.734 255.328C214.255 255.328 215.516 254.404 215.516 252.557C215.516 251.855 215.236 251.167 214.678 250.494C214.133 249.807 213.152 249.04 211.734 248.195C210.46 248.868 209.543 249.549 208.984 250.236C208.44 250.91 208.168 251.626 208.168 252.385ZM211.863 235.262C211.133 235.262 210.517 235.477 210.016 235.906C209.514 236.322 209.264 236.866 209.264 237.539C209.264 238.771 210.102 239.859 211.777 240.805C212.794 240.217 213.489 239.68 213.861 239.193C214.234 238.706 214.42 238.155 214.42 237.539C214.42 236.852 214.169 236.3 213.668 235.885C213.167 235.469 212.565 235.262 211.863 235.262ZM234.25 248.367H226.258V242.609H234.25V234.725H240.029V242.609H248.021V248.367H240.029V256.123H234.25V248.367Z" fill="#F2EEE3"/>
<path d="M133.867 299C133.627 299 133.42 298.92 133.247 298.76C133.087 298.587 133.007 298.38 133.007 298.14V283.38H134.747V298.14C134.747 298.38 134.66 298.587 134.487 298.76C134.327 298.92 134.12 299 133.867 299ZM128.407 284.96C128.167 284.96 127.973 284.887 127.827 284.74C127.68 284.593 127.607 284.407 127.607 284.18C127.607 283.94 127.68 283.747 127.827 283.6C127.973 283.453 128.167 283.38 128.407 283.38H139.347C139.587 283.38 139.78 283.453 139.927 283.6C140.073 283.747 140.147 283.94 140.147 284.18C140.147 284.407 140.073 284.593 139.927 284.74C139.78 284.887 139.587 284.96 139.347 284.96H128.407ZM143.983 299.1C142.97 299.1 142.063 298.86 141.263 298.38C140.463 297.887 139.83 297.22 139.363 296.38C138.897 295.54 138.663 294.593 138.663 293.54C138.663 292.473 138.903 291.52 139.383 290.68C139.877 289.84 140.543 289.18 141.383 288.7C142.223 288.207 143.17 287.96 144.223 287.96C145.263 287.96 146.197 288.207 147.023 288.7C147.863 289.18 148.523 289.84 149.003 290.68C149.497 291.52 149.75 292.473 149.763 293.54L149.083 293.86C149.083 294.847 148.857 295.74 148.403 296.54C147.963 297.327 147.357 297.953 146.583 298.42C145.823 298.873 144.957 299.1 143.983 299.1ZM144.223 297.56C144.957 297.56 145.617 297.387 146.203 297.04C146.79 296.693 147.25 296.213 147.583 295.6C147.917 294.987 148.083 294.3 148.083 293.54C148.083 292.767 147.917 292.08 147.583 291.48C147.25 290.867 146.79 290.387 146.203 290.04C145.617 289.68 144.957 289.5 144.223 289.5C143.49 289.5 142.83 289.68 142.243 290.04C141.657 290.387 141.19 290.867 140.843 291.48C140.497 292.08 140.323 292.767 140.323 293.54C140.323 294.3 140.497 294.987 140.843 295.6C141.19 296.213 141.657 296.693 142.243 297.04C142.83 297.387 143.49 297.56 144.223 297.56ZM148.903 299C148.65 299 148.443 298.927 148.283 298.78C148.123 298.62 148.043 298.413 148.043 298.16V294.86L148.423 293.1L149.763 293.54V298.16C149.763 298.413 149.677 298.62 149.503 298.78C149.343 298.927 149.143 299 148.903 299ZM153.699 298.52L152.419 297.68L159.639 288.38L160.779 289.36L153.699 298.52ZM153.039 299C152.519 299 152.259 298.74 152.259 298.22C152.259 297.7 152.519 297.44 153.039 297.44H160.259C160.779 297.44 161.039 297.7 161.039 298.22C161.039 298.74 160.779 299 160.259 299H153.039ZM152.919 289.62C152.399 289.62 152.139 289.36 152.139 288.84C152.139 288.32 152.399 288.06 152.919 288.06H160.139C160.659 288.06 160.919 288.32 160.919 288.84C160.919 289.36 160.659 289.62 160.139 289.62H152.919ZM168.026 299.1C167.013 299.1 166.106 298.86 165.306 298.38C164.506 297.887 163.873 297.22 163.406 296.38C162.94 295.54 162.706 294.593 162.706 293.54C162.706 292.473 162.946 291.52 163.426 290.68C163.92 289.84 164.586 289.18 165.426 288.7C166.266 288.207 167.213 287.96 168.266 287.96C169.306 287.96 170.24 288.207 171.066 288.7C171.906 289.18 172.566 289.84 173.046 290.68C173.54 291.52 173.793 292.473 173.806 293.54L173.126 293.86C173.126 294.847 172.9 295.74 172.446 296.54C172.006 297.327 171.4 297.953 170.626 298.42C169.866 298.873 169 299.1 168.026 299.1ZM168.266 297.56C169 297.56 169.66 297.387 170.246 297.04C170.833 296.693 171.293 296.213 171.626 295.6C171.96 294.987 172.126 294.3 172.126 293.54C172.126 292.767 171.96 292.08 171.626 291.48C171.293 290.867 170.833 290.387 170.246 290.04C169.66 289.68 169 289.5 168.266 289.5C167.533 289.5 166.873 289.68 166.286 290.04C165.7 290.387 165.233 290.867 164.886 291.48C164.54 292.08 164.366 292.767 164.366 293.54C164.366 294.3 164.54 294.987 164.886 295.6C165.233 296.213 165.7 296.693 166.286 297.04C166.873 297.387 167.533 297.56 168.266 297.56ZM172.946 299C172.693 299 172.486 298.927 172.326 298.78C172.166 298.62 172.086 298.413 172.086 298.16V294.86L172.466 293.1L173.806 293.54V298.16C173.806 298.413 173.72 298.62 173.546 298.78C173.386 298.927 173.186 299 172.946 299ZM180.682 299.1C179.842 299.1 179.029 298.967 178.242 298.7C177.469 298.42 176.849 298.027 176.382 297.52C176.222 297.347 176.155 297.147 176.182 296.92C176.209 296.693 176.315 296.5 176.502 296.34C176.715 296.18 176.929 296.12 177.142 296.16C177.369 296.187 177.562 296.28 177.722 296.44C178.002 296.773 178.402 297.047 178.922 297.26C179.442 297.46 180.015 297.56 180.642 297.56C181.562 297.56 182.235 297.407 182.662 297.1C183.089 296.78 183.309 296.393 183.322 295.94C183.335 295.487 183.122 295.107 182.682 294.8C182.255 294.493 181.522 294.253 180.482 294.08C179.135 293.853 178.149 293.473 177.522 292.94C176.909 292.407 176.602 291.767 176.602 291.02C176.602 290.34 176.789 289.773 177.162 289.32C177.535 288.867 178.022 288.527 178.622 288.3C179.235 288.073 179.895 287.96 180.602 287.96C181.495 287.96 182.269 288.113 182.922 288.42C183.575 288.713 184.102 289.113 184.502 289.62C184.662 289.807 184.729 290.007 184.702 290.22C184.675 290.42 184.569 290.587 184.382 290.72C184.195 290.827 183.982 290.86 183.742 290.82C183.515 290.78 183.322 290.673 183.162 290.5C182.829 290.14 182.449 289.88 182.022 289.72C181.595 289.56 181.109 289.48 180.562 289.48C179.882 289.48 179.322 289.613 178.882 289.88C178.455 290.147 178.242 290.493 178.242 290.92C178.242 291.213 178.315 291.467 178.462 291.68C178.622 291.893 178.902 292.087 179.302 292.26C179.702 292.42 180.262 292.567 180.982 292.7C181.982 292.873 182.769 293.113 183.342 293.42C183.929 293.727 184.349 294.093 184.602 294.52C184.855 294.933 184.982 295.393 184.982 295.9C184.982 296.513 184.802 297.06 184.442 297.54C184.095 298.02 183.595 298.4 182.942 298.68C182.302 298.96 181.549 299.1 180.682 299.1ZM198.442 299.1C197.389 299.1 196.442 298.86 195.602 298.38C194.762 297.887 194.095 297.22 193.602 296.38C193.122 295.54 192.882 294.587 192.882 293.52C192.882 292.467 193.115 291.52 193.582 290.68C194.049 289.84 194.682 289.18 195.482 288.7C196.282 288.207 197.189 287.96 198.202 287.96C199.055 287.96 199.829 288.147 200.522 288.52C201.229 288.88 201.809 289.36 202.262 289.96V284.24C202.262 283.973 202.342 283.767 202.502 283.62C202.662 283.46 202.869 283.38 203.122 283.38C203.375 283.38 203.582 283.46 203.742 283.62C203.902 283.767 203.982 283.973 203.982 284.24V293.58C203.955 294.62 203.695 295.56 203.202 296.4C202.722 297.227 202.069 297.887 201.242 298.38C200.415 298.86 199.482 299.1 198.442 299.1ZM198.442 297.56C199.175 297.56 199.835 297.387 200.422 297.04C201.009 296.68 201.469 296.2 201.802 295.6C202.135 294.987 202.302 294.293 202.302 293.52C202.302 292.76 202.135 292.073 201.802 291.46C201.469 290.847 201.009 290.367 200.422 290.02C199.835 289.673 199.175 289.5 198.442 289.5C197.709 289.5 197.049 289.673 196.462 290.02C195.875 290.367 195.409 290.847 195.062 291.46C194.715 292.073 194.542 292.76 194.542 293.52C194.542 294.293 194.715 294.987 195.062 295.6C195.409 296.2 195.875 296.68 196.462 297.04C197.049 297.387 197.709 297.56 198.442 297.56ZM212.603 299.1C211.51 299.1 210.543 298.867 209.703 298.4C208.863 297.92 208.203 297.26 207.723 296.42C207.243 295.58 207.003 294.62 207.003 293.54C207.003 292.447 207.23 291.487 207.683 290.66C208.137 289.82 208.757 289.16 209.543 288.68C210.343 288.2 211.263 287.96 212.303 287.96C213.33 287.96 214.217 288.193 214.963 288.66C215.71 289.113 216.283 289.747 216.683 290.56C217.097 291.373 217.303 292.3 217.303 293.34C217.303 293.567 217.23 293.753 217.083 293.9C216.937 294.033 216.75 294.1 216.523 294.1H208.163V292.72H216.603L215.763 293.32C215.763 292.587 215.623 291.927 215.343 291.34C215.063 290.753 214.663 290.293 214.143 289.96C213.637 289.627 213.023 289.46 212.303 289.46C211.543 289.46 210.883 289.64 210.323 290C209.763 290.347 209.33 290.827 209.023 291.44C208.717 292.053 208.563 292.753 208.563 293.54C208.563 294.327 208.737 295.027 209.083 295.64C209.43 296.24 209.903 296.72 210.503 297.08C211.117 297.427 211.817 297.6 212.603 297.6C213.057 297.6 213.517 297.52 213.983 297.36C214.463 297.2 214.843 297 215.123 296.76C215.283 296.627 215.463 296.56 215.663 296.56C215.877 296.547 216.057 296.6 216.203 296.72C216.39 296.893 216.483 297.087 216.483 297.3C216.497 297.5 216.417 297.673 216.243 297.82C215.79 298.193 215.223 298.5 214.543 298.74C213.877 298.98 213.23 299.1 212.603 299.1ZM230.667 299.1C229.613 299.1 228.673 298.86 227.847 298.38C227.02 297.887 226.367 297.22 225.887 296.38C225.42 295.54 225.187 294.593 225.187 293.54C225.187 292.473 225.413 291.52 225.867 290.68C226.333 289.84 226.96 289.18 227.747 288.7C228.547 288.207 229.467 287.96 230.507 287.96C231.307 287.96 232.047 288.12 232.727 288.44C233.407 288.747 234.007 289.213 234.527 289.84C234.687 290.027 234.74 290.22 234.687 290.42C234.647 290.607 234.527 290.773 234.327 290.92C234.167 291.04 233.987 291.08 233.787 291.04C233.587 291 233.413 290.893 233.267 290.72C232.533 289.907 231.613 289.5 230.507 289.5C229.787 289.5 229.147 289.673 228.587 290.02C228.04 290.367 227.613 290.84 227.307 291.44C227 292.04 226.847 292.74 226.847 293.54C226.847 294.313 227.007 295.007 227.327 295.62C227.647 296.22 228.093 296.693 228.667 297.04C229.253 297.387 229.92 297.56 230.667 297.56C231.173 297.56 231.627 297.493 232.027 297.36C232.44 297.227 232.807 297.027 233.127 296.76C233.3 296.613 233.48 296.533 233.667 296.52C233.867 296.493 234.047 296.547 234.207 296.68C234.38 296.84 234.48 297.02 234.507 297.22C234.533 297.42 234.467 297.6 234.307 297.76C233.333 298.653 232.12 299.1 230.667 299.1ZM242.46 299.1C241.447 299.1 240.54 298.86 239.74 298.38C238.94 297.887 238.307 297.22 237.84 296.38C237.373 295.54 237.14 294.593 237.14 293.54C237.14 292.473 237.38 291.52 237.86 290.68C238.353 289.84 239.02 289.18 239.86 288.7C240.7 288.207 241.647 287.96 242.7 287.96C243.74 287.96 244.673 288.207 245.5 288.7C246.34 289.18 247 289.84 247.48 290.68C247.973 291.52 248.227 292.473 248.24 293.54L247.56 293.86C247.56 294.847 247.333 295.74 246.88 296.54C246.44 297.327 245.833 297.953 245.06 298.42C244.3 298.873 243.433 299.1 242.46 299.1ZM242.7 297.56C243.433 297.56 244.093 297.387 244.68 297.04C245.267 296.693 245.727 296.213 246.06 295.6C246.393 294.987 246.56 294.3 246.56 293.54C246.56 292.767 246.393 292.08 246.06 291.48C245.727 290.867 245.267 290.387 244.68 290.04C244.093 289.68 243.433 289.5 242.7 289.5C241.967 289.5 241.307 289.68 240.72 290.04C240.133 290.387 239.667 290.867 239.32 291.48C238.973 292.08 238.8 292.767 238.8 293.54C238.8 294.3 238.973 294.987 239.32 295.6C239.667 296.213 240.133 296.693 240.72 297.04C241.307 297.387 241.967 297.56 242.7 297.56ZM247.38 299C247.127 299 246.92 298.927 246.76 298.78C246.6 298.62 246.52 298.413 246.52 298.16V294.86L246.9 293.1L248.24 293.54V298.16C248.24 298.413 248.153 298.62 247.98 298.78C247.82 298.927 247.62 299 247.38 299ZM252.536 299C252.322 299 252.129 298.927 251.956 298.78C251.796 298.62 251.716 298.407 251.716 298.14V288.1C251.716 287.153 251.882 286.327 252.216 285.62C252.562 284.913 253.056 284.367 253.696 283.98C254.349 283.58 255.122 283.38 256.016 283.38C256.269 283.38 256.476 283.453 256.636 283.6C256.796 283.747 256.876 283.933 256.876 284.16C256.876 284.373 256.796 284.553 256.636 284.7C256.476 284.847 256.269 284.92 256.016 284.92C255.456 284.92 254.982 285.053 254.596 285.32C254.209 285.573 253.916 285.933 253.716 286.4C253.516 286.853 253.416 287.38 253.416 287.98V298.14C253.416 298.407 253.336 298.62 253.176 298.78C253.029 298.927 252.816 299 252.536 299ZM250.576 289.92C250.336 289.92 250.142 289.853 249.996 289.72C249.862 289.587 249.796 289.413 249.796 289.2C249.796 288.987 249.862 288.813 249.996 288.68C250.142 288.533 250.336 288.46 250.576 288.46H255.696C255.936 288.46 256.122 288.533 256.256 288.68C256.402 288.813 256.476 288.987 256.476 289.2C256.476 289.413 256.402 289.587 256.256 289.72C256.122 289.853 255.936 289.92 255.696 289.92H250.576ZM263.189 299.1C262.096 299.1 261.129 298.867 260.289 298.4C259.449 297.92 258.789 297.26 258.309 296.42C257.829 295.58 257.589 294.62 257.589 293.54C257.589 292.447 257.816 291.487 258.269 290.66C258.722 289.82 259.342 289.16 260.129 288.68C260.929 288.2 261.849 287.96 262.889 287.96C263.916 287.96 264.802 288.193 265.549 288.66C266.296 289.113 266.869 289.747 267.269 290.56C267.682 291.373 267.889 292.3 267.889 293.34C267.889 293.567 267.816 293.753 267.669 293.9C267.522 294.033 267.336 294.1 267.109 294.1H258.749V292.72H267.189L266.349 293.32C266.349 292.587 266.209 291.927 265.929 291.34C265.649 290.753 265.249 290.293 264.729 289.96C264.222 289.627 263.609 289.46 262.889 289.46C262.129 289.46 261.469 289.64 260.909 290C260.349 290.347 259.916 290.827 259.609 291.44C259.302 292.053 259.149 292.753 259.149 293.54C259.149 294.327 259.322 295.027 259.669 295.64C260.016 296.24 260.489 296.72 261.089 297.08C261.702 297.427 262.402 297.6 263.189 297.6C263.642 297.6 264.102 297.52 264.569 297.36C265.049 297.2 265.429 297 265.709 296.76C265.869 296.627 266.049 296.56 266.249 296.56C266.462 296.547 266.642 296.6 266.789 296.72C266.976 296.893 267.069 297.087 267.069 297.3C267.082 297.5 267.002 297.673 266.829 297.82C266.376 298.193 265.809 298.5 265.129 298.74C264.462 298.98 263.816 299.1 263.189 299.1ZM262.689 286.38C262.449 286.38 262.242 286.3 262.069 286.14C261.909 285.967 261.829 285.76 261.829 285.52C261.829 285.28 261.896 285.087 262.029 284.94L264.189 282.78C264.349 282.62 264.549 282.54 264.789 282.54C265.042 282.54 265.249 282.627 265.409 282.8C265.569 282.96 265.649 283.167 265.649 283.42C265.649 283.527 265.629 283.633 265.589 283.74C265.549 283.833 265.489 283.92 265.409 284L263.269 286.16C263.109 286.307 262.916 286.38 262.689 286.38Z" fill="#F2EEE3"/>
<path d="M187.414 354.418C189.219 354.418 190.844 354.84 192.291 355.686C193.752 356.516 194.883 357.698 195.686 359.23C196.502 360.763 196.91 362.532 196.91 364.537C196.91 368.046 195.85 370.739 193.73 372.615C191.625 374.492 188.431 375.43 184.148 375.43C180.482 375.43 177.488 374.864 175.168 373.732V366.771C176.414 367.344 177.818 367.817 179.379 368.189C180.954 368.562 182.308 368.748 183.439 368.748C185.015 368.748 186.225 368.419 187.07 367.76C187.915 367.087 188.338 366.098 188.338 364.795C188.338 363.592 187.908 362.654 187.049 361.98C186.189 361.307 184.886 360.971 183.139 360.971C181.807 360.971 180.367 361.221 178.82 361.723L175.705 360.176L176.887 343.59H194.805V350.658H184.105L183.719 354.805C184.836 354.59 185.631 354.475 186.104 354.461C186.576 354.432 187.013 354.418 187.414 354.418ZM208.469 362.367H200.477V356.609H208.469V348.725H214.248V356.609H222.24V362.367H214.248V370.123H208.469V362.367Z" fill="#F2EEE3"/>
<path d="M112.114 413C111.874 413 111.667 412.92 111.494 412.76C111.334 412.587 111.254 412.38 111.254 412.14V398.24C111.254 397.987 111.334 397.78 111.494 397.62C111.667 397.46 111.874 397.38 112.114 397.38H115.734C116.881 397.38 117.927 397.573 118.874 397.96C119.821 398.333 120.641 398.873 121.334 399.58C122.027 400.273 122.561 401.093 122.934 402.04C123.321 402.987 123.514 404.033 123.514 405.18C123.514 406.327 123.321 407.38 122.934 408.34C122.561 409.287 122.027 410.113 121.334 410.82C120.641 411.513 119.821 412.053 118.874 412.44C117.927 412.813 116.881 413 115.734 413H112.114ZM112.994 411.46H115.734C116.921 411.46 117.967 411.193 118.874 410.66C119.794 410.113 120.514 409.367 121.034 408.42C121.554 407.473 121.814 406.393 121.814 405.18C121.814 403.967 121.554 402.887 121.034 401.94C120.514 400.993 119.794 400.253 118.874 399.72C117.967 399.187 116.921 398.92 115.734 398.92H112.994V411.46ZM127.682 413C127.429 413 127.222 412.92 127.062 412.76C126.902 412.6 126.822 412.393 126.822 412.14V402.92C126.822 402.653 126.902 402.447 127.062 402.3C127.222 402.14 127.429 402.06 127.682 402.06C127.936 402.06 128.136 402.14 128.282 402.3C128.442 402.447 128.522 402.653 128.522 402.92V412.14C128.522 412.393 128.442 412.6 128.282 412.76C128.136 412.92 127.936 413 127.682 413ZM127.662 400.08C127.342 400.08 127.069 399.967 126.842 399.74C126.616 399.513 126.502 399.233 126.502 398.9C126.502 398.567 126.616 398.293 126.842 398.08C127.082 397.853 127.362 397.74 127.682 397.74C127.989 397.74 128.256 397.853 128.482 398.08C128.722 398.293 128.842 398.567 128.842 398.9C128.842 399.233 128.722 399.513 128.482 399.74C128.256 399.967 127.982 400.08 127.662 400.08ZM133.702 413C133.488 413 133.295 412.927 133.122 412.78C132.962 412.62 132.882 412.407 132.882 412.14V402.1C132.882 401.153 133.048 400.327 133.382 399.62C133.728 398.913 134.222 398.367 134.862 397.98C135.515 397.58 136.288 397.38 137.182 397.38C137.435 397.38 137.642 397.453 137.802 397.6C137.962 397.747 138.042 397.933 138.042 398.16C138.042 398.373 137.962 398.553 137.802 398.7C137.642 398.847 137.435 398.92 137.182 398.92C136.622 398.92 136.148 399.053 135.762 399.32C135.375 399.573 135.082 399.933 134.882 400.4C134.682 400.853 134.582 401.38 134.582 401.98V412.14C134.582 412.407 134.502 412.62 134.342 412.78C134.195 412.927 133.982 413 133.702 413ZM131.742 403.92C131.502 403.92 131.308 403.853 131.162 403.72C131.028 403.587 130.962 403.413 130.962 403.2C130.962 402.987 131.028 402.813 131.162 402.68C131.308 402.533 131.502 402.46 131.742 402.46H136.862C137.102 402.46 137.288 402.533 137.422 402.68C137.568 402.813 137.642 402.987 137.642 403.2C137.642 403.413 137.568 403.587 137.422 403.72C137.288 403.853 137.102 403.92 136.862 403.92H131.742ZM144.355 413.1C143.262 413.1 142.295 412.867 141.455 412.4C140.615 411.92 139.955 411.26 139.475 410.42C138.995 409.58 138.755 408.62 138.755 407.54C138.755 406.447 138.982 405.487 139.435 404.66C139.888 403.82 140.508 403.16 141.295 402.68C142.095 402.2 143.015 401.96 144.055 401.96C145.082 401.96 145.968 402.193 146.715 402.66C147.462 403.113 148.035 403.747 148.435 404.56C148.848 405.373 149.055 406.3 149.055 407.34C149.055 407.567 148.982 407.753 148.835 407.9C148.688 408.033 148.502 408.1 148.275 408.1H139.915V406.72H148.355L147.515 407.32C147.515 406.587 147.375 405.927 147.095 405.34C146.815 404.753 146.415 404.293 145.895 403.96C145.388 403.627 144.775 403.46 144.055 403.46C143.295 403.46 142.635 403.64 142.075 404C141.515 404.347 141.082 404.827 140.775 405.44C140.468 406.053 140.315 406.753 140.315 407.54C140.315 408.327 140.488 409.027 140.835 409.64C141.182 410.24 141.655 410.72 142.255 411.08C142.868 411.427 143.568 411.6 144.355 411.6C144.808 411.6 145.268 411.52 145.735 411.36C146.215 411.2 146.595 411 146.875 410.76C147.035 410.627 147.215 410.56 147.415 410.56C147.628 410.547 147.808 410.6 147.955 410.72C148.142 410.893 148.235 411.087 148.235 411.3C148.248 411.5 148.168 411.673 147.995 411.82C147.542 412.193 146.975 412.5 146.295 412.74C145.628 412.98 144.982 413.1 144.355 413.1ZM152.419 406.22C152.446 405.407 152.653 404.68 153.039 404.04C153.439 403.387 153.959 402.873 154.599 402.5C155.239 402.127 155.953 401.94 156.739 401.94C157.419 401.94 157.933 402.04 158.279 402.24C158.639 402.44 158.773 402.713 158.679 403.06C158.639 403.26 158.553 403.4 158.419 403.48C158.299 403.547 158.153 403.58 157.979 403.58C157.819 403.58 157.633 403.573 157.419 403.56C156.646 403.453 155.953 403.5 155.339 403.7C154.726 403.887 154.239 404.2 153.879 404.64C153.519 405.08 153.339 405.607 153.339 406.22H152.419ZM152.499 413C152.233 413 152.026 412.927 151.879 412.78C151.733 412.633 151.659 412.427 151.659 412.16V402.9C151.659 402.633 151.733 402.427 151.879 402.28C152.026 402.133 152.233 402.06 152.499 402.06C152.766 402.06 152.973 402.133 153.119 402.28C153.266 402.427 153.339 402.633 153.339 402.9V412.16C153.339 412.427 153.266 412.633 153.119 412.78C152.973 412.927 152.766 413 152.499 413ZM165.215 413.1C164.121 413.1 163.155 412.867 162.315 412.4C161.475 411.92 160.815 411.26 160.335 410.42C159.855 409.58 159.615 408.62 159.615 407.54C159.615 406.447 159.841 405.487 160.295 404.66C160.748 403.82 161.368 403.16 162.155 402.68C162.955 402.2 163.875 401.96 164.915 401.96C165.941 401.96 166.828 402.193 167.575 402.66C168.321 403.113 168.895 403.747 169.295 404.56C169.708 405.373 169.915 406.3 169.915 407.34C169.915 407.567 169.841 407.753 169.695 407.9C169.548 408.033 169.361 408.1 169.135 408.1H160.775V406.72H169.215L168.375 407.32C168.375 406.587 168.235 405.927 167.955 405.34C167.675 404.753 167.275 404.293 166.755 403.96C166.248 403.627 165.635 403.46 164.915 403.46C164.155 403.46 163.495 403.64 162.935 404C162.375 404.347 161.941 404.827 161.635 405.44C161.328 406.053 161.175 406.753 161.175 407.54C161.175 408.327 161.348 409.027 161.695 409.64C162.041 410.24 162.515 410.72 163.115 411.08C163.728 411.427 164.428 411.6 165.215 411.6C165.668 411.6 166.128 411.52 166.595 411.36C167.075 411.2 167.455 411 167.735 410.76C167.895 410.627 168.075 410.56 168.275 410.56C168.488 410.547 168.668 410.6 168.815 410.72C169.001 410.893 169.095 411.087 169.095 411.3C169.108 411.5 169.028 411.673 168.855 411.82C168.401 412.193 167.835 412.5 167.155 412.74C166.488 412.98 165.841 413.1 165.215 413.1ZM181.859 413C181.605 413 181.399 412.92 181.239 412.76C181.079 412.6 180.999 412.4 180.999 412.16V407.06C180.999 406.247 180.845 405.587 180.539 405.08C180.232 404.56 179.819 404.173 179.299 403.92C178.792 403.667 178.205 403.54 177.539 403.54C176.925 403.54 176.365 403.66 175.859 403.9C175.352 404.14 174.952 404.473 174.659 404.9C174.365 405.313 174.219 405.793 174.219 406.34H173.079C173.092 405.5 173.305 404.753 173.719 404.1C174.145 403.433 174.712 402.907 175.419 402.52C176.125 402.133 176.912 401.94 177.779 401.94C178.725 401.94 179.565 402.14 180.299 402.54C181.045 402.927 181.632 403.5 182.059 404.26C182.485 405.02 182.699 405.953 182.699 407.06V412.16C182.699 412.4 182.619 412.6 182.459 412.76C182.299 412.92 182.099 413 181.859 413ZM173.379 413C173.125 413 172.919 412.927 172.759 412.78C172.599 412.62 172.519 412.413 172.519 412.16V402.92C172.519 402.653 172.599 402.447 172.759 402.3C172.919 402.14 173.125 402.06 173.379 402.06C173.632 402.06 173.832 402.14 173.979 402.3C174.139 402.447 174.219 402.653 174.219 402.92V412.16C174.219 412.413 174.139 412.62 173.979 412.78C173.832 412.927 173.632 413 173.379 413ZM190.273 413C189.58 413 188.96 412.833 188.413 412.5C187.866 412.167 187.433 411.707 187.113 411.12C186.806 410.533 186.653 409.873 186.653 409.14V399.44C186.653 399.187 186.726 398.98 186.873 398.82C187.033 398.66 187.24 398.58 187.493 398.58C187.733 398.58 187.933 398.66 188.093 398.82C188.253 398.98 188.333 399.187 188.333 399.44V409.14C188.333 409.767 188.513 410.287 188.873 410.7C189.246 411.1 189.713 411.3 190.273 411.3H190.853C191.08 411.3 191.266 411.38 191.413 411.54C191.56 411.7 191.633 411.907 191.633 412.16C191.633 412.413 191.54 412.62 191.353 412.78C191.18 412.927 190.953 413 190.673 413H190.273ZM185.473 403.92C185.246 403.92 185.06 403.853 184.913 403.72C184.766 403.587 184.693 403.413 184.693 403.2C184.693 402.987 184.766 402.813 184.913 402.68C185.06 402.533 185.246 402.46 185.473 402.46H190.413C190.64 402.46 190.826 402.533 190.973 402.68C191.12 402.813 191.193 402.987 191.193 403.2C191.193 403.413 191.12 403.587 190.973 403.72C190.826 403.853 190.64 403.92 190.413 403.92H185.473ZM199.16 413.1C198.067 413.1 197.1 412.867 196.26 412.4C195.42 411.92 194.76 411.26 194.28 410.42C193.8 409.58 193.56 408.62 193.56 407.54C193.56 406.447 193.787 405.487 194.24 404.66C194.693 403.82 195.313 403.16 196.1 402.68C196.9 402.2 197.82 401.96 198.86 401.96C199.887 401.96 200.773 402.193 201.52 402.66C202.267 403.113 202.84 403.747 203.24 404.56C203.653 405.373 203.86 406.3 203.86 407.34C203.86 407.567 203.787 407.753 203.64 407.9C203.493 408.033 203.307 408.1 203.08 408.1H194.72V406.72H203.16L202.32 407.32C202.32 406.587 202.18 405.927 201.9 405.34C201.62 404.753 201.22 404.293 200.7 403.96C200.193 403.627 199.58 403.46 198.86 403.46C198.1 403.46 197.44 403.64 196.88 404C196.32 404.347 195.887 404.827 195.58 405.44C195.273 406.053 195.12 406.753 195.12 407.54C195.12 408.327 195.293 409.027 195.64 409.64C195.987 410.24 196.46 410.72 197.06 411.08C197.673 411.427 198.373 411.6 199.16 411.6C199.613 411.6 200.073 411.52 200.54 411.36C201.02 411.2 201.4 411 201.68 410.76C201.84 410.627 202.02 410.56 202.22 410.56C202.433 410.547 202.613 410.6 202.76 410.72C202.947 410.893 203.04 411.087 203.04 411.3C203.053 411.5 202.973 411.673 202.8 411.82C202.347 412.193 201.78 412.5 201.1 412.74C200.433 412.98 199.787 413.1 199.16 413.1ZM210.344 413.1C209.504 413.1 208.691 412.967 207.904 412.7C207.131 412.42 206.511 412.027 206.044 411.52C205.884 411.347 205.817 411.147 205.844 410.92C205.871 410.693 205.977 410.5 206.164 410.34C206.377 410.18 206.591 410.12 206.804 410.16C207.031 410.187 207.224 410.28 207.384 410.44C207.664 410.773 208.064 411.047 208.584 411.26C209.104 411.46 209.677 411.56 210.304 411.56C211.224 411.56 211.897 411.407 212.324 411.1C212.751 410.78 212.971 410.393 212.984 409.94C212.997 409.487 212.784 409.107 212.344 408.8C211.917 408.493 211.184 408.253 210.144 408.08C208.797 407.853 207.811 407.473 207.184 406.94C206.571 406.407 206.264 405.767 206.264 405.02C206.264 404.34 206.451 403.773 206.824 403.32C207.197 402.867 207.684 402.527 208.284 402.3C208.897 402.073 209.557 401.96 210.264 401.96C211.157 401.96 211.931 402.113 212.584 402.42C213.237 402.713 213.764 403.113 214.164 403.62C214.324 403.807 214.391 404.007 214.364 404.22C214.337 404.42 214.231 404.587 214.044 404.72C213.857 404.827 213.644 404.86 213.404 404.82C213.177 404.78 212.984 404.673 212.824 404.5C212.491 404.14 212.111 403.88 211.684 403.72C211.257 403.56 210.771 403.48 210.224 403.48C209.544 403.48 208.984 403.613 208.544 403.88C208.117 404.147 207.904 404.493 207.904 404.92C207.904 405.213 207.977 405.467 208.124 405.68C208.284 405.893 208.564 406.087 208.964 406.26C209.364 406.42 209.924 406.567 210.644 406.7C211.644 406.873 212.431 407.113 213.004 407.42C213.591 407.727 214.011 408.093 214.264 408.52C214.517 408.933 214.644 409.393 214.644 409.9C214.644 410.513 214.464 411.06 214.104 411.54C213.757 412.02 213.257 412.4 212.604 412.68C211.964 412.96 211.211 413.1 210.344 413.1ZM223.984 417.68C223.731 417.68 223.524 417.6 223.364 417.44C223.204 417.28 223.124 417.073 223.124 416.82V407.48C223.138 406.44 223.384 405.507 223.864 404.68C224.358 403.84 225.018 403.18 225.844 402.7C226.671 402.207 227.604 401.96 228.644 401.96C229.711 401.96 230.658 402.207 231.484 402.7C232.324 403.18 232.984 403.84 233.464 404.68C233.958 405.52 234.204 406.473 234.204 407.54C234.204 408.593 233.971 409.54 233.504 410.38C233.051 411.22 232.424 411.887 231.624 412.38C230.824 412.86 229.918 413.1 228.904 413.1C228.051 413.1 227.271 412.92 226.564 412.56C225.858 412.187 225.278 411.7 224.824 411.1V416.82C224.824 417.073 224.744 417.28 224.584 417.44C224.438 417.6 224.238 417.68 223.984 417.68ZM228.644 411.56C229.391 411.56 230.058 411.387 230.644 411.04C231.231 410.693 231.691 410.213 232.024 409.6C232.371 408.987 232.544 408.3 232.544 407.54C232.544 406.767 232.371 406.08 232.024 405.48C231.691 404.867 231.231 404.387 230.644 404.04C230.058 403.68 229.391 403.5 228.644 403.5C227.924 403.5 227.264 403.68 226.664 404.04C226.078 404.387 225.618 404.867 225.284 405.48C224.951 406.08 224.784 406.767 224.784 407.54C224.784 408.3 224.951 408.987 225.284 409.6C225.618 410.213 226.078 410.693 226.664 411.04C227.264 411.387 227.924 411.56 228.644 411.56ZM241.985 413.1C240.972 413.1 240.065 412.86 239.265 412.38C238.465 411.887 237.832 411.22 237.365 410.38C236.899 409.54 236.665 408.593 236.665 407.54C236.665 406.473 236.905 405.52 237.385 404.68C237.879 403.84 238.545 403.18 239.385 402.7C240.225 402.207 241.172 401.96 242.225 401.96C243.265 401.96 244.199 402.207 245.025 402.7C245.865 403.18 246.525 403.84 247.005 404.68C247.499 405.52 247.752 406.473 247.765 407.54L247.085 407.86C247.085 408.847 246.859 409.74 246.405 410.54C245.965 411.327 245.359 411.953 244.585 412.42C243.825 412.873 242.959 413.1 241.985 413.1ZM242.225 411.56C242.959 411.56 243.619 411.387 244.205 411.04C244.792 410.693 245.252 410.213 245.585 409.6C245.919 408.987 246.085 408.3 246.085 407.54C246.085 406.767 245.919 406.08 245.585 405.48C245.252 404.867 244.792 404.387 244.205 404.04C243.619 403.68 242.959 403.5 242.225 403.5C241.492 403.5 240.832 403.68 240.245 404.04C239.659 404.387 239.192 404.867 238.845 405.48C238.499 406.08 238.325 406.767 238.325 407.54C238.325 408.3 238.499 408.987 238.845 409.6C239.192 410.213 239.659 410.693 240.245 411.04C240.832 411.387 241.492 411.56 242.225 411.56ZM246.905 413C246.652 413 246.445 412.927 246.285 412.78C246.125 412.62 246.045 412.413 246.045 412.16V408.86L246.425 407.1L247.765 407.54V412.16C247.765 412.413 247.679 412.62 247.505 412.78C247.345 412.927 247.145 413 246.905 413ZM251.901 413C251.648 413 251.441 412.92 251.281 412.76C251.121 412.6 251.041 412.393 251.041 412.14V402.92C251.041 402.653 251.121 402.447 251.281 402.3C251.441 402.14 251.648 402.06 251.901 402.06C252.154 402.06 252.354 402.14 252.501 402.3C252.661 402.447 252.741 402.653 252.741 402.92V412.14C252.741 412.393 252.661 412.6 252.501 412.76C252.354 412.92 252.154 413 251.901 413ZM251.821 400.38C251.581 400.38 251.374 400.3 251.201 400.14C251.041 399.967 250.961 399.76 250.961 399.52C250.961 399.28 251.028 399.087 251.161 398.94L253.321 396.78C253.481 396.62 253.681 396.54 253.921 396.54C254.174 396.54 254.381 396.627 254.541 396.8C254.701 396.96 254.781 397.167 254.781 397.42C254.781 397.527 254.761 397.633 254.721 397.74C254.681 397.833 254.621 397.92 254.541 398L252.401 400.16C252.241 400.307 252.048 400.38 251.821 400.38ZM260.5 413.1C259.66 413.1 258.847 412.967 258.06 412.7C257.287 412.42 256.667 412.027 256.2 411.52C256.04 411.347 255.974 411.147 256 410.92C256.027 410.693 256.134 410.5 256.32 410.34C256.534 410.18 256.747 410.12 256.96 410.16C257.187 410.187 257.38 410.28 257.54 410.44C257.82 410.773 258.22 411.047 258.74 411.26C259.26 411.46 259.834 411.56 260.46 411.56C261.38 411.56 262.054 411.407 262.48 411.1C262.907 410.78 263.127 410.393 263.14 409.94C263.154 409.487 262.94 409.107 262.5 408.8C262.074 408.493 261.34 408.253 260.3 408.08C258.954 407.853 257.967 407.473 257.34 406.94C256.727 406.407 256.42 405.767 256.42 405.02C256.42 404.34 256.607 403.773 256.98 403.32C257.354 402.867 257.84 402.527 258.44 402.3C259.054 402.073 259.714 401.96 260.42 401.96C261.314 401.96 262.087 402.113 262.74 402.42C263.394 402.713 263.92 403.113 264.32 403.62C264.48 403.807 264.547 404.007 264.52 404.22C264.494 404.42 264.387 404.587 264.2 404.72C264.014 404.827 263.8 404.86 263.56 404.82C263.334 404.78 263.14 404.673 262.98 404.5C262.647 404.14 262.267 403.88 261.84 403.72C261.414 403.56 260.927 403.48 260.38 403.48C259.7 403.48 259.14 403.613 258.7 403.88C258.274 404.147 258.06 404.493 258.06 404.92C258.06 405.213 258.134 405.467 258.28 405.68C258.44 405.893 258.72 406.087 259.12 406.26C259.52 406.42 260.08 406.567 260.8 406.7C261.8 406.873 262.587 407.113 263.16 407.42C263.747 407.727 264.167 408.093 264.42 408.52C264.674 408.933 264.8 409.393 264.8 409.9C264.8 410.513 264.62 411.06 264.26 411.54C263.914 412.02 263.414 412.4 262.76 412.68C262.12 412.96 261.367 413.1 260.5 413.1ZM272.441 413.1C271.348 413.1 270.381 412.867 269.541 412.4C268.701 411.92 268.041 411.26 267.561 410.42C267.081 409.58 266.841 408.62 266.841 407.54C266.841 406.447 267.068 405.487 267.521 404.66C267.974 403.82 268.594 403.16 269.381 402.68C270.181 402.2 271.101 401.96 272.141 401.96C273.168 401.96 274.054 402.193 274.801 402.66C275.548 403.113 276.121 403.747 276.521 404.56C276.934 405.373 277.141 406.3 277.141 407.34C277.141 407.567 277.068 407.753 276.921 407.9C276.774 408.033 276.588 408.1 276.361 408.1H268.001V406.72H276.441L275.601 407.32C275.601 406.587 275.461 405.927 275.181 405.34C274.901 404.753 274.501 404.293 273.981 403.96C273.474 403.627 272.861 403.46 272.141 403.46C271.381 403.46 270.721 403.64 270.161 404C269.601 404.347 269.168 404.827 268.861 405.44C268.554 406.053 268.401 406.753 268.401 407.54C268.401 408.327 268.574 409.027 268.921 409.64C269.268 410.24 269.741 410.72 270.341 411.08C270.954 411.427 271.654 411.6 272.441 411.6C272.894 411.6 273.354 411.52 273.821 411.36C274.301 411.2 274.681 411 274.961 410.76C275.121 410.627 275.301 410.56 275.501 410.56C275.714 410.547 275.894 410.6 276.041 410.72C276.228 410.893 276.321 411.087 276.321 411.3C276.334 411.5 276.254 411.673 276.081 411.82C275.628 412.193 275.061 412.5 274.381 412.74C273.714 412.98 273.068 413.1 272.441 413.1ZM283.625 413.1C282.785 413.1 281.972 412.967 281.185 412.7C280.412 412.42 279.792 412.027 279.325 411.52C279.165 411.347 279.099 411.147 279.125 410.92C279.152 410.693 279.259 410.5 279.445 410.34C279.659 410.18 279.872 410.12 280.085 410.16C280.312 410.187 280.505 410.28 280.665 410.44C280.945 410.773 281.345 411.047 281.865 411.26C282.385 411.46 282.959 411.56 283.585 411.56C284.505 411.56 285.179 411.407 285.605 411.1C286.032 410.78 286.252 410.393 286.265 409.94C286.279 409.487 286.065 409.107 285.625 408.8C285.199 408.493 284.465 408.253 283.425 408.08C282.079 407.853 281.092 407.473 280.465 406.94C279.852 406.407 279.545 405.767 279.545 405.02C279.545 404.34 279.732 403.773 280.105 403.32C280.479 402.867 280.965 402.527 281.565 402.3C282.179 402.073 282.839 401.96 283.545 401.96C284.439 401.96 285.212 402.113 285.865 402.42C286.519 402.713 287.045 403.113 287.445 403.62C287.605 403.807 287.672 404.007 287.645 404.22C287.619 404.42 287.512 404.587 287.325 404.72C287.139 404.827 286.925 404.86 286.685 404.82C286.459 404.78 286.265 404.673 286.105 404.5C285.772 404.14 285.392 403.88 284.965 403.72C284.539 403.56 284.052 403.48 283.505 403.48C282.825 403.48 282.265 403.613 281.825 403.88C281.399 404.147 281.185 404.493 281.185 404.92C281.185 405.213 281.259 405.467 281.405 405.68C281.565 405.893 281.845 406.087 282.245 406.26C282.645 406.42 283.205 406.567 283.925 406.7C284.925 406.873 285.712 407.113 286.285 407.42C286.872 407.727 287.292 408.093 287.545 408.52C287.799 408.933 287.925 409.393 287.925 409.9C287.925 410.513 287.745 411.06 287.385 411.54C287.039 412.02 286.539 412.4 285.885 412.68C285.245 412.96 284.492 413.1 283.625 413.1Z" fill="#F2EEE3"/>
</g>
<defs>
<linearGradient id="paint0_linear" x1="180" y1="0" x2="180" y2="520" gradientUnits="userSpaceOnUse">
<stop stop-color="#E3632D"/>
<stop offset="1" stop-color="#F94E3F"/>
</linearGradient>
<clipPath id="clip0">
<rect width="360" height="520" fill="white"/>
</clipPath>
</defs>
</svg>
