<svg width="auto" height="auto" viewBox="0 0 360 520" fill="none" xmlns="http://www.w3.org/2000/svg">
<g clip-path="url(#clip0)">
<rect width="360" height="520" fill="url(#paint0_linear)"/>
<path d="M-201.588 511.03C-202.431 494.157 -194.845 468.846 -183.888 460.409L-201.588 511.03ZM-201.588 511.03C-198.217 599.618 -157.76 662.052 -93.7048 705.08L-201.588 511.03ZM69.4266 414.931L69.4206 414.928C-21.1821 377.139 -105.086 399.762 -183.271 461.195L-183.278 461.201C-188.516 465.234 -193.072 473.436 -196.214 482.872C-199.345 492.272 -201.003 502.693 -200.589 510.981L-200.589 510.992C-197.23 599.238 -156.957 661.387 -93.1472 704.25L-93.1456 704.251C-14.5784 757.243 92.0041 777.47 196.558 767.573C301.111 757.675 403.497 717.668 473.675 650.362L473.681 650.356C531.372 595.954 566.576 528.275 560.273 426.462C547.949 431.851 536.257 436.849 525.025 441.651C499.883 452.399 477.046 462.163 454.589 473.114C361.571 521.36 269.358 517.961 177.224 468.887C169.4 464.785 161.583 460.604 153.751 456.415C126.102 441.627 98.2804 426.747 69.4266 414.931Z" fill="#F2EEE3" stroke="#F2EEE3" stroke-width="2"/>
<path d="M561.936 7.92022C562.779 24.7941 555.193 50.105 544.237 58.5419L561.936 7.92022ZM561.936 7.92022C558.565 -80.6677 518.109 -143.101 454.053 -186.13L561.936 7.92022ZM290.922 104.02L290.928 104.022C381.53 141.812 465.434 119.189 543.619 57.7556L543.626 57.7496C548.864 53.7168 553.42 45.515 556.562 36.079C559.693 26.6787 561.351 16.2579 560.937 7.97012L560.937 7.95825C557.579 -80.2872 517.305 -142.436 453.495 -185.3L453.494 -185.301C374.927 -238.293 268.344 -258.52 163.79 -248.622C59.2375 -238.725 -43.1484 -198.717 -113.327 -131.411L-113.333 -131.406C-171.024 -77.0038 -206.228 -9.32442 -199.924 92.4886C-187.601 87.0999 -175.909 82.1015 -164.677 77.2997C-139.535 66.5513 -116.698 56.7881 -94.2412 45.8371C-1.22234 -2.40888 90.9902 0.989598 183.124 50.0632C190.948 54.1654 198.765 58.3467 206.597 62.5354C234.246 77.3234 262.068 92.2039 290.922 104.02Z" fill="#F2EEE3" stroke="#F2EEE3" stroke-width="2"/>
<path d="M171.197 130.814C174.506 130.814 177.105 131.638 178.996 133.285C180.901 134.918 181.854 137.16 181.854 140.01C181.854 143.261 180.815 145.811 178.738 147.658C176.676 149.506 173.826 150.43 170.188 150.43C166.65 150.43 163.95 149.864 162.088 148.732V145.295C163.09 145.939 164.337 146.448 165.826 146.82C167.316 147.178 168.784 147.357 170.23 147.357C172.751 147.357 174.706 146.763 176.096 145.574C177.499 144.385 178.201 142.667 178.201 140.418C178.201 136.035 175.516 133.844 170.145 133.844C168.784 133.844 166.965 134.051 164.688 134.467L162.84 133.285L164.021 118.59H179.641V121.877H167.072L166.277 131.309C167.924 130.979 169.564 130.814 171.197 130.814ZM207.377 134.252C207.377 139.68 206.518 143.734 204.799 146.412C203.094 149.09 200.48 150.43 196.957 150.43C193.577 150.43 191.006 149.062 189.244 146.326C187.482 143.576 186.602 139.551 186.602 134.252C186.602 128.781 187.454 124.72 189.158 122.07C190.863 119.421 193.462 118.096 196.957 118.096C200.366 118.096 202.951 119.478 204.713 122.242C206.489 125.007 207.377 129.01 207.377 134.252ZM190.211 134.252C190.211 138.821 190.748 142.151 191.822 144.242C192.896 146.319 194.608 147.357 196.957 147.357C199.335 147.357 201.053 146.305 202.113 144.199C203.188 142.079 203.725 138.764 203.725 134.252C203.725 129.74 203.188 126.439 202.113 124.348C201.053 122.242 199.335 121.189 196.957 121.189C194.608 121.189 192.896 122.228 191.822 124.305C190.748 126.367 190.211 129.683 190.211 134.252ZM223.619 133.006H232.471V135.971H223.619V145.123H220.633V135.971H211.824V133.006H220.633V123.811H223.619V133.006Z" fill="#F2EEE3"/>
<path d="M105.105 185.2C103.825 185.2 102.691 184.927 101.705 184.38C100.731 183.833 100.038 183.107 99.6247 182.2C99.518 181.987 99.5114 181.793 99.6047 181.62C99.7114 181.433 99.8847 181.307 100.125 181.24C100.311 181.187 100.491 181.207 100.665 181.3C100.851 181.393 100.991 181.533 101.085 181.72C101.391 182.307 101.898 182.787 102.605 183.16C103.311 183.533 104.145 183.72 105.105 183.72C106.158 183.72 107.025 183.467 107.705 182.96C108.398 182.44 108.745 181.693 108.745 180.72C108.745 179.907 108.445 179.207 107.845 178.62C107.245 178.033 106.305 177.66 105.025 177.5C103.465 177.313 102.245 176.833 101.365 176.06C100.485 175.273 100.045 174.313 100.045 173.18C100.045 172.367 100.258 171.66 100.685 171.06C101.125 170.46 101.725 170 102.485 169.68C103.245 169.347 104.118 169.18 105.105 169.18C106.211 169.18 107.158 169.433 107.945 169.94C108.731 170.433 109.338 171.02 109.765 171.7C109.898 171.913 109.938 172.12 109.885 172.32C109.845 172.52 109.731 172.673 109.545 172.78C109.345 172.873 109.138 172.887 108.925 172.82C108.725 172.753 108.571 172.627 108.465 172.44C108.158 171.973 107.738 171.567 107.205 171.22C106.685 170.86 105.978 170.673 105.085 170.66C104.031 170.66 103.185 170.887 102.545 171.34C101.905 171.78 101.585 172.427 101.585 173.28C101.585 173.96 101.858 174.553 102.405 175.06C102.965 175.567 103.951 175.92 105.365 176.12C107.031 176.36 108.265 176.873 109.065 177.66C109.878 178.433 110.285 179.447 110.285 180.7C110.285 181.66 110.051 182.48 109.585 183.16C109.131 183.827 108.511 184.333 107.725 184.68C106.938 185.027 106.065 185.2 105.105 185.2ZM118.107 185.12C117.16 185.12 116.314 184.927 115.567 184.54C114.82 184.14 114.227 183.56 113.787 182.8C113.36 182.04 113.147 181.113 113.147 180.02V174.82C113.147 174.607 113.22 174.427 113.367 174.28C113.514 174.133 113.694 174.06 113.907 174.06C114.134 174.06 114.32 174.133 114.467 174.28C114.614 174.427 114.687 174.607 114.687 174.82V180.02C114.687 181.247 115.027 182.16 115.707 182.76C116.387 183.36 117.24 183.66 118.267 183.66C118.92 183.66 119.507 183.533 120.027 183.28C120.56 183.027 120.98 182.68 121.287 182.24C121.594 181.8 121.747 181.3 121.747 180.74V174.82C121.747 174.593 121.814 174.413 121.947 174.28C122.094 174.133 122.28 174.06 122.507 174.06C122.734 174.06 122.92 174.133 123.067 174.28C123.214 174.413 123.287 174.593 123.287 174.82V184.22C123.287 184.46 123.214 184.653 123.067 184.8C122.92 184.933 122.734 185 122.507 185C122.28 185 122.094 184.933 121.947 184.8C121.814 184.653 121.747 184.46 121.747 184.22V183.54C121.307 184.033 120.774 184.42 120.147 184.7C119.52 184.98 118.84 185.12 118.107 185.12ZM131.762 185.1C130.709 185.1 129.769 184.86 128.942 184.38C128.129 183.887 127.482 183.22 127.002 182.38C126.535 181.54 126.302 180.593 126.302 179.54C126.302 178.473 126.529 177.52 126.982 176.68C127.435 175.84 128.055 175.18 128.842 174.7C129.629 174.207 130.535 173.96 131.562 173.96C133.229 173.96 134.582 174.6 135.622 175.88C135.769 176.04 135.822 176.213 135.782 176.4C135.742 176.573 135.629 176.727 135.442 176.86C135.295 176.967 135.129 177.007 134.942 176.98C134.769 176.94 134.615 176.84 134.482 176.68C133.709 175.8 132.735 175.36 131.562 175.36C130.815 175.36 130.155 175.54 129.582 175.9C129.022 176.26 128.582 176.753 128.262 177.38C127.955 178.007 127.802 178.727 127.802 179.54C127.802 180.34 127.969 181.053 128.302 181.68C128.635 182.307 129.102 182.8 129.702 183.16C130.302 183.52 130.989 183.7 131.762 183.7C132.829 183.7 133.689 183.413 134.342 182.84C134.502 182.707 134.669 182.633 134.842 182.62C135.015 182.607 135.175 182.66 135.322 182.78C135.482 182.927 135.569 183.093 135.582 183.28C135.609 183.467 135.549 183.627 135.402 183.76C134.429 184.653 133.215 185.1 131.762 185.1ZM143.676 185.1C142.623 185.1 141.683 184.86 140.856 184.38C140.043 183.887 139.396 183.22 138.916 182.38C138.449 181.54 138.216 180.593 138.216 179.54C138.216 178.473 138.443 177.52 138.896 176.68C139.349 175.84 139.969 175.18 140.756 174.7C141.543 174.207 142.449 173.96 143.476 173.96C145.143 173.96 146.496 174.6 147.536 175.88C147.683 176.04 147.736 176.213 147.696 176.4C147.656 176.573 147.543 176.727 147.356 176.86C147.209 176.967 147.043 177.007 146.856 176.98C146.683 176.94 146.529 176.84 146.396 176.68C145.623 175.8 144.649 175.36 143.476 175.36C142.729 175.36 142.069 175.54 141.496 175.9C140.936 176.26 140.496 176.753 140.176 177.38C139.869 178.007 139.716 178.727 139.716 179.54C139.716 180.34 139.883 181.053 140.216 181.68C140.549 182.307 141.016 182.8 141.616 183.16C142.216 183.52 142.903 183.7 143.676 183.7C144.743 183.7 145.603 183.413 146.256 182.84C146.416 182.707 146.583 182.633 146.756 182.62C146.929 182.607 147.089 182.66 147.236 182.78C147.396 182.927 147.483 183.093 147.496 183.28C147.523 183.467 147.463 183.627 147.316 183.76C146.343 184.653 145.129 185.1 143.676 185.1ZM155.67 185.1C154.59 185.1 153.63 184.867 152.79 184.4C151.963 183.92 151.31 183.26 150.83 182.42C150.363 181.58 150.13 180.62 150.13 179.54C150.13 178.447 150.35 177.487 150.79 176.66C151.243 175.82 151.863 175.16 152.65 174.68C153.437 174.2 154.343 173.96 155.37 173.96C156.383 173.96 157.263 174.193 158.01 174.66C158.77 175.113 159.357 175.747 159.77 176.56C160.183 177.373 160.39 178.3 160.39 179.34C160.39 179.553 160.323 179.727 160.19 179.86C160.057 179.98 159.883 180.04 159.67 180.04H151.59C151.67 180.76 151.89 181.4 152.25 181.96C152.61 182.507 153.083 182.94 153.67 183.26C154.257 183.567 154.923 183.72 155.67 183.72C156.15 183.72 156.63 183.64 157.11 183.48C157.603 183.307 157.997 183.093 158.29 182.84C158.437 182.72 158.603 182.66 158.79 182.66C158.977 182.647 159.137 182.693 159.27 182.8C159.443 182.96 159.53 183.133 159.53 183.32C159.543 183.507 159.47 183.667 159.31 183.8C158.87 184.173 158.31 184.487 157.63 184.74C156.95 184.98 156.297 185.1 155.67 185.1ZM155.37 175.34C154.343 175.34 153.497 175.66 152.83 176.3C152.163 176.927 151.763 177.747 151.63 178.76H158.95C158.843 177.747 158.47 176.927 157.83 176.3C157.203 175.66 156.383 175.34 155.37 175.34ZM166.815 185.1C166.029 185.1 165.249 184.967 164.475 184.7C163.702 184.433 163.075 184.033 162.595 183.5C162.449 183.34 162.389 183.16 162.415 182.96C162.442 182.76 162.542 182.587 162.715 182.44C162.902 182.307 163.095 182.253 163.295 182.28C163.495 182.307 163.662 182.393 163.795 182.54C164.115 182.913 164.535 183.2 165.055 183.4C165.589 183.6 166.175 183.7 166.815 183.7C167.802 183.7 168.515 183.533 168.955 183.2C169.395 182.853 169.622 182.44 169.635 181.96C169.635 181.48 169.409 181.087 168.955 180.78C168.502 180.46 167.755 180.213 166.715 180.04C165.369 179.827 164.382 179.453 163.755 178.92C163.129 178.387 162.815 177.753 162.815 177.02C162.815 176.34 162.995 175.773 163.355 175.32C163.715 174.867 164.195 174.527 164.795 174.3C165.395 174.073 166.055 173.96 166.775 173.96C167.669 173.96 168.435 174.113 169.075 174.42C169.729 174.727 170.255 175.14 170.655 175.66C170.789 175.833 170.842 176.013 170.815 176.2C170.789 176.387 170.682 176.54 170.495 176.66C170.335 176.753 170.149 176.787 169.935 176.76C169.735 176.72 169.562 176.62 169.415 176.46C168.762 175.713 167.869 175.34 166.735 175.34C166.002 175.34 165.415 175.493 164.975 175.8C164.535 176.093 164.315 176.467 164.315 176.92C164.315 177.373 164.509 177.747 164.895 178.04C165.295 178.333 166.042 178.573 167.135 178.76C168.135 178.92 168.922 179.16 169.495 179.48C170.082 179.787 170.495 180.153 170.735 180.58C170.989 180.993 171.115 181.447 171.115 181.94C171.115 182.567 170.929 183.12 170.555 183.6C170.195 184.067 169.689 184.433 169.035 184.7C168.395 184.967 167.655 185.1 166.815 185.1ZM177.597 185.1C176.81 185.1 176.03 184.967 175.257 184.7C174.483 184.433 173.857 184.033 173.377 183.5C173.23 183.34 173.17 183.16 173.197 182.96C173.223 182.76 173.323 182.587 173.497 182.44C173.683 182.307 173.877 182.253 174.077 182.28C174.277 182.307 174.443 182.393 174.577 182.54C174.897 182.913 175.317 183.2 175.837 183.4C176.37 183.6 176.957 183.7 177.597 183.7C178.583 183.7 179.297 183.533 179.737 183.2C180.177 182.853 180.403 182.44 180.417 181.96C180.417 181.48 180.19 181.087 179.737 180.78C179.283 180.46 178.537 180.213 177.497 180.04C176.15 179.827 175.163 179.453 174.537 178.92C173.91 178.387 173.597 177.753 173.597 177.02C173.597 176.34 173.777 175.773 174.137 175.32C174.497 174.867 174.977 174.527 175.577 174.3C176.177 174.073 176.837 173.96 177.557 173.96C178.45 173.96 179.217 174.113 179.857 174.42C180.51 174.727 181.037 175.14 181.437 175.66C181.57 175.833 181.623 176.013 181.597 176.2C181.57 176.387 181.463 176.54 181.277 176.66C181.117 176.753 180.93 176.787 180.717 176.76C180.517 176.72 180.343 176.62 180.197 176.46C179.543 175.713 178.65 175.34 177.517 175.34C176.783 175.34 176.197 175.493 175.757 175.8C175.317 176.093 175.097 176.467 175.097 176.92C175.097 177.373 175.29 177.747 175.677 178.04C176.077 178.333 176.823 178.573 177.917 178.76C178.917 178.92 179.703 179.16 180.277 179.48C180.863 179.787 181.277 180.153 181.517 180.58C181.77 180.993 181.897 181.447 181.897 181.94C181.897 182.567 181.71 183.12 181.337 183.6C180.977 184.067 180.47 184.433 179.817 184.7C179.177 184.967 178.437 185.1 177.597 185.1ZM185.918 185C185.718 185 185.544 184.933 185.398 184.8C185.251 184.653 185.178 184.46 185.178 184.22V175.8H183.898C183.684 175.8 183.511 175.74 183.378 175.62C183.258 175.487 183.198 175.327 183.198 175.14C183.198 174.94 183.258 174.78 183.378 174.66C183.511 174.527 183.684 174.46 183.898 174.46H185.178V174.08C185.178 172.68 185.538 171.547 186.258 170.68C186.978 169.813 188.018 169.38 189.378 169.38C189.604 169.38 189.791 169.447 189.938 169.58C190.084 169.713 190.158 169.88 190.158 170.08C190.158 170.28 190.084 170.447 189.938 170.58C189.791 170.713 189.604 170.78 189.378 170.78C188.471 170.78 187.798 171.087 187.358 171.7C186.931 172.3 186.718 173.067 186.718 174V174.46H189.118C189.331 174.46 189.498 174.527 189.618 174.66C189.751 174.78 189.818 174.94 189.818 175.14C189.818 175.327 189.751 175.487 189.618 175.62C189.498 175.74 189.331 175.8 189.118 175.8H186.718V184.22C186.718 184.46 186.644 184.653 186.498 184.8C186.364 184.933 186.171 185 185.918 185ZM196.642 185.12C195.695 185.12 194.849 184.927 194.102 184.54C193.355 184.14 192.762 183.56 192.322 182.8C191.895 182.04 191.682 181.113 191.682 180.02V174.82C191.682 174.607 191.755 174.427 191.902 174.28C192.049 174.133 192.229 174.06 192.442 174.06C192.669 174.06 192.855 174.133 193.002 174.28C193.149 174.427 193.222 174.607 193.222 174.82V180.02C193.222 181.247 193.562 182.16 194.242 182.76C194.922 183.36 195.775 183.66 196.802 183.66C197.455 183.66 198.042 183.533 198.562 183.28C199.095 183.027 199.515 182.68 199.822 182.24C200.129 181.8 200.282 181.3 200.282 180.74V174.82C200.282 174.593 200.349 174.413 200.482 174.28C200.629 174.133 200.815 174.06 201.042 174.06C201.269 174.06 201.455 174.133 201.602 174.28C201.749 174.413 201.822 174.593 201.822 174.82V184.22C201.822 184.46 201.749 184.653 201.602 184.8C201.455 184.933 201.269 185 201.042 185C200.815 185 200.629 184.933 200.482 184.8C200.349 184.653 200.282 184.46 200.282 184.22V183.54C199.842 184.033 199.309 184.42 198.682 184.7C198.055 184.98 197.375 185.12 196.642 185.12ZM207.777 185C206.977 185 206.317 184.68 205.797 184.04C205.277 183.387 205.017 182.553 205.017 181.54V170.14C205.017 169.913 205.084 169.733 205.217 169.6C205.364 169.453 205.551 169.38 205.777 169.38C206.004 169.38 206.184 169.453 206.317 169.6C206.464 169.733 206.537 169.913 206.537 170.14V181.54C206.537 182.113 206.651 182.58 206.877 182.94C207.117 183.3 207.417 183.48 207.777 183.48H208.277C208.477 183.48 208.637 183.553 208.757 183.7C208.877 183.833 208.937 184.013 208.937 184.24C208.937 184.467 208.851 184.653 208.677 184.8C208.517 184.933 208.304 185 208.037 185H207.777ZM217.701 189.68C217.461 189.68 217.268 189.607 217.121 189.46C216.988 189.327 216.921 189.14 216.921 188.9V179.46C216.934 178.42 217.181 177.487 217.661 176.66C218.154 175.82 218.814 175.16 219.641 174.68C220.481 174.2 221.421 173.96 222.461 173.96C223.528 173.96 224.481 174.207 225.321 174.7C226.161 175.18 226.821 175.84 227.301 176.68C227.794 177.52 228.041 178.473 228.041 179.54C228.041 180.593 227.801 181.54 227.321 182.38C226.854 183.22 226.214 183.887 225.401 184.38C224.588 184.86 223.668 185.1 222.641 185.1C221.748 185.1 220.934 184.913 220.201 184.54C219.481 184.153 218.901 183.647 218.461 183.02V188.9C218.461 189.14 218.388 189.327 218.241 189.46C218.108 189.607 217.928 189.68 217.701 189.68ZM222.461 183.7C223.234 183.7 223.928 183.52 224.541 183.16C225.154 182.8 225.634 182.307 225.981 181.68C226.341 181.04 226.521 180.327 226.521 179.54C226.521 178.74 226.341 178.027 225.981 177.4C225.634 176.773 225.154 176.28 224.541 175.92C223.928 175.547 223.234 175.36 222.461 175.36C221.701 175.36 221.014 175.547 220.401 175.92C219.788 176.28 219.308 176.773 218.961 177.4C218.614 178.027 218.441 178.74 218.441 179.54C218.441 180.327 218.614 181.04 218.961 181.68C219.308 182.307 219.788 182.8 220.401 183.16C221.014 183.52 221.701 183.7 222.461 183.7ZM231.822 185C231.315 185 231.062 184.747 231.062 184.24V174.82C231.062 174.313 231.315 174.06 231.822 174.06C232.328 174.06 232.582 174.313 232.582 174.82V175.68C232.982 175.147 233.475 174.727 234.062 174.42C234.648 174.1 235.295 173.94 236.002 173.94C236.615 173.94 237.088 174.027 237.422 174.2C237.755 174.373 237.882 174.627 237.802 174.96C237.735 175.267 237.575 175.427 237.322 175.44C237.082 175.44 236.795 175.427 236.462 175.4C235.715 175.333 235.048 175.413 234.462 175.64C233.888 175.853 233.428 176.187 233.082 176.64C232.748 177.093 232.582 177.633 232.582 178.26V184.24C232.582 184.747 232.328 185 231.822 185ZM244.401 185.1C243.334 185.1 242.381 184.86 241.541 184.38C240.701 183.9 240.041 183.24 239.561 182.4C239.081 181.56 238.841 180.607 238.841 179.54C238.841 178.46 239.081 177.5 239.561 176.66C240.041 175.82 240.701 175.16 241.541 174.68C242.381 174.2 243.334 173.96 244.401 173.96C245.468 173.96 246.414 174.2 247.241 174.68C248.081 175.16 248.741 175.82 249.221 176.66C249.701 177.5 249.948 178.46 249.961 179.54C249.961 180.607 249.714 181.56 249.221 182.4C248.741 183.24 248.081 183.9 247.241 184.38C246.414 184.86 245.468 185.1 244.401 185.1ZM244.401 183.7C245.174 183.7 245.868 183.52 246.481 183.16C247.094 182.8 247.574 182.307 247.921 181.68C248.268 181.053 248.441 180.34 248.441 179.54C248.441 178.74 248.268 178.027 247.921 177.4C247.574 176.76 247.094 176.26 246.481 175.9C245.868 175.54 245.174 175.36 244.401 175.36C243.628 175.36 242.934 175.54 242.321 175.9C241.708 176.26 241.221 176.76 240.861 177.4C240.514 178.027 240.341 178.74 240.341 179.54C240.341 180.34 240.514 181.053 240.861 181.68C241.221 182.307 241.708 182.8 242.321 183.16C242.934 183.52 243.628 183.7 244.401 183.7ZM250.056 189.68C249.83 189.68 249.643 189.607 249.496 189.46C249.35 189.327 249.276 189.14 249.276 188.9C249.276 188.673 249.35 188.487 249.496 188.34C249.643 188.193 249.83 188.12 250.056 188.12C250.976 188.12 251.73 187.827 252.316 187.24C252.903 186.653 253.196 185.907 253.196 185V174.84C253.196 174.6 253.263 174.413 253.396 174.28C253.543 174.133 253.73 174.06 253.956 174.06C254.183 174.06 254.37 174.133 254.516 174.28C254.663 174.413 254.736 174.6 254.736 174.84V185C254.736 185.907 254.536 186.713 254.136 187.42C253.736 188.127 253.183 188.68 252.476 189.08C251.77 189.48 250.963 189.68 250.056 189.68ZM253.936 171.98C253.643 171.98 253.39 171.873 253.176 171.66C252.963 171.447 252.856 171.187 252.856 170.88C252.856 170.547 252.963 170.287 253.176 170.1C253.403 169.9 253.663 169.8 253.956 169.8C254.236 169.8 254.483 169.9 254.696 170.1C254.923 170.287 255.036 170.547 255.036 170.88C255.036 171.187 254.93 171.447 254.716 171.66C254.503 171.873 254.243 171.98 253.936 171.98ZM262.819 185.1C261.739 185.1 260.779 184.867 259.939 184.4C259.112 183.92 258.459 183.26 257.979 182.42C257.512 181.58 257.279 180.62 257.279 179.54C257.279 178.447 257.499 177.487 257.939 176.66C258.392 175.82 259.012 175.16 259.799 174.68C260.585 174.2 261.492 173.96 262.519 173.96C263.532 173.96 264.412 174.193 265.159 174.66C265.919 175.113 266.505 175.747 266.919 176.56C267.332 177.373 267.539 178.3 267.539 179.34C267.539 179.553 267.472 179.727 267.339 179.86C267.205 179.98 267.032 180.04 266.819 180.04H258.739C258.819 180.76 259.039 181.4 259.399 181.96C259.759 182.507 260.232 182.94 260.819 183.26C261.405 183.567 262.072 183.72 262.819 183.72C263.299 183.72 263.779 183.64 264.259 183.48C264.752 183.307 265.145 183.093 265.439 182.84C265.585 182.72 265.752 182.66 265.939 182.66C266.125 182.647 266.285 182.693 266.419 182.8C266.592 182.96 266.679 183.133 266.679 183.32C266.692 183.507 266.619 183.667 266.459 183.8C266.019 184.173 265.459 184.487 264.779 184.74C264.099 184.98 263.445 185.1 262.819 185.1ZM262.519 175.34C261.492 175.34 260.645 175.66 259.979 176.3C259.312 176.927 258.912 177.747 258.779 178.76H266.099C265.992 177.747 265.619 176.927 264.979 176.3C264.352 175.66 263.532 175.34 262.519 175.34ZM274.633 185.1C273.58 185.1 272.64 184.86 271.813 184.38C271 183.887 270.353 183.22 269.873 182.38C269.406 181.54 269.173 180.593 269.173 179.54C269.173 178.473 269.4 177.52 269.853 176.68C270.306 175.84 270.926 175.18 271.713 174.7C272.5 174.207 273.406 173.96 274.433 173.96C276.1 173.96 277.453 174.6 278.493 175.88C278.64 176.04 278.693 176.213 278.653 176.4C278.613 176.573 278.5 176.727 278.313 176.86C278.166 176.967 278 177.007 277.813 176.98C277.64 176.94 277.486 176.84 277.353 176.68C276.58 175.8 275.606 175.36 274.433 175.36C273.686 175.36 273.026 175.54 272.453 175.9C271.893 176.26 271.453 176.753 271.133 177.38C270.826 178.007 270.673 178.727 270.673 179.54C270.673 180.34 270.84 181.053 271.173 181.68C271.506 182.307 271.973 182.8 272.573 183.16C273.173 183.52 273.86 183.7 274.633 183.7C275.7 183.7 276.56 183.413 277.213 182.84C277.373 182.707 277.54 182.633 277.713 182.62C277.886 182.607 278.046 182.66 278.193 182.78C278.353 182.927 278.44 183.093 278.453 183.28C278.48 183.467 278.42 183.627 278.273 183.76C277.3 184.653 276.086 185.1 274.633 185.1ZM285.947 185C285.241 185 284.607 184.833 284.047 184.5C283.501 184.167 283.067 183.713 282.747 183.14C282.427 182.553 282.267 181.887 282.267 181.14V175.8H280.967C280.767 175.8 280.601 175.74 280.467 175.62C280.334 175.487 280.267 175.327 280.267 175.14C280.267 174.94 280.334 174.78 280.467 174.66C280.601 174.527 280.767 174.46 280.967 174.46H282.267V171.36C282.267 171.133 282.334 170.947 282.467 170.8C282.614 170.653 282.801 170.58 283.027 170.58C283.254 170.58 283.441 170.653 283.587 170.8C283.734 170.947 283.807 171.133 283.807 171.36V174.46H286.067C286.267 174.46 286.434 174.527 286.567 174.66C286.701 174.78 286.767 174.94 286.767 175.14C286.767 175.327 286.701 175.487 286.567 175.62C286.434 175.74 286.267 175.8 286.067 175.8H283.807V181.14C283.807 181.82 284.007 182.38 284.407 182.82C284.807 183.247 285.321 183.46 285.947 183.46H286.487C286.701 183.46 286.874 183.533 287.007 183.68C287.141 183.827 287.207 184.013 287.207 184.24C287.207 184.467 287.127 184.653 286.967 184.8C286.807 184.933 286.607 185 286.367 185H285.947ZM293.534 185.1C292.747 185.1 291.967 184.967 291.194 184.7C290.421 184.433 289.794 184.033 289.314 183.5C289.167 183.34 289.107 183.16 289.134 182.96C289.161 182.76 289.261 182.587 289.434 182.44C289.621 182.307 289.814 182.253 290.014 182.28C290.214 182.307 290.381 182.393 290.514 182.54C290.834 182.913 291.254 183.2 291.774 183.4C292.307 183.6 292.894 183.7 293.534 183.7C294.521 183.7 295.234 183.533 295.674 183.2C296.114 182.853 296.341 182.44 296.354 181.96C296.354 181.48 296.127 181.087 295.674 180.78C295.221 180.46 294.474 180.213 293.434 180.04C292.087 179.827 291.101 179.453 290.474 178.92C289.847 178.387 289.534 177.753 289.534 177.02C289.534 176.34 289.714 175.773 290.074 175.32C290.434 174.867 290.914 174.527 291.514 174.3C292.114 174.073 292.774 173.96 293.494 173.96C294.387 173.96 295.154 174.113 295.794 174.42C296.447 174.727 296.974 175.14 297.374 175.66C297.507 175.833 297.561 176.013 297.534 176.2C297.507 176.387 297.401 176.54 297.214 176.66C297.054 176.753 296.867 176.787 296.654 176.76C296.454 176.72 296.281 176.62 296.134 176.46C295.481 175.713 294.587 175.34 293.454 175.34C292.721 175.34 292.134 175.493 291.694 175.8C291.254 176.093 291.034 176.467 291.034 176.92C291.034 177.373 291.227 177.747 291.614 178.04C292.014 178.333 292.761 178.573 293.854 178.76C294.854 178.92 295.641 179.16 296.214 179.48C296.801 179.787 297.214 180.153 297.454 180.58C297.707 180.993 297.834 181.447 297.834 181.94C297.834 182.567 297.647 183.12 297.274 183.6C296.914 184.067 296.407 184.433 295.754 184.7C295.114 184.967 294.374 185.1 293.534 185.1Z" fill="#F2EEE3"/>
<path d="M170.936 261H150.289V257.928L158.561 249.613C161.081 247.064 162.743 245.245 163.545 244.156C164.347 243.068 164.949 242.008 165.35 240.977C165.751 239.945 165.951 238.835 165.951 237.646C165.951 235.971 165.443 234.646 164.426 233.672C163.409 232.684 161.998 232.189 160.193 232.189C158.89 232.189 157.651 232.404 156.477 232.834C155.316 233.264 154.02 234.044 152.588 235.176L150.697 232.748C153.59 230.342 156.742 229.139 160.15 229.139C163.101 229.139 165.414 229.898 167.09 231.416C168.766 232.92 169.604 234.947 169.604 237.496C169.604 239.487 169.045 241.456 167.928 243.404C166.811 245.352 164.719 247.816 161.654 250.795L154.779 257.52V257.691H170.936V261ZM197.598 253.781H192.936V261H189.52V253.781H174.244V250.666L189.154 229.418H192.936V250.537H197.598V253.781ZM189.52 250.537V240.096C189.52 238.048 189.591 235.734 189.734 233.156H189.562C188.875 234.531 188.23 235.67 187.629 236.572L177.811 250.537H189.52ZM211.047 229.139C213.911 229.139 216.182 229.805 217.857 231.137C219.533 232.469 220.371 234.309 220.371 236.658C220.371 238.205 219.891 239.616 218.932 240.891C217.972 242.165 216.439 243.326 214.334 244.371C216.883 245.589 218.695 246.87 219.77 248.217C220.844 249.549 221.381 251.096 221.381 252.857C221.381 255.464 220.471 257.548 218.652 259.109C216.833 260.656 214.341 261.43 211.176 261.43C207.824 261.43 205.246 260.699 203.441 259.238C201.637 257.763 200.734 255.679 200.734 252.986C200.734 249.391 202.926 246.591 207.309 244.586C205.332 243.469 203.914 242.266 203.055 240.977C202.195 239.673 201.766 238.219 201.766 236.615C201.766 234.338 202.604 232.526 204.279 231.18C205.969 229.819 208.225 229.139 211.047 229.139ZM204.258 253.072C204.258 254.791 204.852 256.13 206.041 257.09C207.244 258.049 208.927 258.529 211.09 258.529C213.224 258.529 214.885 258.028 216.074 257.025C217.263 256.023 217.857 254.648 217.857 252.9C217.857 251.511 217.299 250.279 216.182 249.205C215.064 248.117 213.117 247.064 210.338 246.047C208.204 246.964 206.657 247.98 205.697 249.098C204.738 250.201 204.258 251.525 204.258 253.072ZM211.004 232.039C209.214 232.039 207.81 232.469 206.793 233.328C205.776 234.188 205.268 235.333 205.268 236.766C205.268 238.083 205.69 239.215 206.535 240.16C207.38 241.105 208.941 242.051 211.219 242.996C213.267 242.137 214.714 241.213 215.559 240.225C216.418 239.236 216.848 238.083 216.848 236.766C216.848 235.319 216.325 234.173 215.279 233.328C214.248 232.469 212.823 232.039 211.004 232.039ZM237.709 244.006H246.561V246.971H237.709V256.123H234.723V246.971H225.914V244.006H234.723V234.811H237.709V244.006Z" fill="#F2EEE3"/>
<path d="M132.344 299.2C131.264 299.2 130.251 298.993 129.304 298.58C128.371 298.167 127.544 297.593 126.824 296.86C126.118 296.113 125.564 295.26 125.164 294.3C124.764 293.327 124.564 292.287 124.564 291.18C124.564 290.087 124.758 289.06 125.144 288.1C125.544 287.127 126.098 286.273 126.804 285.54C127.524 284.807 128.351 284.233 129.284 283.82C130.231 283.393 131.251 283.18 132.344 283.18C133.304 283.18 134.178 283.32 134.964 283.6C135.751 283.88 136.511 284.327 137.244 284.94C137.418 285.073 137.491 285.247 137.464 285.46C137.438 285.66 137.338 285.8 137.164 285.88C137.124 286.04 136.998 286.14 136.784 286.18C136.584 286.22 136.384 286.16 136.184 286C135.664 285.547 135.098 285.213 134.484 285C133.871 284.773 133.158 284.66 132.344 284.66C131.478 284.66 130.664 284.833 129.904 285.18C129.158 285.527 128.498 286 127.924 286.6C127.351 287.2 126.898 287.893 126.564 288.68C126.244 289.467 126.084 290.3 126.084 291.18C126.084 292.087 126.244 292.933 126.564 293.72C126.898 294.507 127.351 295.2 127.924 295.8C128.498 296.4 129.158 296.873 129.904 297.22C130.664 297.553 131.478 297.72 132.344 297.72C133.784 297.72 135.098 297.253 136.284 296.32C136.524 296.133 136.778 296.107 137.044 296.24C137.324 296.373 137.464 296.6 137.464 296.92C137.464 297.133 137.391 297.32 137.244 297.48C136.564 298.107 135.804 298.553 134.964 298.82C134.124 299.073 133.251 299.2 132.344 299.2ZM145.314 299.12C144.367 299.12 143.521 298.927 142.774 298.54C142.027 298.14 141.434 297.56 140.994 296.8C140.567 296.04 140.354 295.113 140.354 294.02V288.82C140.354 288.607 140.427 288.427 140.574 288.28C140.721 288.133 140.901 288.06 141.114 288.06C141.341 288.06 141.527 288.133 141.674 288.28C141.821 288.427 141.894 288.607 141.894 288.82V294.02C141.894 295.247 142.234 296.16 142.914 296.76C143.594 297.36 144.447 297.66 145.474 297.66C146.127 297.66 146.714 297.533 147.234 297.28C147.767 297.027 148.187 296.68 148.494 296.24C148.801 295.8 148.954 295.3 148.954 294.74V288.82C148.954 288.593 149.021 288.413 149.154 288.28C149.301 288.133 149.487 288.06 149.714 288.06C149.941 288.06 150.127 288.133 150.274 288.28C150.421 288.413 150.494 288.593 150.494 288.82V298.22C150.494 298.46 150.421 298.653 150.274 298.8C150.127 298.933 149.941 299 149.714 299C149.487 299 149.301 298.933 149.154 298.8C149.021 298.653 148.954 298.46 148.954 298.22V297.54C148.514 298.033 147.981 298.42 147.354 298.7C146.727 298.98 146.047 299.12 145.314 299.12ZM154.869 303.68C154.629 303.68 154.436 303.607 154.289 303.46C154.156 303.327 154.089 303.14 154.089 302.9V293.46C154.102 292.42 154.349 291.487 154.829 290.66C155.322 289.82 155.982 289.16 156.809 288.68C157.649 288.2 158.589 287.96 159.629 287.96C160.696 287.96 161.649 288.207 162.489 288.7C163.329 289.18 163.989 289.84 164.469 290.68C164.962 291.52 165.209 292.473 165.209 293.54C165.209 294.593 164.969 295.54 164.489 296.38C164.022 297.22 163.382 297.887 162.569 298.38C161.756 298.86 160.836 299.1 159.809 299.1C158.916 299.1 158.102 298.913 157.369 298.54C156.649 298.153 156.069 297.647 155.629 297.02V302.9C155.629 303.14 155.556 303.327 155.409 303.46C155.276 303.607 155.096 303.68 154.869 303.68ZM159.629 297.7C160.402 297.7 161.096 297.52 161.709 297.16C162.322 296.8 162.802 296.307 163.149 295.68C163.509 295.04 163.689 294.327 163.689 293.54C163.689 292.74 163.509 292.027 163.149 291.4C162.802 290.773 162.322 290.28 161.709 289.92C161.096 289.547 160.402 289.36 159.629 289.36C158.869 289.36 158.182 289.547 157.569 289.92C156.956 290.28 156.476 290.773 156.129 291.4C155.782 292.027 155.609 292.74 155.609 293.54C155.609 294.327 155.782 295.04 156.129 295.68C156.476 296.307 156.956 296.8 157.569 297.16C158.182 297.52 158.869 297.7 159.629 297.7ZM172.05 299.1C171.263 299.1 170.483 298.967 169.71 298.7C168.936 298.433 168.31 298.033 167.83 297.5C167.683 297.34 167.623 297.16 167.65 296.96C167.676 296.76 167.776 296.587 167.95 296.44C168.136 296.307 168.33 296.253 168.53 296.28C168.73 296.307 168.896 296.393 169.03 296.54C169.35 296.913 169.77 297.2 170.29 297.4C170.823 297.6 171.41 297.7 172.05 297.7C173.036 297.7 173.75 297.533 174.19 297.2C174.63 296.853 174.856 296.44 174.87 295.96C174.87 295.48 174.643 295.087 174.19 294.78C173.736 294.46 172.99 294.213 171.95 294.04C170.603 293.827 169.616 293.453 168.99 292.92C168.363 292.387 168.05 291.753 168.05 291.02C168.05 290.34 168.23 289.773 168.59 289.32C168.95 288.867 169.43 288.527 170.03 288.3C170.63 288.073 171.29 287.96 172.01 287.96C172.903 287.96 173.67 288.113 174.31 288.42C174.963 288.727 175.49 289.14 175.89 289.66C176.023 289.833 176.076 290.013 176.05 290.2C176.023 290.387 175.916 290.54 175.73 290.66C175.57 290.753 175.383 290.787 175.17 290.76C174.97 290.72 174.796 290.62 174.65 290.46C173.996 289.713 173.103 289.34 171.97 289.34C171.236 289.34 170.65 289.493 170.21 289.8C169.77 290.093 169.55 290.467 169.55 290.92C169.55 291.373 169.743 291.747 170.13 292.04C170.53 292.333 171.276 292.573 172.37 292.76C173.37 292.92 174.156 293.16 174.73 293.48C175.316 293.787 175.73 294.153 175.97 294.58C176.223 294.993 176.35 295.447 176.35 295.94C176.35 296.567 176.163 297.12 175.79 297.6C175.43 298.067 174.923 298.433 174.27 298.7C173.63 298.967 172.89 299.1 172.05 299.1ZM189.85 299.1C188.784 299.1 187.83 298.86 186.99 298.38C186.15 297.9 185.49 297.24 185.01 296.4C184.53 295.56 184.29 294.607 184.29 293.54C184.29 292.46 184.53 291.5 185.01 290.66C185.49 289.82 186.15 289.16 186.99 288.68C187.83 288.2 188.784 287.96 189.85 287.96C190.917 287.96 191.864 288.2 192.69 288.68C193.53 289.16 194.19 289.82 194.67 290.66C195.15 291.5 195.397 292.46 195.41 293.54C195.41 294.607 195.164 295.56 194.67 296.4C194.19 297.24 193.53 297.9 192.69 298.38C191.864 298.86 190.917 299.1 189.85 299.1ZM189.85 297.7C190.624 297.7 191.317 297.52 191.93 297.16C192.544 296.8 193.024 296.307 193.37 295.68C193.717 295.053 193.89 294.34 193.89 293.54C193.89 292.74 193.717 292.027 193.37 291.4C193.024 290.76 192.544 290.26 191.93 289.9C191.317 289.54 190.624 289.36 189.85 289.36C189.077 289.36 188.384 289.54 187.77 289.9C187.157 290.26 186.67 290.76 186.31 291.4C185.964 292.027 185.79 292.74 185.79 293.54C185.79 294.34 185.964 295.053 186.31 295.68C186.67 296.307 187.157 296.8 187.77 297.16C188.384 297.52 189.077 297.7 189.85 297.7ZM199.765 299C199.565 299 199.392 298.933 199.245 298.8C199.099 298.653 199.025 298.46 199.025 298.22V289.8H197.745C197.532 289.8 197.359 289.74 197.225 289.62C197.105 289.487 197.045 289.327 197.045 289.14C197.045 288.94 197.105 288.78 197.225 288.66C197.359 288.527 197.532 288.46 197.745 288.46H199.025V288.08C199.025 286.68 199.385 285.547 200.105 284.68C200.825 283.813 201.865 283.38 203.225 283.38C203.452 283.38 203.639 283.447 203.785 283.58C203.932 283.713 204.005 283.88 204.005 284.08C204.005 284.28 203.932 284.447 203.785 284.58C203.639 284.713 203.452 284.78 203.225 284.78C202.319 284.78 201.645 285.087 201.205 285.7C200.779 286.3 200.565 287.067 200.565 288V288.46H202.965C203.179 288.46 203.345 288.527 203.465 288.66C203.599 288.78 203.665 288.94 203.665 289.14C203.665 289.327 203.599 289.487 203.465 289.62C203.345 289.74 203.179 289.8 202.965 289.8H200.565V298.22C200.565 298.46 200.492 298.653 200.345 298.8C200.212 298.933 200.019 299 199.765 299ZM216.469 299.1C215.416 299.1 214.476 298.86 213.649 298.38C212.836 297.887 212.189 297.22 211.709 296.38C211.242 295.54 211.009 294.593 211.009 293.54C211.009 292.473 211.236 291.52 211.689 290.68C212.142 289.84 212.762 289.18 213.549 288.7C214.336 288.207 215.242 287.96 216.269 287.96C217.936 287.96 219.289 288.6 220.329 289.88C220.476 290.04 220.529 290.213 220.489 290.4C220.449 290.573 220.336 290.727 220.149 290.86C220.002 290.967 219.836 291.007 219.649 290.98C219.476 290.94 219.322 290.84 219.189 290.68C218.416 289.8 217.442 289.36 216.269 289.36C215.522 289.36 214.862 289.54 214.289 289.9C213.729 290.26 213.289 290.753 212.969 291.38C212.662 292.007 212.509 292.727 212.509 293.54C212.509 294.34 212.676 295.053 213.009 295.68C213.342 296.307 213.809 296.8 214.409 297.16C215.009 297.52 215.696 297.7 216.469 297.7C217.536 297.7 218.396 297.413 219.049 296.84C219.209 296.707 219.376 296.633 219.549 296.62C219.722 296.607 219.882 296.66 220.029 296.78C220.189 296.927 220.276 297.093 220.289 297.28C220.316 297.467 220.256 297.627 220.109 297.76C219.136 298.653 217.922 299.1 216.469 299.1ZM228.483 299.1C227.416 299.1 226.463 298.86 225.623 298.38C224.783 297.9 224.123 297.24 223.643 296.4C223.163 295.56 222.923 294.607 222.923 293.54C222.923 292.46 223.163 291.5 223.643 290.66C224.123 289.82 224.783 289.16 225.623 288.68C226.463 288.2 227.416 287.96 228.483 287.96C229.55 287.96 230.496 288.2 231.323 288.68C232.163 289.16 232.823 289.82 233.303 290.66C233.783 291.5 234.03 292.46 234.043 293.54C234.043 294.607 233.796 295.56 233.303 296.4C232.823 297.24 232.163 297.9 231.323 298.38C230.496 298.86 229.55 299.1 228.483 299.1ZM228.483 297.7C229.256 297.7 229.95 297.52 230.563 297.16C231.176 296.8 231.656 296.307 232.003 295.68C232.35 295.053 232.523 294.34 232.523 293.54C232.523 292.74 232.35 292.027 232.003 291.4C231.656 290.76 231.176 290.26 230.563 289.9C229.95 289.54 229.256 289.36 228.483 289.36C227.71 289.36 227.016 289.54 226.403 289.9C225.79 290.26 225.303 290.76 224.943 291.4C224.596 292.027 224.423 292.74 224.423 293.54C224.423 294.34 224.596 295.053 224.943 295.68C225.303 296.307 225.79 296.8 226.403 297.16C227.016 297.52 227.71 297.7 228.483 297.7ZM238.398 299C238.198 299 238.025 298.933 237.878 298.8C237.732 298.653 237.658 298.46 237.658 298.22V289.8H236.378C236.165 289.8 235.992 289.74 235.858 289.62C235.738 289.487 235.678 289.327 235.678 289.14C235.678 288.94 235.738 288.78 235.858 288.66C235.992 288.527 236.165 288.46 236.378 288.46H237.658V288.08C237.658 286.68 238.018 285.547 238.738 284.68C239.458 283.813 240.498 283.38 241.858 283.38C242.085 283.38 242.272 283.447 242.418 283.58C242.565 283.713 242.638 283.88 242.638 284.08C242.638 284.28 242.565 284.447 242.418 284.58C242.272 284.713 242.085 284.78 241.858 284.78C240.952 284.78 240.278 285.087 239.838 285.7C239.412 286.3 239.198 287.067 239.198 288V288.46H241.598C241.812 288.46 241.978 288.527 242.098 288.66C242.232 288.78 242.298 288.94 242.298 289.14C242.298 289.327 242.232 289.487 242.098 289.62C241.978 289.74 241.812 289.8 241.598 289.8H239.198V298.22C239.198 298.46 239.125 298.653 238.978 298.8C238.845 298.933 238.652 299 238.398 299ZM245.718 299C245.518 299 245.345 298.933 245.198 298.8C245.052 298.653 244.978 298.46 244.978 298.22V289.8H243.698C243.485 289.8 243.312 289.74 243.178 289.62C243.058 289.487 242.998 289.327 242.998 289.14C242.998 288.94 243.058 288.78 243.178 288.66C243.312 288.527 243.485 288.46 243.698 288.46H244.978V288.08C244.978 286.68 245.338 285.547 246.058 284.68C246.778 283.813 247.818 283.38 249.178 283.38C249.405 283.38 249.592 283.447 249.738 283.58C249.885 283.713 249.958 283.88 249.958 284.08C249.958 284.28 249.885 284.447 249.738 284.58C249.592 284.713 249.405 284.78 249.178 284.78C248.272 284.78 247.598 285.087 247.158 285.7C246.732 286.3 246.518 287.067 246.518 288V288.46H248.918C249.132 288.46 249.298 288.527 249.418 288.66C249.552 288.78 249.618 288.94 249.618 289.14C249.618 289.327 249.552 289.487 249.418 289.62C249.298 289.74 249.132 289.8 248.918 289.8H246.518V298.22C246.518 298.46 246.445 298.653 246.298 298.8C246.165 298.933 245.972 299 245.718 299ZM256.256 299.1C255.176 299.1 254.216 298.867 253.376 298.4C252.549 297.92 251.896 297.26 251.416 296.42C250.949 295.58 250.716 294.62 250.716 293.54C250.716 292.447 250.936 291.487 251.376 290.66C251.829 289.82 252.449 289.16 253.236 288.68C254.023 288.2 254.929 287.96 255.956 287.96C256.969 287.96 257.849 288.193 258.596 288.66C259.356 289.113 259.943 289.747 260.356 290.56C260.769 291.373 260.976 292.3 260.976 293.34C260.976 293.553 260.909 293.727 260.776 293.86C260.643 293.98 260.469 294.04 260.256 294.04H252.176C252.256 294.76 252.476 295.4 252.836 295.96C253.196 296.507 253.669 296.94 254.256 297.26C254.843 297.567 255.509 297.72 256.256 297.72C256.736 297.72 257.216 297.64 257.696 297.48C258.189 297.307 258.583 297.093 258.876 296.84C259.023 296.72 259.189 296.66 259.376 296.66C259.563 296.647 259.723 296.693 259.856 296.8C260.029 296.96 260.116 297.133 260.116 297.32C260.129 297.507 260.056 297.667 259.896 297.8C259.456 298.173 258.896 298.487 258.216 298.74C257.536 298.98 256.883 299.1 256.256 299.1ZM255.956 289.34C254.929 289.34 254.083 289.66 253.416 290.3C252.749 290.927 252.349 291.747 252.216 292.76H259.536C259.429 291.747 259.056 290.927 258.416 290.3C257.789 289.66 256.969 289.34 255.956 289.34ZM268.151 299.1C267.071 299.1 266.111 298.867 265.271 298.4C264.444 297.92 263.791 297.26 263.311 296.42C262.844 295.58 262.611 294.62 262.611 293.54C262.611 292.447 262.831 291.487 263.271 290.66C263.724 289.82 264.344 289.16 265.131 288.68C265.917 288.2 266.824 287.96 267.851 287.96C268.864 287.96 269.744 288.193 270.491 288.66C271.251 289.113 271.837 289.747 272.251 290.56C272.664 291.373 272.871 292.3 272.871 293.34C272.871 293.553 272.804 293.727 272.671 293.86C272.537 293.98 272.364 294.04 272.151 294.04H264.071C264.151 294.76 264.371 295.4 264.731 295.96C265.091 296.507 265.564 296.94 266.151 297.26C266.737 297.567 267.404 297.72 268.151 297.72C268.631 297.72 269.111 297.64 269.591 297.48C270.084 297.307 270.477 297.093 270.771 296.84C270.917 296.72 271.084 296.66 271.271 296.66C271.457 296.647 271.617 296.693 271.751 296.8C271.924 296.96 272.011 297.133 272.011 297.32C272.024 297.507 271.951 297.667 271.791 297.8C271.351 298.173 270.791 298.487 270.111 298.74C269.431 298.98 268.777 299.1 268.151 299.1ZM267.851 289.34C266.824 289.34 265.977 289.66 265.311 290.3C264.644 290.927 264.244 291.747 264.111 292.76H271.431C271.324 291.747 270.951 290.927 270.311 290.3C269.684 289.66 268.864 289.34 267.851 289.34Z" fill="#F2EEE3"/>
<path d="M197.598 367.781H192.936V375H189.52V367.781H174.244V364.666L189.154 343.418H192.936V364.537H197.598V367.781ZM189.52 364.537V354.096C189.52 352.048 189.591 349.734 189.734 347.156H189.562C188.875 348.531 188.23 349.67 187.629 350.572L177.811 364.537H189.52ZM212.529 358.006H221.381V360.971H212.529V370.123H209.543V360.971H200.734V358.006H209.543V348.811H212.529V358.006Z" fill="#F2EEE3"/>
<path d="M105.093 413C104.866 413 104.679 412.927 104.533 412.78C104.386 412.633 104.313 412.447 104.313 412.22V398.16C104.313 397.933 104.386 397.747 104.533 397.6C104.679 397.453 104.866 397.38 105.093 397.38H108.693C109.839 397.38 110.886 397.573 111.833 397.96C112.793 398.333 113.619 398.873 114.313 399.58C115.006 400.273 115.539 401.093 115.913 402.04C116.299 402.987 116.493 404.033 116.493 405.18C116.493 406.327 116.299 407.38 115.913 408.34C115.539 409.287 115.006 410.113 114.313 410.82C113.619 411.513 112.793 412.053 111.833 412.44C110.886 412.813 109.839 413 108.693 413H105.093ZM105.873 411.6H108.693C109.919 411.6 110.999 411.327 111.933 410.78C112.879 410.22 113.619 409.46 114.153 408.5C114.686 407.527 114.953 406.42 114.953 405.18C114.953 403.94 114.686 402.84 114.153 401.88C113.619 400.907 112.879 400.147 111.933 399.6C110.999 399.053 109.919 398.78 108.693 398.78H105.873V411.6ZM120.603 413C120.363 413 120.17 412.933 120.023 412.8C119.89 412.653 119.823 412.46 119.823 412.22V402.84C119.823 402.6 119.89 402.413 120.023 402.28C120.17 402.133 120.363 402.06 120.603 402.06C120.83 402.06 121.01 402.133 121.143 402.28C121.29 402.413 121.363 402.6 121.363 402.84V412.22C121.363 412.46 121.29 412.653 121.143 412.8C121.01 412.933 120.83 413 120.603 413ZM120.583 399.98C120.29 399.98 120.036 399.873 119.823 399.66C119.61 399.447 119.503 399.187 119.503 398.88C119.503 398.547 119.61 398.287 119.823 398.1C120.05 397.9 120.31 397.8 120.603 397.8C120.883 397.8 121.13 397.9 121.343 398.1C121.57 398.287 121.683 398.547 121.683 398.88C121.683 399.187 121.576 399.447 121.363 399.66C121.15 399.873 120.89 399.98 120.583 399.98ZM126.644 413C126.444 413 126.271 412.933 126.124 412.8C125.978 412.653 125.904 412.46 125.904 412.22V403.8H124.624C124.411 403.8 124.238 403.74 124.104 403.62C123.984 403.487 123.924 403.327 123.924 403.14C123.924 402.94 123.984 402.78 124.104 402.66C124.238 402.527 124.411 402.46 124.624 402.46H125.904V402.08C125.904 400.68 126.264 399.547 126.984 398.68C127.704 397.813 128.744 397.38 130.104 397.38C130.331 397.38 130.518 397.447 130.664 397.58C130.811 397.713 130.884 397.88 130.884 398.08C130.884 398.28 130.811 398.447 130.664 398.58C130.518 398.713 130.331 398.78 130.104 398.78C129.198 398.78 128.524 399.087 128.084 399.7C127.658 400.3 127.444 401.067 127.444 402V402.46H129.844C130.058 402.46 130.224 402.527 130.344 402.66C130.478 402.78 130.544 402.94 130.544 403.14C130.544 403.327 130.478 403.487 130.344 403.62C130.224 403.74 130.058 403.8 129.844 403.8H127.444V412.22C127.444 412.46 127.371 412.653 127.224 412.8C127.091 412.933 126.898 413 126.644 413ZM133.964 413C133.764 413 133.591 412.933 133.444 412.8C133.298 412.653 133.224 412.46 133.224 412.22V403.8H131.944C131.731 403.8 131.558 403.74 131.424 403.62C131.304 403.487 131.244 403.327 131.244 403.14C131.244 402.94 131.304 402.78 131.424 402.66C131.558 402.527 131.731 402.46 131.944 402.46H133.224V402.08C133.224 400.68 133.584 399.547 134.304 398.68C135.024 397.813 136.064 397.38 137.424 397.38C137.651 397.38 137.838 397.447 137.984 397.58C138.131 397.713 138.204 397.88 138.204 398.08C138.204 398.28 138.131 398.447 137.984 398.58C137.838 398.713 137.651 398.78 137.424 398.78C136.518 398.78 135.844 399.087 135.404 399.7C134.978 400.3 134.764 401.067 134.764 402V402.46H137.164C137.378 402.46 137.544 402.527 137.664 402.66C137.798 402.78 137.864 402.94 137.864 403.14C137.864 403.327 137.798 403.487 137.664 403.62C137.544 403.74 137.378 403.8 137.164 403.8H134.764V412.22C134.764 412.46 134.691 412.653 134.544 412.8C134.411 412.933 134.218 413 133.964 413ZM144.502 413.1C143.422 413.1 142.462 412.867 141.622 412.4C140.796 411.92 140.142 411.26 139.662 410.42C139.196 409.58 138.962 408.62 138.962 407.54C138.962 406.447 139.182 405.487 139.622 404.66C140.076 403.82 140.696 403.16 141.482 402.68C142.269 402.2 143.176 401.96 144.202 401.96C145.216 401.96 146.096 402.193 146.842 402.66C147.602 403.113 148.189 403.747 148.602 404.56C149.016 405.373 149.222 406.3 149.222 407.34C149.222 407.553 149.156 407.727 149.022 407.86C148.889 407.98 148.716 408.04 148.502 408.04H140.422C140.502 408.76 140.722 409.4 141.082 409.96C141.442 410.507 141.916 410.94 142.502 411.26C143.089 411.567 143.756 411.72 144.502 411.72C144.982 411.72 145.462 411.64 145.942 411.48C146.436 411.307 146.829 411.093 147.122 410.84C147.269 410.72 147.436 410.66 147.622 410.66C147.809 410.647 147.969 410.693 148.102 410.8C148.276 410.96 148.362 411.133 148.362 411.32C148.376 411.507 148.302 411.667 148.142 411.8C147.702 412.173 147.142 412.487 146.462 412.74C145.782 412.98 145.129 413.1 144.502 413.1ZM144.202 403.34C143.176 403.34 142.329 403.66 141.662 404.3C140.996 404.927 140.596 405.747 140.462 406.76H147.782C147.676 405.747 147.302 404.927 146.662 404.3C146.036 403.66 145.216 403.34 144.202 403.34ZM152.587 413C152.081 413 151.827 412.747 151.827 412.24V402.82C151.827 402.313 152.081 402.06 152.587 402.06C153.094 402.06 153.347 402.313 153.347 402.82V403.68C153.747 403.147 154.241 402.727 154.827 402.42C155.414 402.1 156.061 401.94 156.767 401.94C157.381 401.94 157.854 402.027 158.187 402.2C158.521 402.373 158.647 402.627 158.567 402.96C158.501 403.267 158.341 403.427 158.087 403.44C157.847 403.44 157.561 403.427 157.227 403.4C156.481 403.333 155.814 403.413 155.227 403.64C154.654 403.853 154.194 404.187 153.847 404.64C153.514 405.093 153.347 405.633 153.347 406.26V412.24C153.347 412.747 153.094 413 152.587 413ZM165.147 413.1C164.067 413.1 163.107 412.867 162.267 412.4C161.44 411.92 160.787 411.26 160.307 410.42C159.84 409.58 159.607 408.62 159.607 407.54C159.607 406.447 159.827 405.487 160.267 404.66C160.72 403.82 161.34 403.16 162.127 402.68C162.913 402.2 163.82 401.96 164.847 401.96C165.86 401.96 166.74 402.193 167.487 402.66C168.247 403.113 168.833 403.747 169.247 404.56C169.66 405.373 169.867 406.3 169.867 407.34C169.867 407.553 169.8 407.727 169.667 407.86C169.533 407.98 169.36 408.04 169.147 408.04H161.067C161.147 408.76 161.367 409.4 161.727 409.96C162.087 410.507 162.56 410.94 163.147 411.26C163.733 411.567 164.4 411.72 165.147 411.72C165.627 411.72 166.107 411.64 166.587 411.48C167.08 411.307 167.473 411.093 167.767 410.84C167.913 410.72 168.08 410.66 168.267 410.66C168.453 410.647 168.613 410.693 168.747 410.8C168.92 410.96 169.007 411.133 169.007 411.32C169.02 411.507 168.947 411.667 168.787 411.8C168.347 412.173 167.787 412.487 167.107 412.74C166.427 412.98 165.773 413.1 165.147 413.1ZM164.847 403.34C163.82 403.34 162.973 403.66 162.307 404.3C161.64 404.927 161.24 405.747 161.107 406.76H168.427C168.32 405.747 167.947 404.927 167.307 404.3C166.68 403.66 165.86 403.34 164.847 403.34ZM173.252 413C173.012 413 172.819 412.933 172.672 412.8C172.539 412.653 172.472 412.467 172.472 412.24V402.84C172.472 402.6 172.539 402.413 172.672 402.28C172.819 402.133 173.012 402.06 173.252 402.06C173.479 402.06 173.659 402.133 173.792 402.28C173.939 402.413 174.012 402.6 174.012 402.84V403.52C174.439 403.027 174.965 402.64 175.592 402.36C176.232 402.08 176.919 401.94 177.652 401.94C178.599 401.94 179.445 402.14 180.192 402.54C180.939 402.927 181.525 403.5 181.952 404.26C182.392 405.02 182.612 405.947 182.612 407.04V412.24C182.612 412.453 182.539 412.633 182.392 412.78C182.245 412.927 182.065 413 181.852 413C181.625 413 181.439 412.927 181.292 412.78C181.145 412.633 181.072 412.453 181.072 412.24V407.04C181.072 405.8 180.725 404.887 180.032 404.3C179.352 403.7 178.505 403.4 177.492 403.4C176.839 403.4 176.245 403.527 175.712 403.78C175.192 404.033 174.779 404.38 174.472 404.82C174.165 405.26 174.012 405.76 174.012 406.32V412.24C174.012 412.467 173.939 412.653 173.792 412.8C173.659 412.933 173.479 413 173.252 413ZM190.287 413C189.58 413 188.947 412.833 188.387 412.5C187.84 412.167 187.407 411.713 187.087 411.14C186.767 410.553 186.607 409.887 186.607 409.14V403.8H185.307C185.107 403.8 184.94 403.74 184.807 403.62C184.674 403.487 184.607 403.327 184.607 403.14C184.607 402.94 184.674 402.78 184.807 402.66C184.94 402.527 185.107 402.46 185.307 402.46H186.607V399.36C186.607 399.133 186.674 398.947 186.807 398.8C186.954 398.653 187.14 398.58 187.367 398.58C187.594 398.58 187.78 398.653 187.927 398.8C188.074 398.947 188.147 399.133 188.147 399.36V402.46H190.407C190.607 402.46 190.774 402.527 190.907 402.66C191.04 402.78 191.107 402.94 191.107 403.14C191.107 403.327 191.04 403.487 190.907 403.62C190.774 403.74 190.607 403.8 190.407 403.8H188.147V409.14C188.147 409.82 188.347 410.38 188.747 410.82C189.147 411.247 189.66 411.46 190.287 411.46H190.827C191.04 411.46 191.214 411.533 191.347 411.68C191.48 411.827 191.547 412.013 191.547 412.24C191.547 412.467 191.467 412.653 191.307 412.8C191.147 412.933 190.947 413 190.707 413H190.287ZM204.793 413.1C203.74 413.1 202.8 412.86 201.973 412.38C201.16 411.887 200.513 411.22 200.033 410.38C199.567 409.54 199.333 408.593 199.333 407.54C199.333 406.473 199.56 405.52 200.013 404.68C200.467 403.84 201.087 403.18 201.873 402.7C202.66 402.207 203.567 401.96 204.593 401.96C206.26 401.96 207.613 402.6 208.653 403.88C208.8 404.04 208.853 404.213 208.813 404.4C208.773 404.573 208.66 404.727 208.473 404.86C208.327 404.967 208.16 405.007 207.973 404.98C207.8 404.94 207.647 404.84 207.513 404.68C206.74 403.8 205.767 403.36 204.593 403.36C203.847 403.36 203.187 403.54 202.613 403.9C202.053 404.26 201.613 404.753 201.293 405.38C200.987 406.007 200.833 406.727 200.833 407.54C200.833 408.34 201 409.053 201.333 409.68C201.667 410.307 202.133 410.8 202.733 411.16C203.333 411.52 204.02 411.7 204.793 411.7C205.86 411.7 206.72 411.413 207.373 410.84C207.533 410.707 207.7 410.633 207.873 410.62C208.047 410.607 208.207 410.66 208.353 410.78C208.513 410.927 208.6 411.093 208.613 411.28C208.64 411.467 208.58 411.627 208.433 411.76C207.46 412.653 206.247 413.1 204.793 413.1ZM216.807 413.1C215.741 413.1 214.787 412.86 213.947 412.38C213.107 411.9 212.447 411.24 211.967 410.4C211.487 409.56 211.247 408.607 211.247 407.54C211.247 406.46 211.487 405.5 211.967 404.66C212.447 403.82 213.107 403.16 213.947 402.68C214.787 402.2 215.741 401.96 216.807 401.96C217.874 401.96 218.821 402.2 219.647 402.68C220.487 403.16 221.147 403.82 221.627 404.66C222.107 405.5 222.354 406.46 222.367 407.54C222.367 408.607 222.121 409.56 221.627 410.4C221.147 411.24 220.487 411.9 219.647 412.38C218.821 412.86 217.874 413.1 216.807 413.1ZM216.807 411.7C217.581 411.7 218.274 411.52 218.887 411.16C219.501 410.8 219.981 410.307 220.327 409.68C220.674 409.053 220.847 408.34 220.847 407.54C220.847 406.74 220.674 406.027 220.327 405.4C219.981 404.76 219.501 404.26 218.887 403.9C218.274 403.54 217.581 403.36 216.807 403.36C216.034 403.36 215.341 403.54 214.727 403.9C214.114 404.26 213.627 404.76 213.267 405.4C212.921 406.027 212.747 406.74 212.747 407.54C212.747 408.34 212.921 409.053 213.267 409.68C213.627 410.307 214.114 410.8 214.727 411.16C215.341 411.52 216.034 411.7 216.807 411.7ZM230.123 413.12C229.176 413.12 228.329 412.927 227.583 412.54C226.836 412.14 226.243 411.56 225.803 410.8C225.376 410.04 225.163 409.113 225.163 408.02V402.82C225.163 402.607 225.236 402.427 225.383 402.28C225.529 402.133 225.709 402.06 225.923 402.06C226.149 402.06 226.336 402.133 226.483 402.28C226.629 402.427 226.703 402.607 226.703 402.82V408.02C226.703 409.247 227.043 410.16 227.723 410.76C228.403 411.36 229.256 411.66 230.283 411.66C230.936 411.66 231.523 411.533 232.043 411.28C232.576 411.027 232.996 410.68 233.303 410.24C233.609 409.8 233.763 409.3 233.763 408.74V402.82C233.763 402.593 233.829 402.413 233.963 402.28C234.109 402.133 234.296 402.06 234.523 402.06C234.749 402.06 234.936 402.133 235.083 402.28C235.229 402.413 235.303 402.593 235.303 402.82V412.22C235.303 412.46 235.229 412.653 235.083 412.8C234.936 412.933 234.749 413 234.523 413C234.296 413 234.109 412.933 233.963 412.8C233.829 412.653 233.763 412.46 233.763 412.22V411.54C233.323 412.033 232.789 412.42 232.163 412.7C231.536 412.98 230.856 413.12 230.123 413.12ZM239.678 413C239.438 413 239.244 412.933 239.098 412.8C238.964 412.653 238.898 412.467 238.898 412.24V402.84C238.898 402.6 238.964 402.413 239.098 402.28C239.244 402.133 239.438 402.06 239.678 402.06C239.904 402.06 240.084 402.133 240.218 402.28C240.364 402.413 240.438 402.6 240.438 402.84V403.52C240.864 403.027 241.391 402.64 242.018 402.36C242.658 402.08 243.344 401.94 244.078 401.94C245.024 401.94 245.871 402.14 246.618 402.54C247.364 402.927 247.951 403.5 248.378 404.26C248.818 405.02 249.038 405.947 249.038 407.04V412.24C249.038 412.453 248.964 412.633 248.818 412.78C248.671 412.927 248.491 413 248.278 413C248.051 413 247.864 412.927 247.718 412.78C247.571 412.633 247.498 412.453 247.498 412.24V407.04C247.498 405.8 247.151 404.887 246.458 404.3C245.778 403.7 244.931 403.4 243.918 403.4C243.264 403.4 242.671 403.527 242.138 403.78C241.618 404.033 241.204 404.38 240.898 404.82C240.591 405.26 240.438 405.76 240.438 406.32V412.24C240.438 412.467 240.364 412.653 240.218 412.8C240.084 412.933 239.904 413 239.678 413ZM256.713 413C256.006 413 255.373 412.833 254.813 412.5C254.266 412.167 253.833 411.713 253.513 411.14C253.193 410.553 253.033 409.887 253.033 409.14V403.8H251.733C251.533 403.8 251.366 403.74 251.233 403.62C251.099 403.487 251.033 403.327 251.033 403.14C251.033 402.94 251.099 402.78 251.233 402.66C251.366 402.527 251.533 402.46 251.733 402.46H253.033V399.36C253.033 399.133 253.099 398.947 253.233 398.8C253.379 398.653 253.566 398.58 253.793 398.58C254.019 398.58 254.206 398.653 254.353 398.8C254.499 398.947 254.573 399.133 254.573 399.36V402.46H256.833C257.033 402.46 257.199 402.527 257.333 402.66C257.466 402.78 257.533 402.94 257.533 403.14C257.533 403.327 257.466 403.487 257.333 403.62C257.199 403.74 257.033 403.8 256.833 403.8H254.573V409.14C254.573 409.82 254.773 410.38 255.173 410.82C255.573 411.247 256.086 411.46 256.713 411.46H257.253C257.466 411.46 257.639 411.533 257.773 411.68C257.906 411.827 257.973 412.013 257.973 412.24C257.973 412.467 257.893 412.653 257.733 412.8C257.573 412.933 257.373 413 257.133 413H256.713ZM261.24 413C260.733 413 260.48 412.747 260.48 412.24V402.82C260.48 402.313 260.733 402.06 261.24 402.06C261.746 402.06 262 402.313 262 402.82V403.68C262.4 403.147 262.893 402.727 263.48 402.42C264.066 402.1 264.713 401.94 265.42 401.94C266.033 401.94 266.506 402.027 266.84 402.2C267.173 402.373 267.3 402.627 267.22 402.96C267.153 403.267 266.993 403.427 266.74 403.44C266.5 403.44 266.213 403.427 265.88 403.4C265.133 403.333 264.466 403.413 263.88 403.64C263.306 403.853 262.846 404.187 262.5 404.64C262.166 405.093 262 405.633 262 406.26V412.24C262 412.747 261.746 413 261.24 413ZM270.74 413C270.5 413 270.307 412.933 270.16 412.8C270.027 412.653 269.96 412.46 269.96 412.22V402.84C269.96 402.6 270.027 402.413 270.16 402.28C270.307 402.133 270.5 402.06 270.74 402.06C270.967 402.06 271.147 402.133 271.28 402.28C271.427 402.413 271.5 402.6 271.5 402.84V412.22C271.5 412.46 271.427 412.653 271.28 412.8C271.147 412.933 270.967 413 270.74 413ZM270.72 399.98C270.427 399.98 270.173 399.873 269.96 399.66C269.747 399.447 269.64 399.187 269.64 398.88C269.64 398.547 269.747 398.287 269.96 398.1C270.187 397.9 270.447 397.8 270.74 397.8C271.02 397.8 271.267 397.9 271.48 398.1C271.707 398.287 271.82 398.547 271.82 398.88C271.82 399.187 271.713 399.447 271.5 399.66C271.287 399.873 271.027 399.98 270.72 399.98ZM280.381 413.1C279.301 413.1 278.341 412.867 277.501 412.4C276.674 411.92 276.021 411.26 275.541 410.42C275.074 409.58 274.841 408.62 274.841 407.54C274.841 406.447 275.061 405.487 275.501 404.66C275.954 403.82 276.574 403.16 277.361 402.68C278.148 402.2 279.054 401.96 280.081 401.96C281.094 401.96 281.974 402.193 282.721 402.66C283.481 403.113 284.068 403.747 284.481 404.56C284.894 405.373 285.101 406.3 285.101 407.34C285.101 407.553 285.034 407.727 284.901 407.86C284.768 407.98 284.594 408.04 284.381 408.04H276.301C276.381 408.76 276.601 409.4 276.961 409.96C277.321 410.507 277.794 410.94 278.381 411.26C278.968 411.567 279.634 411.72 280.381 411.72C280.861 411.72 281.341 411.64 281.821 411.48C282.314 411.307 282.708 411.093 283.001 410.84C283.148 410.72 283.314 410.66 283.501 410.66C283.688 410.647 283.848 410.693 283.981 410.8C284.154 410.96 284.241 411.133 284.241 411.32C284.254 411.507 284.181 411.667 284.021 411.8C283.581 412.173 283.021 412.487 282.341 412.74C281.661 412.98 281.008 413.1 280.381 413.1ZM280.081 403.34C279.054 403.34 278.208 403.66 277.541 404.3C276.874 404.927 276.474 405.747 276.341 406.76H283.661C283.554 405.747 283.181 404.927 282.541 404.3C281.914 403.66 281.094 403.34 280.081 403.34ZM291.526 413.1C290.74 413.1 289.96 412.967 289.186 412.7C288.413 412.433 287.786 412.033 287.306 411.5C287.16 411.34 287.1 411.16 287.126 410.96C287.153 410.76 287.253 410.587 287.426 410.44C287.613 410.307 287.806 410.253 288.006 410.28C288.206 410.307 288.373 410.393 288.506 410.54C288.826 410.913 289.246 411.2 289.766 411.4C290.3 411.6 290.886 411.7 291.526 411.7C292.513 411.7 293.226 411.533 293.666 411.2C294.106 410.853 294.333 410.44 294.346 409.96C294.346 409.48 294.12 409.087 293.666 408.78C293.213 408.46 292.466 408.213 291.426 408.04C290.08 407.827 289.093 407.453 288.466 406.92C287.84 406.387 287.526 405.753 287.526 405.02C287.526 404.34 287.706 403.773 288.066 403.32C288.426 402.867 288.906 402.527 289.506 402.3C290.106 402.073 290.766 401.96 291.486 401.96C292.38 401.96 293.146 402.113 293.786 402.42C294.44 402.727 294.966 403.14 295.366 403.66C295.5 403.833 295.553 404.013 295.526 404.2C295.5 404.387 295.393 404.54 295.206 404.66C295.046 404.753 294.86 404.787 294.646 404.76C294.446 404.72 294.273 404.62 294.126 404.46C293.473 403.713 292.58 403.34 291.446 403.34C290.713 403.34 290.126 403.493 289.686 403.8C289.246 404.093 289.026 404.467 289.026 404.92C289.026 405.373 289.22 405.747 289.606 406.04C290.006 406.333 290.753 406.573 291.846 406.76C292.846 406.92 293.633 407.16 294.206 407.48C294.793 407.787 295.206 408.153 295.446 408.58C295.7 408.993 295.826 409.447 295.826 409.94C295.826 410.567 295.64 411.12 295.266 411.6C294.906 412.067 294.4 412.433 293.746 412.7C293.106 412.967 292.366 413.1 291.526 413.1Z" fill="#F2EEE3"/>
</g>
<defs>
<linearGradient id="paint0_linear" x1="180" y1="0" x2="180" y2="520" gradientUnits="userSpaceOnUse">
<stop stop-color="#E3632D"/>
<stop offset="1" stop-color="#F94E3F"/>
</linearGradient>
<clipPath id="clip0">
<rect width="360" height="520" fill="white"/>
</clipPath>
</defs>
</svg>
