<svg width="auto" height="auto" viewBox="0 0 1280 528" fill="none" xmlns="http://www.w3.org/2000/svg">
<g clip-path="url(#clip0)" filter="url(#filter0_d)">
<rect width="1280" height="520" fill="url(#paint0_linear)"/>
<path d="M445.464 414.98L445.46 414.979C285.302 377.07 137.007 399.809 -0.944336 461.322L-0.951172 461.325C-10.3591 465.436 -18.3853 473.696 -23.8809 483.062C-29.3815 492.436 -32.2633 502.774 -31.5444 510.943L-31.5435 510.953L-31.5427 510.964C-25.6427 598.944 45.1486 661.157 157.92 704.146L157.921 704.146C296.612 757.233 484.708 777.479 669.157 767.57C853.611 757.661 1034.27 717.603 1158.1 650.205L1158.11 650.202C1209.28 622.816 1250.35 592.108 1277.15 555.472C1303.72 519.137 1316.29 476.928 1310.69 426.219C1288.56 431.716 1267.57 436.807 1247.42 441.696C1203.1 452.449 1162.81 462.223 1123.21 473.182C959.646 521.328 797.565 517.946 635.508 468.96C621.74 464.863 607.975 460.685 594.182 456.499C545.453 441.708 496.364 426.808 445.464 414.98Z" fill="#F2EEE3" stroke="#F2EEE3" stroke-width="2"/>
<path d="M834.883 103.971L834.887 103.972C995.045 141.881 1143.34 119.142 1281.29 57.6286L1281.3 57.6256C1290.71 53.5145 1298.73 45.2546 1304.23 35.8888C1309.73 26.5145 1312.61 16.1762 1311.89 8.0079L1311.89 7.99752L1311.89 7.98715C1305.99 -79.9932 1235.2 -142.206 1122.43 -185.195L1122.43 -185.196C983.734 -238.282 795.638 -258.528 611.189 -248.619C426.735 -238.71 246.078 -198.653 122.244 -131.255L122.238 -131.251C71.0629 -103.866 29.9951 -73.157 3.20102 -36.5216C-23.3734 -0.1866 -35.9409 42.0223 -30.3428 92.7317C-8.20872 87.2347 12.7761 82.1436 32.9266 77.2548C77.2499 66.5016 117.536 56.7277 157.137 45.7683C320.701 -2.3774 482.781 1.00489 644.838 49.9904C658.607 54.0873 672.371 58.2652 686.164 62.4518C734.893 77.2422 783.982 92.1422 834.883 103.971Z" fill="#F2EEE3" stroke="#F2EEE3" stroke-width="2"/>
<path d="M195.197 239.814C198.506 239.814 201.105 240.638 202.996 242.285C204.901 243.918 205.854 246.16 205.854 249.01C205.854 252.261 204.815 254.811 202.738 256.658C200.676 258.506 197.826 259.43 194.188 259.43C190.65 259.43 187.95 258.864 186.088 257.732V254.295C187.09 254.939 188.337 255.448 189.826 255.82C191.316 256.178 192.784 256.357 194.23 256.357C196.751 256.357 198.706 255.763 200.096 254.574C201.499 253.385 202.201 251.667 202.201 249.418C202.201 245.035 199.516 242.844 194.145 242.844C192.784 242.844 190.965 243.051 188.688 243.467L186.84 242.285L188.021 227.59H203.641V230.877H191.072L190.277 240.309C191.924 239.979 193.564 239.814 195.197 239.814ZM231.377 243.252C231.377 248.68 230.518 252.734 228.799 255.412C227.094 258.09 224.48 259.43 220.957 259.43C217.577 259.43 215.006 258.062 213.244 255.326C211.482 252.576 210.602 248.551 210.602 243.252C210.602 237.781 211.454 233.72 213.158 231.07C214.863 228.421 217.462 227.096 220.957 227.096C224.366 227.096 226.951 228.478 228.713 231.242C230.489 234.007 231.377 238.01 231.377 243.252ZM214.211 243.252C214.211 247.821 214.748 251.151 215.822 253.242C216.896 255.319 218.608 256.357 220.957 256.357C223.335 256.357 225.053 255.305 226.113 253.199C227.188 251.079 227.725 247.764 227.725 243.252C227.725 238.74 227.188 235.439 226.113 233.348C225.053 231.242 223.335 230.189 220.957 230.189C218.608 230.189 216.896 231.228 215.822 233.305C214.748 235.367 214.211 238.683 214.211 243.252ZM247.619 242.006H256.471V244.971H247.619V254.123H244.633V244.971H235.824V242.006H244.633V232.811H247.619V242.006Z" fill="#F2EEE3"/>
<path d="M129.105 294.2C127.825 294.2 126.691 293.927 125.705 293.38C124.731 292.833 124.038 292.107 123.625 291.2C123.518 290.987 123.511 290.793 123.605 290.62C123.711 290.433 123.885 290.307 124.125 290.24C124.311 290.187 124.491 290.207 124.665 290.3C124.851 290.393 124.991 290.533 125.085 290.72C125.391 291.307 125.898 291.787 126.605 292.16C127.311 292.533 128.145 292.72 129.105 292.72C130.158 292.72 131.025 292.467 131.705 291.96C132.398 291.44 132.745 290.693 132.745 289.72C132.745 288.907 132.445 288.207 131.845 287.62C131.245 287.033 130.305 286.66 129.025 286.5C127.465 286.313 126.245 285.833 125.365 285.06C124.485 284.273 124.045 283.313 124.045 282.18C124.045 281.367 124.258 280.66 124.685 280.06C125.125 279.46 125.725 279 126.485 278.68C127.245 278.347 128.118 278.18 129.105 278.18C130.211 278.18 131.158 278.433 131.945 278.94C132.731 279.433 133.338 280.02 133.765 280.7C133.898 280.913 133.938 281.12 133.885 281.32C133.845 281.52 133.731 281.673 133.545 281.78C133.345 281.873 133.138 281.887 132.925 281.82C132.725 281.753 132.571 281.627 132.465 281.44C132.158 280.973 131.738 280.567 131.205 280.22C130.685 279.86 129.978 279.673 129.085 279.66C128.031 279.66 127.185 279.887 126.545 280.34C125.905 280.78 125.585 281.427 125.585 282.28C125.585 282.96 125.858 283.553 126.405 284.06C126.965 284.567 127.951 284.92 129.365 285.12C131.031 285.36 132.265 285.873 133.065 286.66C133.878 287.433 134.285 288.447 134.285 289.7C134.285 290.66 134.051 291.48 133.585 292.16C133.131 292.827 132.511 293.333 131.725 293.68C130.938 294.027 130.065 294.2 129.105 294.2ZM142.107 294.12C141.16 294.12 140.314 293.927 139.567 293.54C138.82 293.14 138.227 292.56 137.787 291.8C137.36 291.04 137.147 290.113 137.147 289.02V283.82C137.147 283.607 137.22 283.427 137.367 283.28C137.514 283.133 137.694 283.06 137.907 283.06C138.134 283.06 138.32 283.133 138.467 283.28C138.614 283.427 138.687 283.607 138.687 283.82V289.02C138.687 290.247 139.027 291.16 139.707 291.76C140.387 292.36 141.24 292.66 142.267 292.66C142.92 292.66 143.507 292.533 144.027 292.28C144.56 292.027 144.98 291.68 145.287 291.24C145.594 290.8 145.747 290.3 145.747 289.74V283.82C145.747 283.593 145.814 283.413 145.947 283.28C146.094 283.133 146.28 283.06 146.507 283.06C146.734 283.06 146.92 283.133 147.067 283.28C147.214 283.413 147.287 283.593 147.287 283.82V293.22C147.287 293.46 147.214 293.653 147.067 293.8C146.92 293.933 146.734 294 146.507 294C146.28 294 146.094 293.933 145.947 293.8C145.814 293.653 145.747 293.46 145.747 293.22V292.54C145.307 293.033 144.774 293.42 144.147 293.7C143.52 293.98 142.84 294.12 142.107 294.12ZM155.762 294.1C154.709 294.1 153.769 293.86 152.942 293.38C152.129 292.887 151.482 292.22 151.002 291.38C150.535 290.54 150.302 289.593 150.302 288.54C150.302 287.473 150.529 286.52 150.982 285.68C151.435 284.84 152.055 284.18 152.842 283.7C153.629 283.207 154.535 282.96 155.562 282.96C157.229 282.96 158.582 283.6 159.622 284.88C159.769 285.04 159.822 285.213 159.782 285.4C159.742 285.573 159.629 285.727 159.442 285.86C159.295 285.967 159.129 286.007 158.942 285.98C158.769 285.94 158.615 285.84 158.482 285.68C157.709 284.8 156.735 284.36 155.562 284.36C154.815 284.36 154.155 284.54 153.582 284.9C153.022 285.26 152.582 285.753 152.262 286.38C151.955 287.007 151.802 287.727 151.802 288.54C151.802 289.34 151.969 290.053 152.302 290.68C152.635 291.307 153.102 291.8 153.702 292.16C154.302 292.52 154.989 292.7 155.762 292.7C156.829 292.7 157.689 292.413 158.342 291.84C158.502 291.707 158.669 291.633 158.842 291.62C159.015 291.607 159.175 291.66 159.322 291.78C159.482 291.927 159.569 292.093 159.582 292.28C159.609 292.467 159.549 292.627 159.402 292.76C158.429 293.653 157.215 294.1 155.762 294.1ZM167.676 294.1C166.623 294.1 165.683 293.86 164.856 293.38C164.043 292.887 163.396 292.22 162.916 291.38C162.449 290.54 162.216 289.593 162.216 288.54C162.216 287.473 162.443 286.52 162.896 285.68C163.349 284.84 163.969 284.18 164.756 283.7C165.543 283.207 166.449 282.96 167.476 282.96C169.143 282.96 170.496 283.6 171.536 284.88C171.683 285.04 171.736 285.213 171.696 285.4C171.656 285.573 171.543 285.727 171.356 285.86C171.209 285.967 171.043 286.007 170.856 285.98C170.683 285.94 170.529 285.84 170.396 285.68C169.623 284.8 168.649 284.36 167.476 284.36C166.729 284.36 166.069 284.54 165.496 284.9C164.936 285.26 164.496 285.753 164.176 286.38C163.869 287.007 163.716 287.727 163.716 288.54C163.716 289.34 163.883 290.053 164.216 290.68C164.549 291.307 165.016 291.8 165.616 292.16C166.216 292.52 166.903 292.7 167.676 292.7C168.743 292.7 169.603 292.413 170.256 291.84C170.416 291.707 170.583 291.633 170.756 291.62C170.929 291.607 171.089 291.66 171.236 291.78C171.396 291.927 171.483 292.093 171.496 292.28C171.523 292.467 171.463 292.627 171.316 292.76C170.343 293.653 169.129 294.1 167.676 294.1ZM179.67 294.1C178.59 294.1 177.63 293.867 176.79 293.4C175.963 292.92 175.31 292.26 174.83 291.42C174.363 290.58 174.13 289.62 174.13 288.54C174.13 287.447 174.35 286.487 174.79 285.66C175.243 284.82 175.863 284.16 176.65 283.68C177.437 283.2 178.343 282.96 179.37 282.96C180.383 282.96 181.263 283.193 182.01 283.66C182.77 284.113 183.357 284.747 183.77 285.56C184.183 286.373 184.39 287.3 184.39 288.34C184.39 288.553 184.323 288.727 184.19 288.86C184.057 288.98 183.883 289.04 183.67 289.04H175.59C175.67 289.76 175.89 290.4 176.25 290.96C176.61 291.507 177.083 291.94 177.67 292.26C178.257 292.567 178.923 292.72 179.67 292.72C180.15 292.72 180.63 292.64 181.11 292.48C181.603 292.307 181.997 292.093 182.29 291.84C182.437 291.72 182.603 291.66 182.79 291.66C182.977 291.647 183.137 291.693 183.27 291.8C183.443 291.96 183.53 292.133 183.53 292.32C183.543 292.507 183.47 292.667 183.31 292.8C182.87 293.173 182.31 293.487 181.63 293.74C180.95 293.98 180.297 294.1 179.67 294.1ZM179.37 284.34C178.343 284.34 177.497 284.66 176.83 285.3C176.163 285.927 175.763 286.747 175.63 287.76H182.95C182.843 286.747 182.47 285.927 181.83 285.3C181.203 284.66 180.383 284.34 179.37 284.34ZM190.815 294.1C190.029 294.1 189.249 293.967 188.475 293.7C187.702 293.433 187.075 293.033 186.595 292.5C186.449 292.34 186.389 292.16 186.415 291.96C186.442 291.76 186.542 291.587 186.715 291.44C186.902 291.307 187.095 291.253 187.295 291.28C187.495 291.307 187.662 291.393 187.795 291.54C188.115 291.913 188.535 292.2 189.055 292.4C189.589 292.6 190.175 292.7 190.815 292.7C191.802 292.7 192.515 292.533 192.955 292.2C193.395 291.853 193.622 291.44 193.635 290.96C193.635 290.48 193.409 290.087 192.955 289.78C192.502 289.46 191.755 289.213 190.715 289.04C189.369 288.827 188.382 288.453 187.755 287.92C187.129 287.387 186.815 286.753 186.815 286.02C186.815 285.34 186.995 284.773 187.355 284.32C187.715 283.867 188.195 283.527 188.795 283.3C189.395 283.073 190.055 282.96 190.775 282.96C191.669 282.96 192.435 283.113 193.075 283.42C193.729 283.727 194.255 284.14 194.655 284.66C194.789 284.833 194.842 285.013 194.815 285.2C194.789 285.387 194.682 285.54 194.495 285.66C194.335 285.753 194.149 285.787 193.935 285.76C193.735 285.72 193.562 285.62 193.415 285.46C192.762 284.713 191.869 284.34 190.735 284.34C190.002 284.34 189.415 284.493 188.975 284.8C188.535 285.093 188.315 285.467 188.315 285.92C188.315 286.373 188.509 286.747 188.895 287.04C189.295 287.333 190.042 287.573 191.135 287.76C192.135 287.92 192.922 288.16 193.495 288.48C194.082 288.787 194.495 289.153 194.735 289.58C194.989 289.993 195.115 290.447 195.115 290.94C195.115 291.567 194.929 292.12 194.555 292.6C194.195 293.067 193.689 293.433 193.035 293.7C192.395 293.967 191.655 294.1 190.815 294.1ZM201.597 294.1C200.81 294.1 200.03 293.967 199.257 293.7C198.483 293.433 197.857 293.033 197.377 292.5C197.23 292.34 197.17 292.16 197.197 291.96C197.223 291.76 197.323 291.587 197.497 291.44C197.683 291.307 197.877 291.253 198.077 291.28C198.277 291.307 198.443 291.393 198.577 291.54C198.897 291.913 199.317 292.2 199.837 292.4C200.37 292.6 200.957 292.7 201.597 292.7C202.583 292.7 203.297 292.533 203.737 292.2C204.177 291.853 204.403 291.44 204.417 290.96C204.417 290.48 204.19 290.087 203.737 289.78C203.283 289.46 202.537 289.213 201.497 289.04C200.15 288.827 199.163 288.453 198.537 287.92C197.91 287.387 197.597 286.753 197.597 286.02C197.597 285.34 197.777 284.773 198.137 284.32C198.497 283.867 198.977 283.527 199.577 283.3C200.177 283.073 200.837 282.96 201.557 282.96C202.45 282.96 203.217 283.113 203.857 283.42C204.51 283.727 205.037 284.14 205.437 284.66C205.57 284.833 205.623 285.013 205.597 285.2C205.57 285.387 205.463 285.54 205.277 285.66C205.117 285.753 204.93 285.787 204.717 285.76C204.517 285.72 204.343 285.62 204.197 285.46C203.543 284.713 202.65 284.34 201.517 284.34C200.783 284.34 200.197 284.493 199.757 284.8C199.317 285.093 199.097 285.467 199.097 285.92C199.097 286.373 199.29 286.747 199.677 287.04C200.077 287.333 200.823 287.573 201.917 287.76C202.917 287.92 203.703 288.16 204.277 288.48C204.863 288.787 205.277 289.153 205.517 289.58C205.77 289.993 205.897 290.447 205.897 290.94C205.897 291.567 205.71 292.12 205.337 292.6C204.977 293.067 204.47 293.433 203.817 293.7C203.177 293.967 202.437 294.1 201.597 294.1ZM209.918 294C209.718 294 209.544 293.933 209.398 293.8C209.251 293.653 209.178 293.46 209.178 293.22V284.8H207.898C207.684 284.8 207.511 284.74 207.378 284.62C207.258 284.487 207.198 284.327 207.198 284.14C207.198 283.94 207.258 283.78 207.378 283.66C207.511 283.527 207.684 283.46 207.898 283.46H209.178V283.08C209.178 281.68 209.538 280.547 210.258 279.68C210.978 278.813 212.018 278.38 213.378 278.38C213.604 278.38 213.791 278.447 213.938 278.58C214.084 278.713 214.158 278.88 214.158 279.08C214.158 279.28 214.084 279.447 213.938 279.58C213.791 279.713 213.604 279.78 213.378 279.78C212.471 279.78 211.798 280.087 211.358 280.7C210.931 281.3 210.718 282.067 210.718 283V283.46H213.118C213.331 283.46 213.498 283.527 213.618 283.66C213.751 283.78 213.818 283.94 213.818 284.14C213.818 284.327 213.751 284.487 213.618 284.62C213.498 284.74 213.331 284.8 213.118 284.8H210.718V293.22C210.718 293.46 210.644 293.653 210.498 293.8C210.364 293.933 210.171 294 209.918 294ZM220.642 294.12C219.695 294.12 218.849 293.927 218.102 293.54C217.355 293.14 216.762 292.56 216.322 291.8C215.895 291.04 215.682 290.113 215.682 289.02V283.82C215.682 283.607 215.755 283.427 215.902 283.28C216.049 283.133 216.229 283.06 216.442 283.06C216.669 283.06 216.855 283.133 217.002 283.28C217.149 283.427 217.222 283.607 217.222 283.82V289.02C217.222 290.247 217.562 291.16 218.242 291.76C218.922 292.36 219.775 292.66 220.802 292.66C221.455 292.66 222.042 292.533 222.562 292.28C223.095 292.027 223.515 291.68 223.822 291.24C224.129 290.8 224.282 290.3 224.282 289.74V283.82C224.282 283.593 224.349 283.413 224.482 283.28C224.629 283.133 224.815 283.06 225.042 283.06C225.269 283.06 225.455 283.133 225.602 283.28C225.749 283.413 225.822 283.593 225.822 283.82V293.22C225.822 293.46 225.749 293.653 225.602 293.8C225.455 293.933 225.269 294 225.042 294C224.815 294 224.629 293.933 224.482 293.8C224.349 293.653 224.282 293.46 224.282 293.22V292.54C223.842 293.033 223.309 293.42 222.682 293.7C222.055 293.98 221.375 294.12 220.642 294.12ZM231.777 294C230.977 294 230.317 293.68 229.797 293.04C229.277 292.387 229.017 291.553 229.017 290.54V279.14C229.017 278.913 229.084 278.733 229.217 278.6C229.364 278.453 229.551 278.38 229.777 278.38C230.004 278.38 230.184 278.453 230.317 278.6C230.464 278.733 230.537 278.913 230.537 279.14V290.54C230.537 291.113 230.651 291.58 230.877 291.94C231.117 292.3 231.417 292.48 231.777 292.48H232.277C232.477 292.48 232.637 292.553 232.757 292.7C232.877 292.833 232.937 293.013 232.937 293.24C232.937 293.467 232.851 293.653 232.677 293.8C232.517 293.933 232.304 294 232.037 294H231.777ZM241.701 298.68C241.461 298.68 241.268 298.607 241.121 298.46C240.988 298.327 240.921 298.14 240.921 297.9V288.46C240.934 287.42 241.181 286.487 241.661 285.66C242.154 284.82 242.814 284.16 243.641 283.68C244.481 283.2 245.421 282.96 246.461 282.96C247.528 282.96 248.481 283.207 249.321 283.7C250.161 284.18 250.821 284.84 251.301 285.68C251.794 286.52 252.041 287.473 252.041 288.54C252.041 289.593 251.801 290.54 251.321 291.38C250.854 292.22 250.214 292.887 249.401 293.38C248.588 293.86 247.668 294.1 246.641 294.1C245.748 294.1 244.934 293.913 244.201 293.54C243.481 293.153 242.901 292.647 242.461 292.02V297.9C242.461 298.14 242.388 298.327 242.241 298.46C242.108 298.607 241.928 298.68 241.701 298.68ZM246.461 292.7C247.234 292.7 247.928 292.52 248.541 292.16C249.154 291.8 249.634 291.307 249.981 290.68C250.341 290.04 250.521 289.327 250.521 288.54C250.521 287.74 250.341 287.027 249.981 286.4C249.634 285.773 249.154 285.28 248.541 284.92C247.928 284.547 247.234 284.36 246.461 284.36C245.701 284.36 245.014 284.547 244.401 284.92C243.788 285.28 243.308 285.773 242.961 286.4C242.614 287.027 242.441 287.74 242.441 288.54C242.441 289.327 242.614 290.04 242.961 290.68C243.308 291.307 243.788 291.8 244.401 292.16C245.014 292.52 245.701 292.7 246.461 292.7ZM255.822 294C255.315 294 255.062 293.747 255.062 293.24V283.82C255.062 283.313 255.315 283.06 255.822 283.06C256.328 283.06 256.582 283.313 256.582 283.82V284.68C256.982 284.147 257.475 283.727 258.062 283.42C258.648 283.1 259.295 282.94 260.002 282.94C260.615 282.94 261.088 283.027 261.422 283.2C261.755 283.373 261.882 283.627 261.802 283.96C261.735 284.267 261.575 284.427 261.322 284.44C261.082 284.44 260.795 284.427 260.462 284.4C259.715 284.333 259.048 284.413 258.462 284.64C257.888 284.853 257.428 285.187 257.082 285.64C256.748 286.093 256.582 286.633 256.582 287.26V293.24C256.582 293.747 256.328 294 255.822 294ZM268.401 294.1C267.334 294.1 266.381 293.86 265.541 293.38C264.701 292.9 264.041 292.24 263.561 291.4C263.081 290.56 262.841 289.607 262.841 288.54C262.841 287.46 263.081 286.5 263.561 285.66C264.041 284.82 264.701 284.16 265.541 283.68C266.381 283.2 267.334 282.96 268.401 282.96C269.468 282.96 270.414 283.2 271.241 283.68C272.081 284.16 272.741 284.82 273.221 285.66C273.701 286.5 273.948 287.46 273.961 288.54C273.961 289.607 273.714 290.56 273.221 291.4C272.741 292.24 272.081 292.9 271.241 293.38C270.414 293.86 269.468 294.1 268.401 294.1ZM268.401 292.7C269.174 292.7 269.868 292.52 270.481 292.16C271.094 291.8 271.574 291.307 271.921 290.68C272.268 290.053 272.441 289.34 272.441 288.54C272.441 287.74 272.268 287.027 271.921 286.4C271.574 285.76 271.094 285.26 270.481 284.9C269.868 284.54 269.174 284.36 268.401 284.36C267.628 284.36 266.934 284.54 266.321 284.9C265.708 285.26 265.221 285.76 264.861 286.4C264.514 287.027 264.341 287.74 264.341 288.54C264.341 289.34 264.514 290.053 264.861 290.68C265.221 291.307 265.708 291.8 266.321 292.16C266.934 292.52 267.628 292.7 268.401 292.7ZM274.056 298.68C273.83 298.68 273.643 298.607 273.496 298.46C273.35 298.327 273.276 298.14 273.276 297.9C273.276 297.673 273.35 297.487 273.496 297.34C273.643 297.193 273.83 297.12 274.056 297.12C274.976 297.12 275.73 296.827 276.316 296.24C276.903 295.653 277.196 294.907 277.196 294V283.84C277.196 283.6 277.263 283.413 277.396 283.28C277.543 283.133 277.73 283.06 277.956 283.06C278.183 283.06 278.37 283.133 278.516 283.28C278.663 283.413 278.736 283.6 278.736 283.84V294C278.736 294.907 278.536 295.713 278.136 296.42C277.736 297.127 277.183 297.68 276.476 298.08C275.77 298.48 274.963 298.68 274.056 298.68ZM277.936 280.98C277.643 280.98 277.39 280.873 277.176 280.66C276.963 280.447 276.856 280.187 276.856 279.88C276.856 279.547 276.963 279.287 277.176 279.1C277.403 278.9 277.663 278.8 277.956 278.8C278.236 278.8 278.483 278.9 278.696 279.1C278.923 279.287 279.036 279.547 279.036 279.88C279.036 280.187 278.93 280.447 278.716 280.66C278.503 280.873 278.243 280.98 277.936 280.98ZM286.819 294.1C285.739 294.1 284.779 293.867 283.939 293.4C283.112 292.92 282.459 292.26 281.979 291.42C281.512 290.58 281.279 289.62 281.279 288.54C281.279 287.447 281.499 286.487 281.939 285.66C282.392 284.82 283.012 284.16 283.799 283.68C284.585 283.2 285.492 282.96 286.519 282.96C287.532 282.96 288.412 283.193 289.159 283.66C289.919 284.113 290.505 284.747 290.919 285.56C291.332 286.373 291.539 287.3 291.539 288.34C291.539 288.553 291.472 288.727 291.339 288.86C291.205 288.98 291.032 289.04 290.819 289.04H282.739C282.819 289.76 283.039 290.4 283.399 290.96C283.759 291.507 284.232 291.94 284.819 292.26C285.405 292.567 286.072 292.72 286.819 292.72C287.299 292.72 287.779 292.64 288.259 292.48C288.752 292.307 289.145 292.093 289.439 291.84C289.585 291.72 289.752 291.66 289.939 291.66C290.125 291.647 290.285 291.693 290.419 291.8C290.592 291.96 290.679 292.133 290.679 292.32C290.692 292.507 290.619 292.667 290.459 292.8C290.019 293.173 289.459 293.487 288.779 293.74C288.099 293.98 287.445 294.1 286.819 294.1ZM286.519 284.34C285.492 284.34 284.645 284.66 283.979 285.3C283.312 285.927 282.912 286.747 282.779 287.76H290.099C289.992 286.747 289.619 285.927 288.979 285.3C288.352 284.66 287.532 284.34 286.519 284.34ZM298.633 294.1C297.58 294.1 296.64 293.86 295.813 293.38C295 292.887 294.353 292.22 293.873 291.38C293.406 290.54 293.173 289.593 293.173 288.54C293.173 287.473 293.4 286.52 293.853 285.68C294.306 284.84 294.926 284.18 295.713 283.7C296.5 283.207 297.406 282.96 298.433 282.96C300.1 282.96 301.453 283.6 302.493 284.88C302.64 285.04 302.693 285.213 302.653 285.4C302.613 285.573 302.5 285.727 302.313 285.86C302.166 285.967 302 286.007 301.813 285.98C301.64 285.94 301.486 285.84 301.353 285.68C300.58 284.8 299.606 284.36 298.433 284.36C297.686 284.36 297.026 284.54 296.453 284.9C295.893 285.26 295.453 285.753 295.133 286.38C294.826 287.007 294.673 287.727 294.673 288.54C294.673 289.34 294.84 290.053 295.173 290.68C295.506 291.307 295.973 291.8 296.573 292.16C297.173 292.52 297.86 292.7 298.633 292.7C299.7 292.7 300.56 292.413 301.213 291.84C301.373 291.707 301.54 291.633 301.713 291.62C301.886 291.607 302.046 291.66 302.193 291.78C302.353 291.927 302.44 292.093 302.453 292.28C302.48 292.467 302.42 292.627 302.273 292.76C301.3 293.653 300.086 294.1 298.633 294.1ZM309.947 294C309.241 294 308.607 293.833 308.047 293.5C307.501 293.167 307.067 292.713 306.747 292.14C306.427 291.553 306.267 290.887 306.267 290.14V284.8H304.967C304.767 284.8 304.601 284.74 304.467 284.62C304.334 284.487 304.267 284.327 304.267 284.14C304.267 283.94 304.334 283.78 304.467 283.66C304.601 283.527 304.767 283.46 304.967 283.46H306.267V280.36C306.267 280.133 306.334 279.947 306.467 279.8C306.614 279.653 306.801 279.58 307.027 279.58C307.254 279.58 307.441 279.653 307.587 279.8C307.734 279.947 307.807 280.133 307.807 280.36V283.46H310.067C310.267 283.46 310.434 283.527 310.567 283.66C310.701 283.78 310.767 283.94 310.767 284.14C310.767 284.327 310.701 284.487 310.567 284.62C310.434 284.74 310.267 284.8 310.067 284.8H307.807V290.14C307.807 290.82 308.007 291.38 308.407 291.82C308.807 292.247 309.321 292.46 309.947 292.46H310.487C310.701 292.46 310.874 292.533 311.007 292.68C311.141 292.827 311.207 293.013 311.207 293.24C311.207 293.467 311.127 293.653 310.967 293.8C310.807 293.933 310.607 294 310.367 294H309.947ZM317.534 294.1C316.747 294.1 315.967 293.967 315.194 293.7C314.421 293.433 313.794 293.033 313.314 292.5C313.167 292.34 313.107 292.16 313.134 291.96C313.161 291.76 313.261 291.587 313.434 291.44C313.621 291.307 313.814 291.253 314.014 291.28C314.214 291.307 314.381 291.393 314.514 291.54C314.834 291.913 315.254 292.2 315.774 292.4C316.307 292.6 316.894 292.7 317.534 292.7C318.521 292.7 319.234 292.533 319.674 292.2C320.114 291.853 320.341 291.44 320.354 290.96C320.354 290.48 320.127 290.087 319.674 289.78C319.221 289.46 318.474 289.213 317.434 289.04C316.087 288.827 315.101 288.453 314.474 287.92C313.847 287.387 313.534 286.753 313.534 286.02C313.534 285.34 313.714 284.773 314.074 284.32C314.434 283.867 314.914 283.527 315.514 283.3C316.114 283.073 316.774 282.96 317.494 282.96C318.387 282.96 319.154 283.113 319.794 283.42C320.447 283.727 320.974 284.14 321.374 284.66C321.507 284.833 321.561 285.013 321.534 285.2C321.507 285.387 321.401 285.54 321.214 285.66C321.054 285.753 320.867 285.787 320.654 285.76C320.454 285.72 320.281 285.62 320.134 285.46C319.481 284.713 318.587 284.34 317.454 284.34C316.721 284.34 316.134 284.493 315.694 284.8C315.254 285.093 315.034 285.467 315.034 285.92C315.034 286.373 315.227 286.747 315.614 287.04C316.014 287.333 316.761 287.573 317.854 287.76C318.854 287.92 319.641 288.16 320.214 288.48C320.801 288.787 321.214 289.153 321.454 289.58C321.707 289.993 321.834 290.447 321.834 290.94C321.834 291.567 321.647 292.12 321.274 292.6C320.914 293.067 320.407 293.433 319.754 293.7C319.114 293.967 318.374 294.1 317.534 294.1Z" fill="#F2EEE3"/>
<path d="M613.936 259H593.289V255.928L601.561 247.613C604.081 245.064 605.743 243.245 606.545 242.156C607.347 241.068 607.949 240.008 608.35 238.977C608.751 237.945 608.951 236.835 608.951 235.646C608.951 233.971 608.443 232.646 607.426 231.672C606.409 230.684 604.998 230.189 603.193 230.189C601.89 230.189 600.651 230.404 599.477 230.834C598.316 231.264 597.02 232.044 595.588 233.176L593.697 230.748C596.59 228.342 599.742 227.139 603.15 227.139C606.101 227.139 608.414 227.898 610.09 229.416C611.766 230.92 612.604 232.947 612.604 235.496C612.604 237.487 612.045 239.456 610.928 241.404C609.811 243.352 607.719 245.816 604.654 248.795L597.779 255.52V255.691H613.936V259ZM640.598 251.781H635.936V259H632.52V251.781H617.244V248.666L632.154 227.418H635.936V248.537H640.598V251.781ZM632.52 248.537V238.096C632.52 236.048 632.591 233.734 632.734 231.156H632.562C631.875 232.531 631.23 233.67 630.629 234.572L620.811 248.537H632.52ZM654.047 227.139C656.911 227.139 659.182 227.805 660.857 229.137C662.533 230.469 663.371 232.309 663.371 234.658C663.371 236.205 662.891 237.616 661.932 238.891C660.972 240.165 659.439 241.326 657.334 242.371C659.883 243.589 661.695 244.87 662.77 246.217C663.844 247.549 664.381 249.096 664.381 250.857C664.381 253.464 663.471 255.548 661.652 257.109C659.833 258.656 657.341 259.43 654.176 259.43C650.824 259.43 648.246 258.699 646.441 257.238C644.637 255.763 643.734 253.679 643.734 250.986C643.734 247.391 645.926 244.591 650.309 242.586C648.332 241.469 646.914 240.266 646.055 238.977C645.195 237.673 644.766 236.219 644.766 234.615C644.766 232.338 645.604 230.526 647.279 229.18C648.969 227.819 651.225 227.139 654.047 227.139ZM647.258 251.072C647.258 252.791 647.852 254.13 649.041 255.09C650.244 256.049 651.927 256.529 654.09 256.529C656.224 256.529 657.885 256.028 659.074 255.025C660.263 254.023 660.857 252.648 660.857 250.9C660.857 249.511 660.299 248.279 659.182 247.205C658.064 246.117 656.117 245.064 653.338 244.047C651.204 244.964 649.657 245.98 648.697 247.098C647.738 248.201 647.258 249.525 647.258 251.072ZM654.004 230.039C652.214 230.039 650.81 230.469 649.793 231.328C648.776 232.188 648.268 233.333 648.268 234.766C648.268 236.083 648.69 237.215 649.535 238.16C650.38 239.105 651.941 240.051 654.219 240.996C656.267 240.137 657.714 239.213 658.559 238.225C659.418 237.236 659.848 236.083 659.848 234.766C659.848 233.319 659.325 232.173 658.279 231.328C657.248 230.469 655.823 230.039 654.004 230.039ZM680.709 242.006H689.561V244.971H680.709V254.123H677.723V244.971H668.914V242.006H677.723V232.811H680.709V242.006Z" fill="#F2EEE3"/>
<path d="M575.344 297.2C574.264 297.2 573.251 296.993 572.304 296.58C571.371 296.167 570.544 295.593 569.824 294.86C569.118 294.113 568.564 293.26 568.164 292.3C567.764 291.327 567.564 290.287 567.564 289.18C567.564 288.087 567.758 287.06 568.144 286.1C568.544 285.127 569.098 284.273 569.804 283.54C570.524 282.807 571.351 282.233 572.284 281.82C573.231 281.393 574.251 281.18 575.344 281.18C576.304 281.18 577.178 281.32 577.964 281.6C578.751 281.88 579.511 282.327 580.244 282.94C580.418 283.073 580.491 283.247 580.464 283.46C580.438 283.66 580.338 283.8 580.164 283.88C580.124 284.04 579.998 284.14 579.784 284.18C579.584 284.22 579.384 284.16 579.184 284C578.664 283.547 578.098 283.213 577.484 283C576.871 282.773 576.158 282.66 575.344 282.66C574.478 282.66 573.664 282.833 572.904 283.18C572.158 283.527 571.498 284 570.924 284.6C570.351 285.2 569.898 285.893 569.564 286.68C569.244 287.467 569.084 288.3 569.084 289.18C569.084 290.087 569.244 290.933 569.564 291.72C569.898 292.507 570.351 293.2 570.924 293.8C571.498 294.4 572.158 294.873 572.904 295.22C573.664 295.553 574.478 295.72 575.344 295.72C576.784 295.72 578.098 295.253 579.284 294.32C579.524 294.133 579.778 294.107 580.044 294.24C580.324 294.373 580.464 294.6 580.464 294.92C580.464 295.133 580.391 295.32 580.244 295.48C579.564 296.107 578.804 296.553 577.964 296.82C577.124 297.073 576.251 297.2 575.344 297.2ZM588.314 297.12C587.367 297.12 586.521 296.927 585.774 296.54C585.027 296.14 584.434 295.56 583.994 294.8C583.567 294.04 583.354 293.113 583.354 292.02V286.82C583.354 286.607 583.427 286.427 583.574 286.28C583.721 286.133 583.901 286.06 584.114 286.06C584.341 286.06 584.527 286.133 584.674 286.28C584.821 286.427 584.894 286.607 584.894 286.82V292.02C584.894 293.247 585.234 294.16 585.914 294.76C586.594 295.36 587.447 295.66 588.474 295.66C589.127 295.66 589.714 295.533 590.234 295.28C590.767 295.027 591.187 294.68 591.494 294.24C591.801 293.8 591.954 293.3 591.954 292.74V286.82C591.954 286.593 592.021 286.413 592.154 286.28C592.301 286.133 592.487 286.06 592.714 286.06C592.941 286.06 593.127 286.133 593.274 286.28C593.421 286.413 593.494 286.593 593.494 286.82V296.22C593.494 296.46 593.421 296.653 593.274 296.8C593.127 296.933 592.941 297 592.714 297C592.487 297 592.301 296.933 592.154 296.8C592.021 296.653 591.954 296.46 591.954 296.22V295.54C591.514 296.033 590.981 296.42 590.354 296.7C589.727 296.98 589.047 297.12 588.314 297.12ZM597.869 301.68C597.629 301.68 597.436 301.607 597.289 301.46C597.156 301.327 597.089 301.14 597.089 300.9V291.46C597.102 290.42 597.349 289.487 597.829 288.66C598.322 287.82 598.982 287.16 599.809 286.68C600.649 286.2 601.589 285.96 602.629 285.96C603.696 285.96 604.649 286.207 605.489 286.7C606.329 287.18 606.989 287.84 607.469 288.68C607.962 289.52 608.209 290.473 608.209 291.54C608.209 292.593 607.969 293.54 607.489 294.38C607.022 295.22 606.382 295.887 605.569 296.38C604.756 296.86 603.836 297.1 602.809 297.1C601.916 297.1 601.102 296.913 600.369 296.54C599.649 296.153 599.069 295.647 598.629 295.02V300.9C598.629 301.14 598.556 301.327 598.409 301.46C598.276 301.607 598.096 301.68 597.869 301.68ZM602.629 295.7C603.402 295.7 604.096 295.52 604.709 295.16C605.322 294.8 605.802 294.307 606.149 293.68C606.509 293.04 606.689 292.327 606.689 291.54C606.689 290.74 606.509 290.027 606.149 289.4C605.802 288.773 605.322 288.28 604.709 287.92C604.096 287.547 603.402 287.36 602.629 287.36C601.869 287.36 601.182 287.547 600.569 287.92C599.956 288.28 599.476 288.773 599.129 289.4C598.782 290.027 598.609 290.74 598.609 291.54C598.609 292.327 598.782 293.04 599.129 293.68C599.476 294.307 599.956 294.8 600.569 295.16C601.182 295.52 601.869 295.7 602.629 295.7ZM615.05 297.1C614.263 297.1 613.483 296.967 612.71 296.7C611.936 296.433 611.31 296.033 610.83 295.5C610.683 295.34 610.623 295.16 610.65 294.96C610.676 294.76 610.776 294.587 610.95 294.44C611.136 294.307 611.33 294.253 611.53 294.28C611.73 294.307 611.896 294.393 612.03 294.54C612.35 294.913 612.77 295.2 613.29 295.4C613.823 295.6 614.41 295.7 615.05 295.7C616.036 295.7 616.75 295.533 617.19 295.2C617.63 294.853 617.856 294.44 617.87 293.96C617.87 293.48 617.643 293.087 617.19 292.78C616.736 292.46 615.99 292.213 614.95 292.04C613.603 291.827 612.616 291.453 611.99 290.92C611.363 290.387 611.05 289.753 611.05 289.02C611.05 288.34 611.23 287.773 611.59 287.32C611.95 286.867 612.43 286.527 613.03 286.3C613.63 286.073 614.29 285.96 615.01 285.96C615.903 285.96 616.67 286.113 617.31 286.42C617.963 286.727 618.49 287.14 618.89 287.66C619.023 287.833 619.076 288.013 619.05 288.2C619.023 288.387 618.916 288.54 618.73 288.66C618.57 288.753 618.383 288.787 618.17 288.76C617.97 288.72 617.796 288.62 617.65 288.46C616.996 287.713 616.103 287.34 614.97 287.34C614.236 287.34 613.65 287.493 613.21 287.8C612.77 288.093 612.55 288.467 612.55 288.92C612.55 289.373 612.743 289.747 613.13 290.04C613.53 290.333 614.276 290.573 615.37 290.76C616.37 290.92 617.156 291.16 617.73 291.48C618.316 291.787 618.73 292.153 618.97 292.58C619.223 292.993 619.35 293.447 619.35 293.94C619.35 294.567 619.163 295.12 618.79 295.6C618.43 296.067 617.923 296.433 617.27 296.7C616.63 296.967 615.89 297.1 615.05 297.1ZM632.85 297.1C631.784 297.1 630.83 296.86 629.99 296.38C629.15 295.9 628.49 295.24 628.01 294.4C627.53 293.56 627.29 292.607 627.29 291.54C627.29 290.46 627.53 289.5 628.01 288.66C628.49 287.82 629.15 287.16 629.99 286.68C630.83 286.2 631.784 285.96 632.85 285.96C633.917 285.96 634.864 286.2 635.69 286.68C636.53 287.16 637.19 287.82 637.67 288.66C638.15 289.5 638.397 290.46 638.41 291.54C638.41 292.607 638.164 293.56 637.67 294.4C637.19 295.24 636.53 295.9 635.69 296.38C634.864 296.86 633.917 297.1 632.85 297.1ZM632.85 295.7C633.624 295.7 634.317 295.52 634.93 295.16C635.544 294.8 636.024 294.307 636.37 293.68C636.717 293.053 636.89 292.34 636.89 291.54C636.89 290.74 636.717 290.027 636.37 289.4C636.024 288.76 635.544 288.26 634.93 287.9C634.317 287.54 633.624 287.36 632.85 287.36C632.077 287.36 631.384 287.54 630.77 287.9C630.157 288.26 629.67 288.76 629.31 289.4C628.964 290.027 628.79 290.74 628.79 291.54C628.79 292.34 628.964 293.053 629.31 293.68C629.67 294.307 630.157 294.8 630.77 295.16C631.384 295.52 632.077 295.7 632.85 295.7ZM642.765 297C642.565 297 642.392 296.933 642.245 296.8C642.099 296.653 642.025 296.46 642.025 296.22V287.8H640.745C640.532 287.8 640.359 287.74 640.225 287.62C640.105 287.487 640.045 287.327 640.045 287.14C640.045 286.94 640.105 286.78 640.225 286.66C640.359 286.527 640.532 286.46 640.745 286.46H642.025V286.08C642.025 284.68 642.385 283.547 643.105 282.68C643.825 281.813 644.865 281.38 646.225 281.38C646.452 281.38 646.639 281.447 646.785 281.58C646.932 281.713 647.005 281.88 647.005 282.08C647.005 282.28 646.932 282.447 646.785 282.58C646.639 282.713 646.452 282.78 646.225 282.78C645.319 282.78 644.645 283.087 644.205 283.7C643.779 284.3 643.565 285.067 643.565 286V286.46H645.965C646.179 286.46 646.345 286.527 646.465 286.66C646.599 286.78 646.665 286.94 646.665 287.14C646.665 287.327 646.599 287.487 646.465 287.62C646.345 287.74 646.179 287.8 645.965 287.8H643.565V296.22C643.565 296.46 643.492 296.653 643.345 296.8C643.212 296.933 643.019 297 642.765 297ZM659.469 297.1C658.416 297.1 657.476 296.86 656.649 296.38C655.836 295.887 655.189 295.22 654.709 294.38C654.242 293.54 654.009 292.593 654.009 291.54C654.009 290.473 654.236 289.52 654.689 288.68C655.142 287.84 655.762 287.18 656.549 286.7C657.336 286.207 658.242 285.96 659.269 285.96C660.936 285.96 662.289 286.6 663.329 287.88C663.476 288.04 663.529 288.213 663.489 288.4C663.449 288.573 663.336 288.727 663.149 288.86C663.002 288.967 662.836 289.007 662.649 288.98C662.476 288.94 662.322 288.84 662.189 288.68C661.416 287.8 660.442 287.36 659.269 287.36C658.522 287.36 657.862 287.54 657.289 287.9C656.729 288.26 656.289 288.753 655.969 289.38C655.662 290.007 655.509 290.727 655.509 291.54C655.509 292.34 655.676 293.053 656.009 293.68C656.342 294.307 656.809 294.8 657.409 295.16C658.009 295.52 658.696 295.7 659.469 295.7C660.536 295.7 661.396 295.413 662.049 294.84C662.209 294.707 662.376 294.633 662.549 294.62C662.722 294.607 662.882 294.66 663.029 294.78C663.189 294.927 663.276 295.093 663.289 295.28C663.316 295.467 663.256 295.627 663.109 295.76C662.136 296.653 660.922 297.1 659.469 297.1ZM671.483 297.1C670.416 297.1 669.463 296.86 668.623 296.38C667.783 295.9 667.123 295.24 666.643 294.4C666.163 293.56 665.923 292.607 665.923 291.54C665.923 290.46 666.163 289.5 666.643 288.66C667.123 287.82 667.783 287.16 668.623 286.68C669.463 286.2 670.416 285.96 671.483 285.96C672.55 285.96 673.496 286.2 674.323 286.68C675.163 287.16 675.823 287.82 676.303 288.66C676.783 289.5 677.03 290.46 677.043 291.54C677.043 292.607 676.796 293.56 676.303 294.4C675.823 295.24 675.163 295.9 674.323 296.38C673.496 296.86 672.55 297.1 671.483 297.1ZM671.483 295.7C672.256 295.7 672.95 295.52 673.563 295.16C674.176 294.8 674.656 294.307 675.003 293.68C675.35 293.053 675.523 292.34 675.523 291.54C675.523 290.74 675.35 290.027 675.003 289.4C674.656 288.76 674.176 288.26 673.563 287.9C672.95 287.54 672.256 287.36 671.483 287.36C670.71 287.36 670.016 287.54 669.403 287.9C668.79 288.26 668.303 288.76 667.943 289.4C667.596 290.027 667.423 290.74 667.423 291.54C667.423 292.34 667.596 293.053 667.943 293.68C668.303 294.307 668.79 294.8 669.403 295.16C670.016 295.52 670.71 295.7 671.483 295.7ZM681.398 297C681.198 297 681.025 296.933 680.878 296.8C680.732 296.653 680.658 296.46 680.658 296.22V287.8H679.378C679.165 287.8 678.992 287.74 678.858 287.62C678.738 287.487 678.678 287.327 678.678 287.14C678.678 286.94 678.738 286.78 678.858 286.66C678.992 286.527 679.165 286.46 679.378 286.46H680.658V286.08C680.658 284.68 681.018 283.547 681.738 282.68C682.458 281.813 683.498 281.38 684.858 281.38C685.085 281.38 685.272 281.447 685.418 281.58C685.565 281.713 685.638 281.88 685.638 282.08C685.638 282.28 685.565 282.447 685.418 282.58C685.272 282.713 685.085 282.78 684.858 282.78C683.952 282.78 683.278 283.087 682.838 283.7C682.412 284.3 682.198 285.067 682.198 286V286.46H684.598C684.812 286.46 684.978 286.527 685.098 286.66C685.232 286.78 685.298 286.94 685.298 287.14C685.298 287.327 685.232 287.487 685.098 287.62C684.978 287.74 684.812 287.8 684.598 287.8H682.198V296.22C682.198 296.46 682.125 296.653 681.978 296.8C681.845 296.933 681.652 297 681.398 297ZM688.718 297C688.518 297 688.345 296.933 688.198 296.8C688.052 296.653 687.978 296.46 687.978 296.22V287.8H686.698C686.485 287.8 686.312 287.74 686.178 287.62C686.058 287.487 685.998 287.327 685.998 287.14C685.998 286.94 686.058 286.78 686.178 286.66C686.312 286.527 686.485 286.46 686.698 286.46H687.978V286.08C687.978 284.68 688.338 283.547 689.058 282.68C689.778 281.813 690.818 281.38 692.178 281.38C692.405 281.38 692.592 281.447 692.738 281.58C692.885 281.713 692.958 281.88 692.958 282.08C692.958 282.28 692.885 282.447 692.738 282.58C692.592 282.713 692.405 282.78 692.178 282.78C691.272 282.78 690.598 283.087 690.158 283.7C689.732 284.3 689.518 285.067 689.518 286V286.46H691.918C692.132 286.46 692.298 286.527 692.418 286.66C692.552 286.78 692.618 286.94 692.618 287.14C692.618 287.327 692.552 287.487 692.418 287.62C692.298 287.74 692.132 287.8 691.918 287.8H689.518V296.22C689.518 296.46 689.445 296.653 689.298 296.8C689.165 296.933 688.972 297 688.718 297ZM699.256 297.1C698.176 297.1 697.216 296.867 696.376 296.4C695.549 295.92 694.896 295.26 694.416 294.42C693.949 293.58 693.716 292.62 693.716 291.54C693.716 290.447 693.936 289.487 694.376 288.66C694.829 287.82 695.449 287.16 696.236 286.68C697.023 286.2 697.929 285.96 698.956 285.96C699.969 285.96 700.849 286.193 701.596 286.66C702.356 287.113 702.943 287.747 703.356 288.56C703.769 289.373 703.976 290.3 703.976 291.34C703.976 291.553 703.909 291.727 703.776 291.86C703.643 291.98 703.469 292.04 703.256 292.04H695.176C695.256 292.76 695.476 293.4 695.836 293.96C696.196 294.507 696.669 294.94 697.256 295.26C697.843 295.567 698.509 295.72 699.256 295.72C699.736 295.72 700.216 295.64 700.696 295.48C701.189 295.307 701.583 295.093 701.876 294.84C702.023 294.72 702.189 294.66 702.376 294.66C702.563 294.647 702.723 294.693 702.856 294.8C703.029 294.96 703.116 295.133 703.116 295.32C703.129 295.507 703.056 295.667 702.896 295.8C702.456 296.173 701.896 296.487 701.216 296.74C700.536 296.98 699.883 297.1 699.256 297.1ZM698.956 287.34C697.929 287.34 697.083 287.66 696.416 288.3C695.749 288.927 695.349 289.747 695.216 290.76H702.536C702.429 289.747 702.056 288.927 701.416 288.3C700.789 287.66 699.969 287.34 698.956 287.34ZM711.151 297.1C710.071 297.1 709.111 296.867 708.271 296.4C707.444 295.92 706.791 295.26 706.311 294.42C705.844 293.58 705.611 292.62 705.611 291.54C705.611 290.447 705.831 289.487 706.271 288.66C706.724 287.82 707.344 287.16 708.131 286.68C708.917 286.2 709.824 285.96 710.851 285.96C711.864 285.96 712.744 286.193 713.491 286.66C714.251 287.113 714.837 287.747 715.251 288.56C715.664 289.373 715.871 290.3 715.871 291.34C715.871 291.553 715.804 291.727 715.671 291.86C715.537 291.98 715.364 292.04 715.151 292.04H707.071C707.151 292.76 707.371 293.4 707.731 293.96C708.091 294.507 708.564 294.94 709.151 295.26C709.737 295.567 710.404 295.72 711.151 295.72C711.631 295.72 712.111 295.64 712.591 295.48C713.084 295.307 713.477 295.093 713.771 294.84C713.917 294.72 714.084 294.66 714.271 294.66C714.457 294.647 714.617 294.693 714.751 294.8C714.924 294.96 715.011 295.133 715.011 295.32C715.024 295.507 714.951 295.667 714.791 295.8C714.351 296.173 713.791 296.487 713.111 296.74C712.431 296.98 711.777 297.1 711.151 297.1ZM710.851 287.34C709.824 287.34 708.977 287.66 708.311 288.3C707.644 288.927 707.244 289.747 707.111 290.76H714.431C714.324 289.747 713.951 288.927 713.311 288.3C712.684 287.66 711.864 287.34 710.851 287.34Z" fill="#F2EEE3"/>
<path d="M1057.6 251.781H1052.94V259H1049.52V251.781H1034.24V248.666L1049.15 227.418H1052.94V248.537H1057.6V251.781ZM1049.52 248.537V238.096C1049.52 236.048 1049.59 233.734 1049.73 231.156H1049.56C1048.88 232.531 1048.23 233.67 1047.63 234.572L1037.81 248.537H1049.52ZM1072.53 242.006H1081.38V244.971H1072.53V254.123H1069.54V244.971H1060.73V242.006H1069.54V232.811H1072.53V242.006Z" fill="#F2EEE3"/>
<path d="M965.093 297C964.866 297 964.679 296.927 964.533 296.78C964.386 296.633 964.313 296.447 964.313 296.22V282.16C964.313 281.933 964.386 281.747 964.533 281.6C964.679 281.453 964.866 281.38 965.093 281.38H968.693C969.839 281.38 970.886 281.573 971.833 281.96C972.793 282.333 973.619 282.873 974.313 283.58C975.006 284.273 975.539 285.093 975.913 286.04C976.299 286.987 976.493 288.033 976.493 289.18C976.493 290.327 976.299 291.38 975.913 292.34C975.539 293.287 975.006 294.113 974.313 294.82C973.619 295.513 972.793 296.053 971.833 296.44C970.886 296.813 969.839 297 968.693 297H965.093ZM965.873 295.6H968.693C969.919 295.6 970.999 295.327 971.933 294.78C972.879 294.22 973.619 293.46 974.153 292.5C974.686 291.527 974.953 290.42 974.953 289.18C974.953 287.94 974.686 286.84 974.153 285.88C973.619 284.907 972.879 284.147 971.933 283.6C970.999 283.053 969.919 282.78 968.693 282.78H965.873V295.6ZM980.603 297C980.363 297 980.17 296.933 980.023 296.8C979.89 296.653 979.823 296.46 979.823 296.22V286.84C979.823 286.6 979.89 286.413 980.023 286.28C980.17 286.133 980.363 286.06 980.603 286.06C980.83 286.06 981.01 286.133 981.143 286.28C981.29 286.413 981.363 286.6 981.363 286.84V296.22C981.363 296.46 981.29 296.653 981.143 296.8C981.01 296.933 980.83 297 980.603 297ZM980.583 283.98C980.29 283.98 980.036 283.873 979.823 283.66C979.61 283.447 979.503 283.187 979.503 282.88C979.503 282.547 979.61 282.287 979.823 282.1C980.05 281.9 980.31 281.8 980.603 281.8C980.883 281.8 981.13 281.9 981.343 282.1C981.57 282.287 981.683 282.547 981.683 282.88C981.683 283.187 981.576 283.447 981.363 283.66C981.15 283.873 980.89 283.98 980.583 283.98ZM986.644 297C986.444 297 986.271 296.933 986.124 296.8C985.978 296.653 985.904 296.46 985.904 296.22V287.8H984.624C984.411 287.8 984.238 287.74 984.104 287.62C983.984 287.487 983.924 287.327 983.924 287.14C983.924 286.94 983.984 286.78 984.104 286.66C984.238 286.527 984.411 286.46 984.624 286.46H985.904V286.08C985.904 284.68 986.264 283.547 986.984 282.68C987.704 281.813 988.744 281.38 990.104 281.38C990.331 281.38 990.518 281.447 990.664 281.58C990.811 281.713 990.884 281.88 990.884 282.08C990.884 282.28 990.811 282.447 990.664 282.58C990.518 282.713 990.331 282.78 990.104 282.78C989.198 282.78 988.524 283.087 988.084 283.7C987.658 284.3 987.444 285.067 987.444 286V286.46H989.844C990.058 286.46 990.224 286.527 990.344 286.66C990.478 286.78 990.544 286.94 990.544 287.14C990.544 287.327 990.478 287.487 990.344 287.62C990.224 287.74 990.058 287.8 989.844 287.8H987.444V296.22C987.444 296.46 987.371 296.653 987.224 296.8C987.091 296.933 986.898 297 986.644 297ZM993.964 297C993.764 297 993.591 296.933 993.444 296.8C993.298 296.653 993.224 296.46 993.224 296.22V287.8H991.944C991.731 287.8 991.558 287.74 991.424 287.62C991.304 287.487 991.244 287.327 991.244 287.14C991.244 286.94 991.304 286.78 991.424 286.66C991.558 286.527 991.731 286.46 991.944 286.46H993.224V286.08C993.224 284.68 993.584 283.547 994.304 282.68C995.024 281.813 996.064 281.38 997.424 281.38C997.651 281.38 997.838 281.447 997.984 281.58C998.131 281.713 998.204 281.88 998.204 282.08C998.204 282.28 998.131 282.447 997.984 282.58C997.838 282.713 997.651 282.78 997.424 282.78C996.518 282.78 995.844 283.087 995.404 283.7C994.978 284.3 994.764 285.067 994.764 286V286.46H997.164C997.378 286.46 997.544 286.527 997.664 286.66C997.798 286.78 997.864 286.94 997.864 287.14C997.864 287.327 997.798 287.487 997.664 287.62C997.544 287.74 997.378 287.8 997.164 287.8H994.764V296.22C994.764 296.46 994.691 296.653 994.544 296.8C994.411 296.933 994.218 297 993.964 297ZM1004.5 297.1C1003.42 297.1 1002.46 296.867 1001.62 296.4C1000.8 295.92 1000.14 295.26 999.662 294.42C999.196 293.58 998.962 292.62 998.962 291.54C998.962 290.447 999.182 289.487 999.622 288.66C1000.08 287.82 1000.7 287.16 1001.48 286.68C1002.27 286.2 1003.18 285.96 1004.2 285.96C1005.22 285.96 1006.1 286.193 1006.84 286.66C1007.6 287.113 1008.19 287.747 1008.6 288.56C1009.02 289.373 1009.22 290.3 1009.22 291.34C1009.22 291.553 1009.16 291.727 1009.02 291.86C1008.89 291.98 1008.72 292.04 1008.5 292.04H1000.42C1000.5 292.76 1000.72 293.4 1001.08 293.96C1001.44 294.507 1001.92 294.94 1002.5 295.26C1003.09 295.567 1003.76 295.72 1004.5 295.72C1004.98 295.72 1005.46 295.64 1005.94 295.48C1006.44 295.307 1006.83 295.093 1007.12 294.84C1007.27 294.72 1007.44 294.66 1007.62 294.66C1007.81 294.647 1007.97 294.693 1008.1 294.8C1008.28 294.96 1008.36 295.133 1008.36 295.32C1008.38 295.507 1008.3 295.667 1008.14 295.8C1007.7 296.173 1007.14 296.487 1006.46 296.74C1005.78 296.98 1005.13 297.1 1004.5 297.1ZM1004.2 287.34C1003.18 287.34 1002.33 287.66 1001.66 288.3C1001 288.927 1000.6 289.747 1000.46 290.76H1007.78C1007.68 289.747 1007.3 288.927 1006.66 288.3C1006.04 287.66 1005.22 287.34 1004.2 287.34ZM1012.59 297C1012.08 297 1011.83 296.747 1011.83 296.24V286.82C1011.83 286.313 1012.08 286.06 1012.59 286.06C1013.09 286.06 1013.35 286.313 1013.35 286.82V287.68C1013.75 287.147 1014.24 286.727 1014.83 286.42C1015.41 286.1 1016.06 285.94 1016.77 285.94C1017.38 285.94 1017.85 286.027 1018.19 286.2C1018.52 286.373 1018.65 286.627 1018.57 286.96C1018.5 287.267 1018.34 287.427 1018.09 287.44C1017.85 287.44 1017.56 287.427 1017.23 287.4C1016.48 287.333 1015.81 287.413 1015.23 287.64C1014.65 287.853 1014.19 288.187 1013.85 288.64C1013.51 289.093 1013.35 289.633 1013.35 290.26V296.24C1013.35 296.747 1013.09 297 1012.59 297ZM1025.15 297.1C1024.07 297.1 1023.11 296.867 1022.27 296.4C1021.44 295.92 1020.79 295.26 1020.31 294.42C1019.84 293.58 1019.61 292.62 1019.61 291.54C1019.61 290.447 1019.83 289.487 1020.27 288.66C1020.72 287.82 1021.34 287.16 1022.13 286.68C1022.91 286.2 1023.82 285.96 1024.85 285.96C1025.86 285.96 1026.74 286.193 1027.49 286.66C1028.25 287.113 1028.83 287.747 1029.25 288.56C1029.66 289.373 1029.87 290.3 1029.87 291.34C1029.87 291.553 1029.8 291.727 1029.67 291.86C1029.53 291.98 1029.36 292.04 1029.15 292.04H1021.07C1021.15 292.76 1021.37 293.4 1021.73 293.96C1022.09 294.507 1022.56 294.94 1023.15 295.26C1023.73 295.567 1024.4 295.72 1025.15 295.72C1025.63 295.72 1026.11 295.64 1026.59 295.48C1027.08 295.307 1027.47 295.093 1027.77 294.84C1027.91 294.72 1028.08 294.66 1028.27 294.66C1028.45 294.647 1028.61 294.693 1028.75 294.8C1028.92 294.96 1029.01 295.133 1029.01 295.32C1029.02 295.507 1028.95 295.667 1028.79 295.8C1028.35 296.173 1027.79 296.487 1027.11 296.74C1026.43 296.98 1025.77 297.1 1025.15 297.1ZM1024.85 287.34C1023.82 287.34 1022.97 287.66 1022.31 288.3C1021.64 288.927 1021.24 289.747 1021.11 290.76H1028.43C1028.32 289.747 1027.95 288.927 1027.31 288.3C1026.68 287.66 1025.86 287.34 1024.85 287.34ZM1033.25 297C1033.01 297 1032.82 296.933 1032.67 296.8C1032.54 296.653 1032.47 296.467 1032.47 296.24V286.84C1032.47 286.6 1032.54 286.413 1032.67 286.28C1032.82 286.133 1033.01 286.06 1033.25 286.06C1033.48 286.06 1033.66 286.133 1033.79 286.28C1033.94 286.413 1034.01 286.6 1034.01 286.84V287.52C1034.44 287.027 1034.97 286.64 1035.59 286.36C1036.23 286.08 1036.92 285.94 1037.65 285.94C1038.6 285.94 1039.45 286.14 1040.19 286.54C1040.94 286.927 1041.53 287.5 1041.95 288.26C1042.39 289.02 1042.61 289.947 1042.61 291.04V296.24C1042.61 296.453 1042.54 296.633 1042.39 296.78C1042.25 296.927 1042.07 297 1041.85 297C1041.63 297 1041.44 296.927 1041.29 296.78C1041.15 296.633 1041.07 296.453 1041.07 296.24V291.04C1041.07 289.8 1040.73 288.887 1040.03 288.3C1039.35 287.7 1038.51 287.4 1037.49 287.4C1036.84 287.4 1036.25 287.527 1035.71 287.78C1035.19 288.033 1034.78 288.38 1034.47 288.82C1034.17 289.26 1034.01 289.76 1034.01 290.32V296.24C1034.01 296.467 1033.94 296.653 1033.79 296.8C1033.66 296.933 1033.48 297 1033.25 297ZM1050.29 297C1049.58 297 1048.95 296.833 1048.39 296.5C1047.84 296.167 1047.41 295.713 1047.09 295.14C1046.77 294.553 1046.61 293.887 1046.61 293.14V287.8H1045.31C1045.11 287.8 1044.94 287.74 1044.81 287.62C1044.67 287.487 1044.61 287.327 1044.61 287.14C1044.61 286.94 1044.67 286.78 1044.81 286.66C1044.94 286.527 1045.11 286.46 1045.31 286.46H1046.61V283.36C1046.61 283.133 1046.67 282.947 1046.81 282.8C1046.95 282.653 1047.14 282.58 1047.37 282.58C1047.59 282.58 1047.78 282.653 1047.93 282.8C1048.07 282.947 1048.15 283.133 1048.15 283.36V286.46H1050.41C1050.61 286.46 1050.77 286.527 1050.91 286.66C1051.04 286.78 1051.11 286.94 1051.11 287.14C1051.11 287.327 1051.04 287.487 1050.91 287.62C1050.77 287.74 1050.61 287.8 1050.41 287.8H1048.15V293.14C1048.15 293.82 1048.35 294.38 1048.75 294.82C1049.15 295.247 1049.66 295.46 1050.29 295.46H1050.83C1051.04 295.46 1051.21 295.533 1051.35 295.68C1051.48 295.827 1051.55 296.013 1051.55 296.24C1051.55 296.467 1051.47 296.653 1051.31 296.8C1051.15 296.933 1050.95 297 1050.71 297H1050.29ZM1064.79 297.1C1063.74 297.1 1062.8 296.86 1061.97 296.38C1061.16 295.887 1060.51 295.22 1060.03 294.38C1059.57 293.54 1059.33 292.593 1059.33 291.54C1059.33 290.473 1059.56 289.52 1060.01 288.68C1060.47 287.84 1061.09 287.18 1061.87 286.7C1062.66 286.207 1063.57 285.96 1064.59 285.96C1066.26 285.96 1067.61 286.6 1068.65 287.88C1068.8 288.04 1068.85 288.213 1068.81 288.4C1068.77 288.573 1068.66 288.727 1068.47 288.86C1068.33 288.967 1068.16 289.007 1067.97 288.98C1067.8 288.94 1067.65 288.84 1067.51 288.68C1066.74 287.8 1065.77 287.36 1064.59 287.36C1063.85 287.36 1063.19 287.54 1062.61 287.9C1062.05 288.26 1061.61 288.753 1061.29 289.38C1060.99 290.007 1060.83 290.727 1060.83 291.54C1060.83 292.34 1061 293.053 1061.33 293.68C1061.67 294.307 1062.13 294.8 1062.73 295.16C1063.33 295.52 1064.02 295.7 1064.79 295.7C1065.86 295.7 1066.72 295.413 1067.37 294.84C1067.53 294.707 1067.7 294.633 1067.87 294.62C1068.05 294.607 1068.21 294.66 1068.35 294.78C1068.51 294.927 1068.6 295.093 1068.61 295.28C1068.64 295.467 1068.58 295.627 1068.43 295.76C1067.46 296.653 1066.25 297.1 1064.79 297.1ZM1076.81 297.1C1075.74 297.1 1074.79 296.86 1073.95 296.38C1073.11 295.9 1072.45 295.24 1071.97 294.4C1071.49 293.56 1071.25 292.607 1071.25 291.54C1071.25 290.46 1071.49 289.5 1071.97 288.66C1072.45 287.82 1073.11 287.16 1073.95 286.68C1074.79 286.2 1075.74 285.96 1076.81 285.96C1077.87 285.96 1078.82 286.2 1079.65 286.68C1080.49 287.16 1081.15 287.82 1081.63 288.66C1082.11 289.5 1082.35 290.46 1082.37 291.54C1082.37 292.607 1082.12 293.56 1081.63 294.4C1081.15 295.24 1080.49 295.9 1079.65 296.38C1078.82 296.86 1077.87 297.1 1076.81 297.1ZM1076.81 295.7C1077.58 295.7 1078.27 295.52 1078.89 295.16C1079.5 294.8 1079.98 294.307 1080.33 293.68C1080.67 293.053 1080.85 292.34 1080.85 291.54C1080.85 290.74 1080.67 290.027 1080.33 289.4C1079.98 288.76 1079.5 288.26 1078.89 287.9C1078.27 287.54 1077.58 287.36 1076.81 287.36C1076.03 287.36 1075.34 287.54 1074.73 287.9C1074.11 288.26 1073.63 288.76 1073.27 289.4C1072.92 290.027 1072.75 290.74 1072.75 291.54C1072.75 292.34 1072.92 293.053 1073.27 293.68C1073.63 294.307 1074.11 294.8 1074.73 295.16C1075.34 295.52 1076.03 295.7 1076.81 295.7ZM1090.12 297.12C1089.18 297.12 1088.33 296.927 1087.58 296.54C1086.84 296.14 1086.24 295.56 1085.8 294.8C1085.38 294.04 1085.16 293.113 1085.16 292.02V286.82C1085.16 286.607 1085.24 286.427 1085.38 286.28C1085.53 286.133 1085.71 286.06 1085.92 286.06C1086.15 286.06 1086.34 286.133 1086.48 286.28C1086.63 286.427 1086.7 286.607 1086.7 286.82V292.02C1086.7 293.247 1087.04 294.16 1087.72 294.76C1088.4 295.36 1089.26 295.66 1090.28 295.66C1090.94 295.66 1091.52 295.533 1092.04 295.28C1092.58 295.027 1093 294.68 1093.3 294.24C1093.61 293.8 1093.76 293.3 1093.76 292.74V286.82C1093.76 286.593 1093.83 286.413 1093.96 286.28C1094.11 286.133 1094.3 286.06 1094.52 286.06C1094.75 286.06 1094.94 286.133 1095.08 286.28C1095.23 286.413 1095.3 286.593 1095.3 286.82V296.22C1095.3 296.46 1095.23 296.653 1095.08 296.8C1094.94 296.933 1094.75 297 1094.52 297C1094.3 297 1094.11 296.933 1093.96 296.8C1093.83 296.653 1093.76 296.46 1093.76 296.22V295.54C1093.32 296.033 1092.79 296.42 1092.16 296.7C1091.54 296.98 1090.86 297.12 1090.12 297.12ZM1099.68 297C1099.44 297 1099.24 296.933 1099.1 296.8C1098.96 296.653 1098.9 296.467 1098.9 296.24V286.84C1098.9 286.6 1098.96 286.413 1099.1 286.28C1099.24 286.133 1099.44 286.06 1099.68 286.06C1099.9 286.06 1100.08 286.133 1100.22 286.28C1100.36 286.413 1100.44 286.6 1100.44 286.84V287.52C1100.86 287.027 1101.39 286.64 1102.02 286.36C1102.66 286.08 1103.34 285.94 1104.08 285.94C1105.02 285.94 1105.87 286.14 1106.62 286.54C1107.36 286.927 1107.95 287.5 1108.38 288.26C1108.82 289.02 1109.04 289.947 1109.04 291.04V296.24C1109.04 296.453 1108.96 296.633 1108.82 296.78C1108.67 296.927 1108.49 297 1108.28 297C1108.05 297 1107.86 296.927 1107.72 296.78C1107.57 296.633 1107.5 296.453 1107.5 296.24V291.04C1107.5 289.8 1107.15 288.887 1106.46 288.3C1105.78 287.7 1104.93 287.4 1103.92 287.4C1103.26 287.4 1102.67 287.527 1102.14 287.78C1101.62 288.033 1101.2 288.38 1100.9 288.82C1100.59 289.26 1100.44 289.76 1100.44 290.32V296.24C1100.44 296.467 1100.36 296.653 1100.22 296.8C1100.08 296.933 1099.9 297 1099.68 297ZM1116.71 297C1116.01 297 1115.37 296.833 1114.81 296.5C1114.27 296.167 1113.83 295.713 1113.51 295.14C1113.19 294.553 1113.03 293.887 1113.03 293.14V287.8H1111.73C1111.53 287.8 1111.37 287.74 1111.23 287.62C1111.1 287.487 1111.03 287.327 1111.03 287.14C1111.03 286.94 1111.1 286.78 1111.23 286.66C1111.37 286.527 1111.53 286.46 1111.73 286.46H1113.03V283.36C1113.03 283.133 1113.1 282.947 1113.23 282.8C1113.38 282.653 1113.57 282.58 1113.79 282.58C1114.02 282.58 1114.21 282.653 1114.35 282.8C1114.5 282.947 1114.57 283.133 1114.57 283.36V286.46H1116.83C1117.03 286.46 1117.2 286.527 1117.33 286.66C1117.47 286.78 1117.53 286.94 1117.53 287.14C1117.53 287.327 1117.47 287.487 1117.33 287.62C1117.2 287.74 1117.03 287.8 1116.83 287.8H1114.57V293.14C1114.57 293.82 1114.77 294.38 1115.17 294.82C1115.57 295.247 1116.09 295.46 1116.71 295.46H1117.25C1117.47 295.46 1117.64 295.533 1117.77 295.68C1117.91 295.827 1117.97 296.013 1117.97 296.24C1117.97 296.467 1117.89 296.653 1117.73 296.8C1117.57 296.933 1117.37 297 1117.13 297H1116.71ZM1121.24 297C1120.73 297 1120.48 296.747 1120.48 296.24V286.82C1120.48 286.313 1120.73 286.06 1121.24 286.06C1121.75 286.06 1122 286.313 1122 286.82V287.68C1122.4 287.147 1122.89 286.727 1123.48 286.42C1124.07 286.1 1124.71 285.94 1125.42 285.94C1126.03 285.94 1126.51 286.027 1126.84 286.2C1127.17 286.373 1127.3 286.627 1127.22 286.96C1127.15 287.267 1126.99 287.427 1126.74 287.44C1126.5 287.44 1126.21 287.427 1125.88 287.4C1125.13 287.333 1124.47 287.413 1123.88 287.64C1123.31 287.853 1122.85 288.187 1122.5 288.64C1122.17 289.093 1122 289.633 1122 290.26V296.24C1122 296.747 1121.75 297 1121.24 297ZM1130.74 297C1130.5 297 1130.31 296.933 1130.16 296.8C1130.03 296.653 1129.96 296.46 1129.96 296.22V286.84C1129.96 286.6 1130.03 286.413 1130.16 286.28C1130.31 286.133 1130.5 286.06 1130.74 286.06C1130.97 286.06 1131.15 286.133 1131.28 286.28C1131.43 286.413 1131.5 286.6 1131.5 286.84V296.22C1131.5 296.46 1131.43 296.653 1131.28 296.8C1131.15 296.933 1130.97 297 1130.74 297ZM1130.72 283.98C1130.43 283.98 1130.17 283.873 1129.96 283.66C1129.75 283.447 1129.64 283.187 1129.64 282.88C1129.64 282.547 1129.75 282.287 1129.96 282.1C1130.19 281.9 1130.45 281.8 1130.74 281.8C1131.02 281.8 1131.27 281.9 1131.48 282.1C1131.71 282.287 1131.82 282.547 1131.82 282.88C1131.82 283.187 1131.71 283.447 1131.5 283.66C1131.29 283.873 1131.03 283.98 1130.72 283.98ZM1140.38 297.1C1139.3 297.1 1138.34 296.867 1137.5 296.4C1136.67 295.92 1136.02 295.26 1135.54 294.42C1135.07 293.58 1134.84 292.62 1134.84 291.54C1134.84 290.447 1135.06 289.487 1135.5 288.66C1135.95 287.82 1136.57 287.16 1137.36 286.68C1138.15 286.2 1139.05 285.96 1140.08 285.96C1141.09 285.96 1141.97 286.193 1142.72 286.66C1143.48 287.113 1144.07 287.747 1144.48 288.56C1144.89 289.373 1145.1 290.3 1145.1 291.34C1145.1 291.553 1145.03 291.727 1144.9 291.86C1144.77 291.98 1144.59 292.04 1144.38 292.04H1136.3C1136.38 292.76 1136.6 293.4 1136.96 293.96C1137.32 294.507 1137.79 294.94 1138.38 295.26C1138.97 295.567 1139.63 295.72 1140.38 295.72C1140.86 295.72 1141.34 295.64 1141.82 295.48C1142.31 295.307 1142.71 295.093 1143 294.84C1143.15 294.72 1143.31 294.66 1143.5 294.66C1143.69 294.647 1143.85 294.693 1143.98 294.8C1144.15 294.96 1144.24 295.133 1144.24 295.32C1144.25 295.507 1144.18 295.667 1144.02 295.8C1143.58 296.173 1143.02 296.487 1142.34 296.74C1141.66 296.98 1141.01 297.1 1140.38 297.1ZM1140.08 287.34C1139.05 287.34 1138.21 287.66 1137.54 288.3C1136.87 288.927 1136.47 289.747 1136.34 290.76H1143.66C1143.55 289.747 1143.18 288.927 1142.54 288.3C1141.91 287.66 1141.09 287.34 1140.08 287.34ZM1151.53 297.1C1150.74 297.1 1149.96 296.967 1149.19 296.7C1148.41 296.433 1147.79 296.033 1147.31 295.5C1147.16 295.34 1147.1 295.16 1147.13 294.96C1147.15 294.76 1147.25 294.587 1147.43 294.44C1147.61 294.307 1147.81 294.253 1148.01 294.28C1148.21 294.307 1148.37 294.393 1148.51 294.54C1148.83 294.913 1149.25 295.2 1149.77 295.4C1150.3 295.6 1150.89 295.7 1151.53 295.7C1152.51 295.7 1153.23 295.533 1153.67 295.2C1154.11 294.853 1154.33 294.44 1154.35 293.96C1154.35 293.48 1154.12 293.087 1153.67 292.78C1153.21 292.46 1152.47 292.213 1151.43 292.04C1150.08 291.827 1149.09 291.453 1148.47 290.92C1147.84 290.387 1147.53 289.753 1147.53 289.02C1147.53 288.34 1147.71 287.773 1148.07 287.32C1148.43 286.867 1148.91 286.527 1149.51 286.3C1150.11 286.073 1150.77 285.96 1151.49 285.96C1152.38 285.96 1153.15 286.113 1153.79 286.42C1154.44 286.727 1154.97 287.14 1155.37 287.66C1155.5 287.833 1155.55 288.013 1155.53 288.2C1155.5 288.387 1155.39 288.54 1155.21 288.66C1155.05 288.753 1154.86 288.787 1154.65 288.76C1154.45 288.72 1154.27 288.62 1154.13 288.46C1153.47 287.713 1152.58 287.34 1151.45 287.34C1150.71 287.34 1150.13 287.493 1149.69 287.8C1149.25 288.093 1149.03 288.467 1149.03 288.92C1149.03 289.373 1149.22 289.747 1149.61 290.04C1150.01 290.333 1150.75 290.573 1151.85 290.76C1152.85 290.92 1153.63 291.16 1154.21 291.48C1154.79 291.787 1155.21 292.153 1155.45 292.58C1155.7 292.993 1155.83 293.447 1155.83 293.94C1155.83 294.567 1155.64 295.12 1155.27 295.6C1154.91 296.067 1154.4 296.433 1153.75 296.7C1153.11 296.967 1152.37 297.1 1151.53 297.1Z" fill="#F2EEE3"/>
</g>
<defs>
<filter id="filter0_d" x="-4" y="0" width="1288" height="528" filterUnits="userSpaceOnUse" color-interpolation-filters="sRGB">
<feFlood flood-opacity="0" result="BackgroundImageFix"/>
<feColorMatrix in="SourceAlpha" type="matrix" values="0 0 0 0 0 0 0 0 0 0 0 0 0 0 0 0 0 0 127 0" result="hardAlpha"/>
<feOffset dy="4"/>
<feGaussianBlur stdDeviation="2"/>
<feColorMatrix type="matrix" values="0 0 0 0 0 0 0 0 0 0 0 0 0 0 0 0 0 0 0.25 0"/>
<feBlend mode="normal" in2="BackgroundImageFix" result="effect1_dropShadow"/>
<feBlend mode="normal" in="SourceGraphic" in2="effect1_dropShadow" result="shape"/>
</filter>
<linearGradient id="paint0_linear" x1="640" y1="0" x2="640" y2="520" gradientUnits="userSpaceOnUse">
<stop stop-color="#E3632D"/>
<stop offset="1" stop-color="#F94E3F"/>
</linearGradient>
<clipPath id="clip0">
<rect width="1280" height="520" fill="white"/>
</clipPath>
</defs>
</svg>
