<svg width="auto" height="auto" viewBox="0 0 360 520" fill="none" xmlns="http://www.w3.org/2000/svg">
<g clip-path="url(#clip0)">
<rect width="360" height="520" fill="url(#paint0_linear)"/>
<path d="M-201.588 511.03C-202.431 494.157 -194.845 468.846 -183.888 460.409L-201.588 511.03ZM-201.588 511.03C-198.216 599.618 -157.76 662.052 -93.7047 705.08L-201.588 511.03ZM69.4267 414.931L69.4207 414.928C-21.1819 377.139 -105.086 399.762 -183.27 461.195L-183.278 461.201C-188.516 465.234 -193.072 473.436 -196.214 482.872C-199.344 492.272 -201.003 502.693 -200.589 510.981L-200.589 510.992C-197.23 599.238 -156.957 661.387 -93.1471 704.25L-93.1455 704.251C-14.5783 757.243 92.0042 777.47 196.558 767.573C301.111 757.675 403.497 717.668 473.675 650.362L473.682 650.356C531.372 595.954 566.576 528.275 560.273 426.462C547.949 431.851 536.257 436.849 525.026 441.651C499.884 452.399 477.046 462.163 454.59 473.114C361.571 521.36 269.358 517.961 177.224 468.887C169.4 464.785 161.583 460.604 153.751 456.415C126.102 441.627 98.2805 426.747 69.4267 414.931Z" fill="#F2EEE3" stroke="#F2EEE3" stroke-width="2"/>
<path d="M561.936 7.92022C562.779 24.7941 555.193 50.105 544.237 58.5419L561.936 7.92022ZM561.936 7.92022C558.565 -80.6677 518.109 -143.101 454.053 -186.13L561.936 7.92022ZM290.922 104.02L290.927 104.022C381.53 141.812 465.434 119.189 543.619 57.7556L543.626 57.7496C548.864 53.7168 553.42 45.515 556.562 36.079C559.693 26.6787 561.351 16.2579 560.937 7.97012L560.937 7.95825C557.578 -80.2872 517.305 -142.436 453.495 -185.3L453.494 -185.301C374.927 -238.293 268.344 -258.52 163.79 -248.622C59.2374 -238.725 -43.1484 -198.717 -113.327 -131.411L-113.333 -131.406C-171.024 -77.0038 -206.228 -9.32442 -199.924 92.4886C-187.601 87.0999 -175.909 82.1015 -164.677 77.2997C-139.535 66.5513 -116.698 56.7881 -94.2413 45.8371C-1.22241 -2.40888 90.9902 0.989598 183.124 50.0632C190.948 54.1654 198.765 58.3467 206.597 62.5354C234.246 77.3234 262.068 92.2039 290.922 104.02Z" fill="#F2EEE3" stroke="#F2EEE3" stroke-width="2"/>
<path d="M171.197 130.814C174.506 130.814 177.105 131.638 178.996 133.285C180.901 134.918 181.854 137.16 181.854 140.01C181.854 143.261 180.815 145.811 178.738 147.658C176.676 149.506 173.826 150.43 170.188 150.43C166.65 150.43 163.95 149.864 162.088 148.732V145.295C163.09 145.939 164.337 146.448 165.826 146.82C167.316 147.178 168.784 147.357 170.23 147.357C172.751 147.357 174.706 146.763 176.096 145.574C177.499 144.385 178.201 142.667 178.201 140.418C178.201 136.035 175.516 133.844 170.145 133.844C168.784 133.844 166.965 134.051 164.688 134.467L162.84 133.285L164.021 118.59H179.641V121.877H167.072L166.277 131.309C167.924 130.979 169.564 130.814 171.197 130.814ZM207.377 134.252C207.377 139.68 206.518 143.734 204.799 146.412C203.094 149.09 200.48 150.43 196.957 150.43C193.577 150.43 191.006 149.062 189.244 146.326C187.482 143.576 186.602 139.551 186.602 134.252C186.602 128.781 187.454 124.72 189.158 122.07C190.863 119.421 193.462 118.096 196.957 118.096C200.366 118.096 202.951 119.478 204.713 122.242C206.489 125.007 207.377 129.01 207.377 134.252ZM190.211 134.252C190.211 138.821 190.748 142.151 191.822 144.242C192.896 146.319 194.608 147.357 196.957 147.357C199.335 147.357 201.053 146.305 202.113 144.199C203.188 142.079 203.725 138.764 203.725 134.252C203.725 129.74 203.188 126.439 202.113 124.348C201.053 122.242 199.335 121.189 196.957 121.189C194.608 121.189 192.896 122.228 191.822 124.305C190.748 126.367 190.211 129.683 190.211 134.252ZM223.619 133.006H232.471V135.971H223.619V145.123H220.633V135.971H211.824V133.006H220.633V123.811H223.619V133.006Z" fill="#F2EEE3"/>
<path d="M105.165 185C104.938 185 104.751 184.927 104.605 184.78C104.458 184.633 104.385 184.447 104.385 184.22V170.16C104.385 169.933 104.458 169.747 104.605 169.6C104.751 169.453 104.938 169.38 105.165 169.38H109.165C110.151 169.38 111.025 169.6 111.785 170.04C112.545 170.467 113.138 171.06 113.565 171.82C113.991 172.58 114.205 173.46 114.205 174.46C114.205 175.433 113.991 176.3 113.565 177.06C113.138 177.807 112.545 178.4 111.785 178.84C111.025 179.267 110.151 179.48 109.165 179.48H105.945V184.22C105.945 184.447 105.871 184.633 105.725 184.78C105.578 184.927 105.391 185 105.165 185ZM105.945 177.98H109.165C109.845 177.98 110.451 177.833 110.985 177.54C111.518 177.233 111.931 176.813 112.225 176.28C112.531 175.747 112.685 175.14 112.685 174.46C112.685 173.753 112.531 173.133 112.225 172.6C111.931 172.067 111.518 171.647 110.985 171.34C110.451 171.033 109.845 170.88 109.165 170.88H105.945V177.98ZM117.191 185C116.684 185 116.431 184.747 116.431 184.24V174.82C116.431 174.313 116.684 174.06 117.191 174.06C117.698 174.06 117.951 174.313 117.951 174.82V175.68C118.351 175.147 118.844 174.727 119.431 174.42C120.018 174.1 120.664 173.94 121.371 173.94C121.984 173.94 122.458 174.027 122.791 174.2C123.124 174.373 123.251 174.627 123.171 174.96C123.104 175.267 122.944 175.427 122.691 175.44C122.451 175.44 122.164 175.427 121.831 175.4C121.084 175.333 120.418 175.413 119.831 175.64C119.258 175.853 118.798 176.187 118.451 176.64C118.118 177.093 117.951 177.633 117.951 178.26V184.24C117.951 184.747 117.698 185 117.191 185ZM129.77 185.1C128.704 185.1 127.75 184.86 126.91 184.38C126.07 183.9 125.41 183.24 124.93 182.4C124.45 181.56 124.21 180.607 124.21 179.54C124.21 178.46 124.45 177.5 124.93 176.66C125.41 175.82 126.07 175.16 126.91 174.68C127.75 174.2 128.704 173.96 129.77 173.96C130.837 173.96 131.784 174.2 132.61 174.68C133.45 175.16 134.11 175.82 134.59 176.66C135.07 177.5 135.317 178.46 135.33 179.54C135.33 180.607 135.084 181.56 134.59 182.4C134.11 183.24 133.45 183.9 132.61 184.38C131.784 184.86 130.837 185.1 129.77 185.1ZM129.77 183.7C130.544 183.7 131.237 183.52 131.85 183.16C132.464 182.8 132.944 182.307 133.29 181.68C133.637 181.053 133.81 180.34 133.81 179.54C133.81 178.74 133.637 178.027 133.29 177.4C132.944 176.76 132.464 176.26 131.85 175.9C131.237 175.54 130.544 175.36 129.77 175.36C128.997 175.36 128.304 175.54 127.69 175.9C127.077 176.26 126.59 176.76 126.23 177.4C125.884 178.027 125.71 178.74 125.71 179.54C125.71 180.34 125.884 181.053 126.23 181.68C126.59 182.307 127.077 182.8 127.69 183.16C128.304 183.52 128.997 183.7 129.77 183.7ZM139.6 189.76C139.493 189.76 139.373 189.733 139.24 189.68C138.787 189.48 138.66 189.16 138.86 188.72L140.86 184.34L140.84 184.32L136.38 175.08C136.287 174.88 136.273 174.693 136.34 174.52C136.407 174.347 136.54 174.213 136.74 174.12C137.18 173.92 137.5 174.033 137.7 174.46L141.6 182.68L145.32 174.48C145.52 174.053 145.84 173.933 146.28 174.12C146.733 174.307 146.86 174.62 146.66 175.06L140.18 189.3C140.047 189.607 139.853 189.76 139.6 189.76ZM153.246 185.1C152.166 185.1 151.206 184.867 150.366 184.4C149.54 183.92 148.886 183.26 148.406 182.42C147.94 181.58 147.706 180.62 147.706 179.54C147.706 178.447 147.926 177.487 148.366 176.66C148.82 175.82 149.44 175.16 150.226 174.68C151.013 174.2 151.92 173.96 152.946 173.96C153.96 173.96 154.84 174.193 155.586 174.66C156.346 175.113 156.933 175.747 157.346 176.56C157.76 177.373 157.966 178.3 157.966 179.34C157.966 179.553 157.9 179.727 157.766 179.86C157.633 179.98 157.46 180.04 157.246 180.04H149.166C149.246 180.76 149.466 181.4 149.826 181.96C150.186 182.507 150.66 182.94 151.246 183.26C151.833 183.567 152.5 183.72 153.246 183.72C153.726 183.72 154.206 183.64 154.686 183.48C155.18 183.307 155.573 183.093 155.866 182.84C156.013 182.72 156.18 182.66 156.366 182.66C156.553 182.647 156.713 182.693 156.846 182.8C157.02 182.96 157.106 183.133 157.106 183.32C157.12 183.507 157.046 183.667 156.886 183.8C156.446 184.173 155.886 184.487 155.206 184.74C154.526 184.98 153.873 185.1 153.246 185.1ZM152.946 175.34C151.92 175.34 151.073 175.66 150.406 176.3C149.74 176.927 149.34 177.747 149.206 178.76H156.526C156.42 177.747 156.046 176.927 155.406 176.3C154.78 175.66 153.96 175.34 152.946 175.34ZM165.061 185.1C164.008 185.1 163.068 184.86 162.241 184.38C161.428 183.887 160.781 183.22 160.301 182.38C159.834 181.54 159.601 180.593 159.601 179.54C159.601 178.473 159.828 177.52 160.281 176.68C160.734 175.84 161.354 175.18 162.141 174.7C162.928 174.207 163.834 173.96 164.861 173.96C166.528 173.96 167.881 174.6 168.921 175.88C169.068 176.04 169.121 176.213 169.081 176.4C169.041 176.573 168.928 176.727 168.741 176.86C168.594 176.967 168.428 177.007 168.241 176.98C168.068 176.94 167.914 176.84 167.781 176.68C167.008 175.8 166.034 175.36 164.861 175.36C164.114 175.36 163.454 175.54 162.881 175.9C162.321 176.26 161.881 176.753 161.561 177.38C161.254 178.007 161.101 178.727 161.101 179.54C161.101 180.34 161.268 181.053 161.601 181.68C161.934 182.307 162.401 182.8 163.001 183.16C163.601 183.52 164.288 183.7 165.061 183.7C166.128 183.7 166.988 183.413 167.641 182.84C167.801 182.707 167.968 182.633 168.141 182.62C168.314 182.607 168.474 182.66 168.621 182.78C168.781 182.927 168.868 183.093 168.881 183.28C168.908 183.467 168.848 183.627 168.701 183.76C167.728 184.653 166.514 185.1 165.061 185.1ZM176.375 185C175.668 185 175.035 184.833 174.475 184.5C173.928 184.167 173.495 183.713 173.175 183.14C172.855 182.553 172.695 181.887 172.695 181.14V175.8H171.395C171.195 175.8 171.028 175.74 170.895 175.62C170.762 175.487 170.695 175.327 170.695 175.14C170.695 174.94 170.762 174.78 170.895 174.66C171.028 174.527 171.195 174.46 171.395 174.46H172.695V171.36C172.695 171.133 172.762 170.947 172.895 170.8C173.042 170.653 173.228 170.58 173.455 170.58C173.682 170.58 173.868 170.653 174.015 170.8C174.162 170.947 174.235 171.133 174.235 171.36V174.46H176.495C176.695 174.46 176.862 174.527 176.995 174.66C177.128 174.78 177.195 174.94 177.195 175.14C177.195 175.327 177.128 175.487 176.995 175.62C176.862 175.74 176.695 175.8 176.495 175.8H174.235V181.14C174.235 181.82 174.435 182.38 174.835 182.82C175.235 183.247 175.748 183.46 176.375 183.46H176.915C177.128 183.46 177.302 183.533 177.435 183.68C177.568 183.827 177.635 184.013 177.635 184.24C177.635 184.467 177.555 184.653 177.395 184.8C177.235 184.933 177.035 185 176.795 185H176.375ZM185.122 185.1C184.055 185.1 183.102 184.86 182.262 184.38C181.422 183.9 180.762 183.24 180.282 182.4C179.802 181.56 179.562 180.607 179.562 179.54C179.562 178.46 179.802 177.5 180.282 176.66C180.762 175.82 181.422 175.16 182.262 174.68C183.102 174.2 184.055 173.96 185.122 173.96C186.188 173.96 187.135 174.2 187.962 174.68C188.802 175.16 189.462 175.82 189.942 176.66C190.422 177.5 190.668 178.46 190.682 179.54C190.682 180.607 190.435 181.56 189.942 182.4C189.462 183.24 188.802 183.9 187.962 184.38C187.135 184.86 186.188 185.1 185.122 185.1ZM185.122 183.7C185.895 183.7 186.588 183.52 187.202 183.16C187.815 182.8 188.295 182.307 188.642 181.68C188.988 181.053 189.162 180.34 189.162 179.54C189.162 178.74 188.988 178.027 188.642 177.4C188.295 176.76 187.815 176.26 187.202 175.9C186.588 175.54 185.895 175.36 185.122 175.36C184.348 175.36 183.655 175.54 183.042 175.9C182.428 176.26 181.942 176.76 181.582 177.4C181.235 178.027 181.062 178.74 181.062 179.54C181.062 180.34 181.235 181.053 181.582 181.68C181.942 182.307 182.428 182.8 183.042 183.16C183.655 183.52 184.348 183.7 185.122 183.7ZM197.497 185.1C196.71 185.1 195.93 184.967 195.157 184.7C194.384 184.433 193.757 184.033 193.277 183.5C193.13 183.34 193.07 183.16 193.097 182.96C193.124 182.76 193.224 182.587 193.397 182.44C193.584 182.307 193.777 182.253 193.977 182.28C194.177 182.307 194.344 182.393 194.477 182.54C194.797 182.913 195.217 183.2 195.737 183.4C196.27 183.6 196.857 183.7 197.497 183.7C198.484 183.7 199.197 183.533 199.637 183.2C200.077 182.853 200.304 182.44 200.317 181.96C200.317 181.48 200.09 181.087 199.637 180.78C199.184 180.46 198.437 180.213 197.397 180.04C196.05 179.827 195.064 179.453 194.437 178.92C193.81 178.387 193.497 177.753 193.497 177.02C193.497 176.34 193.677 175.773 194.037 175.32C194.397 174.867 194.877 174.527 195.477 174.3C196.077 174.073 196.737 173.96 197.457 173.96C198.35 173.96 199.117 174.113 199.757 174.42C200.41 174.727 200.937 175.14 201.337 175.66C201.47 175.833 201.524 176.013 201.497 176.2C201.47 176.387 201.364 176.54 201.177 176.66C201.017 176.753 200.83 176.787 200.617 176.76C200.417 176.72 200.244 176.62 200.097 176.46C199.444 175.713 198.55 175.34 197.417 175.34C196.684 175.34 196.097 175.493 195.657 175.8C195.217 176.093 194.997 176.467 194.997 176.92C194.997 177.373 195.19 177.747 195.577 178.04C195.977 178.333 196.724 178.573 197.817 178.76C198.817 178.92 199.604 179.16 200.177 179.48C200.764 179.787 201.177 180.153 201.417 180.58C201.67 180.993 201.797 181.447 201.797 181.94C201.797 182.567 201.61 183.12 201.237 183.6C200.877 184.067 200.37 184.433 199.717 184.7C199.077 184.967 198.337 185.1 197.497 185.1ZM215.278 185.1C214.198 185.1 213.238 184.867 212.398 184.4C211.571 183.92 210.918 183.26 210.438 182.42C209.971 181.58 209.738 180.62 209.738 179.54C209.738 178.447 209.958 177.487 210.398 176.66C210.851 175.82 211.471 175.16 212.258 174.68C213.044 174.2 213.951 173.96 214.978 173.96C215.991 173.96 216.871 174.193 217.618 174.66C218.378 175.113 218.964 175.747 219.378 176.56C219.791 177.373 219.998 178.3 219.998 179.34C219.998 179.553 219.931 179.727 219.798 179.86C219.664 179.98 219.491 180.04 219.278 180.04H211.198C211.278 180.76 211.498 181.4 211.858 181.96C212.218 182.507 212.691 182.94 213.278 183.26C213.864 183.567 214.531 183.72 215.278 183.72C215.758 183.72 216.238 183.64 216.718 183.48C217.211 183.307 217.604 183.093 217.898 182.84C218.044 182.72 218.211 182.66 218.398 182.66C218.584 182.647 218.744 182.693 218.878 182.8C219.051 182.96 219.138 183.133 219.138 183.32C219.151 183.507 219.078 183.667 218.918 183.8C218.478 184.173 217.918 184.487 217.238 184.74C216.558 184.98 215.904 185.1 215.278 185.1ZM214.978 175.34C213.951 175.34 213.104 175.66 212.438 176.3C211.771 176.927 211.371 177.747 211.238 178.76H218.558C218.451 177.747 218.078 176.927 217.438 176.3C216.811 175.66 215.991 175.34 214.978 175.34ZM221.717 185C221.397 185 221.177 184.86 221.057 184.58C220.951 184.3 221.004 184.033 221.217 183.78L224.677 179.46L221.397 175.3C221.184 175.047 221.131 174.78 221.237 174.5C221.344 174.207 221.564 174.06 221.897 174.06C222.124 174.06 222.317 174.14 222.477 174.3L225.697 178.42L228.877 174.42C229.064 174.18 229.284 174.06 229.537 174.06C229.884 174.06 230.097 174.207 230.177 174.5C230.271 174.793 230.217 175.067 230.017 175.32L226.677 179.44L230.097 183.8C230.271 184.013 230.344 184.213 230.317 184.4C230.291 184.587 230.204 184.733 230.057 184.84C229.924 184.947 229.784 185 229.637 185C229.357 185 229.124 184.88 228.937 184.64L225.637 180.46L222.257 184.76C222.137 184.92 221.957 185 221.717 185ZM234.054 185C233.814 185 233.621 184.933 233.474 184.8C233.341 184.653 233.274 184.46 233.274 184.22V174.84C233.274 174.6 233.341 174.413 233.474 174.28C233.621 174.133 233.814 174.06 234.054 174.06C234.281 174.06 234.461 174.133 234.594 174.28C234.741 174.413 234.814 174.6 234.814 174.84V184.22C234.814 184.46 234.741 184.653 234.594 184.8C234.461 184.933 234.281 185 234.054 185ZM234.034 171.98C233.741 171.98 233.488 171.873 233.274 171.66C233.061 171.447 232.954 171.187 232.954 170.88C232.954 170.547 233.061 170.287 233.274 170.1C233.501 169.9 233.761 169.8 234.054 169.8C234.334 169.8 234.581 169.9 234.794 170.1C235.021 170.287 235.134 170.547 235.134 170.88C235.134 171.187 235.028 171.447 234.814 171.66C234.601 171.873 234.341 171.98 234.034 171.98ZM243.016 185C242.309 185 241.676 184.833 241.116 184.5C240.569 184.167 240.136 183.713 239.816 183.14C239.496 182.553 239.336 181.887 239.336 181.14V175.8H238.036C237.836 175.8 237.669 175.74 237.536 175.62C237.402 175.487 237.336 175.327 237.336 175.14C237.336 174.94 237.402 174.78 237.536 174.66C237.669 174.527 237.836 174.46 238.036 174.46H239.336V171.36C239.336 171.133 239.402 170.947 239.536 170.8C239.682 170.653 239.869 170.58 240.096 170.58C240.322 170.58 240.509 170.653 240.656 170.8C240.802 170.947 240.876 171.133 240.876 171.36V174.46H243.136C243.336 174.46 243.502 174.527 243.636 174.66C243.769 174.78 243.836 174.94 243.836 175.14C243.836 175.327 243.769 175.487 243.636 175.62C243.502 175.74 243.336 175.8 243.136 175.8H240.876V181.14C240.876 181.82 241.076 182.38 241.476 182.82C241.876 183.247 242.389 183.46 243.016 183.46H243.556C243.769 183.46 243.942 183.533 244.076 183.68C244.209 183.827 244.276 184.013 244.276 184.24C244.276 184.467 244.196 184.653 244.036 184.8C243.876 184.933 243.676 185 243.436 185H243.016ZM251.762 185.1C250.696 185.1 249.742 184.86 248.902 184.38C248.062 183.9 247.402 183.24 246.922 182.4C246.442 181.56 246.202 180.607 246.202 179.54C246.202 178.46 246.442 177.5 246.922 176.66C247.402 175.82 248.062 175.16 248.902 174.68C249.742 174.2 250.696 173.96 251.762 173.96C252.829 173.96 253.776 174.2 254.602 174.68C255.442 175.16 256.102 175.82 256.582 176.66C257.062 177.5 257.309 178.46 257.322 179.54C257.322 180.607 257.076 181.56 256.582 182.4C256.102 183.24 255.442 183.9 254.602 184.38C253.776 184.86 252.829 185.1 251.762 185.1ZM251.762 183.7C252.536 183.7 253.229 183.52 253.842 183.16C254.456 182.8 254.936 182.307 255.282 181.68C255.629 181.053 255.802 180.34 255.802 179.54C255.802 178.74 255.629 178.027 255.282 177.4C254.936 176.76 254.456 176.26 253.842 175.9C253.229 175.54 252.536 175.36 251.762 175.36C250.989 175.36 250.296 175.54 249.682 175.9C249.069 176.26 248.582 176.76 248.222 177.4C247.876 178.027 247.702 178.74 247.702 179.54C247.702 180.34 247.876 181.053 248.222 181.68C248.582 182.307 249.069 182.8 249.682 183.16C250.296 183.52 250.989 183.7 251.762 183.7ZM264.138 185.1C263.351 185.1 262.571 184.967 261.798 184.7C261.024 184.433 260.398 184.033 259.918 183.5C259.771 183.34 259.711 183.16 259.738 182.96C259.764 182.76 259.864 182.587 260.038 182.44C260.224 182.307 260.418 182.253 260.618 182.28C260.818 182.307 260.984 182.393 261.118 182.54C261.438 182.913 261.858 183.2 262.378 183.4C262.911 183.6 263.498 183.7 264.138 183.7C265.124 183.7 265.838 183.533 266.278 183.2C266.718 182.853 266.944 182.44 266.958 181.96C266.958 181.48 266.731 181.087 266.278 180.78C265.824 180.46 265.078 180.213 264.038 180.04C262.691 179.827 261.704 179.453 261.078 178.92C260.451 178.387 260.138 177.753 260.138 177.02C260.138 176.34 260.318 175.773 260.678 175.32C261.038 174.867 261.518 174.527 262.118 174.3C262.718 174.073 263.378 173.96 264.098 173.96C264.991 173.96 265.758 174.113 266.398 174.42C267.051 174.727 267.578 175.14 267.978 175.66C268.111 175.833 268.164 176.013 268.138 176.2C268.111 176.387 268.004 176.54 267.818 176.66C267.658 176.753 267.471 176.787 267.258 176.76C267.058 176.72 266.884 176.62 266.738 176.46C266.084 175.713 265.191 175.34 264.058 175.34C263.324 175.34 262.738 175.493 262.298 175.8C261.858 176.093 261.638 176.467 261.638 176.92C261.638 177.373 261.831 177.747 262.218 178.04C262.618 178.333 263.364 178.573 264.458 178.76C265.458 178.92 266.244 179.16 266.818 179.48C267.404 179.787 267.818 180.153 268.058 180.58C268.311 180.993 268.438 181.447 268.438 181.94C268.438 182.567 268.251 183.12 267.878 183.6C267.518 184.067 267.011 184.433 266.358 184.7C265.718 184.967 264.978 185.1 264.138 185.1ZM276.079 185.1C275.012 185.1 274.059 184.86 273.219 184.38C272.379 183.9 271.719 183.24 271.239 182.4C270.759 181.56 270.519 180.607 270.519 179.54C270.519 178.46 270.759 177.5 271.239 176.66C271.719 175.82 272.379 175.16 273.219 174.68C274.059 174.2 275.012 173.96 276.079 173.96C277.145 173.96 278.092 174.2 278.919 174.68C279.759 175.16 280.419 175.82 280.899 176.66C281.379 177.5 281.625 178.46 281.639 179.54C281.639 180.607 281.392 181.56 280.899 182.4C280.419 183.24 279.759 183.9 278.919 184.38C278.092 184.86 277.145 185.1 276.079 185.1ZM276.079 183.7C276.852 183.7 277.545 183.52 278.159 183.16C278.772 182.8 279.252 182.307 279.599 181.68C279.945 181.053 280.119 180.34 280.119 179.54C280.119 178.74 279.945 178.027 279.599 177.4C279.252 176.76 278.772 176.26 278.159 175.9C277.545 175.54 276.852 175.36 276.079 175.36C275.305 175.36 274.612 175.54 273.999 175.9C273.385 176.26 272.899 176.76 272.539 177.4C272.192 178.027 272.019 178.74 272.019 179.54C272.019 180.34 272.192 181.053 272.539 181.68C272.899 182.307 273.385 182.8 273.999 183.16C274.612 183.52 275.305 183.7 276.079 183.7ZM288.454 185.1C287.667 185.1 286.887 184.967 286.114 184.7C285.341 184.433 284.714 184.033 284.234 183.5C284.087 183.34 284.027 183.16 284.054 182.96C284.081 182.76 284.181 182.587 284.354 182.44C284.541 182.307 284.734 182.253 284.934 182.28C285.134 182.307 285.301 182.393 285.434 182.54C285.754 182.913 286.174 183.2 286.694 183.4C287.227 183.6 287.814 183.7 288.454 183.7C289.441 183.7 290.154 183.533 290.594 183.2C291.034 182.853 291.261 182.44 291.274 181.96C291.274 181.48 291.047 181.087 290.594 180.78C290.141 180.46 289.394 180.213 288.354 180.04C287.007 179.827 286.021 179.453 285.394 178.92C284.767 178.387 284.454 177.753 284.454 177.02C284.454 176.34 284.634 175.773 284.994 175.32C285.354 174.867 285.834 174.527 286.434 174.3C287.034 174.073 287.694 173.96 288.414 173.96C289.307 173.96 290.074 174.113 290.714 174.42C291.367 174.727 291.894 175.14 292.294 175.66C292.427 175.833 292.481 176.013 292.454 176.2C292.427 176.387 292.321 176.54 292.134 176.66C291.974 176.753 291.787 176.787 291.574 176.76C291.374 176.72 291.201 176.62 291.054 176.46C290.401 175.713 289.507 175.34 288.374 175.34C287.641 175.34 287.054 175.493 286.614 175.8C286.174 176.093 285.954 176.467 285.954 176.92C285.954 177.373 286.147 177.747 286.534 178.04C286.934 178.333 287.681 178.573 288.774 178.76C289.774 178.92 290.561 179.16 291.134 179.48C291.721 179.787 292.134 180.153 292.374 180.58C292.627 180.993 292.754 181.447 292.754 181.94C292.754 182.567 292.567 183.12 292.194 183.6C291.834 184.067 291.327 184.433 290.674 184.7C290.034 184.967 289.294 185.1 288.454 185.1Z" fill="#F2EEE3"/>
<path d="M170.936 261H150.289V257.928L158.561 249.613C161.081 247.064 162.743 245.245 163.545 244.156C164.347 243.068 164.949 242.008 165.35 240.977C165.751 239.945 165.951 238.835 165.951 237.646C165.951 235.971 165.443 234.646 164.426 233.672C163.409 232.684 161.998 232.189 160.193 232.189C158.89 232.189 157.651 232.404 156.477 232.834C155.316 233.264 154.02 234.044 152.588 235.176L150.697 232.748C153.59 230.342 156.742 229.139 160.15 229.139C163.101 229.139 165.414 229.898 167.09 231.416C168.766 232.92 169.604 234.947 169.604 237.496C169.604 239.487 169.045 241.456 167.928 243.404C166.811 245.352 164.719 247.816 161.654 250.795L154.779 257.52V257.691H170.936V261ZM197.598 253.781H192.936V261H189.52V253.781H174.244V250.666L189.154 229.418H192.936V250.537H197.598V253.781ZM189.52 250.537V240.096C189.52 238.048 189.591 235.734 189.734 233.156H189.562C188.875 234.531 188.23 235.67 187.629 236.572L177.811 250.537H189.52ZM211.047 229.139C213.911 229.139 216.182 229.805 217.857 231.137C219.533 232.469 220.371 234.309 220.371 236.658C220.371 238.205 219.891 239.616 218.932 240.891C217.972 242.165 216.439 243.326 214.334 244.371C216.883 245.589 218.695 246.87 219.77 248.217C220.844 249.549 221.381 251.096 221.381 252.857C221.381 255.464 220.471 257.548 218.652 259.109C216.833 260.656 214.341 261.43 211.176 261.43C207.824 261.43 205.246 260.699 203.441 259.238C201.637 257.763 200.734 255.679 200.734 252.986C200.734 249.391 202.926 246.591 207.309 244.586C205.332 243.469 203.914 242.266 203.055 240.977C202.195 239.673 201.766 238.219 201.766 236.615C201.766 234.338 202.604 232.526 204.279 231.18C205.969 229.819 208.225 229.139 211.047 229.139ZM204.258 253.072C204.258 254.791 204.852 256.13 206.041 257.09C207.244 258.049 208.927 258.529 211.09 258.529C213.224 258.529 214.885 258.028 216.074 257.025C217.263 256.023 217.857 254.648 217.857 252.9C217.857 251.511 217.299 250.279 216.182 249.205C215.064 248.117 213.117 247.064 210.338 246.047C208.204 246.964 206.657 247.98 205.697 249.098C204.738 250.201 204.258 251.525 204.258 253.072ZM211.004 232.039C209.214 232.039 207.81 232.469 206.793 233.328C205.776 234.188 205.268 235.333 205.268 236.766C205.268 238.083 205.69 239.215 206.535 240.16C207.38 241.105 208.941 242.051 211.219 242.996C213.267 242.137 214.714 241.213 215.559 240.225C216.418 239.236 216.848 238.083 216.848 236.766C216.848 235.319 216.325 234.173 215.279 233.328C214.248 232.469 212.823 232.039 211.004 232.039ZM237.709 244.006H246.561V246.971H237.709V256.123H234.723V246.971H225.914V244.006H234.723V234.811H237.709V244.006Z" fill="#F2EEE3"/>
<path d="M133.866 299C133.653 299 133.466 298.927 133.306 298.78C133.16 298.62 133.086 298.433 133.086 298.22V284.8H128.346C128.133 284.8 127.96 284.733 127.826 284.6C127.693 284.467 127.626 284.3 127.626 284.1C127.626 283.887 127.693 283.713 127.826 283.58C127.96 283.447 128.133 283.38 128.346 283.38H139.406C139.62 283.38 139.793 283.447 139.926 283.58C140.06 283.713 140.126 283.887 140.126 284.1C140.126 284.3 140.06 284.467 139.926 284.6C139.793 284.733 139.62 284.8 139.406 284.8H134.646V298.22C134.646 298.433 134.573 298.62 134.426 298.78C134.28 298.927 134.093 299 133.866 299ZM144.044 299.1C143.017 299.1 142.097 298.86 141.284 298.38C140.47 297.887 139.824 297.22 139.344 296.38C138.877 295.54 138.644 294.593 138.644 293.54C138.644 292.473 138.884 291.52 139.364 290.68C139.857 289.84 140.524 289.18 141.364 288.7C142.204 288.207 143.15 287.96 144.204 287.96C145.257 287.96 146.197 288.207 147.024 288.7C147.864 289.18 148.524 289.84 149.004 290.68C149.497 291.52 149.75 292.473 149.764 293.54V298.24C149.764 298.467 149.69 298.653 149.544 298.8C149.397 298.933 149.21 299 148.984 299C148.757 299 148.57 298.933 148.424 298.8C148.277 298.653 148.204 298.467 148.204 298.24V297.02C147.75 297.66 147.164 298.167 146.444 298.54C145.724 298.913 144.924 299.1 144.044 299.1ZM144.204 297.7C144.977 297.7 145.664 297.52 146.264 297.16C146.877 296.8 147.357 296.307 147.704 295.68C148.064 295.04 148.244 294.327 148.244 293.54C148.244 292.74 148.064 292.027 147.704 291.4C147.357 290.773 146.877 290.28 146.264 289.92C145.664 289.547 144.977 289.36 144.204 289.36C143.444 289.36 142.757 289.547 142.144 289.92C141.53 290.28 141.044 290.773 140.684 291.4C140.324 292.027 140.144 292.74 140.144 293.54C140.144 294.327 140.324 295.04 140.684 295.68C141.044 296.307 141.53 296.8 142.144 297.16C142.757 297.52 143.444 297.7 144.204 297.7ZM152.959 299C152.492 299 152.259 298.767 152.259 298.3C152.259 298.073 152.312 297.907 152.419 297.8L158.959 289.46H152.879C152.412 289.46 152.179 289.227 152.179 288.76C152.179 288.293 152.412 288.06 152.879 288.06H160.299C160.766 288.06 160.999 288.293 160.999 288.76C160.999 288.96 160.959 289.113 160.879 289.22L154.339 297.6H160.379C160.846 297.6 161.079 297.833 161.079 298.3C161.079 298.767 160.846 299 160.379 299H152.959ZM168.165 299.1C167.138 299.1 166.218 298.86 165.405 298.38C164.592 297.887 163.945 297.22 163.465 296.38C162.998 295.54 162.765 294.593 162.765 293.54C162.765 292.473 163.005 291.52 163.485 290.68C163.978 289.84 164.645 289.18 165.485 288.7C166.325 288.207 167.272 287.96 168.325 287.96C169.378 287.96 170.318 288.207 171.145 288.7C171.985 289.18 172.645 289.84 173.125 290.68C173.618 291.52 173.872 292.473 173.885 293.54V298.24C173.885 298.467 173.812 298.653 173.665 298.8C173.518 298.933 173.332 299 173.105 299C172.878 299 172.692 298.933 172.545 298.8C172.398 298.653 172.325 298.467 172.325 298.24V297.02C171.872 297.66 171.285 298.167 170.565 298.54C169.845 298.913 169.045 299.1 168.165 299.1ZM168.325 297.7C169.098 297.7 169.785 297.52 170.385 297.16C170.998 296.8 171.478 296.307 171.825 295.68C172.185 295.04 172.365 294.327 172.365 293.54C172.365 292.74 172.185 292.027 171.825 291.4C171.478 290.773 170.998 290.28 170.385 289.92C169.785 289.547 169.098 289.36 168.325 289.36C167.565 289.36 166.878 289.547 166.265 289.92C165.652 290.28 165.165 290.773 164.805 291.4C164.445 292.027 164.265 292.74 164.265 293.54C164.265 294.327 164.445 295.04 164.805 295.68C165.165 296.307 165.652 296.8 166.265 297.16C166.878 297.52 167.565 297.7 168.325 297.7ZM180.7 299.1C179.913 299.1 179.133 298.967 178.36 298.7C177.587 298.433 176.96 298.033 176.48 297.5C176.333 297.34 176.273 297.16 176.3 296.96C176.327 296.76 176.427 296.587 176.6 296.44C176.787 296.307 176.98 296.253 177.18 296.28C177.38 296.307 177.547 296.393 177.68 296.54C178 296.913 178.42 297.2 178.94 297.4C179.473 297.6 180.06 297.7 180.7 297.7C181.687 297.7 182.4 297.533 182.84 297.2C183.28 296.853 183.507 296.44 183.52 295.96C183.52 295.48 183.293 295.087 182.84 294.78C182.387 294.46 181.64 294.213 180.6 294.04C179.253 293.827 178.267 293.453 177.64 292.92C177.013 292.387 176.7 291.753 176.7 291.02C176.7 290.34 176.88 289.773 177.24 289.32C177.6 288.867 178.08 288.527 178.68 288.3C179.28 288.073 179.94 287.96 180.66 287.96C181.553 287.96 182.32 288.113 182.96 288.42C183.613 288.727 184.14 289.14 184.54 289.66C184.673 289.833 184.727 290.013 184.7 290.2C184.673 290.387 184.567 290.54 184.38 290.66C184.22 290.753 184.033 290.787 183.82 290.76C183.62 290.72 183.447 290.62 183.3 290.46C182.647 289.713 181.753 289.34 180.62 289.34C179.887 289.34 179.3 289.493 178.86 289.8C178.42 290.093 178.2 290.467 178.2 290.92C178.2 291.373 178.393 291.747 178.78 292.04C179.18 292.333 179.927 292.573 181.02 292.76C182.02 292.92 182.807 293.16 183.38 293.48C183.967 293.787 184.38 294.153 184.62 294.58C184.873 294.993 185 295.447 185 295.94C185 296.567 184.813 297.12 184.44 297.6C184.08 298.067 183.573 298.433 182.92 298.7C182.28 298.967 181.54 299.1 180.7 299.1ZM198.501 299.1C197.447 299.1 196.501 298.86 195.661 298.38C194.821 297.887 194.154 297.22 193.661 296.38C193.181 295.54 192.941 294.587 192.941 293.52C192.941 292.467 193.174 291.52 193.641 290.68C194.121 289.84 194.767 289.18 195.581 288.7C196.394 288.207 197.314 287.96 198.341 287.96C199.234 287.96 200.041 288.153 200.761 288.54C201.481 288.913 202.061 289.413 202.501 290.04V284.16C202.501 283.92 202.574 283.733 202.721 283.6C202.867 283.453 203.054 283.38 203.281 283.38C203.507 283.38 203.694 283.453 203.841 283.6C203.987 283.733 204.061 283.92 204.061 284.16V293.6C204.034 294.64 203.774 295.58 203.281 296.42C202.801 297.247 202.141 297.9 201.301 298.38C200.474 298.86 199.541 299.1 198.501 299.1ZM198.501 297.7C199.274 297.7 199.961 297.52 200.561 297.16C201.174 296.787 201.654 296.287 202.001 295.66C202.361 295.033 202.541 294.32 202.541 293.52C202.541 292.733 202.361 292.027 202.001 291.4C201.654 290.76 201.174 290.26 200.561 289.9C199.961 289.54 199.274 289.36 198.501 289.36C197.741 289.36 197.054 289.54 196.441 289.9C195.827 290.26 195.341 290.76 194.981 291.4C194.621 292.027 194.441 292.733 194.441 293.52C194.441 294.32 194.621 295.033 194.981 295.66C195.341 296.287 195.827 296.787 196.441 297.16C197.054 297.52 197.741 297.7 198.501 297.7ZM212.621 299.1C211.541 299.1 210.581 298.867 209.741 298.4C208.915 297.92 208.261 297.26 207.781 296.42C207.315 295.58 207.081 294.62 207.081 293.54C207.081 292.447 207.301 291.487 207.741 290.66C208.195 289.82 208.815 289.16 209.601 288.68C210.388 288.2 211.295 287.96 212.321 287.96C213.335 287.96 214.215 288.193 214.961 288.66C215.721 289.113 216.308 289.747 216.721 290.56C217.135 291.373 217.341 292.3 217.341 293.34C217.341 293.553 217.275 293.727 217.141 293.86C217.008 293.98 216.835 294.04 216.621 294.04H208.541C208.621 294.76 208.841 295.4 209.201 295.96C209.561 296.507 210.035 296.94 210.621 297.26C211.208 297.567 211.875 297.72 212.621 297.72C213.101 297.72 213.581 297.64 214.061 297.48C214.555 297.307 214.948 297.093 215.241 296.84C215.388 296.72 215.555 296.66 215.741 296.66C215.928 296.647 216.088 296.693 216.221 296.8C216.395 296.96 216.481 297.133 216.481 297.32C216.495 297.507 216.421 297.667 216.261 297.8C215.821 298.173 215.261 298.487 214.581 298.74C213.901 298.98 213.248 299.1 212.621 299.1ZM212.321 289.34C211.295 289.34 210.448 289.66 209.781 290.3C209.115 290.927 208.715 291.747 208.581 292.76H215.901C215.795 291.747 215.421 290.927 214.781 290.3C214.155 289.66 213.335 289.34 212.321 289.34ZM230.686 299.1C229.633 299.1 228.693 298.86 227.866 298.38C227.053 297.887 226.406 297.22 225.926 296.38C225.459 295.54 225.226 294.593 225.226 293.54C225.226 292.473 225.453 291.52 225.906 290.68C226.359 289.84 226.979 289.18 227.766 288.7C228.553 288.207 229.459 287.96 230.486 287.96C232.153 287.96 233.506 288.6 234.546 289.88C234.693 290.04 234.746 290.213 234.706 290.4C234.666 290.573 234.553 290.727 234.366 290.86C234.219 290.967 234.053 291.007 233.866 290.98C233.693 290.94 233.539 290.84 233.406 290.68C232.633 289.8 231.659 289.36 230.486 289.36C229.739 289.36 229.079 289.54 228.506 289.9C227.946 290.26 227.506 290.753 227.186 291.38C226.879 292.007 226.726 292.727 226.726 293.54C226.726 294.34 226.893 295.053 227.226 295.68C227.559 296.307 228.026 296.8 228.626 297.16C229.226 297.52 229.913 297.7 230.686 297.7C231.753 297.7 232.613 297.413 233.266 296.84C233.426 296.707 233.593 296.633 233.766 296.62C233.939 296.607 234.099 296.66 234.246 296.78C234.406 296.927 234.493 297.093 234.506 297.28C234.533 297.467 234.473 297.627 234.326 297.76C233.353 298.653 232.139 299.1 230.686 299.1ZM242.54 299.1C241.513 299.1 240.593 298.86 239.78 298.38C238.967 297.887 238.32 297.22 237.84 296.38C237.373 295.54 237.14 294.593 237.14 293.54C237.14 292.473 237.38 291.52 237.86 290.68C238.353 289.84 239.02 289.18 239.86 288.7C240.7 288.207 241.647 287.96 242.7 287.96C243.753 287.96 244.693 288.207 245.52 288.7C246.36 289.18 247.02 289.84 247.5 290.68C247.993 291.52 248.247 292.473 248.26 293.54V298.24C248.26 298.467 248.187 298.653 248.04 298.8C247.893 298.933 247.707 299 247.48 299C247.253 299 247.067 298.933 246.92 298.8C246.773 298.653 246.7 298.467 246.7 298.24V297.02C246.247 297.66 245.66 298.167 244.94 298.54C244.22 298.913 243.42 299.1 242.54 299.1ZM242.7 297.7C243.473 297.7 244.16 297.52 244.76 297.16C245.373 296.8 245.853 296.307 246.2 295.68C246.56 295.04 246.74 294.327 246.74 293.54C246.74 292.74 246.56 292.027 246.2 291.4C245.853 290.773 245.373 290.28 244.76 289.92C244.16 289.547 243.473 289.36 242.7 289.36C241.94 289.36 241.253 289.547 240.64 289.92C240.027 290.28 239.54 290.773 239.18 291.4C238.82 292.027 238.64 292.74 238.64 293.54C238.64 294.327 238.82 295.04 239.18 295.68C239.54 296.307 240.027 296.8 240.64 297.16C241.253 297.52 241.94 297.7 242.7 297.7ZM252.615 299C252.415 299 252.242 298.933 252.095 298.8C251.948 298.653 251.875 298.46 251.875 298.22V289.8H250.595C250.382 289.8 250.208 289.74 250.075 289.62C249.955 289.487 249.895 289.327 249.895 289.14C249.895 288.94 249.955 288.78 250.075 288.66C250.208 288.527 250.382 288.46 250.595 288.46H251.875V288.08C251.875 286.68 252.235 285.547 252.955 284.68C253.675 283.813 254.715 283.38 256.075 283.38C256.302 283.38 256.488 283.447 256.635 283.58C256.782 283.713 256.855 283.88 256.855 284.08C256.855 284.28 256.782 284.447 256.635 284.58C256.488 284.713 256.302 284.78 256.075 284.78C255.168 284.78 254.495 285.087 254.055 285.7C253.628 286.3 253.415 287.067 253.415 288V288.46H255.815C256.028 288.46 256.195 288.527 256.315 288.66C256.448 288.78 256.515 288.94 256.515 289.14C256.515 289.327 256.448 289.487 256.315 289.62C256.195 289.74 256.028 289.8 255.815 289.8H253.415V298.22C253.415 298.46 253.342 298.653 253.195 298.8C253.062 298.933 252.868 299 252.615 299ZM263.149 299.1C262.069 299.1 261.109 298.867 260.269 298.4C259.442 297.92 258.789 297.26 258.309 296.42C257.842 295.58 257.609 294.62 257.609 293.54C257.609 292.447 257.829 291.487 258.269 290.66C258.722 289.82 259.342 289.16 260.129 288.68C260.915 288.2 261.822 287.96 262.849 287.96C263.862 287.96 264.742 288.193 265.489 288.66C266.249 289.113 266.835 289.747 267.249 290.56C267.662 291.373 267.869 292.3 267.869 293.34C267.869 293.553 267.802 293.727 267.669 293.86C267.535 293.98 267.362 294.04 267.149 294.04H259.069C259.149 294.76 259.369 295.4 259.729 295.96C260.089 296.507 260.562 296.94 261.149 297.26C261.735 297.567 262.402 297.72 263.149 297.72C263.629 297.72 264.109 297.64 264.589 297.48C265.082 297.307 265.475 297.093 265.769 296.84C265.915 296.72 266.082 296.66 266.269 296.66C266.455 296.647 266.615 296.693 266.749 296.8C266.922 296.96 267.009 297.133 267.009 297.32C267.022 297.507 266.949 297.667 266.789 297.8C266.349 298.173 265.789 298.487 265.109 298.74C264.429 298.98 263.775 299.1 263.149 299.1ZM262.849 289.34C261.822 289.34 260.975 289.66 260.309 290.3C259.642 290.927 259.242 291.747 259.109 292.76H266.429C266.322 291.747 265.949 290.927 265.309 290.3C264.682 289.66 263.862 289.34 262.849 289.34ZM262.609 286.4C262.395 286.4 262.209 286.327 262.049 286.18C261.902 286.02 261.829 285.833 261.829 285.62C261.829 285.407 261.889 285.233 262.009 285.1L264.269 282.84C264.415 282.693 264.595 282.62 264.809 282.62C265.035 282.62 265.222 282.7 265.369 282.86C265.515 283.007 265.589 283.193 265.589 283.42C265.589 283.513 265.569 283.607 265.529 283.7C265.502 283.793 265.449 283.873 265.369 283.94L263.129 286.2C262.995 286.333 262.822 286.4 262.609 286.4Z" fill="#F2EEE3"/>
<path d="M197.598 367.781H192.936V375H189.52V367.781H174.244V364.666L189.154 343.418H192.936V364.537H197.598V367.781ZM189.52 364.537V354.096C189.52 352.048 189.591 349.734 189.734 347.156H189.562C188.875 348.531 188.23 349.67 187.629 350.572L177.811 364.537H189.52ZM212.529 358.006H221.381V360.971H212.529V370.123H209.543V360.971H200.734V358.006H209.543V348.811H212.529V358.006Z" fill="#F2EEE3"/>
<path d="M112.856 413C112.63 413 112.443 412.927 112.296 412.78C112.15 412.633 112.076 412.447 112.076 412.22V398.16C112.076 397.933 112.15 397.747 112.296 397.6C112.443 397.453 112.63 397.38 112.856 397.38H116.456C117.603 397.38 118.65 397.573 119.596 397.96C120.556 398.333 121.383 398.873 122.076 399.58C122.77 400.273 123.303 401.093 123.676 402.04C124.063 402.987 124.256 404.033 124.256 405.18C124.256 406.327 124.063 407.38 123.676 408.34C123.303 409.287 122.77 410.113 122.076 410.82C121.383 411.513 120.556 412.053 119.596 412.44C118.65 412.813 117.603 413 116.456 413H112.856ZM113.636 411.6H116.456C117.683 411.6 118.763 411.327 119.696 410.78C120.643 410.22 121.383 409.46 121.916 408.5C122.45 407.527 122.716 406.42 122.716 405.18C122.716 403.94 122.45 402.84 121.916 401.88C121.383 400.907 120.643 400.147 119.696 399.6C118.763 399.053 117.683 398.78 116.456 398.78H113.636V411.6ZM128.367 413C128.127 413 127.933 412.933 127.787 412.8C127.653 412.653 127.587 412.46 127.587 412.22V402.84C127.587 402.6 127.653 402.413 127.787 402.28C127.933 402.133 128.127 402.06 128.367 402.06C128.593 402.06 128.773 402.133 128.907 402.28C129.053 402.413 129.127 402.6 129.127 402.84V412.22C129.127 412.46 129.053 412.653 128.907 412.8C128.773 412.933 128.593 413 128.367 413ZM128.347 399.98C128.053 399.98 127.8 399.873 127.587 399.66C127.373 399.447 127.267 399.187 127.267 398.88C127.267 398.547 127.373 398.287 127.587 398.1C127.813 397.9 128.073 397.8 128.367 397.8C128.647 397.8 128.893 397.9 129.107 398.1C129.333 398.287 129.447 398.547 129.447 398.88C129.447 399.187 129.34 399.447 129.127 399.66C128.913 399.873 128.653 399.98 128.347 399.98ZM134.408 413C134.208 413 134.035 412.933 133.888 412.8C133.741 412.653 133.668 412.46 133.668 412.22V403.8H132.388C132.175 403.8 132.001 403.74 131.868 403.62C131.748 403.487 131.688 403.327 131.688 403.14C131.688 402.94 131.748 402.78 131.868 402.66C132.001 402.527 132.175 402.46 132.388 402.46H133.668V402.08C133.668 400.68 134.028 399.547 134.748 398.68C135.468 397.813 136.508 397.38 137.868 397.38C138.095 397.38 138.281 397.447 138.428 397.58C138.575 397.713 138.648 397.88 138.648 398.08C138.648 398.28 138.575 398.447 138.428 398.58C138.281 398.713 138.095 398.78 137.868 398.78C136.961 398.78 136.288 399.087 135.848 399.7C135.421 400.3 135.208 401.067 135.208 402V402.46H137.608C137.821 402.46 137.988 402.527 138.108 402.66C138.241 402.78 138.308 402.94 138.308 403.14C138.308 403.327 138.241 403.487 138.108 403.62C137.988 403.74 137.821 403.8 137.608 403.8H135.208V412.22C135.208 412.46 135.135 412.653 134.988 412.8C134.855 412.933 134.661 413 134.408 413ZM144.942 413.1C143.862 413.1 142.902 412.867 142.062 412.4C141.235 411.92 140.582 411.26 140.102 410.42C139.635 409.58 139.402 408.62 139.402 407.54C139.402 406.447 139.622 405.487 140.062 404.66C140.515 403.82 141.135 403.16 141.922 402.68C142.708 402.2 143.615 401.96 144.642 401.96C145.655 401.96 146.535 402.193 147.282 402.66C148.042 403.113 148.628 403.747 149.042 404.56C149.455 405.373 149.662 406.3 149.662 407.34C149.662 407.553 149.595 407.727 149.462 407.86C149.328 407.98 149.155 408.04 148.942 408.04H140.862C140.942 408.76 141.162 409.4 141.522 409.96C141.882 410.507 142.355 410.94 142.942 411.26C143.528 411.567 144.195 411.72 144.942 411.72C145.422 411.72 145.902 411.64 146.382 411.48C146.875 411.307 147.268 411.093 147.562 410.84C147.708 410.72 147.875 410.66 148.062 410.66C148.248 410.647 148.408 410.693 148.542 410.8C148.715 410.96 148.802 411.133 148.802 411.32C148.815 411.507 148.742 411.667 148.582 411.8C148.142 412.173 147.582 412.487 146.902 412.74C146.222 412.98 145.568 413.1 144.942 413.1ZM144.642 403.34C143.615 403.34 142.768 403.66 142.102 404.3C141.435 404.927 141.035 405.747 140.902 406.76H148.222C148.115 405.747 147.742 404.927 147.102 404.3C146.475 403.66 145.655 403.34 144.642 403.34ZM153.027 413C152.52 413 152.267 412.747 152.267 412.24V402.82C152.267 402.313 152.52 402.06 153.027 402.06C153.533 402.06 153.787 402.313 153.787 402.82V403.68C154.187 403.147 154.68 402.727 155.267 402.42C155.853 402.1 156.5 401.94 157.207 401.94C157.82 401.94 158.293 402.027 158.627 402.2C158.96 402.373 159.087 402.627 159.007 402.96C158.94 403.267 158.78 403.427 158.527 403.44C158.287 403.44 158 403.427 157.667 403.4C156.92 403.333 156.253 403.413 155.667 403.64C155.093 403.853 154.633 404.187 154.287 404.64C153.953 405.093 153.787 405.633 153.787 406.26V412.24C153.787 412.747 153.533 413 153.027 413ZM165.586 413.1C164.506 413.1 163.546 412.867 162.706 412.4C161.88 411.92 161.226 411.26 160.746 410.42C160.28 409.58 160.046 408.62 160.046 407.54C160.046 406.447 160.266 405.487 160.706 404.66C161.16 403.82 161.78 403.16 162.566 402.68C163.353 402.2 164.26 401.96 165.286 401.96C166.3 401.96 167.18 402.193 167.926 402.66C168.686 403.113 169.273 403.747 169.686 404.56C170.1 405.373 170.306 406.3 170.306 407.34C170.306 407.553 170.24 407.727 170.106 407.86C169.973 407.98 169.8 408.04 169.586 408.04H161.506C161.586 408.76 161.806 409.4 162.166 409.96C162.526 410.507 163 410.94 163.586 411.26C164.173 411.567 164.84 411.72 165.586 411.72C166.066 411.72 166.546 411.64 167.026 411.48C167.52 411.307 167.913 411.093 168.206 410.84C168.353 410.72 168.52 410.66 168.706 410.66C168.893 410.647 169.053 410.693 169.186 410.8C169.36 410.96 169.446 411.133 169.446 411.32C169.46 411.507 169.386 411.667 169.226 411.8C168.786 412.173 168.226 412.487 167.546 412.74C166.866 412.98 166.213 413.1 165.586 413.1ZM165.286 403.34C164.26 403.34 163.413 403.66 162.746 404.3C162.08 404.927 161.68 405.747 161.546 406.76H168.866C168.76 405.747 168.386 404.927 167.746 404.3C167.12 403.66 166.3 403.34 165.286 403.34ZM173.691 413C173.451 413 173.258 412.933 173.111 412.8C172.978 412.653 172.911 412.467 172.911 412.24V402.84C172.911 402.6 172.978 402.413 173.111 402.28C173.258 402.133 173.451 402.06 173.691 402.06C173.918 402.06 174.098 402.133 174.231 402.28C174.378 402.413 174.451 402.6 174.451 402.84V403.52C174.878 403.027 175.405 402.64 176.031 402.36C176.671 402.08 177.358 401.94 178.091 401.94C179.038 401.94 179.885 402.14 180.631 402.54C181.378 402.927 181.965 403.5 182.391 404.26C182.831 405.02 183.051 405.947 183.051 407.04V412.24C183.051 412.453 182.978 412.633 182.831 412.78C182.685 412.927 182.505 413 182.291 413C182.065 413 181.878 412.927 181.731 412.78C181.585 412.633 181.511 412.453 181.511 412.24V407.04C181.511 405.8 181.165 404.887 180.471 404.3C179.791 403.7 178.945 403.4 177.931 403.4C177.278 403.4 176.685 403.527 176.151 403.78C175.631 404.033 175.218 404.38 174.911 404.82C174.605 405.26 174.451 405.76 174.451 406.32V412.24C174.451 412.467 174.378 412.653 174.231 412.8C174.098 412.933 173.918 413 173.691 413ZM190.726 413C190.02 413 189.386 412.833 188.826 412.5C188.28 412.167 187.846 411.713 187.526 411.14C187.206 410.553 187.046 409.887 187.046 409.14V403.8H185.746C185.546 403.8 185.38 403.74 185.246 403.62C185.113 403.487 185.046 403.327 185.046 403.14C185.046 402.94 185.113 402.78 185.246 402.66C185.38 402.527 185.546 402.46 185.746 402.46H187.046V399.36C187.046 399.133 187.113 398.947 187.246 398.8C187.393 398.653 187.58 398.58 187.806 398.58C188.033 398.58 188.22 398.653 188.366 398.8C188.513 398.947 188.586 399.133 188.586 399.36V402.46H190.846C191.046 402.46 191.213 402.527 191.346 402.66C191.48 402.78 191.546 402.94 191.546 403.14C191.546 403.327 191.48 403.487 191.346 403.62C191.213 403.74 191.046 403.8 190.846 403.8H188.586V409.14C188.586 409.82 188.786 410.38 189.186 410.82C189.586 411.247 190.1 411.46 190.726 411.46H191.266C191.48 411.46 191.653 411.533 191.786 411.68C191.92 411.827 191.986 412.013 191.986 412.24C191.986 412.467 191.906 412.653 191.746 412.8C191.586 412.933 191.386 413 191.146 413H190.726ZM199.453 413.1C198.373 413.1 197.413 412.867 196.573 412.4C195.747 411.92 195.093 411.26 194.613 410.42C194.147 409.58 193.913 408.62 193.913 407.54C193.913 406.447 194.133 405.487 194.573 404.66C195.027 403.82 195.647 403.16 196.433 402.68C197.22 402.2 198.127 401.96 199.153 401.96C200.167 401.96 201.047 402.193 201.793 402.66C202.553 403.113 203.14 403.747 203.553 404.56C203.967 405.373 204.173 406.3 204.173 407.34C204.173 407.553 204.107 407.727 203.973 407.86C203.84 407.98 203.667 408.04 203.453 408.04H195.373C195.453 408.76 195.673 409.4 196.033 409.96C196.393 410.507 196.867 410.94 197.453 411.26C198.04 411.567 198.707 411.72 199.453 411.72C199.933 411.72 200.413 411.64 200.893 411.48C201.387 411.307 201.78 411.093 202.073 410.84C202.22 410.72 202.387 410.66 202.573 410.66C202.76 410.647 202.92 410.693 203.053 410.8C203.227 410.96 203.313 411.133 203.313 411.32C203.327 411.507 203.253 411.667 203.093 411.8C202.653 412.173 202.093 412.487 201.413 412.74C200.733 412.98 200.08 413.1 199.453 413.1ZM199.153 403.34C198.127 403.34 197.28 403.66 196.613 404.3C195.947 404.927 195.547 405.747 195.413 406.76H202.733C202.627 405.747 202.253 404.927 201.613 404.3C200.987 403.66 200.167 403.34 199.153 403.34ZM210.599 413.1C209.812 413.1 209.032 412.967 208.259 412.7C207.485 412.433 206.859 412.033 206.379 411.5C206.232 411.34 206.172 411.16 206.199 410.96C206.225 410.76 206.325 410.587 206.499 410.44C206.685 410.307 206.879 410.253 207.079 410.28C207.279 410.307 207.445 410.393 207.579 410.54C207.899 410.913 208.319 411.2 208.839 411.4C209.372 411.6 209.959 411.7 210.599 411.7C211.585 411.7 212.299 411.533 212.739 411.2C213.179 410.853 213.405 410.44 213.419 409.96C213.419 409.48 213.192 409.087 212.739 408.78C212.285 408.46 211.539 408.213 210.499 408.04C209.152 407.827 208.165 407.453 207.539 406.92C206.912 406.387 206.599 405.753 206.599 405.02C206.599 404.34 206.779 403.773 207.139 403.32C207.499 402.867 207.979 402.527 208.579 402.3C209.179 402.073 209.839 401.96 210.559 401.96C211.452 401.96 212.219 402.113 212.859 402.42C213.512 402.727 214.039 403.14 214.439 403.66C214.572 403.833 214.625 404.013 214.599 404.2C214.572 404.387 214.465 404.54 214.279 404.66C214.119 404.753 213.932 404.787 213.719 404.76C213.519 404.72 213.345 404.62 213.199 404.46C212.545 403.713 211.652 403.34 210.519 403.34C209.785 403.34 209.199 403.493 208.759 403.8C208.319 404.093 208.099 404.467 208.099 404.92C208.099 405.373 208.292 405.747 208.679 406.04C209.079 406.333 209.825 406.573 210.919 406.76C211.919 406.92 212.705 407.16 213.279 407.48C213.865 407.787 214.279 408.153 214.519 408.58C214.772 408.993 214.899 409.447 214.899 409.94C214.899 410.567 214.712 411.12 214.339 411.6C213.979 412.067 213.472 412.433 212.819 412.7C212.179 412.967 211.439 413.1 210.599 413.1ZM224.199 417.68C223.959 417.68 223.766 417.607 223.619 417.46C223.486 417.327 223.419 417.14 223.419 416.9V407.46C223.432 406.42 223.679 405.487 224.159 404.66C224.652 403.82 225.312 403.16 226.139 402.68C226.979 402.2 227.919 401.96 228.959 401.96C230.026 401.96 230.979 402.207 231.819 402.7C232.659 403.18 233.319 403.84 233.799 404.68C234.292 405.52 234.539 406.473 234.539 407.54C234.539 408.593 234.299 409.54 233.819 410.38C233.352 411.22 232.712 411.887 231.899 412.38C231.086 412.86 230.166 413.1 229.139 413.1C228.246 413.1 227.432 412.913 226.699 412.54C225.979 412.153 225.399 411.647 224.959 411.02V416.9C224.959 417.14 224.886 417.327 224.739 417.46C224.606 417.607 224.426 417.68 224.199 417.68ZM228.959 411.7C229.732 411.7 230.426 411.52 231.039 411.16C231.652 410.8 232.132 410.307 232.479 409.68C232.839 409.04 233.019 408.327 233.019 407.54C233.019 406.74 232.839 406.027 232.479 405.4C232.132 404.773 231.652 404.28 231.039 403.92C230.426 403.547 229.732 403.36 228.959 403.36C228.199 403.36 227.512 403.547 226.899 403.92C226.286 404.28 225.806 404.773 225.459 405.4C225.112 406.027 224.939 406.74 224.939 407.54C224.939 408.327 225.112 409.04 225.459 409.68C225.806 410.307 226.286 410.8 226.899 411.16C227.512 411.52 228.199 411.7 228.959 411.7ZM242.38 413.1C241.353 413.1 240.433 412.86 239.62 412.38C238.806 411.887 238.16 411.22 237.68 410.38C237.213 409.54 236.98 408.593 236.98 407.54C236.98 406.473 237.22 405.52 237.7 404.68C238.193 403.84 238.86 403.18 239.7 402.7C240.54 402.207 241.486 401.96 242.54 401.96C243.593 401.96 244.533 402.207 245.36 402.7C246.2 403.18 246.86 403.84 247.34 404.68C247.833 405.52 248.086 406.473 248.1 407.54V412.24C248.1 412.467 248.026 412.653 247.88 412.8C247.733 412.933 247.546 413 247.32 413C247.093 413 246.906 412.933 246.76 412.8C246.613 412.653 246.54 412.467 246.54 412.24V411.02C246.086 411.66 245.5 412.167 244.78 412.54C244.06 412.913 243.26 413.1 242.38 413.1ZM242.54 411.7C243.313 411.7 244 411.52 244.6 411.16C245.213 410.8 245.693 410.307 246.04 409.68C246.4 409.04 246.58 408.327 246.58 407.54C246.58 406.74 246.4 406.027 246.04 405.4C245.693 404.773 245.213 404.28 244.6 403.92C244 403.547 243.313 403.36 242.54 403.36C241.78 403.36 241.093 403.547 240.48 403.92C239.866 404.28 239.38 404.773 239.02 405.4C238.66 406.027 238.48 406.74 238.48 407.54C238.48 408.327 238.66 409.04 239.02 409.68C239.38 410.307 239.866 410.8 240.48 411.16C241.093 411.52 241.78 411.7 242.54 411.7ZM252.195 413C251.955 413 251.762 412.933 251.615 412.8C251.482 412.653 251.415 412.46 251.415 412.22V402.84C251.415 402.6 251.482 402.413 251.615 402.28C251.762 402.133 251.955 402.06 252.195 402.06C252.422 402.06 252.602 402.133 252.735 402.28C252.882 402.413 252.955 402.6 252.955 402.84V412.22C252.955 412.46 252.882 412.653 252.735 412.8C252.602 412.933 252.422 413 252.195 413ZM252.035 400.4C251.822 400.4 251.635 400.327 251.475 400.18C251.328 400.02 251.255 399.833 251.255 399.62C251.255 399.407 251.315 399.233 251.435 399.1L253.695 396.84C253.842 396.693 254.022 396.62 254.235 396.62C254.462 396.62 254.648 396.7 254.795 396.86C254.942 397.007 255.015 397.193 255.015 397.42C255.015 397.513 254.995 397.607 254.955 397.7C254.928 397.793 254.875 397.873 254.795 397.94L252.555 400.2C252.422 400.333 252.248 400.4 252.035 400.4ZM260.696 413.1C259.91 413.1 259.13 412.967 258.356 412.7C257.583 412.433 256.956 412.033 256.476 411.5C256.33 411.34 256.27 411.16 256.296 410.96C256.323 410.76 256.423 410.587 256.596 410.44C256.783 410.307 256.976 410.253 257.176 410.28C257.376 410.307 257.543 410.393 257.676 410.54C257.996 410.913 258.416 411.2 258.936 411.4C259.47 411.6 260.056 411.7 260.696 411.7C261.683 411.7 262.396 411.533 262.836 411.2C263.276 410.853 263.503 410.44 263.516 409.96C263.516 409.48 263.29 409.087 262.836 408.78C262.383 408.46 261.636 408.213 260.596 408.04C259.25 407.827 258.263 407.453 257.636 406.92C257.01 406.387 256.696 405.753 256.696 405.02C256.696 404.34 256.876 403.773 257.236 403.32C257.596 402.867 258.076 402.527 258.676 402.3C259.276 402.073 259.936 401.96 260.656 401.96C261.55 401.96 262.316 402.113 262.956 402.42C263.61 402.727 264.136 403.14 264.536 403.66C264.67 403.833 264.723 404.013 264.696 404.2C264.67 404.387 264.563 404.54 264.376 404.66C264.216 404.753 264.03 404.787 263.816 404.76C263.616 404.72 263.443 404.62 263.296 404.46C262.643 403.713 261.75 403.34 260.616 403.34C259.883 403.34 259.296 403.493 258.856 403.8C258.416 404.093 258.196 404.467 258.196 404.92C258.196 405.373 258.39 405.747 258.776 406.04C259.176 406.333 259.923 406.573 261.016 406.76C262.016 406.92 262.803 407.16 263.376 407.48C263.963 407.787 264.376 408.153 264.616 408.58C264.87 408.993 264.996 409.447 264.996 409.94C264.996 410.567 264.81 411.12 264.436 411.6C264.076 412.067 263.57 412.433 262.916 412.7C262.276 412.967 261.536 413.1 260.696 413.1ZM272.617 413.1C271.537 413.1 270.577 412.867 269.737 412.4C268.911 411.92 268.257 411.26 267.777 410.42C267.311 409.58 267.077 408.62 267.077 407.54C267.077 406.447 267.297 405.487 267.737 404.66C268.191 403.82 268.811 403.16 269.597 402.68C270.384 402.2 271.291 401.96 272.317 401.96C273.331 401.96 274.211 402.193 274.957 402.66C275.717 403.113 276.304 403.747 276.717 404.56C277.131 405.373 277.337 406.3 277.337 407.34C277.337 407.553 277.271 407.727 277.137 407.86C277.004 407.98 276.831 408.04 276.617 408.04H268.537C268.617 408.76 268.837 409.4 269.197 409.96C269.557 410.507 270.031 410.94 270.617 411.26C271.204 411.567 271.871 411.72 272.617 411.72C273.097 411.72 273.577 411.64 274.057 411.48C274.551 411.307 274.944 411.093 275.237 410.84C275.384 410.72 275.551 410.66 275.737 410.66C275.924 410.647 276.084 410.693 276.217 410.8C276.391 410.96 276.477 411.133 276.477 411.32C276.491 411.507 276.417 411.667 276.257 411.8C275.817 412.173 275.257 412.487 274.577 412.74C273.897 412.98 273.244 413.1 272.617 413.1ZM272.317 403.34C271.291 403.34 270.444 403.66 269.777 404.3C269.111 404.927 268.711 405.747 268.577 406.76H275.897C275.791 405.747 275.417 404.927 274.777 404.3C274.151 403.66 273.331 403.34 272.317 403.34ZM283.763 413.1C282.976 413.1 282.196 412.967 281.423 412.7C280.649 412.433 280.023 412.033 279.543 411.5C279.396 411.34 279.336 411.16 279.363 410.96C279.389 410.76 279.489 410.587 279.663 410.44C279.849 410.307 280.043 410.253 280.243 410.28C280.443 410.307 280.609 410.393 280.743 410.54C281.063 410.913 281.483 411.2 282.003 411.4C282.536 411.6 283.123 411.7 283.763 411.7C284.749 411.7 285.463 411.533 285.903 411.2C286.343 410.853 286.569 410.44 286.583 409.96C286.583 409.48 286.356 409.087 285.903 408.78C285.449 408.46 284.703 408.213 283.663 408.04C282.316 407.827 281.329 407.453 280.703 406.92C280.076 406.387 279.763 405.753 279.763 405.02C279.763 404.34 279.943 403.773 280.303 403.32C280.663 402.867 281.143 402.527 281.743 402.3C282.343 402.073 283.003 401.96 283.723 401.96C284.616 401.96 285.383 402.113 286.023 402.42C286.676 402.727 287.203 403.14 287.603 403.66C287.736 403.833 287.789 404.013 287.763 404.2C287.736 404.387 287.629 404.54 287.443 404.66C287.283 404.753 287.096 404.787 286.883 404.76C286.683 404.72 286.509 404.62 286.363 404.46C285.709 403.713 284.816 403.34 283.683 403.34C282.949 403.34 282.363 403.493 281.923 403.8C281.483 404.093 281.263 404.467 281.263 404.92C281.263 405.373 281.456 405.747 281.843 406.04C282.243 406.333 282.989 406.573 284.083 406.76C285.083 406.92 285.869 407.16 286.443 407.48C287.029 407.787 287.443 408.153 287.683 408.58C287.936 408.993 288.063 409.447 288.063 409.94C288.063 410.567 287.876 411.12 287.503 411.6C287.143 412.067 286.636 412.433 285.983 412.7C285.343 412.967 284.603 413.1 283.763 413.1Z" fill="#F2EEE3"/>
</g>
<defs>
<linearGradient id="paint0_linear" x1="180" y1="0" x2="180" y2="520" gradientUnits="userSpaceOnUse">
<stop stop-color="#E3632D"/>
<stop offset="1" stop-color="#F94E3F"/>
</linearGradient>
<clipPath id="clip0">
<rect width="360" height="520" fill="white"/>
</clipPath>
</defs>
</svg>
