<svg width="auto" height="auto" viewBox="0 0 360 520" fill="none" xmlns="http://www.w3.org/2000/svg">
<g clip-path="url(#clip0)">
<rect width="360" height="520" fill="url(#paint0_linear)"/>
<path d="M-201.588 511.03C-202.431 494.157 -194.845 468.846 -183.888 460.409L-201.588 511.03ZM-201.588 511.03C-198.217 599.618 -157.76 662.052 -93.7048 705.08L-201.588 511.03ZM69.4266 414.931L69.4206 414.928C-21.1821 377.139 -105.086 399.762 -183.271 461.195L-183.278 461.201C-188.516 465.234 -193.072 473.436 -196.214 482.872C-199.345 492.272 -201.003 502.693 -200.589 510.981L-200.589 510.992C-197.23 599.238 -156.957 661.387 -93.1472 704.25L-93.1456 704.251C-14.5784 757.243 92.0041 777.47 196.558 767.573C301.111 757.675 403.497 717.668 473.675 650.362L473.681 650.356C531.372 595.954 566.576 528.275 560.273 426.462C547.949 431.851 536.257 436.849 525.025 441.651C499.883 452.399 477.046 462.163 454.589 473.114C361.571 521.36 269.358 517.961 177.224 468.887C169.4 464.785 161.583 460.604 153.751 456.415C126.102 441.627 98.2804 426.747 69.4266 414.931Z" fill="#F2EEE3" stroke="#F2EEE3" stroke-width="2"/>
<path d="M561.936 7.92022C562.779 24.7941 555.193 50.105 544.237 58.5419L561.936 7.92022ZM561.936 7.92022C558.565 -80.6677 518.109 -143.101 454.053 -186.13L561.936 7.92022ZM290.922 104.02L290.928 104.022C381.53 141.812 465.434 119.189 543.619 57.7556L543.626 57.7496C548.864 53.7168 553.42 45.515 556.562 36.079C559.693 26.6787 561.351 16.2579 560.937 7.97012L560.937 7.95825C557.579 -80.2872 517.305 -142.436 453.495 -185.3L453.494 -185.301C374.927 -238.293 268.344 -258.52 163.79 -248.622C59.2375 -238.725 -43.1484 -198.717 -113.327 -131.411L-113.333 -131.406C-171.024 -77.0038 -206.228 -9.32442 -199.924 92.4886C-187.601 87.0999 -175.909 82.1015 -164.677 77.2997C-139.535 66.5513 -116.698 56.7881 -94.2412 45.8371C-1.22234 -2.40888 90.9902 0.989598 183.124 50.0632C190.948 54.1654 198.765 58.3467 206.597 62.5354C234.246 77.3234 262.068 92.2039 290.922 104.02Z" fill="#F2EEE3" stroke="#F2EEE3" stroke-width="2"/>
<path d="M173.523 129.418C175.328 129.418 176.954 129.84 178.4 130.686C179.861 131.516 180.993 132.698 181.795 134.23C182.611 135.763 183.02 137.532 183.02 139.537C183.02 143.046 181.96 145.739 179.84 147.615C177.734 149.492 174.54 150.43 170.258 150.43C166.591 150.43 163.598 149.864 161.277 148.732V141.771C162.523 142.344 163.927 142.817 165.488 143.189C167.064 143.562 168.417 143.748 169.549 143.748C171.124 143.748 172.335 143.419 173.18 142.76C174.025 142.087 174.447 141.098 174.447 139.795C174.447 138.592 174.018 137.654 173.158 136.98C172.299 136.307 170.995 135.971 169.248 135.971C167.916 135.971 166.477 136.221 164.93 136.723L161.814 135.176L162.996 118.59H180.914V125.658H170.215L169.828 129.805C170.945 129.59 171.74 129.475 172.213 129.461C172.686 129.432 173.122 129.418 173.523 129.418ZM209.273 134.338C209.273 139.895 208.342 143.97 206.48 146.562C204.618 149.141 201.768 150.43 197.93 150.43C194.177 150.43 191.348 149.083 189.443 146.391C187.538 143.684 186.586 139.666 186.586 134.338C186.586 128.752 187.517 124.656 189.379 122.049C191.241 119.442 194.091 118.139 197.93 118.139C201.668 118.139 204.49 119.499 206.395 122.221C208.314 124.928 209.273 128.967 209.273 134.338ZM195.029 134.338C195.029 137.89 195.251 140.332 195.695 141.664C196.139 142.996 196.884 143.662 197.93 143.662C198.99 143.662 199.734 142.975 200.164 141.6C200.608 140.225 200.83 137.804 200.83 134.338C200.83 130.857 200.608 128.423 200.164 127.033C199.72 125.63 198.975 124.928 197.93 124.928C196.884 124.928 196.139 125.601 195.695 126.947C195.251 128.294 195.029 130.757 195.029 134.338ZM220.359 137.367H212.367V131.609H220.359V123.725H226.139V131.609H234.131V137.367H226.139V145.123H220.359V137.367Z" fill="#F2EEE3"/>
<path d="M104.274 185.2C103.421 185.2 102.621 185.073 101.874 184.82C101.127 184.567 100.481 184.213 99.9341 183.76C99.3874 183.293 98.9807 182.753 98.7141 182.14C98.5941 181.9 98.5874 181.68 98.6941 181.48C98.8141 181.28 99.0074 181.147 99.2741 181.08C99.4874 181.027 99.6874 181.053 99.8741 181.16C100.074 181.267 100.227 181.427 100.334 181.64C100.521 182 100.801 182.333 101.174 182.64C101.561 182.933 102.014 183.167 102.534 183.34C103.067 183.5 103.647 183.58 104.274 183.58C104.954 183.58 105.567 183.473 106.114 183.26C106.661 183.033 107.094 182.707 107.414 182.28C107.734 181.853 107.894 181.333 107.894 180.72C107.894 179.947 107.601 179.273 107.014 178.7C106.427 178.113 105.494 177.747 104.214 177.6C102.627 177.427 101.381 176.947 100.474 176.16C99.5807 175.36 99.1341 174.38 99.1341 173.22C99.1341 172.393 99.3607 171.68 99.8141 171.08C100.267 170.467 100.887 170 101.674 169.68C102.461 169.347 103.354 169.18 104.354 169.18C105.114 169.18 105.794 169.3 106.394 169.54C107.007 169.767 107.534 170.073 107.974 170.46C108.427 170.847 108.801 171.28 109.094 171.76C109.254 172 109.307 172.233 109.254 172.46C109.214 172.673 109.094 172.84 108.894 172.96C108.681 173.08 108.454 173.107 108.214 173.04C107.987 172.96 107.814 172.813 107.694 172.6C107.481 172.267 107.221 171.967 106.914 171.7C106.621 171.42 106.261 171.207 105.834 171.06C105.421 170.9 104.921 170.813 104.334 170.8C103.294 170.8 102.447 171.013 101.794 171.44C101.154 171.853 100.834 172.48 100.834 173.32C100.834 173.747 100.947 174.153 101.174 174.54C101.401 174.913 101.787 175.233 102.334 175.5C102.894 175.767 103.661 175.967 104.634 176.1C106.274 176.313 107.507 176.813 108.334 177.6C109.174 178.387 109.594 179.42 109.594 180.7C109.594 181.433 109.454 182.08 109.174 182.64C108.894 183.2 108.507 183.673 108.014 184.06C107.534 184.433 106.967 184.72 106.314 184.92C105.674 185.107 104.994 185.2 104.274 185.2ZM117.332 185.12C116.399 185.12 115.559 184.927 114.812 184.54C114.079 184.14 113.499 183.56 113.072 182.8C112.645 182.04 112.432 181.107 112.432 180V174.9C112.432 174.66 112.512 174.46 112.672 174.3C112.832 174.14 113.032 174.06 113.272 174.06C113.525 174.06 113.732 174.14 113.892 174.3C114.052 174.46 114.132 174.66 114.132 174.9V180C114.132 180.8 114.279 181.46 114.572 181.98C114.879 182.5 115.292 182.887 115.812 183.14C116.332 183.393 116.919 183.52 117.572 183.52C118.199 183.52 118.759 183.4 119.252 183.16C119.759 182.92 120.159 182.587 120.452 182.16C120.745 181.733 120.892 181.253 120.892 180.72H122.052C122.025 181.56 121.805 182.313 121.392 182.98C120.979 183.633 120.419 184.153 119.712 184.54C119.005 184.927 118.212 185.12 117.332 185.12ZM121.752 185C121.499 185 121.292 184.92 121.132 184.76C120.972 184.6 120.892 184.393 120.892 184.14V174.9C120.892 174.647 120.972 174.447 121.132 174.3C121.292 174.14 121.499 174.06 121.752 174.06C122.005 174.06 122.212 174.14 122.372 174.3C122.532 174.447 122.612 174.647 122.612 174.9V184.14C122.612 184.393 122.532 184.6 122.372 184.76C122.212 184.92 122.005 185 121.752 185ZM131.106 185.1C130.053 185.1 129.113 184.86 128.286 184.38C127.46 183.887 126.806 183.22 126.326 182.38C125.86 181.54 125.626 180.593 125.626 179.54C125.626 178.473 125.853 177.52 126.306 176.68C126.773 175.84 127.4 175.18 128.186 174.7C128.986 174.207 129.906 173.96 130.946 173.96C131.746 173.96 132.486 174.12 133.166 174.44C133.846 174.747 134.446 175.213 134.966 175.84C135.126 176.027 135.18 176.22 135.126 176.42C135.086 176.607 134.966 176.773 134.766 176.92C134.606 177.04 134.426 177.08 134.226 177.04C134.026 177 133.853 176.893 133.706 176.72C132.973 175.907 132.053 175.5 130.946 175.5C130.226 175.5 129.586 175.673 129.026 176.02C128.48 176.367 128.053 176.84 127.746 177.44C127.44 178.04 127.286 178.74 127.286 179.54C127.286 180.313 127.446 181.007 127.766 181.62C128.086 182.22 128.533 182.693 129.106 183.04C129.693 183.387 130.36 183.56 131.106 183.56C131.613 183.56 132.066 183.493 132.466 183.36C132.88 183.227 133.246 183.027 133.566 182.76C133.74 182.613 133.92 182.533 134.106 182.52C134.306 182.493 134.486 182.547 134.646 182.68C134.82 182.84 134.92 183.02 134.946 183.22C134.973 183.42 134.906 183.6 134.746 183.76C133.773 184.653 132.56 185.1 131.106 185.1ZM143.059 185.1C142.006 185.1 141.066 184.86 140.239 184.38C139.413 183.887 138.759 183.22 138.279 182.38C137.813 181.54 137.579 180.593 137.579 179.54C137.579 178.473 137.806 177.52 138.259 176.68C138.726 175.84 139.353 175.18 140.139 174.7C140.939 174.207 141.859 173.96 142.899 173.96C143.699 173.96 144.439 174.12 145.119 174.44C145.799 174.747 146.399 175.213 146.919 175.84C147.079 176.027 147.133 176.22 147.079 176.42C147.039 176.607 146.919 176.773 146.719 176.92C146.559 177.04 146.379 177.08 146.179 177.04C145.979 177 145.806 176.893 145.659 176.72C144.926 175.907 144.006 175.5 142.899 175.5C142.179 175.5 141.539 175.673 140.979 176.02C140.433 176.367 140.006 176.84 139.699 177.44C139.393 178.04 139.239 178.74 139.239 179.54C139.239 180.313 139.399 181.007 139.719 181.62C140.039 182.22 140.486 182.693 141.059 183.04C141.646 183.387 142.313 183.56 143.059 183.56C143.566 183.56 144.019 183.493 144.419 183.36C144.833 183.227 145.199 183.027 145.519 182.76C145.693 182.613 145.873 182.533 146.059 182.52C146.259 182.493 146.439 182.547 146.599 182.68C146.773 182.84 146.873 183.02 146.899 183.22C146.926 183.42 146.859 183.6 146.699 183.76C145.726 184.653 144.513 185.1 143.059 185.1ZM155.133 185.1C154.039 185.1 153.073 184.867 152.233 184.4C151.393 183.92 150.733 183.26 150.253 182.42C149.773 181.58 149.533 180.62 149.533 179.54C149.533 178.447 149.759 177.487 150.213 176.66C150.666 175.82 151.286 175.16 152.073 174.68C152.873 174.2 153.793 173.96 154.833 173.96C155.859 173.96 156.746 174.193 157.493 174.66C158.239 175.113 158.813 175.747 159.213 176.56C159.626 177.373 159.833 178.3 159.833 179.34C159.833 179.567 159.759 179.753 159.612 179.9C159.466 180.033 159.279 180.1 159.053 180.1H150.693V178.72H159.133L158.293 179.32C158.293 178.587 158.153 177.927 157.873 177.34C157.593 176.753 157.193 176.293 156.673 175.96C156.166 175.627 155.553 175.46 154.833 175.46C154.073 175.46 153.413 175.64 152.853 176C152.293 176.347 151.859 176.827 151.553 177.44C151.246 178.053 151.093 178.753 151.093 179.54C151.093 180.327 151.266 181.027 151.613 181.64C151.959 182.24 152.433 182.72 153.033 183.08C153.646 183.427 154.346 183.6 155.133 183.6C155.586 183.6 156.046 183.52 156.513 183.36C156.993 183.2 157.373 183 157.653 182.76C157.813 182.627 157.993 182.56 158.193 182.56C158.406 182.547 158.586 182.6 158.733 182.72C158.919 182.893 159.013 183.087 159.013 183.3C159.026 183.5 158.946 183.673 158.773 183.82C158.319 184.193 157.753 184.5 157.073 184.74C156.406 184.98 155.759 185.1 155.133 185.1ZM166.317 185.1C165.477 185.1 164.663 184.967 163.877 184.7C163.103 184.42 162.483 184.027 162.017 183.52C161.857 183.347 161.79 183.147 161.817 182.92C161.843 182.693 161.95 182.5 162.137 182.34C162.35 182.18 162.563 182.12 162.777 182.16C163.003 182.187 163.197 182.28 163.357 182.44C163.637 182.773 164.037 183.047 164.557 183.26C165.077 183.46 165.65 183.56 166.277 183.56C167.197 183.56 167.87 183.407 168.297 183.1C168.723 182.78 168.943 182.393 168.957 181.94C168.97 181.487 168.757 181.107 168.317 180.8C167.89 180.493 167.157 180.253 166.117 180.08C164.77 179.853 163.783 179.473 163.157 178.94C162.543 178.407 162.237 177.767 162.237 177.02C162.237 176.34 162.423 175.773 162.797 175.32C163.17 174.867 163.657 174.527 164.257 174.3C164.87 174.073 165.53 173.96 166.237 173.96C167.13 173.96 167.903 174.113 168.557 174.42C169.21 174.713 169.737 175.113 170.137 175.62C170.297 175.807 170.363 176.007 170.337 176.22C170.31 176.42 170.203 176.587 170.017 176.72C169.83 176.827 169.617 176.86 169.377 176.82C169.15 176.78 168.957 176.673 168.797 176.5C168.463 176.14 168.083 175.88 167.657 175.72C167.23 175.56 166.743 175.48 166.197 175.48C165.517 175.48 164.957 175.613 164.517 175.88C164.09 176.147 163.877 176.493 163.877 176.92C163.877 177.213 163.95 177.467 164.097 177.68C164.257 177.893 164.537 178.087 164.937 178.26C165.337 178.42 165.897 178.567 166.617 178.7C167.617 178.873 168.403 179.113 168.977 179.42C169.563 179.727 169.983 180.093 170.237 180.52C170.49 180.933 170.617 181.393 170.617 181.9C170.617 182.513 170.437 183.06 170.077 183.54C169.73 184.02 169.23 184.4 168.577 184.68C167.937 184.96 167.183 185.1 166.317 185.1ZM177.118 185.1C176.278 185.1 175.464 184.967 174.678 184.7C173.904 184.42 173.284 184.027 172.818 183.52C172.658 183.347 172.591 183.147 172.618 182.92C172.644 182.693 172.751 182.5 172.938 182.34C173.151 182.18 173.364 182.12 173.578 182.16C173.804 182.187 173.998 182.28 174.158 182.44C174.438 182.773 174.838 183.047 175.358 183.26C175.878 183.46 176.451 183.56 177.078 183.56C177.998 183.56 178.671 183.407 179.098 183.1C179.524 182.78 179.744 182.393 179.758 181.94C179.771 181.487 179.558 181.107 179.118 180.8C178.691 180.493 177.958 180.253 176.918 180.08C175.571 179.853 174.584 179.473 173.958 178.94C173.344 178.407 173.038 177.767 173.038 177.02C173.038 176.34 173.224 175.773 173.598 175.32C173.971 174.867 174.458 174.527 175.058 174.3C175.671 174.073 176.331 173.96 177.038 173.96C177.931 173.96 178.704 174.113 179.358 174.42C180.011 174.713 180.538 175.113 180.938 175.62C181.098 175.807 181.164 176.007 181.138 176.22C181.111 176.42 181.004 176.587 180.818 176.72C180.631 176.827 180.418 176.86 180.178 176.82C179.951 176.78 179.758 176.673 179.598 176.5C179.264 176.14 178.884 175.88 178.458 175.72C178.031 175.56 177.544 175.48 176.998 175.48C176.318 175.48 175.758 175.613 175.318 175.88C174.891 176.147 174.678 176.493 174.678 176.92C174.678 177.213 174.751 177.467 174.898 177.68C175.058 177.893 175.338 178.087 175.738 178.26C176.138 178.42 176.698 178.567 177.418 178.7C178.418 178.873 179.204 179.113 179.778 179.42C180.364 179.727 180.784 180.093 181.038 180.52C181.291 180.933 181.418 181.393 181.418 181.9C181.418 182.513 181.238 183.06 180.878 183.54C180.531 184.02 180.031 184.4 179.378 184.68C178.738 184.96 177.984 185.1 177.118 185.1ZM185.338 185C185.125 185 184.932 184.927 184.758 184.78C184.598 184.62 184.518 184.407 184.518 184.14V174.1C184.518 173.153 184.685 172.327 185.018 171.62C185.365 170.913 185.858 170.367 186.498 169.98C187.152 169.58 187.925 169.38 188.818 169.38C189.072 169.38 189.278 169.453 189.438 169.6C189.598 169.747 189.678 169.933 189.678 170.16C189.678 170.373 189.598 170.553 189.438 170.7C189.278 170.847 189.072 170.92 188.818 170.92C188.258 170.92 187.785 171.053 187.398 171.32C187.012 171.573 186.718 171.933 186.518 172.4C186.318 172.853 186.218 173.38 186.218 173.98V184.14C186.218 184.407 186.138 184.62 185.978 184.78C185.832 184.927 185.618 185 185.338 185ZM183.378 175.92C183.138 175.92 182.945 175.853 182.798 175.72C182.665 175.587 182.598 175.413 182.598 175.2C182.598 174.987 182.665 174.813 182.798 174.68C182.945 174.533 183.138 174.46 183.378 174.46H188.498C188.738 174.46 188.925 174.533 189.058 174.68C189.205 174.813 189.278 174.987 189.278 175.2C189.278 175.413 189.205 175.587 189.058 175.72C188.925 175.853 188.738 175.92 188.498 175.92H183.378ZM196.063 185.12C195.129 185.12 194.289 184.927 193.543 184.54C192.809 184.14 192.229 183.56 191.803 182.8C191.376 182.04 191.163 181.107 191.163 180V174.9C191.163 174.66 191.243 174.46 191.403 174.3C191.563 174.14 191.763 174.06 192.003 174.06C192.256 174.06 192.463 174.14 192.623 174.3C192.783 174.46 192.863 174.66 192.863 174.9V180C192.863 180.8 193.009 181.46 193.303 181.98C193.609 182.5 194.023 182.887 194.543 183.14C195.063 183.393 195.649 183.52 196.303 183.52C196.929 183.52 197.489 183.4 197.983 183.16C198.489 182.92 198.889 182.587 199.183 182.16C199.476 181.733 199.623 181.253 199.623 180.72H200.783C200.756 181.56 200.536 182.313 200.122 182.98C199.709 183.633 199.149 184.153 198.443 184.54C197.736 184.927 196.943 185.12 196.063 185.12ZM200.483 185C200.229 185 200.023 184.92 199.863 184.76C199.703 184.6 199.623 184.393 199.623 184.14V174.9C199.623 174.647 199.703 174.447 199.863 174.3C200.023 174.14 200.229 174.06 200.483 174.06C200.736 174.06 200.943 174.14 201.103 174.3C201.263 174.447 201.343 174.647 201.343 174.9V184.14C201.343 184.393 201.263 184.6 201.103 184.76C200.943 184.92 200.736 185 200.483 185ZM207.377 185C206.83 185 206.337 184.853 205.897 184.56C205.47 184.253 205.137 183.833 204.897 183.3C204.657 182.767 204.537 182.153 204.537 181.46V170.22C204.537 169.967 204.61 169.767 204.757 169.62C204.917 169.46 205.123 169.38 205.377 169.38C205.63 169.38 205.83 169.46 205.977 169.62C206.137 169.767 206.217 169.967 206.217 170.22V181.46C206.217 182.007 206.323 182.453 206.537 182.8C206.763 183.147 207.043 183.32 207.377 183.32H207.877C208.103 183.32 208.283 183.4 208.417 183.56C208.55 183.707 208.617 183.907 208.617 184.16C208.617 184.413 208.517 184.62 208.317 184.78C208.13 184.927 207.877 185 207.557 185H207.377ZM217.418 189.68C217.164 189.68 216.958 189.6 216.798 189.44C216.638 189.28 216.558 189.073 216.558 188.82V179.48C216.571 178.44 216.818 177.507 217.298 176.68C217.791 175.84 218.451 175.18 219.278 174.7C220.104 174.207 221.038 173.96 222.078 173.96C223.144 173.96 224.091 174.207 224.918 174.7C225.758 175.18 226.418 175.84 226.898 176.68C227.391 177.52 227.638 178.473 227.638 179.54C227.638 180.593 227.404 181.54 226.938 182.38C226.484 183.22 225.858 183.887 225.058 184.38C224.258 184.86 223.351 185.1 222.338 185.1C221.484 185.1 220.704 184.92 219.998 184.56C219.291 184.187 218.711 183.7 218.258 183.1V188.82C218.258 189.073 218.178 189.28 218.018 189.44C217.871 189.6 217.671 189.68 217.418 189.68ZM222.078 183.56C222.824 183.56 223.491 183.387 224.078 183.04C224.664 182.693 225.124 182.213 225.458 181.6C225.804 180.987 225.978 180.3 225.978 179.54C225.978 178.767 225.804 178.08 225.458 177.48C225.124 176.867 224.664 176.387 224.078 176.04C223.491 175.68 222.824 175.5 222.078 175.5C221.358 175.5 220.698 175.68 220.098 176.04C219.511 176.387 219.051 176.867 218.718 177.48C218.384 178.08 218.218 178.767 218.218 179.54C218.218 180.3 218.384 180.987 218.718 181.6C219.051 182.213 219.511 182.693 220.098 183.04C220.698 183.387 221.358 183.56 222.078 183.56ZM231.439 178.22C231.466 177.407 231.672 176.68 232.059 176.04C232.459 175.387 232.979 174.873 233.619 174.5C234.259 174.127 234.972 173.94 235.759 173.94C236.439 173.94 236.952 174.04 237.299 174.24C237.659 174.44 237.792 174.713 237.699 175.06C237.659 175.26 237.572 175.4 237.439 175.48C237.319 175.547 237.172 175.58 236.999 175.58C236.839 175.58 236.652 175.573 236.439 175.56C235.666 175.453 234.972 175.5 234.359 175.7C233.746 175.887 233.259 176.2 232.899 176.64C232.539 177.08 232.359 177.607 232.359 178.22H231.439ZM231.519 185C231.252 185 231.046 184.927 230.899 184.78C230.752 184.633 230.679 184.427 230.679 184.16V174.9C230.679 174.633 230.752 174.427 230.899 174.28C231.046 174.133 231.252 174.06 231.519 174.06C231.786 174.06 231.992 174.133 232.139 174.28C232.286 174.427 232.359 174.633 232.359 174.9V184.16C232.359 184.427 232.286 184.633 232.139 184.78C231.992 184.927 231.786 185 231.519 185ZM244.194 185.1C243.114 185.1 242.154 184.86 241.314 184.38C240.487 183.9 239.834 183.24 239.354 182.4C238.874 181.56 238.634 180.607 238.634 179.54C238.634 178.46 238.874 177.5 239.354 176.66C239.834 175.82 240.487 175.16 241.314 174.68C242.154 174.2 243.114 173.96 244.194 173.96C245.261 173.96 246.207 174.2 247.034 174.68C247.861 175.16 248.514 175.82 248.994 176.66C249.474 177.5 249.721 178.46 249.734 179.54C249.734 180.607 249.494 181.56 249.014 182.4C248.534 183.24 247.874 183.9 247.034 184.38C246.207 184.86 245.261 185.1 244.194 185.1ZM244.194 183.56C244.941 183.56 245.607 183.387 246.194 183.04C246.781 182.693 247.234 182.22 247.554 181.62C247.887 181.007 248.054 180.313 248.054 179.54C248.054 178.767 247.887 178.073 247.554 177.46C247.234 176.847 246.781 176.367 246.194 176.02C245.607 175.673 244.941 175.5 244.194 175.5C243.447 175.5 242.781 175.673 242.194 176.02C241.607 176.367 241.141 176.847 240.794 177.46C240.461 178.073 240.294 178.767 240.294 179.54C240.294 180.313 240.461 181.007 240.794 181.62C241.141 182.22 241.607 182.693 242.194 183.04C242.781 183.387 243.447 183.56 244.194 183.56ZM249.87 189.68C249.616 189.68 249.41 189.6 249.25 189.44C249.09 189.28 249.01 189.073 249.01 188.82C249.01 188.567 249.09 188.36 249.25 188.2C249.41 188.04 249.616 187.96 249.87 187.96C250.456 187.96 250.97 187.833 251.41 187.58C251.85 187.327 252.196 186.973 252.45 186.52C252.716 186.08 252.85 185.567 252.85 184.98V174.92C252.85 174.653 252.93 174.447 253.09 174.3C253.25 174.14 253.456 174.06 253.71 174.06C253.963 174.06 254.17 174.14 254.33 174.3C254.49 174.447 254.57 174.653 254.57 174.92V184.98C254.57 185.9 254.363 186.713 253.95 187.42C253.55 188.127 252.996 188.68 252.29 189.08C251.583 189.48 250.776 189.68 249.87 189.68ZM253.69 172.08C253.37 172.08 253.096 171.967 252.87 171.74C252.643 171.513 252.53 171.233 252.53 170.9C252.53 170.567 252.643 170.293 252.87 170.08C253.11 169.853 253.39 169.74 253.71 169.74C254.016 169.74 254.283 169.853 254.51 170.08C254.75 170.293 254.87 170.567 254.87 170.9C254.87 171.233 254.75 171.513 254.51 171.74C254.283 171.967 254.01 172.08 253.69 172.08ZM262.672 185.1C261.578 185.1 260.612 184.867 259.772 184.4C258.932 183.92 258.272 183.26 257.792 182.42C257.312 181.58 257.072 180.62 257.072 179.54C257.072 178.447 257.298 177.487 257.752 176.66C258.205 175.82 258.825 175.16 259.612 174.68C260.412 174.2 261.332 173.96 262.372 173.96C263.398 173.96 264.285 174.193 265.032 174.66C265.778 175.113 266.352 175.747 266.752 176.56C267.165 177.373 267.372 178.3 267.372 179.34C267.372 179.567 267.298 179.753 267.152 179.9C267.005 180.033 266.818 180.1 266.592 180.1H258.232V178.72H266.672L265.832 179.32C265.832 178.587 265.692 177.927 265.412 177.34C265.132 176.753 264.732 176.293 264.212 175.96C263.705 175.627 263.092 175.46 262.372 175.46C261.612 175.46 260.952 175.64 260.392 176C259.832 176.347 259.398 176.827 259.092 177.44C258.785 178.053 258.632 178.753 258.632 179.54C258.632 180.327 258.805 181.027 259.152 181.64C259.498 182.24 259.972 182.72 260.572 183.08C261.185 183.427 261.885 183.6 262.672 183.6C263.125 183.6 263.585 183.52 264.052 183.36C264.532 183.2 264.912 183 265.192 182.76C265.352 182.627 265.532 182.56 265.732 182.56C265.945 182.547 266.125 182.6 266.272 182.72C266.458 182.893 266.552 183.087 266.552 183.3C266.565 183.5 266.485 183.673 266.312 183.82C265.858 184.193 265.292 184.5 264.612 184.74C263.945 184.98 263.298 185.1 262.672 185.1ZM274.485 185.1C273.432 185.1 272.492 184.86 271.665 184.38C270.838 183.887 270.185 183.22 269.705 182.38C269.238 181.54 269.005 180.593 269.005 179.54C269.005 178.473 269.232 177.52 269.685 176.68C270.152 175.84 270.778 175.18 271.565 174.7C272.365 174.207 273.285 173.96 274.325 173.96C275.125 173.96 275.865 174.12 276.545 174.44C277.225 174.747 277.825 175.213 278.345 175.84C278.505 176.027 278.558 176.22 278.505 176.42C278.465 176.607 278.345 176.773 278.145 176.92C277.985 177.04 277.805 177.08 277.605 177.04C277.405 177 277.232 176.893 277.085 176.72C276.352 175.907 275.432 175.5 274.325 175.5C273.605 175.5 272.965 175.673 272.405 176.02C271.858 176.367 271.432 176.84 271.125 177.44C270.818 178.04 270.665 178.74 270.665 179.54C270.665 180.313 270.825 181.007 271.145 181.62C271.465 182.22 271.912 182.693 272.485 183.04C273.072 183.387 273.738 183.56 274.485 183.56C274.992 183.56 275.445 183.493 275.845 183.36C276.258 183.227 276.625 183.027 276.945 182.76C277.118 182.613 277.298 182.533 277.485 182.52C277.685 182.493 277.865 182.547 278.025 182.68C278.198 182.84 278.298 183.02 278.325 183.22C278.352 183.42 278.285 183.6 278.125 183.76C277.152 184.653 275.938 185.1 274.485 185.1ZM285.718 185C285.025 185 284.405 184.833 283.858 184.5C283.312 184.167 282.878 183.707 282.558 183.12C282.252 182.533 282.098 181.873 282.098 181.14V171.44C282.098 171.187 282.172 170.98 282.318 170.82C282.478 170.66 282.685 170.58 282.938 170.58C283.178 170.58 283.378 170.66 283.538 170.82C283.698 170.98 283.778 171.187 283.778 171.44V181.14C283.778 181.767 283.958 182.287 284.318 182.7C284.692 183.1 285.158 183.3 285.718 183.3H286.298C286.525 183.3 286.712 183.38 286.858 183.54C287.005 183.7 287.078 183.907 287.078 184.16C287.078 184.413 286.985 184.62 286.798 184.78C286.625 184.927 286.398 185 286.118 185H285.718ZM280.918 175.92C280.692 175.92 280.505 175.853 280.358 175.72C280.212 175.587 280.138 175.413 280.138 175.2C280.138 174.987 280.212 174.813 280.358 174.68C280.505 174.533 280.692 174.46 280.918 174.46H285.858C286.085 174.46 286.272 174.533 286.418 174.68C286.565 174.813 286.638 174.987 286.638 175.2C286.638 175.413 286.565 175.587 286.418 175.72C286.272 175.853 286.085 175.92 285.858 175.92H280.918ZM293.465 185.1C292.625 185.1 291.812 184.967 291.025 184.7C290.252 184.42 289.632 184.027 289.165 183.52C289.005 183.347 288.938 183.147 288.965 182.92C288.992 182.693 289.098 182.5 289.285 182.34C289.498 182.18 289.712 182.12 289.925 182.16C290.152 182.187 290.345 182.28 290.505 182.44C290.785 182.773 291.185 183.047 291.705 183.26C292.225 183.46 292.798 183.56 293.425 183.56C294.345 183.56 295.018 183.407 295.445 183.1C295.872 182.78 296.092 182.393 296.105 181.94C296.118 181.487 295.905 181.107 295.465 180.8C295.038 180.493 294.305 180.253 293.265 180.08C291.918 179.853 290.932 179.473 290.305 178.94C289.692 178.407 289.385 177.767 289.385 177.02C289.385 176.34 289.572 175.773 289.945 175.32C290.318 174.867 290.805 174.527 291.405 174.3C292.018 174.073 292.678 173.96 293.385 173.96C294.278 173.96 295.052 174.113 295.705 174.42C296.358 174.713 296.885 175.113 297.285 175.62C297.445 175.807 297.512 176.007 297.485 176.22C297.458 176.42 297.352 176.587 297.165 176.72C296.978 176.827 296.765 176.86 296.525 176.82C296.298 176.78 296.105 176.673 295.945 176.5C295.612 176.14 295.232 175.88 294.805 175.72C294.378 175.56 293.892 175.48 293.345 175.48C292.665 175.48 292.105 175.613 291.665 175.88C291.238 176.147 291.025 176.493 291.025 176.92C291.025 177.213 291.098 177.467 291.245 177.68C291.405 177.893 291.685 178.087 292.085 178.26C292.485 178.42 293.045 178.567 293.765 178.7C294.765 178.873 295.552 179.113 296.125 179.42C296.712 179.727 297.132 180.093 297.385 180.52C297.638 180.933 297.765 181.393 297.765 181.9C297.765 182.513 297.585 183.06 297.225 183.54C296.878 184.02 296.378 184.4 295.725 184.68C295.085 184.96 294.332 185.1 293.465 185.1Z" fill="#F2EEE3"/>
<path d="M171.473 261H148.678V255.414L156.348 247.658C158.539 245.367 159.971 243.805 160.645 242.975C161.318 242.13 161.783 241.406 162.041 240.805C162.313 240.203 162.449 239.573 162.449 238.914C162.449 238.098 162.184 237.453 161.654 236.98C161.124 236.508 160.38 236.271 159.42 236.271C158.432 236.271 157.429 236.558 156.412 237.131C155.41 237.689 154.271 238.52 152.996 239.623L148.334 234.166C149.952 232.719 151.313 231.688 152.416 231.072C153.519 230.442 154.715 229.962 156.004 229.633C157.307 229.303 158.768 229.139 160.387 229.139C162.421 229.139 164.232 229.497 165.822 230.213C167.426 230.929 168.665 231.953 169.539 233.285C170.427 234.603 170.871 236.085 170.871 237.732C170.871 238.964 170.714 240.103 170.398 241.148C170.098 242.194 169.625 243.225 168.98 244.242C168.336 245.245 167.477 246.305 166.402 247.422C165.342 248.539 163.072 250.659 159.592 253.781V253.996H171.473V261ZM198.264 254.92H194.805V261H186.426V254.92H173.9V248.689L186.963 229.59H194.805V248.582H198.264V254.92ZM186.426 248.582V244.93C186.426 244.242 186.447 243.318 186.49 242.158C186.548 240.984 186.59 240.368 186.619 240.311H186.383C185.896 241.413 185.344 242.445 184.729 243.404L181.248 248.582H186.426ZM211.906 229.139C215.215 229.139 217.786 229.805 219.619 231.137C221.467 232.469 222.391 234.359 222.391 236.809C222.391 238.47 221.954 239.931 221.08 241.191C220.221 242.438 218.853 243.526 216.977 244.457C219.297 245.775 220.93 247.092 221.875 248.41C222.835 249.714 223.314 251.124 223.314 252.643C223.314 255.436 222.305 257.598 220.285 259.131C218.266 260.663 215.444 261.43 211.82 261.43C208.125 261.43 205.296 260.685 203.334 259.195C201.372 257.691 200.391 255.536 200.391 252.729C200.391 250.91 200.827 249.363 201.701 248.088C202.575 246.799 204.043 245.632 206.105 244.586C204.444 243.469 203.227 242.273 202.453 240.998C201.694 239.709 201.314 238.298 201.314 236.766C201.314 234.359 202.253 232.49 204.129 231.158C206.005 229.812 208.598 229.139 211.906 229.139ZM208.168 252.385C208.168 253.273 208.483 253.989 209.113 254.533C209.743 255.063 210.617 255.328 211.734 255.328C214.255 255.328 215.516 254.404 215.516 252.557C215.516 251.855 215.236 251.167 214.678 250.494C214.133 249.807 213.152 249.04 211.734 248.195C210.46 248.868 209.543 249.549 208.984 250.236C208.44 250.91 208.168 251.626 208.168 252.385ZM211.863 235.262C211.133 235.262 210.517 235.477 210.016 235.906C209.514 236.322 209.264 236.866 209.264 237.539C209.264 238.771 210.102 239.859 211.777 240.805C212.794 240.217 213.489 239.68 213.861 239.193C214.234 238.706 214.42 238.155 214.42 237.539C214.42 236.852 214.169 236.3 213.668 235.885C213.167 235.469 212.565 235.262 211.863 235.262ZM234.25 248.367H226.258V242.609H234.25V234.725H240.029V242.609H248.021V248.367H240.029V256.123H234.25V248.367Z" fill="#F2EEE3"/>
<path d="M132.256 299.2C131.176 299.2 130.163 298.993 129.216 298.58C128.283 298.167 127.456 297.593 126.736 296.86C126.03 296.127 125.476 295.28 125.076 294.32C124.69 293.347 124.496 292.3 124.496 291.18C124.496 290.073 124.69 289.04 125.076 288.08C125.476 287.107 126.03 286.26 126.736 285.54C127.443 284.807 128.263 284.233 129.196 283.82C130.143 283.393 131.163 283.18 132.256 283.18C133.23 283.18 134.103 283.32 134.876 283.6C135.65 283.867 136.403 284.307 137.136 284.92C137.256 285.013 137.33 285.12 137.356 285.24C137.396 285.347 137.403 285.453 137.376 285.56C137.35 285.667 137.296 285.753 137.216 285.82C137.203 285.98 137.13 286.107 136.996 286.2C136.863 286.293 136.71 286.34 136.536 286.34C136.363 286.327 136.19 286.253 136.016 286.12C135.51 285.68 134.963 285.353 134.376 285.14C133.79 284.913 133.083 284.8 132.256 284.8C131.416 284.8 130.63 284.967 129.896 285.3C129.163 285.633 128.516 286.093 127.956 286.68C127.396 287.267 126.956 287.947 126.636 288.72C126.33 289.493 126.176 290.313 126.176 291.18C126.176 292.073 126.33 292.907 126.636 293.68C126.956 294.44 127.396 295.113 127.956 295.7C128.516 296.287 129.163 296.747 129.896 297.08C130.63 297.413 131.416 297.58 132.256 297.58C132.963 297.58 133.636 297.46 134.276 297.22C134.916 296.98 135.523 296.64 136.096 296.2C136.283 296.053 136.476 295.993 136.676 296.02C136.876 296.047 137.043 296.133 137.176 296.28C137.323 296.427 137.396 296.62 137.396 296.86C137.396 296.967 137.376 297.073 137.336 297.18C137.296 297.273 137.236 297.373 137.156 297.48C136.463 298.08 135.696 298.52 134.856 298.8C134.03 299.067 133.163 299.2 132.256 299.2ZM145.205 299.12C144.272 299.12 143.432 298.927 142.685 298.54C141.952 298.14 141.372 297.56 140.945 296.8C140.518 296.04 140.305 295.107 140.305 294V288.9C140.305 288.66 140.385 288.46 140.545 288.3C140.705 288.14 140.905 288.06 141.145 288.06C141.398 288.06 141.605 288.14 141.765 288.3C141.925 288.46 142.005 288.66 142.005 288.9V294C142.005 294.8 142.152 295.46 142.445 295.98C142.752 296.5 143.165 296.887 143.685 297.14C144.205 297.393 144.792 297.52 145.445 297.52C146.072 297.52 146.632 297.4 147.125 297.16C147.632 296.92 148.032 296.587 148.325 296.16C148.618 295.733 148.765 295.253 148.765 294.72H149.925C149.898 295.56 149.678 296.313 149.265 296.98C148.852 297.633 148.292 298.153 147.585 298.54C146.878 298.927 146.085 299.12 145.205 299.12ZM149.625 299C149.372 299 149.165 298.92 149.005 298.76C148.845 298.6 148.765 298.393 148.765 298.14V288.9C148.765 288.647 148.845 288.447 149.005 288.3C149.165 288.14 149.372 288.06 149.625 288.06C149.878 288.06 150.085 288.14 150.245 288.3C150.405 288.447 150.485 288.647 150.485 288.9V298.14C150.485 298.393 150.405 298.6 150.245 298.76C150.085 298.92 149.878 299 149.625 299ZM154.939 303.68C154.686 303.68 154.479 303.6 154.319 303.44C154.159 303.28 154.079 303.073 154.079 302.82V293.48C154.093 292.44 154.339 291.507 154.819 290.68C155.313 289.84 155.973 289.18 156.799 288.7C157.626 288.207 158.559 287.96 159.599 287.96C160.666 287.96 161.613 288.207 162.439 288.7C163.279 289.18 163.939 289.84 164.419 290.68C164.913 291.52 165.159 292.473 165.159 293.54C165.159 294.593 164.926 295.54 164.459 296.38C164.006 297.22 163.379 297.887 162.579 298.38C161.779 298.86 160.873 299.1 159.859 299.1C159.006 299.1 158.226 298.92 157.519 298.56C156.813 298.187 156.233 297.7 155.779 297.1V302.82C155.779 303.073 155.699 303.28 155.539 303.44C155.393 303.6 155.193 303.68 154.939 303.68ZM159.599 297.56C160.346 297.56 161.013 297.387 161.599 297.04C162.186 296.693 162.646 296.213 162.979 295.6C163.326 294.987 163.499 294.3 163.499 293.54C163.499 292.767 163.326 292.08 162.979 291.48C162.646 290.867 162.186 290.387 161.599 290.04C161.013 289.68 160.346 289.5 159.599 289.5C158.879 289.5 158.219 289.68 157.619 290.04C157.033 290.387 156.573 290.867 156.239 291.48C155.906 292.08 155.739 292.767 155.739 293.54C155.739 294.3 155.906 294.987 156.239 295.6C156.573 296.213 157.033 296.693 157.619 297.04C158.219 297.387 158.879 297.56 159.599 297.56ZM172.08 299.1C171.24 299.1 170.427 298.967 169.64 298.7C168.867 298.42 168.247 298.027 167.78 297.52C167.62 297.347 167.554 297.147 167.58 296.92C167.607 296.693 167.714 296.5 167.9 296.34C168.114 296.18 168.327 296.12 168.54 296.16C168.767 296.187 168.96 296.28 169.12 296.44C169.4 296.773 169.8 297.047 170.32 297.26C170.84 297.46 171.414 297.56 172.04 297.56C172.96 297.56 173.634 297.407 174.06 297.1C174.487 296.78 174.707 296.393 174.72 295.94C174.734 295.487 174.52 295.107 174.08 294.8C173.654 294.493 172.92 294.253 171.88 294.08C170.534 293.853 169.547 293.473 168.92 292.94C168.307 292.407 168 291.767 168 291.02C168 290.34 168.187 289.773 168.56 289.32C168.934 288.867 169.42 288.527 170.02 288.3C170.634 288.073 171.294 287.96 172 287.96C172.894 287.96 173.667 288.113 174.32 288.42C174.974 288.713 175.5 289.113 175.9 289.62C176.06 289.807 176.127 290.007 176.1 290.22C176.074 290.42 175.967 290.587 175.78 290.72C175.594 290.827 175.38 290.86 175.14 290.82C174.914 290.78 174.72 290.673 174.56 290.5C174.227 290.14 173.847 289.88 173.42 289.72C172.994 289.56 172.507 289.48 171.96 289.48C171.28 289.48 170.72 289.613 170.28 289.88C169.854 290.147 169.64 290.493 169.64 290.92C169.64 291.213 169.714 291.467 169.86 291.68C170.02 291.893 170.3 292.087 170.7 292.26C171.1 292.42 171.66 292.567 172.38 292.7C173.38 292.873 174.167 293.113 174.74 293.42C175.327 293.727 175.747 294.093 176 294.52C176.254 294.933 176.38 295.393 176.38 295.9C176.38 296.513 176.2 297.06 175.84 297.54C175.494 298.02 174.994 298.4 174.34 298.68C173.7 298.96 172.947 299.1 172.08 299.1ZM189.841 299.1C188.761 299.1 187.801 298.86 186.961 298.38C186.134 297.9 185.481 297.24 185.001 296.4C184.521 295.56 184.281 294.607 184.281 293.54C184.281 292.46 184.521 291.5 185.001 290.66C185.481 289.82 186.134 289.16 186.961 288.68C187.801 288.2 188.761 287.96 189.841 287.96C190.907 287.96 191.854 288.2 192.681 288.68C193.507 289.16 194.161 289.82 194.641 290.66C195.121 291.5 195.367 292.46 195.381 293.54C195.381 294.607 195.141 295.56 194.661 296.4C194.181 297.24 193.521 297.9 192.681 298.38C191.854 298.86 190.907 299.1 189.841 299.1ZM189.841 297.56C190.587 297.56 191.254 297.387 191.841 297.04C192.427 296.693 192.881 296.22 193.201 295.62C193.534 295.007 193.701 294.313 193.701 293.54C193.701 292.767 193.534 292.073 193.201 291.46C192.881 290.847 192.427 290.367 191.841 290.02C191.254 289.673 190.587 289.5 189.841 289.5C189.094 289.5 188.427 289.673 187.841 290.02C187.254 290.367 186.787 290.847 186.441 291.46C186.107 292.073 185.941 292.767 185.941 293.54C185.941 294.313 186.107 295.007 186.441 295.62C186.787 296.22 187.254 296.693 187.841 297.04C188.427 297.387 189.094 297.56 189.841 297.56ZM199.676 299C199.463 299 199.27 298.927 199.096 298.78C198.936 298.62 198.856 298.407 198.856 298.14V288.1C198.856 287.153 199.023 286.327 199.356 285.62C199.703 284.913 200.196 284.367 200.836 283.98C201.49 283.58 202.263 283.38 203.156 283.38C203.41 283.38 203.616 283.453 203.776 283.6C203.936 283.747 204.016 283.933 204.016 284.16C204.016 284.373 203.936 284.553 203.776 284.7C203.616 284.847 203.41 284.92 203.156 284.92C202.596 284.92 202.123 285.053 201.736 285.32C201.35 285.573 201.056 285.933 200.856 286.4C200.656 286.853 200.556 287.38 200.556 287.98V298.14C200.556 298.407 200.476 298.62 200.316 298.78C200.17 298.927 199.956 299 199.676 299ZM197.716 289.92C197.476 289.92 197.283 289.853 197.136 289.72C197.003 289.587 196.936 289.413 196.936 289.2C196.936 288.987 197.003 288.813 197.136 288.68C197.283 288.533 197.476 288.46 197.716 288.46H202.836C203.076 288.46 203.263 288.533 203.396 288.68C203.543 288.813 203.616 288.987 203.616 289.2C203.616 289.413 203.543 289.587 203.396 289.72C203.263 289.853 203.076 289.92 202.836 289.92H197.716ZM216.46 299.1C215.406 299.1 214.466 298.86 213.64 298.38C212.813 297.887 212.16 297.22 211.68 296.38C211.213 295.54 210.98 294.593 210.98 293.54C210.98 292.473 211.206 291.52 211.66 290.68C212.126 289.84 212.753 289.18 213.54 288.7C214.34 288.207 215.26 287.96 216.3 287.96C217.1 287.96 217.84 288.12 218.52 288.44C219.2 288.747 219.8 289.213 220.32 289.84C220.48 290.027 220.533 290.22 220.48 290.42C220.44 290.607 220.32 290.773 220.12 290.92C219.96 291.04 219.78 291.08 219.58 291.04C219.38 291 219.206 290.893 219.06 290.72C218.326 289.907 217.406 289.5 216.3 289.5C215.58 289.5 214.94 289.673 214.38 290.02C213.833 290.367 213.406 290.84 213.1 291.44C212.793 292.04 212.64 292.74 212.64 293.54C212.64 294.313 212.8 295.007 213.12 295.62C213.44 296.22 213.886 296.693 214.46 297.04C215.046 297.387 215.713 297.56 216.46 297.56C216.966 297.56 217.42 297.493 217.82 297.36C218.233 297.227 218.6 297.027 218.92 296.76C219.093 296.613 219.273 296.533 219.46 296.52C219.66 296.493 219.84 296.547 220 296.68C220.173 296.84 220.273 297.02 220.3 297.22C220.326 297.42 220.26 297.6 220.1 297.76C219.126 298.653 217.913 299.1 216.46 299.1ZM228.493 299.1C227.413 299.1 226.453 298.86 225.613 298.38C224.786 297.9 224.133 297.24 223.653 296.4C223.173 295.56 222.933 294.607 222.933 293.54C222.933 292.46 223.173 291.5 223.653 290.66C224.133 289.82 224.786 289.16 225.613 288.68C226.453 288.2 227.413 287.96 228.493 287.96C229.56 287.96 230.506 288.2 231.333 288.68C232.16 289.16 232.813 289.82 233.293 290.66C233.773 291.5 234.02 292.46 234.033 293.54C234.033 294.607 233.793 295.56 233.313 296.4C232.833 297.24 232.173 297.9 231.333 298.38C230.506 298.86 229.56 299.1 228.493 299.1ZM228.493 297.56C229.24 297.56 229.906 297.387 230.493 297.04C231.08 296.693 231.533 296.22 231.853 295.62C232.186 295.007 232.353 294.313 232.353 293.54C232.353 292.767 232.186 292.073 231.853 291.46C231.533 290.847 231.08 290.367 230.493 290.02C229.906 289.673 229.24 289.5 228.493 289.5C227.746 289.5 227.08 289.673 226.493 290.02C225.906 290.367 225.44 290.847 225.093 291.46C224.76 292.073 224.593 292.767 224.593 293.54C224.593 294.313 224.76 295.007 225.093 295.62C225.44 296.22 225.906 296.693 226.493 297.04C227.08 297.387 227.746 297.56 228.493 297.56ZM238.329 299C238.115 299 237.922 298.927 237.749 298.78C237.589 298.62 237.509 298.407 237.509 298.14V288.1C237.509 287.153 237.675 286.327 238.009 285.62C238.355 284.913 238.849 284.367 239.489 283.98C240.142 283.58 240.915 283.38 241.809 283.38C242.062 283.38 242.269 283.453 242.429 283.6C242.589 283.747 242.669 283.933 242.669 284.16C242.669 284.373 242.589 284.553 242.429 284.7C242.269 284.847 242.062 284.92 241.809 284.92C241.249 284.92 240.775 285.053 240.389 285.32C240.002 285.573 239.709 285.933 239.509 286.4C239.309 286.853 239.209 287.38 239.209 287.98V298.14C239.209 298.407 239.129 298.62 238.969 298.78C238.822 298.927 238.609 299 238.329 299ZM236.369 289.92C236.129 289.92 235.935 289.853 235.789 289.72C235.655 289.587 235.589 289.413 235.589 289.2C235.589 288.987 235.655 288.813 235.789 288.68C235.935 288.533 236.129 288.46 236.369 288.46H241.489C241.729 288.46 241.915 288.533 242.049 288.68C242.195 288.813 242.269 288.987 242.269 289.2C242.269 289.413 242.195 289.587 242.049 289.72C241.915 289.853 241.729 289.92 241.489 289.92H236.369ZM245.649 299C245.435 299 245.242 298.927 245.069 298.78C244.909 298.62 244.829 298.407 244.829 298.14V288.1C244.829 287.153 244.995 286.327 245.329 285.62C245.675 284.913 246.169 284.367 246.809 283.98C247.462 283.58 248.235 283.38 249.129 283.38C249.382 283.38 249.589 283.453 249.749 283.6C249.909 283.747 249.989 283.933 249.989 284.16C249.989 284.373 249.909 284.553 249.749 284.7C249.589 284.847 249.382 284.92 249.129 284.92C248.569 284.92 248.095 285.053 247.709 285.32C247.322 285.573 247.029 285.933 246.829 286.4C246.629 286.853 246.529 287.38 246.529 287.98V298.14C246.529 298.407 246.449 298.62 246.289 298.78C246.142 298.927 245.929 299 245.649 299ZM243.689 289.92C243.449 289.92 243.255 289.853 243.109 289.72C242.975 289.587 242.909 289.413 242.909 289.2C242.909 288.987 242.975 288.813 243.109 288.68C243.255 288.533 243.449 288.46 243.689 288.46H248.809C249.049 288.46 249.235 288.533 249.369 288.68C249.515 288.813 249.589 288.987 249.589 289.2C249.589 289.413 249.515 289.587 249.369 289.72C249.235 289.853 249.049 289.92 248.809 289.92H243.689ZM256.326 299.1C255.233 299.1 254.266 298.867 253.426 298.4C252.586 297.92 251.926 297.26 251.446 296.42C250.966 295.58 250.726 294.62 250.726 293.54C250.726 292.447 250.953 291.487 251.406 290.66C251.859 289.82 252.479 289.16 253.266 288.68C254.066 288.2 254.986 287.96 256.026 287.96C257.053 287.96 257.939 288.193 258.686 288.66C259.433 289.113 260.006 289.747 260.406 290.56C260.819 291.373 261.026 292.3 261.026 293.34C261.026 293.567 260.953 293.753 260.806 293.9C260.659 294.033 260.473 294.1 260.246 294.1H251.886V292.72H260.326L259.486 293.32C259.486 292.587 259.346 291.927 259.066 291.34C258.786 290.753 258.386 290.293 257.866 289.96C257.359 289.627 256.746 289.46 256.026 289.46C255.266 289.46 254.606 289.64 254.046 290C253.486 290.347 253.053 290.827 252.746 291.44C252.439 292.053 252.286 292.753 252.286 293.54C252.286 294.327 252.459 295.027 252.806 295.64C253.153 296.24 253.626 296.72 254.226 297.08C254.839 297.427 255.539 297.6 256.326 297.6C256.779 297.6 257.239 297.52 257.706 297.36C258.186 297.2 258.566 297 258.846 296.76C259.006 296.627 259.186 296.56 259.386 296.56C259.599 296.547 259.779 296.6 259.926 296.72C260.113 296.893 260.206 297.087 260.206 297.3C260.219 297.5 260.139 297.673 259.966 297.82C259.513 298.193 258.946 298.5 258.266 298.74C257.599 298.98 256.953 299.1 256.326 299.1ZM268.259 299.1C267.166 299.1 266.199 298.867 265.359 298.4C264.519 297.92 263.859 297.26 263.379 296.42C262.899 295.58 262.659 294.62 262.659 293.54C262.659 292.447 262.886 291.487 263.339 290.66C263.793 289.82 264.413 289.16 265.199 288.68C265.999 288.2 266.919 287.96 267.959 287.96C268.986 287.96 269.873 288.193 270.619 288.66C271.366 289.113 271.939 289.747 272.339 290.56C272.753 291.373 272.959 292.3 272.959 293.34C272.959 293.567 272.886 293.753 272.739 293.9C272.593 294.033 272.406 294.1 272.179 294.1H263.819V292.72H272.259L271.419 293.32C271.419 292.587 271.279 291.927 270.999 291.34C270.719 290.753 270.319 290.293 269.799 289.96C269.293 289.627 268.679 289.46 267.959 289.46C267.199 289.46 266.539 289.64 265.979 290C265.419 290.347 264.986 290.827 264.679 291.44C264.373 292.053 264.219 292.753 264.219 293.54C264.219 294.327 264.393 295.027 264.739 295.64C265.086 296.24 265.559 296.72 266.159 297.08C266.773 297.427 267.473 297.6 268.259 297.6C268.713 297.6 269.173 297.52 269.639 297.36C270.119 297.2 270.499 297 270.779 296.76C270.939 296.627 271.119 296.56 271.319 296.56C271.533 296.547 271.713 296.6 271.859 296.72C272.046 296.893 272.139 297.087 272.139 297.3C272.153 297.5 272.073 297.673 271.899 297.82C271.446 298.193 270.879 298.5 270.199 298.74C269.533 298.98 268.886 299.1 268.259 299.1Z" fill="#F2EEE3"/>
<path d="M187.414 354.418C189.219 354.418 190.844 354.84 192.291 355.686C193.752 356.516 194.883 357.698 195.686 359.23C196.502 360.763 196.91 362.532 196.91 364.537C196.91 368.046 195.85 370.739 193.73 372.615C191.625 374.492 188.431 375.43 184.148 375.43C180.482 375.43 177.488 374.864 175.168 373.732V366.771C176.414 367.344 177.818 367.817 179.379 368.189C180.954 368.562 182.308 368.748 183.439 368.748C185.015 368.748 186.225 368.419 187.07 367.76C187.915 367.087 188.338 366.098 188.338 364.795C188.338 363.592 187.908 362.654 187.049 361.98C186.189 361.307 184.886 360.971 183.139 360.971C181.807 360.971 180.367 361.221 178.82 361.723L175.705 360.176L176.887 343.59H194.805V350.658H184.105L183.719 354.805C184.836 354.59 185.631 354.475 186.104 354.461C186.576 354.432 187.013 354.418 187.414 354.418ZM208.469 362.367H200.477V356.609H208.469V348.725H214.248V356.609H222.24V362.367H214.248V370.123H208.469V362.367Z" fill="#F2EEE3"/>
<path d="M104.223 413C103.983 413 103.777 412.92 103.603 412.76C103.443 412.587 103.363 412.38 103.363 412.14V398.24C103.363 397.987 103.443 397.78 103.603 397.62C103.777 397.46 103.983 397.38 104.223 397.38H107.843C108.99 397.38 110.037 397.573 110.983 397.96C111.93 398.333 112.75 398.873 113.443 399.58C114.137 400.273 114.67 401.093 115.043 402.04C115.43 402.987 115.623 404.033 115.623 405.18C115.623 406.327 115.43 407.38 115.043 408.34C114.67 409.287 114.137 410.113 113.443 410.82C112.75 411.513 111.93 412.053 110.983 412.44C110.037 412.813 108.99 413 107.843 413H104.223ZM105.103 411.46H107.843C109.03 411.46 110.077 411.193 110.983 410.66C111.903 410.113 112.623 409.367 113.143 408.42C113.663 407.473 113.923 406.393 113.923 405.18C113.923 403.967 113.663 402.887 113.143 401.94C112.623 400.993 111.903 400.253 110.983 399.72C110.077 399.187 109.03 398.92 107.843 398.92H105.103V411.46ZM119.792 413C119.538 413 119.332 412.92 119.172 412.76C119.012 412.6 118.932 412.393 118.932 412.14V402.92C118.932 402.653 119.012 402.447 119.172 402.3C119.332 402.14 119.538 402.06 119.792 402.06C120.045 402.06 120.245 402.14 120.392 402.3C120.552 402.447 120.632 402.653 120.632 402.92V412.14C120.632 412.393 120.552 412.6 120.392 412.76C120.245 412.92 120.045 413 119.792 413ZM119.772 400.08C119.452 400.08 119.178 399.967 118.952 399.74C118.725 399.513 118.612 399.233 118.612 398.9C118.612 398.567 118.725 398.293 118.952 398.08C119.192 397.853 119.472 397.74 119.792 397.74C120.098 397.74 120.365 397.853 120.592 398.08C120.832 398.293 120.952 398.567 120.952 398.9C120.952 399.233 120.832 399.513 120.592 399.74C120.365 399.967 120.092 400.08 119.772 400.08ZM125.811 413C125.598 413 125.404 412.927 125.231 412.78C125.071 412.62 124.991 412.407 124.991 412.14V402.1C124.991 401.153 125.158 400.327 125.491 399.62C125.838 398.913 126.331 398.367 126.971 397.98C127.624 397.58 128.398 397.38 129.291 397.38C129.544 397.38 129.751 397.453 129.911 397.6C130.071 397.747 130.151 397.933 130.151 398.16C130.151 398.373 130.071 398.553 129.911 398.7C129.751 398.847 129.544 398.92 129.291 398.92C128.731 398.92 128.258 399.053 127.871 399.32C127.484 399.573 127.191 399.933 126.991 400.4C126.791 400.853 126.691 401.38 126.691 401.98V412.14C126.691 412.407 126.611 412.62 126.451 412.78C126.304 412.927 126.091 413 125.811 413ZM123.851 403.92C123.611 403.92 123.418 403.853 123.271 403.72C123.138 403.587 123.071 403.413 123.071 403.2C123.071 402.987 123.138 402.813 123.271 402.68C123.418 402.533 123.611 402.46 123.851 402.46H128.971C129.211 402.46 129.398 402.533 129.531 402.68C129.678 402.813 129.751 402.987 129.751 403.2C129.751 403.413 129.678 403.587 129.531 403.72C129.398 403.853 129.211 403.92 128.971 403.92H123.851ZM133.131 413C132.918 413 132.724 412.927 132.551 412.78C132.391 412.62 132.311 412.407 132.311 412.14V402.1C132.311 401.153 132.478 400.327 132.811 399.62C133.158 398.913 133.651 398.367 134.291 397.98C134.944 397.58 135.718 397.38 136.611 397.38C136.864 397.38 137.071 397.453 137.231 397.6C137.391 397.747 137.471 397.933 137.471 398.16C137.471 398.373 137.391 398.553 137.231 398.7C137.071 398.847 136.864 398.92 136.611 398.92C136.051 398.92 135.578 399.053 135.191 399.32C134.804 399.573 134.511 399.933 134.311 400.4C134.111 400.853 134.011 401.38 134.011 401.98V412.14C134.011 412.407 133.931 412.62 133.771 412.78C133.624 412.927 133.411 413 133.131 413ZM131.171 403.92C130.931 403.92 130.738 403.853 130.591 403.72C130.458 403.587 130.391 403.413 130.391 403.2C130.391 402.987 130.458 402.813 130.591 402.68C130.738 402.533 130.931 402.46 131.171 402.46H136.291C136.531 402.46 136.718 402.533 136.851 402.68C136.998 402.813 137.071 402.987 137.071 403.2C137.071 403.413 136.998 403.587 136.851 403.72C136.718 403.853 136.531 403.92 136.291 403.92H131.171ZM143.808 413.1C142.715 413.1 141.748 412.867 140.908 412.4C140.068 411.92 139.408 411.26 138.928 410.42C138.448 409.58 138.208 408.62 138.208 407.54C138.208 406.447 138.435 405.487 138.888 404.66C139.342 403.82 139.962 403.16 140.748 402.68C141.548 402.2 142.468 401.96 143.508 401.96C144.535 401.96 145.422 402.193 146.168 402.66C146.915 403.113 147.488 403.747 147.888 404.56C148.302 405.373 148.508 406.3 148.508 407.34C148.508 407.567 148.435 407.753 148.288 407.9C148.142 408.033 147.955 408.1 147.728 408.1H139.368V406.72H147.808L146.968 407.32C146.968 406.587 146.828 405.927 146.548 405.34C146.268 404.753 145.868 404.293 145.348 403.96C144.842 403.627 144.228 403.46 143.508 403.46C142.748 403.46 142.088 403.64 141.528 404C140.968 404.347 140.535 404.827 140.228 405.44C139.922 406.053 139.768 406.753 139.768 407.54C139.768 408.327 139.942 409.027 140.288 409.64C140.635 410.24 141.108 410.72 141.708 411.08C142.322 411.427 143.022 411.6 143.808 411.6C144.262 411.6 144.722 411.52 145.188 411.36C145.668 411.2 146.048 411 146.328 410.76C146.488 410.627 146.668 410.56 146.868 410.56C147.082 410.547 147.262 410.6 147.408 410.72C147.595 410.893 147.688 411.087 147.688 411.3C147.702 411.5 147.622 411.673 147.448 411.82C146.995 412.193 146.428 412.5 145.748 412.74C145.082 412.98 144.435 413.1 143.808 413.1ZM151.873 406.22C151.899 405.407 152.106 404.68 152.493 404.04C152.893 403.387 153.413 402.873 154.053 402.5C154.693 402.127 155.406 401.94 156.193 401.94C156.873 401.94 157.386 402.04 157.733 402.24C158.093 402.44 158.226 402.713 158.133 403.06C158.093 403.26 158.006 403.4 157.873 403.48C157.753 403.547 157.606 403.58 157.433 403.58C157.273 403.58 157.086 403.573 156.873 403.56C156.099 403.453 155.406 403.5 154.793 403.7C154.179 403.887 153.693 404.2 153.333 404.64C152.973 405.08 152.793 405.607 152.793 406.22H151.873ZM151.952 413C151.686 413 151.479 412.927 151.333 412.78C151.186 412.633 151.113 412.427 151.113 412.16V402.9C151.113 402.633 151.186 402.427 151.333 402.28C151.479 402.133 151.686 402.06 151.952 402.06C152.219 402.06 152.426 402.133 152.573 402.28C152.719 402.427 152.793 402.633 152.793 402.9V412.16C152.793 412.427 152.719 412.633 152.573 412.78C152.426 412.927 152.219 413 151.952 413ZM164.668 413.1C163.574 413.1 162.608 412.867 161.768 412.4C160.928 411.92 160.268 411.26 159.788 410.42C159.308 409.58 159.068 408.62 159.068 407.54C159.068 406.447 159.294 405.487 159.748 404.66C160.201 403.82 160.821 403.16 161.608 402.68C162.408 402.2 163.328 401.96 164.368 401.96C165.394 401.96 166.281 402.193 167.028 402.66C167.774 403.113 168.348 403.747 168.748 404.56C169.161 405.373 169.368 406.3 169.368 407.34C169.368 407.567 169.294 407.753 169.148 407.9C169.001 408.033 168.814 408.1 168.588 408.1H160.228V406.72H168.668L167.828 407.32C167.828 406.587 167.688 405.927 167.408 405.34C167.128 404.753 166.728 404.293 166.208 403.96C165.701 403.627 165.088 403.46 164.368 403.46C163.608 403.46 162.948 403.64 162.388 404C161.828 404.347 161.394 404.827 161.088 405.44C160.781 406.053 160.628 406.753 160.628 407.54C160.628 408.327 160.801 409.027 161.148 409.64C161.494 410.24 161.968 410.72 162.568 411.08C163.181 411.427 163.881 411.6 164.668 411.6C165.121 411.6 165.581 411.52 166.048 411.36C166.528 411.2 166.908 411 167.188 410.76C167.348 410.627 167.528 410.56 167.728 410.56C167.941 410.547 168.121 410.6 168.268 410.72C168.454 410.893 168.548 411.087 168.548 411.3C168.561 411.5 168.481 411.673 168.308 411.82C167.854 412.193 167.288 412.5 166.608 412.74C165.941 412.98 165.294 413.1 164.668 413.1ZM181.312 413C181.059 413 180.852 412.92 180.692 412.76C180.532 412.6 180.452 412.4 180.452 412.16V407.06C180.452 406.247 180.299 405.587 179.992 405.08C179.685 404.56 179.272 404.173 178.752 403.92C178.245 403.667 177.659 403.54 176.992 403.54C176.379 403.54 175.819 403.66 175.312 403.9C174.805 404.14 174.405 404.473 174.112 404.9C173.819 405.313 173.672 405.793 173.672 406.34H172.532C172.545 405.5 172.759 404.753 173.172 404.1C173.599 403.433 174.165 402.907 174.872 402.52C175.579 402.133 176.365 401.94 177.232 401.94C178.179 401.94 179.019 402.14 179.752 402.54C180.499 402.927 181.085 403.5 181.512 404.26C181.939 405.02 182.152 405.953 182.152 407.06V412.16C182.152 412.4 182.072 412.6 181.912 412.76C181.752 412.92 181.552 413 181.312 413ZM172.832 413C172.579 413 172.372 412.927 172.212 412.78C172.052 412.62 171.972 412.413 171.972 412.16V402.92C171.972 402.653 172.052 402.447 172.212 402.3C172.372 402.14 172.579 402.06 172.832 402.06C173.085 402.06 173.285 402.14 173.432 402.3C173.592 402.447 173.672 402.653 173.672 402.92V412.16C173.672 412.413 173.592 412.62 173.432 412.78C173.285 412.927 173.085 413 172.832 413ZM189.726 413C189.033 413 188.413 412.833 187.866 412.5C187.319 412.167 186.886 411.707 186.566 411.12C186.259 410.533 186.106 409.873 186.106 409.14V399.44C186.106 399.187 186.179 398.98 186.326 398.82C186.486 398.66 186.693 398.58 186.946 398.58C187.186 398.58 187.386 398.66 187.546 398.82C187.706 398.98 187.786 399.187 187.786 399.44V409.14C187.786 409.767 187.966 410.287 188.326 410.7C188.699 411.1 189.166 411.3 189.726 411.3H190.306C190.533 411.3 190.719 411.38 190.866 411.54C191.013 411.7 191.086 411.907 191.086 412.16C191.086 412.413 190.993 412.62 190.806 412.78C190.633 412.927 190.406 413 190.126 413H189.726ZM184.926 403.92C184.699 403.92 184.513 403.853 184.366 403.72C184.219 403.587 184.146 403.413 184.146 403.2C184.146 402.987 184.219 402.813 184.366 402.68C184.513 402.533 184.699 402.46 184.926 402.46H189.866C190.093 402.46 190.279 402.533 190.426 402.68C190.573 402.813 190.646 402.987 190.646 403.2C190.646 403.413 190.573 403.587 190.426 403.72C190.279 403.853 190.093 403.92 189.866 403.92H184.926ZM204.352 413.1C203.299 413.1 202.359 412.86 201.532 412.38C200.706 411.887 200.052 411.22 199.572 410.38C199.106 409.54 198.872 408.593 198.872 407.54C198.872 406.473 199.099 405.52 199.552 404.68C200.019 403.84 200.646 403.18 201.432 402.7C202.232 402.207 203.152 401.96 204.192 401.96C204.992 401.96 205.732 402.12 206.412 402.44C207.092 402.747 207.692 403.213 208.212 403.84C208.372 404.027 208.426 404.22 208.372 404.42C208.332 404.607 208.212 404.773 208.012 404.92C207.852 405.04 207.672 405.08 207.472 405.04C207.272 405 207.099 404.893 206.952 404.72C206.219 403.907 205.299 403.5 204.192 403.5C203.472 403.5 202.832 403.673 202.272 404.02C201.726 404.367 201.299 404.84 200.992 405.44C200.686 406.04 200.532 406.74 200.532 407.54C200.532 408.313 200.692 409.007 201.012 409.62C201.332 410.22 201.779 410.693 202.352 411.04C202.939 411.387 203.606 411.56 204.352 411.56C204.859 411.56 205.312 411.493 205.712 411.36C206.126 411.227 206.492 411.027 206.812 410.76C206.986 410.613 207.166 410.533 207.352 410.52C207.552 410.493 207.732 410.547 207.892 410.68C208.066 410.84 208.166 411.02 208.192 411.22C208.219 411.42 208.152 411.6 207.992 411.76C207.019 412.653 205.806 413.1 204.352 413.1ZM216.385 413.1C215.305 413.1 214.345 412.86 213.505 412.38C212.679 411.9 212.025 411.24 211.545 410.4C211.065 409.56 210.825 408.607 210.825 407.54C210.825 406.46 211.065 405.5 211.545 404.66C212.025 403.82 212.679 403.16 213.505 402.68C214.345 402.2 215.305 401.96 216.385 401.96C217.452 401.96 218.399 402.2 219.225 402.68C220.052 403.16 220.705 403.82 221.185 404.66C221.665 405.5 221.912 406.46 221.925 407.54C221.925 408.607 221.685 409.56 221.205 410.4C220.725 411.24 220.065 411.9 219.225 412.38C218.399 412.86 217.452 413.1 216.385 413.1ZM216.385 411.56C217.132 411.56 217.799 411.387 218.385 411.04C218.972 410.693 219.425 410.22 219.745 409.62C220.079 409.007 220.245 408.313 220.245 407.54C220.245 406.767 220.079 406.073 219.745 405.46C219.425 404.847 218.972 404.367 218.385 404.02C217.799 403.673 217.132 403.5 216.385 403.5C215.639 403.5 214.972 403.673 214.385 404.02C213.799 404.367 213.332 404.847 212.985 405.46C212.652 406.073 212.485 406.767 212.485 407.54C212.485 408.313 212.652 409.007 212.985 409.62C213.332 410.22 213.799 410.693 214.385 411.04C214.972 411.387 215.639 411.56 216.385 411.56ZM229.621 413.12C228.688 413.12 227.848 412.927 227.101 412.54C226.368 412.14 225.788 411.56 225.361 410.8C224.934 410.04 224.721 409.107 224.721 408V402.9C224.721 402.66 224.801 402.46 224.961 402.3C225.121 402.14 225.321 402.06 225.561 402.06C225.814 402.06 226.021 402.14 226.181 402.3C226.341 402.46 226.421 402.66 226.421 402.9V408C226.421 408.8 226.568 409.46 226.861 409.98C227.168 410.5 227.581 410.887 228.101 411.14C228.621 411.393 229.208 411.52 229.861 411.52C230.488 411.52 231.048 411.4 231.541 411.16C232.048 410.92 232.448 410.587 232.741 410.16C233.034 409.733 233.181 409.253 233.181 408.72H234.341C234.314 409.56 234.094 410.313 233.681 410.98C233.268 411.633 232.708 412.153 232.001 412.54C231.294 412.927 230.501 413.12 229.621 413.12ZM234.041 413C233.788 413 233.581 412.92 233.421 412.76C233.261 412.6 233.181 412.393 233.181 412.14V402.9C233.181 402.647 233.261 402.447 233.421 402.3C233.581 402.14 233.788 402.06 234.041 402.06C234.294 402.06 234.501 402.14 234.661 402.3C234.821 402.447 234.901 402.647 234.901 402.9V412.14C234.901 412.393 234.821 412.6 234.661 412.76C234.501 412.92 234.294 413 234.041 413ZM247.835 413C247.582 413 247.375 412.92 247.215 412.76C247.055 412.6 246.975 412.4 246.975 412.16V407.06C246.975 406.247 246.822 405.587 246.515 405.08C246.209 404.56 245.795 404.173 245.275 403.92C244.769 403.667 244.182 403.54 243.515 403.54C242.902 403.54 242.342 403.66 241.835 403.9C241.329 404.14 240.929 404.473 240.635 404.9C240.342 405.313 240.195 405.793 240.195 406.34H239.055C239.069 405.5 239.282 404.753 239.695 404.1C240.122 403.433 240.689 402.907 241.395 402.52C242.102 402.133 242.889 401.94 243.755 401.94C244.702 401.94 245.542 402.14 246.275 402.54C247.022 402.927 247.609 403.5 248.035 404.26C248.462 405.02 248.675 405.953 248.675 407.06V412.16C248.675 412.4 248.595 412.6 248.435 412.76C248.275 412.92 248.075 413 247.835 413ZM239.355 413C239.102 413 238.895 412.927 238.735 412.78C238.575 412.62 238.495 412.413 238.495 412.16V402.92C238.495 402.653 238.575 402.447 238.735 402.3C238.895 402.14 239.102 402.06 239.355 402.06C239.609 402.06 239.809 402.14 239.955 402.3C240.115 402.447 240.195 402.653 240.195 402.92V412.16C240.195 412.413 240.115 412.62 239.955 412.78C239.809 412.927 239.609 413 239.355 413ZM256.25 413C255.556 413 254.936 412.833 254.39 412.5C253.843 412.167 253.41 411.707 253.09 411.12C252.783 410.533 252.63 409.873 252.63 409.14V399.44C252.63 399.187 252.703 398.98 252.85 398.82C253.01 398.66 253.216 398.58 253.47 398.58C253.71 398.58 253.91 398.66 254.07 398.82C254.23 398.98 254.31 399.187 254.31 399.44V409.14C254.31 409.767 254.49 410.287 254.85 410.7C255.223 411.1 255.69 411.3 256.25 411.3H256.83C257.056 411.3 257.243 411.38 257.39 411.54C257.536 411.7 257.61 411.907 257.61 412.16C257.61 412.413 257.516 412.62 257.33 412.78C257.156 412.927 256.93 413 256.65 413H256.25ZM251.45 403.92C251.223 403.92 251.036 403.853 250.89 403.72C250.743 403.587 250.67 403.413 250.67 403.2C250.67 402.987 250.743 402.813 250.89 402.68C251.036 402.533 251.223 402.46 251.45 402.46H256.39C256.616 402.46 256.803 402.533 256.95 402.68C257.096 402.813 257.17 402.987 257.17 403.2C257.17 403.413 257.096 403.587 256.95 403.72C256.803 403.853 256.616 403.92 256.39 403.92H251.45ZM260.876 406.22C260.903 405.407 261.11 404.68 261.496 404.04C261.896 403.387 262.416 402.873 263.056 402.5C263.696 402.127 264.41 401.94 265.196 401.94C265.876 401.94 266.39 402.04 266.736 402.24C267.096 402.44 267.23 402.713 267.136 403.06C267.096 403.26 267.01 403.4 266.876 403.48C266.756 403.547 266.61 403.58 266.436 403.58C266.276 403.58 266.09 403.573 265.876 403.56C265.103 403.453 264.41 403.5 263.796 403.7C263.183 403.887 262.696 404.2 262.336 404.64C261.976 405.08 261.796 405.607 261.796 406.22H260.876ZM260.956 413C260.69 413 260.483 412.927 260.336 412.78C260.19 412.633 260.116 412.427 260.116 412.16V402.9C260.116 402.633 260.19 402.427 260.336 402.28C260.483 402.133 260.69 402.06 260.956 402.06C261.223 402.06 261.43 402.133 261.576 402.28C261.723 402.427 261.796 402.633 261.796 402.9V412.16C261.796 412.427 261.723 412.633 261.576 412.78C261.43 412.927 261.223 413 260.956 413ZM270.592 413C270.339 413 270.132 412.92 269.972 412.76C269.812 412.6 269.732 412.393 269.732 412.14V402.92C269.732 402.653 269.812 402.447 269.972 402.3C270.132 402.14 270.339 402.06 270.592 402.06C270.846 402.06 271.046 402.14 271.192 402.3C271.352 402.447 271.432 402.653 271.432 402.92V412.14C271.432 412.393 271.352 412.6 271.192 412.76C271.046 412.92 270.846 413 270.592 413ZM270.572 400.08C270.252 400.08 269.979 399.967 269.752 399.74C269.526 399.513 269.412 399.233 269.412 398.9C269.412 398.567 269.526 398.293 269.752 398.08C269.992 397.853 270.272 397.74 270.592 397.74C270.899 397.74 271.166 397.853 271.392 398.08C271.632 398.293 271.752 398.567 271.752 398.9C271.752 399.233 271.632 399.513 271.392 399.74C271.166 399.967 270.892 400.08 270.572 400.08ZM280.332 413.1C279.238 413.1 278.272 412.867 277.432 412.4C276.592 411.92 275.932 411.26 275.452 410.42C274.972 409.58 274.732 408.62 274.732 407.54C274.732 406.447 274.958 405.487 275.412 404.66C275.865 403.82 276.485 403.16 277.272 402.68C278.072 402.2 278.992 401.96 280.032 401.96C281.058 401.96 281.945 402.193 282.692 402.66C283.438 403.113 284.012 403.747 284.412 404.56C284.825 405.373 285.032 406.3 285.032 407.34C285.032 407.567 284.958 407.753 284.812 407.9C284.665 408.033 284.478 408.1 284.252 408.1H275.892V406.72H284.332L283.492 407.32C283.492 406.587 283.352 405.927 283.072 405.34C282.792 404.753 282.392 404.293 281.872 403.96C281.365 403.627 280.752 403.46 280.032 403.46C279.272 403.46 278.612 403.64 278.052 404C277.492 404.347 277.058 404.827 276.752 405.44C276.445 406.053 276.292 406.753 276.292 407.54C276.292 408.327 276.465 409.027 276.812 409.64C277.158 410.24 277.632 410.72 278.232 411.08C278.845 411.427 279.545 411.6 280.332 411.6C280.785 411.6 281.245 411.52 281.712 411.36C282.192 411.2 282.572 411 282.852 410.76C283.012 410.627 283.192 410.56 283.392 410.56C283.605 410.547 283.785 410.6 283.932 410.72C284.118 410.893 284.212 411.087 284.212 411.3C284.225 411.5 284.145 411.673 283.972 411.82C283.518 412.193 282.952 412.5 282.272 412.74C281.605 412.98 280.958 413.1 280.332 413.1ZM291.516 413.1C290.676 413.1 289.863 412.967 289.076 412.7C288.303 412.42 287.683 412.027 287.216 411.52C287.056 411.347 286.989 411.147 287.016 410.92C287.043 410.693 287.149 410.5 287.336 410.34C287.549 410.18 287.763 410.12 287.976 410.16C288.203 410.187 288.396 410.28 288.556 410.44C288.836 410.773 289.236 411.047 289.756 411.26C290.276 411.46 290.849 411.56 291.476 411.56C292.396 411.56 293.069 411.407 293.496 411.1C293.923 410.78 294.143 410.393 294.156 409.94C294.169 409.487 293.956 409.107 293.516 408.8C293.089 408.493 292.356 408.253 291.316 408.08C289.969 407.853 288.983 407.473 288.356 406.94C287.743 406.407 287.436 405.767 287.436 405.02C287.436 404.34 287.623 403.773 287.996 403.32C288.369 402.867 288.856 402.527 289.456 402.3C290.069 402.073 290.729 401.96 291.436 401.96C292.329 401.96 293.103 402.113 293.756 402.42C294.409 402.713 294.936 403.113 295.336 403.62C295.496 403.807 295.563 404.007 295.536 404.22C295.509 404.42 295.403 404.587 295.216 404.72C295.029 404.827 294.816 404.86 294.576 404.82C294.349 404.78 294.156 404.673 293.996 404.5C293.663 404.14 293.283 403.88 292.856 403.72C292.429 403.56 291.943 403.48 291.396 403.48C290.716 403.48 290.156 403.613 289.716 403.88C289.289 404.147 289.076 404.493 289.076 404.92C289.076 405.213 289.149 405.467 289.296 405.68C289.456 405.893 289.736 406.087 290.136 406.26C290.536 406.42 291.096 406.567 291.816 406.7C292.816 406.873 293.603 407.113 294.176 407.42C294.763 407.727 295.183 408.093 295.436 408.52C295.689 408.933 295.816 409.393 295.816 409.9C295.816 410.513 295.636 411.06 295.276 411.54C294.929 412.02 294.429 412.4 293.776 412.68C293.136 412.96 292.383 413.1 291.516 413.1Z" fill="#F2EEE3"/>
</g>
<defs>
<linearGradient id="paint0_linear" x1="180" y1="0" x2="180" y2="520" gradientUnits="userSpaceOnUse">
<stop stop-color="#E3632D"/>
<stop offset="1" stop-color="#F94E3F"/>
</linearGradient>
<clipPath id="clip0">
<rect width="360" height="520" fill="white"/>
</clipPath>
</defs>
</svg>
