<svg width="auto" height="auto" viewBox="0 0 1280 520" fill="none" xmlns="http://www.w3.org/2000/svg">
<g clip-path="url(#clip0)">
<rect width="1280" height="520" fill="url(#paint0_linear)"/>
<path d="M445.464 414.98L445.46 414.979C285.302 377.07 137.007 399.809 -0.944336 461.322L-0.951172 461.325C-10.3591 465.436 -18.3853 473.696 -23.8809 483.062C-29.3815 492.436 -32.2633 502.774 -31.5444 510.943L-31.5435 510.953L-31.5427 510.964C-25.6427 598.944 45.1486 661.157 157.92 704.146L157.921 704.146C296.612 757.233 484.708 777.479 669.157 767.57C853.611 757.661 1034.27 717.603 1158.1 650.205L1158.11 650.202C1209.28 622.816 1250.35 592.108 1277.15 555.472C1303.72 519.137 1316.29 476.928 1310.69 426.219C1288.56 431.716 1267.57 436.807 1247.42 441.696C1203.1 452.449 1162.81 462.223 1123.21 473.182C959.646 521.328 797.565 517.946 635.508 468.96C621.74 464.863 607.975 460.685 594.182 456.499C545.453 441.708 496.364 426.808 445.464 414.98Z" fill="#F2EEE3" stroke="#F2EEE3" stroke-width="2"/>
<path d="M834.883 103.971L834.887 103.972C995.045 141.881 1143.34 119.142 1281.29 57.6286L1281.3 57.6256C1290.71 53.5145 1298.73 45.2546 1304.23 35.8888C1309.73 26.5145 1312.61 16.1762 1311.89 8.0079L1311.89 7.99752L1311.89 7.98715C1305.99 -79.9932 1235.2 -142.206 1122.43 -185.195L1122.43 -185.196C983.734 -238.282 795.638 -258.528 611.189 -248.619C426.735 -238.71 246.078 -198.653 122.244 -131.255L122.238 -131.251C71.0629 -103.866 29.9951 -73.157 3.20102 -36.5216C-23.3734 -0.1866 -35.9409 42.0223 -30.3428 92.7317C-8.20872 87.2347 12.7761 82.1436 32.9266 77.2548C77.2499 66.5016 117.536 56.7277 157.137 45.7683C320.701 -2.3774 482.781 1.00489 644.838 49.9904C658.607 54.0873 672.371 58.2652 686.164 62.4518C734.893 77.2422 783.982 92.1422 834.883 103.971Z" fill="#F2EEE3" stroke="#F2EEE3" stroke-width="2"/>
<path d="M197.523 238.418C199.328 238.418 200.954 238.84 202.4 239.686C203.861 240.516 204.993 241.698 205.795 243.23C206.611 244.763 207.02 246.532 207.02 248.537C207.02 252.046 205.96 254.739 203.84 256.615C201.734 258.492 198.54 259.43 194.258 259.43C190.591 259.43 187.598 258.864 185.277 257.732V250.771C186.523 251.344 187.927 251.817 189.488 252.189C191.064 252.562 192.417 252.748 193.549 252.748C195.124 252.748 196.335 252.419 197.18 251.76C198.025 251.087 198.447 250.098 198.447 248.795C198.447 247.592 198.018 246.654 197.158 245.98C196.299 245.307 194.995 244.971 193.248 244.971C191.916 244.971 190.477 245.221 188.93 245.723L185.814 244.176L186.996 227.59H204.914V234.658H194.215L193.828 238.805C194.945 238.59 195.74 238.475 196.213 238.461C196.686 238.432 197.122 238.418 197.523 238.418ZM233.273 243.338C233.273 248.895 232.342 252.97 230.48 255.562C228.618 258.141 225.768 259.43 221.93 259.43C218.177 259.43 215.348 258.083 213.443 255.391C211.538 252.684 210.586 248.666 210.586 243.338C210.586 237.752 211.517 233.656 213.379 231.049C215.241 228.442 218.091 227.139 221.93 227.139C225.668 227.139 228.49 228.499 230.395 231.221C232.314 233.928 233.273 237.967 233.273 243.338ZM219.029 243.338C219.029 246.89 219.251 249.332 219.695 250.664C220.139 251.996 220.884 252.662 221.93 252.662C222.99 252.662 223.734 251.975 224.164 250.6C224.608 249.225 224.83 246.804 224.83 243.338C224.83 239.857 224.608 237.423 224.164 236.033C223.72 234.63 222.975 233.928 221.93 233.928C220.884 233.928 220.139 234.601 219.695 235.947C219.251 237.294 219.029 239.757 219.029 243.338ZM244.359 246.367H236.367V240.609H244.359V232.725H250.139V240.609H258.131V246.367H250.139V254.123H244.359V246.367Z" fill="#F2EEE3"/>
<path d="M129.03 294C128.79 294 128.583 293.92 128.41 293.76C128.25 293.587 128.17 293.38 128.17 293.14V279.24C128.17 278.987 128.25 278.78 128.41 278.62C128.583 278.46 128.79 278.38 129.03 278.38H133.03C134.03 278.38 134.91 278.6 135.67 279.04C136.43 279.467 137.023 280.067 137.45 280.84C137.89 281.6 138.11 282.487 138.11 283.5C138.11 284.473 137.89 285.34 137.45 286.1C137.023 286.847 136.43 287.44 135.67 287.88C134.91 288.307 134.03 288.52 133.03 288.52H129.91V293.14C129.91 293.38 129.823 293.587 129.65 293.76C129.49 293.92 129.283 294 129.03 294ZM129.91 286.88H133.03C133.697 286.88 134.283 286.733 134.79 286.44C135.297 286.147 135.697 285.747 135.99 285.24C136.283 284.733 136.43 284.153 136.43 283.5C136.43 282.807 136.283 282.207 135.99 281.7C135.697 281.18 135.297 280.773 134.79 280.48C134.283 280.173 133.697 280.02 133.03 280.02H129.91V286.88ZM141.054 287.22C141.081 286.407 141.287 285.68 141.674 285.04C142.074 284.387 142.594 283.873 143.234 283.5C143.874 283.127 144.587 282.94 145.374 282.94C146.054 282.94 146.567 283.04 146.914 283.24C147.274 283.44 147.407 283.713 147.314 284.06C147.274 284.26 147.187 284.4 147.054 284.48C146.934 284.547 146.787 284.58 146.614 284.58C146.454 284.58 146.267 284.573 146.054 284.56C145.281 284.453 144.587 284.5 143.974 284.7C143.361 284.887 142.874 285.2 142.514 285.64C142.154 286.08 141.974 286.607 141.974 287.22H141.054ZM141.134 294C140.867 294 140.661 293.927 140.514 293.78C140.367 293.633 140.294 293.427 140.294 293.16V283.9C140.294 283.633 140.367 283.427 140.514 283.28C140.661 283.133 140.867 283.06 141.134 283.06C141.401 283.06 141.607 283.133 141.754 283.28C141.901 283.427 141.974 283.633 141.974 283.9V293.16C141.974 293.427 141.901 293.633 141.754 293.78C141.607 293.927 141.401 294 141.134 294ZM153.809 294.1C152.729 294.1 151.769 293.86 150.929 293.38C150.103 292.9 149.449 292.24 148.969 291.4C148.489 290.56 148.249 289.607 148.249 288.54C148.249 287.46 148.489 286.5 148.969 285.66C149.449 284.82 150.103 284.16 150.929 283.68C151.769 283.2 152.729 282.96 153.809 282.96C154.876 282.96 155.823 283.2 156.649 283.68C157.476 284.16 158.129 284.82 158.609 285.66C159.089 286.5 159.336 287.46 159.349 288.54C159.349 289.607 159.109 290.56 158.629 291.4C158.149 292.24 157.489 292.9 156.649 293.38C155.823 293.86 154.876 294.1 153.809 294.1ZM153.809 292.56C154.556 292.56 155.223 292.387 155.809 292.04C156.396 291.693 156.849 291.22 157.169 290.62C157.503 290.007 157.669 289.313 157.669 288.54C157.669 287.767 157.503 287.073 157.169 286.46C156.849 285.847 156.396 285.367 155.809 285.02C155.223 284.673 154.556 284.5 153.809 284.5C153.063 284.5 152.396 284.673 151.809 285.02C151.223 285.367 150.756 285.847 150.409 286.46C150.076 287.073 149.909 287.767 149.909 288.54C149.909 289.313 150.076 290.007 150.409 290.62C150.756 291.22 151.223 291.693 151.809 292.04C152.396 292.387 153.063 292.56 153.809 292.56ZM163.639 298.78C163.533 298.78 163.399 298.747 163.239 298.68C162.746 298.453 162.613 298.1 162.839 297.62L169.179 283.54C169.393 283.06 169.746 282.927 170.239 283.14C170.733 283.34 170.873 283.687 170.659 284.18L164.299 298.26C164.153 298.607 163.933 298.78 163.639 298.78ZM165.919 293.62C165.693 293.727 165.486 293.747 165.299 293.68C165.113 293.6 164.959 293.453 164.839 293.24L160.339 284.18C160.233 283.967 160.219 283.767 160.299 283.58C160.379 283.38 160.526 283.227 160.739 283.12C160.966 283.027 161.173 283.013 161.359 283.08C161.546 283.147 161.693 283.293 161.799 283.52L166.179 292.58C166.299 292.793 166.339 293 166.299 293.2C166.259 293.387 166.133 293.527 165.919 293.62ZM177.267 294.1C176.174 294.1 175.207 293.867 174.367 293.4C173.527 292.92 172.867 292.26 172.387 291.42C171.907 290.58 171.667 289.62 171.667 288.54C171.667 287.447 171.894 286.487 172.347 285.66C172.801 284.82 173.421 284.16 174.207 283.68C175.007 283.2 175.927 282.96 176.967 282.96C177.994 282.96 178.881 283.193 179.627 283.66C180.374 284.113 180.947 284.747 181.347 285.56C181.761 286.373 181.967 287.3 181.967 288.34C181.967 288.567 181.894 288.753 181.747 288.9C181.601 289.033 181.414 289.1 181.187 289.1H172.827V287.72H181.267L180.427 288.32C180.427 287.587 180.287 286.927 180.007 286.34C179.727 285.753 179.327 285.293 178.807 284.96C178.301 284.627 177.687 284.46 176.967 284.46C176.207 284.46 175.547 284.64 174.987 285C174.427 285.347 173.994 285.827 173.687 286.44C173.381 287.053 173.227 287.753 173.227 288.54C173.227 289.327 173.401 290.027 173.747 290.64C174.094 291.24 174.567 291.72 175.167 292.08C175.781 292.427 176.481 292.6 177.267 292.6C177.721 292.6 178.181 292.52 178.647 292.36C179.127 292.2 179.507 292 179.787 291.76C179.947 291.627 180.127 291.56 180.327 291.56C180.541 291.547 180.721 291.6 180.867 291.72C181.054 291.893 181.147 292.087 181.147 292.3C181.161 292.5 181.081 292.673 180.907 292.82C180.454 293.193 179.887 293.5 179.207 293.74C178.541 293.98 177.894 294.1 177.267 294.1ZM189.081 294.1C188.028 294.1 187.088 293.86 186.261 293.38C185.434 292.887 184.781 292.22 184.301 291.38C183.834 290.54 183.601 289.593 183.601 288.54C183.601 287.473 183.828 286.52 184.281 285.68C184.748 284.84 185.374 284.18 186.161 283.7C186.961 283.207 187.881 282.96 188.921 282.96C189.721 282.96 190.461 283.12 191.141 283.44C191.821 283.747 192.421 284.213 192.941 284.84C193.101 285.027 193.154 285.22 193.101 285.42C193.061 285.607 192.941 285.773 192.741 285.92C192.581 286.04 192.401 286.08 192.201 286.04C192.001 286 191.828 285.893 191.681 285.72C190.948 284.907 190.028 284.5 188.921 284.5C188.201 284.5 187.561 284.673 187.001 285.02C186.454 285.367 186.028 285.84 185.721 286.44C185.414 287.04 185.261 287.74 185.261 288.54C185.261 289.313 185.421 290.007 185.741 290.62C186.061 291.22 186.508 291.693 187.081 292.04C187.668 292.387 188.334 292.56 189.081 292.56C189.588 292.56 190.041 292.493 190.441 292.36C190.854 292.227 191.221 292.027 191.541 291.76C191.714 291.613 191.894 291.533 192.081 291.52C192.281 291.493 192.461 291.547 192.621 291.68C192.794 291.84 192.894 292.02 192.921 292.22C192.948 292.42 192.881 292.6 192.721 292.76C191.748 293.653 190.534 294.1 189.081 294.1ZM200.314 294C199.621 294 199.001 293.833 198.454 293.5C197.907 293.167 197.474 292.707 197.154 292.12C196.847 291.533 196.694 290.873 196.694 290.14V280.44C196.694 280.187 196.767 279.98 196.914 279.82C197.074 279.66 197.281 279.58 197.534 279.58C197.774 279.58 197.974 279.66 198.134 279.82C198.294 279.98 198.374 280.187 198.374 280.44V290.14C198.374 290.767 198.554 291.287 198.914 291.7C199.287 292.1 199.754 292.3 200.314 292.3H200.894C201.121 292.3 201.307 292.38 201.454 292.54C201.601 292.7 201.674 292.907 201.674 293.16C201.674 293.413 201.581 293.62 201.394 293.78C201.221 293.927 200.994 294 200.714 294H200.314ZM195.514 284.92C195.287 284.92 195.101 284.853 194.954 284.72C194.807 284.587 194.734 284.413 194.734 284.2C194.734 283.987 194.807 283.813 194.954 283.68C195.101 283.533 195.287 283.46 195.514 283.46H200.454C200.681 283.46 200.867 283.533 201.014 283.68C201.161 283.813 201.234 283.987 201.234 284.2C201.234 284.413 201.161 284.587 201.014 284.72C200.867 284.853 200.681 284.92 200.454 284.92H195.514ZM209.161 294.1C208.081 294.1 207.121 293.86 206.281 293.38C205.454 292.9 204.801 292.24 204.321 291.4C203.841 290.56 203.601 289.607 203.601 288.54C203.601 287.46 203.841 286.5 204.321 285.66C204.801 284.82 205.454 284.16 206.281 283.68C207.121 283.2 208.081 282.96 209.161 282.96C210.228 282.96 211.174 283.2 212.001 283.68C212.828 284.16 213.481 284.82 213.961 285.66C214.441 286.5 214.688 287.46 214.701 288.54C214.701 289.607 214.461 290.56 213.981 291.4C213.501 292.24 212.841 292.9 212.001 293.38C211.174 293.86 210.228 294.1 209.161 294.1ZM209.161 292.56C209.908 292.56 210.574 292.387 211.161 292.04C211.748 291.693 212.201 291.22 212.521 290.62C212.854 290.007 213.021 289.313 213.021 288.54C213.021 287.767 212.854 287.073 212.521 286.46C212.201 285.847 211.748 285.367 211.161 285.02C210.574 284.673 209.908 284.5 209.161 284.5C208.414 284.5 207.748 284.673 207.161 285.02C206.574 285.367 206.108 285.847 205.761 286.46C205.428 287.073 205.261 287.767 205.261 288.54C205.261 289.313 205.428 290.007 205.761 290.62C206.108 291.22 206.574 291.693 207.161 292.04C207.748 292.387 208.414 292.56 209.161 292.56ZM221.576 294.1C220.736 294.1 219.923 293.967 219.136 293.7C218.363 293.42 217.743 293.027 217.276 292.52C217.116 292.347 217.05 292.147 217.076 291.92C217.103 291.693 217.21 291.5 217.396 291.34C217.61 291.18 217.823 291.12 218.036 291.16C218.263 291.187 218.456 291.28 218.616 291.44C218.896 291.773 219.296 292.047 219.816 292.26C220.336 292.46 220.91 292.56 221.536 292.56C222.456 292.56 223.13 292.407 223.556 292.1C223.983 291.78 224.203 291.393 224.216 290.94C224.23 290.487 224.016 290.107 223.576 289.8C223.15 289.493 222.416 289.253 221.376 289.08C220.03 288.853 219.043 288.473 218.416 287.94C217.803 287.407 217.496 286.767 217.496 286.02C217.496 285.34 217.683 284.773 218.056 284.32C218.43 283.867 218.916 283.527 219.516 283.3C220.13 283.073 220.79 282.96 221.496 282.96C222.39 282.96 223.163 283.113 223.816 283.42C224.47 283.713 224.996 284.113 225.396 284.62C225.556 284.807 225.623 285.007 225.596 285.22C225.57 285.42 225.463 285.587 225.276 285.72C225.09 285.827 224.876 285.86 224.636 285.82C224.41 285.78 224.216 285.673 224.056 285.5C223.723 285.14 223.343 284.88 222.916 284.72C222.49 284.56 222.003 284.48 221.456 284.48C220.776 284.48 220.216 284.613 219.776 284.88C219.35 285.147 219.136 285.493 219.136 285.92C219.136 286.213 219.21 286.467 219.356 286.68C219.516 286.893 219.796 287.087 220.196 287.26C220.596 287.42 221.156 287.567 221.876 287.7C222.876 287.873 223.663 288.113 224.236 288.42C224.823 288.727 225.243 289.093 225.496 289.52C225.75 289.933 225.876 290.393 225.876 290.9C225.876 291.513 225.696 292.06 225.336 292.54C224.99 293.02 224.49 293.4 223.836 293.68C223.196 293.96 222.443 294.1 221.576 294.1ZM239.377 294.1C238.283 294.1 237.317 293.867 236.477 293.4C235.637 292.92 234.977 292.26 234.497 291.42C234.017 290.58 233.777 289.62 233.777 288.54C233.777 287.447 234.003 286.487 234.457 285.66C234.91 284.82 235.53 284.16 236.317 283.68C237.117 283.2 238.037 282.96 239.077 282.96C240.103 282.96 240.99 283.193 241.737 283.66C242.483 284.113 243.057 284.747 243.457 285.56C243.87 286.373 244.077 287.3 244.077 288.34C244.077 288.567 244.003 288.753 243.857 288.9C243.71 289.033 243.523 289.1 243.297 289.1H234.937V287.72H243.377L242.537 288.32C242.537 287.587 242.397 286.927 242.117 286.34C241.837 285.753 241.437 285.293 240.917 284.96C240.41 284.627 239.797 284.46 239.077 284.46C238.317 284.46 237.657 284.64 237.097 285C236.537 285.347 236.103 285.827 235.797 286.44C235.49 287.053 235.337 287.753 235.337 288.54C235.337 289.327 235.51 290.027 235.857 290.64C236.203 291.24 236.677 291.72 237.277 292.08C237.89 292.427 238.59 292.6 239.377 292.6C239.83 292.6 240.29 292.52 240.757 292.36C241.237 292.2 241.617 292 241.897 291.76C242.057 291.627 242.237 291.56 242.437 291.56C242.65 291.547 242.83 291.6 242.977 291.72C243.163 291.893 243.257 292.087 243.257 292.3C243.27 292.5 243.19 292.673 243.017 292.82C242.563 293.193 241.997 293.5 241.317 293.74C240.65 293.98 240.003 294.1 239.377 294.1ZM253.735 294C253.575 294 253.442 293.98 253.335 293.94C253.229 293.887 253.122 293.793 253.015 293.66L249.555 289.32L248.915 288.74L245.435 284.42C245.275 284.233 245.195 284.04 245.195 283.84C245.195 283.627 245.255 283.447 245.375 283.3C245.509 283.14 245.702 283.06 245.955 283.06C246.209 283.06 246.422 283.153 246.595 283.34L249.975 287.56L250.515 288.02L254.235 292.68C254.422 292.907 254.502 293.12 254.475 293.32C254.462 293.52 254.382 293.687 254.235 293.82C254.089 293.94 253.922 294 253.735 294ZM245.895 294C245.669 294 245.489 293.927 245.355 293.78C245.222 293.633 245.149 293.46 245.135 293.26C245.135 293.06 245.215 292.86 245.375 292.66L248.955 288.18L249.895 289.44L246.495 293.74C246.349 293.913 246.149 294 245.895 294ZM250.675 288.82L249.555 287.76L252.935 283.42C253.029 283.287 253.135 283.193 253.255 283.14C253.375 283.087 253.495 283.06 253.615 283.06C253.869 283.06 254.055 283.14 254.175 283.3C254.309 283.447 254.369 283.627 254.355 283.84C254.355 284.053 254.282 284.26 254.135 284.46L250.675 288.82ZM258.231 294C257.978 294 257.771 293.92 257.611 293.76C257.451 293.6 257.371 293.393 257.371 293.14V283.92C257.371 283.653 257.451 283.447 257.611 283.3C257.771 283.14 257.978 283.06 258.231 283.06C258.484 283.06 258.684 283.14 258.831 283.3C258.991 283.447 259.071 283.653 259.071 283.92V293.14C259.071 293.393 258.991 293.6 258.831 293.76C258.684 293.92 258.484 294 258.231 294ZM258.211 281.08C257.891 281.08 257.618 280.967 257.391 280.74C257.164 280.513 257.051 280.233 257.051 279.9C257.051 279.567 257.164 279.293 257.391 279.08C257.631 278.853 257.911 278.74 258.231 278.74C258.538 278.74 258.804 278.853 259.031 279.08C259.271 279.293 259.391 279.567 259.391 279.9C259.391 280.233 259.271 280.513 259.031 280.74C258.804 280.967 258.531 281.08 258.211 281.08ZM267.13 294C266.437 294 265.817 293.833 265.27 293.5C264.724 293.167 264.29 292.707 263.97 292.12C263.664 291.533 263.51 290.873 263.51 290.14V280.44C263.51 280.187 263.584 279.98 263.73 279.82C263.89 279.66 264.097 279.58 264.35 279.58C264.59 279.58 264.79 279.66 264.95 279.82C265.11 279.98 265.19 280.187 265.19 280.44V290.14C265.19 290.767 265.37 291.287 265.73 291.7C266.104 292.1 266.57 292.3 267.13 292.3H267.71C267.937 292.3 268.124 292.38 268.27 292.54C268.417 292.7 268.49 292.907 268.49 293.16C268.49 293.413 268.397 293.62 268.21 293.78C268.037 293.927 267.81 294 267.53 294H267.13ZM262.33 284.92C262.104 284.92 261.917 284.853 261.77 284.72C261.624 284.587 261.55 284.413 261.55 284.2C261.55 283.987 261.624 283.813 261.77 283.68C261.917 283.533 262.104 283.46 262.33 283.46H267.27C267.497 283.46 267.684 283.533 267.83 283.68C267.977 283.813 268.05 283.987 268.05 284.2C268.05 284.413 267.977 284.587 267.83 284.72C267.684 284.853 267.497 284.92 267.27 284.92H262.33ZM275.977 294.1C274.897 294.1 273.937 293.86 273.097 293.38C272.271 292.9 271.617 292.24 271.137 291.4C270.657 290.56 270.417 289.607 270.417 288.54C270.417 287.46 270.657 286.5 271.137 285.66C271.617 284.82 272.271 284.16 273.097 283.68C273.937 283.2 274.897 282.96 275.977 282.96C277.044 282.96 277.991 283.2 278.817 283.68C279.644 284.16 280.297 284.82 280.777 285.66C281.257 286.5 281.504 287.46 281.517 288.54C281.517 289.607 281.277 290.56 280.797 291.4C280.317 292.24 279.657 292.9 278.817 293.38C277.991 293.86 277.044 294.1 275.977 294.1ZM275.977 292.56C276.724 292.56 277.391 292.387 277.977 292.04C278.564 291.693 279.017 291.22 279.337 290.62C279.671 290.007 279.837 289.313 279.837 288.54C279.837 287.767 279.671 287.073 279.337 286.46C279.017 285.847 278.564 285.367 277.977 285.02C277.391 284.673 276.724 284.5 275.977 284.5C275.231 284.5 274.564 284.673 273.977 285.02C273.391 285.367 272.924 285.847 272.577 286.46C272.244 287.073 272.077 287.767 272.077 288.54C272.077 289.313 272.244 290.007 272.577 290.62C272.924 291.22 273.391 291.693 273.977 292.04C274.564 292.387 275.231 292.56 275.977 292.56ZM288.393 294.1C287.553 294.1 286.74 293.967 285.953 293.7C285.18 293.42 284.56 293.027 284.093 292.52C283.933 292.347 283.866 292.147 283.893 291.92C283.92 291.693 284.026 291.5 284.213 291.34C284.426 291.18 284.64 291.12 284.853 291.16C285.08 291.187 285.273 291.28 285.433 291.44C285.713 291.773 286.113 292.047 286.633 292.26C287.153 292.46 287.726 292.56 288.353 292.56C289.273 292.56 289.946 292.407 290.373 292.1C290.8 291.78 291.02 291.393 291.033 290.94C291.046 290.487 290.833 290.107 290.393 289.8C289.966 289.493 289.233 289.253 288.193 289.08C286.846 288.853 285.86 288.473 285.233 287.94C284.62 287.407 284.313 286.767 284.313 286.02C284.313 285.34 284.5 284.773 284.873 284.32C285.246 283.867 285.733 283.527 286.333 283.3C286.946 283.073 287.606 282.96 288.313 282.96C289.206 282.96 289.98 283.113 290.633 283.42C291.286 283.713 291.813 284.113 292.213 284.62C292.373 284.807 292.44 285.007 292.413 285.22C292.386 285.42 292.28 285.587 292.093 285.72C291.906 285.827 291.693 285.86 291.453 285.82C291.226 285.78 291.033 285.673 290.873 285.5C290.54 285.14 290.16 284.88 289.733 284.72C289.306 284.56 288.82 284.48 288.273 284.48C287.593 284.48 287.033 284.613 286.593 284.88C286.166 285.147 285.953 285.493 285.953 285.92C285.953 286.213 286.026 286.467 286.173 286.68C286.333 286.893 286.613 287.087 287.013 287.26C287.413 287.42 287.973 287.567 288.693 287.7C289.693 287.873 290.48 288.113 291.053 288.42C291.64 288.727 292.06 289.093 292.313 289.52C292.566 289.933 292.693 290.393 292.693 290.9C292.693 291.513 292.513 292.06 292.153 292.54C291.806 293.02 291.306 293.4 290.653 293.68C290.013 293.96 289.26 294.1 288.393 294.1ZM300.294 294.1C299.214 294.1 298.254 293.86 297.414 293.38C296.587 292.9 295.934 292.24 295.454 291.4C294.974 290.56 294.734 289.607 294.734 288.54C294.734 287.46 294.974 286.5 295.454 285.66C295.934 284.82 296.587 284.16 297.414 283.68C298.254 283.2 299.214 282.96 300.294 282.96C301.36 282.96 302.307 283.2 303.134 283.68C303.96 284.16 304.614 284.82 305.094 285.66C305.574 286.5 305.82 287.46 305.834 288.54C305.834 289.607 305.594 290.56 305.114 291.4C304.634 292.24 303.974 292.9 303.134 293.38C302.307 293.86 301.36 294.1 300.294 294.1ZM300.294 292.56C301.04 292.56 301.707 292.387 302.294 292.04C302.88 291.693 303.334 291.22 303.654 290.62C303.987 290.007 304.154 289.313 304.154 288.54C304.154 287.767 303.987 287.073 303.654 286.46C303.334 285.847 302.88 285.367 302.294 285.02C301.707 284.673 301.04 284.5 300.294 284.5C299.547 284.5 298.88 284.673 298.294 285.02C297.707 285.367 297.24 285.847 296.894 286.46C296.56 287.073 296.394 287.767 296.394 288.54C296.394 289.313 296.56 290.007 296.894 290.62C297.24 291.22 297.707 291.693 298.294 292.04C298.88 292.387 299.547 292.56 300.294 292.56ZM312.709 294.1C311.869 294.1 311.056 293.967 310.269 293.7C309.496 293.42 308.876 293.027 308.409 292.52C308.249 292.347 308.183 292.147 308.209 291.92C308.236 291.693 308.343 291.5 308.529 291.34C308.743 291.18 308.956 291.12 309.169 291.16C309.396 291.187 309.589 291.28 309.749 291.44C310.029 291.773 310.429 292.047 310.949 292.26C311.469 292.46 312.043 292.56 312.669 292.56C313.589 292.56 314.263 292.407 314.689 292.1C315.116 291.78 315.336 291.393 315.349 290.94C315.363 290.487 315.149 290.107 314.709 289.8C314.283 289.493 313.549 289.253 312.509 289.08C311.163 288.853 310.176 288.473 309.549 287.94C308.936 287.407 308.629 286.767 308.629 286.02C308.629 285.34 308.816 284.773 309.189 284.32C309.563 283.867 310.049 283.527 310.649 283.3C311.263 283.073 311.923 282.96 312.629 282.96C313.523 282.96 314.296 283.113 314.949 283.42C315.603 283.713 316.129 284.113 316.529 284.62C316.689 284.807 316.756 285.007 316.729 285.22C316.703 285.42 316.596 285.587 316.409 285.72C316.223 285.827 316.009 285.86 315.769 285.82C315.543 285.78 315.349 285.673 315.189 285.5C314.856 285.14 314.476 284.88 314.049 284.72C313.623 284.56 313.136 284.48 312.589 284.48C311.909 284.48 311.349 284.613 310.909 284.88C310.483 285.147 310.269 285.493 310.269 285.92C310.269 286.213 310.343 286.467 310.489 286.68C310.649 286.893 310.929 287.087 311.329 287.26C311.729 287.42 312.289 287.567 313.009 287.7C314.009 287.873 314.796 288.113 315.369 288.42C315.956 288.727 316.376 289.093 316.629 289.52C316.883 289.933 317.009 290.393 317.009 290.9C317.009 291.513 316.829 292.06 316.469 292.54C316.123 293.02 315.623 293.4 314.969 293.68C314.329 293.96 313.576 294.1 312.709 294.1Z" fill="#F2EEE3"/>
<path d="M614.473 259H591.678V253.414L599.348 245.658C601.539 243.367 602.971 241.805 603.645 240.975C604.318 240.13 604.783 239.406 605.041 238.805C605.313 238.203 605.449 237.573 605.449 236.914C605.449 236.098 605.184 235.453 604.654 234.98C604.124 234.508 603.38 234.271 602.42 234.271C601.432 234.271 600.429 234.558 599.412 235.131C598.41 235.689 597.271 236.52 595.996 237.623L591.334 232.166C592.952 230.719 594.313 229.688 595.416 229.072C596.519 228.442 597.715 227.962 599.004 227.633C600.307 227.303 601.768 227.139 603.387 227.139C605.421 227.139 607.232 227.497 608.822 228.213C610.426 228.929 611.665 229.953 612.539 231.285C613.427 232.603 613.871 234.085 613.871 235.732C613.871 236.964 613.714 238.103 613.398 239.148C613.098 240.194 612.625 241.225 611.98 242.242C611.336 243.245 610.477 244.305 609.402 245.422C608.342 246.539 606.072 248.659 602.592 251.781V251.996H614.473V259ZM641.264 252.92H637.805V259H629.426V252.92H616.9V246.689L629.963 227.59H637.805V246.582H641.264V252.92ZM629.426 246.582V242.93C629.426 242.242 629.447 241.318 629.49 240.158C629.548 238.984 629.59 238.368 629.619 238.311H629.383C628.896 239.413 628.344 240.445 627.729 241.404L624.248 246.582H629.426ZM654.906 227.139C658.215 227.139 660.786 227.805 662.619 229.137C664.467 230.469 665.391 232.359 665.391 234.809C665.391 236.47 664.954 237.931 664.08 239.191C663.221 240.438 661.853 241.526 659.977 242.457C662.297 243.775 663.93 245.092 664.875 246.41C665.835 247.714 666.314 249.124 666.314 250.643C666.314 253.436 665.305 255.598 663.285 257.131C661.266 258.663 658.444 259.43 654.82 259.43C651.125 259.43 648.296 258.685 646.334 257.195C644.372 255.691 643.391 253.536 643.391 250.729C643.391 248.91 643.827 247.363 644.701 246.088C645.575 244.799 647.043 243.632 649.105 242.586C647.444 241.469 646.227 240.273 645.453 238.998C644.694 237.709 644.314 236.298 644.314 234.766C644.314 232.359 645.253 230.49 647.129 229.158C649.005 227.812 651.598 227.139 654.906 227.139ZM651.168 250.385C651.168 251.273 651.483 251.989 652.113 252.533C652.743 253.063 653.617 253.328 654.734 253.328C657.255 253.328 658.516 252.404 658.516 250.557C658.516 249.855 658.236 249.167 657.678 248.494C657.133 247.807 656.152 247.04 654.734 246.195C653.46 246.868 652.543 247.549 651.984 248.236C651.44 248.91 651.168 249.626 651.168 250.385ZM654.863 233.262C654.133 233.262 653.517 233.477 653.016 233.906C652.514 234.322 652.264 234.866 652.264 235.539C652.264 236.771 653.102 237.859 654.777 238.805C655.794 238.217 656.489 237.68 656.861 237.193C657.234 236.706 657.42 236.155 657.42 235.539C657.42 234.852 657.169 234.3 656.668 233.885C656.167 233.469 655.565 233.262 654.863 233.262ZM677.25 246.367H669.258V240.609H677.25V232.725H683.029V240.609H691.021V246.367H683.029V254.123H677.25V246.367Z" fill="#F2EEE3"/>
<path d="M576.867 297C576.627 297 576.42 296.92 576.247 296.76C576.087 296.587 576.007 296.38 576.007 296.14V281.38H577.747V296.14C577.747 296.38 577.66 296.587 577.487 296.76C577.327 296.92 577.12 297 576.867 297ZM571.407 282.96C571.167 282.96 570.973 282.887 570.827 282.74C570.68 282.593 570.607 282.407 570.607 282.18C570.607 281.94 570.68 281.747 570.827 281.6C570.973 281.453 571.167 281.38 571.407 281.38H582.347C582.587 281.38 582.78 281.453 582.927 281.6C583.073 281.747 583.147 281.94 583.147 282.18C583.147 282.407 583.073 282.593 582.927 282.74C582.78 282.887 582.587 282.96 582.347 282.96H571.407ZM586.983 297.1C585.97 297.1 585.063 296.86 584.263 296.38C583.463 295.887 582.83 295.22 582.363 294.38C581.897 293.54 581.663 292.593 581.663 291.54C581.663 290.473 581.903 289.52 582.383 288.68C582.877 287.84 583.543 287.18 584.383 286.7C585.223 286.207 586.17 285.96 587.223 285.96C588.263 285.96 589.197 286.207 590.023 286.7C590.863 287.18 591.523 287.84 592.003 288.68C592.497 289.52 592.75 290.473 592.763 291.54L592.083 291.86C592.083 292.847 591.857 293.74 591.403 294.54C590.963 295.327 590.357 295.953 589.583 296.42C588.823 296.873 587.957 297.1 586.983 297.1ZM587.223 295.56C587.957 295.56 588.617 295.387 589.203 295.04C589.79 294.693 590.25 294.213 590.583 293.6C590.917 292.987 591.083 292.3 591.083 291.54C591.083 290.767 590.917 290.08 590.583 289.48C590.25 288.867 589.79 288.387 589.203 288.04C588.617 287.68 587.957 287.5 587.223 287.5C586.49 287.5 585.83 287.68 585.243 288.04C584.657 288.387 584.19 288.867 583.843 289.48C583.497 290.08 583.323 290.767 583.323 291.54C583.323 292.3 583.497 292.987 583.843 293.6C584.19 294.213 584.657 294.693 585.243 295.04C585.83 295.387 586.49 295.56 587.223 295.56ZM591.903 297C591.65 297 591.443 296.927 591.283 296.78C591.123 296.62 591.043 296.413 591.043 296.16V292.86L591.423 291.1L592.763 291.54V296.16C592.763 296.413 592.677 296.62 592.503 296.78C592.343 296.927 592.143 297 591.903 297ZM596.699 296.52L595.419 295.68L602.639 286.38L603.779 287.36L596.699 296.52ZM596.039 297C595.519 297 595.259 296.74 595.259 296.22C595.259 295.7 595.519 295.44 596.039 295.44H603.259C603.779 295.44 604.039 295.7 604.039 296.22C604.039 296.74 603.779 297 603.259 297H596.039ZM595.919 287.62C595.399 287.62 595.139 287.36 595.139 286.84C595.139 286.32 595.399 286.06 595.919 286.06H603.139C603.659 286.06 603.919 286.32 603.919 286.84C603.919 287.36 603.659 287.62 603.139 287.62H595.919ZM611.026 297.1C610.013 297.1 609.106 296.86 608.306 296.38C607.506 295.887 606.873 295.22 606.406 294.38C605.94 293.54 605.706 292.593 605.706 291.54C605.706 290.473 605.946 289.52 606.426 288.68C606.92 287.84 607.586 287.18 608.426 286.7C609.266 286.207 610.213 285.96 611.266 285.96C612.306 285.96 613.24 286.207 614.066 286.7C614.906 287.18 615.566 287.84 616.046 288.68C616.54 289.52 616.793 290.473 616.806 291.54L616.126 291.86C616.126 292.847 615.9 293.74 615.446 294.54C615.006 295.327 614.4 295.953 613.626 296.42C612.866 296.873 612 297.1 611.026 297.1ZM611.266 295.56C612 295.56 612.66 295.387 613.246 295.04C613.833 294.693 614.293 294.213 614.626 293.6C614.96 292.987 615.126 292.3 615.126 291.54C615.126 290.767 614.96 290.08 614.626 289.48C614.293 288.867 613.833 288.387 613.246 288.04C612.66 287.68 612 287.5 611.266 287.5C610.533 287.5 609.873 287.68 609.286 288.04C608.7 288.387 608.233 288.867 607.886 289.48C607.54 290.08 607.366 290.767 607.366 291.54C607.366 292.3 607.54 292.987 607.886 293.6C608.233 294.213 608.7 294.693 609.286 295.04C609.873 295.387 610.533 295.56 611.266 295.56ZM615.946 297C615.693 297 615.486 296.927 615.326 296.78C615.166 296.62 615.086 296.413 615.086 296.16V292.86L615.466 291.1L616.806 291.54V296.16C616.806 296.413 616.72 296.62 616.546 296.78C616.386 296.927 616.186 297 615.946 297ZM623.682 297.1C622.842 297.1 622.029 296.967 621.242 296.7C620.469 296.42 619.849 296.027 619.382 295.52C619.222 295.347 619.155 295.147 619.182 294.92C619.209 294.693 619.315 294.5 619.502 294.34C619.715 294.18 619.929 294.12 620.142 294.16C620.369 294.187 620.562 294.28 620.722 294.44C621.002 294.773 621.402 295.047 621.922 295.26C622.442 295.46 623.015 295.56 623.642 295.56C624.562 295.56 625.235 295.407 625.662 295.1C626.089 294.78 626.309 294.393 626.322 293.94C626.335 293.487 626.122 293.107 625.682 292.8C625.255 292.493 624.522 292.253 623.482 292.08C622.135 291.853 621.149 291.473 620.522 290.94C619.909 290.407 619.602 289.767 619.602 289.02C619.602 288.34 619.789 287.773 620.162 287.32C620.535 286.867 621.022 286.527 621.622 286.3C622.235 286.073 622.895 285.96 623.602 285.96C624.495 285.96 625.269 286.113 625.922 286.42C626.575 286.713 627.102 287.113 627.502 287.62C627.662 287.807 627.729 288.007 627.702 288.22C627.675 288.42 627.569 288.587 627.382 288.72C627.195 288.827 626.982 288.86 626.742 288.82C626.515 288.78 626.322 288.673 626.162 288.5C625.829 288.14 625.449 287.88 625.022 287.72C624.595 287.56 624.109 287.48 623.562 287.48C622.882 287.48 622.322 287.613 621.882 287.88C621.455 288.147 621.242 288.493 621.242 288.92C621.242 289.213 621.315 289.467 621.462 289.68C621.622 289.893 621.902 290.087 622.302 290.26C622.702 290.42 623.262 290.567 623.982 290.7C624.982 290.873 625.769 291.113 626.342 291.42C626.929 291.727 627.349 292.093 627.602 292.52C627.855 292.933 627.982 293.393 627.982 293.9C627.982 294.513 627.802 295.06 627.442 295.54C627.095 296.02 626.595 296.4 625.942 296.68C625.302 296.96 624.549 297.1 623.682 297.1ZM641.442 297.1C640.389 297.1 639.442 296.86 638.602 296.38C637.762 295.887 637.095 295.22 636.602 294.38C636.122 293.54 635.882 292.587 635.882 291.52C635.882 290.467 636.115 289.52 636.582 288.68C637.049 287.84 637.682 287.18 638.482 286.7C639.282 286.207 640.189 285.96 641.202 285.96C642.055 285.96 642.829 286.147 643.522 286.52C644.229 286.88 644.809 287.36 645.262 287.96V282.24C645.262 281.973 645.342 281.767 645.502 281.62C645.662 281.46 645.869 281.38 646.122 281.38C646.375 281.38 646.582 281.46 646.742 281.62C646.902 281.767 646.982 281.973 646.982 282.24V291.58C646.955 292.62 646.695 293.56 646.202 294.4C645.722 295.227 645.069 295.887 644.242 296.38C643.415 296.86 642.482 297.1 641.442 297.1ZM641.442 295.56C642.175 295.56 642.835 295.387 643.422 295.04C644.009 294.68 644.469 294.2 644.802 293.6C645.135 292.987 645.302 292.293 645.302 291.52C645.302 290.76 645.135 290.073 644.802 289.46C644.469 288.847 644.009 288.367 643.422 288.02C642.835 287.673 642.175 287.5 641.442 287.5C640.709 287.5 640.049 287.673 639.462 288.02C638.875 288.367 638.409 288.847 638.062 289.46C637.715 290.073 637.542 290.76 637.542 291.52C637.542 292.293 637.715 292.987 638.062 293.6C638.409 294.2 638.875 294.68 639.462 295.04C640.049 295.387 640.709 295.56 641.442 295.56ZM655.603 297.1C654.51 297.1 653.543 296.867 652.703 296.4C651.863 295.92 651.203 295.26 650.723 294.42C650.243 293.58 650.003 292.62 650.003 291.54C650.003 290.447 650.23 289.487 650.683 288.66C651.137 287.82 651.757 287.16 652.543 286.68C653.343 286.2 654.263 285.96 655.303 285.96C656.33 285.96 657.217 286.193 657.963 286.66C658.71 287.113 659.283 287.747 659.683 288.56C660.097 289.373 660.303 290.3 660.303 291.34C660.303 291.567 660.23 291.753 660.083 291.9C659.937 292.033 659.75 292.1 659.523 292.1H651.163V290.72H659.603L658.763 291.32C658.763 290.587 658.623 289.927 658.343 289.34C658.063 288.753 657.663 288.293 657.143 287.96C656.637 287.627 656.023 287.46 655.303 287.46C654.543 287.46 653.883 287.64 653.323 288C652.763 288.347 652.33 288.827 652.023 289.44C651.717 290.053 651.563 290.753 651.563 291.54C651.563 292.327 651.737 293.027 652.083 293.64C652.43 294.24 652.903 294.72 653.503 295.08C654.117 295.427 654.817 295.6 655.603 295.6C656.057 295.6 656.517 295.52 656.983 295.36C657.463 295.2 657.843 295 658.123 294.76C658.283 294.627 658.463 294.56 658.663 294.56C658.877 294.547 659.057 294.6 659.203 294.72C659.39 294.893 659.483 295.087 659.483 295.3C659.497 295.5 659.417 295.673 659.243 295.82C658.79 296.193 658.223 296.5 657.543 296.74C656.877 296.98 656.23 297.1 655.603 297.1ZM673.667 297.1C672.613 297.1 671.673 296.86 670.847 296.38C670.02 295.887 669.367 295.22 668.887 294.38C668.42 293.54 668.187 292.593 668.187 291.54C668.187 290.473 668.413 289.52 668.867 288.68C669.333 287.84 669.96 287.18 670.747 286.7C671.547 286.207 672.467 285.96 673.507 285.96C674.307 285.96 675.047 286.12 675.727 286.44C676.407 286.747 677.007 287.213 677.527 287.84C677.687 288.027 677.74 288.22 677.687 288.42C677.647 288.607 677.527 288.773 677.327 288.92C677.167 289.04 676.987 289.08 676.787 289.04C676.587 289 676.413 288.893 676.267 288.72C675.533 287.907 674.613 287.5 673.507 287.5C672.787 287.5 672.147 287.673 671.587 288.02C671.04 288.367 670.613 288.84 670.307 289.44C670 290.04 669.847 290.74 669.847 291.54C669.847 292.313 670.007 293.007 670.327 293.62C670.647 294.22 671.093 294.693 671.667 295.04C672.253 295.387 672.92 295.56 673.667 295.56C674.173 295.56 674.627 295.493 675.027 295.36C675.44 295.227 675.807 295.027 676.127 294.76C676.3 294.613 676.48 294.533 676.667 294.52C676.867 294.493 677.047 294.547 677.207 294.68C677.38 294.84 677.48 295.02 677.507 295.22C677.533 295.42 677.467 295.6 677.307 295.76C676.333 296.653 675.12 297.1 673.667 297.1ZM685.46 297.1C684.447 297.1 683.54 296.86 682.74 296.38C681.94 295.887 681.307 295.22 680.84 294.38C680.373 293.54 680.14 292.593 680.14 291.54C680.14 290.473 680.38 289.52 680.86 288.68C681.353 287.84 682.02 287.18 682.86 286.7C683.7 286.207 684.647 285.96 685.7 285.96C686.74 285.96 687.673 286.207 688.5 286.7C689.34 287.18 690 287.84 690.48 288.68C690.973 289.52 691.227 290.473 691.24 291.54L690.56 291.86C690.56 292.847 690.333 293.74 689.88 294.54C689.44 295.327 688.833 295.953 688.06 296.42C687.3 296.873 686.433 297.1 685.46 297.1ZM685.7 295.56C686.433 295.56 687.093 295.387 687.68 295.04C688.267 294.693 688.727 294.213 689.06 293.6C689.393 292.987 689.56 292.3 689.56 291.54C689.56 290.767 689.393 290.08 689.06 289.48C688.727 288.867 688.267 288.387 687.68 288.04C687.093 287.68 686.433 287.5 685.7 287.5C684.967 287.5 684.307 287.68 683.72 288.04C683.133 288.387 682.667 288.867 682.32 289.48C681.973 290.08 681.8 290.767 681.8 291.54C681.8 292.3 681.973 292.987 682.32 293.6C682.667 294.213 683.133 294.693 683.72 295.04C684.307 295.387 684.967 295.56 685.7 295.56ZM690.38 297C690.127 297 689.92 296.927 689.76 296.78C689.6 296.62 689.52 296.413 689.52 296.16V292.86L689.9 291.1L691.24 291.54V296.16C691.24 296.413 691.153 296.62 690.98 296.78C690.82 296.927 690.62 297 690.38 297ZM695.536 297C695.322 297 695.129 296.927 694.956 296.78C694.796 296.62 694.716 296.407 694.716 296.14V286.1C694.716 285.153 694.882 284.327 695.216 283.62C695.562 282.913 696.056 282.367 696.696 281.98C697.349 281.58 698.122 281.38 699.016 281.38C699.269 281.38 699.476 281.453 699.636 281.6C699.796 281.747 699.876 281.933 699.876 282.16C699.876 282.373 699.796 282.553 699.636 282.7C699.476 282.847 699.269 282.92 699.016 282.92C698.456 282.92 697.982 283.053 697.596 283.32C697.209 283.573 696.916 283.933 696.716 284.4C696.516 284.853 696.416 285.38 696.416 285.98V296.14C696.416 296.407 696.336 296.62 696.176 296.78C696.029 296.927 695.816 297 695.536 297ZM693.576 287.92C693.336 287.92 693.142 287.853 692.996 287.72C692.862 287.587 692.796 287.413 692.796 287.2C692.796 286.987 692.862 286.813 692.996 286.68C693.142 286.533 693.336 286.46 693.576 286.46H698.696C698.936 286.46 699.122 286.533 699.256 286.68C699.402 286.813 699.476 286.987 699.476 287.2C699.476 287.413 699.402 287.587 699.256 287.72C699.122 287.853 698.936 287.92 698.696 287.92H693.576ZM706.189 297.1C705.096 297.1 704.129 296.867 703.289 296.4C702.449 295.92 701.789 295.26 701.309 294.42C700.829 293.58 700.589 292.62 700.589 291.54C700.589 290.447 700.816 289.487 701.269 288.66C701.722 287.82 702.342 287.16 703.129 286.68C703.929 286.2 704.849 285.96 705.889 285.96C706.916 285.96 707.802 286.193 708.549 286.66C709.296 287.113 709.869 287.747 710.269 288.56C710.682 289.373 710.889 290.3 710.889 291.34C710.889 291.567 710.816 291.753 710.669 291.9C710.522 292.033 710.336 292.1 710.109 292.1H701.749V290.72H710.189L709.349 291.32C709.349 290.587 709.209 289.927 708.929 289.34C708.649 288.753 708.249 288.293 707.729 287.96C707.222 287.627 706.609 287.46 705.889 287.46C705.129 287.46 704.469 287.64 703.909 288C703.349 288.347 702.916 288.827 702.609 289.44C702.302 290.053 702.149 290.753 702.149 291.54C702.149 292.327 702.322 293.027 702.669 293.64C703.016 294.24 703.489 294.72 704.089 295.08C704.702 295.427 705.402 295.6 706.189 295.6C706.642 295.6 707.102 295.52 707.569 295.36C708.049 295.2 708.429 295 708.709 294.76C708.869 294.627 709.049 294.56 709.249 294.56C709.462 294.547 709.642 294.6 709.789 294.72C709.976 294.893 710.069 295.087 710.069 295.3C710.082 295.5 710.002 295.673 709.829 295.82C709.376 296.193 708.809 296.5 708.129 296.74C707.462 296.98 706.816 297.1 706.189 297.1ZM705.689 284.38C705.449 284.38 705.242 284.3 705.069 284.14C704.909 283.967 704.829 283.76 704.829 283.52C704.829 283.28 704.896 283.087 705.029 282.94L707.189 280.78C707.349 280.62 707.549 280.54 707.789 280.54C708.042 280.54 708.249 280.627 708.409 280.8C708.569 280.96 708.649 281.167 708.649 281.42C708.649 281.527 708.629 281.633 708.589 281.74C708.549 281.833 708.489 281.92 708.409 282L706.269 284.16C706.109 284.307 705.916 284.38 705.689 284.38Z" fill="#F2EEE3"/>
<path d="M1047.41 238.418C1049.22 238.418 1050.84 238.84 1052.29 239.686C1053.75 240.516 1054.88 241.698 1055.69 243.23C1056.5 244.763 1056.91 246.532 1056.91 248.537C1056.91 252.046 1055.85 254.739 1053.73 256.615C1051.62 258.492 1048.43 259.43 1044.15 259.43C1040.48 259.43 1037.49 258.864 1035.17 257.732V250.771C1036.41 251.344 1037.82 251.817 1039.38 252.189C1040.95 252.562 1042.31 252.748 1043.44 252.748C1045.01 252.748 1046.23 252.419 1047.07 251.76C1047.92 251.087 1048.34 250.098 1048.34 248.795C1048.34 247.592 1047.91 246.654 1047.05 245.98C1046.19 245.307 1044.89 244.971 1043.14 244.971C1041.81 244.971 1040.37 245.221 1038.82 245.723L1035.71 244.176L1036.89 227.59H1054.8V234.658H1044.11L1043.72 238.805C1044.84 238.59 1045.63 238.475 1046.1 238.461C1046.58 238.432 1047.01 238.418 1047.41 238.418ZM1068.47 246.367H1060.48V240.609H1068.47V232.725H1074.25V240.609H1082.24V246.367H1074.25V254.123H1068.47V246.367Z" fill="#F2EEE3"/>
<path d="M972.114 297C971.874 297 971.667 296.92 971.494 296.76C971.334 296.587 971.254 296.38 971.254 296.14V282.24C971.254 281.987 971.334 281.78 971.494 281.62C971.667 281.46 971.874 281.38 972.114 281.38H975.734C976.881 281.38 977.927 281.573 978.874 281.96C979.821 282.333 980.641 282.873 981.334 283.58C982.027 284.273 982.561 285.093 982.934 286.04C983.321 286.987 983.514 288.033 983.514 289.18C983.514 290.327 983.321 291.38 982.934 292.34C982.561 293.287 982.027 294.113 981.334 294.82C980.641 295.513 979.821 296.053 978.874 296.44C977.927 296.813 976.881 297 975.734 297H972.114ZM972.994 295.46H975.734C976.921 295.46 977.967 295.193 978.874 294.66C979.794 294.113 980.514 293.367 981.034 292.42C981.554 291.473 981.814 290.393 981.814 289.18C981.814 287.967 981.554 286.887 981.034 285.94C980.514 284.993 979.794 284.253 978.874 283.72C977.967 283.187 976.921 282.92 975.734 282.92H972.994V295.46ZM987.682 297C987.429 297 987.222 296.92 987.062 296.76C986.902 296.6 986.822 296.393 986.822 296.14V286.92C986.822 286.653 986.902 286.447 987.062 286.3C987.222 286.14 987.429 286.06 987.682 286.06C987.936 286.06 988.136 286.14 988.282 286.3C988.442 286.447 988.522 286.653 988.522 286.92V296.14C988.522 296.393 988.442 296.6 988.282 296.76C988.136 296.92 987.936 297 987.682 297ZM987.662 284.08C987.342 284.08 987.069 283.967 986.842 283.74C986.616 283.513 986.502 283.233 986.502 282.9C986.502 282.567 986.616 282.293 986.842 282.08C987.082 281.853 987.362 281.74 987.682 281.74C987.989 281.74 988.256 281.853 988.482 282.08C988.722 282.293 988.842 282.567 988.842 282.9C988.842 283.233 988.722 283.513 988.482 283.74C988.256 283.967 987.982 284.08 987.662 284.08ZM993.702 297C993.488 297 993.295 296.927 993.122 296.78C992.962 296.62 992.882 296.407 992.882 296.14V286.1C992.882 285.153 993.048 284.327 993.382 283.62C993.728 282.913 994.222 282.367 994.862 281.98C995.515 281.58 996.288 281.38 997.182 281.38C997.435 281.38 997.642 281.453 997.802 281.6C997.962 281.747 998.042 281.933 998.042 282.16C998.042 282.373 997.962 282.553 997.802 282.7C997.642 282.847 997.435 282.92 997.182 282.92C996.622 282.92 996.148 283.053 995.762 283.32C995.375 283.573 995.082 283.933 994.882 284.4C994.682 284.853 994.582 285.38 994.582 285.98V296.14C994.582 296.407 994.502 296.62 994.342 296.78C994.195 296.927 993.982 297 993.702 297ZM991.742 287.92C991.502 287.92 991.308 287.853 991.162 287.72C991.028 287.587 990.962 287.413 990.962 287.2C990.962 286.987 991.028 286.813 991.162 286.68C991.308 286.533 991.502 286.46 991.742 286.46H996.862C997.102 286.46 997.288 286.533 997.422 286.68C997.568 286.813 997.642 286.987 997.642 287.2C997.642 287.413 997.568 287.587 997.422 287.72C997.288 287.853 997.102 287.92 996.862 287.92H991.742ZM1004.36 297.1C1003.26 297.1 1002.3 296.867 1001.46 296.4C1000.62 295.92 999.955 295.26 999.475 294.42C998.995 293.58 998.755 292.62 998.755 291.54C998.755 290.447 998.982 289.487 999.435 288.66C999.888 287.82 1000.51 287.16 1001.3 286.68C1002.1 286.2 1003.02 285.96 1004.06 285.96C1005.08 285.96 1005.97 286.193 1006.72 286.66C1007.46 287.113 1008.04 287.747 1008.44 288.56C1008.85 289.373 1009.06 290.3 1009.06 291.34C1009.06 291.567 1008.98 291.753 1008.84 291.9C1008.69 292.033 1008.5 292.1 1008.28 292.1H999.915V290.72H1008.36L1007.52 291.32C1007.52 290.587 1007.38 289.927 1007.1 289.34C1006.82 288.753 1006.42 288.293 1005.9 287.96C1005.39 287.627 1004.78 287.46 1004.06 287.46C1003.3 287.46 1002.64 287.64 1002.08 288C1001.52 288.347 1001.08 288.827 1000.78 289.44C1000.47 290.053 1000.32 290.753 1000.32 291.54C1000.32 292.327 1000.49 293.027 1000.84 293.64C1001.18 294.24 1001.66 294.72 1002.26 295.08C1002.87 295.427 1003.57 295.6 1004.36 295.6C1004.81 295.6 1005.27 295.52 1005.74 295.36C1006.22 295.2 1006.6 295 1006.88 294.76C1007.04 294.627 1007.22 294.56 1007.42 294.56C1007.63 294.547 1007.81 294.6 1007.96 294.72C1008.14 294.893 1008.24 295.087 1008.24 295.3C1008.25 295.5 1008.17 295.673 1008 295.82C1007.54 296.193 1006.98 296.5 1006.3 296.74C1005.63 296.98 1004.98 297.1 1004.36 297.1ZM1012.42 290.22C1012.45 289.407 1012.65 288.68 1013.04 288.04C1013.44 287.387 1013.96 286.873 1014.6 286.5C1015.24 286.127 1015.95 285.94 1016.74 285.94C1017.42 285.94 1017.93 286.04 1018.28 286.24C1018.64 286.44 1018.77 286.713 1018.68 287.06C1018.64 287.26 1018.55 287.4 1018.42 287.48C1018.3 287.547 1018.15 287.58 1017.98 287.58C1017.82 287.58 1017.63 287.573 1017.42 287.56C1016.65 287.453 1015.95 287.5 1015.34 287.7C1014.73 287.887 1014.24 288.2 1013.88 288.64C1013.52 289.08 1013.34 289.607 1013.34 290.22H1012.42ZM1012.5 297C1012.23 297 1012.03 296.927 1011.88 296.78C1011.73 296.633 1011.66 296.427 1011.66 296.16V286.9C1011.66 286.633 1011.73 286.427 1011.88 286.28C1012.03 286.133 1012.23 286.06 1012.5 286.06C1012.77 286.06 1012.97 286.133 1013.12 286.28C1013.27 286.427 1013.34 286.633 1013.34 286.9V296.16C1013.34 296.427 1013.27 296.633 1013.12 296.78C1012.97 296.927 1012.77 297 1012.5 297ZM1025.21 297.1C1024.12 297.1 1023.15 296.867 1022.31 296.4C1021.47 295.92 1020.81 295.26 1020.33 294.42C1019.85 293.58 1019.61 292.62 1019.61 291.54C1019.61 290.447 1019.84 289.487 1020.29 288.66C1020.75 287.82 1021.37 287.16 1022.15 286.68C1022.95 286.2 1023.87 285.96 1024.91 285.96C1025.94 285.96 1026.83 286.193 1027.57 286.66C1028.32 287.113 1028.89 287.747 1029.29 288.56C1029.71 289.373 1029.91 290.3 1029.91 291.34C1029.91 291.567 1029.84 291.753 1029.69 291.9C1029.55 292.033 1029.36 292.1 1029.13 292.1H1020.77V290.72H1029.21L1028.37 291.32C1028.37 290.587 1028.23 289.927 1027.95 289.34C1027.67 288.753 1027.27 288.293 1026.75 287.96C1026.25 287.627 1025.63 287.46 1024.91 287.46C1024.15 287.46 1023.49 287.64 1022.93 288C1022.37 288.347 1021.94 288.827 1021.63 289.44C1021.33 290.053 1021.17 290.753 1021.17 291.54C1021.17 292.327 1021.35 293.027 1021.69 293.64C1022.04 294.24 1022.51 294.72 1023.11 295.08C1023.73 295.427 1024.43 295.6 1025.21 295.6C1025.67 295.6 1026.13 295.52 1026.59 295.36C1027.07 295.2 1027.45 295 1027.73 294.76C1027.89 294.627 1028.07 294.56 1028.27 294.56C1028.49 294.547 1028.67 294.6 1028.81 294.72C1029 294.893 1029.09 295.087 1029.09 295.3C1029.11 295.5 1029.03 295.673 1028.85 295.82C1028.4 296.193 1027.83 296.5 1027.15 296.74C1026.49 296.98 1025.84 297.1 1025.21 297.1ZM1041.86 297C1041.61 297 1041.4 296.92 1041.24 296.76C1041.08 296.6 1041 296.4 1041 296.16V291.06C1041 290.247 1040.85 289.587 1040.54 289.08C1040.23 288.56 1039.82 288.173 1039.3 287.92C1038.79 287.667 1038.21 287.54 1037.54 287.54C1036.93 287.54 1036.37 287.66 1035.86 287.9C1035.35 288.14 1034.95 288.473 1034.66 288.9C1034.37 289.313 1034.22 289.793 1034.22 290.34H1033.08C1033.09 289.5 1033.31 288.753 1033.72 288.1C1034.15 287.433 1034.71 286.907 1035.42 286.52C1036.13 286.133 1036.91 285.94 1037.78 285.94C1038.73 285.94 1039.57 286.14 1040.3 286.54C1041.05 286.927 1041.63 287.5 1042.06 288.26C1042.49 289.02 1042.7 289.953 1042.7 291.06V296.16C1042.7 296.4 1042.62 296.6 1042.46 296.76C1042.3 296.92 1042.1 297 1041.86 297ZM1033.38 297C1033.13 297 1032.92 296.927 1032.76 296.78C1032.6 296.62 1032.52 296.413 1032.52 296.16V286.92C1032.52 286.653 1032.6 286.447 1032.76 286.3C1032.92 286.14 1033.13 286.06 1033.38 286.06C1033.63 286.06 1033.83 286.14 1033.98 286.3C1034.14 286.447 1034.22 286.653 1034.22 286.92V296.16C1034.22 296.413 1034.14 296.62 1033.98 296.78C1033.83 296.927 1033.63 297 1033.38 297ZM1050.27 297C1049.58 297 1048.96 296.833 1048.41 296.5C1047.87 296.167 1047.43 295.707 1047.11 295.12C1046.81 294.533 1046.65 293.873 1046.65 293.14V283.44C1046.65 283.187 1046.73 282.98 1046.87 282.82C1047.03 282.66 1047.24 282.58 1047.49 282.58C1047.73 282.58 1047.93 282.66 1048.09 282.82C1048.25 282.98 1048.33 283.187 1048.33 283.44V293.14C1048.33 293.767 1048.51 294.287 1048.87 294.7C1049.25 295.1 1049.71 295.3 1050.27 295.3H1050.85C1051.08 295.3 1051.27 295.38 1051.41 295.54C1051.56 295.7 1051.63 295.907 1051.63 296.16C1051.63 296.413 1051.54 296.62 1051.35 296.78C1051.18 296.927 1050.95 297 1050.67 297H1050.27ZM1045.47 287.92C1045.25 287.92 1045.06 287.853 1044.91 287.72C1044.77 287.587 1044.69 287.413 1044.69 287.2C1044.69 286.987 1044.77 286.813 1044.91 286.68C1045.06 286.533 1045.25 286.46 1045.47 286.46H1050.41C1050.64 286.46 1050.83 286.533 1050.97 286.68C1051.12 286.813 1051.19 286.987 1051.19 287.2C1051.19 287.413 1051.12 287.587 1050.97 287.72C1050.83 287.853 1050.64 287.92 1050.41 287.92H1045.47ZM1059.16 297.1C1058.07 297.1 1057.1 296.867 1056.26 296.4C1055.42 295.92 1054.76 295.26 1054.28 294.42C1053.8 293.58 1053.56 292.62 1053.56 291.54C1053.56 290.447 1053.79 289.487 1054.24 288.66C1054.69 287.82 1055.31 287.16 1056.1 286.68C1056.9 286.2 1057.82 285.96 1058.86 285.96C1059.89 285.96 1060.77 286.193 1061.52 286.66C1062.27 287.113 1062.84 287.747 1063.24 288.56C1063.65 289.373 1063.86 290.3 1063.86 291.34C1063.86 291.567 1063.79 291.753 1063.64 291.9C1063.49 292.033 1063.31 292.1 1063.08 292.1H1054.72V290.72H1063.16L1062.32 291.32C1062.32 290.587 1062.18 289.927 1061.9 289.34C1061.62 288.753 1061.22 288.293 1060.7 287.96C1060.19 287.627 1059.58 287.46 1058.86 287.46C1058.1 287.46 1057.44 287.64 1056.88 288C1056.32 288.347 1055.89 288.827 1055.58 289.44C1055.27 290.053 1055.12 290.753 1055.12 291.54C1055.12 292.327 1055.29 293.027 1055.64 293.64C1055.99 294.24 1056.46 294.72 1057.06 295.08C1057.67 295.427 1058.37 295.6 1059.16 295.6C1059.61 295.6 1060.07 295.52 1060.54 295.36C1061.02 295.2 1061.4 295 1061.68 294.76C1061.84 294.627 1062.02 294.56 1062.22 294.56C1062.43 294.547 1062.61 294.6 1062.76 294.72C1062.95 294.893 1063.04 295.087 1063.04 295.3C1063.05 295.5 1062.97 295.673 1062.8 295.82C1062.35 296.193 1061.78 296.5 1061.1 296.74C1060.43 296.98 1059.79 297.1 1059.16 297.1ZM1070.34 297.1C1069.5 297.1 1068.69 296.967 1067.9 296.7C1067.13 296.42 1066.51 296.027 1066.04 295.52C1065.88 295.347 1065.82 295.147 1065.84 294.92C1065.87 294.693 1065.98 294.5 1066.16 294.34C1066.38 294.18 1066.59 294.12 1066.8 294.16C1067.03 294.187 1067.22 294.28 1067.38 294.44C1067.66 294.773 1068.06 295.047 1068.58 295.26C1069.1 295.46 1069.68 295.56 1070.3 295.56C1071.22 295.56 1071.9 295.407 1072.32 295.1C1072.75 294.78 1072.97 294.393 1072.98 293.94C1073 293.487 1072.78 293.107 1072.34 292.8C1071.92 292.493 1071.18 292.253 1070.14 292.08C1068.8 291.853 1067.81 291.473 1067.18 290.94C1066.57 290.407 1066.26 289.767 1066.26 289.02C1066.26 288.34 1066.45 287.773 1066.82 287.32C1067.2 286.867 1067.68 286.527 1068.28 286.3C1068.9 286.073 1069.56 285.96 1070.26 285.96C1071.16 285.96 1071.93 286.113 1072.58 286.42C1073.24 286.713 1073.76 287.113 1074.16 287.62C1074.32 287.807 1074.39 288.007 1074.36 288.22C1074.34 288.42 1074.23 288.587 1074.04 288.72C1073.86 288.827 1073.64 288.86 1073.4 288.82C1073.18 288.78 1072.98 288.673 1072.82 288.5C1072.49 288.14 1072.11 287.88 1071.68 287.72C1071.26 287.56 1070.77 287.48 1070.22 287.48C1069.54 287.48 1068.98 287.613 1068.54 287.88C1068.12 288.147 1067.9 288.493 1067.9 288.92C1067.9 289.213 1067.98 289.467 1068.12 289.68C1068.28 289.893 1068.56 290.087 1068.96 290.26C1069.36 290.42 1069.92 290.567 1070.64 290.7C1071.64 290.873 1072.43 291.113 1073 291.42C1073.59 291.727 1074.01 292.093 1074.26 292.52C1074.52 292.933 1074.64 293.393 1074.64 293.9C1074.64 294.513 1074.46 295.06 1074.1 295.54C1073.76 296.02 1073.26 296.4 1072.6 296.68C1071.96 296.96 1071.21 297.1 1070.34 297.1ZM1083.98 301.68C1083.73 301.68 1083.52 301.6 1083.36 301.44C1083.2 301.28 1083.12 301.073 1083.12 300.82V291.48C1083.14 290.44 1083.38 289.507 1083.86 288.68C1084.36 287.84 1085.02 287.18 1085.84 286.7C1086.67 286.207 1087.6 285.96 1088.64 285.96C1089.71 285.96 1090.66 286.207 1091.48 286.7C1092.32 287.18 1092.98 287.84 1093.46 288.68C1093.96 289.52 1094.2 290.473 1094.2 291.54C1094.2 292.593 1093.97 293.54 1093.5 294.38C1093.05 295.22 1092.42 295.887 1091.62 296.38C1090.82 296.86 1089.92 297.1 1088.9 297.1C1088.05 297.1 1087.27 296.92 1086.56 296.56C1085.86 296.187 1085.28 295.7 1084.82 295.1V300.82C1084.82 301.073 1084.74 301.28 1084.58 301.44C1084.44 301.6 1084.24 301.68 1083.98 301.68ZM1088.64 295.56C1089.39 295.56 1090.06 295.387 1090.64 295.04C1091.23 294.693 1091.69 294.213 1092.02 293.6C1092.37 292.987 1092.54 292.3 1092.54 291.54C1092.54 290.767 1092.37 290.08 1092.02 289.48C1091.69 288.867 1091.23 288.387 1090.64 288.04C1090.06 287.68 1089.39 287.5 1088.64 287.5C1087.92 287.5 1087.26 287.68 1086.66 288.04C1086.08 288.387 1085.62 288.867 1085.28 289.48C1084.95 290.08 1084.78 290.767 1084.78 291.54C1084.78 292.3 1084.95 292.987 1085.28 293.6C1085.62 294.213 1086.08 294.693 1086.66 295.04C1087.26 295.387 1087.92 295.56 1088.64 295.56ZM1101.99 297.1C1100.97 297.1 1100.07 296.86 1099.27 296.38C1098.47 295.887 1097.83 295.22 1097.37 294.38C1096.9 293.54 1096.67 292.593 1096.67 291.54C1096.67 290.473 1096.91 289.52 1097.39 288.68C1097.88 287.84 1098.55 287.18 1099.39 286.7C1100.23 286.207 1101.17 285.96 1102.23 285.96C1103.27 285.96 1104.2 286.207 1105.03 286.7C1105.87 287.18 1106.53 287.84 1107.01 288.68C1107.5 289.52 1107.75 290.473 1107.77 291.54L1107.09 291.86C1107.09 292.847 1106.86 293.74 1106.41 294.54C1105.97 295.327 1105.36 295.953 1104.59 296.42C1103.83 296.873 1102.96 297.1 1101.99 297.1ZM1102.23 295.56C1102.96 295.56 1103.62 295.387 1104.21 295.04C1104.79 294.693 1105.25 294.213 1105.59 293.6C1105.92 292.987 1106.09 292.3 1106.09 291.54C1106.09 290.767 1105.92 290.08 1105.59 289.48C1105.25 288.867 1104.79 288.387 1104.21 288.04C1103.62 287.68 1102.96 287.5 1102.23 287.5C1101.49 287.5 1100.83 287.68 1100.25 288.04C1099.66 288.387 1099.19 288.867 1098.85 289.48C1098.5 290.08 1098.33 290.767 1098.33 291.54C1098.33 292.3 1098.5 292.987 1098.85 293.6C1099.19 294.213 1099.66 294.693 1100.25 295.04C1100.83 295.387 1101.49 295.56 1102.23 295.56ZM1106.91 297C1106.65 297 1106.45 296.927 1106.29 296.78C1106.13 296.62 1106.05 296.413 1106.05 296.16V292.86L1106.43 291.1L1107.77 291.54V296.16C1107.77 296.413 1107.68 296.62 1107.51 296.78C1107.35 296.927 1107.15 297 1106.91 297ZM1111.9 297C1111.65 297 1111.44 296.92 1111.28 296.76C1111.12 296.6 1111.04 296.393 1111.04 296.14V286.92C1111.04 286.653 1111.12 286.447 1111.28 286.3C1111.44 286.14 1111.65 286.06 1111.9 286.06C1112.15 286.06 1112.35 286.14 1112.5 286.3C1112.66 286.447 1112.74 286.653 1112.74 286.92V296.14C1112.74 296.393 1112.66 296.6 1112.5 296.76C1112.35 296.92 1112.15 297 1111.9 297ZM1111.82 284.38C1111.58 284.38 1111.37 284.3 1111.2 284.14C1111.04 283.967 1110.96 283.76 1110.96 283.52C1110.96 283.28 1111.03 283.087 1111.16 282.94L1113.32 280.78C1113.48 280.62 1113.68 280.54 1113.92 280.54C1114.17 280.54 1114.38 280.627 1114.54 280.8C1114.7 280.96 1114.78 281.167 1114.78 281.42C1114.78 281.527 1114.76 281.633 1114.72 281.74C1114.68 281.833 1114.62 281.92 1114.54 282L1112.4 284.16C1112.24 284.307 1112.05 284.38 1111.82 284.38ZM1120.5 297.1C1119.66 297.1 1118.85 296.967 1118.06 296.7C1117.29 296.42 1116.67 296.027 1116.2 295.52C1116.04 295.347 1115.97 295.147 1116 294.92C1116.03 294.693 1116.13 294.5 1116.32 294.34C1116.53 294.18 1116.75 294.12 1116.96 294.16C1117.19 294.187 1117.38 294.28 1117.54 294.44C1117.82 294.773 1118.22 295.047 1118.74 295.26C1119.26 295.46 1119.83 295.56 1120.46 295.56C1121.38 295.56 1122.05 295.407 1122.48 295.1C1122.91 294.78 1123.13 294.393 1123.14 293.94C1123.15 293.487 1122.94 293.107 1122.5 292.8C1122.07 292.493 1121.34 292.253 1120.3 292.08C1118.95 291.853 1117.97 291.473 1117.34 290.94C1116.73 290.407 1116.42 289.767 1116.42 289.02C1116.42 288.34 1116.61 287.773 1116.98 287.32C1117.35 286.867 1117.84 286.527 1118.44 286.3C1119.05 286.073 1119.71 285.96 1120.42 285.96C1121.31 285.96 1122.09 286.113 1122.74 286.42C1123.39 286.713 1123.92 287.113 1124.32 287.62C1124.48 287.807 1124.55 288.007 1124.52 288.22C1124.49 288.42 1124.39 288.587 1124.2 288.72C1124.01 288.827 1123.8 288.86 1123.56 288.82C1123.33 288.78 1123.14 288.673 1122.98 288.5C1122.65 288.14 1122.27 287.88 1121.84 287.72C1121.41 287.56 1120.93 287.48 1120.38 287.48C1119.7 287.48 1119.14 287.613 1118.7 287.88C1118.27 288.147 1118.06 288.493 1118.06 288.92C1118.06 289.213 1118.13 289.467 1118.28 289.68C1118.44 289.893 1118.72 290.087 1119.12 290.26C1119.52 290.42 1120.08 290.567 1120.8 290.7C1121.8 290.873 1122.59 291.113 1123.16 291.42C1123.75 291.727 1124.17 292.093 1124.42 292.52C1124.67 292.933 1124.8 293.393 1124.8 293.9C1124.8 294.513 1124.62 295.06 1124.26 295.54C1123.91 296.02 1123.41 296.4 1122.76 296.68C1122.12 296.96 1121.37 297.1 1120.5 297.1ZM1132.44 297.1C1131.35 297.1 1130.38 296.867 1129.54 296.4C1128.7 295.92 1128.04 295.26 1127.56 294.42C1127.08 293.58 1126.84 292.62 1126.84 291.54C1126.84 290.447 1127.07 289.487 1127.52 288.66C1127.97 287.82 1128.59 287.16 1129.38 286.68C1130.18 286.2 1131.1 285.96 1132.14 285.96C1133.17 285.96 1134.05 286.193 1134.8 286.66C1135.55 287.113 1136.12 287.747 1136.52 288.56C1136.93 289.373 1137.14 290.3 1137.14 291.34C1137.14 291.567 1137.07 291.753 1136.92 291.9C1136.77 292.033 1136.59 292.1 1136.36 292.1H1128V290.72H1136.44L1135.6 291.32C1135.6 290.587 1135.46 289.927 1135.18 289.34C1134.9 288.753 1134.5 288.293 1133.98 287.96C1133.47 287.627 1132.86 287.46 1132.14 287.46C1131.38 287.46 1130.72 287.64 1130.16 288C1129.6 288.347 1129.17 288.827 1128.86 289.44C1128.55 290.053 1128.4 290.753 1128.4 291.54C1128.4 292.327 1128.57 293.027 1128.92 293.64C1129.27 294.24 1129.74 294.72 1130.34 295.08C1130.95 295.427 1131.65 295.6 1132.44 295.6C1132.89 295.6 1133.35 295.52 1133.82 295.36C1134.3 295.2 1134.68 295 1134.96 294.76C1135.12 294.627 1135.3 294.56 1135.5 294.56C1135.71 294.547 1135.89 294.6 1136.04 294.72C1136.23 294.893 1136.32 295.087 1136.32 295.3C1136.33 295.5 1136.25 295.673 1136.08 295.82C1135.63 296.193 1135.06 296.5 1134.38 296.74C1133.71 296.98 1133.07 297.1 1132.44 297.1ZM1143.63 297.1C1142.79 297.1 1141.97 296.967 1141.19 296.7C1140.41 296.42 1139.79 296.027 1139.33 295.52C1139.17 295.347 1139.1 295.147 1139.13 294.92C1139.15 294.693 1139.26 294.5 1139.45 294.34C1139.66 294.18 1139.87 294.12 1140.09 294.16C1140.31 294.187 1140.51 294.28 1140.67 294.44C1140.95 294.773 1141.35 295.047 1141.87 295.26C1142.39 295.46 1142.96 295.56 1143.59 295.56C1144.51 295.56 1145.18 295.407 1145.61 295.1C1146.03 294.78 1146.25 294.393 1146.27 293.94C1146.28 293.487 1146.07 293.107 1145.63 292.8C1145.2 292.493 1144.47 292.253 1143.43 292.08C1142.08 291.853 1141.09 291.473 1140.47 290.94C1139.85 290.407 1139.55 289.767 1139.55 289.02C1139.55 288.34 1139.73 287.773 1140.11 287.32C1140.48 286.867 1140.97 286.527 1141.57 286.3C1142.18 286.073 1142.84 285.96 1143.55 285.96C1144.44 285.96 1145.21 286.113 1145.87 286.42C1146.52 286.713 1147.05 287.113 1147.45 287.62C1147.61 287.807 1147.67 288.007 1147.65 288.22C1147.62 288.42 1147.51 288.587 1147.33 288.72C1147.14 288.827 1146.93 288.86 1146.69 288.82C1146.46 288.78 1146.27 288.673 1146.11 288.5C1145.77 288.14 1145.39 287.88 1144.97 287.72C1144.54 287.56 1144.05 287.48 1143.51 287.48C1142.83 287.48 1142.27 287.613 1141.83 287.88C1141.4 288.147 1141.19 288.493 1141.19 288.92C1141.19 289.213 1141.26 289.467 1141.41 289.68C1141.57 289.893 1141.85 290.087 1142.25 290.26C1142.65 290.42 1143.21 290.567 1143.93 290.7C1144.93 290.873 1145.71 291.113 1146.29 291.42C1146.87 291.727 1147.29 292.093 1147.55 292.52C1147.8 292.933 1147.93 293.393 1147.93 293.9C1147.93 294.513 1147.75 295.06 1147.39 295.54C1147.04 296.02 1146.54 296.4 1145.89 296.68C1145.25 296.96 1144.49 297.1 1143.63 297.1Z" fill="#F2EEE3"/>
</g>
<defs>
<linearGradient id="paint0_linear" x1="640" y1="0" x2="640" y2="520" gradientUnits="userSpaceOnUse">
<stop stop-color="#E3632D"/>
<stop offset="1" stop-color="#F94E3F"/>
</linearGradient>
<clipPath id="clip0">
<rect width="1280" height="520" fill="white"/>
</clipPath>
</defs>
</svg>
