<svg width="auto" height="auto" viewBox="0 0 1280 520" fill="none" xmlns="http://www.w3.org/2000/svg">
<g clip-path="url(#clip0)">
<rect width="1280" height="520" fill="url(#paint0_linear)"/>
<path d="M445.464 414.98L445.46 414.979C285.302 377.07 137.007 399.809 -0.944336 461.322L-0.951172 461.325C-10.3591 465.436 -18.3853 473.696 -23.8809 483.062C-29.3815 492.436 -32.2633 502.774 -31.5444 510.943L-31.5435 510.953L-31.5427 510.964C-25.6427 598.944 45.1486 661.157 157.92 704.146L157.921 704.146C296.612 757.233 484.708 777.479 669.157 767.57C853.611 757.661 1034.27 717.603 1158.1 650.205L1158.11 650.202C1209.28 622.816 1250.35 592.108 1277.15 555.472C1303.72 519.137 1316.29 476.928 1310.69 426.219C1288.56 431.716 1267.57 436.807 1247.42 441.696C1203.1 452.449 1162.81 462.223 1123.21 473.182C959.646 521.328 797.565 517.946 635.508 468.96C621.74 464.863 607.975 460.685 594.182 456.499C545.453 441.708 496.364 426.808 445.464 414.98Z" fill="#F2EEE3" stroke="#F2EEE3" stroke-width="2"/>
<path d="M834.883 103.971L834.887 103.972C995.045 141.881 1143.34 119.142 1281.29 57.6286L1281.3 57.6256C1290.71 53.5145 1298.73 45.2546 1304.23 35.8888C1309.73 26.5145 1312.61 16.1762 1311.89 8.0079L1311.89 7.99752L1311.89 7.98715C1305.99 -79.9932 1235.2 -142.206 1122.43 -185.195L1122.43 -185.196C983.734 -238.282 795.638 -258.528 611.189 -248.619C426.735 -238.71 246.078 -198.653 122.244 -131.255L122.238 -131.251C71.0629 -103.866 29.9951 -73.157 3.20102 -36.5216C-23.3734 -0.1866 -35.9409 42.0223 -30.3428 92.7317C-8.20872 87.2347 12.7761 82.1436 32.9266 77.2548C77.2499 66.5016 117.536 56.7277 157.137 45.7683C320.701 -2.3774 482.781 1.00489 644.838 49.9904C658.607 54.0873 672.371 58.2652 686.164 62.4518C734.893 77.2422 783.982 92.1422 834.883 103.971Z" fill="#F2EEE3" stroke="#F2EEE3" stroke-width="2"/>
<path d="M197.523 238.418C199.328 238.418 200.954 238.84 202.4 239.686C203.861 240.516 204.993 241.698 205.795 243.23C206.611 244.763 207.02 246.532 207.02 248.537C207.02 252.046 205.96 254.739 203.84 256.615C201.734 258.492 198.54 259.43 194.258 259.43C190.591 259.43 187.598 258.864 185.277 257.732V250.771C186.523 251.344 187.927 251.817 189.488 252.189C191.064 252.562 192.417 252.748 193.549 252.748C195.124 252.748 196.335 252.419 197.18 251.76C198.025 251.087 198.447 250.098 198.447 248.795C198.447 247.592 198.018 246.654 197.158 245.98C196.299 245.307 194.995 244.971 193.248 244.971C191.916 244.971 190.477 245.221 188.93 245.723L185.814 244.176L186.996 227.59H204.914V234.658H194.215L193.828 238.805C194.945 238.59 195.74 238.475 196.213 238.461C196.686 238.432 197.122 238.418 197.523 238.418ZM233.273 243.338C233.273 248.895 232.342 252.97 230.48 255.562C228.618 258.141 225.768 259.43 221.93 259.43C218.177 259.43 215.348 258.083 213.443 255.391C211.538 252.684 210.586 248.666 210.586 243.338C210.586 237.752 211.517 233.656 213.379 231.049C215.241 228.442 218.091 227.139 221.93 227.139C225.668 227.139 228.49 228.499 230.395 231.221C232.314 233.928 233.273 237.967 233.273 243.338ZM219.029 243.338C219.029 246.89 219.251 249.332 219.695 250.664C220.139 251.996 220.884 252.662 221.93 252.662C222.99 252.662 223.734 251.975 224.164 250.6C224.608 249.225 224.83 246.804 224.83 243.338C224.83 239.857 224.608 237.423 224.164 236.033C223.72 234.63 222.975 233.928 221.93 233.928C220.884 233.928 220.139 234.601 219.695 235.947C219.251 237.294 219.029 239.757 219.029 243.338ZM244.359 246.367H236.367V240.609H244.359V232.725H250.139V240.609H258.131V246.367H250.139V254.123H244.359V246.367Z" fill="#F2EEE3"/>
<path d="M128.274 294.2C127.421 294.2 126.621 294.073 125.874 293.82C125.127 293.567 124.481 293.213 123.934 292.76C123.387 292.293 122.981 291.753 122.714 291.14C122.594 290.9 122.587 290.68 122.694 290.48C122.814 290.28 123.007 290.147 123.274 290.08C123.487 290.027 123.687 290.053 123.874 290.16C124.074 290.267 124.227 290.427 124.334 290.64C124.521 291 124.801 291.333 125.174 291.64C125.561 291.933 126.014 292.167 126.534 292.34C127.067 292.5 127.647 292.58 128.274 292.58C128.954 292.58 129.567 292.473 130.114 292.26C130.661 292.033 131.094 291.707 131.414 291.28C131.734 290.853 131.894 290.333 131.894 289.72C131.894 288.947 131.601 288.273 131.014 287.7C130.427 287.113 129.494 286.747 128.214 286.6C126.627 286.427 125.381 285.947 124.474 285.16C123.581 284.36 123.134 283.38 123.134 282.22C123.134 281.393 123.361 280.68 123.814 280.08C124.267 279.467 124.887 279 125.674 278.68C126.461 278.347 127.354 278.18 128.354 278.18C129.114 278.18 129.794 278.3 130.394 278.54C131.007 278.767 131.534 279.073 131.974 279.46C132.427 279.847 132.801 280.28 133.094 280.76C133.254 281 133.307 281.233 133.254 281.46C133.214 281.673 133.094 281.84 132.894 281.96C132.681 282.08 132.454 282.107 132.214 282.04C131.987 281.96 131.814 281.813 131.694 281.6C131.481 281.267 131.221 280.967 130.914 280.7C130.621 280.42 130.261 280.207 129.834 280.06C129.421 279.9 128.921 279.813 128.334 279.8C127.294 279.8 126.447 280.013 125.794 280.44C125.154 280.853 124.834 281.48 124.834 282.32C124.834 282.747 124.947 283.153 125.174 283.54C125.401 283.913 125.787 284.233 126.334 284.5C126.894 284.767 127.661 284.967 128.634 285.1C130.274 285.313 131.507 285.813 132.334 286.6C133.174 287.387 133.594 288.42 133.594 289.7C133.594 290.433 133.454 291.08 133.174 291.64C132.894 292.2 132.507 292.673 132.014 293.06C131.534 293.433 130.967 293.72 130.314 293.92C129.674 294.107 128.994 294.2 128.274 294.2ZM141.332 294.12C140.399 294.12 139.559 293.927 138.812 293.54C138.079 293.14 137.499 292.56 137.072 291.8C136.645 291.04 136.432 290.107 136.432 289V283.9C136.432 283.66 136.512 283.46 136.672 283.3C136.832 283.14 137.032 283.06 137.272 283.06C137.525 283.06 137.732 283.14 137.892 283.3C138.052 283.46 138.132 283.66 138.132 283.9V289C138.132 289.8 138.279 290.46 138.572 290.98C138.879 291.5 139.292 291.887 139.812 292.14C140.332 292.393 140.919 292.52 141.572 292.52C142.199 292.52 142.759 292.4 143.252 292.16C143.759 291.92 144.159 291.587 144.452 291.16C144.745 290.733 144.892 290.253 144.892 289.72H146.052C146.025 290.56 145.805 291.313 145.392 291.98C144.979 292.633 144.419 293.153 143.712 293.54C143.005 293.927 142.212 294.12 141.332 294.12ZM145.752 294C145.499 294 145.292 293.92 145.132 293.76C144.972 293.6 144.892 293.393 144.892 293.14V283.9C144.892 283.647 144.972 283.447 145.132 283.3C145.292 283.14 145.499 283.06 145.752 283.06C146.005 283.06 146.212 283.14 146.372 283.3C146.532 283.447 146.612 283.647 146.612 283.9V293.14C146.612 293.393 146.532 293.6 146.372 293.76C146.212 293.92 146.005 294 145.752 294ZM155.106 294.1C154.053 294.1 153.113 293.86 152.286 293.38C151.46 292.887 150.806 292.22 150.326 291.38C149.86 290.54 149.626 289.593 149.626 288.54C149.626 287.473 149.853 286.52 150.306 285.68C150.773 284.84 151.4 284.18 152.186 283.7C152.986 283.207 153.906 282.96 154.946 282.96C155.746 282.96 156.486 283.12 157.166 283.44C157.846 283.747 158.446 284.213 158.966 284.84C159.126 285.027 159.18 285.22 159.126 285.42C159.086 285.607 158.966 285.773 158.766 285.92C158.606 286.04 158.426 286.08 158.226 286.04C158.026 286 157.853 285.893 157.706 285.72C156.973 284.907 156.053 284.5 154.946 284.5C154.226 284.5 153.586 284.673 153.026 285.02C152.48 285.367 152.053 285.84 151.746 286.44C151.44 287.04 151.286 287.74 151.286 288.54C151.286 289.313 151.446 290.007 151.766 290.62C152.086 291.22 152.533 291.693 153.106 292.04C153.693 292.387 154.36 292.56 155.106 292.56C155.613 292.56 156.066 292.493 156.466 292.36C156.88 292.227 157.246 292.027 157.566 291.76C157.74 291.613 157.92 291.533 158.106 291.52C158.306 291.493 158.486 291.547 158.646 291.68C158.82 291.84 158.92 292.02 158.946 292.22C158.973 292.42 158.906 292.6 158.746 292.76C157.773 293.653 156.56 294.1 155.106 294.1ZM167.059 294.1C166.006 294.1 165.066 293.86 164.239 293.38C163.413 292.887 162.759 292.22 162.279 291.38C161.813 290.54 161.579 289.593 161.579 288.54C161.579 287.473 161.806 286.52 162.259 285.68C162.726 284.84 163.353 284.18 164.139 283.7C164.939 283.207 165.859 282.96 166.899 282.96C167.699 282.96 168.439 283.12 169.119 283.44C169.799 283.747 170.399 284.213 170.919 284.84C171.079 285.027 171.133 285.22 171.079 285.42C171.039 285.607 170.919 285.773 170.719 285.92C170.559 286.04 170.379 286.08 170.179 286.04C169.979 286 169.806 285.893 169.659 285.72C168.926 284.907 168.006 284.5 166.899 284.5C166.179 284.5 165.539 284.673 164.979 285.02C164.433 285.367 164.006 285.84 163.699 286.44C163.393 287.04 163.239 287.74 163.239 288.54C163.239 289.313 163.399 290.007 163.719 290.62C164.039 291.22 164.486 291.693 165.059 292.04C165.646 292.387 166.313 292.56 167.059 292.56C167.566 292.56 168.019 292.493 168.419 292.36C168.833 292.227 169.199 292.027 169.519 291.76C169.693 291.613 169.873 291.533 170.059 291.52C170.259 291.493 170.439 291.547 170.599 291.68C170.773 291.84 170.873 292.02 170.899 292.22C170.926 292.42 170.859 292.6 170.699 292.76C169.726 293.653 168.513 294.1 167.059 294.1ZM179.133 294.1C178.039 294.1 177.073 293.867 176.233 293.4C175.393 292.92 174.733 292.26 174.253 291.42C173.773 290.58 173.533 289.62 173.533 288.54C173.533 287.447 173.759 286.487 174.213 285.66C174.666 284.82 175.286 284.16 176.073 283.68C176.873 283.2 177.793 282.96 178.833 282.96C179.859 282.96 180.746 283.193 181.493 283.66C182.239 284.113 182.813 284.747 183.213 285.56C183.626 286.373 183.833 287.3 183.833 288.34C183.833 288.567 183.759 288.753 183.612 288.9C183.466 289.033 183.279 289.1 183.053 289.1H174.693V287.72H183.133L182.293 288.32C182.293 287.587 182.153 286.927 181.873 286.34C181.593 285.753 181.193 285.293 180.673 284.96C180.166 284.627 179.553 284.46 178.833 284.46C178.073 284.46 177.413 284.64 176.853 285C176.293 285.347 175.859 285.827 175.553 286.44C175.246 287.053 175.093 287.753 175.093 288.54C175.093 289.327 175.266 290.027 175.613 290.64C175.959 291.24 176.433 291.72 177.033 292.08C177.646 292.427 178.346 292.6 179.133 292.6C179.586 292.6 180.046 292.52 180.513 292.36C180.993 292.2 181.373 292 181.653 291.76C181.813 291.627 181.993 291.56 182.193 291.56C182.406 291.547 182.586 291.6 182.733 291.72C182.919 291.893 183.013 292.087 183.013 292.3C183.026 292.5 182.946 292.673 182.773 292.82C182.319 293.193 181.753 293.5 181.073 293.74C180.406 293.98 179.759 294.1 179.133 294.1ZM190.317 294.1C189.477 294.1 188.663 293.967 187.877 293.7C187.103 293.42 186.483 293.027 186.017 292.52C185.857 292.347 185.79 292.147 185.817 291.92C185.843 291.693 185.95 291.5 186.137 291.34C186.35 291.18 186.563 291.12 186.777 291.16C187.003 291.187 187.197 291.28 187.357 291.44C187.637 291.773 188.037 292.047 188.557 292.26C189.077 292.46 189.65 292.56 190.277 292.56C191.197 292.56 191.87 292.407 192.297 292.1C192.723 291.78 192.943 291.393 192.957 290.94C192.97 290.487 192.757 290.107 192.317 289.8C191.89 289.493 191.157 289.253 190.117 289.08C188.77 288.853 187.783 288.473 187.157 287.94C186.543 287.407 186.237 286.767 186.237 286.02C186.237 285.34 186.423 284.773 186.797 284.32C187.17 283.867 187.657 283.527 188.257 283.3C188.87 283.073 189.53 282.96 190.237 282.96C191.13 282.96 191.903 283.113 192.557 283.42C193.21 283.713 193.737 284.113 194.137 284.62C194.297 284.807 194.363 285.007 194.337 285.22C194.31 285.42 194.203 285.587 194.017 285.72C193.83 285.827 193.617 285.86 193.377 285.82C193.15 285.78 192.957 285.673 192.797 285.5C192.463 285.14 192.083 284.88 191.657 284.72C191.23 284.56 190.743 284.48 190.197 284.48C189.517 284.48 188.957 284.613 188.517 284.88C188.09 285.147 187.877 285.493 187.877 285.92C187.877 286.213 187.95 286.467 188.097 286.68C188.257 286.893 188.537 287.087 188.937 287.26C189.337 287.42 189.897 287.567 190.617 287.7C191.617 287.873 192.403 288.113 192.977 288.42C193.563 288.727 193.983 289.093 194.237 289.52C194.49 289.933 194.617 290.393 194.617 290.9C194.617 291.513 194.437 292.06 194.077 292.54C193.73 293.02 193.23 293.4 192.577 293.68C191.937 293.96 191.183 294.1 190.317 294.1ZM201.118 294.1C200.278 294.1 199.464 293.967 198.678 293.7C197.904 293.42 197.284 293.027 196.818 292.52C196.658 292.347 196.591 292.147 196.618 291.92C196.644 291.693 196.751 291.5 196.938 291.34C197.151 291.18 197.364 291.12 197.578 291.16C197.804 291.187 197.998 291.28 198.158 291.44C198.438 291.773 198.838 292.047 199.358 292.26C199.878 292.46 200.451 292.56 201.078 292.56C201.998 292.56 202.671 292.407 203.098 292.1C203.524 291.78 203.744 291.393 203.758 290.94C203.771 290.487 203.558 290.107 203.118 289.8C202.691 289.493 201.958 289.253 200.918 289.08C199.571 288.853 198.584 288.473 197.958 287.94C197.344 287.407 197.038 286.767 197.038 286.02C197.038 285.34 197.224 284.773 197.598 284.32C197.971 283.867 198.458 283.527 199.058 283.3C199.671 283.073 200.331 282.96 201.038 282.96C201.931 282.96 202.704 283.113 203.358 283.42C204.011 283.713 204.538 284.113 204.938 284.62C205.098 284.807 205.164 285.007 205.138 285.22C205.111 285.42 205.004 285.587 204.818 285.72C204.631 285.827 204.418 285.86 204.178 285.82C203.951 285.78 203.758 285.673 203.598 285.5C203.264 285.14 202.884 284.88 202.458 284.72C202.031 284.56 201.544 284.48 200.998 284.48C200.318 284.48 199.758 284.613 199.318 284.88C198.891 285.147 198.678 285.493 198.678 285.92C198.678 286.213 198.751 286.467 198.898 286.68C199.058 286.893 199.338 287.087 199.738 287.26C200.138 287.42 200.698 287.567 201.418 287.7C202.418 287.873 203.204 288.113 203.778 288.42C204.364 288.727 204.784 289.093 205.038 289.52C205.291 289.933 205.418 290.393 205.418 290.9C205.418 291.513 205.238 292.06 204.878 292.54C204.531 293.02 204.031 293.4 203.378 293.68C202.738 293.96 201.984 294.1 201.118 294.1ZM209.338 294C209.125 294 208.932 293.927 208.758 293.78C208.598 293.62 208.518 293.407 208.518 293.14V283.1C208.518 282.153 208.685 281.327 209.018 280.62C209.365 279.913 209.858 279.367 210.498 278.98C211.152 278.58 211.925 278.38 212.818 278.38C213.072 278.38 213.278 278.453 213.438 278.6C213.598 278.747 213.678 278.933 213.678 279.16C213.678 279.373 213.598 279.553 213.438 279.7C213.278 279.847 213.072 279.92 212.818 279.92C212.258 279.92 211.785 280.053 211.398 280.32C211.012 280.573 210.718 280.933 210.518 281.4C210.318 281.853 210.218 282.38 210.218 282.98V293.14C210.218 293.407 210.138 293.62 209.978 293.78C209.832 293.927 209.618 294 209.338 294ZM207.378 284.92C207.138 284.92 206.945 284.853 206.798 284.72C206.665 284.587 206.598 284.413 206.598 284.2C206.598 283.987 206.665 283.813 206.798 283.68C206.945 283.533 207.138 283.46 207.378 283.46H212.498C212.738 283.46 212.925 283.533 213.058 283.68C213.205 283.813 213.278 283.987 213.278 284.2C213.278 284.413 213.205 284.587 213.058 284.72C212.925 284.853 212.738 284.92 212.498 284.92H207.378ZM220.063 294.12C219.129 294.12 218.289 293.927 217.543 293.54C216.809 293.14 216.229 292.56 215.803 291.8C215.376 291.04 215.163 290.107 215.163 289V283.9C215.163 283.66 215.243 283.46 215.403 283.3C215.563 283.14 215.763 283.06 216.003 283.06C216.256 283.06 216.463 283.14 216.623 283.3C216.783 283.46 216.863 283.66 216.863 283.9V289C216.863 289.8 217.009 290.46 217.303 290.98C217.609 291.5 218.023 291.887 218.543 292.14C219.063 292.393 219.649 292.52 220.303 292.52C220.929 292.52 221.489 292.4 221.983 292.16C222.489 291.92 222.889 291.587 223.183 291.16C223.476 290.733 223.623 290.253 223.623 289.72H224.783C224.756 290.56 224.536 291.313 224.122 291.98C223.709 292.633 223.149 293.153 222.443 293.54C221.736 293.927 220.943 294.12 220.063 294.12ZM224.483 294C224.229 294 224.023 293.92 223.863 293.76C223.703 293.6 223.623 293.393 223.623 293.14V283.9C223.623 283.647 223.703 283.447 223.863 283.3C224.023 283.14 224.229 283.06 224.483 283.06C224.736 283.06 224.943 283.14 225.103 283.3C225.263 283.447 225.343 283.647 225.343 283.9V293.14C225.343 293.393 225.263 293.6 225.103 293.76C224.943 293.92 224.736 294 224.483 294ZM231.377 294C230.83 294 230.337 293.853 229.897 293.56C229.47 293.253 229.137 292.833 228.897 292.3C228.657 291.767 228.537 291.153 228.537 290.46V279.22C228.537 278.967 228.61 278.767 228.757 278.62C228.917 278.46 229.123 278.38 229.377 278.38C229.63 278.38 229.83 278.46 229.977 278.62C230.137 278.767 230.217 278.967 230.217 279.22V290.46C230.217 291.007 230.323 291.453 230.537 291.8C230.763 292.147 231.043 292.32 231.377 292.32H231.877C232.103 292.32 232.283 292.4 232.417 292.56C232.55 292.707 232.617 292.907 232.617 293.16C232.617 293.413 232.517 293.62 232.317 293.78C232.13 293.927 231.877 294 231.557 294H231.377ZM241.418 298.68C241.164 298.68 240.958 298.6 240.798 298.44C240.638 298.28 240.558 298.073 240.558 297.82V288.48C240.571 287.44 240.818 286.507 241.298 285.68C241.791 284.84 242.451 284.18 243.278 283.7C244.104 283.207 245.038 282.96 246.078 282.96C247.144 282.96 248.091 283.207 248.918 283.7C249.758 284.18 250.418 284.84 250.898 285.68C251.391 286.52 251.638 287.473 251.638 288.54C251.638 289.593 251.404 290.54 250.938 291.38C250.484 292.22 249.858 292.887 249.058 293.38C248.258 293.86 247.351 294.1 246.338 294.1C245.484 294.1 244.704 293.92 243.998 293.56C243.291 293.187 242.711 292.7 242.258 292.1V297.82C242.258 298.073 242.178 298.28 242.018 298.44C241.871 298.6 241.671 298.68 241.418 298.68ZM246.078 292.56C246.824 292.56 247.491 292.387 248.078 292.04C248.664 291.693 249.124 291.213 249.458 290.6C249.804 289.987 249.978 289.3 249.978 288.54C249.978 287.767 249.804 287.08 249.458 286.48C249.124 285.867 248.664 285.387 248.078 285.04C247.491 284.68 246.824 284.5 246.078 284.5C245.358 284.5 244.698 284.68 244.098 285.04C243.511 285.387 243.051 285.867 242.718 286.48C242.384 287.08 242.218 287.767 242.218 288.54C242.218 289.3 242.384 289.987 242.718 290.6C243.051 291.213 243.511 291.693 244.098 292.04C244.698 292.387 245.358 292.56 246.078 292.56ZM255.439 287.22C255.466 286.407 255.672 285.68 256.059 285.04C256.459 284.387 256.979 283.873 257.619 283.5C258.259 283.127 258.972 282.94 259.759 282.94C260.439 282.94 260.952 283.04 261.299 283.24C261.659 283.44 261.792 283.713 261.699 284.06C261.659 284.26 261.572 284.4 261.439 284.48C261.319 284.547 261.172 284.58 260.999 284.58C260.839 284.58 260.652 284.573 260.439 284.56C259.666 284.453 258.972 284.5 258.359 284.7C257.746 284.887 257.259 285.2 256.899 285.64C256.539 286.08 256.359 286.607 256.359 287.22H255.439ZM255.519 294C255.252 294 255.046 293.927 254.899 293.78C254.752 293.633 254.679 293.427 254.679 293.16V283.9C254.679 283.633 254.752 283.427 254.899 283.28C255.046 283.133 255.252 283.06 255.519 283.06C255.786 283.06 255.992 283.133 256.139 283.28C256.286 283.427 256.359 283.633 256.359 283.9V293.16C256.359 293.427 256.286 293.633 256.139 293.78C255.992 293.927 255.786 294 255.519 294ZM268.194 294.1C267.114 294.1 266.154 293.86 265.314 293.38C264.487 292.9 263.834 292.24 263.354 291.4C262.874 290.56 262.634 289.607 262.634 288.54C262.634 287.46 262.874 286.5 263.354 285.66C263.834 284.82 264.487 284.16 265.314 283.68C266.154 283.2 267.114 282.96 268.194 282.96C269.261 282.96 270.207 283.2 271.034 283.68C271.861 284.16 272.514 284.82 272.994 285.66C273.474 286.5 273.721 287.46 273.734 288.54C273.734 289.607 273.494 290.56 273.014 291.4C272.534 292.24 271.874 292.9 271.034 293.38C270.207 293.86 269.261 294.1 268.194 294.1ZM268.194 292.56C268.941 292.56 269.607 292.387 270.194 292.04C270.781 291.693 271.234 291.22 271.554 290.62C271.887 290.007 272.054 289.313 272.054 288.54C272.054 287.767 271.887 287.073 271.554 286.46C271.234 285.847 270.781 285.367 270.194 285.02C269.607 284.673 268.941 284.5 268.194 284.5C267.447 284.5 266.781 284.673 266.194 285.02C265.607 285.367 265.141 285.847 264.794 286.46C264.461 287.073 264.294 287.767 264.294 288.54C264.294 289.313 264.461 290.007 264.794 290.62C265.141 291.22 265.607 291.693 266.194 292.04C266.781 292.387 267.447 292.56 268.194 292.56ZM273.87 298.68C273.616 298.68 273.41 298.6 273.25 298.44C273.09 298.28 273.01 298.073 273.01 297.82C273.01 297.567 273.09 297.36 273.25 297.2C273.41 297.04 273.616 296.96 273.87 296.96C274.456 296.96 274.97 296.833 275.41 296.58C275.85 296.327 276.196 295.973 276.45 295.52C276.716 295.08 276.85 294.567 276.85 293.98V283.92C276.85 283.653 276.93 283.447 277.09 283.3C277.25 283.14 277.456 283.06 277.71 283.06C277.963 283.06 278.17 283.14 278.33 283.3C278.49 283.447 278.57 283.653 278.57 283.92V293.98C278.57 294.9 278.363 295.713 277.95 296.42C277.55 297.127 276.996 297.68 276.29 298.08C275.583 298.48 274.776 298.68 273.87 298.68ZM277.69 281.08C277.37 281.08 277.096 280.967 276.87 280.74C276.643 280.513 276.53 280.233 276.53 279.9C276.53 279.567 276.643 279.293 276.87 279.08C277.11 278.853 277.39 278.74 277.71 278.74C278.016 278.74 278.283 278.853 278.51 279.08C278.75 279.293 278.87 279.567 278.87 279.9C278.87 280.233 278.75 280.513 278.51 280.74C278.283 280.967 278.01 281.08 277.69 281.08ZM286.672 294.1C285.578 294.1 284.612 293.867 283.772 293.4C282.932 292.92 282.272 292.26 281.792 291.42C281.312 290.58 281.072 289.62 281.072 288.54C281.072 287.447 281.298 286.487 281.752 285.66C282.205 284.82 282.825 284.16 283.612 283.68C284.412 283.2 285.332 282.96 286.372 282.96C287.398 282.96 288.285 283.193 289.032 283.66C289.778 284.113 290.352 284.747 290.752 285.56C291.165 286.373 291.372 287.3 291.372 288.34C291.372 288.567 291.298 288.753 291.152 288.9C291.005 289.033 290.818 289.1 290.592 289.1H282.232V287.72H290.672L289.832 288.32C289.832 287.587 289.692 286.927 289.412 286.34C289.132 285.753 288.732 285.293 288.212 284.96C287.705 284.627 287.092 284.46 286.372 284.46C285.612 284.46 284.952 284.64 284.392 285C283.832 285.347 283.398 285.827 283.092 286.44C282.785 287.053 282.632 287.753 282.632 288.54C282.632 289.327 282.805 290.027 283.152 290.64C283.498 291.24 283.972 291.72 284.572 292.08C285.185 292.427 285.885 292.6 286.672 292.6C287.125 292.6 287.585 292.52 288.052 292.36C288.532 292.2 288.912 292 289.192 291.76C289.352 291.627 289.532 291.56 289.732 291.56C289.945 291.547 290.125 291.6 290.272 291.72C290.458 291.893 290.552 292.087 290.552 292.3C290.565 292.5 290.485 292.673 290.312 292.82C289.858 293.193 289.292 293.5 288.612 293.74C287.945 293.98 287.298 294.1 286.672 294.1ZM298.485 294.1C297.432 294.1 296.492 293.86 295.665 293.38C294.838 292.887 294.185 292.22 293.705 291.38C293.238 290.54 293.005 289.593 293.005 288.54C293.005 287.473 293.232 286.52 293.685 285.68C294.152 284.84 294.778 284.18 295.565 283.7C296.365 283.207 297.285 282.96 298.325 282.96C299.125 282.96 299.865 283.12 300.545 283.44C301.225 283.747 301.825 284.213 302.345 284.84C302.505 285.027 302.558 285.22 302.505 285.42C302.465 285.607 302.345 285.773 302.145 285.92C301.985 286.04 301.805 286.08 301.605 286.04C301.405 286 301.232 285.893 301.085 285.72C300.352 284.907 299.432 284.5 298.325 284.5C297.605 284.5 296.965 284.673 296.405 285.02C295.858 285.367 295.432 285.84 295.125 286.44C294.818 287.04 294.665 287.74 294.665 288.54C294.665 289.313 294.825 290.007 295.145 290.62C295.465 291.22 295.912 291.693 296.485 292.04C297.072 292.387 297.738 292.56 298.485 292.56C298.992 292.56 299.445 292.493 299.845 292.36C300.258 292.227 300.625 292.027 300.945 291.76C301.118 291.613 301.298 291.533 301.485 291.52C301.685 291.493 301.865 291.547 302.025 291.68C302.198 291.84 302.298 292.02 302.325 292.22C302.352 292.42 302.285 292.6 302.125 292.76C301.152 293.653 299.938 294.1 298.485 294.1ZM309.718 294C309.025 294 308.405 293.833 307.858 293.5C307.312 293.167 306.878 292.707 306.558 292.12C306.252 291.533 306.098 290.873 306.098 290.14V280.44C306.098 280.187 306.172 279.98 306.318 279.82C306.478 279.66 306.685 279.58 306.938 279.58C307.178 279.58 307.378 279.66 307.538 279.82C307.698 279.98 307.778 280.187 307.778 280.44V290.14C307.778 290.767 307.958 291.287 308.318 291.7C308.692 292.1 309.158 292.3 309.718 292.3H310.298C310.525 292.3 310.712 292.38 310.858 292.54C311.005 292.7 311.078 292.907 311.078 293.16C311.078 293.413 310.985 293.62 310.798 293.78C310.625 293.927 310.398 294 310.118 294H309.718ZM304.918 284.92C304.692 284.92 304.505 284.853 304.358 284.72C304.212 284.587 304.138 284.413 304.138 284.2C304.138 283.987 304.212 283.813 304.358 283.68C304.505 283.533 304.692 283.46 304.918 283.46H309.858C310.085 283.46 310.272 283.533 310.418 283.68C310.565 283.813 310.638 283.987 310.638 284.2C310.638 284.413 310.565 284.587 310.418 284.72C310.272 284.853 310.085 284.92 309.858 284.92H304.918ZM317.465 294.1C316.625 294.1 315.812 293.967 315.025 293.7C314.252 293.42 313.632 293.027 313.165 292.52C313.005 292.347 312.938 292.147 312.965 291.92C312.992 291.693 313.098 291.5 313.285 291.34C313.498 291.18 313.712 291.12 313.925 291.16C314.152 291.187 314.345 291.28 314.505 291.44C314.785 291.773 315.185 292.047 315.705 292.26C316.225 292.46 316.798 292.56 317.425 292.56C318.345 292.56 319.018 292.407 319.445 292.1C319.872 291.78 320.092 291.393 320.105 290.94C320.118 290.487 319.905 290.107 319.465 289.8C319.038 289.493 318.305 289.253 317.265 289.08C315.918 288.853 314.932 288.473 314.305 287.94C313.692 287.407 313.385 286.767 313.385 286.02C313.385 285.34 313.572 284.773 313.945 284.32C314.318 283.867 314.805 283.527 315.405 283.3C316.018 283.073 316.678 282.96 317.385 282.96C318.278 282.96 319.052 283.113 319.705 283.42C320.358 283.713 320.885 284.113 321.285 284.62C321.445 284.807 321.512 285.007 321.485 285.22C321.458 285.42 321.352 285.587 321.165 285.72C320.978 285.827 320.765 285.86 320.525 285.82C320.298 285.78 320.105 285.673 319.945 285.5C319.612 285.14 319.232 284.88 318.805 284.72C318.378 284.56 317.892 284.48 317.345 284.48C316.665 284.48 316.105 284.613 315.665 284.88C315.238 285.147 315.025 285.493 315.025 285.92C315.025 286.213 315.098 286.467 315.245 286.68C315.405 286.893 315.685 287.087 316.085 287.26C316.485 287.42 317.045 287.567 317.765 287.7C318.765 287.873 319.552 288.113 320.125 288.42C320.712 288.727 321.132 289.093 321.385 289.52C321.638 289.933 321.765 290.393 321.765 290.9C321.765 291.513 321.585 292.06 321.225 292.54C320.878 293.02 320.378 293.4 319.725 293.68C319.085 293.96 318.332 294.1 317.465 294.1Z" fill="#F2EEE3"/>
<path d="M614.473 259H591.678V253.414L599.348 245.658C601.539 243.367 602.971 241.805 603.645 240.975C604.318 240.13 604.783 239.406 605.041 238.805C605.313 238.203 605.449 237.573 605.449 236.914C605.449 236.098 605.184 235.453 604.654 234.98C604.124 234.508 603.38 234.271 602.42 234.271C601.432 234.271 600.429 234.558 599.412 235.131C598.41 235.689 597.271 236.52 595.996 237.623L591.334 232.166C592.952 230.719 594.313 229.688 595.416 229.072C596.519 228.442 597.715 227.962 599.004 227.633C600.307 227.303 601.768 227.139 603.387 227.139C605.421 227.139 607.232 227.497 608.822 228.213C610.426 228.929 611.665 229.953 612.539 231.285C613.427 232.603 613.871 234.085 613.871 235.732C613.871 236.964 613.714 238.103 613.398 239.148C613.098 240.194 612.625 241.225 611.98 242.242C611.336 243.245 610.477 244.305 609.402 245.422C608.342 246.539 606.072 248.659 602.592 251.781V251.996H614.473V259ZM641.264 252.92H637.805V259H629.426V252.92H616.9V246.689L629.963 227.59H637.805V246.582H641.264V252.92ZM629.426 246.582V242.93C629.426 242.242 629.447 241.318 629.49 240.158C629.548 238.984 629.59 238.368 629.619 238.311H629.383C628.896 239.413 628.344 240.445 627.729 241.404L624.248 246.582H629.426ZM654.906 227.139C658.215 227.139 660.786 227.805 662.619 229.137C664.467 230.469 665.391 232.359 665.391 234.809C665.391 236.47 664.954 237.931 664.08 239.191C663.221 240.438 661.853 241.526 659.977 242.457C662.297 243.775 663.93 245.092 664.875 246.41C665.835 247.714 666.314 249.124 666.314 250.643C666.314 253.436 665.305 255.598 663.285 257.131C661.266 258.663 658.444 259.43 654.82 259.43C651.125 259.43 648.296 258.685 646.334 257.195C644.372 255.691 643.391 253.536 643.391 250.729C643.391 248.91 643.827 247.363 644.701 246.088C645.575 244.799 647.043 243.632 649.105 242.586C647.444 241.469 646.227 240.273 645.453 238.998C644.694 237.709 644.314 236.298 644.314 234.766C644.314 232.359 645.253 230.49 647.129 229.158C649.005 227.812 651.598 227.139 654.906 227.139ZM651.168 250.385C651.168 251.273 651.483 251.989 652.113 252.533C652.743 253.063 653.617 253.328 654.734 253.328C657.255 253.328 658.516 252.404 658.516 250.557C658.516 249.855 658.236 249.167 657.678 248.494C657.133 247.807 656.152 247.04 654.734 246.195C653.46 246.868 652.543 247.549 651.984 248.236C651.44 248.91 651.168 249.626 651.168 250.385ZM654.863 233.262C654.133 233.262 653.517 233.477 653.016 233.906C652.514 234.322 652.264 234.866 652.264 235.539C652.264 236.771 653.102 237.859 654.777 238.805C655.794 238.217 656.489 237.68 656.861 237.193C657.234 236.706 657.42 236.155 657.42 235.539C657.42 234.852 657.169 234.3 656.668 233.885C656.167 233.469 655.565 233.262 654.863 233.262ZM677.25 246.367H669.258V240.609H677.25V232.725H683.029V240.609H691.021V246.367H683.029V254.123H677.25V246.367Z" fill="#F2EEE3"/>
<path d="M575.256 297.2C574.176 297.2 573.163 296.993 572.216 296.58C571.283 296.167 570.456 295.593 569.736 294.86C569.03 294.127 568.476 293.28 568.076 292.32C567.69 291.347 567.496 290.3 567.496 289.18C567.496 288.073 567.69 287.04 568.076 286.08C568.476 285.107 569.03 284.26 569.736 283.54C570.443 282.807 571.263 282.233 572.196 281.82C573.143 281.393 574.163 281.18 575.256 281.18C576.23 281.18 577.103 281.32 577.876 281.6C578.65 281.867 579.403 282.307 580.136 282.92C580.256 283.013 580.33 283.12 580.356 283.24C580.396 283.347 580.403 283.453 580.376 283.56C580.35 283.667 580.296 283.753 580.216 283.82C580.203 283.98 580.13 284.107 579.996 284.2C579.863 284.293 579.71 284.34 579.536 284.34C579.363 284.327 579.19 284.253 579.016 284.12C578.51 283.68 577.963 283.353 577.376 283.14C576.79 282.913 576.083 282.8 575.256 282.8C574.416 282.8 573.63 282.967 572.896 283.3C572.163 283.633 571.516 284.093 570.956 284.68C570.396 285.267 569.956 285.947 569.636 286.72C569.33 287.493 569.176 288.313 569.176 289.18C569.176 290.073 569.33 290.907 569.636 291.68C569.956 292.44 570.396 293.113 570.956 293.7C571.516 294.287 572.163 294.747 572.896 295.08C573.63 295.413 574.416 295.58 575.256 295.58C575.963 295.58 576.636 295.46 577.276 295.22C577.916 294.98 578.523 294.64 579.096 294.2C579.283 294.053 579.476 293.993 579.676 294.02C579.876 294.047 580.043 294.133 580.176 294.28C580.323 294.427 580.396 294.62 580.396 294.86C580.396 294.967 580.376 295.073 580.336 295.18C580.296 295.273 580.236 295.373 580.156 295.48C579.463 296.08 578.696 296.52 577.856 296.8C577.03 297.067 576.163 297.2 575.256 297.2ZM588.205 297.12C587.272 297.12 586.432 296.927 585.685 296.54C584.952 296.14 584.372 295.56 583.945 294.8C583.518 294.04 583.305 293.107 583.305 292V286.9C583.305 286.66 583.385 286.46 583.545 286.3C583.705 286.14 583.905 286.06 584.145 286.06C584.398 286.06 584.605 286.14 584.765 286.3C584.925 286.46 585.005 286.66 585.005 286.9V292C585.005 292.8 585.152 293.46 585.445 293.98C585.752 294.5 586.165 294.887 586.685 295.14C587.205 295.393 587.792 295.52 588.445 295.52C589.072 295.52 589.632 295.4 590.125 295.16C590.632 294.92 591.032 294.587 591.325 294.16C591.618 293.733 591.765 293.253 591.765 292.72H592.925C592.898 293.56 592.678 294.313 592.265 294.98C591.852 295.633 591.292 296.153 590.585 296.54C589.878 296.927 589.085 297.12 588.205 297.12ZM592.625 297C592.372 297 592.165 296.92 592.005 296.76C591.845 296.6 591.765 296.393 591.765 296.14V286.9C591.765 286.647 591.845 286.447 592.005 286.3C592.165 286.14 592.372 286.06 592.625 286.06C592.878 286.06 593.085 286.14 593.245 286.3C593.405 286.447 593.485 286.647 593.485 286.9V296.14C593.485 296.393 593.405 296.6 593.245 296.76C593.085 296.92 592.878 297 592.625 297ZM597.939 301.68C597.686 301.68 597.479 301.6 597.319 301.44C597.159 301.28 597.079 301.073 597.079 300.82V291.48C597.093 290.44 597.339 289.507 597.819 288.68C598.313 287.84 598.973 287.18 599.799 286.7C600.626 286.207 601.559 285.96 602.599 285.96C603.666 285.96 604.613 286.207 605.439 286.7C606.279 287.18 606.939 287.84 607.419 288.68C607.913 289.52 608.159 290.473 608.159 291.54C608.159 292.593 607.926 293.54 607.459 294.38C607.006 295.22 606.379 295.887 605.579 296.38C604.779 296.86 603.873 297.1 602.859 297.1C602.006 297.1 601.226 296.92 600.519 296.56C599.813 296.187 599.233 295.7 598.779 295.1V300.82C598.779 301.073 598.699 301.28 598.539 301.44C598.393 301.6 598.193 301.68 597.939 301.68ZM602.599 295.56C603.346 295.56 604.013 295.387 604.599 295.04C605.186 294.693 605.646 294.213 605.979 293.6C606.326 292.987 606.499 292.3 606.499 291.54C606.499 290.767 606.326 290.08 605.979 289.48C605.646 288.867 605.186 288.387 604.599 288.04C604.013 287.68 603.346 287.5 602.599 287.5C601.879 287.5 601.219 287.68 600.619 288.04C600.033 288.387 599.573 288.867 599.239 289.48C598.906 290.08 598.739 290.767 598.739 291.54C598.739 292.3 598.906 292.987 599.239 293.6C599.573 294.213 600.033 294.693 600.619 295.04C601.219 295.387 601.879 295.56 602.599 295.56ZM615.08 297.1C614.24 297.1 613.427 296.967 612.64 296.7C611.867 296.42 611.247 296.027 610.78 295.52C610.62 295.347 610.554 295.147 610.58 294.92C610.607 294.693 610.714 294.5 610.9 294.34C611.114 294.18 611.327 294.12 611.54 294.16C611.767 294.187 611.96 294.28 612.12 294.44C612.4 294.773 612.8 295.047 613.32 295.26C613.84 295.46 614.414 295.56 615.04 295.56C615.96 295.56 616.634 295.407 617.06 295.1C617.487 294.78 617.707 294.393 617.72 293.94C617.734 293.487 617.52 293.107 617.08 292.8C616.654 292.493 615.92 292.253 614.88 292.08C613.534 291.853 612.547 291.473 611.92 290.94C611.307 290.407 611 289.767 611 289.02C611 288.34 611.187 287.773 611.56 287.32C611.934 286.867 612.42 286.527 613.02 286.3C613.634 286.073 614.294 285.96 615 285.96C615.894 285.96 616.667 286.113 617.32 286.42C617.974 286.713 618.5 287.113 618.9 287.62C619.06 287.807 619.127 288.007 619.1 288.22C619.074 288.42 618.967 288.587 618.78 288.72C618.594 288.827 618.38 288.86 618.14 288.82C617.914 288.78 617.72 288.673 617.56 288.5C617.227 288.14 616.847 287.88 616.42 287.72C615.994 287.56 615.507 287.48 614.96 287.48C614.28 287.48 613.72 287.613 613.28 287.88C612.854 288.147 612.64 288.493 612.64 288.92C612.64 289.213 612.714 289.467 612.86 289.68C613.02 289.893 613.3 290.087 613.7 290.26C614.1 290.42 614.66 290.567 615.38 290.7C616.38 290.873 617.167 291.113 617.74 291.42C618.327 291.727 618.747 292.093 619 292.52C619.254 292.933 619.38 293.393 619.38 293.9C619.38 294.513 619.2 295.06 618.84 295.54C618.494 296.02 617.994 296.4 617.34 296.68C616.7 296.96 615.947 297.1 615.08 297.1ZM632.841 297.1C631.761 297.1 630.801 296.86 629.961 296.38C629.134 295.9 628.481 295.24 628.001 294.4C627.521 293.56 627.281 292.607 627.281 291.54C627.281 290.46 627.521 289.5 628.001 288.66C628.481 287.82 629.134 287.16 629.961 286.68C630.801 286.2 631.761 285.96 632.841 285.96C633.907 285.96 634.854 286.2 635.681 286.68C636.507 287.16 637.161 287.82 637.641 288.66C638.121 289.5 638.367 290.46 638.381 291.54C638.381 292.607 638.141 293.56 637.661 294.4C637.181 295.24 636.521 295.9 635.681 296.38C634.854 296.86 633.907 297.1 632.841 297.1ZM632.841 295.56C633.587 295.56 634.254 295.387 634.841 295.04C635.427 294.693 635.881 294.22 636.201 293.62C636.534 293.007 636.701 292.313 636.701 291.54C636.701 290.767 636.534 290.073 636.201 289.46C635.881 288.847 635.427 288.367 634.841 288.02C634.254 287.673 633.587 287.5 632.841 287.5C632.094 287.5 631.427 287.673 630.841 288.02C630.254 288.367 629.787 288.847 629.441 289.46C629.107 290.073 628.941 290.767 628.941 291.54C628.941 292.313 629.107 293.007 629.441 293.62C629.787 294.22 630.254 294.693 630.841 295.04C631.427 295.387 632.094 295.56 632.841 295.56ZM642.676 297C642.463 297 642.27 296.927 642.096 296.78C641.936 296.62 641.856 296.407 641.856 296.14V286.1C641.856 285.153 642.023 284.327 642.356 283.62C642.703 282.913 643.196 282.367 643.836 281.98C644.49 281.58 645.263 281.38 646.156 281.38C646.41 281.38 646.616 281.453 646.776 281.6C646.936 281.747 647.016 281.933 647.016 282.16C647.016 282.373 646.936 282.553 646.776 282.7C646.616 282.847 646.41 282.92 646.156 282.92C645.596 282.92 645.123 283.053 644.736 283.32C644.35 283.573 644.056 283.933 643.856 284.4C643.656 284.853 643.556 285.38 643.556 285.98V296.14C643.556 296.407 643.476 296.62 643.316 296.78C643.17 296.927 642.956 297 642.676 297ZM640.716 287.92C640.476 287.92 640.283 287.853 640.136 287.72C640.003 287.587 639.936 287.413 639.936 287.2C639.936 286.987 640.003 286.813 640.136 286.68C640.283 286.533 640.476 286.46 640.716 286.46H645.836C646.076 286.46 646.263 286.533 646.396 286.68C646.543 286.813 646.616 286.987 646.616 287.2C646.616 287.413 646.543 287.587 646.396 287.72C646.263 287.853 646.076 287.92 645.836 287.92H640.716ZM659.46 297.1C658.406 297.1 657.466 296.86 656.64 296.38C655.813 295.887 655.16 295.22 654.68 294.38C654.213 293.54 653.98 292.593 653.98 291.54C653.98 290.473 654.206 289.52 654.66 288.68C655.126 287.84 655.753 287.18 656.54 286.7C657.34 286.207 658.26 285.96 659.3 285.96C660.1 285.96 660.84 286.12 661.52 286.44C662.2 286.747 662.8 287.213 663.32 287.84C663.48 288.027 663.533 288.22 663.48 288.42C663.44 288.607 663.32 288.773 663.12 288.92C662.96 289.04 662.78 289.08 662.58 289.04C662.38 289 662.206 288.893 662.06 288.72C661.326 287.907 660.406 287.5 659.3 287.5C658.58 287.5 657.94 287.673 657.38 288.02C656.833 288.367 656.406 288.84 656.1 289.44C655.793 290.04 655.64 290.74 655.64 291.54C655.64 292.313 655.8 293.007 656.12 293.62C656.44 294.22 656.886 294.693 657.46 295.04C658.046 295.387 658.713 295.56 659.46 295.56C659.966 295.56 660.42 295.493 660.82 295.36C661.233 295.227 661.6 295.027 661.92 294.76C662.093 294.613 662.273 294.533 662.46 294.52C662.66 294.493 662.84 294.547 663 294.68C663.173 294.84 663.273 295.02 663.3 295.22C663.326 295.42 663.26 295.6 663.1 295.76C662.126 296.653 660.913 297.1 659.46 297.1ZM671.493 297.1C670.413 297.1 669.453 296.86 668.613 296.38C667.786 295.9 667.133 295.24 666.653 294.4C666.173 293.56 665.933 292.607 665.933 291.54C665.933 290.46 666.173 289.5 666.653 288.66C667.133 287.82 667.786 287.16 668.613 286.68C669.453 286.2 670.413 285.96 671.493 285.96C672.56 285.96 673.506 286.2 674.333 286.68C675.16 287.16 675.813 287.82 676.293 288.66C676.773 289.5 677.02 290.46 677.033 291.54C677.033 292.607 676.793 293.56 676.313 294.4C675.833 295.24 675.173 295.9 674.333 296.38C673.506 296.86 672.56 297.1 671.493 297.1ZM671.493 295.56C672.24 295.56 672.906 295.387 673.493 295.04C674.08 294.693 674.533 294.22 674.853 293.62C675.186 293.007 675.353 292.313 675.353 291.54C675.353 290.767 675.186 290.073 674.853 289.46C674.533 288.847 674.08 288.367 673.493 288.02C672.906 287.673 672.24 287.5 671.493 287.5C670.746 287.5 670.08 287.673 669.493 288.02C668.906 288.367 668.44 288.847 668.093 289.46C667.76 290.073 667.593 290.767 667.593 291.54C667.593 292.313 667.76 293.007 668.093 293.62C668.44 294.22 668.906 294.693 669.493 295.04C670.08 295.387 670.746 295.56 671.493 295.56ZM681.329 297C681.115 297 680.922 296.927 680.749 296.78C680.589 296.62 680.509 296.407 680.509 296.14V286.1C680.509 285.153 680.675 284.327 681.009 283.62C681.355 282.913 681.849 282.367 682.489 281.98C683.142 281.58 683.915 281.38 684.809 281.38C685.062 281.38 685.269 281.453 685.429 281.6C685.589 281.747 685.669 281.933 685.669 282.16C685.669 282.373 685.589 282.553 685.429 282.7C685.269 282.847 685.062 282.92 684.809 282.92C684.249 282.92 683.775 283.053 683.389 283.32C683.002 283.573 682.709 283.933 682.509 284.4C682.309 284.853 682.209 285.38 682.209 285.98V296.14C682.209 296.407 682.129 296.62 681.969 296.78C681.822 296.927 681.609 297 681.329 297ZM679.369 287.92C679.129 287.92 678.935 287.853 678.789 287.72C678.655 287.587 678.589 287.413 678.589 287.2C678.589 286.987 678.655 286.813 678.789 286.68C678.935 286.533 679.129 286.46 679.369 286.46H684.489C684.729 286.46 684.915 286.533 685.049 286.68C685.195 286.813 685.269 286.987 685.269 287.2C685.269 287.413 685.195 287.587 685.049 287.72C684.915 287.853 684.729 287.92 684.489 287.92H679.369ZM688.649 297C688.435 297 688.242 296.927 688.069 296.78C687.909 296.62 687.829 296.407 687.829 296.14V286.1C687.829 285.153 687.995 284.327 688.329 283.62C688.675 282.913 689.169 282.367 689.809 281.98C690.462 281.58 691.235 281.38 692.129 281.38C692.382 281.38 692.589 281.453 692.749 281.6C692.909 281.747 692.989 281.933 692.989 282.16C692.989 282.373 692.909 282.553 692.749 282.7C692.589 282.847 692.382 282.92 692.129 282.92C691.569 282.92 691.095 283.053 690.709 283.32C690.322 283.573 690.029 283.933 689.829 284.4C689.629 284.853 689.529 285.38 689.529 285.98V296.14C689.529 296.407 689.449 296.62 689.289 296.78C689.142 296.927 688.929 297 688.649 297ZM686.689 287.92C686.449 287.92 686.255 287.853 686.109 287.72C685.975 287.587 685.909 287.413 685.909 287.2C685.909 286.987 685.975 286.813 686.109 286.68C686.255 286.533 686.449 286.46 686.689 286.46H691.809C692.049 286.46 692.235 286.533 692.369 286.68C692.515 286.813 692.589 286.987 692.589 287.2C692.589 287.413 692.515 287.587 692.369 287.72C692.235 287.853 692.049 287.92 691.809 287.92H686.689ZM699.326 297.1C698.233 297.1 697.266 296.867 696.426 296.4C695.586 295.92 694.926 295.26 694.446 294.42C693.966 293.58 693.726 292.62 693.726 291.54C693.726 290.447 693.953 289.487 694.406 288.66C694.859 287.82 695.479 287.16 696.266 286.68C697.066 286.2 697.986 285.96 699.026 285.96C700.053 285.96 700.939 286.193 701.686 286.66C702.433 287.113 703.006 287.747 703.406 288.56C703.819 289.373 704.026 290.3 704.026 291.34C704.026 291.567 703.953 291.753 703.806 291.9C703.659 292.033 703.473 292.1 703.246 292.1H694.886V290.72H703.326L702.486 291.32C702.486 290.587 702.346 289.927 702.066 289.34C701.786 288.753 701.386 288.293 700.866 287.96C700.359 287.627 699.746 287.46 699.026 287.46C698.266 287.46 697.606 287.64 697.046 288C696.486 288.347 696.053 288.827 695.746 289.44C695.439 290.053 695.286 290.753 695.286 291.54C695.286 292.327 695.459 293.027 695.806 293.64C696.153 294.24 696.626 294.72 697.226 295.08C697.839 295.427 698.539 295.6 699.326 295.6C699.779 295.6 700.239 295.52 700.706 295.36C701.186 295.2 701.566 295 701.846 294.76C702.006 294.627 702.186 294.56 702.386 294.56C702.599 294.547 702.779 294.6 702.926 294.72C703.113 294.893 703.206 295.087 703.206 295.3C703.219 295.5 703.139 295.673 702.966 295.82C702.513 296.193 701.946 296.5 701.266 296.74C700.599 296.98 699.953 297.1 699.326 297.1ZM711.259 297.1C710.166 297.1 709.199 296.867 708.359 296.4C707.519 295.92 706.859 295.26 706.379 294.42C705.899 293.58 705.659 292.62 705.659 291.54C705.659 290.447 705.886 289.487 706.339 288.66C706.793 287.82 707.413 287.16 708.199 286.68C708.999 286.2 709.919 285.96 710.959 285.96C711.986 285.96 712.873 286.193 713.619 286.66C714.366 287.113 714.939 287.747 715.339 288.56C715.753 289.373 715.959 290.3 715.959 291.34C715.959 291.567 715.886 291.753 715.739 291.9C715.593 292.033 715.406 292.1 715.179 292.1H706.819V290.72H715.259L714.419 291.32C714.419 290.587 714.279 289.927 713.999 289.34C713.719 288.753 713.319 288.293 712.799 287.96C712.293 287.627 711.679 287.46 710.959 287.46C710.199 287.46 709.539 287.64 708.979 288C708.419 288.347 707.986 288.827 707.679 289.44C707.373 290.053 707.219 290.753 707.219 291.54C707.219 292.327 707.393 293.027 707.739 293.64C708.086 294.24 708.559 294.72 709.159 295.08C709.773 295.427 710.473 295.6 711.259 295.6C711.713 295.6 712.173 295.52 712.639 295.36C713.119 295.2 713.499 295 713.779 294.76C713.939 294.627 714.119 294.56 714.319 294.56C714.533 294.547 714.713 294.6 714.859 294.72C715.046 294.893 715.139 295.087 715.139 295.3C715.153 295.5 715.073 295.673 714.899 295.82C714.446 296.193 713.879 296.5 713.199 296.74C712.533 296.98 711.886 297.1 711.259 297.1Z" fill="#F2EEE3"/>
<path d="M1047.41 238.418C1049.22 238.418 1050.84 238.84 1052.29 239.686C1053.75 240.516 1054.88 241.698 1055.69 243.23C1056.5 244.763 1056.91 246.532 1056.91 248.537C1056.91 252.046 1055.85 254.739 1053.73 256.615C1051.62 258.492 1048.43 259.43 1044.15 259.43C1040.48 259.43 1037.49 258.864 1035.17 257.732V250.771C1036.41 251.344 1037.82 251.817 1039.38 252.189C1040.95 252.562 1042.31 252.748 1043.44 252.748C1045.01 252.748 1046.23 252.419 1047.07 251.76C1047.92 251.087 1048.34 250.098 1048.34 248.795C1048.34 247.592 1047.91 246.654 1047.05 245.98C1046.19 245.307 1044.89 244.971 1043.14 244.971C1041.81 244.971 1040.37 245.221 1038.82 245.723L1035.71 244.176L1036.89 227.59H1054.8V234.658H1044.11L1043.72 238.805C1044.84 238.59 1045.63 238.475 1046.1 238.461C1046.58 238.432 1047.01 238.418 1047.41 238.418ZM1068.47 246.367H1060.48V240.609H1068.47V232.725H1074.25V240.609H1082.24V246.367H1074.25V254.123H1068.47V246.367Z" fill="#F2EEE3"/>
<path d="M964.223 297C963.983 297 963.777 296.92 963.603 296.76C963.443 296.587 963.363 296.38 963.363 296.14V282.24C963.363 281.987 963.443 281.78 963.603 281.62C963.777 281.46 963.983 281.38 964.223 281.38H967.843C968.99 281.38 970.037 281.573 970.983 281.96C971.93 282.333 972.75 282.873 973.443 283.58C974.137 284.273 974.67 285.093 975.043 286.04C975.43 286.987 975.623 288.033 975.623 289.18C975.623 290.327 975.43 291.38 975.043 292.34C974.67 293.287 974.137 294.113 973.443 294.82C972.75 295.513 971.93 296.053 970.983 296.44C970.037 296.813 968.99 297 967.843 297H964.223ZM965.103 295.46H967.843C969.03 295.46 970.077 295.193 970.983 294.66C971.903 294.113 972.623 293.367 973.143 292.42C973.663 291.473 973.923 290.393 973.923 289.18C973.923 287.967 973.663 286.887 973.143 285.94C972.623 284.993 971.903 284.253 970.983 283.72C970.077 283.187 969.03 282.92 967.843 282.92H965.103V295.46ZM979.792 297C979.538 297 979.332 296.92 979.172 296.76C979.012 296.6 978.932 296.393 978.932 296.14V286.92C978.932 286.653 979.012 286.447 979.172 286.3C979.332 286.14 979.538 286.06 979.792 286.06C980.045 286.06 980.245 286.14 980.392 286.3C980.552 286.447 980.632 286.653 980.632 286.92V296.14C980.632 296.393 980.552 296.6 980.392 296.76C980.245 296.92 980.045 297 979.792 297ZM979.772 284.08C979.452 284.08 979.178 283.967 978.952 283.74C978.725 283.513 978.612 283.233 978.612 282.9C978.612 282.567 978.725 282.293 978.952 282.08C979.192 281.853 979.472 281.74 979.792 281.74C980.098 281.74 980.365 281.853 980.592 282.08C980.832 282.293 980.952 282.567 980.952 282.9C980.952 283.233 980.832 283.513 980.592 283.74C980.365 283.967 980.092 284.08 979.772 284.08ZM985.811 297C985.598 297 985.404 296.927 985.231 296.78C985.071 296.62 984.991 296.407 984.991 296.14V286.1C984.991 285.153 985.158 284.327 985.491 283.62C985.838 282.913 986.331 282.367 986.971 281.98C987.624 281.58 988.398 281.38 989.291 281.38C989.544 281.38 989.751 281.453 989.911 281.6C990.071 281.747 990.151 281.933 990.151 282.16C990.151 282.373 990.071 282.553 989.911 282.7C989.751 282.847 989.544 282.92 989.291 282.92C988.731 282.92 988.258 283.053 987.871 283.32C987.484 283.573 987.191 283.933 986.991 284.4C986.791 284.853 986.691 285.38 986.691 285.98V296.14C986.691 296.407 986.611 296.62 986.451 296.78C986.304 296.927 986.091 297 985.811 297ZM983.851 287.92C983.611 287.92 983.418 287.853 983.271 287.72C983.138 287.587 983.071 287.413 983.071 287.2C983.071 286.987 983.138 286.813 983.271 286.68C983.418 286.533 983.611 286.46 983.851 286.46H988.971C989.211 286.46 989.398 286.533 989.531 286.68C989.678 286.813 989.751 286.987 989.751 287.2C989.751 287.413 989.678 287.587 989.531 287.72C989.398 287.853 989.211 287.92 988.971 287.92H983.851ZM993.131 297C992.918 297 992.724 296.927 992.551 296.78C992.391 296.62 992.311 296.407 992.311 296.14V286.1C992.311 285.153 992.478 284.327 992.811 283.62C993.158 282.913 993.651 282.367 994.291 281.98C994.944 281.58 995.718 281.38 996.611 281.38C996.864 281.38 997.071 281.453 997.231 281.6C997.391 281.747 997.471 281.933 997.471 282.16C997.471 282.373 997.391 282.553 997.231 282.7C997.071 282.847 996.864 282.92 996.611 282.92C996.051 282.92 995.578 283.053 995.191 283.32C994.804 283.573 994.511 283.933 994.311 284.4C994.111 284.853 994.011 285.38 994.011 285.98V296.14C994.011 296.407 993.931 296.62 993.771 296.78C993.624 296.927 993.411 297 993.131 297ZM991.171 287.92C990.931 287.92 990.738 287.853 990.591 287.72C990.458 287.587 990.391 287.413 990.391 287.2C990.391 286.987 990.458 286.813 990.591 286.68C990.738 286.533 990.931 286.46 991.171 286.46H996.291C996.531 286.46 996.718 286.533 996.851 286.68C996.998 286.813 997.071 286.987 997.071 287.2C997.071 287.413 996.998 287.587 996.851 287.72C996.718 287.853 996.531 287.92 996.291 287.92H991.171ZM1003.81 297.1C1002.71 297.1 1001.75 296.867 1000.91 296.4C1000.07 295.92 999.408 295.26 998.928 294.42C998.448 293.58 998.208 292.62 998.208 291.54C998.208 290.447 998.435 289.487 998.888 288.66C999.342 287.82 999.962 287.16 1000.75 286.68C1001.55 286.2 1002.47 285.96 1003.51 285.96C1004.53 285.96 1005.42 286.193 1006.17 286.66C1006.91 287.113 1007.49 287.747 1007.89 288.56C1008.3 289.373 1008.51 290.3 1008.51 291.34C1008.51 291.567 1008.43 291.753 1008.29 291.9C1008.14 292.033 1007.95 292.1 1007.73 292.1H999.368V290.72H1007.81L1006.97 291.32C1006.97 290.587 1006.83 289.927 1006.55 289.34C1006.27 288.753 1005.87 288.293 1005.35 287.96C1004.84 287.627 1004.23 287.46 1003.51 287.46C1002.75 287.46 1002.09 287.64 1001.53 288C1000.97 288.347 1000.53 288.827 1000.23 289.44C999.922 290.053 999.768 290.753 999.768 291.54C999.768 292.327 999.942 293.027 1000.29 293.64C1000.63 294.24 1001.11 294.72 1001.71 295.08C1002.32 295.427 1003.02 295.6 1003.81 295.6C1004.26 295.6 1004.72 295.52 1005.19 295.36C1005.67 295.2 1006.05 295 1006.33 294.76C1006.49 294.627 1006.67 294.56 1006.87 294.56C1007.08 294.547 1007.26 294.6 1007.41 294.72C1007.59 294.893 1007.69 295.087 1007.69 295.3C1007.7 295.5 1007.62 295.673 1007.45 295.82C1006.99 296.193 1006.43 296.5 1005.75 296.74C1005.08 296.98 1004.43 297.1 1003.81 297.1ZM1011.87 290.22C1011.9 289.407 1012.11 288.68 1012.49 288.04C1012.89 287.387 1013.41 286.873 1014.05 286.5C1014.69 286.127 1015.41 285.94 1016.19 285.94C1016.87 285.94 1017.39 286.04 1017.73 286.24C1018.09 286.44 1018.23 286.713 1018.13 287.06C1018.09 287.26 1018.01 287.4 1017.87 287.48C1017.75 287.547 1017.61 287.58 1017.43 287.58C1017.27 287.58 1017.09 287.573 1016.87 287.56C1016.1 287.453 1015.41 287.5 1014.79 287.7C1014.18 287.887 1013.69 288.2 1013.33 288.64C1012.97 289.08 1012.79 289.607 1012.79 290.22H1011.87ZM1011.95 297C1011.69 297 1011.48 296.927 1011.33 296.78C1011.19 296.633 1011.11 296.427 1011.11 296.16V286.9C1011.11 286.633 1011.19 286.427 1011.33 286.28C1011.48 286.133 1011.69 286.06 1011.95 286.06C1012.22 286.06 1012.43 286.133 1012.57 286.28C1012.72 286.427 1012.79 286.633 1012.79 286.9V296.16C1012.79 296.427 1012.72 296.633 1012.57 296.78C1012.43 296.927 1012.22 297 1011.95 297ZM1024.67 297.1C1023.57 297.1 1022.61 296.867 1021.77 296.4C1020.93 295.92 1020.27 295.26 1019.79 294.42C1019.31 293.58 1019.07 292.62 1019.07 291.54C1019.07 290.447 1019.29 289.487 1019.75 288.66C1020.2 287.82 1020.82 287.16 1021.61 286.68C1022.41 286.2 1023.33 285.96 1024.37 285.96C1025.39 285.96 1026.28 286.193 1027.03 286.66C1027.77 287.113 1028.35 287.747 1028.75 288.56C1029.16 289.373 1029.37 290.3 1029.37 291.34C1029.37 291.567 1029.29 291.753 1029.15 291.9C1029 292.033 1028.81 292.1 1028.59 292.1H1020.23V290.72H1028.67L1027.83 291.32C1027.83 290.587 1027.69 289.927 1027.41 289.34C1027.13 288.753 1026.73 288.293 1026.21 287.96C1025.7 287.627 1025.09 287.46 1024.37 287.46C1023.61 287.46 1022.95 287.64 1022.39 288C1021.83 288.347 1021.39 288.827 1021.09 289.44C1020.78 290.053 1020.63 290.753 1020.63 291.54C1020.63 292.327 1020.8 293.027 1021.15 293.64C1021.49 294.24 1021.97 294.72 1022.57 295.08C1023.18 295.427 1023.88 295.6 1024.67 295.6C1025.12 295.6 1025.58 295.52 1026.05 295.36C1026.53 295.2 1026.91 295 1027.19 294.76C1027.35 294.627 1027.53 294.56 1027.73 294.56C1027.94 294.547 1028.12 294.6 1028.27 294.72C1028.45 294.893 1028.55 295.087 1028.55 295.3C1028.56 295.5 1028.48 295.673 1028.31 295.82C1027.85 296.193 1027.29 296.5 1026.61 296.74C1025.94 296.98 1025.29 297.1 1024.67 297.1ZM1041.31 297C1041.06 297 1040.85 296.92 1040.69 296.76C1040.53 296.6 1040.45 296.4 1040.45 296.16V291.06C1040.45 290.247 1040.3 289.587 1039.99 289.08C1039.69 288.56 1039.27 288.173 1038.75 287.92C1038.25 287.667 1037.66 287.54 1036.99 287.54C1036.38 287.54 1035.82 287.66 1035.31 287.9C1034.81 288.14 1034.41 288.473 1034.11 288.9C1033.82 289.313 1033.67 289.793 1033.67 290.34H1032.53C1032.55 289.5 1032.76 288.753 1033.17 288.1C1033.6 287.433 1034.17 286.907 1034.87 286.52C1035.58 286.133 1036.37 285.94 1037.23 285.94C1038.18 285.94 1039.02 286.14 1039.75 286.54C1040.5 286.927 1041.09 287.5 1041.51 288.26C1041.94 289.02 1042.15 289.953 1042.15 291.06V296.16C1042.15 296.4 1042.07 296.6 1041.91 296.76C1041.75 296.92 1041.55 297 1041.31 297ZM1032.83 297C1032.58 297 1032.37 296.927 1032.21 296.78C1032.05 296.62 1031.97 296.413 1031.97 296.16V286.92C1031.97 286.653 1032.05 286.447 1032.21 286.3C1032.37 286.14 1032.58 286.06 1032.83 286.06C1033.09 286.06 1033.29 286.14 1033.43 286.3C1033.59 286.447 1033.67 286.653 1033.67 286.92V296.16C1033.67 296.413 1033.59 296.62 1033.43 296.78C1033.29 296.927 1033.09 297 1032.83 297ZM1049.73 297C1049.03 297 1048.41 296.833 1047.87 296.5C1047.32 296.167 1046.89 295.707 1046.57 295.12C1046.26 294.533 1046.11 293.873 1046.11 293.14V283.44C1046.11 283.187 1046.18 282.98 1046.33 282.82C1046.49 282.66 1046.69 282.58 1046.95 282.58C1047.19 282.58 1047.39 282.66 1047.55 282.82C1047.71 282.98 1047.79 283.187 1047.79 283.44V293.14C1047.79 293.767 1047.97 294.287 1048.33 294.7C1048.7 295.1 1049.17 295.3 1049.73 295.3H1050.31C1050.53 295.3 1050.72 295.38 1050.87 295.54C1051.01 295.7 1051.09 295.907 1051.09 296.16C1051.09 296.413 1050.99 296.62 1050.81 296.78C1050.63 296.927 1050.41 297 1050.13 297H1049.73ZM1044.93 287.92C1044.7 287.92 1044.51 287.853 1044.37 287.72C1044.22 287.587 1044.15 287.413 1044.15 287.2C1044.15 286.987 1044.22 286.813 1044.37 286.68C1044.51 286.533 1044.7 286.46 1044.93 286.46H1049.87C1050.09 286.46 1050.28 286.533 1050.43 286.68C1050.57 286.813 1050.65 286.987 1050.65 287.2C1050.65 287.413 1050.57 287.587 1050.43 287.72C1050.28 287.853 1050.09 287.92 1049.87 287.92H1044.93ZM1064.35 297.1C1063.3 297.1 1062.36 296.86 1061.53 296.38C1060.71 295.887 1060.05 295.22 1059.57 294.38C1059.11 293.54 1058.87 292.593 1058.87 291.54C1058.87 290.473 1059.1 289.52 1059.55 288.68C1060.02 287.84 1060.65 287.18 1061.43 286.7C1062.23 286.207 1063.15 285.96 1064.19 285.96C1064.99 285.96 1065.73 286.12 1066.41 286.44C1067.09 286.747 1067.69 287.213 1068.21 287.84C1068.37 288.027 1068.43 288.22 1068.37 288.42C1068.33 288.607 1068.21 288.773 1068.01 288.92C1067.85 289.04 1067.67 289.08 1067.47 289.04C1067.27 289 1067.1 288.893 1066.95 288.72C1066.22 287.907 1065.3 287.5 1064.19 287.5C1063.47 287.5 1062.83 287.673 1062.27 288.02C1061.73 288.367 1061.3 288.84 1060.99 289.44C1060.69 290.04 1060.53 290.74 1060.53 291.54C1060.53 292.313 1060.69 293.007 1061.01 293.62C1061.33 294.22 1061.78 294.693 1062.35 295.04C1062.94 295.387 1063.61 295.56 1064.35 295.56C1064.86 295.56 1065.31 295.493 1065.71 295.36C1066.13 295.227 1066.49 295.027 1066.81 294.76C1066.99 294.613 1067.17 294.533 1067.35 294.52C1067.55 294.493 1067.73 294.547 1067.89 294.68C1068.07 294.84 1068.17 295.02 1068.19 295.22C1068.22 295.42 1068.15 295.6 1067.99 295.76C1067.02 296.653 1065.81 297.1 1064.35 297.1ZM1076.39 297.1C1075.31 297.1 1074.35 296.86 1073.51 296.38C1072.68 295.9 1072.03 295.24 1071.55 294.4C1071.07 293.56 1070.83 292.607 1070.83 291.54C1070.83 290.46 1071.07 289.5 1071.55 288.66C1072.03 287.82 1072.68 287.16 1073.51 286.68C1074.35 286.2 1075.31 285.96 1076.39 285.96C1077.45 285.96 1078.4 286.2 1079.23 286.68C1080.05 287.16 1080.71 287.82 1081.19 288.66C1081.67 289.5 1081.91 290.46 1081.93 291.54C1081.93 292.607 1081.69 293.56 1081.21 294.4C1080.73 295.24 1080.07 295.9 1079.23 296.38C1078.4 296.86 1077.45 297.1 1076.39 297.1ZM1076.39 295.56C1077.13 295.56 1077.8 295.387 1078.39 295.04C1078.97 294.693 1079.43 294.22 1079.75 293.62C1080.08 293.007 1080.25 292.313 1080.25 291.54C1080.25 290.767 1080.08 290.073 1079.75 289.46C1079.43 288.847 1078.97 288.367 1078.39 288.02C1077.8 287.673 1077.13 287.5 1076.39 287.5C1075.64 287.5 1074.97 287.673 1074.39 288.02C1073.8 288.367 1073.33 288.847 1072.99 289.46C1072.65 290.073 1072.49 290.767 1072.49 291.54C1072.49 292.313 1072.65 293.007 1072.99 293.62C1073.33 294.22 1073.8 294.693 1074.39 295.04C1074.97 295.387 1075.64 295.56 1076.39 295.56ZM1089.62 297.12C1088.69 297.12 1087.85 296.927 1087.1 296.54C1086.37 296.14 1085.79 295.56 1085.36 294.8C1084.93 294.04 1084.72 293.107 1084.72 292V286.9C1084.72 286.66 1084.8 286.46 1084.96 286.3C1085.12 286.14 1085.32 286.06 1085.56 286.06C1085.81 286.06 1086.02 286.14 1086.18 286.3C1086.34 286.46 1086.42 286.66 1086.42 286.9V292C1086.42 292.8 1086.57 293.46 1086.86 293.98C1087.17 294.5 1087.58 294.887 1088.1 295.14C1088.62 295.393 1089.21 295.52 1089.86 295.52C1090.49 295.52 1091.05 295.4 1091.54 295.16C1092.05 294.92 1092.45 294.587 1092.74 294.16C1093.03 293.733 1093.18 293.253 1093.18 292.72H1094.34C1094.31 293.56 1094.09 294.313 1093.68 294.98C1093.27 295.633 1092.71 296.153 1092 296.54C1091.29 296.927 1090.5 297.12 1089.62 297.12ZM1094.04 297C1093.79 297 1093.58 296.92 1093.42 296.76C1093.26 296.6 1093.18 296.393 1093.18 296.14V286.9C1093.18 286.647 1093.26 286.447 1093.42 286.3C1093.58 286.14 1093.79 286.06 1094.04 286.06C1094.29 286.06 1094.5 286.14 1094.66 286.3C1094.82 286.447 1094.9 286.647 1094.9 286.9V296.14C1094.9 296.393 1094.82 296.6 1094.66 296.76C1094.5 296.92 1094.29 297 1094.04 297ZM1107.84 297C1107.58 297 1107.38 296.92 1107.22 296.76C1107.06 296.6 1106.98 296.4 1106.98 296.16V291.06C1106.98 290.247 1106.82 289.587 1106.52 289.08C1106.21 288.56 1105.8 288.173 1105.28 287.92C1104.77 287.667 1104.18 287.54 1103.52 287.54C1102.9 287.54 1102.34 287.66 1101.84 287.9C1101.33 288.14 1100.93 288.473 1100.64 288.9C1100.34 289.313 1100.2 289.793 1100.2 290.34H1099.06C1099.07 289.5 1099.28 288.753 1099.7 288.1C1100.12 287.433 1100.69 286.907 1101.4 286.52C1102.1 286.133 1102.89 285.94 1103.76 285.94C1104.7 285.94 1105.54 286.14 1106.28 286.54C1107.02 286.927 1107.61 287.5 1108.04 288.26C1108.46 289.02 1108.68 289.953 1108.68 291.06V296.16C1108.68 296.4 1108.6 296.6 1108.44 296.76C1108.28 296.92 1108.08 297 1107.84 297ZM1099.36 297C1099.1 297 1098.9 296.927 1098.74 296.78C1098.58 296.62 1098.5 296.413 1098.5 296.16V286.92C1098.5 286.653 1098.58 286.447 1098.74 286.3C1098.9 286.14 1099.1 286.06 1099.36 286.06C1099.61 286.06 1099.81 286.14 1099.96 286.3C1100.12 286.447 1100.2 286.653 1100.2 286.92V296.16C1100.2 296.413 1100.12 296.62 1099.96 296.78C1099.81 296.927 1099.61 297 1099.36 297ZM1116.25 297C1115.56 297 1114.94 296.833 1114.39 296.5C1113.84 296.167 1113.41 295.707 1113.09 295.12C1112.78 294.533 1112.63 293.873 1112.63 293.14V283.44C1112.63 283.187 1112.7 282.98 1112.85 282.82C1113.01 282.66 1113.22 282.58 1113.47 282.58C1113.71 282.58 1113.91 282.66 1114.07 282.82C1114.23 282.98 1114.31 283.187 1114.31 283.44V293.14C1114.31 293.767 1114.49 294.287 1114.85 294.7C1115.22 295.1 1115.69 295.3 1116.25 295.3H1116.83C1117.06 295.3 1117.24 295.38 1117.39 295.54C1117.54 295.7 1117.61 295.907 1117.61 296.16C1117.61 296.413 1117.52 296.62 1117.33 296.78C1117.16 296.927 1116.93 297 1116.65 297H1116.25ZM1111.45 287.92C1111.22 287.92 1111.04 287.853 1110.89 287.72C1110.74 287.587 1110.67 287.413 1110.67 287.2C1110.67 286.987 1110.74 286.813 1110.89 286.68C1111.04 286.533 1111.22 286.46 1111.45 286.46H1116.39C1116.62 286.46 1116.8 286.533 1116.95 286.68C1117.1 286.813 1117.17 286.987 1117.17 287.2C1117.17 287.413 1117.1 287.587 1116.95 287.72C1116.8 287.853 1116.62 287.92 1116.39 287.92H1111.45ZM1120.88 290.22C1120.9 289.407 1121.11 288.68 1121.5 288.04C1121.9 287.387 1122.42 286.873 1123.06 286.5C1123.7 286.127 1124.41 285.94 1125.2 285.94C1125.88 285.94 1126.39 286.04 1126.74 286.24C1127.1 286.44 1127.23 286.713 1127.14 287.06C1127.1 287.26 1127.01 287.4 1126.88 287.48C1126.76 287.547 1126.61 287.58 1126.44 287.58C1126.28 287.58 1126.09 287.573 1125.88 287.56C1125.1 287.453 1124.41 287.5 1123.8 287.7C1123.18 287.887 1122.7 288.2 1122.34 288.64C1121.98 289.08 1121.8 289.607 1121.8 290.22H1120.88ZM1120.96 297C1120.69 297 1120.48 296.927 1120.34 296.78C1120.19 296.633 1120.12 296.427 1120.12 296.16V286.9C1120.12 286.633 1120.19 286.427 1120.34 286.28C1120.48 286.133 1120.69 286.06 1120.96 286.06C1121.22 286.06 1121.43 286.133 1121.58 286.28C1121.72 286.427 1121.8 286.633 1121.8 286.9V296.16C1121.8 296.427 1121.72 296.633 1121.58 296.78C1121.43 296.927 1121.22 297 1120.96 297ZM1130.59 297C1130.34 297 1130.13 296.92 1129.97 296.76C1129.81 296.6 1129.73 296.393 1129.73 296.14V286.92C1129.73 286.653 1129.81 286.447 1129.97 286.3C1130.13 286.14 1130.34 286.06 1130.59 286.06C1130.85 286.06 1131.05 286.14 1131.19 286.3C1131.35 286.447 1131.43 286.653 1131.43 286.92V296.14C1131.43 296.393 1131.35 296.6 1131.19 296.76C1131.05 296.92 1130.85 297 1130.59 297ZM1130.57 284.08C1130.25 284.08 1129.98 283.967 1129.75 283.74C1129.53 283.513 1129.41 283.233 1129.41 282.9C1129.41 282.567 1129.53 282.293 1129.75 282.08C1129.99 281.853 1130.27 281.74 1130.59 281.74C1130.9 281.74 1131.17 281.853 1131.39 282.08C1131.63 282.293 1131.75 282.567 1131.75 282.9C1131.75 283.233 1131.63 283.513 1131.39 283.74C1131.17 283.967 1130.89 284.08 1130.57 284.08ZM1140.33 297.1C1139.24 297.1 1138.27 296.867 1137.43 296.4C1136.59 295.92 1135.93 295.26 1135.45 294.42C1134.97 293.58 1134.73 292.62 1134.73 291.54C1134.73 290.447 1134.96 289.487 1135.41 288.66C1135.87 287.82 1136.49 287.16 1137.27 286.68C1138.07 286.2 1138.99 285.96 1140.03 285.96C1141.06 285.96 1141.95 286.193 1142.69 286.66C1143.44 287.113 1144.01 287.747 1144.41 288.56C1144.83 289.373 1145.03 290.3 1145.03 291.34C1145.03 291.567 1144.96 291.753 1144.81 291.9C1144.67 292.033 1144.48 292.1 1144.25 292.1H1135.89V290.72H1144.33L1143.49 291.32C1143.49 290.587 1143.35 289.927 1143.07 289.34C1142.79 288.753 1142.39 288.293 1141.87 287.96C1141.37 287.627 1140.75 287.46 1140.03 287.46C1139.27 287.46 1138.61 287.64 1138.05 288C1137.49 288.347 1137.06 288.827 1136.75 289.44C1136.45 290.053 1136.29 290.753 1136.29 291.54C1136.29 292.327 1136.47 293.027 1136.81 293.64C1137.16 294.24 1137.63 294.72 1138.23 295.08C1138.85 295.427 1139.55 295.6 1140.33 295.6C1140.79 295.6 1141.25 295.52 1141.71 295.36C1142.19 295.2 1142.57 295 1142.85 294.76C1143.01 294.627 1143.19 294.56 1143.39 294.56C1143.61 294.547 1143.79 294.6 1143.93 294.72C1144.12 294.893 1144.21 295.087 1144.21 295.3C1144.23 295.5 1144.15 295.673 1143.97 295.82C1143.52 296.193 1142.95 296.5 1142.27 296.74C1141.61 296.98 1140.96 297.1 1140.33 297.1ZM1151.52 297.1C1150.68 297.1 1149.86 296.967 1149.08 296.7C1148.3 296.42 1147.68 296.027 1147.22 295.52C1147.06 295.347 1146.99 295.147 1147.02 294.92C1147.04 294.693 1147.15 294.5 1147.34 294.34C1147.55 294.18 1147.76 294.12 1147.98 294.16C1148.2 294.187 1148.4 294.28 1148.56 294.44C1148.84 294.773 1149.24 295.047 1149.76 295.26C1150.28 295.46 1150.85 295.56 1151.48 295.56C1152.4 295.56 1153.07 295.407 1153.5 295.1C1153.92 294.78 1154.14 294.393 1154.16 293.94C1154.17 293.487 1153.96 293.107 1153.52 292.8C1153.09 292.493 1152.36 292.253 1151.32 292.08C1149.97 291.853 1148.98 291.473 1148.36 290.94C1147.74 290.407 1147.44 289.767 1147.44 289.02C1147.44 288.34 1147.62 287.773 1148 287.32C1148.37 286.867 1148.86 286.527 1149.46 286.3C1150.07 286.073 1150.73 285.96 1151.44 285.96C1152.33 285.96 1153.1 286.113 1153.76 286.42C1154.41 286.713 1154.94 287.113 1155.34 287.62C1155.5 287.807 1155.56 288.007 1155.54 288.22C1155.51 288.42 1155.4 288.587 1155.22 288.72C1155.03 288.827 1154.82 288.86 1154.58 288.82C1154.35 288.78 1154.16 288.673 1154 288.5C1153.66 288.14 1153.28 287.88 1152.86 287.72C1152.43 287.56 1151.94 287.48 1151.4 287.48C1150.72 287.48 1150.16 287.613 1149.72 287.88C1149.29 288.147 1149.08 288.493 1149.08 288.92C1149.08 289.213 1149.15 289.467 1149.3 289.68C1149.46 289.893 1149.74 290.087 1150.14 290.26C1150.54 290.42 1151.1 290.567 1151.82 290.7C1152.82 290.873 1153.6 291.113 1154.18 291.42C1154.76 291.727 1155.18 292.093 1155.44 292.52C1155.69 292.933 1155.82 293.393 1155.82 293.9C1155.82 294.513 1155.64 295.06 1155.28 295.54C1154.93 296.02 1154.43 296.4 1153.78 296.68C1153.14 296.96 1152.38 297.1 1151.52 297.1Z" fill="#F2EEE3"/>
</g>
<defs>
<linearGradient id="paint0_linear" x1="640" y1="0" x2="640" y2="520" gradientUnits="userSpaceOnUse">
<stop stop-color="#E3632D"/>
<stop offset="1" stop-color="#F94E3F"/>
</linearGradient>
<clipPath id="clip0">
<rect width="1280" height="520" fill="white"/>
</clipPath>
</defs>
</svg>
