<svg width="auto" height="auto" viewBox="0 0 480 162" fill="none" xmlns="http://www.w3.org/2000/svg">
<path d="M379.958 150C379.718 150 379.512 149.92 379.338 149.76C379.178 149.587 379.098 149.38 379.098 149.14V136.4L377.278 137.08C377.105 137.16 376.945 137.2 376.798 137.2C376.545 137.2 376.338 137.12 376.178 136.96C376.018 136.8 375.938 136.6 375.938 136.36C375.938 136.173 375.978 136.007 376.058 135.86C376.152 135.713 376.298 135.607 376.498 135.54L379.578 134.46C379.645 134.433 379.712 134.413 379.778 134.4C379.858 134.373 379.925 134.36 379.978 134.36C380.232 134.36 380.432 134.447 380.578 134.62C380.738 134.78 380.818 134.987 380.818 135.24V149.14C380.818 149.38 380.732 149.587 380.558 149.76C380.398 149.92 380.198 150 379.958 150ZM388.814 150C387.908 150 387.101 149.8 386.394 149.4C385.688 148.987 385.128 148.427 384.714 147.72C384.314 147.013 384.114 146.2 384.114 145.28C384.114 144.373 384.314 143.567 384.714 142.86C385.128 142.14 385.688 141.58 386.394 141.18C387.101 140.767 387.908 140.56 388.814 140.56C389.721 140.56 390.528 140.767 391.234 141.18C391.941 141.58 392.494 142.14 392.894 142.86C393.308 143.567 393.514 144.373 393.514 145.28C393.514 146.2 393.308 147.013 392.894 147.72C392.494 148.427 391.941 148.987 391.234 149.4C390.528 149.8 389.721 150 388.814 150ZM388.794 148.44C389.394 148.44 389.921 148.307 390.374 148.04C390.841 147.773 391.208 147.4 391.474 146.92C391.741 146.44 391.874 145.893 391.874 145.28C391.874 144.667 391.741 144.127 391.474 143.66C391.208 143.18 390.841 142.807 390.374 142.54C389.921 142.26 389.394 142.12 388.794 142.12C388.208 142.12 387.681 142.26 387.214 142.54C386.761 142.807 386.401 143.18 386.134 143.66C385.868 144.127 385.734 144.667 385.734 145.28C385.734 145.893 385.868 146.44 386.134 146.92C386.401 147.4 386.761 147.773 387.214 148.04C387.681 148.307 388.208 148.44 388.794 148.44ZM384.714 142.84L389.554 134.86C389.754 134.54 390.014 134.38 390.334 134.38C390.561 134.38 390.754 134.447 390.914 134.58C391.074 134.713 391.174 134.887 391.214 135.1C391.254 135.3 391.214 135.5 391.094 135.7L387.934 140.86L384.714 142.84ZM400.136 150C399.149 150 398.296 149.687 397.576 149.06C396.869 148.433 396.329 147.54 395.956 146.38C395.596 145.207 395.416 143.8 395.416 142.16C395.416 140.547 395.596 139.153 395.956 137.98C396.329 136.807 396.869 135.907 397.576 135.28C398.296 134.653 399.149 134.34 400.136 134.34C401.149 134.34 402.009 134.66 402.716 135.3C403.423 135.927 403.956 136.827 404.316 138C404.689 139.173 404.876 140.56 404.876 142.16C404.876 143.787 404.689 145.187 404.316 146.36C403.956 147.52 403.423 148.42 402.716 149.06C402.009 149.687 401.149 150 400.136 150ZM400.136 148.26C400.829 148.26 401.396 148 401.836 147.48C402.276 146.947 402.603 146.22 402.816 145.3C403.043 144.38 403.156 143.333 403.156 142.16C403.156 141 403.043 139.967 402.816 139.06C402.603 138.14 402.269 137.413 401.816 136.88C401.376 136.347 400.816 136.08 400.136 136.08C399.469 136.08 398.916 136.347 398.476 136.88C398.036 137.4 397.703 138.12 397.476 139.04C397.249 139.96 397.136 141 397.136 142.16C397.136 143.347 397.249 144.4 397.476 145.32C397.703 146.24 398.036 146.96 398.476 147.48C398.916 148 399.469 148.26 400.136 148.26ZM428.18 150C427.927 150 427.72 149.927 427.56 149.78C427.4 149.62 427.32 149.413 427.32 149.16V143.42C427.32 142.5 427.087 141.793 426.62 141.3C426.154 140.793 425.554 140.54 424.82 140.54C424.034 140.54 423.387 140.807 422.88 141.34C422.387 141.86 422.147 142.553 422.16 143.42H420.68C420.694 142.527 420.887 141.747 421.26 141.08C421.634 140.4 422.147 139.873 422.8 139.5C423.467 139.127 424.22 138.94 425.06 138.94C425.834 138.94 426.52 139.12 427.12 139.48C427.72 139.84 428.187 140.36 428.52 141.04C428.854 141.707 429.02 142.5 429.02 143.42V149.16C429.02 149.413 428.94 149.62 428.78 149.78C428.634 149.927 428.434 150 428.18 150ZM414.4 150C414.147 150 413.94 149.927 413.78 149.78C413.62 149.62 413.54 149.413 413.54 149.16V139.92C413.54 139.667 413.62 139.46 413.78 139.3C413.94 139.14 414.147 139.06 414.4 139.06C414.654 139.06 414.854 139.14 415 139.3C415.16 139.46 415.24 139.667 415.24 139.92V149.16C415.24 149.413 415.16 149.62 415 149.78C414.854 149.927 414.654 150 414.4 150ZM421.3 150C421.06 150 420.854 149.927 420.68 149.78C420.52 149.62 420.44 149.413 420.44 149.16V143.42C420.44 142.5 420.207 141.793 419.74 141.3C419.274 140.793 418.674 140.54 417.94 140.54C417.154 140.54 416.507 140.8 416 141.32C415.494 141.84 415.24 142.513 415.24 143.34H414.1C414.114 142.473 414.294 141.713 414.64 141.06C415 140.393 415.487 139.873 416.1 139.5C416.714 139.127 417.407 138.94 418.18 138.94C418.954 138.94 419.64 139.12 420.24 139.48C420.84 139.84 421.307 140.36 421.64 141.04C421.987 141.707 422.16 142.5 422.16 143.42V149.16C422.16 149.413 422.08 149.62 421.92 149.78C421.76 149.927 421.554 150 421.3 150ZM434.867 150C434.32 150 433.827 149.853 433.387 149.56C432.96 149.253 432.627 148.833 432.387 148.3C432.147 147.767 432.027 147.153 432.027 146.46V135.22C432.027 134.967 432.1 134.767 432.247 134.62C432.407 134.46 432.614 134.38 432.867 134.38C433.12 134.38 433.32 134.46 433.467 134.62C433.627 134.767 433.707 134.967 433.707 135.22V146.46C433.707 147.007 433.814 147.453 434.027 147.8C434.254 148.147 434.534 148.32 434.867 148.32H435.367C435.594 148.32 435.774 148.4 435.907 148.56C436.04 148.707 436.107 148.907 436.107 149.16C436.107 149.413 436.007 149.62 435.807 149.78C435.62 149.927 435.367 150 435.047 150H434.867ZM438.629 150.32C438.282 150.32 437.989 150.2 437.749 149.96C437.509 149.72 437.389 149.427 437.389 149.08C437.389 148.733 437.509 148.44 437.749 148.2C438.002 147.96 438.295 147.84 438.629 147.84C438.962 147.84 439.249 147.967 439.489 148.22C439.729 148.46 439.849 148.747 439.849 149.08C439.849 149.413 439.729 149.707 439.489 149.96C439.262 150.2 438.975 150.32 438.629 150.32Z" fill="#6F2108"/>
<path d="M476.121 114.182H339.879C337.737 114.182 336 115.918 336 118.061C336 120.203 337.737 121.939 339.879 121.939H476.121C478.263 121.939 480 120.203 480 118.061C480 115.918 478.263 114.182 476.121 114.182Z" fill="#6F2108"/>
<path d="M362.505 40.6845C368.808 41.3279 372.439 43.4521 375.757 45.3682C379.328 47.4307 382.453 49.2121 388.968 49.2121C395.484 49.2121 398.589 47.4307 402.16 45.3682C406.124 43.0787 410.626 40.4848 419.222 40.4848C427.817 40.4848 432.233 43.0797 436.197 45.3682C438.973 46.9716 441.535 48.4004 445.414 48.959V29.8181H362.505V40.6845Z" fill="#F94E3F"/>
<path d="M383.03 99.6364H425.212C436.44 99.6364 445.414 90.5013 445.414 79.2727V56.9746C445.414 56.8979 445.366 56.8242 445.3 56.7506C439.259 56.0834 435.646 53.9821 432.363 52.0863C428.792 50.0238 425.728 48.2424 419.212 48.2424C412.696 48.2424 409.621 50.0238 406.051 52.0863C402.087 54.3753 397.6 56.9697 389.004 56.9697C380.409 56.9697 375.839 54.3748 371.876 52.0863C369.1 50.4829 366.869 49.0541 362.506 48.4955V79.2727C362.505 90.5013 371.801 99.6364 383.03 99.6364Z" fill="#E3632D"/>
<path d="M383.03 107.394H425.212C437.311 107.394 447.65 99.7119 451.609 88.9696H454.06C468.363 88.9696 479.999 77.3333 479.999 63.0302C479.999 48.7272 468.363 37.0908 454.06 37.0908H453.171V25.9393C453.171 23.7973 451.596 22.0605 449.454 22.0605H358.787C356.645 22.0605 354.747 23.7973 354.747 25.9393V79.2727C354.747 94.7786 367.524 107.394 383.03 107.394ZM445.414 48.9595C441.535 48.4009 438.977 46.9716 436.202 45.3687C432.238 43.0797 427.786 40.4848 419.191 40.4848C410.596 40.4848 406.124 43.0792 402.16 45.3682C398.589 47.4307 395.515 49.2121 388.999 49.2121C382.483 49.2121 379.323 47.4307 375.752 45.3682C372.434 43.4521 368.808 41.3279 362.505 40.6845V29.8181H445.414L445.414 48.9595ZM362.505 48.495C366.868 49.0535 369.101 50.4828 371.877 52.0858C375.841 54.3747 380.373 56.9692 388.968 56.9692C397.564 56.9692 402.077 54.3742 406.04 52.0858C409.611 50.0232 412.705 48.2419 419.222 48.2419C425.738 48.2419 428.827 50.0232 432.398 52.0858C435.681 53.9815 439.257 56.0828 445.297 56.75C445.361 56.7573 445.414 56.7626 445.414 56.7694V56.974V79.2722C445.414 90.5008 436.44 99.6358 425.212 99.6358H383.03C371.801 99.6358 362.505 90.5008 362.505 79.2722V48.495ZM454.06 44.8484C464.086 44.8484 472.242 53.0045 472.242 63.0302C472.242 73.0559 464.086 81.2121 454.06 81.2121H453.259C453.303 80.5706 453.171 79.9253 453.171 79.2727V44.8484H454.06Z" fill="#6F2108"/>
<path d="M217.298 150.04C216.405 150.04 215.605 149.833 214.898 149.42C214.205 148.993 213.652 148.42 213.238 147.7C212.838 146.98 212.638 146.167 212.638 145.26C212.638 144.38 212.838 143.593 213.238 142.9C213.652 142.207 214.205 141.66 214.898 141.26C215.605 140.86 216.405 140.66 217.298 140.66C218.192 140.66 218.985 140.86 219.678 141.26C220.385 141.66 220.938 142.207 221.338 142.9C221.738 143.593 221.938 144.38 221.938 145.26C221.925 146.167 221.712 146.98 221.298 147.7C220.898 148.42 220.352 148.993 219.658 149.42C218.965 149.833 218.178 150.04 217.298 150.04ZM217.298 148.5C217.858 148.5 218.358 148.36 218.798 148.08C219.238 147.787 219.585 147.4 219.838 146.92C220.105 146.427 220.238 145.873 220.238 145.26C220.238 144.673 220.112 144.147 219.858 143.68C219.605 143.213 219.258 142.847 218.818 142.58C218.378 142.313 217.872 142.18 217.298 142.18C216.738 142.18 216.232 142.313 215.778 142.58C215.338 142.847 214.985 143.213 214.718 143.68C214.465 144.147 214.338 144.673 214.338 145.26C214.338 145.873 214.465 146.427 214.718 146.92C214.972 147.4 215.318 147.787 215.758 148.08C216.212 148.36 216.725 148.5 217.298 148.5ZM217.298 141.96C216.552 141.96 215.885 141.793 215.298 141.46C214.712 141.127 214.245 140.68 213.898 140.12C213.565 139.547 213.398 138.893 213.398 138.16C213.398 137.44 213.565 136.793 213.898 136.22C214.245 135.633 214.712 135.173 215.298 134.84C215.885 134.493 216.552 134.32 217.298 134.32C218.045 134.307 218.712 134.467 219.298 134.8C219.885 135.133 220.345 135.593 220.678 136.18C221.025 136.767 221.192 137.427 221.178 138.16C221.178 138.893 221.005 139.547 220.658 140.12C220.312 140.68 219.845 141.127 219.258 141.46C218.685 141.793 218.032 141.96 217.298 141.96ZM217.298 140.52C217.712 140.52 218.085 140.413 218.418 140.2C218.752 139.987 219.018 139.7 219.218 139.34C219.418 138.98 219.518 138.573 219.518 138.12C219.532 137.693 219.438 137.313 219.238 136.98C219.052 136.633 218.785 136.367 218.438 136.18C218.105 135.98 217.725 135.88 217.298 135.88C216.658 135.88 216.125 136.093 215.698 136.52C215.285 136.947 215.072 137.48 215.058 138.12C215.045 138.8 215.252 139.373 215.678 139.84C216.105 140.293 216.645 140.52 217.298 140.52ZM228.896 150C227.909 150 227.056 149.687 226.336 149.06C225.629 148.433 225.089 147.54 224.716 146.38C224.356 145.207 224.176 143.8 224.176 142.16C224.176 140.547 224.356 139.153 224.716 137.98C225.089 136.807 225.629 135.907 226.336 135.28C227.056 134.653 227.909 134.34 228.896 134.34C229.909 134.34 230.769 134.66 231.476 135.3C232.182 135.927 232.716 136.827 233.076 138C233.449 139.173 233.636 140.56 233.636 142.16C233.636 143.787 233.449 145.187 233.076 146.36C232.716 147.52 232.182 148.42 231.476 149.06C230.769 149.687 229.909 150 228.896 150ZM228.896 148.26C229.589 148.26 230.156 148 230.596 147.48C231.036 146.947 231.362 146.22 231.576 145.3C231.802 144.38 231.916 143.333 231.916 142.16C231.916 141 231.802 139.967 231.576 139.06C231.362 138.14 231.029 137.413 230.576 136.88C230.136 136.347 229.576 136.08 228.896 136.08C228.229 136.08 227.676 136.347 227.236 136.88C226.796 137.4 226.462 138.12 226.236 139.04C226.009 139.96 225.896 141 225.896 142.16C225.896 143.347 226.009 144.4 226.236 145.32C226.462 146.24 226.796 146.96 227.236 147.48C227.676 148 228.229 148.26 228.896 148.26ZM256.94 150C256.687 150 256.48 149.927 256.32 149.78C256.16 149.62 256.08 149.413 256.08 149.16V143.42C256.08 142.5 255.847 141.793 255.38 141.3C254.913 140.793 254.313 140.54 253.58 140.54C252.793 140.54 252.147 140.807 251.64 141.34C251.147 141.86 250.907 142.553 250.92 143.42H249.44C249.453 142.527 249.647 141.747 250.02 141.08C250.393 140.4 250.907 139.873 251.56 139.5C252.227 139.127 252.98 138.94 253.82 138.94C254.593 138.94 255.28 139.12 255.88 139.48C256.48 139.84 256.947 140.36 257.28 141.04C257.613 141.707 257.78 142.5 257.78 143.42V149.16C257.78 149.413 257.7 149.62 257.54 149.78C257.393 149.927 257.193 150 256.94 150ZM243.16 150C242.907 150 242.7 149.927 242.54 149.78C242.38 149.62 242.3 149.413 242.3 149.16V139.92C242.3 139.667 242.38 139.46 242.54 139.3C242.7 139.14 242.907 139.06 243.16 139.06C243.413 139.06 243.613 139.14 243.76 139.3C243.92 139.46 244 139.667 244 139.92V149.16C244 149.413 243.92 149.62 243.76 149.78C243.613 149.927 243.413 150 243.16 150ZM250.06 150C249.82 150 249.613 149.927 249.44 149.78C249.28 149.62 249.2 149.413 249.2 149.16V143.42C249.2 142.5 248.967 141.793 248.5 141.3C248.033 140.793 247.433 140.54 246.7 140.54C245.913 140.54 245.267 140.8 244.76 141.32C244.253 141.84 244 142.513 244 143.34H242.86C242.873 142.473 243.053 141.713 243.4 141.06C243.76 140.393 244.247 139.873 244.86 139.5C245.473 139.127 246.167 138.94 246.94 138.94C247.713 138.94 248.4 139.12 249 139.48C249.6 139.84 250.067 140.36 250.4 141.04C250.747 141.707 250.92 142.5 250.92 143.42V149.16C250.92 149.413 250.84 149.62 250.68 149.78C250.52 149.927 250.313 150 250.06 150ZM263.627 150C263.08 150 262.587 149.853 262.147 149.56C261.72 149.253 261.387 148.833 261.147 148.3C260.907 147.767 260.787 147.153 260.787 146.46V135.22C260.787 134.967 260.86 134.767 261.007 134.62C261.167 134.46 261.373 134.38 261.627 134.38C261.88 134.38 262.08 134.46 262.227 134.62C262.387 134.767 262.467 134.967 262.467 135.22V146.46C262.467 147.007 262.573 147.453 262.787 147.8C263.013 148.147 263.293 148.32 263.627 148.32H264.127C264.353 148.32 264.533 148.4 264.667 148.56C264.8 148.707 264.867 148.907 264.867 149.16C264.867 149.413 264.767 149.62 264.567 149.78C264.38 149.927 264.127 150 263.807 150H263.627ZM267.388 150.32C267.042 150.32 266.748 150.2 266.508 149.96C266.268 149.72 266.148 149.427 266.148 149.08C266.148 148.733 266.268 148.44 266.508 148.2C266.762 147.96 267.055 147.84 267.388 147.84C267.722 147.84 268.008 147.967 268.248 148.22C268.488 148.46 268.608 148.747 268.608 149.08C268.608 149.413 268.488 149.707 268.248 149.96C268.022 150.2 267.735 150.32 267.388 150.32Z" fill="#6F2108"/>
<path d="M308.121 114.182H171.879C169.737 114.182 168 115.918 168 118.061C168 120.203 169.737 121.939 171.879 121.939H308.121C310.263 121.939 312 120.203 312 118.061C312 115.918 310.263 114.182 308.121 114.182Z" fill="#6F2108"/>
<path d="M215.03 99.6364H257.212C268.44 99.6364 277.414 90.5013 277.414 79.2727V56.9746C277.414 56.8979 277.366 56.8242 277.3 56.7506C271.259 56.0834 267.646 53.9821 264.363 52.0863C260.792 50.0238 257.728 48.2424 251.212 48.2424C244.696 48.2424 241.621 50.0238 238.051 52.0863C234.087 54.3753 229.6 56.9697 221.004 56.9697C212.409 56.9697 207.839 54.3748 203.876 52.0863C201.1 50.4829 198.869 49.0541 194.506 48.4955V79.2727C194.505 90.5013 203.801 99.6364 215.03 99.6364Z" fill="#E3632D"/>
<path d="M194.505 56.7224C200.808 57.3658 204.439 59.49 207.757 61.4061C211.328 63.4686 214.453 65.25 220.968 65.25C227.484 65.25 230.589 63.4686 234.16 61.4061C238.124 59.1166 242.626 56.5227 251.221 56.5227C259.817 56.5227 264.233 59.1176 268.197 61.4061C270.973 63.0095 273.535 64.4383 277.414 64.9969V30H194.505L194.505 56.7224Z" fill="#F94E3F"/>
<path d="M215.03 107.394H257.212C269.311 107.394 279.65 99.7119 283.609 88.9696H286.06C300.363 88.9696 311.999 77.3333 311.999 63.0302C311.999 48.7272 300.363 37.0908 286.06 37.0908H285.171V25.9393C285.171 23.7973 283.596 22.0605 281.454 22.0605H190.787C188.645 22.0605 186.747 23.7973 186.747 25.9393V79.2727C186.747 94.7786 199.524 107.394 215.03 107.394ZM277.414 65.2176C273.535 64.659 270.977 63.2297 268.202 61.6268C264.238 59.3378 259.786 56.7429 251.191 56.7429C242.596 56.7429 238.124 59.3373 234.16 61.6263C230.589 63.6888 227.515 65.4702 220.999 65.4702C214.483 65.4702 211.323 63.6888 207.752 61.6263C204.434 59.7102 200.808 57.5861 194.505 56.9427V29.8181H277.414L277.414 65.2176ZM194.505 64.7531C198.868 65.3116 201.101 66.741 203.877 68.3439C207.841 70.6328 212.373 73.2273 220.968 73.2273C229.564 73.2273 234.077 70.6324 238.04 68.3439C241.611 66.2813 244.705 64.5 251.222 64.5C257.738 64.5 260.827 66.2813 264.398 68.3439C267.681 70.2396 271.257 72.341 277.297 73.0081C277.361 73.0154 277.414 73.0207 277.414 73.0275V73.2321V79.2722C277.414 90.5008 268.44 99.6358 257.212 99.6358H215.03C203.801 99.6358 194.505 90.5008 194.505 79.2722V64.7531ZM286.06 44.8484C296.086 44.8484 304.242 53.0045 304.242 63.0302C304.242 73.0559 296.086 81.2121 286.06 81.2121H285.259C285.303 80.5706 285.171 79.9253 285.171 79.2727V44.8484H286.06Z" fill="#6F2108"/>
<path d="M49.4863 150C48.5797 150 47.773 149.8 47.0663 149.4C46.3597 148.987 45.7997 148.427 45.3863 147.72C44.9863 147.013 44.7863 146.2 44.7863 145.28C44.7863 144.373 44.9863 143.567 45.3863 142.86C45.7997 142.14 46.3597 141.58 47.0663 141.18C47.773 140.767 48.5797 140.56 49.4863 140.56C50.393 140.56 51.1997 140.767 51.9063 141.18C52.613 141.58 53.1663 142.14 53.5663 142.86C53.9797 143.567 54.1863 144.373 54.1863 145.28C54.1863 146.2 53.9797 147.013 53.5663 147.72C53.1663 148.427 52.613 148.987 51.9063 149.4C51.1997 149.8 50.393 150 49.4863 150ZM49.4663 148.44C50.0663 148.44 50.593 148.307 51.0463 148.04C51.513 147.773 51.8797 147.4 52.1463 146.92C52.413 146.44 52.5463 145.893 52.5463 145.28C52.5463 144.667 52.413 144.127 52.1463 143.66C51.8797 143.18 51.513 142.807 51.0463 142.54C50.593 142.26 50.0663 142.12 49.4663 142.12C48.8797 142.12 48.353 142.26 47.8863 142.54C47.433 142.807 47.073 143.18 46.8063 143.66C46.5397 144.127 46.4063 144.667 46.4063 145.28C46.4063 145.893 46.5397 146.44 46.8063 146.92C47.073 147.4 47.433 147.773 47.8863 148.04C48.353 148.307 48.8797 148.44 49.4663 148.44ZM45.3863 142.84L50.2263 134.86C50.4263 134.54 50.6863 134.38 51.0063 134.38C51.233 134.38 51.4263 134.447 51.5863 134.58C51.7463 134.713 51.8463 134.887 51.8863 135.1C51.9263 135.3 51.8863 135.5 51.7663 135.7L48.6063 140.86L45.3863 142.84ZM60.8079 150C59.8212 150 58.9679 149.687 58.2479 149.06C57.5412 148.433 57.0012 147.54 56.6279 146.38C56.2679 145.207 56.0879 143.8 56.0879 142.16C56.0879 140.547 56.2679 139.153 56.6279 137.98C57.0012 136.807 57.5412 135.907 58.2479 135.28C58.9679 134.653 59.8212 134.34 60.8079 134.34C61.8212 134.34 62.6812 134.66 63.3879 135.3C64.0946 135.927 64.6279 136.827 64.9879 138C65.3612 139.173 65.5479 140.56 65.5479 142.16C65.5479 143.787 65.3612 145.187 64.9879 146.36C64.6279 147.52 64.0946 148.42 63.3879 149.06C62.6812 149.687 61.8212 150 60.8079 150ZM60.8079 148.26C61.5012 148.26 62.0679 148 62.5079 147.48C62.9479 146.947 63.2746 146.22 63.4879 145.3C63.7146 144.38 63.8279 143.333 63.8279 142.16C63.8279 141 63.7146 139.967 63.4879 139.06C63.2746 138.14 62.9412 137.413 62.4879 136.88C62.0479 136.347 61.4879 136.08 60.8079 136.08C60.1412 136.08 59.5879 136.347 59.1479 136.88C58.7079 137.4 58.3746 138.12 58.1479 139.04C57.9212 139.96 57.8079 141 57.8079 142.16C57.8079 143.347 57.9212 144.4 58.1479 145.32C58.3746 146.24 58.7079 146.96 59.1479 147.48C59.5879 148 60.1412 148.26 60.8079 148.26ZM88.8521 150C88.5988 150 88.3921 149.927 88.2321 149.78C88.0721 149.62 87.9921 149.413 87.9921 149.16V143.42C87.9921 142.5 87.7588 141.793 87.2921 141.3C86.8254 140.793 86.2254 140.54 85.4921 140.54C84.7054 140.54 84.0588 140.807 83.5521 141.34C83.0588 141.86 82.8188 142.553 82.8321 143.42H81.3521C81.3654 142.527 81.5588 141.747 81.9321 141.08C82.3054 140.4 82.8188 139.873 83.4721 139.5C84.1388 139.127 84.8921 138.94 85.7321 138.94C86.5054 138.94 87.1921 139.12 87.7921 139.48C88.3921 139.84 88.8588 140.36 89.1921 141.04C89.5254 141.707 89.6921 142.5 89.6921 143.42V149.16C89.6921 149.413 89.6121 149.62 89.4521 149.78C89.3054 149.927 89.1054 150 88.8521 150ZM75.0721 150C74.8188 150 74.6121 149.927 74.4521 149.78C74.2921 149.62 74.2121 149.413 74.2121 149.16V139.92C74.2121 139.667 74.2921 139.46 74.4521 139.3C74.6121 139.14 74.8188 139.06 75.0721 139.06C75.3254 139.06 75.5254 139.14 75.6721 139.3C75.8321 139.46 75.9121 139.667 75.9121 139.92V149.16C75.9121 149.413 75.8321 149.62 75.6721 149.78C75.5254 149.927 75.3254 150 75.0721 150ZM81.9721 150C81.7321 150 81.5254 149.927 81.3521 149.78C81.1921 149.62 81.1121 149.413 81.1121 149.16V143.42C81.1121 142.5 80.8788 141.793 80.4121 141.3C79.9454 140.793 79.3454 140.54 78.6121 140.54C77.8254 140.54 77.1788 140.8 76.6721 141.32C76.1654 141.84 75.9121 142.513 75.9121 143.34H74.7721C74.7854 142.473 74.9654 141.713 75.3121 141.06C75.6721 140.393 76.1588 139.873 76.7721 139.5C77.3854 139.127 78.0788 138.94 78.8521 138.94C79.6254 138.94 80.3121 139.12 80.9121 139.48C81.5121 139.84 81.9788 140.36 82.3121 141.04C82.6588 141.707 82.8321 142.5 82.8321 143.42V149.16C82.8321 149.413 82.7521 149.62 82.5921 149.78C82.4321 149.927 82.2254 150 81.9721 150ZM95.5388 150C94.9922 150 94.4988 149.853 94.0588 149.56C93.6322 149.253 93.2988 148.833 93.0588 148.3C92.8188 147.767 92.6988 147.153 92.6988 146.46V135.22C92.6988 134.967 92.7722 134.767 92.9188 134.62C93.0788 134.46 93.2855 134.38 93.5388 134.38C93.7922 134.38 93.9922 134.46 94.1388 134.62C94.2988 134.767 94.3788 134.967 94.3788 135.22V146.46C94.3788 147.007 94.4855 147.453 94.6988 147.8C94.9255 148.147 95.2055 148.32 95.5388 148.32H96.0388C96.2655 148.32 96.4455 148.4 96.5788 148.56C96.7122 148.707 96.7788 148.907 96.7788 149.16C96.7788 149.413 96.6788 149.62 96.4788 149.78C96.2922 149.927 96.0388 150 95.7188 150H95.5388ZM99.3005 150.32C98.9539 150.32 98.6605 150.2 98.4205 149.96C98.1805 149.72 98.0605 149.427 98.0605 149.08C98.0605 148.733 98.1805 148.44 98.4205 148.2C98.6739 147.96 98.9672 147.84 99.3005 147.84C99.6339 147.84 99.9205 147.967 100.161 148.22C100.401 148.46 100.521 148.747 100.521 149.08C100.521 149.413 100.401 149.707 100.161 149.96C99.9339 150.2 99.6472 150.32 99.3005 150.32Z" fill="#6F2108"/>
<path d="M140.121 114.182H3.87879C1.73673 114.182 0 115.918 0 118.061C0 120.203 1.73673 121.939 3.87879 121.939H140.121C142.263 121.939 144 120.203 144 118.061C144 115.918 142.263 114.182 140.121 114.182Z" fill="#6F2108"/>
<path d="M47.03 99.6364H89.2118C100.44 99.6364 109.414 90.5013 109.414 79.2727V56.9746C109.414 56.8979 109.366 56.8242 109.3 56.7506C103.259 56.0834 99.6457 53.9821 96.3628 52.0863C92.7919 50.0238 89.7277 48.2424 83.2118 48.2424C76.6959 48.2424 73.6215 50.0238 70.0506 52.0863C66.0869 54.3753 61.5997 56.9697 53.0043 56.9697C44.4089 56.9697 39.8392 54.3748 35.8756 52.0863C33.0998 50.4829 30.8695 49.0541 26.5059 48.4955V79.2727C26.5049 90.5013 35.8014 99.6364 47.03 99.6364Z" fill="#E3632D"/>
<path d="M26.5049 69.4725C32.8079 70.1159 36.4394 72.24 39.7568 74.1562C43.3277 76.2187 46.4525 78 52.9679 78C59.4843 78 62.5888 76.2187 66.1602 74.1562C70.1238 71.8667 74.6261 69.2728 83.2215 69.2728C91.8169 69.2728 96.2334 71.8677 100.197 74.1562C102.973 75.7595 105.535 77.1884 109.414 77.7469V30H26.5049V69.4725Z" fill="#F94E3F"/>
<path d="M47.0297 107.394H89.2116C101.311 107.394 111.65 99.7119 115.609 88.9696H118.06C132.363 88.9696 143.999 77.3333 143.999 63.0302C143.999 48.7272 132.363 37.0908 118.06 37.0908H117.171V25.9393C117.171 23.7973 115.596 22.0605 113.454 22.0605H22.7873C20.6453 22.0605 18.7471 23.7973 18.7471 25.9393V79.2727C18.7471 94.7786 31.5238 107.394 47.0297 107.394ZM109.414 78.0858C105.535 77.5272 102.977 76.0979 100.202 74.495C96.2385 72.206 91.7861 69.6111 83.1912 69.6111C74.5963 69.6111 70.124 72.2055 66.1604 74.4945C62.5895 76.557 59.5151 78.3384 52.9987 78.3384C46.4833 78.3384 43.3231 76.557 39.7522 74.4945C36.4343 72.5784 32.8082 70.4542 26.5051 69.8108V29.8181H109.414L109.414 78.0858ZM26.5046 77.6213C30.8683 78.1798 33.1015 79.6091 35.8773 81.2121C39.8409 83.501 44.3733 86.0955 52.9682 86.0955C61.564 86.0955 66.0765 83.5005 70.0402 81.2121C73.6111 79.1495 76.7054 77.3682 83.2217 77.3682C89.7376 77.3682 92.8271 79.1495 96.398 81.2121C99.6809 83.1078 103.257 85.2092 109.297 85.8763C109.361 85.8836 109.414 85.8889 109.414 85.8957V86.1003V79.2722C109.414 90.5008 100.44 99.6358 89.2116 99.6358H47.0297C35.8011 99.6358 26.5046 90.5008 26.5046 79.2722V77.6213ZM118.06 44.8484C128.086 44.8484 136.242 53.0045 136.242 63.0302C136.242 73.0559 128.086 81.2121 118.06 81.2121H117.259C117.303 80.5706 117.171 79.9253 117.171 79.2727V44.8484H118.06Z" fill="#6F2108"/>
</svg>
