<svg width="24" height="18" viewBox="0 0 24 18" fill="none" xmlns="http://www.w3.org/2000/svg">
<path d="M4 0C2.93913 0 1.92172 0.379285 1.17157 1.05442C0.421427 1.72955 0 2.64522 0 3.6V3.9618L12 9.7776L24 3.9636V3.6C24 2.64522 23.5786 1.72955 22.8284 1.05442C22.0783 0.379285 21.0609 0 20 0H4Z" fill="#F2EEE3"/>
<path d="M24 6.00635L12.474 11.5917C12.3283 11.6623 12.1655 11.6993 12 11.6993C11.8345 11.6993 11.6717 11.6623 11.526 11.5917L0 6.00635V14.3997C0 15.3545 0.421427 16.2702 1.17157 16.9453C1.92172 17.6205 2.93913 17.9997 4 17.9997H20C21.0609 17.9997 22.0783 17.6205 22.8284 16.9453C23.5786 16.2702 24 15.3545 24 14.3997V6.00635Z" fill="#F2EEE3"/>
</svg>
