<svg width="auto" height="auto" viewBox="0 0 235 260" fill="none" xmlns="http://www.w3.org/2000/svg">
<path d="M117.712 0.278782C111.685 14.0442 107.093 25.5154 101.639 36.6998C85.2799 68.2455 86.428 99.5045 103.075 130.763C109.389 142.808 116.277 154.853 121.443 167.471C134.359 198.443 126.609 227.121 105.658 253.792C102.788 257.52 94.1773 260.101 88.4371 259.814C58.301 258.667 37.0622 244.902 22.4247 223.107C-13.7386 169.479 -5.12825 77.7093 40.7934 29.8171C59.449 10.0293 82.6968 -2.01545 117.712 0.278782Z" fill="#E77E4D"/>
<path d="M128.619 257.812C135.22 245.194 140.673 235.156 145.552 224.832C158.755 197.875 157.32 171.205 138.377 147.115C101.353 99.7965 112.259 53.3382 138.377 6.59313C140.386 2.86499 150.719 -0.289581 155.885 0.857537C181.716 6.01957 199.51 21.2189 212.139 40.1463C249.163 94.9212 240.266 177.801 192.335 226.266C176.263 242.039 157.32 254.944 128.619 257.812Z" fill="#E77E4D"/>
</svg>
