<svg width="47" height="48" viewBox="0 0 47 48" fill="none" xmlns="http://www.w3.org/2000/svg">
<path d="M10.9643 16.4082H36.0357C36.5179 16.4082 37 15.9796 37 15.4286V12.9796C37 12.4898 36.5179 12 36.0357 12H10.9643C10.4219 12 10 12.4898 10 12.9796V15.4286C10 15.9796 10.4219 16.4082 10.9643 16.4082ZM10.9643 26.2041H36.0357C36.5179 26.2041 37 25.7755 37 25.2245V22.7755C37 22.2857 36.5179 21.7959 36.0357 21.7959H10.9643C10.4219 21.7959 10 22.2857 10 22.7755V25.2245C10 25.7755 10.4219 26.2041 10.9643 26.2041ZM10.9643 36H36.0357C36.5179 36 37 35.5714 37 35.0204V32.5714C37 32.0816 36.5179 31.5918 36.0357 31.5918H10.9643C10.4219 31.5918 10 32.0816 10 32.5714V35.0204C10 35.5714 10.4219 36 10.9643 36Z" fill="#F2EEE3"/>
</svg>
