<svg width="119" height="40" viewBox="0 0 119 40" fill="none" xmlns="http://www.w3.org/2000/svg">
<path d="M24.7826 6.72896C24.7536 5.66498 24.2887 4.74478 23.4171 4.02587C22.5455 3.27821 21.4705 2.93313 20.2212 2.93313C18.9719 2.93313 17.8969 3.30696 17.0253 4.02587C16.1537 4.77353 15.6889 5.66498 15.6598 6.72896V24.5291C15.6598 24.9029 15.4855 25.2192 15.1659 25.478C14.8463 25.7368 14.4686 25.8806 14.0328 25.8806C13.568 25.8806 13.1612 25.7368 12.8416 25.478C12.522 25.2192 12.3477 24.9029 12.3477 24.5291V6.72896C12.3187 5.66498 11.8538 4.74478 10.9822 4.02587C10.1106 3.27821 9.03563 2.93313 7.78633 2.93313C6.56608 2.93313 5.52016 3.30696 4.64855 4.02587C3.77695 4.77353 3.31209 5.66498 3.25399 6.72896C3.25399 6.75772 3.25399 6.78647 3.25399 6.81523C3.25399 6.84398 3.25399 6.87274 3.25399 6.9015C3.25399 6.93025 3.25399 6.95901 3.25399 6.98777C3.25399 7.01652 3.25399 7.04528 3.25399 7.07403V24.5578C3.25399 24.9317 3.10872 25.248 2.78913 25.5068C2.46954 25.7656 2.09185 25.9094 1.62699 25.9094C1.19119 25.9094 0.813497 25.7656 0.493909 25.5068C0.174321 25.248 0 24.9317 0 24.5578V7.01652C0 6.98777 0 6.95901 0 6.93025C0.116214 6.93025 0.116214 6.9015 0.116214 6.87274C0.116214 6.84398 0.0871604 6.81523 0.0581069 6.78647C0.0581069 6.75772 0.0581069 6.72896 0.0581069 6.7002C0.116214 4.83105 0.900658 3.27821 2.41144 2.04169C3.92222 0.805169 5.72353 0.172531 7.84444 0.172531C10.3721 0.172531 12.4639 1.03522 14.0619 2.78935C15.6308 1.06398 17.6936 0.172531 20.2212 0.172531C22.3421 0.172531 24.1725 0.805169 25.6542 2.04169C27.165 3.27821 27.9494 4.83105 28.0075 6.7002V24.5003C28.0075 24.8742 27.8332 25.1905 27.5136 25.4493C27.2231 25.7369 26.8454 25.8806 26.4096 25.8806C25.9738 25.8806 25.5961 25.7368 25.2765 25.478C24.9569 25.2192 24.7826 24.9029 24.7826 24.5291V6.72896Z" fill="#F2EEE3"/>
<path d="M74.7809 25.8806C71.9918 25.8806 69.4351 25.3055 67.1108 24.1553C64.7865 23.005 62.9271 21.4522 61.5616 19.5255C60.167 17.5701 59.4697 15.4133 59.4697 13.0553C59.4697 10.6973 60.167 8.56935 61.5616 6.61393C62.9561 4.6585 64.7865 3.10566 67.1108 1.95541C69.4351 0.80516 71.9918 0.201279 74.7809 0.201279C75.2167 0.201279 75.5944 0.34506 75.914 0.603866C76.2336 0.862673 76.4079 1.17899 76.4079 1.55282C76.4079 1.95541 76.2336 2.27173 75.914 2.53054C75.5944 2.78934 75.2167 2.90437 74.7809 2.90437C71.4688 2.90437 68.6216 3.88208 66.2392 5.86626C63.8858 7.85045 62.6947 10.2372 62.6947 13.0266C62.6947 15.8159 63.8858 18.2027 66.2392 20.1869C68.5925 22.1711 71.4397 23.1488 74.7809 23.1488C75.2167 23.1488 75.5944 23.2926 75.914 23.5514C76.2336 23.8102 76.4079 24.1265 76.4079 24.5003C76.4079 24.8742 76.2336 25.1905 75.914 25.4493C75.5944 25.7368 75.2167 25.8806 74.7809 25.8806Z" fill="#F2EEE3"/>
<path d="M93.0553 25.8806C90.2662 25.8806 87.7095 25.3055 85.3852 24.1553C83.0609 23.005 81.2015 21.4522 79.836 19.5255C78.4414 17.5701 77.7441 15.4133 77.7441 13.0553C77.7441 10.6973 78.4414 8.56935 79.836 6.61393C81.2306 4.6585 83.0609 3.10566 85.3852 1.95541C87.7095 0.80516 90.2662 0.201279 93.0553 0.201279C93.4911 0.201279 93.8688 0.34506 94.1884 0.603866C94.508 0.862673 94.6823 1.17899 94.6823 1.55282C94.6823 1.95541 94.508 2.27173 94.1884 2.53054C93.8688 2.78934 93.4911 2.90437 93.0553 2.90437C89.7432 2.90437 86.896 3.88208 84.5136 5.86626C82.1603 7.85045 80.9691 10.2372 80.9691 13.0266C80.9691 15.8159 82.1603 18.2027 84.5136 20.1869C86.8669 22.1711 89.7142 23.1488 93.0553 23.1488C93.4911 23.1488 93.8688 23.2926 94.1884 23.5514C94.508 23.8102 94.6823 24.1265 94.6823 24.5003C94.6823 24.8742 94.508 25.1905 94.1884 25.4493C93.8688 25.7368 93.4911 25.8806 93.0553 25.8806Z" fill="#F2EEE3"/>
<path d="M118.217 24.069C118.362 24.5003 118.275 24.9029 117.984 25.2768C117.607 25.6506 117.171 25.8231 116.677 25.8231C113.19 25.8231 110.285 25.8231 107.99 25.8231C105.695 25.8231 103.69 25.8231 101.947 25.8231C100.204 25.8231 99.2448 25.8231 99.0704 25.8231C98.8961 25.8231 98.7218 25.8231 98.5475 25.7944C98.1117 25.6506 97.7921 25.4205 97.6178 25.1042C97.4144 24.7879 97.3854 24.4428 97.5016 24.069L106.334 0.948957C106.653 0.316319 107.176 0 107.874 0C108.571 0 109.094 0.316319 109.443 0.948957L118.217 24.069ZM101.279 23.12H114.44L107.845 5.83752L101.279 23.12Z" fill="#F2EEE3"/>
<path d="M42.3308 0.0287631C41.7207 1.40906 41.2558 2.55932 40.7038 3.68081C39.0478 6.844 39.164 9.97843 40.8491 13.1129C41.4882 14.3206 42.1855 15.5284 42.7085 16.7937C44.0159 19.8993 43.2315 22.775 41.1105 25.4493C40.82 25.8231 39.9484 26.0819 39.3673 26.0532C36.3167 25.9382 34.1668 24.5579 32.685 22.3724C29.0243 16.995 29.8959 7.79296 34.5445 2.99066C36.4329 1.00648 38.7863 -0.201287 42.3308 0.0287631Z" fill="#F2EEE3"/>
<path d="M43.4345 25.8519C44.1028 24.5866 44.6548 23.5801 45.1487 22.5449C46.4851 19.8418 46.3399 17.1675 44.4223 14.752C40.6744 10.0072 41.7785 5.34866 44.4223 0.66139C44.6257 0.287558 45.6716 -0.0287605 46.1946 0.0862646C48.8094 0.603877 50.6107 2.12796 51.8891 4.02587C55.637 9.51832 54.7363 17.8289 49.8844 22.6887C48.2574 24.2703 46.3399 25.5643 43.4345 25.8519Z" fill="#F2EEE3"/>
<path d="M6.0436 39.885H5.49158L4.70714 37.8433H1.54031C1.4241 38.1596 1.30789 38.5047 1.16262 38.8498C1.01735 39.1948 0.901138 39.5399 0.784924 39.8562H0.291016C0.49439 39.3099 0.697764 38.7635 0.901138 38.2459C1.10451 37.7283 1.30789 37.2106 1.51126 36.693C1.71464 36.1754 1.91801 35.6578 2.12138 35.1402C2.32476 34.6226 2.52813 34.0762 2.73151 33.5298H3.39974L6.0436 39.885ZM4.56187 37.4982L3.08015 33.9899L1.68558 37.4982H4.56187Z" fill="#F2EEE3"/>
<path d="M12.116 40C11.6512 40 11.2444 39.9137 10.8667 39.7699C10.489 39.6262 10.1695 39.3961 9.90798 39.1086C9.6465 38.821 9.44313 38.4759 9.29786 38.0733C9.15259 37.6707 9.06543 37.2106 9.06543 36.7218C9.06543 36.2329 9.15259 35.7728 9.29786 35.3702C9.44313 34.9677 9.6465 34.6226 9.90798 34.335C10.1695 34.0475 10.489 33.8462 10.8667 33.6736C11.2444 33.5298 11.6512 33.4436 12.087 33.4436C12.4356 33.4436 12.7552 33.5011 13.0748 33.5874C13.3944 33.6736 13.6559 33.7886 13.8883 33.9612C14.1207 34.1337 14.3241 34.3063 14.4694 34.5363C14.6146 34.7664 14.7309 34.9964 14.789 35.284H14.2951C14.266 35.1114 14.1788 34.9389 14.0626 34.7664C13.9464 34.5938 13.8011 34.45 13.5978 34.335C13.3944 34.22 13.191 34.105 12.9295 34.0475C12.6681 33.9612 12.4066 33.9324 12.087 33.9324C11.7093 33.9324 11.3607 33.9899 11.0701 34.105C10.7505 34.22 10.4891 34.3925 10.2566 34.6513C10.0242 34.8814 9.84987 35.1689 9.73366 35.5428C9.61745 35.8879 9.55934 36.2904 9.55934 36.7505C9.55934 37.2106 9.61745 37.6132 9.73366 37.9583C9.84987 38.3034 10.0242 38.6197 10.2566 38.8497C10.4891 39.0798 10.7505 39.2811 11.0701 39.3961C11.3897 39.5111 11.7383 39.5974 12.116 39.5974C12.639 39.5974 13.1039 39.5111 13.4816 39.3098C13.8593 39.1086 14.2079 38.821 14.4694 38.4759V37.3257H12.6971V36.8081H14.9342V39.885H14.6727L14.4694 39.051C14.3241 39.2236 14.1498 39.3674 13.9755 39.5111C13.8011 39.6262 13.5978 39.7412 13.3944 39.7987C13.191 39.885 12.9876 39.9425 12.7552 39.9712C12.5518 40 12.3485 40 12.116 40Z" fill="#F2EEE3"/>
<path d="M23.4173 39.8849H18.7979V33.5586H23.2721V34.0187H19.2627V36.3479H23.0106V36.808H19.2627V39.3961H23.4173V39.8849Z" fill="#F2EEE3"/>
<path d="M32.1339 39.8849H31.5238L27.6306 34.1049V39.8849H27.1367V33.5586H27.7759L31.64 39.3386V33.5586H32.1049V39.8849H32.1339Z" fill="#F2EEE3"/>
<path d="M40.7628 35.2552C40.7338 35.0539 40.6466 34.8814 40.5304 34.7376C40.4142 34.5651 40.2689 34.4213 40.0946 34.3062C39.9203 34.1912 39.7169 34.0762 39.4845 34.0187C39.252 33.9612 39.0196 33.9037 38.7581 33.9037C38.3804 33.9037 38.0609 33.9612 37.7413 34.0762C37.4507 34.1912 37.1892 34.3638 36.9568 34.5938C36.7534 34.8239 36.5791 35.1114 36.4629 35.4565C36.3467 35.8016 36.2886 36.2042 36.2886 36.6643C36.2886 37.1244 36.3467 37.5269 36.4629 37.9008C36.5791 38.2459 36.7534 38.5622 36.9568 38.7922C37.1602 39.0223 37.4217 39.2236 37.7122 39.3386C38.0027 39.4536 38.3514 39.5111 38.7 39.5111C39.252 39.5111 39.7169 39.3961 40.0655 39.1373C40.4142 38.8785 40.6466 38.5334 40.7338 38.0733H41.2277C41.1696 38.3609 41.0824 38.6484 40.9371 38.8785C40.7919 39.1085 40.6176 39.3098 40.3851 39.4824C40.1527 39.6549 39.9203 39.7699 39.6297 39.8562C39.3392 39.9425 39.0487 39.9712 38.7 39.9712C38.2352 39.9712 37.8284 39.885 37.4798 39.7412C37.1311 39.5974 36.8116 39.3673 36.5501 39.0798C36.2886 38.7922 36.1143 38.4471 35.969 38.0446C35.8237 37.642 35.7656 37.1819 35.7656 36.6643C35.7656 36.1754 35.8237 35.7153 35.969 35.3127C36.1143 34.9101 36.2886 34.5651 36.5501 34.2775C36.8116 33.9899 37.1021 33.7886 37.4798 33.6161C37.8575 33.4436 38.2352 33.386 38.7 33.386C39.0196 33.386 39.3102 33.4436 39.5716 33.5298C39.8622 33.6161 40.0946 33.7311 40.327 33.9037C40.5594 34.0762 40.7338 34.2487 40.879 34.4788C41.0243 34.7088 41.1405 34.9389 41.1986 35.1977H40.7628V35.2552Z" fill="#F2EEE3"/>
<path d="M45.6729 39.8849H45.208V33.5586H45.6729V39.8849Z" fill="#F2EEE3"/>
<path d="M54.9403 39.885H54.3883L53.6039 37.8433H50.4661C50.3499 38.1596 50.2337 38.5047 50.0884 38.8498C49.9431 39.1948 49.8269 39.5399 49.7107 39.8562H49.2168C49.4202 39.3099 49.6235 38.7635 49.8269 38.2459C50.0303 37.7283 50.2337 37.2106 50.437 36.693C50.6404 36.1754 50.8438 35.6578 51.0472 35.1402C51.2505 34.6226 51.4539 34.0762 51.6573 33.5298H52.3255L54.9403 39.885ZM53.4877 37.4982L52.0059 33.9899L50.6114 37.4982H53.4877Z" fill="#F2EEE3"/>
<path d="M74.7818 36.693C74.7818 38.8497 73.7069 39.9137 71.5569 39.9137H69.6104V33.5873H71.5569C72.6319 33.5873 73.4454 33.8461 73.9684 34.3637C74.4913 34.8526 74.7818 35.629 74.7818 36.693ZM74.2879 36.693C74.2879 36.2904 74.2589 35.9166 74.1717 35.5715C74.0846 35.2552 73.9393 34.9676 73.7359 34.7376C73.5326 34.5075 73.242 34.335 72.8934 34.2199C72.5447 34.1049 72.1089 34.0474 71.5569 34.0474H70.1043V39.4536H71.5569C72.0799 39.4536 72.5447 39.3961 72.8934 39.2811C73.242 39.166 73.5326 38.9647 73.7359 38.7347C73.9393 38.5046 74.0846 38.2171 74.1717 37.872C74.2298 37.4982 74.2879 37.1243 74.2879 36.693Z" fill="#F2EEE3"/>
<path d="M79.1973 39.8849H78.7324V33.5586H79.1973V39.8849Z" fill="#F2EEE3"/>
<path d="M86.1414 40C85.6766 40 85.2698 39.9137 84.8921 39.7699C84.5144 39.6262 84.1949 39.3961 83.9334 39.1086C83.6719 38.821 83.4685 38.4759 83.3233 38.0733C83.178 37.6707 83.0908 37.2106 83.0908 36.7218C83.0908 36.2329 83.178 35.7728 83.3233 35.3702C83.4685 34.9677 83.6719 34.6226 83.9334 34.335C84.1949 34.0475 84.5144 33.8462 84.8921 33.6736C85.2698 33.5298 85.6766 33.4436 86.1124 33.4436C86.461 33.4436 86.7806 33.5011 87.1002 33.5874C87.4198 33.6736 87.6813 33.7886 87.9137 33.9612C88.1461 34.1337 88.3495 34.3063 88.4948 34.5363C88.64 34.7664 88.7562 34.9964 88.8143 35.284H88.3204C88.2914 35.1114 88.2042 34.9389 88.088 34.7664C87.9718 34.5938 87.8265 34.45 87.6232 34.335C87.4198 34.22 87.2164 34.105 86.9549 34.0475C86.6934 33.9612 86.432 33.9324 86.1124 33.9324C85.7347 33.9324 85.386 33.9899 85.0955 34.105C84.7759 34.22 84.5144 34.3925 84.282 34.6513C84.0496 34.8814 83.8753 35.1689 83.7591 35.5428C83.6428 35.8879 83.5847 36.2904 83.5847 36.7505C83.5847 37.2106 83.6428 37.6132 83.7591 37.9583C83.8753 38.3034 84.0496 38.6197 84.282 38.8497C84.5144 39.0798 84.7759 39.2811 85.0955 39.3961C85.4151 39.5111 85.7637 39.5974 86.1414 39.5974C86.6644 39.5974 87.1292 39.5111 87.5069 39.3098C87.8846 39.1086 88.2333 38.821 88.4948 38.4759V37.3257H86.7225V36.8081H88.9596V39.885H88.6981L88.4948 39.051C88.3495 39.2236 88.1752 39.3674 88.0009 39.5111C87.8265 39.6262 87.6232 39.7412 87.4198 39.7987C87.2164 39.885 87.013 39.9425 86.7806 39.9712C86.5772 40 86.3739 40 86.1414 40Z" fill="#F2EEE3"/>
<path d="M93.4922 39.8849H93.0273V33.5586H93.4922V39.8849Z" fill="#F2EEE3"/>
<path d="M102.091 34.0187H99.8536V39.8849H99.3887V34.0187H97.1807V33.5586H102.091V34.0187Z" fill="#F2EEE3"/>
<path d="M110.662 39.885H110.11L109.326 37.8433H106.188C106.072 38.1596 105.955 38.5047 105.81 38.8498C105.665 39.1948 105.549 39.5399 105.432 39.8562H104.938C105.142 39.3099 105.345 38.7635 105.549 38.2459C105.752 37.7283 105.955 37.2106 106.159 36.693C106.362 36.1754 106.565 35.6578 106.769 35.1402C106.972 34.6226 107.176 34.0762 107.379 33.5298H108.047L110.662 39.885ZM109.18 37.4982L107.699 33.9899L106.304 37.4982H109.18Z" fill="#F2EEE3"/>
<path d="M117.78 39.8849H114.003V33.5586H114.468V39.4248H117.78V39.8849Z" fill="#F2EEE3"/>
</svg>
