<svg width="80" height="80" viewBox="0 0 80 80" fill="none" xmlns="http://www.w3.org/2000/svg">
<g filter="url(#filter0_d)">
<path d="M76 38C76 57.8825 59.8825 74 40 74C20.1175 74 4 57.8825 4 38C4 18.1175 20.1175 2 40 2C59.8825 2 76 18.1175 76 38Z" fill="url(#paint0_linear)"/>
<path d="M35.8712 29.6021C34.8346 29.6021 33.9941 30.4425 33.9941 31.4791C33.9941 32.5156 34.8346 33.3561 35.8712 33.3561C36.9077 33.3561 37.7482 32.5156 37.7482 31.4791C37.7482 30.4425 36.9077 29.6021 35.8712 29.6021Z" fill="#F2EEE3"/>
<path d="M43.3784 29.6021C42.3419 29.6021 41.502 30.4425 41.502 31.4791C41.502 32.5156 42.3419 33.3561 43.3784 33.3561C44.4155 33.3561 45.2554 32.5156 45.2554 31.4791C45.2554 30.4425 44.4155 29.6021 43.3784 29.6021Z" fill="#F2EEE3"/>
<path d="M50.8868 29.6021C49.8502 29.6021 49.0098 30.4425 49.0098 31.4791C49.0098 32.5156 49.8502 33.3561 50.8868 33.3561C51.9233 33.3561 52.7638 32.5156 52.7638 31.4791C52.7638 30.4425 51.9233 29.6021 50.8868 29.6021Z" fill="#F2EEE3"/>
<path d="M60.1611 41.1124C59.7244 40.0319 58.495 39.5106 57.4151 39.9473C56.3351 40.384 55.8133 41.6134 56.25 42.6934L58.2456 47.6312L52.2043 44.9681C51.6698 44.7324 51.0622 44.7286 50.5255 44.9576C48.3107 45.9025 45.9377 46.382 43.4723 46.382C33.5627 46.382 26.906 38.6339 26.906 31.3978C26.906 23.136 34.3377 16.4141 43.4723 16.4141C52.6075 16.4141 60.0392 23.1355 60.0392 31.3978C60.0392 32.0416 59.9793 32.8128 59.8744 33.5143C59.7024 34.6662 60.4973 35.7396 61.6498 35.9115C62.8017 36.0823 63.875 35.2886 64.047 34.1367C64.1832 33.2253 64.2579 32.2525 64.2579 31.3978C64.2579 20.8097 54.9338 12.1948 43.4723 12.1948C32.6491 12.1948 23.7326 19.8781 22.7741 29.6504C18.3576 32.6161 15.7423 37.3342 15.7423 42.4149C15.7423 45.569 16.7223 48.5634 18.5894 51.149L15.8961 57.8111C15.5742 58.6065 15.767 59.5184 16.3833 60.116C16.7854 60.5055 17.315 60.7109 17.8522 60.7109C18.1395 60.7109 18.429 60.6522 18.7025 60.5319L26.5215 57.0849C28.5095 57.8133 30.6084 58.1819 32.7738 58.1819C32.82 58.1819 32.865 58.1775 32.9101 58.1747C36.0901 58.1517 39.1827 57.3151 41.8612 55.749C44.2298 54.3641 46.1854 52.4679 47.5669 50.2289C48.8463 49.9927 50.0982 49.645 51.3149 49.1863L61.2976 53.5869C61.5712 53.7072 61.8607 53.7659 62.148 53.7659C62.6852 53.7659 63.2148 53.5605 63.6169 53.171C64.2332 52.5734 64.426 51.662 64.1041 50.8661L60.1611 41.1124ZM25.6261 52.8689L21.754 54.5756L22.9575 51.5989C23.252 50.8699 23.1174 50.0383 22.6071 49.4401C20.8762 47.4087 19.961 44.9796 19.961 42.4149C19.961 39.6199 21.0811 36.964 23.0548 34.8936C23.8172 38.5301 25.7415 41.9919 28.5891 44.7324C32.1443 48.1541 36.8064 50.1849 41.8551 50.5431C39.4821 52.6843 36.2186 53.9582 32.7738 53.9582C32.7486 53.9582 32.7244 53.9609 32.6991 53.962C30.8133 53.9521 28.9989 53.5819 27.3048 52.859C26.7676 52.6299 26.1601 52.6338 25.6261 52.8689Z" fill="#F2EEE3"/>
</g>
<defs>
<filter id="filter0_d" x="0" y="0" width="80" height="80" filterUnits="userSpaceOnUse" color-interpolation-filters="sRGB">
<feFlood flood-opacity="0" result="BackgroundImageFix"/>
<feColorMatrix in="SourceAlpha" type="matrix" values="0 0 0 0 0 0 0 0 0 0 0 0 0 0 0 0 0 0 127 0"/>
<feOffset dy="2"/>
<feGaussianBlur stdDeviation="2"/>
<feColorMatrix type="matrix" values="0 0 0 0 0 0 0 0 0 0 0 0 0 0 0 0 0 0 0.15 0"/>
<feBlend mode="normal" in2="BackgroundImageFix" result="effect1_dropShadow"/>
<feBlend mode="normal" in="SourceGraphic" in2="effect1_dropShadow" result="shape"/>
</filter>
<linearGradient id="paint0_linear" x1="40" y1="2" x2="40" y2="74" gradientUnits="userSpaceOnUse">
<stop stop-color="#F94E3F"/>
<stop offset="0.740042" stop-color="#E3632D"/>
</linearGradient>
</defs>
</svg>
